G04 #@! TF.GenerationSoftware,KiCad,Pcbnew,(5.0.2)-1*
G04 #@! TF.CreationDate,2020-03-09T19:04:08+09:00*
G04 #@! TF.ProjectId,eckeyboard,65636b65-7962-46f6-9172-642e6b696361,rev?*
G04 #@! TF.SameCoordinates,Original*
G04 #@! TF.FileFunction,Copper,L2,Bot*
G04 #@! TF.FilePolarity,Positive*
%FSLAX46Y46*%
G04 Gerber Fmt 4.6, Leading zero omitted, Abs format (unit mm)*
G04 Created by KiCad (PCBNEW (5.0.2)-1) date 2020/03/09 19:04:08*
%MOMM*%
%LPD*%
G01*
G04 APERTURE LIST*
G04 #@! TA.AperFunction,ComponentPad*
%ADD10C,1.000000*%
G04 #@! TD*
G04 #@! TA.AperFunction,ViaPad*
%ADD11C,1.000000*%
G04 #@! TD*
G04 #@! TA.AperFunction,Conductor*
%ADD12C,0.100000*%
G04 #@! TD*
G04 #@! TA.AperFunction,Conductor*
%ADD13R,14.000000X0.250000*%
G04 #@! TD*
G04 #@! TA.AperFunction,SMDPad,CuDef*
%ADD14O,4.500000X1.524000*%
G04 #@! TD*
G04 #@! TA.AperFunction,ViaPad*
%ADD15C,0.800000*%
G04 #@! TD*
G04 #@! TA.AperFunction,Conductor*
%ADD16C,0.500000*%
G04 #@! TD*
G04 #@! TA.AperFunction,Conductor*
%ADD17C,0.250000*%
G04 #@! TD*
G04 #@! TA.AperFunction,Conductor*
%ADD18C,1.000000*%
G04 #@! TD*
G04 #@! TA.AperFunction,Conductor*
%ADD19C,0.254000*%
G04 #@! TD*
G04 APERTURE END LIST*
D10*
G04 #@! TO.P,TP1,2*
G04 #@! TO.N,/R*
X93980000Y-74676000D03*
G04 #@! TO.P,TP1,1*
G04 #@! TO.N,/S*
X93980000Y-72660000D03*
D11*
G04 #@! TD*
G04 #@! TO.N,/R*
G04 #@! TO.C,TP1*
X93980000Y-74660000D03*
D12*
G04 #@! TO.N,/R*
G04 #@! TO.C,TP1*
G36*
X87883287Y-74597283D02*
X87892255Y-74539353D01*
X87906833Y-74482575D01*
X87926882Y-74427491D01*
X87952211Y-74374625D01*
X87982577Y-74324484D01*
X88017692Y-74277546D01*
X88057219Y-74234258D01*
X88100782Y-74195033D01*
X88147965Y-74160247D01*
X88198317Y-74130231D01*
X88251358Y-74105272D01*
X88306581Y-74085608D01*
X88363459Y-74071427D01*
X88421450Y-74062864D01*
X88480000Y-74060000D01*
X99480000Y-74060000D01*
X99488377Y-74060058D01*
X99496247Y-74060553D01*
X99504129Y-74060485D01*
X99525498Y-74062394D01*
X99546881Y-74063739D01*
X99554651Y-74064997D01*
X99562517Y-74065700D01*
X99583601Y-74069686D01*
X99604747Y-74073111D01*
X99612372Y-74075126D01*
X99620117Y-74076590D01*
X99640702Y-74082611D01*
X99661422Y-74088086D01*
X99668803Y-74090831D01*
X99676379Y-74093047D01*
X99696295Y-74101055D01*
X99716365Y-74108519D01*
X99723442Y-74111971D01*
X99730767Y-74114916D01*
X99749807Y-74124829D01*
X99769052Y-74134216D01*
X99775759Y-74138342D01*
X99782761Y-74141988D01*
X99800741Y-74153711D01*
X99818980Y-74164932D01*
X99825255Y-74169695D01*
X99831864Y-74174004D01*
X99848594Y-74187410D01*
X99865673Y-74200373D01*
X99871461Y-74205733D01*
X99877610Y-74210660D01*
X99892955Y-74225637D01*
X99908684Y-74240202D01*
X99913913Y-74246091D01*
X99919561Y-74251604D01*
X99933378Y-74268016D01*
X99947603Y-74284038D01*
X99952239Y-74290420D01*
X99957314Y-74296447D01*
X99969448Y-74314104D01*
X99982059Y-74331462D01*
X99986049Y-74338263D01*
X99990513Y-74344759D01*
X100000878Y-74363538D01*
X100011722Y-74382022D01*
X100015026Y-74389172D01*
X100018839Y-74396081D01*
X100027325Y-74415791D01*
X100036310Y-74435236D01*
X100038901Y-74442677D01*
X100042021Y-74449923D01*
X100048543Y-74470364D01*
X100055588Y-74490595D01*
X100057440Y-74498249D01*
X100059839Y-74505769D01*
X100064337Y-74526758D01*
X100069372Y-74547571D01*
X100070468Y-74555371D01*
X100072122Y-74563088D01*
X100074548Y-74584397D01*
X100077531Y-74605620D01*
X100077861Y-74613496D01*
X100078753Y-74621331D01*
X100079088Y-74642789D01*
X100079985Y-74664189D01*
X100079546Y-74672048D01*
X100079669Y-74679943D01*
X100077909Y-74701326D01*
X100076713Y-74722717D01*
X100075507Y-74730510D01*
X100074860Y-74738365D01*
X100071026Y-74759452D01*
X100067745Y-74780647D01*
X100065784Y-74788284D01*
X100064374Y-74796040D01*
X99940542Y-75327973D01*
X99938586Y-75336119D01*
X99931360Y-75360195D01*
X99924478Y-75384349D01*
X99749329Y-75901660D01*
X99746587Y-75909576D01*
X99737040Y-75932847D01*
X99727840Y-75956199D01*
X99503046Y-76453949D01*
X99499545Y-76461560D01*
X99487759Y-76483815D01*
X99476338Y-76506130D01*
X99204046Y-76979569D01*
X99199819Y-76986802D01*
X99185924Y-77007792D01*
X99172372Y-77028897D01*
X98855180Y-77473504D01*
X98850267Y-77480290D01*
X98834436Y-77499766D01*
X98818845Y-77519505D01*
X98459780Y-77931038D01*
X98454229Y-77937312D01*
X98436538Y-77955185D01*
X98419129Y-77973274D01*
X98021619Y-78347804D01*
X98015482Y-78353507D01*
X97996119Y-78369580D01*
X97977041Y-78385871D01*
X97544881Y-78719824D01*
X97538217Y-78724900D01*
X97517378Y-78739007D01*
X97496801Y-78753359D01*
X97034115Y-79043547D01*
X97026988Y-79047949D01*
X97004863Y-79059959D01*
X96982992Y-79072230D01*
X96494196Y-79315883D01*
X96486673Y-79319569D01*
X96463477Y-79329365D01*
X96440518Y-79339441D01*
X95930280Y-79534232D01*
X95922433Y-79537166D01*
X95898378Y-79544656D01*
X95874560Y-79552439D01*
X95347748Y-79696511D01*
X95339653Y-79698665D01*
X95314984Y-79703771D01*
X95290516Y-79709194D01*
X94752159Y-79801170D01*
X94743892Y-79802523D01*
X94718878Y-79805194D01*
X94693964Y-79808207D01*
X94149201Y-79847210D01*
X94140841Y-79847750D01*
X94115698Y-79847967D01*
X94090596Y-79848535D01*
X93544628Y-79834192D01*
X93536256Y-79833914D01*
X93511214Y-79831677D01*
X93486173Y-79829792D01*
X92944209Y-79762240D01*
X92935904Y-79761146D01*
X92911216Y-79756479D01*
X92886464Y-79752157D01*
X92353679Y-79632042D01*
X92345520Y-79630143D01*
X92321347Y-79623072D01*
X92297192Y-79616371D01*
X91778672Y-79444838D01*
X91770737Y-79442152D01*
X91747417Y-79432775D01*
X91723984Y-79423731D01*
X91224676Y-79202416D01*
X91217041Y-79198969D01*
X91194722Y-79187348D01*
X91172310Y-79176074D01*
X90696982Y-78907094D01*
X90689720Y-78902917D01*
X90668665Y-78889189D01*
X90647435Y-78875766D01*
X90200624Y-78561685D01*
X90193804Y-78556820D01*
X90174154Y-78541075D01*
X90154370Y-78525671D01*
X89740340Y-78169488D01*
X89734028Y-78163981D01*
X89716040Y-78146424D01*
X89697822Y-78129134D01*
X89320526Y-77734248D01*
X89314781Y-77728151D01*
X89298574Y-77708902D01*
X89282148Y-77689936D01*
X88945195Y-77260128D01*
X88945187Y-77260118D01*
X88945179Y-77260106D01*
X88940064Y-77253489D01*
X88925827Y-77232770D01*
X88911317Y-77212273D01*
X88617906Y-76751624D01*
X88613454Y-76744527D01*
X88601292Y-76722491D01*
X88588867Y-76700703D01*
X88341807Y-76213620D01*
X88338070Y-76206123D01*
X88328123Y-76183021D01*
X88317876Y-76160108D01*
X88119530Y-75651250D01*
X88119527Y-75651243D01*
X88119524Y-75651235D01*
X88116538Y-75643416D01*
X88108887Y-75619435D01*
X88100931Y-75595650D01*
X87953185Y-75069856D01*
X87950975Y-75061776D01*
X87947846Y-75047175D01*
X87944024Y-75032756D01*
X87909412Y-74870550D01*
X87907721Y-74862345D01*
X87900318Y-74812481D01*
X87890628Y-74772429D01*
X87882469Y-74714380D01*
X87880015Y-74655811D01*
X87883287Y-74597283D01*
X87883287Y-74597283D01*
G37*
D11*
G04 #@! TO.N,/S*
X93980000Y-72660000D03*
D12*
G36*
X87880455Y-72647940D02*
X87880332Y-72640057D01*
X87882090Y-72618697D01*
X87883287Y-72597283D01*
X87884494Y-72589489D01*
X87885140Y-72581634D01*
X87888974Y-72560544D01*
X87892255Y-72539353D01*
X87894216Y-72531716D01*
X87895626Y-72523960D01*
X88019458Y-71992027D01*
X88021414Y-71983881D01*
X88028640Y-71959805D01*
X88035522Y-71935651D01*
X88210671Y-71418340D01*
X88213412Y-71410424D01*
X88222973Y-71387117D01*
X88232160Y-71363801D01*
X88456954Y-70866051D01*
X88460455Y-70858440D01*
X88472241Y-70836185D01*
X88483662Y-70813870D01*
X88755954Y-70340431D01*
X88760181Y-70333198D01*
X88774070Y-70312218D01*
X88787627Y-70291104D01*
X89104820Y-69846496D01*
X89109733Y-69839710D01*
X89125592Y-69820199D01*
X89141155Y-69800496D01*
X89500220Y-69388962D01*
X89505771Y-69382688D01*
X89523481Y-69364794D01*
X89540871Y-69346727D01*
X89938381Y-68972196D01*
X89944518Y-68966493D01*
X89963881Y-68950420D01*
X89982959Y-68934129D01*
X90415118Y-68600176D01*
X90421782Y-68595100D01*
X90442611Y-68581001D01*
X90463199Y-68566641D01*
X90925885Y-68276453D01*
X90933012Y-68272051D01*
X90955137Y-68260041D01*
X90977008Y-68247770D01*
X91465804Y-68004117D01*
X91473327Y-68000431D01*
X91496512Y-67990640D01*
X91519482Y-67980559D01*
X92029720Y-67785768D01*
X92037567Y-67782834D01*
X92061622Y-67775344D01*
X92085440Y-67767561D01*
X92612252Y-67623489D01*
X92620347Y-67621335D01*
X92645016Y-67616229D01*
X92669484Y-67610806D01*
X93207840Y-67518830D01*
X93216107Y-67517477D01*
X93241126Y-67514805D01*
X93266036Y-67511793D01*
X93810798Y-67472790D01*
X93819158Y-67472250D01*
X93844302Y-67472033D01*
X93869404Y-67471465D01*
X94415372Y-67485808D01*
X94423745Y-67486086D01*
X94448795Y-67488324D01*
X94473826Y-67490208D01*
X95015791Y-67557760D01*
X95024096Y-67558854D01*
X95048784Y-67563521D01*
X95073536Y-67567843D01*
X95606321Y-67687958D01*
X95614480Y-67689857D01*
X95638653Y-67696928D01*
X95662808Y-67703629D01*
X96181328Y-67875162D01*
X96189263Y-67877848D01*
X96212583Y-67887225D01*
X96236016Y-67896269D01*
X96735324Y-68117583D01*
X96742959Y-68121031D01*
X96765294Y-68132660D01*
X96787689Y-68143926D01*
X97263018Y-68412906D01*
X97270280Y-68417082D01*
X97291364Y-68430829D01*
X97312565Y-68444234D01*
X97759377Y-68758315D01*
X97766196Y-68763180D01*
X97785817Y-68778902D01*
X97805629Y-68794328D01*
X98219660Y-69150512D01*
X98225972Y-69156019D01*
X98243966Y-69173582D01*
X98262178Y-69190867D01*
X98639475Y-69585752D01*
X98645220Y-69591849D01*
X98661446Y-69611122D01*
X98677852Y-69630064D01*
X99014814Y-70059883D01*
X99019936Y-70066511D01*
X99034187Y-70087250D01*
X99048683Y-70107727D01*
X99342094Y-70568376D01*
X99346546Y-70575473D01*
X99358721Y-70597532D01*
X99371133Y-70619297D01*
X99618192Y-71106379D01*
X99621930Y-71113877D01*
X99631870Y-71136964D01*
X99642124Y-71159891D01*
X99840470Y-71668750D01*
X99840473Y-71668757D01*
X99840476Y-71668765D01*
X99843461Y-71676584D01*
X99851096Y-71700515D01*
X99859069Y-71724349D01*
X100006815Y-72250144D01*
X100009025Y-72258224D01*
X100012154Y-72272826D01*
X100015976Y-72287244D01*
X100050588Y-72449450D01*
X100052279Y-72457655D01*
X100059682Y-72507519D01*
X100069372Y-72547571D01*
X100077531Y-72605620D01*
X100079985Y-72664189D01*
X100076713Y-72722717D01*
X100067745Y-72780647D01*
X100053167Y-72837425D01*
X100033118Y-72892509D01*
X100007789Y-72945375D01*
X99977423Y-72995516D01*
X99942308Y-73042454D01*
X99902781Y-73085742D01*
X99859218Y-73124967D01*
X99812035Y-73159753D01*
X99761683Y-73189769D01*
X99708642Y-73214728D01*
X99653419Y-73234392D01*
X99596541Y-73248573D01*
X99538550Y-73257136D01*
X99480000Y-73260000D01*
X88480000Y-73260000D01*
X88471623Y-73259942D01*
X88463741Y-73259446D01*
X88455871Y-73259514D01*
X88434540Y-73257609D01*
X88413119Y-73256261D01*
X88405335Y-73255000D01*
X88397483Y-73254299D01*
X88376423Y-73250318D01*
X88355253Y-73246889D01*
X88347626Y-73244874D01*
X88339883Y-73243410D01*
X88319302Y-73237390D01*
X88298578Y-73231914D01*
X88291194Y-73229168D01*
X88283622Y-73226953D01*
X88263718Y-73218950D01*
X88243635Y-73211481D01*
X88236553Y-73208027D01*
X88229234Y-73205084D01*
X88210209Y-73195178D01*
X88190948Y-73185784D01*
X88184235Y-73181654D01*
X88177240Y-73178012D01*
X88159280Y-73166302D01*
X88141020Y-73155068D01*
X88134736Y-73150299D01*
X88128136Y-73145995D01*
X88111421Y-73132601D01*
X88094327Y-73119627D01*
X88088538Y-73114266D01*
X88082390Y-73109340D01*
X88067045Y-73094363D01*
X88051316Y-73079798D01*
X88046087Y-73073909D01*
X88040439Y-73068396D01*
X88026622Y-73051984D01*
X88012397Y-73035962D01*
X88007761Y-73029580D01*
X88002686Y-73023553D01*
X87990557Y-73005902D01*
X87977941Y-72988538D01*
X87973948Y-72981731D01*
X87969487Y-72975240D01*
X87959132Y-72956478D01*
X87948278Y-72937978D01*
X87944972Y-72930822D01*
X87941161Y-72923918D01*
X87932679Y-72904218D01*
X87923690Y-72884764D01*
X87921098Y-72877322D01*
X87917979Y-72870077D01*
X87911457Y-72849636D01*
X87904412Y-72829405D01*
X87902560Y-72821751D01*
X87900161Y-72814231D01*
X87895663Y-72793242D01*
X87890628Y-72772429D01*
X87889532Y-72764629D01*
X87887878Y-72756912D01*
X87885452Y-72735603D01*
X87882469Y-72714380D01*
X87882139Y-72706504D01*
X87881247Y-72698669D01*
X87880912Y-72677225D01*
X87880015Y-72655811D01*
X87880455Y-72647940D01*
X87880455Y-72647940D01*
G37*
D13*
G04 #@! TO.N,/GND*
X93980000Y-73660000D03*
G04 #@! TD*
D14*
G04 #@! TO.P,J1,1*
G04 #@! TO.N,/S*
X113792000Y-71120000D03*
G04 #@! TO.P,J1,2*
G04 #@! TO.N,/R*
X113792000Y-73660000D03*
G04 #@! TO.P,J1,3*
G04 #@! TO.N,/GND*
X113792000Y-76200000D03*
G04 #@! TD*
D15*
G04 #@! TO.N,/R*
X104095618Y-73521990D03*
G04 #@! TD*
D16*
G04 #@! TO.N,/S*
X93980000Y-72660000D02*
X100822000Y-72660000D01*
X102362000Y-71120000D02*
X107950000Y-71120000D01*
X100822000Y-72660000D02*
X102362000Y-71120000D01*
X107950000Y-71120000D02*
X113792000Y-71120000D01*
G04 #@! TO.N,/R*
X113792000Y-73660000D02*
X104233628Y-73660000D01*
X104233628Y-73660000D02*
X104095618Y-73521990D01*
D17*
G04 #@! TO.N,/GND*
X100855000Y-73660000D02*
X93980000Y-73660000D01*
X93980000Y-73660000D02*
X100076000Y-73660000D01*
D16*
X86868000Y-73660000D02*
X87924355Y-73660000D01*
X112304000Y-76200000D02*
X113792000Y-76200000D01*
X115280000Y-76200000D02*
X113792000Y-76200000D01*
X116542010Y-74937990D02*
X115280000Y-76200000D01*
X115943010Y-72397990D02*
X116542010Y-72996990D01*
X103624010Y-72397990D02*
X115943010Y-72397990D01*
X112522000Y-76200000D02*
X110744000Y-74422000D01*
X116542010Y-72996990D02*
X116542010Y-74937990D01*
X113792000Y-76200000D02*
X112522000Y-76200000D01*
X110744000Y-74422000D02*
X101219000Y-74422000D01*
X101219000Y-74422000D02*
X100965000Y-74168000D01*
X100965000Y-74168000D02*
X101854000Y-74168000D01*
X101854000Y-74168000D02*
X103624010Y-72397990D01*
X116542010Y-71798990D02*
X115943010Y-72397990D01*
X116542010Y-70597259D02*
X116542010Y-71798990D01*
X100584000Y-70807524D02*
X101150476Y-70807524D01*
X101150476Y-70807524D02*
X101854000Y-70104000D01*
X101854000Y-70104000D02*
X110871000Y-70104000D01*
X110871000Y-70104000D02*
X111117010Y-69857990D01*
X111117010Y-69857990D02*
X115802741Y-69857990D01*
X115802741Y-69857990D02*
X116542010Y-70597259D01*
X116542010Y-71798990D02*
X116542010Y-72996990D01*
X101219000Y-74422000D02*
X101219000Y-74803000D01*
D18*
X113792000Y-76200000D02*
X111042000Y-76200000D01*
X111042000Y-76200000D02*
X100584000Y-76200000D01*
G04 #@! TD*
D19*
G04 #@! TO.N,/GND*
G36*
X95483189Y-66419706D02*
X96987327Y-66795740D01*
X97854916Y-67167564D01*
X99105057Y-68042663D01*
X100227266Y-69164872D01*
X100970250Y-70527009D01*
X101074988Y-71155434D01*
X100512307Y-71718115D01*
X100266101Y-70982076D01*
X100243129Y-70923142D01*
X100222830Y-70877753D01*
X100203056Y-70831827D01*
X100172987Y-70770986D01*
X100168887Y-70763681D01*
X100166709Y-70759832D01*
X99626239Y-69812100D01*
X99592254Y-69758745D01*
X99563494Y-69718119D01*
X99535213Y-69676962D01*
X99493943Y-69623171D01*
X99488503Y-69616801D01*
X99485573Y-69613394D01*
X98771313Y-68788689D01*
X98727618Y-68742957D01*
X98691469Y-68708646D01*
X98655766Y-68673800D01*
X98604812Y-68629033D01*
X98598244Y-68623846D01*
X98594746Y-68628275D01*
X98591220Y-68625582D01*
X98594722Y-68621084D01*
X97733887Y-67950825D01*
X97682137Y-67914448D01*
X97640054Y-67887839D01*
X97598231Y-67860570D01*
X97539556Y-67826554D01*
X97532099Y-67822738D01*
X97528113Y-67820715D01*
X96553477Y-67330421D01*
X96495643Y-67304787D01*
X96449130Y-67286835D01*
X96402876Y-67268236D01*
X96338718Y-67246265D01*
X96330662Y-67243970D01*
X96326349Y-67242758D01*
X95275044Y-66951110D01*
X95213331Y-66937197D01*
X95164259Y-66928629D01*
X95115236Y-66919361D01*
X95047985Y-66910266D01*
X95039636Y-66909580D01*
X95035216Y-66909233D01*
X93947284Y-66827338D01*
X93884053Y-66825676D01*
X93834279Y-66826801D01*
X93784341Y-66827233D01*
X93716669Y-66831368D01*
X93708346Y-66832316D01*
X93703888Y-66832840D01*
X92620767Y-66963820D01*
X92558415Y-66974472D01*
X92509736Y-66985260D01*
X92460913Y-66995366D01*
X92395311Y-67012572D01*
X92387330Y-67015119D01*
X92383077Y-67016493D01*
X91346027Y-67355356D01*
X91286935Y-67377915D01*
X91241291Y-67397946D01*
X91195341Y-67417352D01*
X91134364Y-67446955D01*
X91127030Y-67451003D01*
X91123094Y-67453194D01*
X90171612Y-67987036D01*
X90118031Y-68020640D01*
X90077152Y-68049152D01*
X90035836Y-68077120D01*
X89981743Y-68118026D01*
X89975335Y-68123422D01*
X89971928Y-68126312D01*
X89142258Y-68834797D01*
X89096223Y-68878170D01*
X89061678Y-68914060D01*
X89026565Y-68949538D01*
X88981480Y-69000132D01*
X88976242Y-69006669D01*
X88973429Y-69010205D01*
X88297171Y-69866348D01*
X88260437Y-69917837D01*
X88233484Y-69959812D01*
X88205971Y-70001372D01*
X88171566Y-70059769D01*
X88167697Y-70067200D01*
X88165628Y-70071208D01*
X87668542Y-71042397D01*
X87642507Y-71100044D01*
X87624228Y-71146436D01*
X87605303Y-71192570D01*
X87582899Y-71256530D01*
X87580547Y-71264571D01*
X87579295Y-71268907D01*
X87280314Y-72318151D01*
X87265970Y-72379769D01*
X87261932Y-72401980D01*
X87262642Y-72402109D01*
X87248361Y-72471682D01*
X87247130Y-72483398D01*
X87245026Y-72494968D01*
X87239201Y-72565750D01*
X87238483Y-72565675D01*
X87236123Y-72588126D01*
X87236008Y-72604540D01*
X87234661Y-72620911D01*
X87235014Y-72643484D01*
X87235736Y-72643473D01*
X87235240Y-72714491D01*
X87236306Y-72726204D01*
X87236490Y-72737983D01*
X87244525Y-72808571D01*
X87243807Y-72808636D01*
X87245853Y-72831115D01*
X87248925Y-72847218D01*
X87250781Y-72863523D01*
X87255512Y-72885602D01*
X87256218Y-72885451D01*
X87269530Y-72955230D01*
X87272851Y-72966512D01*
X87275318Y-72978027D01*
X87296914Y-73045720D01*
X87296222Y-73045924D01*
X87302595Y-73067576D01*
X87308737Y-73082776D01*
X87313722Y-73098403D01*
X87322652Y-73119144D01*
X87323315Y-73118858D01*
X87349926Y-73184720D01*
X87355378Y-73195149D01*
X87360036Y-73205967D01*
X87394355Y-73268147D01*
X87393715Y-73268481D01*
X87404173Y-73288486D01*
X87413162Y-73302224D01*
X87421095Y-73316596D01*
X87433881Y-73335203D01*
X87434476Y-73334794D01*
X87473367Y-73394227D01*
X87480737Y-73403394D01*
X87487409Y-73413103D01*
X87533156Y-73467437D01*
X87532593Y-73467889D01*
X87546737Y-73485481D01*
X87558229Y-73497217D01*
X87568802Y-73509774D01*
X87584960Y-73525544D01*
X87585464Y-73525028D01*
X87635149Y-73575766D01*
X87644172Y-73583337D01*
X87652598Y-73591561D01*
X87708021Y-73635969D01*
X87707557Y-73636522D01*
X87724849Y-73651032D01*
X87737403Y-73659627D01*
X87648017Y-73732529D01*
X87558359Y-73821562D01*
X87483717Y-73911788D01*
X87413056Y-74016549D01*
X87357361Y-74119556D01*
X87308396Y-74236038D01*
X87273769Y-74347900D01*
X87248362Y-74471678D01*
X87236122Y-74588136D01*
X87235240Y-74714490D01*
X87245853Y-74831108D01*
X87262840Y-74920160D01*
X87263421Y-74926036D01*
X87273608Y-74993032D01*
X87275299Y-75001237D01*
X87276227Y-75005661D01*
X87310839Y-75167867D01*
X87326124Y-75225533D01*
X87326131Y-75225566D01*
X87326227Y-75225924D01*
X87327049Y-75229023D01*
X87327145Y-75229326D01*
X87343806Y-75291082D01*
X87346409Y-75299045D01*
X87347804Y-75303264D01*
X87693899Y-76337924D01*
X87716872Y-76396862D01*
X87737222Y-76442364D01*
X87756943Y-76488168D01*
X87786995Y-76548980D01*
X87791095Y-76556286D01*
X87793291Y-76560168D01*
X88333761Y-77507899D01*
X88367744Y-77561251D01*
X88396511Y-77601887D01*
X88424791Y-77643042D01*
X88466024Y-77696789D01*
X88471464Y-77703160D01*
X88474427Y-77706606D01*
X89188686Y-78531311D01*
X89232387Y-78577048D01*
X89268509Y-78611332D01*
X89304234Y-78646200D01*
X89355175Y-78690957D01*
X89361749Y-78696149D01*
X89365271Y-78698911D01*
X90226113Y-79369175D01*
X90277863Y-79405552D01*
X90319946Y-79432161D01*
X90361769Y-79459430D01*
X90420476Y-79493463D01*
X90427934Y-79497279D01*
X90431888Y-79499285D01*
X91406523Y-79989579D01*
X91464350Y-80015210D01*
X91510792Y-80033135D01*
X91557132Y-80051768D01*
X91621282Y-80073735D01*
X91629338Y-80076030D01*
X91633651Y-80077242D01*
X92684956Y-80368890D01*
X92746669Y-80382803D01*
X92795741Y-80391371D01*
X92844764Y-80400639D01*
X92912015Y-80409734D01*
X92920364Y-80410420D01*
X92924784Y-80410767D01*
X94012716Y-80492662D01*
X94075947Y-80494324D01*
X94125721Y-80493199D01*
X94175659Y-80492767D01*
X94243399Y-80488624D01*
X94251723Y-80487675D01*
X94256112Y-80487159D01*
X95339232Y-80356180D01*
X95401585Y-80345528D01*
X95450264Y-80334740D01*
X95499087Y-80324634D01*
X95564689Y-80307428D01*
X95572670Y-80304881D01*
X95576923Y-80303507D01*
X96613972Y-79964644D01*
X96673066Y-79942084D01*
X96718690Y-79922061D01*
X96764658Y-79902648D01*
X96825695Y-79873012D01*
X96833029Y-79868963D01*
X96836906Y-79866805D01*
X97788389Y-79332964D01*
X97841978Y-79299354D01*
X97882810Y-79270874D01*
X97924163Y-79242881D01*
X97978266Y-79201965D01*
X97984669Y-79196573D01*
X97982676Y-79194206D01*
X97986116Y-79191386D01*
X97988078Y-79193683D01*
X98817743Y-78485204D01*
X98863782Y-78441826D01*
X98898329Y-78405932D01*
X98933432Y-78370466D01*
X98978557Y-78319822D01*
X98983790Y-78313290D01*
X98979454Y-78309816D01*
X98982147Y-78306290D01*
X98986575Y-78309788D01*
X99662829Y-77453653D01*
X99699567Y-77402157D01*
X99726466Y-77360266D01*
X99754030Y-77318628D01*
X99788434Y-77260231D01*
X99792303Y-77252800D01*
X99794372Y-77248792D01*
X100291458Y-76277603D01*
X100317493Y-76219956D01*
X100335772Y-76173564D01*
X100354697Y-76127430D01*
X100377101Y-76063470D01*
X100379453Y-76055429D01*
X100380705Y-76051093D01*
X100679686Y-75001849D01*
X100694030Y-74940231D01*
X100698068Y-74918020D01*
X100697358Y-74917891D01*
X100711639Y-74848318D01*
X100712870Y-74836602D01*
X100714974Y-74825032D01*
X100720799Y-74754250D01*
X100721517Y-74754325D01*
X100723877Y-74731874D01*
X100723992Y-74715460D01*
X100725339Y-74699089D01*
X100724986Y-74676516D01*
X100724264Y-74676527D01*
X100724760Y-74605509D01*
X100723694Y-74593796D01*
X100723510Y-74582017D01*
X100715475Y-74511429D01*
X100716193Y-74511364D01*
X100714147Y-74488885D01*
X100711075Y-74472781D01*
X100709219Y-74456477D01*
X100704488Y-74434398D01*
X100703782Y-74434549D01*
X100690472Y-74364776D01*
X100687147Y-74353479D01*
X100684680Y-74341966D01*
X100663086Y-74274281D01*
X100663777Y-74274077D01*
X100657405Y-74252428D01*
X100651265Y-74237231D01*
X100646276Y-74221593D01*
X100637345Y-74200850D01*
X100636682Y-74201135D01*
X100610078Y-74135287D01*
X100604617Y-74124841D01*
X100599960Y-74114025D01*
X100565646Y-74051853D01*
X100566285Y-74051519D01*
X100555827Y-74031514D01*
X100546838Y-74017777D01*
X100538905Y-74003404D01*
X100526119Y-73984797D01*
X100525524Y-73985206D01*
X100486633Y-73925773D01*
X100479263Y-73916606D01*
X100472591Y-73906897D01*
X100426844Y-73852563D01*
X100427407Y-73852111D01*
X100413263Y-73834519D01*
X100401771Y-73822783D01*
X100391198Y-73810226D01*
X100375040Y-73794456D01*
X100374536Y-73794972D01*
X100324851Y-73744234D01*
X100315828Y-73736663D01*
X100307402Y-73728439D01*
X100251979Y-73684031D01*
X100252443Y-73683478D01*
X100235151Y-73668968D01*
X100222597Y-73660373D01*
X100311983Y-73587471D01*
X100354752Y-73545000D01*
X100734839Y-73545000D01*
X100822000Y-73562337D01*
X100909161Y-73545000D01*
X100909165Y-73545000D01*
X101167310Y-73493652D01*
X101324737Y-73388462D01*
X101345512Y-73658539D01*
X101220248Y-74911183D01*
X100970801Y-76158418D01*
X100346339Y-77407343D01*
X99470645Y-78783432D01*
X98476921Y-79652941D01*
X97232863Y-80399376D01*
X95737923Y-80773111D01*
X93980350Y-80898652D01*
X92354330Y-80773573D01*
X90480294Y-80148895D01*
X88986852Y-79153267D01*
X87989001Y-77905953D01*
X87108971Y-76397329D01*
X86484492Y-74898580D01*
X86360576Y-73659422D01*
X86485019Y-72290544D01*
X87110637Y-70538814D01*
X87985420Y-69039186D01*
X88980914Y-68043692D01*
X90482280Y-67042781D01*
X91479803Y-66668710D01*
X92351546Y-66419641D01*
X93979596Y-66294406D01*
X95483189Y-66419706D01*
X95483189Y-66419706D01*
G37*
X95483189Y-66419706D02*
X96987327Y-66795740D01*
X97854916Y-67167564D01*
X99105057Y-68042663D01*
X100227266Y-69164872D01*
X100970250Y-70527009D01*
X101074988Y-71155434D01*
X100512307Y-71718115D01*
X100266101Y-70982076D01*
X100243129Y-70923142D01*
X100222830Y-70877753D01*
X100203056Y-70831827D01*
X100172987Y-70770986D01*
X100168887Y-70763681D01*
X100166709Y-70759832D01*
X99626239Y-69812100D01*
X99592254Y-69758745D01*
X99563494Y-69718119D01*
X99535213Y-69676962D01*
X99493943Y-69623171D01*
X99488503Y-69616801D01*
X99485573Y-69613394D01*
X98771313Y-68788689D01*
X98727618Y-68742957D01*
X98691469Y-68708646D01*
X98655766Y-68673800D01*
X98604812Y-68629033D01*
X98598244Y-68623846D01*
X98594746Y-68628275D01*
X98591220Y-68625582D01*
X98594722Y-68621084D01*
X97733887Y-67950825D01*
X97682137Y-67914448D01*
X97640054Y-67887839D01*
X97598231Y-67860570D01*
X97539556Y-67826554D01*
X97532099Y-67822738D01*
X97528113Y-67820715D01*
X96553477Y-67330421D01*
X96495643Y-67304787D01*
X96449130Y-67286835D01*
X96402876Y-67268236D01*
X96338718Y-67246265D01*
X96330662Y-67243970D01*
X96326349Y-67242758D01*
X95275044Y-66951110D01*
X95213331Y-66937197D01*
X95164259Y-66928629D01*
X95115236Y-66919361D01*
X95047985Y-66910266D01*
X95039636Y-66909580D01*
X95035216Y-66909233D01*
X93947284Y-66827338D01*
X93884053Y-66825676D01*
X93834279Y-66826801D01*
X93784341Y-66827233D01*
X93716669Y-66831368D01*
X93708346Y-66832316D01*
X93703888Y-66832840D01*
X92620767Y-66963820D01*
X92558415Y-66974472D01*
X92509736Y-66985260D01*
X92460913Y-66995366D01*
X92395311Y-67012572D01*
X92387330Y-67015119D01*
X92383077Y-67016493D01*
X91346027Y-67355356D01*
X91286935Y-67377915D01*
X91241291Y-67397946D01*
X91195341Y-67417352D01*
X91134364Y-67446955D01*
X91127030Y-67451003D01*
X91123094Y-67453194D01*
X90171612Y-67987036D01*
X90118031Y-68020640D01*
X90077152Y-68049152D01*
X90035836Y-68077120D01*
X89981743Y-68118026D01*
X89975335Y-68123422D01*
X89971928Y-68126312D01*
X89142258Y-68834797D01*
X89096223Y-68878170D01*
X89061678Y-68914060D01*
X89026565Y-68949538D01*
X88981480Y-69000132D01*
X88976242Y-69006669D01*
X88973429Y-69010205D01*
X88297171Y-69866348D01*
X88260437Y-69917837D01*
X88233484Y-69959812D01*
X88205971Y-70001372D01*
X88171566Y-70059769D01*
X88167697Y-70067200D01*
X88165628Y-70071208D01*
X87668542Y-71042397D01*
X87642507Y-71100044D01*
X87624228Y-71146436D01*
X87605303Y-71192570D01*
X87582899Y-71256530D01*
X87580547Y-71264571D01*
X87579295Y-71268907D01*
X87280314Y-72318151D01*
X87265970Y-72379769D01*
X87261932Y-72401980D01*
X87262642Y-72402109D01*
X87248361Y-72471682D01*
X87247130Y-72483398D01*
X87245026Y-72494968D01*
X87239201Y-72565750D01*
X87238483Y-72565675D01*
X87236123Y-72588126D01*
X87236008Y-72604540D01*
X87234661Y-72620911D01*
X87235014Y-72643484D01*
X87235736Y-72643473D01*
X87235240Y-72714491D01*
X87236306Y-72726204D01*
X87236490Y-72737983D01*
X87244525Y-72808571D01*
X87243807Y-72808636D01*
X87245853Y-72831115D01*
X87248925Y-72847218D01*
X87250781Y-72863523D01*
X87255512Y-72885602D01*
X87256218Y-72885451D01*
X87269530Y-72955230D01*
X87272851Y-72966512D01*
X87275318Y-72978027D01*
X87296914Y-73045720D01*
X87296222Y-73045924D01*
X87302595Y-73067576D01*
X87308737Y-73082776D01*
X87313722Y-73098403D01*
X87322652Y-73119144D01*
X87323315Y-73118858D01*
X87349926Y-73184720D01*
X87355378Y-73195149D01*
X87360036Y-73205967D01*
X87394355Y-73268147D01*
X87393715Y-73268481D01*
X87404173Y-73288486D01*
X87413162Y-73302224D01*
X87421095Y-73316596D01*
X87433881Y-73335203D01*
X87434476Y-73334794D01*
X87473367Y-73394227D01*
X87480737Y-73403394D01*
X87487409Y-73413103D01*
X87533156Y-73467437D01*
X87532593Y-73467889D01*
X87546737Y-73485481D01*
X87558229Y-73497217D01*
X87568802Y-73509774D01*
X87584960Y-73525544D01*
X87585464Y-73525028D01*
X87635149Y-73575766D01*
X87644172Y-73583337D01*
X87652598Y-73591561D01*
X87708021Y-73635969D01*
X87707557Y-73636522D01*
X87724849Y-73651032D01*
X87737403Y-73659627D01*
X87648017Y-73732529D01*
X87558359Y-73821562D01*
X87483717Y-73911788D01*
X87413056Y-74016549D01*
X87357361Y-74119556D01*
X87308396Y-74236038D01*
X87273769Y-74347900D01*
X87248362Y-74471678D01*
X87236122Y-74588136D01*
X87235240Y-74714490D01*
X87245853Y-74831108D01*
X87262840Y-74920160D01*
X87263421Y-74926036D01*
X87273608Y-74993032D01*
X87275299Y-75001237D01*
X87276227Y-75005661D01*
X87310839Y-75167867D01*
X87326124Y-75225533D01*
X87326131Y-75225566D01*
X87326227Y-75225924D01*
X87327049Y-75229023D01*
X87327145Y-75229326D01*
X87343806Y-75291082D01*
X87346409Y-75299045D01*
X87347804Y-75303264D01*
X87693899Y-76337924D01*
X87716872Y-76396862D01*
X87737222Y-76442364D01*
X87756943Y-76488168D01*
X87786995Y-76548980D01*
X87791095Y-76556286D01*
X87793291Y-76560168D01*
X88333761Y-77507899D01*
X88367744Y-77561251D01*
X88396511Y-77601887D01*
X88424791Y-77643042D01*
X88466024Y-77696789D01*
X88471464Y-77703160D01*
X88474427Y-77706606D01*
X89188686Y-78531311D01*
X89232387Y-78577048D01*
X89268509Y-78611332D01*
X89304234Y-78646200D01*
X89355175Y-78690957D01*
X89361749Y-78696149D01*
X89365271Y-78698911D01*
X90226113Y-79369175D01*
X90277863Y-79405552D01*
X90319946Y-79432161D01*
X90361769Y-79459430D01*
X90420476Y-79493463D01*
X90427934Y-79497279D01*
X90431888Y-79499285D01*
X91406523Y-79989579D01*
X91464350Y-80015210D01*
X91510792Y-80033135D01*
X91557132Y-80051768D01*
X91621282Y-80073735D01*
X91629338Y-80076030D01*
X91633651Y-80077242D01*
X92684956Y-80368890D01*
X92746669Y-80382803D01*
X92795741Y-80391371D01*
X92844764Y-80400639D01*
X92912015Y-80409734D01*
X92920364Y-80410420D01*
X92924784Y-80410767D01*
X94012716Y-80492662D01*
X94075947Y-80494324D01*
X94125721Y-80493199D01*
X94175659Y-80492767D01*
X94243399Y-80488624D01*
X94251723Y-80487675D01*
X94256112Y-80487159D01*
X95339232Y-80356180D01*
X95401585Y-80345528D01*
X95450264Y-80334740D01*
X95499087Y-80324634D01*
X95564689Y-80307428D01*
X95572670Y-80304881D01*
X95576923Y-80303507D01*
X96613972Y-79964644D01*
X96673066Y-79942084D01*
X96718690Y-79922061D01*
X96764658Y-79902648D01*
X96825695Y-79873012D01*
X96833029Y-79868963D01*
X96836906Y-79866805D01*
X97788389Y-79332964D01*
X97841978Y-79299354D01*
X97882810Y-79270874D01*
X97924163Y-79242881D01*
X97978266Y-79201965D01*
X97984669Y-79196573D01*
X97982676Y-79194206D01*
X97986116Y-79191386D01*
X97988078Y-79193683D01*
X98817743Y-78485204D01*
X98863782Y-78441826D01*
X98898329Y-78405932D01*
X98933432Y-78370466D01*
X98978557Y-78319822D01*
X98983790Y-78313290D01*
X98979454Y-78309816D01*
X98982147Y-78306290D01*
X98986575Y-78309788D01*
X99662829Y-77453653D01*
X99699567Y-77402157D01*
X99726466Y-77360266D01*
X99754030Y-77318628D01*
X99788434Y-77260231D01*
X99792303Y-77252800D01*
X99794372Y-77248792D01*
X100291458Y-76277603D01*
X100317493Y-76219956D01*
X100335772Y-76173564D01*
X100354697Y-76127430D01*
X100377101Y-76063470D01*
X100379453Y-76055429D01*
X100380705Y-76051093D01*
X100679686Y-75001849D01*
X100694030Y-74940231D01*
X100698068Y-74918020D01*
X100697358Y-74917891D01*
X100711639Y-74848318D01*
X100712870Y-74836602D01*
X100714974Y-74825032D01*
X100720799Y-74754250D01*
X100721517Y-74754325D01*
X100723877Y-74731874D01*
X100723992Y-74715460D01*
X100725339Y-74699089D01*
X100724986Y-74676516D01*
X100724264Y-74676527D01*
X100724760Y-74605509D01*
X100723694Y-74593796D01*
X100723510Y-74582017D01*
X100715475Y-74511429D01*
X100716193Y-74511364D01*
X100714147Y-74488885D01*
X100711075Y-74472781D01*
X100709219Y-74456477D01*
X100704488Y-74434398D01*
X100703782Y-74434549D01*
X100690472Y-74364776D01*
X100687147Y-74353479D01*
X100684680Y-74341966D01*
X100663086Y-74274281D01*
X100663777Y-74274077D01*
X100657405Y-74252428D01*
X100651265Y-74237231D01*
X100646276Y-74221593D01*
X100637345Y-74200850D01*
X100636682Y-74201135D01*
X100610078Y-74135287D01*
X100604617Y-74124841D01*
X100599960Y-74114025D01*
X100565646Y-74051853D01*
X100566285Y-74051519D01*
X100555827Y-74031514D01*
X100546838Y-74017777D01*
X100538905Y-74003404D01*
X100526119Y-73984797D01*
X100525524Y-73985206D01*
X100486633Y-73925773D01*
X100479263Y-73916606D01*
X100472591Y-73906897D01*
X100426844Y-73852563D01*
X100427407Y-73852111D01*
X100413263Y-73834519D01*
X100401771Y-73822783D01*
X100391198Y-73810226D01*
X100375040Y-73794456D01*
X100374536Y-73794972D01*
X100324851Y-73744234D01*
X100315828Y-73736663D01*
X100307402Y-73728439D01*
X100251979Y-73684031D01*
X100252443Y-73683478D01*
X100235151Y-73668968D01*
X100222597Y-73660373D01*
X100311983Y-73587471D01*
X100354752Y-73545000D01*
X100734839Y-73545000D01*
X100822000Y-73562337D01*
X100909161Y-73545000D01*
X100909165Y-73545000D01*
X101167310Y-73493652D01*
X101324737Y-73388462D01*
X101345512Y-73658539D01*
X101220248Y-74911183D01*
X100970801Y-76158418D01*
X100346339Y-77407343D01*
X99470645Y-78783432D01*
X98476921Y-79652941D01*
X97232863Y-80399376D01*
X95737923Y-80773111D01*
X93980350Y-80898652D01*
X92354330Y-80773573D01*
X90480294Y-80148895D01*
X88986852Y-79153267D01*
X87989001Y-77905953D01*
X87108971Y-76397329D01*
X86484492Y-74898580D01*
X86360576Y-73659422D01*
X86485019Y-72290544D01*
X87110637Y-70538814D01*
X87985420Y-69039186D01*
X88980914Y-68043692D01*
X90482280Y-67042781D01*
X91479803Y-66668710D01*
X92351546Y-66419641D01*
X93979596Y-66294406D01*
X95483189Y-66419706D01*
G04 #@! TD*
M02*
