G04 #@! TF.GenerationSoftware,KiCad,Pcbnew,(5.0.2)-1*
G04 #@! TF.CreationDate,2020-04-01T19:09:17+09:00*
G04 #@! TF.ProjectId,eckeyboard,65636b65-7962-46f6-9172-642e6b696361,rev?*
G04 #@! TF.SameCoordinates,Original*
G04 #@! TF.FileFunction,Paste,Bot*
G04 #@! TF.FilePolarity,Positive*
%FSLAX46Y46*%
G04 Gerber Fmt 4.6, Leading zero omitted, Abs format (unit mm)*
G04 Created by KiCad (PCBNEW (5.0.2)-1) date 2020/04/01 19:09:17*
%MOMM*%
%LPD*%
G01*
G04 APERTURE LIST*
%ADD10R,0.800000X1.300000*%
%ADD11R,0.550000X1.750000*%
%ADD12C,0.100000*%
%ADD13C,0.950000*%
G04 APERTURE END LIST*
D10*
G04 #@! TO.C,U1*
X53464677Y-128459650D03*
X52184677Y-128459650D03*
X50924677Y-128459650D03*
X49654677Y-128459650D03*
X48374677Y-128459650D03*
X47104677Y-128459650D03*
X45844677Y-128459650D03*
X44564677Y-128459650D03*
X44564677Y-122159650D03*
X45844677Y-122159650D03*
X47104677Y-122159650D03*
X48374677Y-122159650D03*
X49654677Y-122159650D03*
X50924677Y-122159650D03*
X52184677Y-122159650D03*
X53464677Y-122159650D03*
G04 #@! TD*
D11*
G04 #@! TO.C,U2*
X61639514Y-129092137D03*
X60369514Y-129092137D03*
X59099514Y-129092137D03*
X57829514Y-129092137D03*
X57829514Y-121692137D03*
X59099514Y-121692137D03*
X60369514Y-121692137D03*
X61639514Y-121692137D03*
G04 #@! TD*
D12*
G04 #@! TO.C,C1*
G36*
X55860779Y-124151144D02*
X55883834Y-124154563D01*
X55906443Y-124160227D01*
X55928387Y-124168079D01*
X55949457Y-124178044D01*
X55969448Y-124190026D01*
X55988168Y-124203910D01*
X56005438Y-124219562D01*
X56021090Y-124236832D01*
X56034974Y-124255552D01*
X56046956Y-124275543D01*
X56056921Y-124296613D01*
X56064773Y-124318557D01*
X56070437Y-124341166D01*
X56073856Y-124364221D01*
X56075000Y-124387500D01*
X56075000Y-124962500D01*
X56073856Y-124985779D01*
X56070437Y-125008834D01*
X56064773Y-125031443D01*
X56056921Y-125053387D01*
X56046956Y-125074457D01*
X56034974Y-125094448D01*
X56021090Y-125113168D01*
X56005438Y-125130438D01*
X55988168Y-125146090D01*
X55969448Y-125159974D01*
X55949457Y-125171956D01*
X55928387Y-125181921D01*
X55906443Y-125189773D01*
X55883834Y-125195437D01*
X55860779Y-125198856D01*
X55837500Y-125200000D01*
X55362500Y-125200000D01*
X55339221Y-125198856D01*
X55316166Y-125195437D01*
X55293557Y-125189773D01*
X55271613Y-125181921D01*
X55250543Y-125171956D01*
X55230552Y-125159974D01*
X55211832Y-125146090D01*
X55194562Y-125130438D01*
X55178910Y-125113168D01*
X55165026Y-125094448D01*
X55153044Y-125074457D01*
X55143079Y-125053387D01*
X55135227Y-125031443D01*
X55129563Y-125008834D01*
X55126144Y-124985779D01*
X55125000Y-124962500D01*
X55125000Y-124387500D01*
X55126144Y-124364221D01*
X55129563Y-124341166D01*
X55135227Y-124318557D01*
X55143079Y-124296613D01*
X55153044Y-124275543D01*
X55165026Y-124255552D01*
X55178910Y-124236832D01*
X55194562Y-124219562D01*
X55211832Y-124203910D01*
X55230552Y-124190026D01*
X55250543Y-124178044D01*
X55271613Y-124168079D01*
X55293557Y-124160227D01*
X55316166Y-124154563D01*
X55339221Y-124151144D01*
X55362500Y-124150000D01*
X55837500Y-124150000D01*
X55860779Y-124151144D01*
X55860779Y-124151144D01*
G37*
D13*
X55600000Y-124675000D03*
D12*
G36*
X55860779Y-122401144D02*
X55883834Y-122404563D01*
X55906443Y-122410227D01*
X55928387Y-122418079D01*
X55949457Y-122428044D01*
X55969448Y-122440026D01*
X55988168Y-122453910D01*
X56005438Y-122469562D01*
X56021090Y-122486832D01*
X56034974Y-122505552D01*
X56046956Y-122525543D01*
X56056921Y-122546613D01*
X56064773Y-122568557D01*
X56070437Y-122591166D01*
X56073856Y-122614221D01*
X56075000Y-122637500D01*
X56075000Y-123212500D01*
X56073856Y-123235779D01*
X56070437Y-123258834D01*
X56064773Y-123281443D01*
X56056921Y-123303387D01*
X56046956Y-123324457D01*
X56034974Y-123344448D01*
X56021090Y-123363168D01*
X56005438Y-123380438D01*
X55988168Y-123396090D01*
X55969448Y-123409974D01*
X55949457Y-123421956D01*
X55928387Y-123431921D01*
X55906443Y-123439773D01*
X55883834Y-123445437D01*
X55860779Y-123448856D01*
X55837500Y-123450000D01*
X55362500Y-123450000D01*
X55339221Y-123448856D01*
X55316166Y-123445437D01*
X55293557Y-123439773D01*
X55271613Y-123431921D01*
X55250543Y-123421956D01*
X55230552Y-123409974D01*
X55211832Y-123396090D01*
X55194562Y-123380438D01*
X55178910Y-123363168D01*
X55165026Y-123344448D01*
X55153044Y-123324457D01*
X55143079Y-123303387D01*
X55135227Y-123281443D01*
X55129563Y-123258834D01*
X55126144Y-123235779D01*
X55125000Y-123212500D01*
X55125000Y-122637500D01*
X55126144Y-122614221D01*
X55129563Y-122591166D01*
X55135227Y-122568557D01*
X55143079Y-122546613D01*
X55153044Y-122525543D01*
X55165026Y-122505552D01*
X55178910Y-122486832D01*
X55194562Y-122469562D01*
X55211832Y-122453910D01*
X55230552Y-122440026D01*
X55250543Y-122428044D01*
X55271613Y-122418079D01*
X55293557Y-122410227D01*
X55316166Y-122404563D01*
X55339221Y-122401144D01*
X55362500Y-122400000D01*
X55837500Y-122400000D01*
X55860779Y-122401144D01*
X55860779Y-122401144D01*
G37*
D13*
X55600000Y-122925000D03*
G04 #@! TD*
D12*
G04 #@! TO.C,C2*
G36*
X86101190Y-128710733D02*
X86124245Y-128714152D01*
X86146854Y-128719816D01*
X86168798Y-128727668D01*
X86189868Y-128737633D01*
X86209859Y-128749615D01*
X86228579Y-128763499D01*
X86245849Y-128779151D01*
X86261501Y-128796421D01*
X86275385Y-128815141D01*
X86287367Y-128835132D01*
X86297332Y-128856202D01*
X86305184Y-128878146D01*
X86310848Y-128900755D01*
X86314267Y-128923810D01*
X86315411Y-128947089D01*
X86315411Y-129422089D01*
X86314267Y-129445368D01*
X86310848Y-129468423D01*
X86305184Y-129491032D01*
X86297332Y-129512976D01*
X86287367Y-129534046D01*
X86275385Y-129554037D01*
X86261501Y-129572757D01*
X86245849Y-129590027D01*
X86228579Y-129605679D01*
X86209859Y-129619563D01*
X86189868Y-129631545D01*
X86168798Y-129641510D01*
X86146854Y-129649362D01*
X86124245Y-129655026D01*
X86101190Y-129658445D01*
X86077911Y-129659589D01*
X85502911Y-129659589D01*
X85479632Y-129658445D01*
X85456577Y-129655026D01*
X85433968Y-129649362D01*
X85412024Y-129641510D01*
X85390954Y-129631545D01*
X85370963Y-129619563D01*
X85352243Y-129605679D01*
X85334973Y-129590027D01*
X85319321Y-129572757D01*
X85305437Y-129554037D01*
X85293455Y-129534046D01*
X85283490Y-129512976D01*
X85275638Y-129491032D01*
X85269974Y-129468423D01*
X85266555Y-129445368D01*
X85265411Y-129422089D01*
X85265411Y-128947089D01*
X85266555Y-128923810D01*
X85269974Y-128900755D01*
X85275638Y-128878146D01*
X85283490Y-128856202D01*
X85293455Y-128835132D01*
X85305437Y-128815141D01*
X85319321Y-128796421D01*
X85334973Y-128779151D01*
X85352243Y-128763499D01*
X85370963Y-128749615D01*
X85390954Y-128737633D01*
X85412024Y-128727668D01*
X85433968Y-128719816D01*
X85456577Y-128714152D01*
X85479632Y-128710733D01*
X85502911Y-128709589D01*
X86077911Y-128709589D01*
X86101190Y-128710733D01*
X86101190Y-128710733D01*
G37*
D13*
X85790411Y-129184589D03*
D12*
G36*
X84351190Y-128710733D02*
X84374245Y-128714152D01*
X84396854Y-128719816D01*
X84418798Y-128727668D01*
X84439868Y-128737633D01*
X84459859Y-128749615D01*
X84478579Y-128763499D01*
X84495849Y-128779151D01*
X84511501Y-128796421D01*
X84525385Y-128815141D01*
X84537367Y-128835132D01*
X84547332Y-128856202D01*
X84555184Y-128878146D01*
X84560848Y-128900755D01*
X84564267Y-128923810D01*
X84565411Y-128947089D01*
X84565411Y-129422089D01*
X84564267Y-129445368D01*
X84560848Y-129468423D01*
X84555184Y-129491032D01*
X84547332Y-129512976D01*
X84537367Y-129534046D01*
X84525385Y-129554037D01*
X84511501Y-129572757D01*
X84495849Y-129590027D01*
X84478579Y-129605679D01*
X84459859Y-129619563D01*
X84439868Y-129631545D01*
X84418798Y-129641510D01*
X84396854Y-129649362D01*
X84374245Y-129655026D01*
X84351190Y-129658445D01*
X84327911Y-129659589D01*
X83752911Y-129659589D01*
X83729632Y-129658445D01*
X83706577Y-129655026D01*
X83683968Y-129649362D01*
X83662024Y-129641510D01*
X83640954Y-129631545D01*
X83620963Y-129619563D01*
X83602243Y-129605679D01*
X83584973Y-129590027D01*
X83569321Y-129572757D01*
X83555437Y-129554037D01*
X83543455Y-129534046D01*
X83533490Y-129512976D01*
X83525638Y-129491032D01*
X83519974Y-129468423D01*
X83516555Y-129445368D01*
X83515411Y-129422089D01*
X83515411Y-128947089D01*
X83516555Y-128923810D01*
X83519974Y-128900755D01*
X83525638Y-128878146D01*
X83533490Y-128856202D01*
X83543455Y-128835132D01*
X83555437Y-128815141D01*
X83569321Y-128796421D01*
X83584973Y-128779151D01*
X83602243Y-128763499D01*
X83620963Y-128749615D01*
X83640954Y-128737633D01*
X83662024Y-128727668D01*
X83683968Y-128719816D01*
X83706577Y-128714152D01*
X83729632Y-128710733D01*
X83752911Y-128709589D01*
X84327911Y-128709589D01*
X84351190Y-128710733D01*
X84351190Y-128710733D01*
G37*
D13*
X84040411Y-129184589D03*
G04 #@! TD*
D12*
G04 #@! TO.C,C3*
G36*
X108235779Y-131326144D02*
X108258834Y-131329563D01*
X108281443Y-131335227D01*
X108303387Y-131343079D01*
X108324457Y-131353044D01*
X108344448Y-131365026D01*
X108363168Y-131378910D01*
X108380438Y-131394562D01*
X108396090Y-131411832D01*
X108409974Y-131430552D01*
X108421956Y-131450543D01*
X108431921Y-131471613D01*
X108439773Y-131493557D01*
X108445437Y-131516166D01*
X108448856Y-131539221D01*
X108450000Y-131562500D01*
X108450000Y-132037500D01*
X108448856Y-132060779D01*
X108445437Y-132083834D01*
X108439773Y-132106443D01*
X108431921Y-132128387D01*
X108421956Y-132149457D01*
X108409974Y-132169448D01*
X108396090Y-132188168D01*
X108380438Y-132205438D01*
X108363168Y-132221090D01*
X108344448Y-132234974D01*
X108324457Y-132246956D01*
X108303387Y-132256921D01*
X108281443Y-132264773D01*
X108258834Y-132270437D01*
X108235779Y-132273856D01*
X108212500Y-132275000D01*
X107637500Y-132275000D01*
X107614221Y-132273856D01*
X107591166Y-132270437D01*
X107568557Y-132264773D01*
X107546613Y-132256921D01*
X107525543Y-132246956D01*
X107505552Y-132234974D01*
X107486832Y-132221090D01*
X107469562Y-132205438D01*
X107453910Y-132188168D01*
X107440026Y-132169448D01*
X107428044Y-132149457D01*
X107418079Y-132128387D01*
X107410227Y-132106443D01*
X107404563Y-132083834D01*
X107401144Y-132060779D01*
X107400000Y-132037500D01*
X107400000Y-131562500D01*
X107401144Y-131539221D01*
X107404563Y-131516166D01*
X107410227Y-131493557D01*
X107418079Y-131471613D01*
X107428044Y-131450543D01*
X107440026Y-131430552D01*
X107453910Y-131411832D01*
X107469562Y-131394562D01*
X107486832Y-131378910D01*
X107505552Y-131365026D01*
X107525543Y-131353044D01*
X107546613Y-131343079D01*
X107568557Y-131335227D01*
X107591166Y-131329563D01*
X107614221Y-131326144D01*
X107637500Y-131325000D01*
X108212500Y-131325000D01*
X108235779Y-131326144D01*
X108235779Y-131326144D01*
G37*
D13*
X107925000Y-131800000D03*
D12*
G36*
X109985779Y-131326144D02*
X110008834Y-131329563D01*
X110031443Y-131335227D01*
X110053387Y-131343079D01*
X110074457Y-131353044D01*
X110094448Y-131365026D01*
X110113168Y-131378910D01*
X110130438Y-131394562D01*
X110146090Y-131411832D01*
X110159974Y-131430552D01*
X110171956Y-131450543D01*
X110181921Y-131471613D01*
X110189773Y-131493557D01*
X110195437Y-131516166D01*
X110198856Y-131539221D01*
X110200000Y-131562500D01*
X110200000Y-132037500D01*
X110198856Y-132060779D01*
X110195437Y-132083834D01*
X110189773Y-132106443D01*
X110181921Y-132128387D01*
X110171956Y-132149457D01*
X110159974Y-132169448D01*
X110146090Y-132188168D01*
X110130438Y-132205438D01*
X110113168Y-132221090D01*
X110094448Y-132234974D01*
X110074457Y-132246956D01*
X110053387Y-132256921D01*
X110031443Y-132264773D01*
X110008834Y-132270437D01*
X109985779Y-132273856D01*
X109962500Y-132275000D01*
X109387500Y-132275000D01*
X109364221Y-132273856D01*
X109341166Y-132270437D01*
X109318557Y-132264773D01*
X109296613Y-132256921D01*
X109275543Y-132246956D01*
X109255552Y-132234974D01*
X109236832Y-132221090D01*
X109219562Y-132205438D01*
X109203910Y-132188168D01*
X109190026Y-132169448D01*
X109178044Y-132149457D01*
X109168079Y-132128387D01*
X109160227Y-132106443D01*
X109154563Y-132083834D01*
X109151144Y-132060779D01*
X109150000Y-132037500D01*
X109150000Y-131562500D01*
X109151144Y-131539221D01*
X109154563Y-131516166D01*
X109160227Y-131493557D01*
X109168079Y-131471613D01*
X109178044Y-131450543D01*
X109190026Y-131430552D01*
X109203910Y-131411832D01*
X109219562Y-131394562D01*
X109236832Y-131378910D01*
X109255552Y-131365026D01*
X109275543Y-131353044D01*
X109296613Y-131343079D01*
X109318557Y-131335227D01*
X109341166Y-131329563D01*
X109364221Y-131326144D01*
X109387500Y-131325000D01*
X109962500Y-131325000D01*
X109985779Y-131326144D01*
X109985779Y-131326144D01*
G37*
D13*
X109675000Y-131800000D03*
G04 #@! TD*
D12*
G04 #@! TO.C,C5*
G36*
X136285779Y-121902227D02*
X136308834Y-121905646D01*
X136331443Y-121911310D01*
X136353387Y-121919162D01*
X136374457Y-121929127D01*
X136394448Y-121941109D01*
X136413168Y-121954993D01*
X136430438Y-121970645D01*
X136446090Y-121987915D01*
X136459974Y-122006635D01*
X136471956Y-122026626D01*
X136481921Y-122047696D01*
X136489773Y-122069640D01*
X136495437Y-122092249D01*
X136498856Y-122115304D01*
X136500000Y-122138583D01*
X136500000Y-122613583D01*
X136498856Y-122636862D01*
X136495437Y-122659917D01*
X136489773Y-122682526D01*
X136481921Y-122704470D01*
X136471956Y-122725540D01*
X136459974Y-122745531D01*
X136446090Y-122764251D01*
X136430438Y-122781521D01*
X136413168Y-122797173D01*
X136394448Y-122811057D01*
X136374457Y-122823039D01*
X136353387Y-122833004D01*
X136331443Y-122840856D01*
X136308834Y-122846520D01*
X136285779Y-122849939D01*
X136262500Y-122851083D01*
X135687500Y-122851083D01*
X135664221Y-122849939D01*
X135641166Y-122846520D01*
X135618557Y-122840856D01*
X135596613Y-122833004D01*
X135575543Y-122823039D01*
X135555552Y-122811057D01*
X135536832Y-122797173D01*
X135519562Y-122781521D01*
X135503910Y-122764251D01*
X135490026Y-122745531D01*
X135478044Y-122725540D01*
X135468079Y-122704470D01*
X135460227Y-122682526D01*
X135454563Y-122659917D01*
X135451144Y-122636862D01*
X135450000Y-122613583D01*
X135450000Y-122138583D01*
X135451144Y-122115304D01*
X135454563Y-122092249D01*
X135460227Y-122069640D01*
X135468079Y-122047696D01*
X135478044Y-122026626D01*
X135490026Y-122006635D01*
X135503910Y-121987915D01*
X135519562Y-121970645D01*
X135536832Y-121954993D01*
X135555552Y-121941109D01*
X135575543Y-121929127D01*
X135596613Y-121919162D01*
X135618557Y-121911310D01*
X135641166Y-121905646D01*
X135664221Y-121902227D01*
X135687500Y-121901083D01*
X136262500Y-121901083D01*
X136285779Y-121902227D01*
X136285779Y-121902227D01*
G37*
D13*
X135975000Y-122376083D03*
D12*
G36*
X134535779Y-121902227D02*
X134558834Y-121905646D01*
X134581443Y-121911310D01*
X134603387Y-121919162D01*
X134624457Y-121929127D01*
X134644448Y-121941109D01*
X134663168Y-121954993D01*
X134680438Y-121970645D01*
X134696090Y-121987915D01*
X134709974Y-122006635D01*
X134721956Y-122026626D01*
X134731921Y-122047696D01*
X134739773Y-122069640D01*
X134745437Y-122092249D01*
X134748856Y-122115304D01*
X134750000Y-122138583D01*
X134750000Y-122613583D01*
X134748856Y-122636862D01*
X134745437Y-122659917D01*
X134739773Y-122682526D01*
X134731921Y-122704470D01*
X134721956Y-122725540D01*
X134709974Y-122745531D01*
X134696090Y-122764251D01*
X134680438Y-122781521D01*
X134663168Y-122797173D01*
X134644448Y-122811057D01*
X134624457Y-122823039D01*
X134603387Y-122833004D01*
X134581443Y-122840856D01*
X134558834Y-122846520D01*
X134535779Y-122849939D01*
X134512500Y-122851083D01*
X133937500Y-122851083D01*
X133914221Y-122849939D01*
X133891166Y-122846520D01*
X133868557Y-122840856D01*
X133846613Y-122833004D01*
X133825543Y-122823039D01*
X133805552Y-122811057D01*
X133786832Y-122797173D01*
X133769562Y-122781521D01*
X133753910Y-122764251D01*
X133740026Y-122745531D01*
X133728044Y-122725540D01*
X133718079Y-122704470D01*
X133710227Y-122682526D01*
X133704563Y-122659917D01*
X133701144Y-122636862D01*
X133700000Y-122613583D01*
X133700000Y-122138583D01*
X133701144Y-122115304D01*
X133704563Y-122092249D01*
X133710227Y-122069640D01*
X133718079Y-122047696D01*
X133728044Y-122026626D01*
X133740026Y-122006635D01*
X133753910Y-121987915D01*
X133769562Y-121970645D01*
X133786832Y-121954993D01*
X133805552Y-121941109D01*
X133825543Y-121929127D01*
X133846613Y-121919162D01*
X133868557Y-121911310D01*
X133891166Y-121905646D01*
X133914221Y-121902227D01*
X133937500Y-121901083D01*
X134512500Y-121901083D01*
X134535779Y-121902227D01*
X134535779Y-121902227D01*
G37*
D13*
X134225000Y-122376083D03*
G04 #@! TD*
D12*
G04 #@! TO.C,C6*
G36*
X134585779Y-126626144D02*
X134608834Y-126629563D01*
X134631443Y-126635227D01*
X134653387Y-126643079D01*
X134674457Y-126653044D01*
X134694448Y-126665026D01*
X134713168Y-126678910D01*
X134730438Y-126694562D01*
X134746090Y-126711832D01*
X134759974Y-126730552D01*
X134771956Y-126750543D01*
X134781921Y-126771613D01*
X134789773Y-126793557D01*
X134795437Y-126816166D01*
X134798856Y-126839221D01*
X134800000Y-126862500D01*
X134800000Y-127337500D01*
X134798856Y-127360779D01*
X134795437Y-127383834D01*
X134789773Y-127406443D01*
X134781921Y-127428387D01*
X134771956Y-127449457D01*
X134759974Y-127469448D01*
X134746090Y-127488168D01*
X134730438Y-127505438D01*
X134713168Y-127521090D01*
X134694448Y-127534974D01*
X134674457Y-127546956D01*
X134653387Y-127556921D01*
X134631443Y-127564773D01*
X134608834Y-127570437D01*
X134585779Y-127573856D01*
X134562500Y-127575000D01*
X133987500Y-127575000D01*
X133964221Y-127573856D01*
X133941166Y-127570437D01*
X133918557Y-127564773D01*
X133896613Y-127556921D01*
X133875543Y-127546956D01*
X133855552Y-127534974D01*
X133836832Y-127521090D01*
X133819562Y-127505438D01*
X133803910Y-127488168D01*
X133790026Y-127469448D01*
X133778044Y-127449457D01*
X133768079Y-127428387D01*
X133760227Y-127406443D01*
X133754563Y-127383834D01*
X133751144Y-127360779D01*
X133750000Y-127337500D01*
X133750000Y-126862500D01*
X133751144Y-126839221D01*
X133754563Y-126816166D01*
X133760227Y-126793557D01*
X133768079Y-126771613D01*
X133778044Y-126750543D01*
X133790026Y-126730552D01*
X133803910Y-126711832D01*
X133819562Y-126694562D01*
X133836832Y-126678910D01*
X133855552Y-126665026D01*
X133875543Y-126653044D01*
X133896613Y-126643079D01*
X133918557Y-126635227D01*
X133941166Y-126629563D01*
X133964221Y-126626144D01*
X133987500Y-126625000D01*
X134562500Y-126625000D01*
X134585779Y-126626144D01*
X134585779Y-126626144D01*
G37*
D13*
X134275000Y-127100000D03*
D12*
G36*
X132835779Y-126626144D02*
X132858834Y-126629563D01*
X132881443Y-126635227D01*
X132903387Y-126643079D01*
X132924457Y-126653044D01*
X132944448Y-126665026D01*
X132963168Y-126678910D01*
X132980438Y-126694562D01*
X132996090Y-126711832D01*
X133009974Y-126730552D01*
X133021956Y-126750543D01*
X133031921Y-126771613D01*
X133039773Y-126793557D01*
X133045437Y-126816166D01*
X133048856Y-126839221D01*
X133050000Y-126862500D01*
X133050000Y-127337500D01*
X133048856Y-127360779D01*
X133045437Y-127383834D01*
X133039773Y-127406443D01*
X133031921Y-127428387D01*
X133021956Y-127449457D01*
X133009974Y-127469448D01*
X132996090Y-127488168D01*
X132980438Y-127505438D01*
X132963168Y-127521090D01*
X132944448Y-127534974D01*
X132924457Y-127546956D01*
X132903387Y-127556921D01*
X132881443Y-127564773D01*
X132858834Y-127570437D01*
X132835779Y-127573856D01*
X132812500Y-127575000D01*
X132237500Y-127575000D01*
X132214221Y-127573856D01*
X132191166Y-127570437D01*
X132168557Y-127564773D01*
X132146613Y-127556921D01*
X132125543Y-127546956D01*
X132105552Y-127534974D01*
X132086832Y-127521090D01*
X132069562Y-127505438D01*
X132053910Y-127488168D01*
X132040026Y-127469448D01*
X132028044Y-127449457D01*
X132018079Y-127428387D01*
X132010227Y-127406443D01*
X132004563Y-127383834D01*
X132001144Y-127360779D01*
X132000000Y-127337500D01*
X132000000Y-126862500D01*
X132001144Y-126839221D01*
X132004563Y-126816166D01*
X132010227Y-126793557D01*
X132018079Y-126771613D01*
X132028044Y-126750543D01*
X132040026Y-126730552D01*
X132053910Y-126711832D01*
X132069562Y-126694562D01*
X132086832Y-126678910D01*
X132105552Y-126665026D01*
X132125543Y-126653044D01*
X132146613Y-126643079D01*
X132168557Y-126635227D01*
X132191166Y-126629563D01*
X132214221Y-126626144D01*
X132237500Y-126625000D01*
X132812500Y-126625000D01*
X132835779Y-126626144D01*
X132835779Y-126626144D01*
G37*
D13*
X132525000Y-127100000D03*
G04 #@! TD*
D12*
G04 #@! TO.C,C7*
G36*
X132798182Y-129723693D02*
X132821237Y-129727112D01*
X132843846Y-129732776D01*
X132865790Y-129740628D01*
X132886860Y-129750593D01*
X132906851Y-129762575D01*
X132925571Y-129776459D01*
X132942841Y-129792111D01*
X132958493Y-129809381D01*
X132972377Y-129828101D01*
X132984359Y-129848092D01*
X132994324Y-129869162D01*
X133002176Y-129891106D01*
X133007840Y-129913715D01*
X133011259Y-129936770D01*
X133012403Y-129960049D01*
X133012403Y-130435049D01*
X133011259Y-130458328D01*
X133007840Y-130481383D01*
X133002176Y-130503992D01*
X132994324Y-130525936D01*
X132984359Y-130547006D01*
X132972377Y-130566997D01*
X132958493Y-130585717D01*
X132942841Y-130602987D01*
X132925571Y-130618639D01*
X132906851Y-130632523D01*
X132886860Y-130644505D01*
X132865790Y-130654470D01*
X132843846Y-130662322D01*
X132821237Y-130667986D01*
X132798182Y-130671405D01*
X132774903Y-130672549D01*
X132199903Y-130672549D01*
X132176624Y-130671405D01*
X132153569Y-130667986D01*
X132130960Y-130662322D01*
X132109016Y-130654470D01*
X132087946Y-130644505D01*
X132067955Y-130632523D01*
X132049235Y-130618639D01*
X132031965Y-130602987D01*
X132016313Y-130585717D01*
X132002429Y-130566997D01*
X131990447Y-130547006D01*
X131980482Y-130525936D01*
X131972630Y-130503992D01*
X131966966Y-130481383D01*
X131963547Y-130458328D01*
X131962403Y-130435049D01*
X131962403Y-129960049D01*
X131963547Y-129936770D01*
X131966966Y-129913715D01*
X131972630Y-129891106D01*
X131980482Y-129869162D01*
X131990447Y-129848092D01*
X132002429Y-129828101D01*
X132016313Y-129809381D01*
X132031965Y-129792111D01*
X132049235Y-129776459D01*
X132067955Y-129762575D01*
X132087946Y-129750593D01*
X132109016Y-129740628D01*
X132130960Y-129732776D01*
X132153569Y-129727112D01*
X132176624Y-129723693D01*
X132199903Y-129722549D01*
X132774903Y-129722549D01*
X132798182Y-129723693D01*
X132798182Y-129723693D01*
G37*
D13*
X132487403Y-130197549D03*
D12*
G36*
X134548182Y-129723693D02*
X134571237Y-129727112D01*
X134593846Y-129732776D01*
X134615790Y-129740628D01*
X134636860Y-129750593D01*
X134656851Y-129762575D01*
X134675571Y-129776459D01*
X134692841Y-129792111D01*
X134708493Y-129809381D01*
X134722377Y-129828101D01*
X134734359Y-129848092D01*
X134744324Y-129869162D01*
X134752176Y-129891106D01*
X134757840Y-129913715D01*
X134761259Y-129936770D01*
X134762403Y-129960049D01*
X134762403Y-130435049D01*
X134761259Y-130458328D01*
X134757840Y-130481383D01*
X134752176Y-130503992D01*
X134744324Y-130525936D01*
X134734359Y-130547006D01*
X134722377Y-130566997D01*
X134708493Y-130585717D01*
X134692841Y-130602987D01*
X134675571Y-130618639D01*
X134656851Y-130632523D01*
X134636860Y-130644505D01*
X134615790Y-130654470D01*
X134593846Y-130662322D01*
X134571237Y-130667986D01*
X134548182Y-130671405D01*
X134524903Y-130672549D01*
X133949903Y-130672549D01*
X133926624Y-130671405D01*
X133903569Y-130667986D01*
X133880960Y-130662322D01*
X133859016Y-130654470D01*
X133837946Y-130644505D01*
X133817955Y-130632523D01*
X133799235Y-130618639D01*
X133781965Y-130602987D01*
X133766313Y-130585717D01*
X133752429Y-130566997D01*
X133740447Y-130547006D01*
X133730482Y-130525936D01*
X133722630Y-130503992D01*
X133716966Y-130481383D01*
X133713547Y-130458328D01*
X133712403Y-130435049D01*
X133712403Y-129960049D01*
X133713547Y-129936770D01*
X133716966Y-129913715D01*
X133722630Y-129891106D01*
X133730482Y-129869162D01*
X133740447Y-129848092D01*
X133752429Y-129828101D01*
X133766313Y-129809381D01*
X133781965Y-129792111D01*
X133799235Y-129776459D01*
X133817955Y-129762575D01*
X133837946Y-129750593D01*
X133859016Y-129740628D01*
X133880960Y-129732776D01*
X133903569Y-129727112D01*
X133926624Y-129723693D01*
X133949903Y-129722549D01*
X134524903Y-129722549D01*
X134548182Y-129723693D01*
X134548182Y-129723693D01*
G37*
D13*
X134237403Y-130197549D03*
G04 #@! TD*
D12*
G04 #@! TO.C,C17*
G36*
X53760779Y-119951144D02*
X53783834Y-119954563D01*
X53806443Y-119960227D01*
X53828387Y-119968079D01*
X53849457Y-119978044D01*
X53869448Y-119990026D01*
X53888168Y-120003910D01*
X53905438Y-120019562D01*
X53921090Y-120036832D01*
X53934974Y-120055552D01*
X53946956Y-120075543D01*
X53956921Y-120096613D01*
X53964773Y-120118557D01*
X53970437Y-120141166D01*
X53973856Y-120164221D01*
X53975000Y-120187500D01*
X53975000Y-120762500D01*
X53973856Y-120785779D01*
X53970437Y-120808834D01*
X53964773Y-120831443D01*
X53956921Y-120853387D01*
X53946956Y-120874457D01*
X53934974Y-120894448D01*
X53921090Y-120913168D01*
X53905438Y-120930438D01*
X53888168Y-120946090D01*
X53869448Y-120959974D01*
X53849457Y-120971956D01*
X53828387Y-120981921D01*
X53806443Y-120989773D01*
X53783834Y-120995437D01*
X53760779Y-120998856D01*
X53737500Y-121000000D01*
X53262500Y-121000000D01*
X53239221Y-120998856D01*
X53216166Y-120995437D01*
X53193557Y-120989773D01*
X53171613Y-120981921D01*
X53150543Y-120971956D01*
X53130552Y-120959974D01*
X53111832Y-120946090D01*
X53094562Y-120930438D01*
X53078910Y-120913168D01*
X53065026Y-120894448D01*
X53053044Y-120874457D01*
X53043079Y-120853387D01*
X53035227Y-120831443D01*
X53029563Y-120808834D01*
X53026144Y-120785779D01*
X53025000Y-120762500D01*
X53025000Y-120187500D01*
X53026144Y-120164221D01*
X53029563Y-120141166D01*
X53035227Y-120118557D01*
X53043079Y-120096613D01*
X53053044Y-120075543D01*
X53065026Y-120055552D01*
X53078910Y-120036832D01*
X53094562Y-120019562D01*
X53111832Y-120003910D01*
X53130552Y-119990026D01*
X53150543Y-119978044D01*
X53171613Y-119968079D01*
X53193557Y-119960227D01*
X53216166Y-119954563D01*
X53239221Y-119951144D01*
X53262500Y-119950000D01*
X53737500Y-119950000D01*
X53760779Y-119951144D01*
X53760779Y-119951144D01*
G37*
D13*
X53500000Y-120475000D03*
D12*
G36*
X53760779Y-118201144D02*
X53783834Y-118204563D01*
X53806443Y-118210227D01*
X53828387Y-118218079D01*
X53849457Y-118228044D01*
X53869448Y-118240026D01*
X53888168Y-118253910D01*
X53905438Y-118269562D01*
X53921090Y-118286832D01*
X53934974Y-118305552D01*
X53946956Y-118325543D01*
X53956921Y-118346613D01*
X53964773Y-118368557D01*
X53970437Y-118391166D01*
X53973856Y-118414221D01*
X53975000Y-118437500D01*
X53975000Y-119012500D01*
X53973856Y-119035779D01*
X53970437Y-119058834D01*
X53964773Y-119081443D01*
X53956921Y-119103387D01*
X53946956Y-119124457D01*
X53934974Y-119144448D01*
X53921090Y-119163168D01*
X53905438Y-119180438D01*
X53888168Y-119196090D01*
X53869448Y-119209974D01*
X53849457Y-119221956D01*
X53828387Y-119231921D01*
X53806443Y-119239773D01*
X53783834Y-119245437D01*
X53760779Y-119248856D01*
X53737500Y-119250000D01*
X53262500Y-119250000D01*
X53239221Y-119248856D01*
X53216166Y-119245437D01*
X53193557Y-119239773D01*
X53171613Y-119231921D01*
X53150543Y-119221956D01*
X53130552Y-119209974D01*
X53111832Y-119196090D01*
X53094562Y-119180438D01*
X53078910Y-119163168D01*
X53065026Y-119144448D01*
X53053044Y-119124457D01*
X53043079Y-119103387D01*
X53035227Y-119081443D01*
X53029563Y-119058834D01*
X53026144Y-119035779D01*
X53025000Y-119012500D01*
X53025000Y-118437500D01*
X53026144Y-118414221D01*
X53029563Y-118391166D01*
X53035227Y-118368557D01*
X53043079Y-118346613D01*
X53053044Y-118325543D01*
X53065026Y-118305552D01*
X53078910Y-118286832D01*
X53094562Y-118269562D01*
X53111832Y-118253910D01*
X53130552Y-118240026D01*
X53150543Y-118228044D01*
X53171613Y-118218079D01*
X53193557Y-118210227D01*
X53216166Y-118204563D01*
X53239221Y-118201144D01*
X53262500Y-118200000D01*
X53737500Y-118200000D01*
X53760779Y-118201144D01*
X53760779Y-118201144D01*
G37*
D13*
X53500000Y-118725000D03*
G04 #@! TD*
D12*
G04 #@! TO.C,C18*
G36*
X64360779Y-119701144D02*
X64383834Y-119704563D01*
X64406443Y-119710227D01*
X64428387Y-119718079D01*
X64449457Y-119728044D01*
X64469448Y-119740026D01*
X64488168Y-119753910D01*
X64505438Y-119769562D01*
X64521090Y-119786832D01*
X64534974Y-119805552D01*
X64546956Y-119825543D01*
X64556921Y-119846613D01*
X64564773Y-119868557D01*
X64570437Y-119891166D01*
X64573856Y-119914221D01*
X64575000Y-119937500D01*
X64575000Y-120512500D01*
X64573856Y-120535779D01*
X64570437Y-120558834D01*
X64564773Y-120581443D01*
X64556921Y-120603387D01*
X64546956Y-120624457D01*
X64534974Y-120644448D01*
X64521090Y-120663168D01*
X64505438Y-120680438D01*
X64488168Y-120696090D01*
X64469448Y-120709974D01*
X64449457Y-120721956D01*
X64428387Y-120731921D01*
X64406443Y-120739773D01*
X64383834Y-120745437D01*
X64360779Y-120748856D01*
X64337500Y-120750000D01*
X63862500Y-120750000D01*
X63839221Y-120748856D01*
X63816166Y-120745437D01*
X63793557Y-120739773D01*
X63771613Y-120731921D01*
X63750543Y-120721956D01*
X63730552Y-120709974D01*
X63711832Y-120696090D01*
X63694562Y-120680438D01*
X63678910Y-120663168D01*
X63665026Y-120644448D01*
X63653044Y-120624457D01*
X63643079Y-120603387D01*
X63635227Y-120581443D01*
X63629563Y-120558834D01*
X63626144Y-120535779D01*
X63625000Y-120512500D01*
X63625000Y-119937500D01*
X63626144Y-119914221D01*
X63629563Y-119891166D01*
X63635227Y-119868557D01*
X63643079Y-119846613D01*
X63653044Y-119825543D01*
X63665026Y-119805552D01*
X63678910Y-119786832D01*
X63694562Y-119769562D01*
X63711832Y-119753910D01*
X63730552Y-119740026D01*
X63750543Y-119728044D01*
X63771613Y-119718079D01*
X63793557Y-119710227D01*
X63816166Y-119704563D01*
X63839221Y-119701144D01*
X63862500Y-119700000D01*
X64337500Y-119700000D01*
X64360779Y-119701144D01*
X64360779Y-119701144D01*
G37*
D13*
X64100000Y-120225000D03*
D12*
G36*
X64360779Y-121451144D02*
X64383834Y-121454563D01*
X64406443Y-121460227D01*
X64428387Y-121468079D01*
X64449457Y-121478044D01*
X64469448Y-121490026D01*
X64488168Y-121503910D01*
X64505438Y-121519562D01*
X64521090Y-121536832D01*
X64534974Y-121555552D01*
X64546956Y-121575543D01*
X64556921Y-121596613D01*
X64564773Y-121618557D01*
X64570437Y-121641166D01*
X64573856Y-121664221D01*
X64575000Y-121687500D01*
X64575000Y-122262500D01*
X64573856Y-122285779D01*
X64570437Y-122308834D01*
X64564773Y-122331443D01*
X64556921Y-122353387D01*
X64546956Y-122374457D01*
X64534974Y-122394448D01*
X64521090Y-122413168D01*
X64505438Y-122430438D01*
X64488168Y-122446090D01*
X64469448Y-122459974D01*
X64449457Y-122471956D01*
X64428387Y-122481921D01*
X64406443Y-122489773D01*
X64383834Y-122495437D01*
X64360779Y-122498856D01*
X64337500Y-122500000D01*
X63862500Y-122500000D01*
X63839221Y-122498856D01*
X63816166Y-122495437D01*
X63793557Y-122489773D01*
X63771613Y-122481921D01*
X63750543Y-122471956D01*
X63730552Y-122459974D01*
X63711832Y-122446090D01*
X63694562Y-122430438D01*
X63678910Y-122413168D01*
X63665026Y-122394448D01*
X63653044Y-122374457D01*
X63643079Y-122353387D01*
X63635227Y-122331443D01*
X63629563Y-122308834D01*
X63626144Y-122285779D01*
X63625000Y-122262500D01*
X63625000Y-121687500D01*
X63626144Y-121664221D01*
X63629563Y-121641166D01*
X63635227Y-121618557D01*
X63643079Y-121596613D01*
X63653044Y-121575543D01*
X63665026Y-121555552D01*
X63678910Y-121536832D01*
X63694562Y-121519562D01*
X63711832Y-121503910D01*
X63730552Y-121490026D01*
X63750543Y-121478044D01*
X63771613Y-121468079D01*
X63793557Y-121460227D01*
X63816166Y-121454563D01*
X63839221Y-121451144D01*
X63862500Y-121450000D01*
X64337500Y-121450000D01*
X64360779Y-121451144D01*
X64360779Y-121451144D01*
G37*
D13*
X64100000Y-121975000D03*
G04 #@! TD*
D12*
G04 #@! TO.C,R1*
G36*
X49860779Y-119951144D02*
X49883834Y-119954563D01*
X49906443Y-119960227D01*
X49928387Y-119968079D01*
X49949457Y-119978044D01*
X49969448Y-119990026D01*
X49988168Y-120003910D01*
X50005438Y-120019562D01*
X50021090Y-120036832D01*
X50034974Y-120055552D01*
X50046956Y-120075543D01*
X50056921Y-120096613D01*
X50064773Y-120118557D01*
X50070437Y-120141166D01*
X50073856Y-120164221D01*
X50075000Y-120187500D01*
X50075000Y-120762500D01*
X50073856Y-120785779D01*
X50070437Y-120808834D01*
X50064773Y-120831443D01*
X50056921Y-120853387D01*
X50046956Y-120874457D01*
X50034974Y-120894448D01*
X50021090Y-120913168D01*
X50005438Y-120930438D01*
X49988168Y-120946090D01*
X49969448Y-120959974D01*
X49949457Y-120971956D01*
X49928387Y-120981921D01*
X49906443Y-120989773D01*
X49883834Y-120995437D01*
X49860779Y-120998856D01*
X49837500Y-121000000D01*
X49362500Y-121000000D01*
X49339221Y-120998856D01*
X49316166Y-120995437D01*
X49293557Y-120989773D01*
X49271613Y-120981921D01*
X49250543Y-120971956D01*
X49230552Y-120959974D01*
X49211832Y-120946090D01*
X49194562Y-120930438D01*
X49178910Y-120913168D01*
X49165026Y-120894448D01*
X49153044Y-120874457D01*
X49143079Y-120853387D01*
X49135227Y-120831443D01*
X49129563Y-120808834D01*
X49126144Y-120785779D01*
X49125000Y-120762500D01*
X49125000Y-120187500D01*
X49126144Y-120164221D01*
X49129563Y-120141166D01*
X49135227Y-120118557D01*
X49143079Y-120096613D01*
X49153044Y-120075543D01*
X49165026Y-120055552D01*
X49178910Y-120036832D01*
X49194562Y-120019562D01*
X49211832Y-120003910D01*
X49230552Y-119990026D01*
X49250543Y-119978044D01*
X49271613Y-119968079D01*
X49293557Y-119960227D01*
X49316166Y-119954563D01*
X49339221Y-119951144D01*
X49362500Y-119950000D01*
X49837500Y-119950000D01*
X49860779Y-119951144D01*
X49860779Y-119951144D01*
G37*
D13*
X49600000Y-120475000D03*
D12*
G36*
X49860779Y-118201144D02*
X49883834Y-118204563D01*
X49906443Y-118210227D01*
X49928387Y-118218079D01*
X49949457Y-118228044D01*
X49969448Y-118240026D01*
X49988168Y-118253910D01*
X50005438Y-118269562D01*
X50021090Y-118286832D01*
X50034974Y-118305552D01*
X50046956Y-118325543D01*
X50056921Y-118346613D01*
X50064773Y-118368557D01*
X50070437Y-118391166D01*
X50073856Y-118414221D01*
X50075000Y-118437500D01*
X50075000Y-119012500D01*
X50073856Y-119035779D01*
X50070437Y-119058834D01*
X50064773Y-119081443D01*
X50056921Y-119103387D01*
X50046956Y-119124457D01*
X50034974Y-119144448D01*
X50021090Y-119163168D01*
X50005438Y-119180438D01*
X49988168Y-119196090D01*
X49969448Y-119209974D01*
X49949457Y-119221956D01*
X49928387Y-119231921D01*
X49906443Y-119239773D01*
X49883834Y-119245437D01*
X49860779Y-119248856D01*
X49837500Y-119250000D01*
X49362500Y-119250000D01*
X49339221Y-119248856D01*
X49316166Y-119245437D01*
X49293557Y-119239773D01*
X49271613Y-119231921D01*
X49250543Y-119221956D01*
X49230552Y-119209974D01*
X49211832Y-119196090D01*
X49194562Y-119180438D01*
X49178910Y-119163168D01*
X49165026Y-119144448D01*
X49153044Y-119124457D01*
X49143079Y-119103387D01*
X49135227Y-119081443D01*
X49129563Y-119058834D01*
X49126144Y-119035779D01*
X49125000Y-119012500D01*
X49125000Y-118437500D01*
X49126144Y-118414221D01*
X49129563Y-118391166D01*
X49135227Y-118368557D01*
X49143079Y-118346613D01*
X49153044Y-118325543D01*
X49165026Y-118305552D01*
X49178910Y-118286832D01*
X49194562Y-118269562D01*
X49211832Y-118253910D01*
X49230552Y-118240026D01*
X49250543Y-118228044D01*
X49271613Y-118218079D01*
X49293557Y-118210227D01*
X49316166Y-118204563D01*
X49339221Y-118201144D01*
X49362500Y-118200000D01*
X49837500Y-118200000D01*
X49860779Y-118201144D01*
X49860779Y-118201144D01*
G37*
D13*
X49600000Y-118725000D03*
G04 #@! TD*
D12*
G04 #@! TO.C,R2*
G36*
X51160779Y-118201144D02*
X51183834Y-118204563D01*
X51206443Y-118210227D01*
X51228387Y-118218079D01*
X51249457Y-118228044D01*
X51269448Y-118240026D01*
X51288168Y-118253910D01*
X51305438Y-118269562D01*
X51321090Y-118286832D01*
X51334974Y-118305552D01*
X51346956Y-118325543D01*
X51356921Y-118346613D01*
X51364773Y-118368557D01*
X51370437Y-118391166D01*
X51373856Y-118414221D01*
X51375000Y-118437500D01*
X51375000Y-119012500D01*
X51373856Y-119035779D01*
X51370437Y-119058834D01*
X51364773Y-119081443D01*
X51356921Y-119103387D01*
X51346956Y-119124457D01*
X51334974Y-119144448D01*
X51321090Y-119163168D01*
X51305438Y-119180438D01*
X51288168Y-119196090D01*
X51269448Y-119209974D01*
X51249457Y-119221956D01*
X51228387Y-119231921D01*
X51206443Y-119239773D01*
X51183834Y-119245437D01*
X51160779Y-119248856D01*
X51137500Y-119250000D01*
X50662500Y-119250000D01*
X50639221Y-119248856D01*
X50616166Y-119245437D01*
X50593557Y-119239773D01*
X50571613Y-119231921D01*
X50550543Y-119221956D01*
X50530552Y-119209974D01*
X50511832Y-119196090D01*
X50494562Y-119180438D01*
X50478910Y-119163168D01*
X50465026Y-119144448D01*
X50453044Y-119124457D01*
X50443079Y-119103387D01*
X50435227Y-119081443D01*
X50429563Y-119058834D01*
X50426144Y-119035779D01*
X50425000Y-119012500D01*
X50425000Y-118437500D01*
X50426144Y-118414221D01*
X50429563Y-118391166D01*
X50435227Y-118368557D01*
X50443079Y-118346613D01*
X50453044Y-118325543D01*
X50465026Y-118305552D01*
X50478910Y-118286832D01*
X50494562Y-118269562D01*
X50511832Y-118253910D01*
X50530552Y-118240026D01*
X50550543Y-118228044D01*
X50571613Y-118218079D01*
X50593557Y-118210227D01*
X50616166Y-118204563D01*
X50639221Y-118201144D01*
X50662500Y-118200000D01*
X51137500Y-118200000D01*
X51160779Y-118201144D01*
X51160779Y-118201144D01*
G37*
D13*
X50900000Y-118725000D03*
D12*
G36*
X51160779Y-119951144D02*
X51183834Y-119954563D01*
X51206443Y-119960227D01*
X51228387Y-119968079D01*
X51249457Y-119978044D01*
X51269448Y-119990026D01*
X51288168Y-120003910D01*
X51305438Y-120019562D01*
X51321090Y-120036832D01*
X51334974Y-120055552D01*
X51346956Y-120075543D01*
X51356921Y-120096613D01*
X51364773Y-120118557D01*
X51370437Y-120141166D01*
X51373856Y-120164221D01*
X51375000Y-120187500D01*
X51375000Y-120762500D01*
X51373856Y-120785779D01*
X51370437Y-120808834D01*
X51364773Y-120831443D01*
X51356921Y-120853387D01*
X51346956Y-120874457D01*
X51334974Y-120894448D01*
X51321090Y-120913168D01*
X51305438Y-120930438D01*
X51288168Y-120946090D01*
X51269448Y-120959974D01*
X51249457Y-120971956D01*
X51228387Y-120981921D01*
X51206443Y-120989773D01*
X51183834Y-120995437D01*
X51160779Y-120998856D01*
X51137500Y-121000000D01*
X50662500Y-121000000D01*
X50639221Y-120998856D01*
X50616166Y-120995437D01*
X50593557Y-120989773D01*
X50571613Y-120981921D01*
X50550543Y-120971956D01*
X50530552Y-120959974D01*
X50511832Y-120946090D01*
X50494562Y-120930438D01*
X50478910Y-120913168D01*
X50465026Y-120894448D01*
X50453044Y-120874457D01*
X50443079Y-120853387D01*
X50435227Y-120831443D01*
X50429563Y-120808834D01*
X50426144Y-120785779D01*
X50425000Y-120762500D01*
X50425000Y-120187500D01*
X50426144Y-120164221D01*
X50429563Y-120141166D01*
X50435227Y-120118557D01*
X50443079Y-120096613D01*
X50453044Y-120075543D01*
X50465026Y-120055552D01*
X50478910Y-120036832D01*
X50494562Y-120019562D01*
X50511832Y-120003910D01*
X50530552Y-119990026D01*
X50550543Y-119978044D01*
X50571613Y-119968079D01*
X50593557Y-119960227D01*
X50616166Y-119954563D01*
X50639221Y-119951144D01*
X50662500Y-119950000D01*
X51137500Y-119950000D01*
X51160779Y-119951144D01*
X51160779Y-119951144D01*
G37*
D13*
X50900000Y-120475000D03*
G04 #@! TD*
D12*
G04 #@! TO.C,R3*
G36*
X52460779Y-118201144D02*
X52483834Y-118204563D01*
X52506443Y-118210227D01*
X52528387Y-118218079D01*
X52549457Y-118228044D01*
X52569448Y-118240026D01*
X52588168Y-118253910D01*
X52605438Y-118269562D01*
X52621090Y-118286832D01*
X52634974Y-118305552D01*
X52646956Y-118325543D01*
X52656921Y-118346613D01*
X52664773Y-118368557D01*
X52670437Y-118391166D01*
X52673856Y-118414221D01*
X52675000Y-118437500D01*
X52675000Y-119012500D01*
X52673856Y-119035779D01*
X52670437Y-119058834D01*
X52664773Y-119081443D01*
X52656921Y-119103387D01*
X52646956Y-119124457D01*
X52634974Y-119144448D01*
X52621090Y-119163168D01*
X52605438Y-119180438D01*
X52588168Y-119196090D01*
X52569448Y-119209974D01*
X52549457Y-119221956D01*
X52528387Y-119231921D01*
X52506443Y-119239773D01*
X52483834Y-119245437D01*
X52460779Y-119248856D01*
X52437500Y-119250000D01*
X51962500Y-119250000D01*
X51939221Y-119248856D01*
X51916166Y-119245437D01*
X51893557Y-119239773D01*
X51871613Y-119231921D01*
X51850543Y-119221956D01*
X51830552Y-119209974D01*
X51811832Y-119196090D01*
X51794562Y-119180438D01*
X51778910Y-119163168D01*
X51765026Y-119144448D01*
X51753044Y-119124457D01*
X51743079Y-119103387D01*
X51735227Y-119081443D01*
X51729563Y-119058834D01*
X51726144Y-119035779D01*
X51725000Y-119012500D01*
X51725000Y-118437500D01*
X51726144Y-118414221D01*
X51729563Y-118391166D01*
X51735227Y-118368557D01*
X51743079Y-118346613D01*
X51753044Y-118325543D01*
X51765026Y-118305552D01*
X51778910Y-118286832D01*
X51794562Y-118269562D01*
X51811832Y-118253910D01*
X51830552Y-118240026D01*
X51850543Y-118228044D01*
X51871613Y-118218079D01*
X51893557Y-118210227D01*
X51916166Y-118204563D01*
X51939221Y-118201144D01*
X51962500Y-118200000D01*
X52437500Y-118200000D01*
X52460779Y-118201144D01*
X52460779Y-118201144D01*
G37*
D13*
X52200000Y-118725000D03*
D12*
G36*
X52460779Y-119951144D02*
X52483834Y-119954563D01*
X52506443Y-119960227D01*
X52528387Y-119968079D01*
X52549457Y-119978044D01*
X52569448Y-119990026D01*
X52588168Y-120003910D01*
X52605438Y-120019562D01*
X52621090Y-120036832D01*
X52634974Y-120055552D01*
X52646956Y-120075543D01*
X52656921Y-120096613D01*
X52664773Y-120118557D01*
X52670437Y-120141166D01*
X52673856Y-120164221D01*
X52675000Y-120187500D01*
X52675000Y-120762500D01*
X52673856Y-120785779D01*
X52670437Y-120808834D01*
X52664773Y-120831443D01*
X52656921Y-120853387D01*
X52646956Y-120874457D01*
X52634974Y-120894448D01*
X52621090Y-120913168D01*
X52605438Y-120930438D01*
X52588168Y-120946090D01*
X52569448Y-120959974D01*
X52549457Y-120971956D01*
X52528387Y-120981921D01*
X52506443Y-120989773D01*
X52483834Y-120995437D01*
X52460779Y-120998856D01*
X52437500Y-121000000D01*
X51962500Y-121000000D01*
X51939221Y-120998856D01*
X51916166Y-120995437D01*
X51893557Y-120989773D01*
X51871613Y-120981921D01*
X51850543Y-120971956D01*
X51830552Y-120959974D01*
X51811832Y-120946090D01*
X51794562Y-120930438D01*
X51778910Y-120913168D01*
X51765026Y-120894448D01*
X51753044Y-120874457D01*
X51743079Y-120853387D01*
X51735227Y-120831443D01*
X51729563Y-120808834D01*
X51726144Y-120785779D01*
X51725000Y-120762500D01*
X51725000Y-120187500D01*
X51726144Y-120164221D01*
X51729563Y-120141166D01*
X51735227Y-120118557D01*
X51743079Y-120096613D01*
X51753044Y-120075543D01*
X51765026Y-120055552D01*
X51778910Y-120036832D01*
X51794562Y-120019562D01*
X51811832Y-120003910D01*
X51830552Y-119990026D01*
X51850543Y-119978044D01*
X51871613Y-119968079D01*
X51893557Y-119960227D01*
X51916166Y-119954563D01*
X51939221Y-119951144D01*
X51962500Y-119950000D01*
X52437500Y-119950000D01*
X52460779Y-119951144D01*
X52460779Y-119951144D01*
G37*
D13*
X52200000Y-120475000D03*
G04 #@! TD*
D12*
G04 #@! TO.C,R4*
G36*
X48560779Y-119951144D02*
X48583834Y-119954563D01*
X48606443Y-119960227D01*
X48628387Y-119968079D01*
X48649457Y-119978044D01*
X48669448Y-119990026D01*
X48688168Y-120003910D01*
X48705438Y-120019562D01*
X48721090Y-120036832D01*
X48734974Y-120055552D01*
X48746956Y-120075543D01*
X48756921Y-120096613D01*
X48764773Y-120118557D01*
X48770437Y-120141166D01*
X48773856Y-120164221D01*
X48775000Y-120187500D01*
X48775000Y-120762500D01*
X48773856Y-120785779D01*
X48770437Y-120808834D01*
X48764773Y-120831443D01*
X48756921Y-120853387D01*
X48746956Y-120874457D01*
X48734974Y-120894448D01*
X48721090Y-120913168D01*
X48705438Y-120930438D01*
X48688168Y-120946090D01*
X48669448Y-120959974D01*
X48649457Y-120971956D01*
X48628387Y-120981921D01*
X48606443Y-120989773D01*
X48583834Y-120995437D01*
X48560779Y-120998856D01*
X48537500Y-121000000D01*
X48062500Y-121000000D01*
X48039221Y-120998856D01*
X48016166Y-120995437D01*
X47993557Y-120989773D01*
X47971613Y-120981921D01*
X47950543Y-120971956D01*
X47930552Y-120959974D01*
X47911832Y-120946090D01*
X47894562Y-120930438D01*
X47878910Y-120913168D01*
X47865026Y-120894448D01*
X47853044Y-120874457D01*
X47843079Y-120853387D01*
X47835227Y-120831443D01*
X47829563Y-120808834D01*
X47826144Y-120785779D01*
X47825000Y-120762500D01*
X47825000Y-120187500D01*
X47826144Y-120164221D01*
X47829563Y-120141166D01*
X47835227Y-120118557D01*
X47843079Y-120096613D01*
X47853044Y-120075543D01*
X47865026Y-120055552D01*
X47878910Y-120036832D01*
X47894562Y-120019562D01*
X47911832Y-120003910D01*
X47930552Y-119990026D01*
X47950543Y-119978044D01*
X47971613Y-119968079D01*
X47993557Y-119960227D01*
X48016166Y-119954563D01*
X48039221Y-119951144D01*
X48062500Y-119950000D01*
X48537500Y-119950000D01*
X48560779Y-119951144D01*
X48560779Y-119951144D01*
G37*
D13*
X48300000Y-120475000D03*
D12*
G36*
X48560779Y-118201144D02*
X48583834Y-118204563D01*
X48606443Y-118210227D01*
X48628387Y-118218079D01*
X48649457Y-118228044D01*
X48669448Y-118240026D01*
X48688168Y-118253910D01*
X48705438Y-118269562D01*
X48721090Y-118286832D01*
X48734974Y-118305552D01*
X48746956Y-118325543D01*
X48756921Y-118346613D01*
X48764773Y-118368557D01*
X48770437Y-118391166D01*
X48773856Y-118414221D01*
X48775000Y-118437500D01*
X48775000Y-119012500D01*
X48773856Y-119035779D01*
X48770437Y-119058834D01*
X48764773Y-119081443D01*
X48756921Y-119103387D01*
X48746956Y-119124457D01*
X48734974Y-119144448D01*
X48721090Y-119163168D01*
X48705438Y-119180438D01*
X48688168Y-119196090D01*
X48669448Y-119209974D01*
X48649457Y-119221956D01*
X48628387Y-119231921D01*
X48606443Y-119239773D01*
X48583834Y-119245437D01*
X48560779Y-119248856D01*
X48537500Y-119250000D01*
X48062500Y-119250000D01*
X48039221Y-119248856D01*
X48016166Y-119245437D01*
X47993557Y-119239773D01*
X47971613Y-119231921D01*
X47950543Y-119221956D01*
X47930552Y-119209974D01*
X47911832Y-119196090D01*
X47894562Y-119180438D01*
X47878910Y-119163168D01*
X47865026Y-119144448D01*
X47853044Y-119124457D01*
X47843079Y-119103387D01*
X47835227Y-119081443D01*
X47829563Y-119058834D01*
X47826144Y-119035779D01*
X47825000Y-119012500D01*
X47825000Y-118437500D01*
X47826144Y-118414221D01*
X47829563Y-118391166D01*
X47835227Y-118368557D01*
X47843079Y-118346613D01*
X47853044Y-118325543D01*
X47865026Y-118305552D01*
X47878910Y-118286832D01*
X47894562Y-118269562D01*
X47911832Y-118253910D01*
X47930552Y-118240026D01*
X47950543Y-118228044D01*
X47971613Y-118218079D01*
X47993557Y-118210227D01*
X48016166Y-118204563D01*
X48039221Y-118201144D01*
X48062500Y-118200000D01*
X48537500Y-118200000D01*
X48560779Y-118201144D01*
X48560779Y-118201144D01*
G37*
D13*
X48300000Y-118725000D03*
G04 #@! TD*
D12*
G04 #@! TO.C,R5*
G36*
X53760779Y-129801144D02*
X53783834Y-129804563D01*
X53806443Y-129810227D01*
X53828387Y-129818079D01*
X53849457Y-129828044D01*
X53869448Y-129840026D01*
X53888168Y-129853910D01*
X53905438Y-129869562D01*
X53921090Y-129886832D01*
X53934974Y-129905552D01*
X53946956Y-129925543D01*
X53956921Y-129946613D01*
X53964773Y-129968557D01*
X53970437Y-129991166D01*
X53973856Y-130014221D01*
X53975000Y-130037500D01*
X53975000Y-130612500D01*
X53973856Y-130635779D01*
X53970437Y-130658834D01*
X53964773Y-130681443D01*
X53956921Y-130703387D01*
X53946956Y-130724457D01*
X53934974Y-130744448D01*
X53921090Y-130763168D01*
X53905438Y-130780438D01*
X53888168Y-130796090D01*
X53869448Y-130809974D01*
X53849457Y-130821956D01*
X53828387Y-130831921D01*
X53806443Y-130839773D01*
X53783834Y-130845437D01*
X53760779Y-130848856D01*
X53737500Y-130850000D01*
X53262500Y-130850000D01*
X53239221Y-130848856D01*
X53216166Y-130845437D01*
X53193557Y-130839773D01*
X53171613Y-130831921D01*
X53150543Y-130821956D01*
X53130552Y-130809974D01*
X53111832Y-130796090D01*
X53094562Y-130780438D01*
X53078910Y-130763168D01*
X53065026Y-130744448D01*
X53053044Y-130724457D01*
X53043079Y-130703387D01*
X53035227Y-130681443D01*
X53029563Y-130658834D01*
X53026144Y-130635779D01*
X53025000Y-130612500D01*
X53025000Y-130037500D01*
X53026144Y-130014221D01*
X53029563Y-129991166D01*
X53035227Y-129968557D01*
X53043079Y-129946613D01*
X53053044Y-129925543D01*
X53065026Y-129905552D01*
X53078910Y-129886832D01*
X53094562Y-129869562D01*
X53111832Y-129853910D01*
X53130552Y-129840026D01*
X53150543Y-129828044D01*
X53171613Y-129818079D01*
X53193557Y-129810227D01*
X53216166Y-129804563D01*
X53239221Y-129801144D01*
X53262500Y-129800000D01*
X53737500Y-129800000D01*
X53760779Y-129801144D01*
X53760779Y-129801144D01*
G37*
D13*
X53500000Y-130325000D03*
D12*
G36*
X53760779Y-131551144D02*
X53783834Y-131554563D01*
X53806443Y-131560227D01*
X53828387Y-131568079D01*
X53849457Y-131578044D01*
X53869448Y-131590026D01*
X53888168Y-131603910D01*
X53905438Y-131619562D01*
X53921090Y-131636832D01*
X53934974Y-131655552D01*
X53946956Y-131675543D01*
X53956921Y-131696613D01*
X53964773Y-131718557D01*
X53970437Y-131741166D01*
X53973856Y-131764221D01*
X53975000Y-131787500D01*
X53975000Y-132362500D01*
X53973856Y-132385779D01*
X53970437Y-132408834D01*
X53964773Y-132431443D01*
X53956921Y-132453387D01*
X53946956Y-132474457D01*
X53934974Y-132494448D01*
X53921090Y-132513168D01*
X53905438Y-132530438D01*
X53888168Y-132546090D01*
X53869448Y-132559974D01*
X53849457Y-132571956D01*
X53828387Y-132581921D01*
X53806443Y-132589773D01*
X53783834Y-132595437D01*
X53760779Y-132598856D01*
X53737500Y-132600000D01*
X53262500Y-132600000D01*
X53239221Y-132598856D01*
X53216166Y-132595437D01*
X53193557Y-132589773D01*
X53171613Y-132581921D01*
X53150543Y-132571956D01*
X53130552Y-132559974D01*
X53111832Y-132546090D01*
X53094562Y-132530438D01*
X53078910Y-132513168D01*
X53065026Y-132494448D01*
X53053044Y-132474457D01*
X53043079Y-132453387D01*
X53035227Y-132431443D01*
X53029563Y-132408834D01*
X53026144Y-132385779D01*
X53025000Y-132362500D01*
X53025000Y-131787500D01*
X53026144Y-131764221D01*
X53029563Y-131741166D01*
X53035227Y-131718557D01*
X53043079Y-131696613D01*
X53053044Y-131675543D01*
X53065026Y-131655552D01*
X53078910Y-131636832D01*
X53094562Y-131619562D01*
X53111832Y-131603910D01*
X53130552Y-131590026D01*
X53150543Y-131578044D01*
X53171613Y-131568079D01*
X53193557Y-131560227D01*
X53216166Y-131554563D01*
X53239221Y-131551144D01*
X53262500Y-131550000D01*
X53737500Y-131550000D01*
X53760779Y-131551144D01*
X53760779Y-131551144D01*
G37*
D13*
X53500000Y-132075000D03*
G04 #@! TD*
D12*
G04 #@! TO.C,R6*
G36*
X51160779Y-129801144D02*
X51183834Y-129804563D01*
X51206443Y-129810227D01*
X51228387Y-129818079D01*
X51249457Y-129828044D01*
X51269448Y-129840026D01*
X51288168Y-129853910D01*
X51305438Y-129869562D01*
X51321090Y-129886832D01*
X51334974Y-129905552D01*
X51346956Y-129925543D01*
X51356921Y-129946613D01*
X51364773Y-129968557D01*
X51370437Y-129991166D01*
X51373856Y-130014221D01*
X51375000Y-130037500D01*
X51375000Y-130612500D01*
X51373856Y-130635779D01*
X51370437Y-130658834D01*
X51364773Y-130681443D01*
X51356921Y-130703387D01*
X51346956Y-130724457D01*
X51334974Y-130744448D01*
X51321090Y-130763168D01*
X51305438Y-130780438D01*
X51288168Y-130796090D01*
X51269448Y-130809974D01*
X51249457Y-130821956D01*
X51228387Y-130831921D01*
X51206443Y-130839773D01*
X51183834Y-130845437D01*
X51160779Y-130848856D01*
X51137500Y-130850000D01*
X50662500Y-130850000D01*
X50639221Y-130848856D01*
X50616166Y-130845437D01*
X50593557Y-130839773D01*
X50571613Y-130831921D01*
X50550543Y-130821956D01*
X50530552Y-130809974D01*
X50511832Y-130796090D01*
X50494562Y-130780438D01*
X50478910Y-130763168D01*
X50465026Y-130744448D01*
X50453044Y-130724457D01*
X50443079Y-130703387D01*
X50435227Y-130681443D01*
X50429563Y-130658834D01*
X50426144Y-130635779D01*
X50425000Y-130612500D01*
X50425000Y-130037500D01*
X50426144Y-130014221D01*
X50429563Y-129991166D01*
X50435227Y-129968557D01*
X50443079Y-129946613D01*
X50453044Y-129925543D01*
X50465026Y-129905552D01*
X50478910Y-129886832D01*
X50494562Y-129869562D01*
X50511832Y-129853910D01*
X50530552Y-129840026D01*
X50550543Y-129828044D01*
X50571613Y-129818079D01*
X50593557Y-129810227D01*
X50616166Y-129804563D01*
X50639221Y-129801144D01*
X50662500Y-129800000D01*
X51137500Y-129800000D01*
X51160779Y-129801144D01*
X51160779Y-129801144D01*
G37*
D13*
X50900000Y-130325000D03*
D12*
G36*
X51160779Y-131551144D02*
X51183834Y-131554563D01*
X51206443Y-131560227D01*
X51228387Y-131568079D01*
X51249457Y-131578044D01*
X51269448Y-131590026D01*
X51288168Y-131603910D01*
X51305438Y-131619562D01*
X51321090Y-131636832D01*
X51334974Y-131655552D01*
X51346956Y-131675543D01*
X51356921Y-131696613D01*
X51364773Y-131718557D01*
X51370437Y-131741166D01*
X51373856Y-131764221D01*
X51375000Y-131787500D01*
X51375000Y-132362500D01*
X51373856Y-132385779D01*
X51370437Y-132408834D01*
X51364773Y-132431443D01*
X51356921Y-132453387D01*
X51346956Y-132474457D01*
X51334974Y-132494448D01*
X51321090Y-132513168D01*
X51305438Y-132530438D01*
X51288168Y-132546090D01*
X51269448Y-132559974D01*
X51249457Y-132571956D01*
X51228387Y-132581921D01*
X51206443Y-132589773D01*
X51183834Y-132595437D01*
X51160779Y-132598856D01*
X51137500Y-132600000D01*
X50662500Y-132600000D01*
X50639221Y-132598856D01*
X50616166Y-132595437D01*
X50593557Y-132589773D01*
X50571613Y-132581921D01*
X50550543Y-132571956D01*
X50530552Y-132559974D01*
X50511832Y-132546090D01*
X50494562Y-132530438D01*
X50478910Y-132513168D01*
X50465026Y-132494448D01*
X50453044Y-132474457D01*
X50443079Y-132453387D01*
X50435227Y-132431443D01*
X50429563Y-132408834D01*
X50426144Y-132385779D01*
X50425000Y-132362500D01*
X50425000Y-131787500D01*
X50426144Y-131764221D01*
X50429563Y-131741166D01*
X50435227Y-131718557D01*
X50443079Y-131696613D01*
X50453044Y-131675543D01*
X50465026Y-131655552D01*
X50478910Y-131636832D01*
X50494562Y-131619562D01*
X50511832Y-131603910D01*
X50530552Y-131590026D01*
X50550543Y-131578044D01*
X50571613Y-131568079D01*
X50593557Y-131560227D01*
X50616166Y-131554563D01*
X50639221Y-131551144D01*
X50662500Y-131550000D01*
X51137500Y-131550000D01*
X51160779Y-131551144D01*
X51160779Y-131551144D01*
G37*
D13*
X50900000Y-132075000D03*
G04 #@! TD*
D12*
G04 #@! TO.C,R7*
G36*
X55860779Y-127651144D02*
X55883834Y-127654563D01*
X55906443Y-127660227D01*
X55928387Y-127668079D01*
X55949457Y-127678044D01*
X55969448Y-127690026D01*
X55988168Y-127703910D01*
X56005438Y-127719562D01*
X56021090Y-127736832D01*
X56034974Y-127755552D01*
X56046956Y-127775543D01*
X56056921Y-127796613D01*
X56064773Y-127818557D01*
X56070437Y-127841166D01*
X56073856Y-127864221D01*
X56075000Y-127887500D01*
X56075000Y-128462500D01*
X56073856Y-128485779D01*
X56070437Y-128508834D01*
X56064773Y-128531443D01*
X56056921Y-128553387D01*
X56046956Y-128574457D01*
X56034974Y-128594448D01*
X56021090Y-128613168D01*
X56005438Y-128630438D01*
X55988168Y-128646090D01*
X55969448Y-128659974D01*
X55949457Y-128671956D01*
X55928387Y-128681921D01*
X55906443Y-128689773D01*
X55883834Y-128695437D01*
X55860779Y-128698856D01*
X55837500Y-128700000D01*
X55362500Y-128700000D01*
X55339221Y-128698856D01*
X55316166Y-128695437D01*
X55293557Y-128689773D01*
X55271613Y-128681921D01*
X55250543Y-128671956D01*
X55230552Y-128659974D01*
X55211832Y-128646090D01*
X55194562Y-128630438D01*
X55178910Y-128613168D01*
X55165026Y-128594448D01*
X55153044Y-128574457D01*
X55143079Y-128553387D01*
X55135227Y-128531443D01*
X55129563Y-128508834D01*
X55126144Y-128485779D01*
X55125000Y-128462500D01*
X55125000Y-127887500D01*
X55126144Y-127864221D01*
X55129563Y-127841166D01*
X55135227Y-127818557D01*
X55143079Y-127796613D01*
X55153044Y-127775543D01*
X55165026Y-127755552D01*
X55178910Y-127736832D01*
X55194562Y-127719562D01*
X55211832Y-127703910D01*
X55230552Y-127690026D01*
X55250543Y-127678044D01*
X55271613Y-127668079D01*
X55293557Y-127660227D01*
X55316166Y-127654563D01*
X55339221Y-127651144D01*
X55362500Y-127650000D01*
X55837500Y-127650000D01*
X55860779Y-127651144D01*
X55860779Y-127651144D01*
G37*
D13*
X55600000Y-128175000D03*
D12*
G36*
X55860779Y-125901144D02*
X55883834Y-125904563D01*
X55906443Y-125910227D01*
X55928387Y-125918079D01*
X55949457Y-125928044D01*
X55969448Y-125940026D01*
X55988168Y-125953910D01*
X56005438Y-125969562D01*
X56021090Y-125986832D01*
X56034974Y-126005552D01*
X56046956Y-126025543D01*
X56056921Y-126046613D01*
X56064773Y-126068557D01*
X56070437Y-126091166D01*
X56073856Y-126114221D01*
X56075000Y-126137500D01*
X56075000Y-126712500D01*
X56073856Y-126735779D01*
X56070437Y-126758834D01*
X56064773Y-126781443D01*
X56056921Y-126803387D01*
X56046956Y-126824457D01*
X56034974Y-126844448D01*
X56021090Y-126863168D01*
X56005438Y-126880438D01*
X55988168Y-126896090D01*
X55969448Y-126909974D01*
X55949457Y-126921956D01*
X55928387Y-126931921D01*
X55906443Y-126939773D01*
X55883834Y-126945437D01*
X55860779Y-126948856D01*
X55837500Y-126950000D01*
X55362500Y-126950000D01*
X55339221Y-126948856D01*
X55316166Y-126945437D01*
X55293557Y-126939773D01*
X55271613Y-126931921D01*
X55250543Y-126921956D01*
X55230552Y-126909974D01*
X55211832Y-126896090D01*
X55194562Y-126880438D01*
X55178910Y-126863168D01*
X55165026Y-126844448D01*
X55153044Y-126824457D01*
X55143079Y-126803387D01*
X55135227Y-126781443D01*
X55129563Y-126758834D01*
X55126144Y-126735779D01*
X55125000Y-126712500D01*
X55125000Y-126137500D01*
X55126144Y-126114221D01*
X55129563Y-126091166D01*
X55135227Y-126068557D01*
X55143079Y-126046613D01*
X55153044Y-126025543D01*
X55165026Y-126005552D01*
X55178910Y-125986832D01*
X55194562Y-125969562D01*
X55211832Y-125953910D01*
X55230552Y-125940026D01*
X55250543Y-125928044D01*
X55271613Y-125918079D01*
X55293557Y-125910227D01*
X55316166Y-125904563D01*
X55339221Y-125901144D01*
X55362500Y-125900000D01*
X55837500Y-125900000D01*
X55860779Y-125901144D01*
X55860779Y-125901144D01*
G37*
D13*
X55600000Y-126425000D03*
G04 #@! TD*
D12*
G04 #@! TO.C,R8*
G36*
X58060779Y-132451144D02*
X58083834Y-132454563D01*
X58106443Y-132460227D01*
X58128387Y-132468079D01*
X58149457Y-132478044D01*
X58169448Y-132490026D01*
X58188168Y-132503910D01*
X58205438Y-132519562D01*
X58221090Y-132536832D01*
X58234974Y-132555552D01*
X58246956Y-132575543D01*
X58256921Y-132596613D01*
X58264773Y-132618557D01*
X58270437Y-132641166D01*
X58273856Y-132664221D01*
X58275000Y-132687500D01*
X58275000Y-133262500D01*
X58273856Y-133285779D01*
X58270437Y-133308834D01*
X58264773Y-133331443D01*
X58256921Y-133353387D01*
X58246956Y-133374457D01*
X58234974Y-133394448D01*
X58221090Y-133413168D01*
X58205438Y-133430438D01*
X58188168Y-133446090D01*
X58169448Y-133459974D01*
X58149457Y-133471956D01*
X58128387Y-133481921D01*
X58106443Y-133489773D01*
X58083834Y-133495437D01*
X58060779Y-133498856D01*
X58037500Y-133500000D01*
X57562500Y-133500000D01*
X57539221Y-133498856D01*
X57516166Y-133495437D01*
X57493557Y-133489773D01*
X57471613Y-133481921D01*
X57450543Y-133471956D01*
X57430552Y-133459974D01*
X57411832Y-133446090D01*
X57394562Y-133430438D01*
X57378910Y-133413168D01*
X57365026Y-133394448D01*
X57353044Y-133374457D01*
X57343079Y-133353387D01*
X57335227Y-133331443D01*
X57329563Y-133308834D01*
X57326144Y-133285779D01*
X57325000Y-133262500D01*
X57325000Y-132687500D01*
X57326144Y-132664221D01*
X57329563Y-132641166D01*
X57335227Y-132618557D01*
X57343079Y-132596613D01*
X57353044Y-132575543D01*
X57365026Y-132555552D01*
X57378910Y-132536832D01*
X57394562Y-132519562D01*
X57411832Y-132503910D01*
X57430552Y-132490026D01*
X57450543Y-132478044D01*
X57471613Y-132468079D01*
X57493557Y-132460227D01*
X57516166Y-132454563D01*
X57539221Y-132451144D01*
X57562500Y-132450000D01*
X58037500Y-132450000D01*
X58060779Y-132451144D01*
X58060779Y-132451144D01*
G37*
D13*
X57800000Y-132975000D03*
D12*
G36*
X58060779Y-130701144D02*
X58083834Y-130704563D01*
X58106443Y-130710227D01*
X58128387Y-130718079D01*
X58149457Y-130728044D01*
X58169448Y-130740026D01*
X58188168Y-130753910D01*
X58205438Y-130769562D01*
X58221090Y-130786832D01*
X58234974Y-130805552D01*
X58246956Y-130825543D01*
X58256921Y-130846613D01*
X58264773Y-130868557D01*
X58270437Y-130891166D01*
X58273856Y-130914221D01*
X58275000Y-130937500D01*
X58275000Y-131512500D01*
X58273856Y-131535779D01*
X58270437Y-131558834D01*
X58264773Y-131581443D01*
X58256921Y-131603387D01*
X58246956Y-131624457D01*
X58234974Y-131644448D01*
X58221090Y-131663168D01*
X58205438Y-131680438D01*
X58188168Y-131696090D01*
X58169448Y-131709974D01*
X58149457Y-131721956D01*
X58128387Y-131731921D01*
X58106443Y-131739773D01*
X58083834Y-131745437D01*
X58060779Y-131748856D01*
X58037500Y-131750000D01*
X57562500Y-131750000D01*
X57539221Y-131748856D01*
X57516166Y-131745437D01*
X57493557Y-131739773D01*
X57471613Y-131731921D01*
X57450543Y-131721956D01*
X57430552Y-131709974D01*
X57411832Y-131696090D01*
X57394562Y-131680438D01*
X57378910Y-131663168D01*
X57365026Y-131644448D01*
X57353044Y-131624457D01*
X57343079Y-131603387D01*
X57335227Y-131581443D01*
X57329563Y-131558834D01*
X57326144Y-131535779D01*
X57325000Y-131512500D01*
X57325000Y-130937500D01*
X57326144Y-130914221D01*
X57329563Y-130891166D01*
X57335227Y-130868557D01*
X57343079Y-130846613D01*
X57353044Y-130825543D01*
X57365026Y-130805552D01*
X57378910Y-130786832D01*
X57394562Y-130769562D01*
X57411832Y-130753910D01*
X57430552Y-130740026D01*
X57450543Y-130728044D01*
X57471613Y-130718079D01*
X57493557Y-130710227D01*
X57516166Y-130704563D01*
X57539221Y-130701144D01*
X57562500Y-130700000D01*
X58037500Y-130700000D01*
X58060779Y-130701144D01*
X58060779Y-130701144D01*
G37*
D13*
X57800000Y-131225000D03*
G04 #@! TD*
D12*
G04 #@! TO.C,R9*
G36*
X84351190Y-130210733D02*
X84374245Y-130214152D01*
X84396854Y-130219816D01*
X84418798Y-130227668D01*
X84439868Y-130237633D01*
X84459859Y-130249615D01*
X84478579Y-130263499D01*
X84495849Y-130279151D01*
X84511501Y-130296421D01*
X84525385Y-130315141D01*
X84537367Y-130335132D01*
X84547332Y-130356202D01*
X84555184Y-130378146D01*
X84560848Y-130400755D01*
X84564267Y-130423810D01*
X84565411Y-130447089D01*
X84565411Y-130922089D01*
X84564267Y-130945368D01*
X84560848Y-130968423D01*
X84555184Y-130991032D01*
X84547332Y-131012976D01*
X84537367Y-131034046D01*
X84525385Y-131054037D01*
X84511501Y-131072757D01*
X84495849Y-131090027D01*
X84478579Y-131105679D01*
X84459859Y-131119563D01*
X84439868Y-131131545D01*
X84418798Y-131141510D01*
X84396854Y-131149362D01*
X84374245Y-131155026D01*
X84351190Y-131158445D01*
X84327911Y-131159589D01*
X83752911Y-131159589D01*
X83729632Y-131158445D01*
X83706577Y-131155026D01*
X83683968Y-131149362D01*
X83662024Y-131141510D01*
X83640954Y-131131545D01*
X83620963Y-131119563D01*
X83602243Y-131105679D01*
X83584973Y-131090027D01*
X83569321Y-131072757D01*
X83555437Y-131054037D01*
X83543455Y-131034046D01*
X83533490Y-131012976D01*
X83525638Y-130991032D01*
X83519974Y-130968423D01*
X83516555Y-130945368D01*
X83515411Y-130922089D01*
X83515411Y-130447089D01*
X83516555Y-130423810D01*
X83519974Y-130400755D01*
X83525638Y-130378146D01*
X83533490Y-130356202D01*
X83543455Y-130335132D01*
X83555437Y-130315141D01*
X83569321Y-130296421D01*
X83584973Y-130279151D01*
X83602243Y-130263499D01*
X83620963Y-130249615D01*
X83640954Y-130237633D01*
X83662024Y-130227668D01*
X83683968Y-130219816D01*
X83706577Y-130214152D01*
X83729632Y-130210733D01*
X83752911Y-130209589D01*
X84327911Y-130209589D01*
X84351190Y-130210733D01*
X84351190Y-130210733D01*
G37*
D13*
X84040411Y-130684589D03*
D12*
G36*
X86101190Y-130210733D02*
X86124245Y-130214152D01*
X86146854Y-130219816D01*
X86168798Y-130227668D01*
X86189868Y-130237633D01*
X86209859Y-130249615D01*
X86228579Y-130263499D01*
X86245849Y-130279151D01*
X86261501Y-130296421D01*
X86275385Y-130315141D01*
X86287367Y-130335132D01*
X86297332Y-130356202D01*
X86305184Y-130378146D01*
X86310848Y-130400755D01*
X86314267Y-130423810D01*
X86315411Y-130447089D01*
X86315411Y-130922089D01*
X86314267Y-130945368D01*
X86310848Y-130968423D01*
X86305184Y-130991032D01*
X86297332Y-131012976D01*
X86287367Y-131034046D01*
X86275385Y-131054037D01*
X86261501Y-131072757D01*
X86245849Y-131090027D01*
X86228579Y-131105679D01*
X86209859Y-131119563D01*
X86189868Y-131131545D01*
X86168798Y-131141510D01*
X86146854Y-131149362D01*
X86124245Y-131155026D01*
X86101190Y-131158445D01*
X86077911Y-131159589D01*
X85502911Y-131159589D01*
X85479632Y-131158445D01*
X85456577Y-131155026D01*
X85433968Y-131149362D01*
X85412024Y-131141510D01*
X85390954Y-131131545D01*
X85370963Y-131119563D01*
X85352243Y-131105679D01*
X85334973Y-131090027D01*
X85319321Y-131072757D01*
X85305437Y-131054037D01*
X85293455Y-131034046D01*
X85283490Y-131012976D01*
X85275638Y-130991032D01*
X85269974Y-130968423D01*
X85266555Y-130945368D01*
X85265411Y-130922089D01*
X85265411Y-130447089D01*
X85266555Y-130423810D01*
X85269974Y-130400755D01*
X85275638Y-130378146D01*
X85283490Y-130356202D01*
X85293455Y-130335132D01*
X85305437Y-130315141D01*
X85319321Y-130296421D01*
X85334973Y-130279151D01*
X85352243Y-130263499D01*
X85370963Y-130249615D01*
X85390954Y-130237633D01*
X85412024Y-130227668D01*
X85433968Y-130219816D01*
X85456577Y-130214152D01*
X85479632Y-130210733D01*
X85502911Y-130209589D01*
X86077911Y-130209589D01*
X86101190Y-130210733D01*
X86101190Y-130210733D01*
G37*
D13*
X85790411Y-130684589D03*
G04 #@! TD*
D12*
G04 #@! TO.C,R10*
G36*
X61960779Y-130701144D02*
X61983834Y-130704563D01*
X62006443Y-130710227D01*
X62028387Y-130718079D01*
X62049457Y-130728044D01*
X62069448Y-130740026D01*
X62088168Y-130753910D01*
X62105438Y-130769562D01*
X62121090Y-130786832D01*
X62134974Y-130805552D01*
X62146956Y-130825543D01*
X62156921Y-130846613D01*
X62164773Y-130868557D01*
X62170437Y-130891166D01*
X62173856Y-130914221D01*
X62175000Y-130937500D01*
X62175000Y-131512500D01*
X62173856Y-131535779D01*
X62170437Y-131558834D01*
X62164773Y-131581443D01*
X62156921Y-131603387D01*
X62146956Y-131624457D01*
X62134974Y-131644448D01*
X62121090Y-131663168D01*
X62105438Y-131680438D01*
X62088168Y-131696090D01*
X62069448Y-131709974D01*
X62049457Y-131721956D01*
X62028387Y-131731921D01*
X62006443Y-131739773D01*
X61983834Y-131745437D01*
X61960779Y-131748856D01*
X61937500Y-131750000D01*
X61462500Y-131750000D01*
X61439221Y-131748856D01*
X61416166Y-131745437D01*
X61393557Y-131739773D01*
X61371613Y-131731921D01*
X61350543Y-131721956D01*
X61330552Y-131709974D01*
X61311832Y-131696090D01*
X61294562Y-131680438D01*
X61278910Y-131663168D01*
X61265026Y-131644448D01*
X61253044Y-131624457D01*
X61243079Y-131603387D01*
X61235227Y-131581443D01*
X61229563Y-131558834D01*
X61226144Y-131535779D01*
X61225000Y-131512500D01*
X61225000Y-130937500D01*
X61226144Y-130914221D01*
X61229563Y-130891166D01*
X61235227Y-130868557D01*
X61243079Y-130846613D01*
X61253044Y-130825543D01*
X61265026Y-130805552D01*
X61278910Y-130786832D01*
X61294562Y-130769562D01*
X61311832Y-130753910D01*
X61330552Y-130740026D01*
X61350543Y-130728044D01*
X61371613Y-130718079D01*
X61393557Y-130710227D01*
X61416166Y-130704563D01*
X61439221Y-130701144D01*
X61462500Y-130700000D01*
X61937500Y-130700000D01*
X61960779Y-130701144D01*
X61960779Y-130701144D01*
G37*
D13*
X61700000Y-131225000D03*
D12*
G36*
X61960779Y-132451144D02*
X61983834Y-132454563D01*
X62006443Y-132460227D01*
X62028387Y-132468079D01*
X62049457Y-132478044D01*
X62069448Y-132490026D01*
X62088168Y-132503910D01*
X62105438Y-132519562D01*
X62121090Y-132536832D01*
X62134974Y-132555552D01*
X62146956Y-132575543D01*
X62156921Y-132596613D01*
X62164773Y-132618557D01*
X62170437Y-132641166D01*
X62173856Y-132664221D01*
X62175000Y-132687500D01*
X62175000Y-133262500D01*
X62173856Y-133285779D01*
X62170437Y-133308834D01*
X62164773Y-133331443D01*
X62156921Y-133353387D01*
X62146956Y-133374457D01*
X62134974Y-133394448D01*
X62121090Y-133413168D01*
X62105438Y-133430438D01*
X62088168Y-133446090D01*
X62069448Y-133459974D01*
X62049457Y-133471956D01*
X62028387Y-133481921D01*
X62006443Y-133489773D01*
X61983834Y-133495437D01*
X61960779Y-133498856D01*
X61937500Y-133500000D01*
X61462500Y-133500000D01*
X61439221Y-133498856D01*
X61416166Y-133495437D01*
X61393557Y-133489773D01*
X61371613Y-133481921D01*
X61350543Y-133471956D01*
X61330552Y-133459974D01*
X61311832Y-133446090D01*
X61294562Y-133430438D01*
X61278910Y-133413168D01*
X61265026Y-133394448D01*
X61253044Y-133374457D01*
X61243079Y-133353387D01*
X61235227Y-133331443D01*
X61229563Y-133308834D01*
X61226144Y-133285779D01*
X61225000Y-133262500D01*
X61225000Y-132687500D01*
X61226144Y-132664221D01*
X61229563Y-132641166D01*
X61235227Y-132618557D01*
X61243079Y-132596613D01*
X61253044Y-132575543D01*
X61265026Y-132555552D01*
X61278910Y-132536832D01*
X61294562Y-132519562D01*
X61311832Y-132503910D01*
X61330552Y-132490026D01*
X61350543Y-132478044D01*
X61371613Y-132468079D01*
X61393557Y-132460227D01*
X61416166Y-132454563D01*
X61439221Y-132451144D01*
X61462500Y-132450000D01*
X61937500Y-132450000D01*
X61960779Y-132451144D01*
X61960779Y-132451144D01*
G37*
D13*
X61700000Y-132975000D03*
G04 #@! TD*
D12*
G04 #@! TO.C,R11*
G36*
X108235779Y-129626144D02*
X108258834Y-129629563D01*
X108281443Y-129635227D01*
X108303387Y-129643079D01*
X108324457Y-129653044D01*
X108344448Y-129665026D01*
X108363168Y-129678910D01*
X108380438Y-129694562D01*
X108396090Y-129711832D01*
X108409974Y-129730552D01*
X108421956Y-129750543D01*
X108431921Y-129771613D01*
X108439773Y-129793557D01*
X108445437Y-129816166D01*
X108448856Y-129839221D01*
X108450000Y-129862500D01*
X108450000Y-130337500D01*
X108448856Y-130360779D01*
X108445437Y-130383834D01*
X108439773Y-130406443D01*
X108431921Y-130428387D01*
X108421956Y-130449457D01*
X108409974Y-130469448D01*
X108396090Y-130488168D01*
X108380438Y-130505438D01*
X108363168Y-130521090D01*
X108344448Y-130534974D01*
X108324457Y-130546956D01*
X108303387Y-130556921D01*
X108281443Y-130564773D01*
X108258834Y-130570437D01*
X108235779Y-130573856D01*
X108212500Y-130575000D01*
X107637500Y-130575000D01*
X107614221Y-130573856D01*
X107591166Y-130570437D01*
X107568557Y-130564773D01*
X107546613Y-130556921D01*
X107525543Y-130546956D01*
X107505552Y-130534974D01*
X107486832Y-130521090D01*
X107469562Y-130505438D01*
X107453910Y-130488168D01*
X107440026Y-130469448D01*
X107428044Y-130449457D01*
X107418079Y-130428387D01*
X107410227Y-130406443D01*
X107404563Y-130383834D01*
X107401144Y-130360779D01*
X107400000Y-130337500D01*
X107400000Y-129862500D01*
X107401144Y-129839221D01*
X107404563Y-129816166D01*
X107410227Y-129793557D01*
X107418079Y-129771613D01*
X107428044Y-129750543D01*
X107440026Y-129730552D01*
X107453910Y-129711832D01*
X107469562Y-129694562D01*
X107486832Y-129678910D01*
X107505552Y-129665026D01*
X107525543Y-129653044D01*
X107546613Y-129643079D01*
X107568557Y-129635227D01*
X107591166Y-129629563D01*
X107614221Y-129626144D01*
X107637500Y-129625000D01*
X108212500Y-129625000D01*
X108235779Y-129626144D01*
X108235779Y-129626144D01*
G37*
D13*
X107925000Y-130100000D03*
D12*
G36*
X109985779Y-129626144D02*
X110008834Y-129629563D01*
X110031443Y-129635227D01*
X110053387Y-129643079D01*
X110074457Y-129653044D01*
X110094448Y-129665026D01*
X110113168Y-129678910D01*
X110130438Y-129694562D01*
X110146090Y-129711832D01*
X110159974Y-129730552D01*
X110171956Y-129750543D01*
X110181921Y-129771613D01*
X110189773Y-129793557D01*
X110195437Y-129816166D01*
X110198856Y-129839221D01*
X110200000Y-129862500D01*
X110200000Y-130337500D01*
X110198856Y-130360779D01*
X110195437Y-130383834D01*
X110189773Y-130406443D01*
X110181921Y-130428387D01*
X110171956Y-130449457D01*
X110159974Y-130469448D01*
X110146090Y-130488168D01*
X110130438Y-130505438D01*
X110113168Y-130521090D01*
X110094448Y-130534974D01*
X110074457Y-130546956D01*
X110053387Y-130556921D01*
X110031443Y-130564773D01*
X110008834Y-130570437D01*
X109985779Y-130573856D01*
X109962500Y-130575000D01*
X109387500Y-130575000D01*
X109364221Y-130573856D01*
X109341166Y-130570437D01*
X109318557Y-130564773D01*
X109296613Y-130556921D01*
X109275543Y-130546956D01*
X109255552Y-130534974D01*
X109236832Y-130521090D01*
X109219562Y-130505438D01*
X109203910Y-130488168D01*
X109190026Y-130469448D01*
X109178044Y-130449457D01*
X109168079Y-130428387D01*
X109160227Y-130406443D01*
X109154563Y-130383834D01*
X109151144Y-130360779D01*
X109150000Y-130337500D01*
X109150000Y-129862500D01*
X109151144Y-129839221D01*
X109154563Y-129816166D01*
X109160227Y-129793557D01*
X109168079Y-129771613D01*
X109178044Y-129750543D01*
X109190026Y-129730552D01*
X109203910Y-129711832D01*
X109219562Y-129694562D01*
X109236832Y-129678910D01*
X109255552Y-129665026D01*
X109275543Y-129653044D01*
X109296613Y-129643079D01*
X109318557Y-129635227D01*
X109341166Y-129629563D01*
X109364221Y-129626144D01*
X109387500Y-129625000D01*
X109962500Y-129625000D01*
X109985779Y-129626144D01*
X109985779Y-129626144D01*
G37*
D13*
X109675000Y-130100000D03*
G04 #@! TD*
D12*
G04 #@! TO.C,R13*
G36*
X134535779Y-120302227D02*
X134558834Y-120305646D01*
X134581443Y-120311310D01*
X134603387Y-120319162D01*
X134624457Y-120329127D01*
X134644448Y-120341109D01*
X134663168Y-120354993D01*
X134680438Y-120370645D01*
X134696090Y-120387915D01*
X134709974Y-120406635D01*
X134721956Y-120426626D01*
X134731921Y-120447696D01*
X134739773Y-120469640D01*
X134745437Y-120492249D01*
X134748856Y-120515304D01*
X134750000Y-120538583D01*
X134750000Y-121013583D01*
X134748856Y-121036862D01*
X134745437Y-121059917D01*
X134739773Y-121082526D01*
X134731921Y-121104470D01*
X134721956Y-121125540D01*
X134709974Y-121145531D01*
X134696090Y-121164251D01*
X134680438Y-121181521D01*
X134663168Y-121197173D01*
X134644448Y-121211057D01*
X134624457Y-121223039D01*
X134603387Y-121233004D01*
X134581443Y-121240856D01*
X134558834Y-121246520D01*
X134535779Y-121249939D01*
X134512500Y-121251083D01*
X133937500Y-121251083D01*
X133914221Y-121249939D01*
X133891166Y-121246520D01*
X133868557Y-121240856D01*
X133846613Y-121233004D01*
X133825543Y-121223039D01*
X133805552Y-121211057D01*
X133786832Y-121197173D01*
X133769562Y-121181521D01*
X133753910Y-121164251D01*
X133740026Y-121145531D01*
X133728044Y-121125540D01*
X133718079Y-121104470D01*
X133710227Y-121082526D01*
X133704563Y-121059917D01*
X133701144Y-121036862D01*
X133700000Y-121013583D01*
X133700000Y-120538583D01*
X133701144Y-120515304D01*
X133704563Y-120492249D01*
X133710227Y-120469640D01*
X133718079Y-120447696D01*
X133728044Y-120426626D01*
X133740026Y-120406635D01*
X133753910Y-120387915D01*
X133769562Y-120370645D01*
X133786832Y-120354993D01*
X133805552Y-120341109D01*
X133825543Y-120329127D01*
X133846613Y-120319162D01*
X133868557Y-120311310D01*
X133891166Y-120305646D01*
X133914221Y-120302227D01*
X133937500Y-120301083D01*
X134512500Y-120301083D01*
X134535779Y-120302227D01*
X134535779Y-120302227D01*
G37*
D13*
X134225000Y-120776083D03*
D12*
G36*
X136285779Y-120302227D02*
X136308834Y-120305646D01*
X136331443Y-120311310D01*
X136353387Y-120319162D01*
X136374457Y-120329127D01*
X136394448Y-120341109D01*
X136413168Y-120354993D01*
X136430438Y-120370645D01*
X136446090Y-120387915D01*
X136459974Y-120406635D01*
X136471956Y-120426626D01*
X136481921Y-120447696D01*
X136489773Y-120469640D01*
X136495437Y-120492249D01*
X136498856Y-120515304D01*
X136500000Y-120538583D01*
X136500000Y-121013583D01*
X136498856Y-121036862D01*
X136495437Y-121059917D01*
X136489773Y-121082526D01*
X136481921Y-121104470D01*
X136471956Y-121125540D01*
X136459974Y-121145531D01*
X136446090Y-121164251D01*
X136430438Y-121181521D01*
X136413168Y-121197173D01*
X136394448Y-121211057D01*
X136374457Y-121223039D01*
X136353387Y-121233004D01*
X136331443Y-121240856D01*
X136308834Y-121246520D01*
X136285779Y-121249939D01*
X136262500Y-121251083D01*
X135687500Y-121251083D01*
X135664221Y-121249939D01*
X135641166Y-121246520D01*
X135618557Y-121240856D01*
X135596613Y-121233004D01*
X135575543Y-121223039D01*
X135555552Y-121211057D01*
X135536832Y-121197173D01*
X135519562Y-121181521D01*
X135503910Y-121164251D01*
X135490026Y-121145531D01*
X135478044Y-121125540D01*
X135468079Y-121104470D01*
X135460227Y-121082526D01*
X135454563Y-121059917D01*
X135451144Y-121036862D01*
X135450000Y-121013583D01*
X135450000Y-120538583D01*
X135451144Y-120515304D01*
X135454563Y-120492249D01*
X135460227Y-120469640D01*
X135468079Y-120447696D01*
X135478044Y-120426626D01*
X135490026Y-120406635D01*
X135503910Y-120387915D01*
X135519562Y-120370645D01*
X135536832Y-120354993D01*
X135555552Y-120341109D01*
X135575543Y-120329127D01*
X135596613Y-120319162D01*
X135618557Y-120311310D01*
X135641166Y-120305646D01*
X135664221Y-120302227D01*
X135687500Y-120301083D01*
X136262500Y-120301083D01*
X136285779Y-120302227D01*
X136285779Y-120302227D01*
G37*
D13*
X135975000Y-120776083D03*
G04 #@! TD*
D12*
G04 #@! TO.C,R14*
G36*
X132835779Y-128126144D02*
X132858834Y-128129563D01*
X132881443Y-128135227D01*
X132903387Y-128143079D01*
X132924457Y-128153044D01*
X132944448Y-128165026D01*
X132963168Y-128178910D01*
X132980438Y-128194562D01*
X132996090Y-128211832D01*
X133009974Y-128230552D01*
X133021956Y-128250543D01*
X133031921Y-128271613D01*
X133039773Y-128293557D01*
X133045437Y-128316166D01*
X133048856Y-128339221D01*
X133050000Y-128362500D01*
X133050000Y-128837500D01*
X133048856Y-128860779D01*
X133045437Y-128883834D01*
X133039773Y-128906443D01*
X133031921Y-128928387D01*
X133021956Y-128949457D01*
X133009974Y-128969448D01*
X132996090Y-128988168D01*
X132980438Y-129005438D01*
X132963168Y-129021090D01*
X132944448Y-129034974D01*
X132924457Y-129046956D01*
X132903387Y-129056921D01*
X132881443Y-129064773D01*
X132858834Y-129070437D01*
X132835779Y-129073856D01*
X132812500Y-129075000D01*
X132237500Y-129075000D01*
X132214221Y-129073856D01*
X132191166Y-129070437D01*
X132168557Y-129064773D01*
X132146613Y-129056921D01*
X132125543Y-129046956D01*
X132105552Y-129034974D01*
X132086832Y-129021090D01*
X132069562Y-129005438D01*
X132053910Y-128988168D01*
X132040026Y-128969448D01*
X132028044Y-128949457D01*
X132018079Y-128928387D01*
X132010227Y-128906443D01*
X132004563Y-128883834D01*
X132001144Y-128860779D01*
X132000000Y-128837500D01*
X132000000Y-128362500D01*
X132001144Y-128339221D01*
X132004563Y-128316166D01*
X132010227Y-128293557D01*
X132018079Y-128271613D01*
X132028044Y-128250543D01*
X132040026Y-128230552D01*
X132053910Y-128211832D01*
X132069562Y-128194562D01*
X132086832Y-128178910D01*
X132105552Y-128165026D01*
X132125543Y-128153044D01*
X132146613Y-128143079D01*
X132168557Y-128135227D01*
X132191166Y-128129563D01*
X132214221Y-128126144D01*
X132237500Y-128125000D01*
X132812500Y-128125000D01*
X132835779Y-128126144D01*
X132835779Y-128126144D01*
G37*
D13*
X132525000Y-128600000D03*
D12*
G36*
X134585779Y-128126144D02*
X134608834Y-128129563D01*
X134631443Y-128135227D01*
X134653387Y-128143079D01*
X134674457Y-128153044D01*
X134694448Y-128165026D01*
X134713168Y-128178910D01*
X134730438Y-128194562D01*
X134746090Y-128211832D01*
X134759974Y-128230552D01*
X134771956Y-128250543D01*
X134781921Y-128271613D01*
X134789773Y-128293557D01*
X134795437Y-128316166D01*
X134798856Y-128339221D01*
X134800000Y-128362500D01*
X134800000Y-128837500D01*
X134798856Y-128860779D01*
X134795437Y-128883834D01*
X134789773Y-128906443D01*
X134781921Y-128928387D01*
X134771956Y-128949457D01*
X134759974Y-128969448D01*
X134746090Y-128988168D01*
X134730438Y-129005438D01*
X134713168Y-129021090D01*
X134694448Y-129034974D01*
X134674457Y-129046956D01*
X134653387Y-129056921D01*
X134631443Y-129064773D01*
X134608834Y-129070437D01*
X134585779Y-129073856D01*
X134562500Y-129075000D01*
X133987500Y-129075000D01*
X133964221Y-129073856D01*
X133941166Y-129070437D01*
X133918557Y-129064773D01*
X133896613Y-129056921D01*
X133875543Y-129046956D01*
X133855552Y-129034974D01*
X133836832Y-129021090D01*
X133819562Y-129005438D01*
X133803910Y-128988168D01*
X133790026Y-128969448D01*
X133778044Y-128949457D01*
X133768079Y-128928387D01*
X133760227Y-128906443D01*
X133754563Y-128883834D01*
X133751144Y-128860779D01*
X133750000Y-128837500D01*
X133750000Y-128362500D01*
X133751144Y-128339221D01*
X133754563Y-128316166D01*
X133760227Y-128293557D01*
X133768079Y-128271613D01*
X133778044Y-128250543D01*
X133790026Y-128230552D01*
X133803910Y-128211832D01*
X133819562Y-128194562D01*
X133836832Y-128178910D01*
X133855552Y-128165026D01*
X133875543Y-128153044D01*
X133896613Y-128143079D01*
X133918557Y-128135227D01*
X133941166Y-128129563D01*
X133964221Y-128126144D01*
X133987500Y-128125000D01*
X134562500Y-128125000D01*
X134585779Y-128126144D01*
X134585779Y-128126144D01*
G37*
D13*
X134275000Y-128600000D03*
G04 #@! TD*
D12*
G04 #@! TO.C,R15*
G36*
X134548182Y-131326144D02*
X134571237Y-131329563D01*
X134593846Y-131335227D01*
X134615790Y-131343079D01*
X134636860Y-131353044D01*
X134656851Y-131365026D01*
X134675571Y-131378910D01*
X134692841Y-131394562D01*
X134708493Y-131411832D01*
X134722377Y-131430552D01*
X134734359Y-131450543D01*
X134744324Y-131471613D01*
X134752176Y-131493557D01*
X134757840Y-131516166D01*
X134761259Y-131539221D01*
X134762403Y-131562500D01*
X134762403Y-132037500D01*
X134761259Y-132060779D01*
X134757840Y-132083834D01*
X134752176Y-132106443D01*
X134744324Y-132128387D01*
X134734359Y-132149457D01*
X134722377Y-132169448D01*
X134708493Y-132188168D01*
X134692841Y-132205438D01*
X134675571Y-132221090D01*
X134656851Y-132234974D01*
X134636860Y-132246956D01*
X134615790Y-132256921D01*
X134593846Y-132264773D01*
X134571237Y-132270437D01*
X134548182Y-132273856D01*
X134524903Y-132275000D01*
X133949903Y-132275000D01*
X133926624Y-132273856D01*
X133903569Y-132270437D01*
X133880960Y-132264773D01*
X133859016Y-132256921D01*
X133837946Y-132246956D01*
X133817955Y-132234974D01*
X133799235Y-132221090D01*
X133781965Y-132205438D01*
X133766313Y-132188168D01*
X133752429Y-132169448D01*
X133740447Y-132149457D01*
X133730482Y-132128387D01*
X133722630Y-132106443D01*
X133716966Y-132083834D01*
X133713547Y-132060779D01*
X133712403Y-132037500D01*
X133712403Y-131562500D01*
X133713547Y-131539221D01*
X133716966Y-131516166D01*
X133722630Y-131493557D01*
X133730482Y-131471613D01*
X133740447Y-131450543D01*
X133752429Y-131430552D01*
X133766313Y-131411832D01*
X133781965Y-131394562D01*
X133799235Y-131378910D01*
X133817955Y-131365026D01*
X133837946Y-131353044D01*
X133859016Y-131343079D01*
X133880960Y-131335227D01*
X133903569Y-131329563D01*
X133926624Y-131326144D01*
X133949903Y-131325000D01*
X134524903Y-131325000D01*
X134548182Y-131326144D01*
X134548182Y-131326144D01*
G37*
D13*
X134237403Y-131800000D03*
D12*
G36*
X132798182Y-131326144D02*
X132821237Y-131329563D01*
X132843846Y-131335227D01*
X132865790Y-131343079D01*
X132886860Y-131353044D01*
X132906851Y-131365026D01*
X132925571Y-131378910D01*
X132942841Y-131394562D01*
X132958493Y-131411832D01*
X132972377Y-131430552D01*
X132984359Y-131450543D01*
X132994324Y-131471613D01*
X133002176Y-131493557D01*
X133007840Y-131516166D01*
X133011259Y-131539221D01*
X133012403Y-131562500D01*
X133012403Y-132037500D01*
X133011259Y-132060779D01*
X133007840Y-132083834D01*
X133002176Y-132106443D01*
X132994324Y-132128387D01*
X132984359Y-132149457D01*
X132972377Y-132169448D01*
X132958493Y-132188168D01*
X132942841Y-132205438D01*
X132925571Y-132221090D01*
X132906851Y-132234974D01*
X132886860Y-132246956D01*
X132865790Y-132256921D01*
X132843846Y-132264773D01*
X132821237Y-132270437D01*
X132798182Y-132273856D01*
X132774903Y-132275000D01*
X132199903Y-132275000D01*
X132176624Y-132273856D01*
X132153569Y-132270437D01*
X132130960Y-132264773D01*
X132109016Y-132256921D01*
X132087946Y-132246956D01*
X132067955Y-132234974D01*
X132049235Y-132221090D01*
X132031965Y-132205438D01*
X132016313Y-132188168D01*
X132002429Y-132169448D01*
X131990447Y-132149457D01*
X131980482Y-132128387D01*
X131972630Y-132106443D01*
X131966966Y-132083834D01*
X131963547Y-132060779D01*
X131962403Y-132037500D01*
X131962403Y-131562500D01*
X131963547Y-131539221D01*
X131966966Y-131516166D01*
X131972630Y-131493557D01*
X131980482Y-131471613D01*
X131990447Y-131450543D01*
X132002429Y-131430552D01*
X132016313Y-131411832D01*
X132031965Y-131394562D01*
X132049235Y-131378910D01*
X132067955Y-131365026D01*
X132087946Y-131353044D01*
X132109016Y-131343079D01*
X132130960Y-131335227D01*
X132153569Y-131329563D01*
X132176624Y-131326144D01*
X132199903Y-131325000D01*
X132774903Y-131325000D01*
X132798182Y-131326144D01*
X132798182Y-131326144D01*
G37*
D13*
X132487403Y-131800000D03*
G04 #@! TD*
M02*
