M48
;DRILL file {KiCad (5.0.2)-1} date 2020/04/01 20:36:44
;FORMAT={-:-/ absolute / metric / decimal}
FMAT,2
METRIC,TZ
T1C0.400
T2C0.600
T3C0.700
T4C0.800
%
G90
G05
T1
X43.8Y-112.4
X46.2Y-112.3
X47.6Y-126.8
X49.2Y-111.3
X51.15Y-110.3
X51.4Y-112.8
X52.2Y-132.2
X53.3Y-117.9
X53.5Y-125.
X54.75Y-119.838
X55.7Y-120.5
X63.1Y-118.1
X64.1Y-118.4
X84.1Y-133.7
X108.7Y-122.5
T2
X119.634Y-88.1
X119.65Y-88.1
X121.65Y-88.1
X121.65Y-88.1
X98.984Y-126.2
X99.Y-126.2
X101.Y-126.2
X101.Y-126.2
X87.084Y-50.
X87.1Y-50.
X89.1Y-50.
X89.1Y-50.
X144.234Y-50.
X144.25Y-50.
X146.25Y-50.
X146.25Y-50.
X166.784Y-107.15
X166.8Y-107.15
X168.8Y-107.15
X168.8Y-107.15
X115.134Y-69.05
X115.15Y-69.05
X117.15Y-69.05
X117.15Y-69.05
X90.584Y-107.15
X90.6Y-107.15
X92.6Y-107.15
X92.6Y-107.15
X153.234Y-69.05
X153.25Y-69.05
X155.25Y-69.05
X155.25Y-69.05
X96.084Y-69.05
X96.1Y-69.05
X98.1Y-69.05
X98.1Y-69.05
X55.734Y-88.1
X55.75Y-88.1
X57.75Y-88.1
X57.75Y-88.1
X81.534Y-88.1
X81.55Y-88.1
X83.55Y-88.1
X83.55Y-88.1
X134.184Y-69.05
X134.2Y-69.05
X136.2Y-69.05
X136.2Y-69.05
X106.134Y-50.
X106.15Y-50.
X108.15Y-50.
X108.15Y-50.
X73.284Y-126.2
X73.3Y-126.2
X75.3Y-126.2
X75.3Y-126.2
X48.984Y-50.
X49.Y-50.
X51.Y-50.
X51.Y-50.
X141.984Y-126.2
X142.Y-126.2
X144.Y-126.2
X144.Y-126.2
X125.184Y-50.
X125.2Y-50.
X127.2Y-50.
X127.2Y-50.
X109.634Y-107.15
X109.65Y-107.15
X111.65Y-107.15
X111.65Y-107.15
X138.684Y-88.1
X138.7Y-88.1
X140.7Y-88.1
X140.7Y-88.1
X68.034Y-50.
X68.05Y-50.
X70.05Y-50.
X70.05Y-50.
X128.684Y-107.15
X128.7Y-107.15
X130.7Y-107.15
X130.7Y-107.15
X60.234Y-107.15
X60.25Y-107.15
X62.25Y-107.15
X62.25Y-107.15
X53.484Y-69.05
X53.5Y-69.05
X55.5Y-69.05
X55.5Y-69.05
X147.734Y-107.15
X147.75Y-107.15
X149.75Y-107.15
X149.75Y-107.15
X157.734Y-88.1
X157.75Y-88.1
X159.75Y-88.1
X159.75Y-88.1
X100.584Y-88.1
X100.6Y-88.1
X102.6Y-88.1
X102.6Y-88.1
X77.034Y-69.05
X77.05Y-69.05
X79.05Y-69.05
X79.05Y-69.05
T3
X123.1Y-117.8
X124.6Y-117.8
X126.1Y-117.8
X127.6Y-117.8
X129.1Y-117.8
X130.6Y-117.8
X112.2Y-117.9
X113.7Y-117.9
X115.2Y-117.9
X116.7Y-117.9
X118.2Y-117.9
X119.7Y-117.9
T4
X112.3Y-122.
X112.3Y-129.62
X114.84Y-122.
X114.84Y-129.62
X117.38Y-122.
X117.38Y-129.62
X119.92Y-122.
X119.92Y-129.62
X122.46Y-122.
X122.46Y-129.62
X125.Y-122.
X125.Y-129.62
X127.54Y-122.
X127.54Y-129.62
X130.08Y-122.
X130.08Y-129.62
T0
M30
