M48
;DRILL file {KiCad (5.0.2)-1} date 2020/05/18 13:04:31
;FORMAT={-:-/ absolute / inch / decimal}
FMAT,2
INCH,TZ
T1C0.0157
T2C0.0236
T3C0.0276
T4C0.0315
T5C0.0709
%
G90
G05
T1
X1.7244Y-4.4252
X1.8189Y-4.4213
X1.874Y-4.9921
X1.937Y-4.3819
X2.0138Y-4.3425
X2.0236Y-4.4409
X2.0551Y-5.2047
X2.0984Y-4.6417
X2.1063Y-4.9213
X2.1063Y-5.2815
X2.1555Y-4.718
X2.1929Y-4.7441
X2.2087Y-5.2362
X2.4843Y-4.6496
X2.5236Y-4.6614
X3.311Y-5.2638
X3.4291Y-5.0768
X4.2725Y-4.9203
T2
X4.71Y-3.4685
X4.7106Y-3.4685
X4.7894Y-3.4685
X4.7894Y-3.4685
X2.3714Y-4.2185
X2.372Y-4.2185
X2.4508Y-4.2185
X2.4508Y-4.2185
X3.7828Y-2.7185
X3.7835Y-2.7185
X3.8622Y-2.7185
X3.8622Y-2.7185
X4.9285Y-1.9685
X4.9291Y-1.9685
X5.0079Y-1.9685
X5.0079Y-1.9685
X6.21Y-3.4685
X6.2106Y-3.4685
X6.2894Y-3.4685
X6.2894Y-3.4685
X4.1785Y-1.9685
X4.1791Y-1.9685
X4.2579Y-1.9685
X4.2579Y-1.9685
X3.4285Y-1.9685
X3.4291Y-1.9685
X3.5079Y-1.9685
X3.5079Y-1.9685
X5.46Y-3.4685
X5.4606Y-3.4685
X5.5394Y-3.4685
X5.5394Y-3.4685
X3.21Y-3.4685
X3.2106Y-3.4685
X3.2894Y-3.4685
X3.2894Y-3.4685
X5.6785Y-1.9685
X5.6791Y-1.9685
X5.7579Y-1.9685
X5.7579Y-1.9685
X4.5328Y-2.7185
X4.5335Y-2.7185
X4.6122Y-2.7185
X4.6122Y-2.7185
X2.1057Y-2.7185
X2.1063Y-2.7185
X2.185Y-2.7185
X2.185Y-2.7185
X2.1943Y-3.4685
X2.1949Y-3.4685
X2.2736Y-3.4685
X2.2736Y-3.4685
X4.3163Y-4.2185
X4.3169Y-4.2185
X4.3957Y-4.2185
X4.3957Y-4.2185
X6.5663Y-4.2185
X6.5669Y-4.2185
X6.6457Y-4.2185
X6.6457Y-4.2185
X2.6785Y-1.9685
X2.6791Y-1.9685
X2.7579Y-1.9685
X2.7579Y-1.9685
X3.897Y-4.9685
X3.8976Y-4.9685
X3.9764Y-4.9685
X3.9764Y-4.9685
X3.5663Y-4.2185
X3.5669Y-4.2185
X3.6457Y-4.2185
X3.6457Y-4.2185
X5.2828Y-2.7185
X5.2835Y-2.7185
X5.3622Y-2.7185
X5.3622Y-2.7185
X1.9285Y-1.9685
X1.9291Y-1.9685
X2.0079Y-1.9685
X2.0079Y-1.9685
X3.0328Y-2.7185
X3.0335Y-2.7185
X3.1122Y-2.7185
X3.1122Y-2.7185
X5.8163Y-4.2185
X5.8169Y-4.2185
X5.8957Y-4.2185
X5.8957Y-4.2185
X5.5899Y-4.9685
X5.5906Y-4.9685
X5.6693Y-4.9685
X5.6693Y-4.9685
X6.0328Y-2.7185
X6.0335Y-2.7185
X6.1122Y-2.7185
X6.1122Y-2.7185
X5.0663Y-4.2185
X5.0669Y-4.2185
X5.1457Y-4.2185
X5.1457Y-4.2185
X2.8852Y-4.9685
X2.8858Y-4.9685
X2.9646Y-4.9685
X2.9646Y-4.9685
X3.96Y-3.4685
X3.9606Y-3.4685
X4.0394Y-3.4685
X4.0394Y-3.4685
T3
X4.8465Y-4.6378
X4.9055Y-4.6378
X4.9646Y-4.6378
X5.0236Y-4.6378
X5.0827Y-4.6378
X5.1417Y-4.6378
X4.4173Y-4.6417
X4.4764Y-4.6417
X4.5354Y-4.6417
X4.5945Y-4.6417
X4.6535Y-4.6417
X4.7126Y-4.6417
T4
X4.4213Y-4.8031
X4.4213Y-5.1031
X4.5213Y-4.8031
X4.5213Y-5.1031
X4.6213Y-4.8031
X4.6213Y-5.1031
X4.7213Y-4.8031
X4.7213Y-5.1031
X4.8213Y-4.8031
X4.8213Y-5.1031
X4.9213Y-4.8031
X4.9213Y-5.1031
X5.0213Y-4.8031
X5.0213Y-5.1031
X5.1213Y-4.8031
X5.1213Y-5.1031
T5
X4.6929Y-2.2441
X5.2441Y-1.6929
X5.9744Y-3.7441
X6.5256Y-3.1929
X3.9429Y-2.2441
X4.4941Y-1.6929
X3.1929Y-2.2441
X3.7441Y-1.6929
X5.2244Y-3.7441
X5.7756Y-3.1929
X2.9744Y-3.7441
X3.5256Y-3.1929
X5.4429Y-2.2441
X5.9941Y-1.6929
X4.2972Y-2.9941
X4.8484Y-2.4429
X1.8701Y-2.9941
X2.4213Y-2.4429
X1.9587Y-3.7441
X2.5098Y-3.1929
X4.0807Y-4.4941
X4.6319Y-3.9429
X6.3307Y-4.4941
X6.8819Y-3.9429
X2.4429Y-2.2441
X2.9941Y-1.6929
X3.6614Y-5.2441
X4.2126Y-4.6929
X3.3307Y-4.4941
X3.8819Y-3.9429
X5.0472Y-2.9941
X5.5984Y-2.4429
X1.6929Y-2.2441
X2.2441Y-1.6929
X2.7972Y-2.9941
X3.3484Y-2.4429
X5.5807Y-4.4941
X6.1319Y-3.9429
X5.3543Y-5.2441
X5.9055Y-4.6929
X5.7972Y-2.9941
X6.3484Y-2.4429
X4.8307Y-4.4941
X5.3819Y-3.9429
X2.6496Y-5.2441
X3.2008Y-4.6929
X3.7244Y-3.7441
X4.2756Y-3.1929
X4.4744Y-3.7441
X5.0256Y-3.1929
X2.1358Y-4.4941
X2.687Y-3.9429
X3.5472Y-2.9941
X4.0984Y-2.4429
T0
M30
