G04 #@! TF.GenerationSoftware,KiCad,Pcbnew,(5.0.2)-1*
G04 #@! TF.CreationDate,2020-03-09T19:04:08+09:00*
G04 #@! TF.ProjectId,eckeyboard,65636b65-7962-46f6-9172-642e6b696361,rev?*
G04 #@! TF.SameCoordinates,Original*
G04 #@! TF.FileFunction,Soldermask,Bot*
G04 #@! TF.FilePolarity,Negative*
%FSLAX46Y46*%
G04 Gerber Fmt 4.6, Leading zero omitted, Abs format (unit mm)*
G04 Created by KiCad (PCBNEW (5.0.2)-1) date 2020/03/09 19:04:08*
%MOMM*%
%LPD*%
G01*
G04 APERTURE LIST*
%ADD10C,0.100000*%
G04 APERTURE END LIST*
D10*
G36*
X115359747Y-75390921D02*
X115439376Y-75398764D01*
X115541543Y-75429756D01*
X115592628Y-75445252D01*
X115733865Y-75520745D01*
X115857659Y-75622341D01*
X115959255Y-75746135D01*
X116034748Y-75887372D01*
X116034748Y-75887373D01*
X116081236Y-76040624D01*
X116096933Y-76200000D01*
X116081236Y-76359376D01*
X116050244Y-76461543D01*
X116034748Y-76512628D01*
X115959255Y-76653865D01*
X115857659Y-76777659D01*
X115733865Y-76879255D01*
X115592628Y-76954748D01*
X115541543Y-76970244D01*
X115439376Y-77001236D01*
X115359747Y-77009079D01*
X115319934Y-77013000D01*
X112264066Y-77013000D01*
X112224253Y-77009079D01*
X112144624Y-77001236D01*
X112042457Y-76970244D01*
X111991372Y-76954748D01*
X111850135Y-76879255D01*
X111726341Y-76777659D01*
X111624745Y-76653865D01*
X111549252Y-76512628D01*
X111533756Y-76461543D01*
X111502764Y-76359376D01*
X111487067Y-76200000D01*
X111502764Y-76040624D01*
X111549252Y-75887373D01*
X111549252Y-75887372D01*
X111624745Y-75746135D01*
X111726341Y-75622341D01*
X111850135Y-75520745D01*
X111991372Y-75445252D01*
X112042457Y-75429756D01*
X112144624Y-75398764D01*
X112224253Y-75390921D01*
X112264066Y-75387000D01*
X115319934Y-75387000D01*
X115359747Y-75390921D01*
X115359747Y-75390921D01*
G37*
G36*
X94140721Y-74146174D02*
X94240995Y-74187709D01*
X94331245Y-74248012D01*
X94407988Y-74324755D01*
X94468291Y-74415005D01*
X94509826Y-74515279D01*
X94531000Y-74621730D01*
X94531000Y-74730270D01*
X94509826Y-74836721D01*
X94468291Y-74936995D01*
X94407988Y-75027245D01*
X94331245Y-75103988D01*
X94240995Y-75164291D01*
X94140721Y-75205826D01*
X94034270Y-75227000D01*
X93925730Y-75227000D01*
X93819279Y-75205826D01*
X93719005Y-75164291D01*
X93628755Y-75103988D01*
X93552012Y-75027245D01*
X93491709Y-74936995D01*
X93450174Y-74836721D01*
X93429000Y-74730270D01*
X93429000Y-74621730D01*
X93450174Y-74515279D01*
X93491709Y-74415005D01*
X93552012Y-74324755D01*
X93628755Y-74248012D01*
X93719005Y-74187709D01*
X93819279Y-74146174D01*
X93925730Y-74125000D01*
X94034270Y-74125000D01*
X94140721Y-74146174D01*
X94140721Y-74146174D01*
G37*
G36*
X115359747Y-72850921D02*
X115439376Y-72858764D01*
X115541543Y-72889756D01*
X115592628Y-72905252D01*
X115733865Y-72980745D01*
X115857659Y-73082341D01*
X115959255Y-73206135D01*
X116034748Y-73347372D01*
X116034748Y-73347373D01*
X116081236Y-73500624D01*
X116096933Y-73660000D01*
X116081236Y-73819376D01*
X116050244Y-73921543D01*
X116034748Y-73972628D01*
X115959255Y-74113865D01*
X115857659Y-74237659D01*
X115733865Y-74339255D01*
X115592628Y-74414748D01*
X115541543Y-74430244D01*
X115439376Y-74461236D01*
X115359747Y-74469079D01*
X115319934Y-74473000D01*
X112264066Y-74473000D01*
X112224253Y-74469079D01*
X112144624Y-74461236D01*
X112042457Y-74430244D01*
X111991372Y-74414748D01*
X111850135Y-74339255D01*
X111726341Y-74237659D01*
X111624745Y-74113865D01*
X111549252Y-73972628D01*
X111533756Y-73921543D01*
X111502764Y-73819376D01*
X111487067Y-73660000D01*
X111502764Y-73500624D01*
X111549252Y-73347373D01*
X111549252Y-73347372D01*
X111624745Y-73206135D01*
X111726341Y-73082341D01*
X111850135Y-72980745D01*
X111991372Y-72905252D01*
X112042457Y-72889756D01*
X112144624Y-72858764D01*
X112224253Y-72850921D01*
X112264066Y-72847000D01*
X115319934Y-72847000D01*
X115359747Y-72850921D01*
X115359747Y-72850921D01*
G37*
G36*
X94140721Y-72130174D02*
X94240995Y-72171709D01*
X94331245Y-72232012D01*
X94407988Y-72308755D01*
X94468291Y-72399005D01*
X94509826Y-72499279D01*
X94531000Y-72605730D01*
X94531000Y-72714270D01*
X94509826Y-72820721D01*
X94468291Y-72920995D01*
X94407988Y-73011245D01*
X94331245Y-73087988D01*
X94240995Y-73148291D01*
X94140721Y-73189826D01*
X94034270Y-73211000D01*
X93925730Y-73211000D01*
X93819279Y-73189826D01*
X93719005Y-73148291D01*
X93628755Y-73087988D01*
X93552012Y-73011245D01*
X93491709Y-72920995D01*
X93450174Y-72820721D01*
X93429000Y-72714270D01*
X93429000Y-72605730D01*
X93450174Y-72499279D01*
X93491709Y-72399005D01*
X93552012Y-72308755D01*
X93628755Y-72232012D01*
X93719005Y-72171709D01*
X93819279Y-72130174D01*
X93925730Y-72109000D01*
X94034270Y-72109000D01*
X94140721Y-72130174D01*
X94140721Y-72130174D01*
G37*
G36*
X115359747Y-70310921D02*
X115439376Y-70318764D01*
X115541543Y-70349756D01*
X115592628Y-70365252D01*
X115733865Y-70440745D01*
X115857659Y-70542341D01*
X115959255Y-70666135D01*
X116034748Y-70807372D01*
X116034748Y-70807373D01*
X116081236Y-70960624D01*
X116096933Y-71120000D01*
X116081236Y-71279376D01*
X116050244Y-71381543D01*
X116034748Y-71432628D01*
X115959255Y-71573865D01*
X115857659Y-71697659D01*
X115733865Y-71799255D01*
X115592628Y-71874748D01*
X115541543Y-71890244D01*
X115439376Y-71921236D01*
X115359747Y-71929079D01*
X115319934Y-71933000D01*
X112264066Y-71933000D01*
X112224253Y-71929079D01*
X112144624Y-71921236D01*
X112042457Y-71890244D01*
X111991372Y-71874748D01*
X111850135Y-71799255D01*
X111726341Y-71697659D01*
X111624745Y-71573865D01*
X111549252Y-71432628D01*
X111533756Y-71381543D01*
X111502764Y-71279376D01*
X111487067Y-71120000D01*
X111502764Y-70960624D01*
X111549252Y-70807373D01*
X111549252Y-70807372D01*
X111624745Y-70666135D01*
X111726341Y-70542341D01*
X111850135Y-70440745D01*
X111991372Y-70365252D01*
X112042457Y-70349756D01*
X112144624Y-70318764D01*
X112224253Y-70310921D01*
X112264066Y-70307000D01*
X115319934Y-70307000D01*
X115359747Y-70310921D01*
X115359747Y-70310921D01*
G37*
M02*
