G04 #@! TF.GenerationSoftware,KiCad,Pcbnew,(5.0.2)-1*
G04 #@! TF.CreationDate,2020-03-09T19:04:08+09:00*
G04 #@! TF.ProjectId,eckeyboard,65636b65-7962-46f6-9172-642e6b696361,rev?*
G04 #@! TF.SameCoordinates,Original*
G04 #@! TF.FileFunction,Legend,Bot*
G04 #@! TF.FilePolarity,Positive*
%FSLAX46Y46*%
G04 Gerber Fmt 4.6, Leading zero omitted, Abs format (unit mm)*
G04 Created by KiCad (PCBNEW (5.0.2)-1) date 2020/03/09 19:04:08*
%MOMM*%
%LPD*%
G01*
G04 APERTURE LIST*
%ADD10C,0.300000*%
%ADD11C,0.200000*%
%ADD12C,1.000000*%
G04 APERTURE END LIST*
D10*
X110721714Y-70904142D02*
X110778857Y-71075571D01*
X110778857Y-71361285D01*
X110721714Y-71475571D01*
X110664571Y-71532714D01*
X110550285Y-71589857D01*
X110436000Y-71589857D01*
X110321714Y-71532714D01*
X110264571Y-71475571D01*
X110207428Y-71361285D01*
X110150285Y-71132714D01*
X110093142Y-71018428D01*
X110036000Y-70961285D01*
X109921714Y-70904142D01*
X109807428Y-70904142D01*
X109693142Y-70961285D01*
X109636000Y-71018428D01*
X109578857Y-71132714D01*
X109578857Y-71418428D01*
X109636000Y-71589857D01*
X109636000Y-75412714D02*
X109578857Y-75298428D01*
X109578857Y-75127000D01*
X109636000Y-74955571D01*
X109750285Y-74841285D01*
X109864571Y-74784142D01*
X110093142Y-74727000D01*
X110264571Y-74727000D01*
X110493142Y-74784142D01*
X110607428Y-74841285D01*
X110721714Y-74955571D01*
X110778857Y-75127000D01*
X110778857Y-75241285D01*
X110721714Y-75412714D01*
X110664571Y-75469857D01*
X110264571Y-75469857D01*
X110264571Y-75241285D01*
X110778857Y-75984142D02*
X109578857Y-75984142D01*
X110778857Y-76669857D01*
X109578857Y-76669857D01*
X110778857Y-77241285D02*
X109578857Y-77241285D01*
X109578857Y-77527000D01*
X109636000Y-77698428D01*
X109750285Y-77812714D01*
X109864571Y-77869857D01*
X110093142Y-77927000D01*
X110264571Y-77927000D01*
X110493142Y-77869857D01*
X110607428Y-77812714D01*
X110721714Y-77698428D01*
X110778857Y-77527000D01*
X110778857Y-77241285D01*
X110778857Y-73650428D02*
X110207428Y-73250428D01*
X110778857Y-72964714D02*
X109578857Y-72964714D01*
X109578857Y-73421857D01*
X109636000Y-73536142D01*
X109693142Y-73593285D01*
X109807428Y-73650428D01*
X109978857Y-73650428D01*
X110093142Y-73593285D01*
X110150285Y-73536142D01*
X110207428Y-73421857D01*
X110207428Y-72964714D01*
D11*
X86283523Y-65174857D02*
X86235904Y-65127238D01*
X86093047Y-65079619D01*
X85997809Y-65079619D01*
X85854952Y-65127238D01*
X85759714Y-65222476D01*
X85712095Y-65317714D01*
X85664476Y-65508190D01*
X85664476Y-65651047D01*
X85712095Y-65841523D01*
X85759714Y-65936761D01*
X85854952Y-66032000D01*
X85997809Y-66079619D01*
X86093047Y-66079619D01*
X86235904Y-66032000D01*
X86283523Y-65984380D01*
X86712095Y-65079619D02*
X86712095Y-65746285D01*
X86712095Y-65555809D02*
X86759714Y-65651047D01*
X86807333Y-65698666D01*
X86902571Y-65746285D01*
X86997809Y-65746285D01*
X87712095Y-65127238D02*
X87616857Y-65079619D01*
X87426380Y-65079619D01*
X87331142Y-65127238D01*
X87283523Y-65222476D01*
X87283523Y-65603428D01*
X87331142Y-65698666D01*
X87426380Y-65746285D01*
X87616857Y-65746285D01*
X87712095Y-65698666D01*
X87759714Y-65603428D01*
X87759714Y-65508190D01*
X87283523Y-65412952D01*
X88616857Y-65079619D02*
X88616857Y-65603428D01*
X88569238Y-65698666D01*
X88474000Y-65746285D01*
X88283523Y-65746285D01*
X88188285Y-65698666D01*
X88616857Y-65127238D02*
X88521619Y-65079619D01*
X88283523Y-65079619D01*
X88188285Y-65127238D01*
X88140666Y-65222476D01*
X88140666Y-65317714D01*
X88188285Y-65412952D01*
X88283523Y-65460571D01*
X88521619Y-65460571D01*
X88616857Y-65508190D01*
X88950190Y-65746285D02*
X89331142Y-65746285D01*
X89093047Y-66079619D02*
X89093047Y-65222476D01*
X89140666Y-65127238D01*
X89235904Y-65079619D01*
X89331142Y-65079619D01*
X90045428Y-65127238D02*
X89950190Y-65079619D01*
X89759714Y-65079619D01*
X89664476Y-65127238D01*
X89616857Y-65222476D01*
X89616857Y-65603428D01*
X89664476Y-65698666D01*
X89759714Y-65746285D01*
X89950190Y-65746285D01*
X90045428Y-65698666D01*
X90093047Y-65603428D01*
X90093047Y-65508190D01*
X89616857Y-65412952D01*
X90950190Y-65079619D02*
X90950190Y-66079619D01*
X90950190Y-65127238D02*
X90854952Y-65079619D01*
X90664476Y-65079619D01*
X90569238Y-65127238D01*
X90521619Y-65174857D01*
X90474000Y-65270095D01*
X90474000Y-65555809D01*
X90521619Y-65651047D01*
X90569238Y-65698666D01*
X90664476Y-65746285D01*
X90854952Y-65746285D01*
X90950190Y-65698666D01*
X92188285Y-65079619D02*
X92188285Y-66079619D01*
X92188285Y-65698666D02*
X92283523Y-65746285D01*
X92474000Y-65746285D01*
X92569238Y-65698666D01*
X92616857Y-65651047D01*
X92664476Y-65555809D01*
X92664476Y-65270095D01*
X92616857Y-65174857D01*
X92569238Y-65127238D01*
X92474000Y-65079619D01*
X92283523Y-65079619D01*
X92188285Y-65127238D01*
X92997809Y-65746285D02*
X93235904Y-65079619D01*
X93474000Y-65746285D02*
X93235904Y-65079619D01*
X93140666Y-64841523D01*
X93093047Y-64793904D01*
X92997809Y-64746285D01*
X94521619Y-65746285D02*
X94759714Y-65079619D01*
X94997809Y-65746285D02*
X94759714Y-65079619D01*
X94664476Y-64841523D01*
X94616857Y-64793904D01*
X94521619Y-64746285D01*
X95807333Y-65079619D02*
X95807333Y-65603428D01*
X95759714Y-65698666D01*
X95664476Y-65746285D01*
X95474000Y-65746285D01*
X95378761Y-65698666D01*
X95807333Y-65127238D02*
X95712095Y-65079619D01*
X95474000Y-65079619D01*
X95378761Y-65127238D01*
X95331142Y-65222476D01*
X95331142Y-65317714D01*
X95378761Y-65412952D01*
X95474000Y-65460571D01*
X95712095Y-65460571D01*
X95807333Y-65508190D01*
X96283523Y-65079619D02*
X96283523Y-65746285D01*
X96283523Y-65651047D02*
X96331142Y-65698666D01*
X96426380Y-65746285D01*
X96569238Y-65746285D01*
X96664476Y-65698666D01*
X96712095Y-65603428D01*
X96712095Y-65079619D01*
X96712095Y-65603428D02*
X96759714Y-65698666D01*
X96854952Y-65746285D01*
X96997809Y-65746285D01*
X97093047Y-65698666D01*
X97140666Y-65603428D01*
X97140666Y-65079619D01*
X98045428Y-65079619D02*
X98045428Y-65603428D01*
X97997809Y-65698666D01*
X97902571Y-65746285D01*
X97712095Y-65746285D01*
X97616857Y-65698666D01*
X98045428Y-65127238D02*
X97950190Y-65079619D01*
X97712095Y-65079619D01*
X97616857Y-65127238D01*
X97569238Y-65222476D01*
X97569238Y-65317714D01*
X97616857Y-65412952D01*
X97712095Y-65460571D01*
X97950190Y-65460571D01*
X98045428Y-65508190D01*
X98521619Y-65079619D02*
X98521619Y-65746285D01*
X98521619Y-65651047D02*
X98569238Y-65698666D01*
X98664476Y-65746285D01*
X98807333Y-65746285D01*
X98902571Y-65698666D01*
X98950190Y-65603428D01*
X98950190Y-65079619D01*
X98950190Y-65603428D02*
X98997809Y-65698666D01*
X99093047Y-65746285D01*
X99235904Y-65746285D01*
X99331142Y-65698666D01*
X99378761Y-65603428D01*
X99378761Y-65079619D01*
X99997809Y-65079619D02*
X99902571Y-65127238D01*
X99854952Y-65174857D01*
X99807333Y-65270095D01*
X99807333Y-65555809D01*
X99854952Y-65651047D01*
X99902571Y-65698666D01*
X99997809Y-65746285D01*
X100140666Y-65746285D01*
X100235904Y-65698666D01*
X100283523Y-65651047D01*
X100331142Y-65555809D01*
X100331142Y-65270095D01*
X100283523Y-65174857D01*
X100235904Y-65127238D01*
X100140666Y-65079619D01*
X99997809Y-65079619D01*
X100616857Y-65746285D02*
X100997809Y-65746285D01*
X100759714Y-66079619D02*
X100759714Y-65222476D01*
X100807333Y-65127238D01*
X100902571Y-65079619D01*
X100997809Y-65079619D01*
X101283523Y-65127238D02*
X101378761Y-65079619D01*
X101569238Y-65079619D01*
X101664476Y-65127238D01*
X101712095Y-65222476D01*
X101712095Y-65270095D01*
X101664476Y-65365333D01*
X101569238Y-65412952D01*
X101426380Y-65412952D01*
X101331142Y-65460571D01*
X101283523Y-65555809D01*
X101283523Y-65603428D01*
X101331142Y-65698666D01*
X101426380Y-65746285D01*
X101569238Y-65746285D01*
X101664476Y-65698666D01*
X102569238Y-65746285D02*
X102569238Y-65079619D01*
X102140666Y-65746285D02*
X102140666Y-65222476D01*
X102188285Y-65127238D01*
X102283523Y-65079619D01*
X102426380Y-65079619D01*
X102521619Y-65127238D01*
X102569238Y-65174857D01*
X98158095Y-79938619D02*
X98158095Y-80605285D01*
X98158095Y-80414809D02*
X98205714Y-80510047D01*
X98253333Y-80557666D01*
X98348571Y-80605285D01*
X98443809Y-80605285D01*
X99158095Y-79986238D02*
X99062857Y-79938619D01*
X98872380Y-79938619D01*
X98777142Y-79986238D01*
X98729523Y-80081476D01*
X98729523Y-80462428D01*
X98777142Y-80557666D01*
X98872380Y-80605285D01*
X99062857Y-80605285D01*
X99158095Y-80557666D01*
X99205714Y-80462428D01*
X99205714Y-80367190D01*
X98729523Y-80271952D01*
X99539047Y-80605285D02*
X99777142Y-79938619D01*
X100015238Y-80605285D01*
X101681904Y-79938619D02*
X101110476Y-79938619D01*
X101396190Y-79938619D02*
X101396190Y-80938619D01*
X101300952Y-80795761D01*
X101205714Y-80700523D01*
X101110476Y-80652904D01*
X102110476Y-80033857D02*
X102158095Y-79986238D01*
X102110476Y-79938619D01*
X102062857Y-79986238D01*
X102110476Y-80033857D01*
X102110476Y-79938619D01*
X102777142Y-80938619D02*
X102872380Y-80938619D01*
X102967619Y-80891000D01*
X103015238Y-80843380D01*
X103062857Y-80748142D01*
X103110476Y-80557666D01*
X103110476Y-80319571D01*
X103062857Y-80129095D01*
X103015238Y-80033857D01*
X102967619Y-79986238D01*
X102872380Y-79938619D01*
X102777142Y-79938619D01*
X102681904Y-79986238D01*
X102634285Y-80033857D01*
X102586666Y-80129095D01*
X102539047Y-80319571D01*
X102539047Y-80557666D01*
X102586666Y-80748142D01*
X102634285Y-80843380D01*
X102681904Y-80891000D01*
X102777142Y-80938619D01*
X87094285Y-82127714D02*
X87494285Y-82127714D01*
X87665714Y-81499142D02*
X87094285Y-81499142D01*
X87094285Y-82699142D01*
X87665714Y-82699142D01*
X88865714Y-81613428D02*
X88808571Y-81556285D01*
X88637142Y-81499142D01*
X88522857Y-81499142D01*
X88351428Y-81556285D01*
X88237142Y-81670571D01*
X88180000Y-81784857D01*
X88122857Y-82013428D01*
X88122857Y-82184857D01*
X88180000Y-82413428D01*
X88237142Y-82527714D01*
X88351428Y-82642000D01*
X88522857Y-82699142D01*
X88637142Y-82699142D01*
X88808571Y-82642000D01*
X88865714Y-82584857D01*
X89322857Y-81556285D02*
X89494285Y-81499142D01*
X89780000Y-81499142D01*
X89894285Y-81556285D01*
X89951428Y-81613428D01*
X90008571Y-81727714D01*
X90008571Y-81842000D01*
X89951428Y-81956285D01*
X89894285Y-82013428D01*
X89780000Y-82070571D01*
X89551428Y-82127714D01*
X89437142Y-82184857D01*
X89380000Y-82242000D01*
X89322857Y-82356285D01*
X89322857Y-82470571D01*
X89380000Y-82584857D01*
X89437142Y-82642000D01*
X89551428Y-82699142D01*
X89837142Y-82699142D01*
X90008571Y-82642000D01*
X90408571Y-82299142D02*
X90637142Y-81499142D01*
X90865714Y-82070571D01*
X91094285Y-81499142D01*
X91322857Y-82299142D01*
X91780000Y-81499142D02*
X91780000Y-82299142D01*
X91780000Y-82699142D02*
X91722857Y-82642000D01*
X91780000Y-82584857D01*
X91837142Y-82642000D01*
X91780000Y-82699142D01*
X91780000Y-82584857D01*
X92180000Y-82299142D02*
X92637142Y-82299142D01*
X92351428Y-82699142D02*
X92351428Y-81670571D01*
X92408571Y-81556285D01*
X92522857Y-81499142D01*
X92637142Y-81499142D01*
X93551428Y-81556285D02*
X93437142Y-81499142D01*
X93208571Y-81499142D01*
X93094285Y-81556285D01*
X93037142Y-81613428D01*
X92979999Y-81727714D01*
X92979999Y-82070571D01*
X93037142Y-82184857D01*
X93094285Y-82242000D01*
X93208571Y-82299142D01*
X93437142Y-82299142D01*
X93551428Y-82242000D01*
X94065714Y-81499142D02*
X94065714Y-82699142D01*
X94579999Y-81499142D02*
X94579999Y-82127714D01*
X94522857Y-82242000D01*
X94408571Y-82299142D01*
X94237142Y-82299142D01*
X94122857Y-82242000D01*
X94065714Y-82184857D01*
X95894285Y-82699142D02*
X96579999Y-82699142D01*
X96237142Y-81499142D02*
X96237142Y-82699142D01*
X97437142Y-81556285D02*
X97322857Y-81499142D01*
X97094285Y-81499142D01*
X96979999Y-81556285D01*
X96922857Y-81670571D01*
X96922857Y-82127714D01*
X96979999Y-82242000D01*
X97094285Y-82299142D01*
X97322857Y-82299142D01*
X97437142Y-82242000D01*
X97494285Y-82127714D01*
X97494285Y-82013428D01*
X96922857Y-81899142D01*
X97951428Y-81556285D02*
X98065714Y-81499142D01*
X98294285Y-81499142D01*
X98408571Y-81556285D01*
X98465714Y-81670571D01*
X98465714Y-81727714D01*
X98408571Y-81842000D01*
X98294285Y-81899142D01*
X98122857Y-81899142D01*
X98008571Y-81956285D01*
X97951428Y-82070571D01*
X97951428Y-82127714D01*
X98008571Y-82242000D01*
X98122857Y-82299142D01*
X98294285Y-82299142D01*
X98408571Y-82242000D01*
X98808571Y-82299142D02*
X99265714Y-82299142D01*
X98979999Y-82699142D02*
X98979999Y-81670571D01*
X99037142Y-81556285D01*
X99151428Y-81499142D01*
X99265714Y-81499142D01*
X100122857Y-81556285D02*
X100008571Y-81499142D01*
X99779999Y-81499142D01*
X99665714Y-81556285D01*
X99608571Y-81670571D01*
X99608571Y-82127714D01*
X99665714Y-82242000D01*
X99779999Y-82299142D01*
X100008571Y-82299142D01*
X100122857Y-82242000D01*
X100179999Y-82127714D01*
X100179999Y-82013428D01*
X99608571Y-81899142D01*
X100694285Y-81499142D02*
X100694285Y-82299142D01*
X100694285Y-82070571D02*
X100751428Y-82184857D01*
X100808571Y-82242000D01*
X100922857Y-82299142D01*
X101037142Y-82299142D01*
D12*
G04 #@! TO.C,TP1*
X100480000Y-73660000D02*
G75*
G03X100480000Y-73660000I-6500000J0D01*
G01*
G04 #@! TD*
M02*
