M48
;DRILL file {KiCad (5.0.2)-1} date 2020/04/15 17:30:38
;FORMAT={-:-/ absolute / metric / decimal}
FMAT,2
METRIC,TZ
T1C0.400
T2C0.600
T3C0.700
T4C0.800
T5C1.800
%
G90
G05
T1
X85.3Y-58.45
X89.35Y-74.1
X90.85Y-57.75
X94.15Y-76.95
X94.3Y-84.05
X96.55Y-94.95
X99.05Y-76.95
X99.4Y-94.9
X103.1Y-98.4
X103.15Y-57.7
X103.55Y-95.55
X103.8Y-100.7
X104.65Y-134.3
X107.05Y-94.75
X109.4Y-57.75
X112.9Y-77.15
X116.1Y-95.65
X120.4Y-100.65
X120.45Y-77.15
X122.7Y-57.75
X126.6Y-134.25
X129.2Y-95.6
X129.55Y-57.7
X131.7Y-77.15
X136.4Y-134.1
X137.15Y-77.05
X137.2Y-122.4
X138.45Y-128.55
X140.6Y-100.5
X142.25Y-57.7
X144.45Y-95.45
X144.55Y-128.05
X145.55Y-134.95
X148.35Y-133.95
X149.75Y-57.7
X151.3Y-77.05
X152.Y-117.
X152.3Y-118.05
X154.6Y-118.95
X156.8Y-124.95
X158.094Y-127.681
X158.45Y-77.05
X159.6Y-119.1
X160.Y-100.5
X160.292Y-135.05
X160.7Y-57.7
X165.05Y-95.65
X167.6Y-57.7
X168.6Y-77.
X171.6Y-134.25
X176.5Y-77.
X179.3Y-57.65
X179.5Y-100.5
X186.15Y-95.55
X187.35Y-77.1
X187.55Y-57.7
X187.6Y-134.35
X195.4Y-77.15
X203.3Y-100.75
X204.55Y-95.65
X206.9Y-77.2
X211.65Y-123.3
X211.65Y-130.65
X212.083Y-119.55
X215.65Y-76.4
X217.6Y-57.4
X221.85Y-58.9
X227.2Y-100.85
X230.7Y-95.85
X232.05Y-77.05
X232.4Y-49.75
X233.25Y-53.35
X237.6Y-76.9
T2
X166.784Y-107.15
X166.8Y-107.15
X168.8Y-107.15
X168.8Y-107.15
X239.484Y-107.15
X239.5Y-107.15
X241.5Y-107.15
X241.5Y-107.15
X191.334Y-69.05
X191.35Y-69.05
X193.35Y-69.05
X193.35Y-69.05
X134.184Y-69.05
X134.2Y-69.05
X136.2Y-69.05
X136.2Y-69.05
X239.484Y-50.
X239.5Y-50.
X241.5Y-50.
X241.5Y-50.
X166.784Y-126.2
X166.8Y-126.2
X168.8Y-126.2
X168.8Y-126.2
X227.184Y-88.1
X227.2Y-88.1
X229.2Y-88.1
X229.2Y-88.1
X182.334Y-50.
X182.35Y-50.
X184.35Y-50.
X184.35Y-50.
X125.184Y-50.
X125.2Y-50.
X127.2Y-50.
X127.2Y-50.
X153.234Y-69.05
X153.25Y-69.05
X155.25Y-69.05
X155.25Y-69.05
X172.284Y-69.05
X172.3Y-69.05
X174.3Y-69.05
X174.3Y-69.05
X130.534Y-126.2
X130.55Y-126.2
X132.55Y-126.2
X132.55Y-126.2
X87.084Y-50.
X87.1Y-50.
X89.1Y-50.
X89.1Y-50.
X195.834Y-88.1
X195.85Y-88.1
X197.85Y-88.1
X197.85Y-88.1
X234.284Y-69.05
X234.3Y-69.05
X236.3Y-69.05
X236.3Y-69.05
X98.984Y-126.2
X99.Y-126.2
X101.Y-126.2
X101.Y-126.2
X128.684Y-107.15
X128.7Y-107.15
X130.7Y-107.15
X130.7Y-107.15
X96.084Y-69.05
X96.1Y-69.05
X98.1Y-69.05
X98.1Y-69.05
X100.584Y-88.1
X100.6Y-88.1
X102.6Y-88.1
X102.6Y-88.1
X144.234Y-50.
X144.25Y-50.
X146.25Y-50.
X146.25Y-50.
X147.734Y-107.15
X147.75Y-107.15
X149.75Y-107.15
X149.75Y-107.15
X191.334Y-126.2
X191.35Y-126.2
X193.35Y-126.2
X193.35Y-126.2
X106.134Y-50.
X106.15Y-50.
X108.15Y-50.
X108.15Y-50.
X201.384Y-50.
X201.4Y-50.
X203.4Y-50.
X203.4Y-50.
X163.284Y-50.
X163.3Y-50.
X165.3Y-50.
X165.3Y-50.
X185.834Y-107.15
X185.85Y-107.15
X187.85Y-107.15
X187.85Y-107.15
X212.734Y-107.15
X212.75Y-107.15
X214.75Y-107.15
X214.75Y-107.15
X119.634Y-88.1
X119.65Y-88.1
X121.65Y-88.1
X121.65Y-88.1
X115.134Y-69.05
X115.15Y-69.05
X117.15Y-69.05
X117.15Y-69.05
X157.734Y-88.1
X157.75Y-88.1
X159.75Y-88.1
X159.75Y-88.1
X176.784Y-88.1
X176.8Y-88.1
X178.8Y-88.1
X178.8Y-88.1
X138.684Y-88.1
X138.7Y-88.1
X140.7Y-88.1
X140.7Y-88.1
X220.434Y-50.
X220.45Y-50.
X222.45Y-50.
X222.45Y-50.
X109.634Y-107.15
X109.65Y-107.15
X111.65Y-107.15
X111.65Y-107.15
X210.384Y-69.05
X210.4Y-69.05
X212.4Y-69.05
X212.4Y-69.05
T3
X219.022Y-117.738
X220.522Y-117.738
X222.022Y-117.738
X223.522Y-117.738
X225.022Y-117.738
X226.522Y-117.738
X229.922Y-117.638
X231.422Y-117.638
X232.922Y-117.638
X234.422Y-117.638
X235.922Y-117.638
X237.422Y-117.638
T4
X219.2Y-123.15
X219.2Y-130.77
X221.74Y-123.15
X221.74Y-130.77
X224.28Y-123.15
X224.28Y-130.77
X226.82Y-123.15
X226.82Y-130.77
X229.36Y-123.15
X229.36Y-130.77
X231.9Y-123.15
X231.9Y-130.77
X234.44Y-123.15
X234.44Y-130.77
X236.98Y-123.15
X236.98Y-130.77
T5
X157.3Y-57.
X171.3Y-43.
X179.85Y-114.15
X193.85Y-100.15
X206.75Y-114.15
X220.75Y-100.15
X113.65Y-95.1
X127.65Y-81.1
X109.15Y-76.05
X123.15Y-62.05
X151.75Y-95.1
X165.75Y-81.1
X170.8Y-95.1
X184.8Y-81.1
X132.7Y-95.1
X146.7Y-81.1
X214.45Y-57.
X228.45Y-43.
X103.65Y-114.15
X117.65Y-100.15
X204.4Y-76.05
X218.4Y-62.05
X160.8Y-114.15
X174.8Y-100.15
X233.5Y-100.15
X247.5Y-114.15
X185.35Y-76.05
X199.35Y-62.05
X128.2Y-76.05
X142.2Y-62.05
X233.5Y-57.
X247.5Y-43.
X160.8Y-133.2
X174.8Y-119.2
X221.2Y-81.1
X235.2Y-95.1
X176.35Y-57.
X190.35Y-43.
X119.2Y-57.
X133.2Y-43.
X147.25Y-76.05
X161.25Y-62.05
X166.3Y-76.05
X180.3Y-62.05
X124.55Y-119.2
X138.55Y-133.2
X81.1Y-57.
X95.1Y-43.
X189.85Y-95.1
X203.85Y-81.1
X228.3Y-76.05
X242.3Y-62.05
X93.Y-119.2
X107.Y-133.2
X122.7Y-114.15
X136.7Y-100.15
X90.1Y-76.05
X104.1Y-62.05
X94.6Y-95.1
X108.6Y-81.1
X138.25Y-57.
X152.25Y-43.
X141.75Y-114.15
X155.75Y-100.15
X185.35Y-133.2
X199.35Y-119.2
X100.15Y-57.
X114.15Y-43.
X195.4Y-57.
X209.4Y-43.
T0
M30
