G04 #@! TF.GenerationSoftware,KiCad,Pcbnew,(5.0.2)-1*
G04 #@! TF.CreationDate,2020-04-15T17:30:32+09:00*
G04 #@! TF.ProjectId,eckeyboard,65636b65-7962-46f6-9172-642e6b696361,rev?*
G04 #@! TF.SameCoordinates,Original*
G04 #@! TF.FileFunction,Legend,Bot*
G04 #@! TF.FilePolarity,Positive*
%FSLAX46Y46*%
G04 Gerber Fmt 4.6, Leading zero omitted, Abs format (unit mm)*
G04 Created by KiCad (PCBNEW (5.0.2)-1) date 2020/04/15 17:30:32*
%MOMM*%
%LPD*%
G01*
G04 APERTURE LIST*
%ADD10C,0.200000*%
%ADD11C,0.120000*%
%ADD12C,0.150000*%
G04 APERTURE END LIST*
D10*
G04 #@! TO.C,TP31*
X222500000Y-81100000D02*
G75*
G03X222500000Y-81100000I-1300000J0D01*
G01*
X236500000Y-95100000D02*
G75*
G03X236500000Y-95100000I-1300000J0D01*
G01*
G04 #@! TO.C,TP32*
X234800000Y-100150000D02*
G75*
G03X234800000Y-100150000I-1300000J0D01*
G01*
X248800000Y-114150000D02*
G75*
G03X248800000Y-114150000I-1300000J0D01*
G01*
G04 #@! TO.C,TP13*
X125850000Y-119200000D02*
G75*
G03X125850000Y-119200000I-1300000J0D01*
G01*
X139850000Y-133200000D02*
G75*
G03X139850000Y-133200000I-1300000J0D01*
G01*
G04 #@! TO.C,TP11*
X94300000Y-119200000D02*
G75*
G03X94300000Y-119200000I-1300000J0D01*
G01*
X108300000Y-133200000D02*
G75*
G03X108300000Y-133200000I-1300000J0D01*
G01*
G04 #@! TO.C,TP16*
X148550000Y-76050000D02*
G75*
G03X148550000Y-76050000I-1300000J0D01*
G01*
X162550000Y-62050000D02*
G75*
G03X162550000Y-62050000I-1300000J0D01*
G01*
G04 #@! TO.C,TP23*
X181150000Y-114150000D02*
G75*
G03X181150000Y-114150000I-1300000J0D01*
G01*
X195150000Y-100150000D02*
G75*
G03X195150000Y-100150000I-1300000J0D01*
G01*
G04 #@! TO.C,TP22*
X172100000Y-95100000D02*
G75*
G03X172100000Y-95100000I-1300000J0D01*
G01*
X186100000Y-81100000D02*
G75*
G03X186100000Y-81100000I-1300000J0D01*
G01*
G04 #@! TO.C,TP21*
X167600000Y-76050000D02*
G75*
G03X167600000Y-76050000I-1300000J0D01*
G01*
X181600000Y-62050000D02*
G75*
G03X181600000Y-62050000I-1300000J0D01*
G01*
G04 #@! TO.C,TP20*
X158600000Y-57000000D02*
G75*
G03X158600000Y-57000000I-1300000J0D01*
G01*
X172600000Y-43000000D02*
G75*
G03X172600000Y-43000000I-1300000J0D01*
G01*
G04 #@! TO.C,TP19*
X162100000Y-133200000D02*
G75*
G03X162100000Y-133200000I-1300000J0D01*
G01*
X176100000Y-119200000D02*
G75*
G03X176100000Y-119200000I-1300000J0D01*
G01*
G04 #@! TO.C,TP18*
X162100000Y-114150000D02*
G75*
G03X162100000Y-114150000I-1300000J0D01*
G01*
X176100000Y-100150000D02*
G75*
G03X176100000Y-100150000I-1300000J0D01*
G01*
G04 #@! TO.C,TP17*
X153050000Y-95100000D02*
G75*
G03X153050000Y-95100000I-1300000J0D01*
G01*
X167050000Y-81100000D02*
G75*
G03X167050000Y-81100000I-1300000J0D01*
G01*
G04 #@! TO.C,TP15*
X139550000Y-57000000D02*
G75*
G03X139550000Y-57000000I-1300000J0D01*
G01*
X153550000Y-43000000D02*
G75*
G03X153550000Y-43000000I-1300000J0D01*
G01*
G04 #@! TO.C,TP35*
X229600000Y-76050000D02*
G75*
G03X229600000Y-76050000I-1300000J0D01*
G01*
X243600000Y-62050000D02*
G75*
G03X243600000Y-62050000I-1300000J0D01*
G01*
G04 #@! TO.C,TP34*
X234800000Y-57000000D02*
G75*
G03X234800000Y-57000000I-1300000J0D01*
G01*
X248800000Y-43000000D02*
G75*
G03X248800000Y-43000000I-1300000J0D01*
G01*
G04 #@! TO.C,TP33*
X215750000Y-57000000D02*
G75*
G03X215750000Y-57000000I-1300000J0D01*
G01*
X229750000Y-43000000D02*
G75*
G03X229750000Y-43000000I-1300000J0D01*
G01*
G04 #@! TO.C,TP30*
X205700000Y-76050000D02*
G75*
G03X205700000Y-76050000I-1300000J0D01*
G01*
X219700000Y-62050000D02*
G75*
G03X219700000Y-62050000I-1300000J0D01*
G01*
G04 #@! TO.C,TP29*
X196700000Y-57000000D02*
G75*
G03X196700000Y-57000000I-1300000J0D01*
G01*
X210700000Y-43000000D02*
G75*
G03X210700000Y-43000000I-1300000J0D01*
G01*
G04 #@! TO.C,TP28*
X186650000Y-133200000D02*
G75*
G03X186650000Y-133200000I-1300000J0D01*
G01*
X200650000Y-119200000D02*
G75*
G03X200650000Y-119200000I-1300000J0D01*
G01*
G04 #@! TO.C,TP12*
X124000000Y-114150000D02*
G75*
G03X124000000Y-114150000I-1300000J0D01*
G01*
X138000000Y-100150000D02*
G75*
G03X138000000Y-100150000I-1300000J0D01*
G01*
G04 #@! TO.C,TP10*
X104950000Y-114150000D02*
G75*
G03X104950000Y-114150000I-1300000J0D01*
G01*
X118950000Y-100150000D02*
G75*
G03X118950000Y-100150000I-1300000J0D01*
G01*
G04 #@! TO.C,TP6*
X114950000Y-95100000D02*
G75*
G03X114950000Y-95100000I-1300000J0D01*
G01*
X128950000Y-81100000D02*
G75*
G03X128950000Y-81100000I-1300000J0D01*
G01*
G04 #@! TO.C,TP5*
X110450000Y-76050000D02*
G75*
G03X110450000Y-76050000I-1300000J0D01*
G01*
X124450000Y-62050000D02*
G75*
G03X124450000Y-62050000I-1300000J0D01*
G01*
G04 #@! TO.C,TP4*
X101450000Y-57000000D02*
G75*
G03X101450000Y-57000000I-1300000J0D01*
G01*
X115450000Y-43000000D02*
G75*
G03X115450000Y-43000000I-1300000J0D01*
G01*
G04 #@! TO.C,TP3*
X95900000Y-95100000D02*
G75*
G03X95900000Y-95100000I-1300000J0D01*
G01*
X109900000Y-81100000D02*
G75*
G03X109900000Y-81100000I-1300000J0D01*
G01*
G04 #@! TO.C,TP2*
X91400000Y-76050000D02*
G75*
G03X91400000Y-76050000I-1300000J0D01*
G01*
X105400000Y-62050000D02*
G75*
G03X105400000Y-62050000I-1300000J0D01*
G01*
G04 #@! TO.C,TP1*
X82400000Y-57000000D02*
G75*
G03X82400000Y-57000000I-1300000J0D01*
G01*
X96400000Y-43000000D02*
G75*
G03X96400000Y-43000000I-1300000J0D01*
G01*
G04 #@! TO.C,TP27*
X208050000Y-114150000D02*
G75*
G03X208050000Y-114150000I-1300000J0D01*
G01*
X222050000Y-100150000D02*
G75*
G03X222050000Y-100150000I-1300000J0D01*
G01*
G04 #@! TO.C,TP24*
X177650000Y-57000000D02*
G75*
G03X177650000Y-57000000I-1300000J0D01*
G01*
X191650000Y-43000000D02*
G75*
G03X191650000Y-43000000I-1300000J0D01*
G01*
G04 #@! TO.C,TP26*
X191150000Y-95100000D02*
G75*
G03X191150000Y-95100000I-1300000J0D01*
G01*
X205150000Y-81100000D02*
G75*
G03X205150000Y-81100000I-1300000J0D01*
G01*
G04 #@! TO.C,TP25*
X186650000Y-76050000D02*
G75*
G03X186650000Y-76050000I-1300000J0D01*
G01*
X200650000Y-62050000D02*
G75*
G03X200650000Y-62050000I-1300000J0D01*
G01*
G04 #@! TO.C,TP7*
X120500000Y-57000000D02*
G75*
G03X120500000Y-57000000I-1300000J0D01*
G01*
X134500000Y-43000000D02*
G75*
G03X134500000Y-43000000I-1300000J0D01*
G01*
G04 #@! TO.C,TP8*
X129500000Y-76050000D02*
G75*
G03X129500000Y-76050000I-1300000J0D01*
G01*
X143500000Y-62050000D02*
G75*
G03X143500000Y-62050000I-1300000J0D01*
G01*
G04 #@! TO.C,TP9*
X134000000Y-95100000D02*
G75*
G03X134000000Y-95100000I-1300000J0D01*
G01*
X148000000Y-81100000D02*
G75*
G03X148000000Y-81100000I-1300000J0D01*
G01*
G04 #@! TO.C,TP14*
X143050000Y-114150000D02*
G75*
G03X143050000Y-114150000I-1300000J0D01*
G01*
X157050000Y-100150000D02*
G75*
G03X157050000Y-100150000I-1300000J0D01*
G01*
D11*
G04 #@! TO.C,C18*
X158810000Y-120046267D02*
X158810000Y-119703733D01*
X157790000Y-120046267D02*
X157790000Y-119703733D01*
G04 #@! TO.C,U1*
X151280677Y-128789650D02*
X150880677Y-128789650D01*
X150880677Y-128789650D02*
X150880677Y-130189650D01*
X151280677Y-128789650D02*
X151280677Y-123989650D01*
X140480677Y-128789650D02*
X140480677Y-123989650D01*
D12*
G04 #@! TO.C,U2*
X159555514Y-129222137D02*
X158900514Y-129222137D01*
X159555514Y-123722137D02*
X158805514Y-123722137D01*
X153145514Y-123722137D02*
X153895514Y-123722137D01*
X153145514Y-129222137D02*
X153895514Y-129222137D01*
X159555514Y-129222137D02*
X159555514Y-123722137D01*
X153145514Y-129222137D02*
X153145514Y-123722137D01*
X158900514Y-129222137D02*
X158900514Y-130972137D01*
D10*
G04 #@! TO.C,J4*
X228022000Y-119138000D02*
X228022000Y-117738000D01*
X217522000Y-119138000D02*
X228022000Y-119138000D01*
X217522000Y-117738000D02*
X217522000Y-119138000D01*
X228022000Y-113138000D02*
X228022000Y-117738000D01*
X217522000Y-113138000D02*
X228022000Y-113138000D01*
X217522000Y-117738000D02*
X217522000Y-113138000D01*
X228022000Y-117738000D02*
X217522000Y-117738000D01*
G04 #@! TO.C,J5*
X238922000Y-117638000D02*
X228422000Y-117638000D01*
X228422000Y-117638000D02*
X228422000Y-113038000D01*
X228422000Y-113038000D02*
X238922000Y-113038000D01*
X238922000Y-113038000D02*
X238922000Y-117638000D01*
X228422000Y-117638000D02*
X228422000Y-119038000D01*
X228422000Y-119038000D02*
X238922000Y-119038000D01*
X238922000Y-119038000D02*
X238922000Y-117638000D01*
D11*
G04 #@! TO.C,U4*
X217870000Y-127960000D02*
G75*
G03X217870000Y-125960000I0J1000000D01*
G01*
X217870000Y-125960000D02*
X217870000Y-124710000D01*
X217870000Y-124710000D02*
X238310000Y-124710000D01*
X238310000Y-124710000D02*
X238310000Y-129210000D01*
X238310000Y-129210000D02*
X217870000Y-129210000D01*
X217870000Y-129210000D02*
X217870000Y-127960000D01*
X217810000Y-121710000D02*
X238370000Y-121710000D01*
X238370000Y-121710000D02*
X238370000Y-132210000D01*
X238370000Y-132210000D02*
X217810000Y-132210000D01*
X217810000Y-132210000D02*
X217810000Y-121710000D01*
G04 #@! TO.C,C1*
X152726000Y-125051267D02*
X152726000Y-124708733D01*
X151706000Y-125051267D02*
X151706000Y-124708733D01*
G04 #@! TO.C,C17*
X150876000Y-120701267D02*
X150876000Y-120358733D01*
X149856000Y-120701267D02*
X149856000Y-120358733D01*
G04 #@! TO.C,R1*
X146976000Y-120701267D02*
X146976000Y-120358733D01*
X145956000Y-120701267D02*
X145956000Y-120358733D01*
G04 #@! TO.C,R2*
X147256000Y-120701267D02*
X147256000Y-120358733D01*
X148276000Y-120701267D02*
X148276000Y-120358733D01*
G04 #@! TO.C,R3*
X148556000Y-120701267D02*
X148556000Y-120358733D01*
X149576000Y-120701267D02*
X149576000Y-120358733D01*
G04 #@! TO.C,R4*
X145676000Y-120701267D02*
X145676000Y-120358733D01*
X144656000Y-120701267D02*
X144656000Y-120358733D01*
G04 #@! TO.C,R5*
X149856000Y-132108733D02*
X149856000Y-132451267D01*
X150876000Y-132108733D02*
X150876000Y-132451267D01*
G04 #@! TO.C,R6*
X147256000Y-132451267D02*
X147256000Y-132108733D01*
X148276000Y-132451267D02*
X148276000Y-132108733D01*
G04 #@! TO.C,R7*
X152726000Y-128551267D02*
X152726000Y-128208733D01*
X151706000Y-128551267D02*
X151706000Y-128208733D01*
G04 #@! TO.C,R8*
X154926000Y-133008733D02*
X154926000Y-133351267D01*
X153906000Y-133008733D02*
X153906000Y-133351267D01*
G04 #@! TO.C,R10*
X157806000Y-133008733D02*
X157806000Y-133351267D01*
X158826000Y-133008733D02*
X158826000Y-133351267D01*
G04 #@! TO.C,C18*
D12*
X160087142Y-119232142D02*
X160134761Y-119184523D01*
X160182380Y-119041666D01*
X160182380Y-118946428D01*
X160134761Y-118803571D01*
X160039523Y-118708333D01*
X159944285Y-118660714D01*
X159753809Y-118613095D01*
X159610952Y-118613095D01*
X159420476Y-118660714D01*
X159325238Y-118708333D01*
X159230000Y-118803571D01*
X159182380Y-118946428D01*
X159182380Y-119041666D01*
X159230000Y-119184523D01*
X159277619Y-119232142D01*
X160182380Y-120184523D02*
X160182380Y-119613095D01*
X160182380Y-119898809D02*
X159182380Y-119898809D01*
X159325238Y-119803571D01*
X159420476Y-119708333D01*
X159468095Y-119613095D01*
X159610952Y-120755952D02*
X159563333Y-120660714D01*
X159515714Y-120613095D01*
X159420476Y-120565476D01*
X159372857Y-120565476D01*
X159277619Y-120613095D01*
X159230000Y-120660714D01*
X159182380Y-120755952D01*
X159182380Y-120946428D01*
X159230000Y-121041666D01*
X159277619Y-121089285D01*
X159372857Y-121136904D01*
X159420476Y-121136904D01*
X159515714Y-121089285D01*
X159563333Y-121041666D01*
X159610952Y-120946428D01*
X159610952Y-120755952D01*
X159658571Y-120660714D01*
X159706190Y-120613095D01*
X159801428Y-120565476D01*
X159991904Y-120565476D01*
X160087142Y-120613095D01*
X160134761Y-120660714D01*
X160182380Y-120755952D01*
X160182380Y-120946428D01*
X160134761Y-121041666D01*
X160087142Y-121089285D01*
X159991904Y-121136904D01*
X159801428Y-121136904D01*
X159706190Y-121089285D01*
X159658571Y-121041666D01*
X159610952Y-120946428D01*
G04 #@! TO.C,U1*
X151533057Y-125627745D02*
X152342581Y-125627745D01*
X152437819Y-125675364D01*
X152485438Y-125722983D01*
X152533057Y-125818221D01*
X152533057Y-126008697D01*
X152485438Y-126103935D01*
X152437819Y-126151554D01*
X152342581Y-126199173D01*
X151533057Y-126199173D01*
X152533057Y-127199173D02*
X152533057Y-126627745D01*
X152533057Y-126913459D02*
X151533057Y-126913459D01*
X151675915Y-126818221D01*
X151771153Y-126722983D01*
X151818772Y-126627745D01*
G04 #@! TO.C,U2*
X159932894Y-125710232D02*
X160742418Y-125710232D01*
X160837656Y-125757851D01*
X160885275Y-125805470D01*
X160932894Y-125900708D01*
X160932894Y-126091184D01*
X160885275Y-126186422D01*
X160837656Y-126234041D01*
X160742418Y-126281660D01*
X159932894Y-126281660D01*
X160028133Y-126710232D02*
X159980514Y-126757851D01*
X159932894Y-126853089D01*
X159932894Y-127091184D01*
X159980514Y-127186422D01*
X160028133Y-127234041D01*
X160123371Y-127281660D01*
X160218609Y-127281660D01*
X160361466Y-127234041D01*
X160932894Y-126662613D01*
X160932894Y-127281660D01*
G04 #@! TO.C,J4*
X223855333Y-114690380D02*
X223855333Y-115404666D01*
X223902952Y-115547523D01*
X223998190Y-115642761D01*
X224141047Y-115690380D01*
X224236285Y-115690380D01*
X222950571Y-115023714D02*
X222950571Y-115690380D01*
X223188666Y-114642761D02*
X223426761Y-115357047D01*
X222807714Y-115357047D01*
G04 #@! TO.C,J5*
X234755333Y-114590380D02*
X234755333Y-115304666D01*
X234802952Y-115447523D01*
X234898190Y-115542761D01*
X235041047Y-115590380D01*
X235136285Y-115590380D01*
X233802952Y-114590380D02*
X234279142Y-114590380D01*
X234326761Y-115066571D01*
X234279142Y-115018952D01*
X234183904Y-114971333D01*
X233945809Y-114971333D01*
X233850571Y-115018952D01*
X233802952Y-115066571D01*
X233755333Y-115161809D01*
X233755333Y-115399904D01*
X233802952Y-115495142D01*
X233850571Y-115542761D01*
X233945809Y-115590380D01*
X234183904Y-115590380D01*
X234279142Y-115542761D01*
X234326761Y-115495142D01*
G04 #@! TO.C,U4*
X216322380Y-126198095D02*
X217131904Y-126198095D01*
X217227142Y-126245714D01*
X217274761Y-126293333D01*
X217322380Y-126388571D01*
X217322380Y-126579047D01*
X217274761Y-126674285D01*
X217227142Y-126721904D01*
X217131904Y-126769523D01*
X216322380Y-126769523D01*
X216655714Y-127674285D02*
X217322380Y-127674285D01*
X216274761Y-127436190D02*
X216989047Y-127198095D01*
X216989047Y-127817142D01*
G04 #@! TO.C,C1*
X154003142Y-124713333D02*
X154050761Y-124665714D01*
X154098380Y-124522857D01*
X154098380Y-124427619D01*
X154050761Y-124284761D01*
X153955523Y-124189523D01*
X153860285Y-124141904D01*
X153669809Y-124094285D01*
X153526952Y-124094285D01*
X153336476Y-124141904D01*
X153241238Y-124189523D01*
X153146000Y-124284761D01*
X153098380Y-124427619D01*
X153098380Y-124522857D01*
X153146000Y-124665714D01*
X153193619Y-124713333D01*
X154098380Y-125665714D02*
X154098380Y-125094285D01*
X154098380Y-125380000D02*
X153098380Y-125380000D01*
X153241238Y-125284761D01*
X153336476Y-125189523D01*
X153384095Y-125094285D01*
G04 #@! TO.C,C17*
X152153142Y-119887142D02*
X152200761Y-119839523D01*
X152248380Y-119696666D01*
X152248380Y-119601428D01*
X152200761Y-119458571D01*
X152105523Y-119363333D01*
X152010285Y-119315714D01*
X151819809Y-119268095D01*
X151676952Y-119268095D01*
X151486476Y-119315714D01*
X151391238Y-119363333D01*
X151296000Y-119458571D01*
X151248380Y-119601428D01*
X151248380Y-119696666D01*
X151296000Y-119839523D01*
X151343619Y-119887142D01*
X152248380Y-120839523D02*
X152248380Y-120268095D01*
X152248380Y-120553809D02*
X151248380Y-120553809D01*
X151391238Y-120458571D01*
X151486476Y-120363333D01*
X151534095Y-120268095D01*
X151248380Y-121172857D02*
X151248380Y-121839523D01*
X152248380Y-121410952D01*
G04 #@! TO.C,R1*
X148348380Y-120363333D02*
X147872190Y-120030000D01*
X148348380Y-119791904D02*
X147348380Y-119791904D01*
X147348380Y-120172857D01*
X147396000Y-120268095D01*
X147443619Y-120315714D01*
X147538857Y-120363333D01*
X147681714Y-120363333D01*
X147776952Y-120315714D01*
X147824571Y-120268095D01*
X147872190Y-120172857D01*
X147872190Y-119791904D01*
X148348380Y-121315714D02*
X148348380Y-120744285D01*
X148348380Y-121030000D02*
X147348380Y-121030000D01*
X147491238Y-120934761D01*
X147586476Y-120839523D01*
X147634095Y-120744285D01*
G04 #@! TO.C,R2*
X149648380Y-120363333D02*
X149172190Y-120030000D01*
X149648380Y-119791904D02*
X148648380Y-119791904D01*
X148648380Y-120172857D01*
X148696000Y-120268095D01*
X148743619Y-120315714D01*
X148838857Y-120363333D01*
X148981714Y-120363333D01*
X149076952Y-120315714D01*
X149124571Y-120268095D01*
X149172190Y-120172857D01*
X149172190Y-119791904D01*
X148743619Y-120744285D02*
X148696000Y-120791904D01*
X148648380Y-120887142D01*
X148648380Y-121125238D01*
X148696000Y-121220476D01*
X148743619Y-121268095D01*
X148838857Y-121315714D01*
X148934095Y-121315714D01*
X149076952Y-121268095D01*
X149648380Y-120696666D01*
X149648380Y-121315714D01*
G04 #@! TO.C,R3*
X150948380Y-120363333D02*
X150472190Y-120030000D01*
X150948380Y-119791904D02*
X149948380Y-119791904D01*
X149948380Y-120172857D01*
X149996000Y-120268095D01*
X150043619Y-120315714D01*
X150138857Y-120363333D01*
X150281714Y-120363333D01*
X150376952Y-120315714D01*
X150424571Y-120268095D01*
X150472190Y-120172857D01*
X150472190Y-119791904D01*
X149948380Y-120696666D02*
X149948380Y-121315714D01*
X150329333Y-120982380D01*
X150329333Y-121125238D01*
X150376952Y-121220476D01*
X150424571Y-121268095D01*
X150519809Y-121315714D01*
X150757904Y-121315714D01*
X150853142Y-121268095D01*
X150900761Y-121220476D01*
X150948380Y-121125238D01*
X150948380Y-120839523D01*
X150900761Y-120744285D01*
X150853142Y-120696666D01*
G04 #@! TO.C,R4*
X147048380Y-120363333D02*
X146572190Y-120030000D01*
X147048380Y-119791904D02*
X146048380Y-119791904D01*
X146048380Y-120172857D01*
X146096000Y-120268095D01*
X146143619Y-120315714D01*
X146238857Y-120363333D01*
X146381714Y-120363333D01*
X146476952Y-120315714D01*
X146524571Y-120268095D01*
X146572190Y-120172857D01*
X146572190Y-119791904D01*
X146381714Y-121220476D02*
X147048380Y-121220476D01*
X146000761Y-120982380D02*
X146715047Y-120744285D01*
X146715047Y-121363333D01*
G04 #@! TO.C,R5*
X149388380Y-132113333D02*
X148912190Y-131780000D01*
X149388380Y-131541904D02*
X148388380Y-131541904D01*
X148388380Y-131922857D01*
X148436000Y-132018095D01*
X148483619Y-132065714D01*
X148578857Y-132113333D01*
X148721714Y-132113333D01*
X148816952Y-132065714D01*
X148864571Y-132018095D01*
X148912190Y-131922857D01*
X148912190Y-131541904D01*
X148388380Y-133018095D02*
X148388380Y-132541904D01*
X148864571Y-132494285D01*
X148816952Y-132541904D01*
X148769333Y-132637142D01*
X148769333Y-132875238D01*
X148816952Y-132970476D01*
X148864571Y-133018095D01*
X148959809Y-133065714D01*
X149197904Y-133065714D01*
X149293142Y-133018095D01*
X149340761Y-132970476D01*
X149388380Y-132875238D01*
X149388380Y-132637142D01*
X149340761Y-132541904D01*
X149293142Y-132494285D01*
G04 #@! TO.C,R6*
X149648380Y-132113333D02*
X149172190Y-131780000D01*
X149648380Y-131541904D02*
X148648380Y-131541904D01*
X148648380Y-131922857D01*
X148696000Y-132018095D01*
X148743619Y-132065714D01*
X148838857Y-132113333D01*
X148981714Y-132113333D01*
X149076952Y-132065714D01*
X149124571Y-132018095D01*
X149172190Y-131922857D01*
X149172190Y-131541904D01*
X148648380Y-132970476D02*
X148648380Y-132780000D01*
X148696000Y-132684761D01*
X148743619Y-132637142D01*
X148886476Y-132541904D01*
X149076952Y-132494285D01*
X149457904Y-132494285D01*
X149553142Y-132541904D01*
X149600761Y-132589523D01*
X149648380Y-132684761D01*
X149648380Y-132875238D01*
X149600761Y-132970476D01*
X149553142Y-133018095D01*
X149457904Y-133065714D01*
X149219809Y-133065714D01*
X149124571Y-133018095D01*
X149076952Y-132970476D01*
X149029333Y-132875238D01*
X149029333Y-132684761D01*
X149076952Y-132589523D01*
X149124571Y-132541904D01*
X149219809Y-132494285D01*
G04 #@! TO.C,R7*
X154098380Y-128213333D02*
X153622190Y-127880000D01*
X154098380Y-127641904D02*
X153098380Y-127641904D01*
X153098380Y-128022857D01*
X153146000Y-128118095D01*
X153193619Y-128165714D01*
X153288857Y-128213333D01*
X153431714Y-128213333D01*
X153526952Y-128165714D01*
X153574571Y-128118095D01*
X153622190Y-128022857D01*
X153622190Y-127641904D01*
X153098380Y-128546666D02*
X153098380Y-129213333D01*
X154098380Y-128784761D01*
G04 #@! TO.C,R8*
X153438380Y-133013333D02*
X152962190Y-132680000D01*
X153438380Y-132441904D02*
X152438380Y-132441904D01*
X152438380Y-132822857D01*
X152486000Y-132918095D01*
X152533619Y-132965714D01*
X152628857Y-133013333D01*
X152771714Y-133013333D01*
X152866952Y-132965714D01*
X152914571Y-132918095D01*
X152962190Y-132822857D01*
X152962190Y-132441904D01*
X152866952Y-133584761D02*
X152819333Y-133489523D01*
X152771714Y-133441904D01*
X152676476Y-133394285D01*
X152628857Y-133394285D01*
X152533619Y-133441904D01*
X152486000Y-133489523D01*
X152438380Y-133584761D01*
X152438380Y-133775238D01*
X152486000Y-133870476D01*
X152533619Y-133918095D01*
X152628857Y-133965714D01*
X152676476Y-133965714D01*
X152771714Y-133918095D01*
X152819333Y-133870476D01*
X152866952Y-133775238D01*
X152866952Y-133584761D01*
X152914571Y-133489523D01*
X152962190Y-133441904D01*
X153057428Y-133394285D01*
X153247904Y-133394285D01*
X153343142Y-133441904D01*
X153390761Y-133489523D01*
X153438380Y-133584761D01*
X153438380Y-133775238D01*
X153390761Y-133870476D01*
X153343142Y-133918095D01*
X153247904Y-133965714D01*
X153057428Y-133965714D01*
X152962190Y-133918095D01*
X152914571Y-133870476D01*
X152866952Y-133775238D01*
G04 #@! TO.C,R10*
X157338380Y-132537142D02*
X156862190Y-132203809D01*
X157338380Y-131965714D02*
X156338380Y-131965714D01*
X156338380Y-132346666D01*
X156386000Y-132441904D01*
X156433619Y-132489523D01*
X156528857Y-132537142D01*
X156671714Y-132537142D01*
X156766952Y-132489523D01*
X156814571Y-132441904D01*
X156862190Y-132346666D01*
X156862190Y-131965714D01*
X157338380Y-133489523D02*
X157338380Y-132918095D01*
X157338380Y-133203809D02*
X156338380Y-133203809D01*
X156481238Y-133108571D01*
X156576476Y-133013333D01*
X156624095Y-132918095D01*
X156338380Y-134108571D02*
X156338380Y-134203809D01*
X156386000Y-134299047D01*
X156433619Y-134346666D01*
X156528857Y-134394285D01*
X156719333Y-134441904D01*
X156957428Y-134441904D01*
X157147904Y-134394285D01*
X157243142Y-134346666D01*
X157290761Y-134299047D01*
X157338380Y-134203809D01*
X157338380Y-134108571D01*
X157290761Y-134013333D01*
X157243142Y-133965714D01*
X157147904Y-133918095D01*
X156957428Y-133870476D01*
X156719333Y-133870476D01*
X156528857Y-133918095D01*
X156433619Y-133965714D01*
X156386000Y-134013333D01*
X156338380Y-134108571D01*
G04 #@! TD*
M02*
