G04 #@! TF.GenerationSoftware,KiCad,Pcbnew,(5.0.2)-1*
G04 #@! TF.CreationDate,2020-04-15T17:30:32+09:00*
G04 #@! TF.ProjectId,eckeyboard,65636b65-7962-46f6-9172-642e6b696361,rev?*
G04 #@! TF.SameCoordinates,Original*
G04 #@! TF.FileFunction,Copper,L2,Bot*
G04 #@! TF.FilePolarity,Positive*
%FSLAX46Y46*%
G04 Gerber Fmt 4.6, Leading zero omitted, Abs format (unit mm)*
G04 Created by KiCad (PCBNEW (5.0.2)-1) date 2020/04/15 17:30:32*
%MOMM*%
%LPD*%
G01*
G04 APERTURE LIST*
G04 #@! TA.AperFunction,ComponentPad*
%ADD10C,1.000000*%
G04 #@! TD*
G04 #@! TA.AperFunction,Conductor*
%ADD11C,0.100000*%
G04 #@! TD*
G04 #@! TA.AperFunction,SMDPad,CuDef*
%ADD12C,0.950000*%
G04 #@! TD*
G04 #@! TA.AperFunction,SMDPad,CuDef*
%ADD13R,0.800000X1.300000*%
G04 #@! TD*
G04 #@! TA.AperFunction,SMDPad,CuDef*
%ADD14R,0.550000X1.750000*%
G04 #@! TD*
G04 #@! TA.AperFunction,ComponentPad*
%ADD15O,1.200000X1.800000*%
G04 #@! TD*
G04 #@! TA.AperFunction,ComponentPad*
%ADD16R,1.200000X1.800000*%
G04 #@! TD*
G04 #@! TA.AperFunction,ComponentPad*
%ADD17R,1.600000X2.400000*%
G04 #@! TD*
G04 #@! TA.AperFunction,ComponentPad*
%ADD18O,1.600000X2.400000*%
G04 #@! TD*
G04 #@! TA.AperFunction,ViaPad*
%ADD19C,0.800000*%
G04 #@! TD*
G04 #@! TA.AperFunction,Conductor*
%ADD20C,0.500000*%
G04 #@! TD*
G04 #@! TA.AperFunction,Conductor*
%ADD21C,0.300000*%
G04 #@! TD*
G04 APERTURE END LIST*
D10*
G04 #@! TO.P,TP31,2*
G04 #@! TO.N,/ROW2*
X227184000Y-88100000D03*
G04 #@! TO.P,TP31,1*
G04 #@! TO.N,/COL6*
X229200000Y-88100000D03*
G04 #@! TD*
G04 #@! TO.P,TP32,2*
G04 #@! TO.N,/ROW3*
X239484000Y-107150000D03*
G04 #@! TO.P,TP32,1*
G04 #@! TO.N,/COL7*
X241500000Y-107150000D03*
G04 #@! TD*
G04 #@! TO.P,TP13,2*
G04 #@! TO.N,/ROW4*
X130534000Y-126200000D03*
G04 #@! TO.P,TP13,1*
G04 #@! TO.N,/COL1*
X132550000Y-126200000D03*
G04 #@! TD*
G04 #@! TO.P,TP11,2*
G04 #@! TO.N,/ROW4*
X98984000Y-126200000D03*
G04 #@! TO.P,TP11,1*
G04 #@! TO.N,/COL0*
X101000000Y-126200000D03*
G04 #@! TD*
G04 #@! TO.P,TP16,2*
G04 #@! TO.N,/ROW1*
X153234000Y-69050000D03*
G04 #@! TO.P,TP16,1*
G04 #@! TO.N,/COL3*
X155250000Y-69050000D03*
G04 #@! TD*
G04 #@! TO.P,TP23,2*
G04 #@! TO.N,/ROW3*
X185834000Y-107150000D03*
G04 #@! TO.P,TP23,1*
G04 #@! TO.N,/COL4*
X187850000Y-107150000D03*
G04 #@! TD*
G04 #@! TO.P,TP22,2*
G04 #@! TO.N,/ROW2*
X176784000Y-88100000D03*
G04 #@! TO.P,TP22,1*
G04 #@! TO.N,/COL4*
X178800000Y-88100000D03*
G04 #@! TD*
G04 #@! TO.P,TP21,2*
G04 #@! TO.N,/ROW1*
X172284000Y-69050000D03*
G04 #@! TO.P,TP21,1*
G04 #@! TO.N,/COL4*
X174300000Y-69050000D03*
G04 #@! TD*
G04 #@! TO.P,TP20,2*
G04 #@! TO.N,/ROW0*
X163284000Y-50000000D03*
G04 #@! TO.P,TP20,1*
G04 #@! TO.N,/COL4*
X165300000Y-50000000D03*
G04 #@! TD*
G04 #@! TO.P,TP19,2*
G04 #@! TO.N,/ROW4*
X166784000Y-126200000D03*
G04 #@! TO.P,TP19,1*
G04 #@! TO.N,/COL3*
X168800000Y-126200000D03*
G04 #@! TD*
G04 #@! TO.P,TP18,2*
G04 #@! TO.N,/ROW3*
X166784000Y-107150000D03*
G04 #@! TO.P,TP18,1*
G04 #@! TO.N,/COL3*
X168800000Y-107150000D03*
G04 #@! TD*
G04 #@! TO.P,TP17,2*
G04 #@! TO.N,/ROW2*
X157734000Y-88100000D03*
G04 #@! TO.P,TP17,1*
G04 #@! TO.N,/COL3*
X159750000Y-88100000D03*
G04 #@! TD*
G04 #@! TO.P,TP15,2*
G04 #@! TO.N,/ROW0*
X144234000Y-50000000D03*
G04 #@! TO.P,TP15,1*
G04 #@! TO.N,/COL3*
X146250000Y-50000000D03*
G04 #@! TD*
G04 #@! TO.P,TP35,2*
G04 #@! TO.N,/ROW2*
X234284000Y-69050000D03*
G04 #@! TO.P,TP35,1*
G04 #@! TO.N,/COL7*
X236300000Y-69050000D03*
G04 #@! TD*
G04 #@! TO.P,TP34,2*
G04 #@! TO.N,/ROW1*
X239484000Y-50000000D03*
G04 #@! TO.P,TP34,1*
G04 #@! TO.N,/COL7*
X241500000Y-50000000D03*
G04 #@! TD*
G04 #@! TO.P,TP33,2*
G04 #@! TO.N,/ROW0*
X220434000Y-50000000D03*
G04 #@! TO.P,TP33,1*
G04 #@! TO.N,/COL7*
X222450000Y-50000000D03*
G04 #@! TD*
G04 #@! TO.P,TP30,2*
G04 #@! TO.N,/ROW1*
X210384000Y-69050000D03*
G04 #@! TO.P,TP30,1*
G04 #@! TO.N,/COL6*
X212400000Y-69050000D03*
G04 #@! TD*
G04 #@! TO.P,TP29,2*
G04 #@! TO.N,/ROW0*
X201384000Y-50000000D03*
G04 #@! TO.P,TP29,1*
G04 #@! TO.N,/COL6*
X203400000Y-50000000D03*
G04 #@! TD*
G04 #@! TO.P,TP28,2*
G04 #@! TO.N,/ROW4*
X191334000Y-126200000D03*
G04 #@! TO.P,TP28,1*
G04 #@! TO.N,/COL4*
X193350000Y-126200000D03*
G04 #@! TD*
G04 #@! TO.P,TP12,2*
G04 #@! TO.N,/ROW3*
X128684000Y-107150000D03*
G04 #@! TO.P,TP12,1*
G04 #@! TO.N,/COL1*
X130700000Y-107150000D03*
G04 #@! TD*
G04 #@! TO.P,TP10,2*
G04 #@! TO.N,/ROW3*
X109634000Y-107150000D03*
G04 #@! TO.P,TP10,1*
G04 #@! TO.N,/COL0*
X111650000Y-107150000D03*
G04 #@! TD*
G04 #@! TO.P,TP6,2*
G04 #@! TO.N,/ROW2*
X119634000Y-88100000D03*
G04 #@! TO.P,TP6,1*
G04 #@! TO.N,/COL1*
X121650000Y-88100000D03*
G04 #@! TD*
G04 #@! TO.P,TP5,2*
G04 #@! TO.N,/ROW1*
X115134000Y-69050000D03*
G04 #@! TO.P,TP5,1*
G04 #@! TO.N,/COL1*
X117150000Y-69050000D03*
G04 #@! TD*
G04 #@! TO.P,TP4,2*
G04 #@! TO.N,/ROW0*
X106134000Y-50000000D03*
G04 #@! TO.P,TP4,1*
G04 #@! TO.N,/COL1*
X108150000Y-50000000D03*
G04 #@! TD*
G04 #@! TO.P,TP3,2*
G04 #@! TO.N,/ROW2*
X100584000Y-88100000D03*
G04 #@! TO.P,TP3,1*
G04 #@! TO.N,/COL0*
X102600000Y-88100000D03*
G04 #@! TD*
G04 #@! TO.P,TP2,2*
G04 #@! TO.N,/ROW1*
X96084000Y-69050000D03*
G04 #@! TO.P,TP2,1*
G04 #@! TO.N,/COL0*
X98100000Y-69050000D03*
G04 #@! TD*
G04 #@! TO.P,TP1,2*
G04 #@! TO.N,/ROW0*
X87084000Y-50000000D03*
G04 #@! TO.P,TP1,1*
G04 #@! TO.N,/COL0*
X89100000Y-50000000D03*
G04 #@! TD*
G04 #@! TO.P,TP27,2*
G04 #@! TO.N,/ROW3*
X212734000Y-107150000D03*
G04 #@! TO.P,TP27,1*
G04 #@! TO.N,/COL5*
X214750000Y-107150000D03*
G04 #@! TD*
G04 #@! TO.P,TP24,2*
G04 #@! TO.N,/ROW0*
X182334000Y-50000000D03*
G04 #@! TO.P,TP24,1*
G04 #@! TO.N,/COL5*
X184350000Y-50000000D03*
G04 #@! TD*
G04 #@! TO.P,TP26,2*
G04 #@! TO.N,/ROW2*
X195834000Y-88100000D03*
G04 #@! TO.P,TP26,1*
G04 #@! TO.N,/COL5*
X197850000Y-88100000D03*
G04 #@! TD*
G04 #@! TO.P,TP25,2*
G04 #@! TO.N,/ROW1*
X191334000Y-69050000D03*
G04 #@! TO.P,TP25,1*
G04 #@! TO.N,/COL5*
X193350000Y-69050000D03*
G04 #@! TD*
G04 #@! TO.P,TP7,2*
G04 #@! TO.N,/ROW0*
X125184000Y-50000000D03*
G04 #@! TO.P,TP7,1*
G04 #@! TO.N,/COL2*
X127200000Y-50000000D03*
G04 #@! TD*
G04 #@! TO.P,TP8,2*
G04 #@! TO.N,/ROW1*
X134184000Y-69050000D03*
G04 #@! TO.P,TP8,1*
G04 #@! TO.N,/COL2*
X136200000Y-69050000D03*
G04 #@! TD*
G04 #@! TO.P,TP9,2*
G04 #@! TO.N,/ROW2*
X138684000Y-88100000D03*
G04 #@! TO.P,TP9,1*
G04 #@! TO.N,/COL2*
X140700000Y-88100000D03*
G04 #@! TD*
G04 #@! TO.P,TP14,2*
G04 #@! TO.N,/ROW3*
X147734000Y-107150000D03*
G04 #@! TO.P,TP14,1*
G04 #@! TO.N,/COL2*
X149750000Y-107150000D03*
G04 #@! TD*
D11*
G04 #@! TO.N,+5V*
G04 #@! TO.C,C18*
G36*
X158560779Y-120226144D02*
X158583834Y-120229563D01*
X158606443Y-120235227D01*
X158628387Y-120243079D01*
X158649457Y-120253044D01*
X158669448Y-120265026D01*
X158688168Y-120278910D01*
X158705438Y-120294562D01*
X158721090Y-120311832D01*
X158734974Y-120330552D01*
X158746956Y-120350543D01*
X158756921Y-120371613D01*
X158764773Y-120393557D01*
X158770437Y-120416166D01*
X158773856Y-120439221D01*
X158775000Y-120462500D01*
X158775000Y-121037500D01*
X158773856Y-121060779D01*
X158770437Y-121083834D01*
X158764773Y-121106443D01*
X158756921Y-121128387D01*
X158746956Y-121149457D01*
X158734974Y-121169448D01*
X158721090Y-121188168D01*
X158705438Y-121205438D01*
X158688168Y-121221090D01*
X158669448Y-121234974D01*
X158649457Y-121246956D01*
X158628387Y-121256921D01*
X158606443Y-121264773D01*
X158583834Y-121270437D01*
X158560779Y-121273856D01*
X158537500Y-121275000D01*
X158062500Y-121275000D01*
X158039221Y-121273856D01*
X158016166Y-121270437D01*
X157993557Y-121264773D01*
X157971613Y-121256921D01*
X157950543Y-121246956D01*
X157930552Y-121234974D01*
X157911832Y-121221090D01*
X157894562Y-121205438D01*
X157878910Y-121188168D01*
X157865026Y-121169448D01*
X157853044Y-121149457D01*
X157843079Y-121128387D01*
X157835227Y-121106443D01*
X157829563Y-121083834D01*
X157826144Y-121060779D01*
X157825000Y-121037500D01*
X157825000Y-120462500D01*
X157826144Y-120439221D01*
X157829563Y-120416166D01*
X157835227Y-120393557D01*
X157843079Y-120371613D01*
X157853044Y-120350543D01*
X157865026Y-120330552D01*
X157878910Y-120311832D01*
X157894562Y-120294562D01*
X157911832Y-120278910D01*
X157930552Y-120265026D01*
X157950543Y-120253044D01*
X157971613Y-120243079D01*
X157993557Y-120235227D01*
X158016166Y-120229563D01*
X158039221Y-120226144D01*
X158062500Y-120225000D01*
X158537500Y-120225000D01*
X158560779Y-120226144D01*
X158560779Y-120226144D01*
G37*
D12*
G04 #@! TD*
G04 #@! TO.P,C18,1*
G04 #@! TO.N,+5V*
X158300000Y-120750000D03*
D11*
G04 #@! TO.N,GND*
G04 #@! TO.C,C18*
G36*
X158560779Y-118476144D02*
X158583834Y-118479563D01*
X158606443Y-118485227D01*
X158628387Y-118493079D01*
X158649457Y-118503044D01*
X158669448Y-118515026D01*
X158688168Y-118528910D01*
X158705438Y-118544562D01*
X158721090Y-118561832D01*
X158734974Y-118580552D01*
X158746956Y-118600543D01*
X158756921Y-118621613D01*
X158764773Y-118643557D01*
X158770437Y-118666166D01*
X158773856Y-118689221D01*
X158775000Y-118712500D01*
X158775000Y-119287500D01*
X158773856Y-119310779D01*
X158770437Y-119333834D01*
X158764773Y-119356443D01*
X158756921Y-119378387D01*
X158746956Y-119399457D01*
X158734974Y-119419448D01*
X158721090Y-119438168D01*
X158705438Y-119455438D01*
X158688168Y-119471090D01*
X158669448Y-119484974D01*
X158649457Y-119496956D01*
X158628387Y-119506921D01*
X158606443Y-119514773D01*
X158583834Y-119520437D01*
X158560779Y-119523856D01*
X158537500Y-119525000D01*
X158062500Y-119525000D01*
X158039221Y-119523856D01*
X158016166Y-119520437D01*
X157993557Y-119514773D01*
X157971613Y-119506921D01*
X157950543Y-119496956D01*
X157930552Y-119484974D01*
X157911832Y-119471090D01*
X157894562Y-119455438D01*
X157878910Y-119438168D01*
X157865026Y-119419448D01*
X157853044Y-119399457D01*
X157843079Y-119378387D01*
X157835227Y-119356443D01*
X157829563Y-119333834D01*
X157826144Y-119310779D01*
X157825000Y-119287500D01*
X157825000Y-118712500D01*
X157826144Y-118689221D01*
X157829563Y-118666166D01*
X157835227Y-118643557D01*
X157843079Y-118621613D01*
X157853044Y-118600543D01*
X157865026Y-118580552D01*
X157878910Y-118561832D01*
X157894562Y-118544562D01*
X157911832Y-118528910D01*
X157930552Y-118515026D01*
X157950543Y-118503044D01*
X157971613Y-118493079D01*
X157993557Y-118485227D01*
X158016166Y-118479563D01*
X158039221Y-118476144D01*
X158062500Y-118475000D01*
X158537500Y-118475000D01*
X158560779Y-118476144D01*
X158560779Y-118476144D01*
G37*
D12*
G04 #@! TD*
G04 #@! TO.P,C18,2*
G04 #@! TO.N,GND*
X158300000Y-119000000D03*
D13*
G04 #@! TO.P,U1,1*
G04 #@! TO.N,/ROW4*
X150330677Y-129539650D03*
G04 #@! TO.P,U1,2*
G04 #@! TO.N,GND*
X149050677Y-129539650D03*
G04 #@! TO.P,U1,3*
G04 #@! TO.N,Net-(C1-Pad1)*
X147790677Y-129539650D03*
G04 #@! TO.P,U1,4*
G04 #@! TO.N,GND*
X146520677Y-129539650D03*
G04 #@! TO.P,U1,5*
X145240677Y-129539650D03*
G04 #@! TO.P,U1,6*
G04 #@! TO.N,/MUX_EN*
X143970677Y-129539650D03*
G04 #@! TO.P,U1,7*
G04 #@! TO.N,GND*
X142710677Y-129539650D03*
G04 #@! TO.P,U1,8*
X141430677Y-129539650D03*
G04 #@! TO.P,U1,9*
G04 #@! TO.N,/MUX_A*
X141430677Y-123239650D03*
G04 #@! TO.P,U1,10*
G04 #@! TO.N,/MUX_B*
X142710677Y-123239650D03*
G04 #@! TO.P,U1,11*
G04 #@! TO.N,/MUX_C*
X143970677Y-123239650D03*
G04 #@! TO.P,U1,12*
G04 #@! TO.N,/ROW3*
X145240677Y-123239650D03*
G04 #@! TO.P,U1,13*
G04 #@! TO.N,/ROW2*
X146520677Y-123239650D03*
G04 #@! TO.P,U1,14*
G04 #@! TO.N,/ROW1*
X147790677Y-123239650D03*
G04 #@! TO.P,U1,15*
G04 #@! TO.N,/ROW0*
X149050677Y-123239650D03*
G04 #@! TO.P,U1,16*
G04 #@! TO.N,+5V*
X150330677Y-123239650D03*
G04 #@! TD*
D14*
G04 #@! TO.P,U2,1*
G04 #@! TO.N,/READ*
X158255514Y-130172137D03*
G04 #@! TO.P,U2,2*
G04 #@! TO.N,Net-(R7-Pad1)*
X156985514Y-130172137D03*
G04 #@! TO.P,U2,3*
G04 #@! TO.N,Net-(R10-Pad2)*
X155715514Y-130172137D03*
G04 #@! TO.P,U2,4*
G04 #@! TO.N,GND*
X154445514Y-130172137D03*
G04 #@! TO.P,U2,5*
X154445514Y-122772137D03*
G04 #@! TO.P,U2,6*
X155715514Y-122772137D03*
G04 #@! TO.P,U2,7*
G04 #@! TO.N,N/C*
X156985514Y-122772137D03*
G04 #@! TO.P,U2,8*
G04 #@! TO.N,+5V*
X158255514Y-122772137D03*
G04 #@! TD*
D15*
G04 #@! TO.P,J4,6*
G04 #@! TO.N,+5V*
X226522000Y-117738000D03*
G04 #@! TO.P,J4,5*
G04 #@! TO.N,/MUX_A*
X225022000Y-117738000D03*
G04 #@! TO.P,J4,4*
G04 #@! TO.N,/MUX_B*
X223522000Y-117738000D03*
G04 #@! TO.P,J4,3*
G04 #@! TO.N,/MUX_C*
X222022000Y-117738000D03*
G04 #@! TO.P,J4,2*
G04 #@! TO.N,/MUX_EN*
X220522000Y-117738000D03*
D16*
G04 #@! TO.P,J4,1*
G04 #@! TO.N,/DRAIN*
X219022000Y-117738000D03*
G04 #@! TD*
G04 #@! TO.P,J5,1*
G04 #@! TO.N,GND*
X229922000Y-117638000D03*
D15*
G04 #@! TO.P,J5,2*
G04 #@! TO.N,/READ*
X231422000Y-117638000D03*
G04 #@! TO.P,J5,3*
G04 #@! TO.N,/COL_EN*
X232922000Y-117638000D03*
G04 #@! TO.P,J5,4*
G04 #@! TO.N,/COL_C*
X234422000Y-117638000D03*
G04 #@! TO.P,J5,5*
G04 #@! TO.N,/COL_B*
X235922000Y-117638000D03*
G04 #@! TO.P,J5,6*
G04 #@! TO.N,/COL_A*
X237422000Y-117638000D03*
G04 #@! TD*
D17*
G04 #@! TO.P,U4,1*
G04 #@! TO.N,/COL_A*
X219200000Y-123150000D03*
D18*
G04 #@! TO.P,U4,9*
G04 #@! TO.N,/COL6*
X236980000Y-130770000D03*
G04 #@! TO.P,U4,2*
G04 #@! TO.N,/COL_B*
X221740000Y-123150000D03*
G04 #@! TO.P,U4,10*
G04 #@! TO.N,/COL5*
X234440000Y-130770000D03*
G04 #@! TO.P,U4,3*
G04 #@! TO.N,/COL_C*
X224280000Y-123150000D03*
G04 #@! TO.P,U4,11*
G04 #@! TO.N,/COL4*
X231900000Y-130770000D03*
G04 #@! TO.P,U4,4*
G04 #@! TO.N,GND*
X226820000Y-123150000D03*
G04 #@! TO.P,U4,12*
G04 #@! TO.N,/COL3*
X229360000Y-130770000D03*
G04 #@! TO.P,U4,5*
G04 #@! TO.N,GND*
X229360000Y-123150000D03*
G04 #@! TO.P,U4,13*
G04 #@! TO.N,/COL2*
X226820000Y-130770000D03*
G04 #@! TO.P,U4,6*
G04 #@! TO.N,/COL_EN*
X231900000Y-123150000D03*
G04 #@! TO.P,U4,14*
G04 #@! TO.N,/COL1*
X224280000Y-130770000D03*
G04 #@! TO.P,U4,7*
G04 #@! TO.N,/COL7*
X234440000Y-123150000D03*
G04 #@! TO.P,U4,15*
G04 #@! TO.N,/COL0*
X221740000Y-130770000D03*
G04 #@! TO.P,U4,8*
G04 #@! TO.N,GND*
X236980000Y-123150000D03*
G04 #@! TO.P,U4,16*
G04 #@! TO.N,+5V*
X219200000Y-130770000D03*
G04 #@! TD*
D11*
G04 #@! TO.N,Net-(C1-Pad1)*
G04 #@! TO.C,C1*
G36*
X152476779Y-125231144D02*
X152499834Y-125234563D01*
X152522443Y-125240227D01*
X152544387Y-125248079D01*
X152565457Y-125258044D01*
X152585448Y-125270026D01*
X152604168Y-125283910D01*
X152621438Y-125299562D01*
X152637090Y-125316832D01*
X152650974Y-125335552D01*
X152662956Y-125355543D01*
X152672921Y-125376613D01*
X152680773Y-125398557D01*
X152686437Y-125421166D01*
X152689856Y-125444221D01*
X152691000Y-125467500D01*
X152691000Y-126042500D01*
X152689856Y-126065779D01*
X152686437Y-126088834D01*
X152680773Y-126111443D01*
X152672921Y-126133387D01*
X152662956Y-126154457D01*
X152650974Y-126174448D01*
X152637090Y-126193168D01*
X152621438Y-126210438D01*
X152604168Y-126226090D01*
X152585448Y-126239974D01*
X152565457Y-126251956D01*
X152544387Y-126261921D01*
X152522443Y-126269773D01*
X152499834Y-126275437D01*
X152476779Y-126278856D01*
X152453500Y-126280000D01*
X151978500Y-126280000D01*
X151955221Y-126278856D01*
X151932166Y-126275437D01*
X151909557Y-126269773D01*
X151887613Y-126261921D01*
X151866543Y-126251956D01*
X151846552Y-126239974D01*
X151827832Y-126226090D01*
X151810562Y-126210438D01*
X151794910Y-126193168D01*
X151781026Y-126174448D01*
X151769044Y-126154457D01*
X151759079Y-126133387D01*
X151751227Y-126111443D01*
X151745563Y-126088834D01*
X151742144Y-126065779D01*
X151741000Y-126042500D01*
X151741000Y-125467500D01*
X151742144Y-125444221D01*
X151745563Y-125421166D01*
X151751227Y-125398557D01*
X151759079Y-125376613D01*
X151769044Y-125355543D01*
X151781026Y-125335552D01*
X151794910Y-125316832D01*
X151810562Y-125299562D01*
X151827832Y-125283910D01*
X151846552Y-125270026D01*
X151866543Y-125258044D01*
X151887613Y-125248079D01*
X151909557Y-125240227D01*
X151932166Y-125234563D01*
X151955221Y-125231144D01*
X151978500Y-125230000D01*
X152453500Y-125230000D01*
X152476779Y-125231144D01*
X152476779Y-125231144D01*
G37*
D12*
G04 #@! TD*
G04 #@! TO.P,C1,1*
G04 #@! TO.N,Net-(C1-Pad1)*
X152216000Y-125755000D03*
D11*
G04 #@! TO.N,GND*
G04 #@! TO.C,C1*
G36*
X152476779Y-123481144D02*
X152499834Y-123484563D01*
X152522443Y-123490227D01*
X152544387Y-123498079D01*
X152565457Y-123508044D01*
X152585448Y-123520026D01*
X152604168Y-123533910D01*
X152621438Y-123549562D01*
X152637090Y-123566832D01*
X152650974Y-123585552D01*
X152662956Y-123605543D01*
X152672921Y-123626613D01*
X152680773Y-123648557D01*
X152686437Y-123671166D01*
X152689856Y-123694221D01*
X152691000Y-123717500D01*
X152691000Y-124292500D01*
X152689856Y-124315779D01*
X152686437Y-124338834D01*
X152680773Y-124361443D01*
X152672921Y-124383387D01*
X152662956Y-124404457D01*
X152650974Y-124424448D01*
X152637090Y-124443168D01*
X152621438Y-124460438D01*
X152604168Y-124476090D01*
X152585448Y-124489974D01*
X152565457Y-124501956D01*
X152544387Y-124511921D01*
X152522443Y-124519773D01*
X152499834Y-124525437D01*
X152476779Y-124528856D01*
X152453500Y-124530000D01*
X151978500Y-124530000D01*
X151955221Y-124528856D01*
X151932166Y-124525437D01*
X151909557Y-124519773D01*
X151887613Y-124511921D01*
X151866543Y-124501956D01*
X151846552Y-124489974D01*
X151827832Y-124476090D01*
X151810562Y-124460438D01*
X151794910Y-124443168D01*
X151781026Y-124424448D01*
X151769044Y-124404457D01*
X151759079Y-124383387D01*
X151751227Y-124361443D01*
X151745563Y-124338834D01*
X151742144Y-124315779D01*
X151741000Y-124292500D01*
X151741000Y-123717500D01*
X151742144Y-123694221D01*
X151745563Y-123671166D01*
X151751227Y-123648557D01*
X151759079Y-123626613D01*
X151769044Y-123605543D01*
X151781026Y-123585552D01*
X151794910Y-123566832D01*
X151810562Y-123549562D01*
X151827832Y-123533910D01*
X151846552Y-123520026D01*
X151866543Y-123508044D01*
X151887613Y-123498079D01*
X151909557Y-123490227D01*
X151932166Y-123484563D01*
X151955221Y-123481144D01*
X151978500Y-123480000D01*
X152453500Y-123480000D01*
X152476779Y-123481144D01*
X152476779Y-123481144D01*
G37*
D12*
G04 #@! TD*
G04 #@! TO.P,C1,2*
G04 #@! TO.N,GND*
X152216000Y-124005000D03*
D11*
G04 #@! TO.N,+5V*
G04 #@! TO.C,C17*
G36*
X150626779Y-120881144D02*
X150649834Y-120884563D01*
X150672443Y-120890227D01*
X150694387Y-120898079D01*
X150715457Y-120908044D01*
X150735448Y-120920026D01*
X150754168Y-120933910D01*
X150771438Y-120949562D01*
X150787090Y-120966832D01*
X150800974Y-120985552D01*
X150812956Y-121005543D01*
X150822921Y-121026613D01*
X150830773Y-121048557D01*
X150836437Y-121071166D01*
X150839856Y-121094221D01*
X150841000Y-121117500D01*
X150841000Y-121692500D01*
X150839856Y-121715779D01*
X150836437Y-121738834D01*
X150830773Y-121761443D01*
X150822921Y-121783387D01*
X150812956Y-121804457D01*
X150800974Y-121824448D01*
X150787090Y-121843168D01*
X150771438Y-121860438D01*
X150754168Y-121876090D01*
X150735448Y-121889974D01*
X150715457Y-121901956D01*
X150694387Y-121911921D01*
X150672443Y-121919773D01*
X150649834Y-121925437D01*
X150626779Y-121928856D01*
X150603500Y-121930000D01*
X150128500Y-121930000D01*
X150105221Y-121928856D01*
X150082166Y-121925437D01*
X150059557Y-121919773D01*
X150037613Y-121911921D01*
X150016543Y-121901956D01*
X149996552Y-121889974D01*
X149977832Y-121876090D01*
X149960562Y-121860438D01*
X149944910Y-121843168D01*
X149931026Y-121824448D01*
X149919044Y-121804457D01*
X149909079Y-121783387D01*
X149901227Y-121761443D01*
X149895563Y-121738834D01*
X149892144Y-121715779D01*
X149891000Y-121692500D01*
X149891000Y-121117500D01*
X149892144Y-121094221D01*
X149895563Y-121071166D01*
X149901227Y-121048557D01*
X149909079Y-121026613D01*
X149919044Y-121005543D01*
X149931026Y-120985552D01*
X149944910Y-120966832D01*
X149960562Y-120949562D01*
X149977832Y-120933910D01*
X149996552Y-120920026D01*
X150016543Y-120908044D01*
X150037613Y-120898079D01*
X150059557Y-120890227D01*
X150082166Y-120884563D01*
X150105221Y-120881144D01*
X150128500Y-120880000D01*
X150603500Y-120880000D01*
X150626779Y-120881144D01*
X150626779Y-120881144D01*
G37*
D12*
G04 #@! TD*
G04 #@! TO.P,C17,1*
G04 #@! TO.N,+5V*
X150366000Y-121405000D03*
D11*
G04 #@! TO.N,GND*
G04 #@! TO.C,C17*
G36*
X150626779Y-119131144D02*
X150649834Y-119134563D01*
X150672443Y-119140227D01*
X150694387Y-119148079D01*
X150715457Y-119158044D01*
X150735448Y-119170026D01*
X150754168Y-119183910D01*
X150771438Y-119199562D01*
X150787090Y-119216832D01*
X150800974Y-119235552D01*
X150812956Y-119255543D01*
X150822921Y-119276613D01*
X150830773Y-119298557D01*
X150836437Y-119321166D01*
X150839856Y-119344221D01*
X150841000Y-119367500D01*
X150841000Y-119942500D01*
X150839856Y-119965779D01*
X150836437Y-119988834D01*
X150830773Y-120011443D01*
X150822921Y-120033387D01*
X150812956Y-120054457D01*
X150800974Y-120074448D01*
X150787090Y-120093168D01*
X150771438Y-120110438D01*
X150754168Y-120126090D01*
X150735448Y-120139974D01*
X150715457Y-120151956D01*
X150694387Y-120161921D01*
X150672443Y-120169773D01*
X150649834Y-120175437D01*
X150626779Y-120178856D01*
X150603500Y-120180000D01*
X150128500Y-120180000D01*
X150105221Y-120178856D01*
X150082166Y-120175437D01*
X150059557Y-120169773D01*
X150037613Y-120161921D01*
X150016543Y-120151956D01*
X149996552Y-120139974D01*
X149977832Y-120126090D01*
X149960562Y-120110438D01*
X149944910Y-120093168D01*
X149931026Y-120074448D01*
X149919044Y-120054457D01*
X149909079Y-120033387D01*
X149901227Y-120011443D01*
X149895563Y-119988834D01*
X149892144Y-119965779D01*
X149891000Y-119942500D01*
X149891000Y-119367500D01*
X149892144Y-119344221D01*
X149895563Y-119321166D01*
X149901227Y-119298557D01*
X149909079Y-119276613D01*
X149919044Y-119255543D01*
X149931026Y-119235552D01*
X149944910Y-119216832D01*
X149960562Y-119199562D01*
X149977832Y-119183910D01*
X149996552Y-119170026D01*
X150016543Y-119158044D01*
X150037613Y-119148079D01*
X150059557Y-119140227D01*
X150082166Y-119134563D01*
X150105221Y-119131144D01*
X150128500Y-119130000D01*
X150603500Y-119130000D01*
X150626779Y-119131144D01*
X150626779Y-119131144D01*
G37*
D12*
G04 #@! TD*
G04 #@! TO.P,C17,2*
G04 #@! TO.N,GND*
X150366000Y-119655000D03*
D11*
G04 #@! TO.N,/ROW2*
G04 #@! TO.C,R1*
G36*
X146726779Y-120881144D02*
X146749834Y-120884563D01*
X146772443Y-120890227D01*
X146794387Y-120898079D01*
X146815457Y-120908044D01*
X146835448Y-120920026D01*
X146854168Y-120933910D01*
X146871438Y-120949562D01*
X146887090Y-120966832D01*
X146900974Y-120985552D01*
X146912956Y-121005543D01*
X146922921Y-121026613D01*
X146930773Y-121048557D01*
X146936437Y-121071166D01*
X146939856Y-121094221D01*
X146941000Y-121117500D01*
X146941000Y-121692500D01*
X146939856Y-121715779D01*
X146936437Y-121738834D01*
X146930773Y-121761443D01*
X146922921Y-121783387D01*
X146912956Y-121804457D01*
X146900974Y-121824448D01*
X146887090Y-121843168D01*
X146871438Y-121860438D01*
X146854168Y-121876090D01*
X146835448Y-121889974D01*
X146815457Y-121901956D01*
X146794387Y-121911921D01*
X146772443Y-121919773D01*
X146749834Y-121925437D01*
X146726779Y-121928856D01*
X146703500Y-121930000D01*
X146228500Y-121930000D01*
X146205221Y-121928856D01*
X146182166Y-121925437D01*
X146159557Y-121919773D01*
X146137613Y-121911921D01*
X146116543Y-121901956D01*
X146096552Y-121889974D01*
X146077832Y-121876090D01*
X146060562Y-121860438D01*
X146044910Y-121843168D01*
X146031026Y-121824448D01*
X146019044Y-121804457D01*
X146009079Y-121783387D01*
X146001227Y-121761443D01*
X145995563Y-121738834D01*
X145992144Y-121715779D01*
X145991000Y-121692500D01*
X145991000Y-121117500D01*
X145992144Y-121094221D01*
X145995563Y-121071166D01*
X146001227Y-121048557D01*
X146009079Y-121026613D01*
X146019044Y-121005543D01*
X146031026Y-120985552D01*
X146044910Y-120966832D01*
X146060562Y-120949562D01*
X146077832Y-120933910D01*
X146096552Y-120920026D01*
X146116543Y-120908044D01*
X146137613Y-120898079D01*
X146159557Y-120890227D01*
X146182166Y-120884563D01*
X146205221Y-120881144D01*
X146228500Y-120880000D01*
X146703500Y-120880000D01*
X146726779Y-120881144D01*
X146726779Y-120881144D01*
G37*
D12*
G04 #@! TD*
G04 #@! TO.P,R1,1*
G04 #@! TO.N,/ROW2*
X146466000Y-121405000D03*
D11*
G04 #@! TO.N,GND*
G04 #@! TO.C,R1*
G36*
X146726779Y-119131144D02*
X146749834Y-119134563D01*
X146772443Y-119140227D01*
X146794387Y-119148079D01*
X146815457Y-119158044D01*
X146835448Y-119170026D01*
X146854168Y-119183910D01*
X146871438Y-119199562D01*
X146887090Y-119216832D01*
X146900974Y-119235552D01*
X146912956Y-119255543D01*
X146922921Y-119276613D01*
X146930773Y-119298557D01*
X146936437Y-119321166D01*
X146939856Y-119344221D01*
X146941000Y-119367500D01*
X146941000Y-119942500D01*
X146939856Y-119965779D01*
X146936437Y-119988834D01*
X146930773Y-120011443D01*
X146922921Y-120033387D01*
X146912956Y-120054457D01*
X146900974Y-120074448D01*
X146887090Y-120093168D01*
X146871438Y-120110438D01*
X146854168Y-120126090D01*
X146835448Y-120139974D01*
X146815457Y-120151956D01*
X146794387Y-120161921D01*
X146772443Y-120169773D01*
X146749834Y-120175437D01*
X146726779Y-120178856D01*
X146703500Y-120180000D01*
X146228500Y-120180000D01*
X146205221Y-120178856D01*
X146182166Y-120175437D01*
X146159557Y-120169773D01*
X146137613Y-120161921D01*
X146116543Y-120151956D01*
X146096552Y-120139974D01*
X146077832Y-120126090D01*
X146060562Y-120110438D01*
X146044910Y-120093168D01*
X146031026Y-120074448D01*
X146019044Y-120054457D01*
X146009079Y-120033387D01*
X146001227Y-120011443D01*
X145995563Y-119988834D01*
X145992144Y-119965779D01*
X145991000Y-119942500D01*
X145991000Y-119367500D01*
X145992144Y-119344221D01*
X145995563Y-119321166D01*
X146001227Y-119298557D01*
X146009079Y-119276613D01*
X146019044Y-119255543D01*
X146031026Y-119235552D01*
X146044910Y-119216832D01*
X146060562Y-119199562D01*
X146077832Y-119183910D01*
X146096552Y-119170026D01*
X146116543Y-119158044D01*
X146137613Y-119148079D01*
X146159557Y-119140227D01*
X146182166Y-119134563D01*
X146205221Y-119131144D01*
X146228500Y-119130000D01*
X146703500Y-119130000D01*
X146726779Y-119131144D01*
X146726779Y-119131144D01*
G37*
D12*
G04 #@! TD*
G04 #@! TO.P,R1,2*
G04 #@! TO.N,GND*
X146466000Y-119655000D03*
D11*
G04 #@! TO.N,GND*
G04 #@! TO.C,R2*
G36*
X148026779Y-119131144D02*
X148049834Y-119134563D01*
X148072443Y-119140227D01*
X148094387Y-119148079D01*
X148115457Y-119158044D01*
X148135448Y-119170026D01*
X148154168Y-119183910D01*
X148171438Y-119199562D01*
X148187090Y-119216832D01*
X148200974Y-119235552D01*
X148212956Y-119255543D01*
X148222921Y-119276613D01*
X148230773Y-119298557D01*
X148236437Y-119321166D01*
X148239856Y-119344221D01*
X148241000Y-119367500D01*
X148241000Y-119942500D01*
X148239856Y-119965779D01*
X148236437Y-119988834D01*
X148230773Y-120011443D01*
X148222921Y-120033387D01*
X148212956Y-120054457D01*
X148200974Y-120074448D01*
X148187090Y-120093168D01*
X148171438Y-120110438D01*
X148154168Y-120126090D01*
X148135448Y-120139974D01*
X148115457Y-120151956D01*
X148094387Y-120161921D01*
X148072443Y-120169773D01*
X148049834Y-120175437D01*
X148026779Y-120178856D01*
X148003500Y-120180000D01*
X147528500Y-120180000D01*
X147505221Y-120178856D01*
X147482166Y-120175437D01*
X147459557Y-120169773D01*
X147437613Y-120161921D01*
X147416543Y-120151956D01*
X147396552Y-120139974D01*
X147377832Y-120126090D01*
X147360562Y-120110438D01*
X147344910Y-120093168D01*
X147331026Y-120074448D01*
X147319044Y-120054457D01*
X147309079Y-120033387D01*
X147301227Y-120011443D01*
X147295563Y-119988834D01*
X147292144Y-119965779D01*
X147291000Y-119942500D01*
X147291000Y-119367500D01*
X147292144Y-119344221D01*
X147295563Y-119321166D01*
X147301227Y-119298557D01*
X147309079Y-119276613D01*
X147319044Y-119255543D01*
X147331026Y-119235552D01*
X147344910Y-119216832D01*
X147360562Y-119199562D01*
X147377832Y-119183910D01*
X147396552Y-119170026D01*
X147416543Y-119158044D01*
X147437613Y-119148079D01*
X147459557Y-119140227D01*
X147482166Y-119134563D01*
X147505221Y-119131144D01*
X147528500Y-119130000D01*
X148003500Y-119130000D01*
X148026779Y-119131144D01*
X148026779Y-119131144D01*
G37*
D12*
G04 #@! TD*
G04 #@! TO.P,R2,2*
G04 #@! TO.N,GND*
X147766000Y-119655000D03*
D11*
G04 #@! TO.N,/ROW1*
G04 #@! TO.C,R2*
G36*
X148026779Y-120881144D02*
X148049834Y-120884563D01*
X148072443Y-120890227D01*
X148094387Y-120898079D01*
X148115457Y-120908044D01*
X148135448Y-120920026D01*
X148154168Y-120933910D01*
X148171438Y-120949562D01*
X148187090Y-120966832D01*
X148200974Y-120985552D01*
X148212956Y-121005543D01*
X148222921Y-121026613D01*
X148230773Y-121048557D01*
X148236437Y-121071166D01*
X148239856Y-121094221D01*
X148241000Y-121117500D01*
X148241000Y-121692500D01*
X148239856Y-121715779D01*
X148236437Y-121738834D01*
X148230773Y-121761443D01*
X148222921Y-121783387D01*
X148212956Y-121804457D01*
X148200974Y-121824448D01*
X148187090Y-121843168D01*
X148171438Y-121860438D01*
X148154168Y-121876090D01*
X148135448Y-121889974D01*
X148115457Y-121901956D01*
X148094387Y-121911921D01*
X148072443Y-121919773D01*
X148049834Y-121925437D01*
X148026779Y-121928856D01*
X148003500Y-121930000D01*
X147528500Y-121930000D01*
X147505221Y-121928856D01*
X147482166Y-121925437D01*
X147459557Y-121919773D01*
X147437613Y-121911921D01*
X147416543Y-121901956D01*
X147396552Y-121889974D01*
X147377832Y-121876090D01*
X147360562Y-121860438D01*
X147344910Y-121843168D01*
X147331026Y-121824448D01*
X147319044Y-121804457D01*
X147309079Y-121783387D01*
X147301227Y-121761443D01*
X147295563Y-121738834D01*
X147292144Y-121715779D01*
X147291000Y-121692500D01*
X147291000Y-121117500D01*
X147292144Y-121094221D01*
X147295563Y-121071166D01*
X147301227Y-121048557D01*
X147309079Y-121026613D01*
X147319044Y-121005543D01*
X147331026Y-120985552D01*
X147344910Y-120966832D01*
X147360562Y-120949562D01*
X147377832Y-120933910D01*
X147396552Y-120920026D01*
X147416543Y-120908044D01*
X147437613Y-120898079D01*
X147459557Y-120890227D01*
X147482166Y-120884563D01*
X147505221Y-120881144D01*
X147528500Y-120880000D01*
X148003500Y-120880000D01*
X148026779Y-120881144D01*
X148026779Y-120881144D01*
G37*
D12*
G04 #@! TD*
G04 #@! TO.P,R2,1*
G04 #@! TO.N,/ROW1*
X147766000Y-121405000D03*
D11*
G04 #@! TO.N,GND*
G04 #@! TO.C,R3*
G36*
X149326779Y-119131144D02*
X149349834Y-119134563D01*
X149372443Y-119140227D01*
X149394387Y-119148079D01*
X149415457Y-119158044D01*
X149435448Y-119170026D01*
X149454168Y-119183910D01*
X149471438Y-119199562D01*
X149487090Y-119216832D01*
X149500974Y-119235552D01*
X149512956Y-119255543D01*
X149522921Y-119276613D01*
X149530773Y-119298557D01*
X149536437Y-119321166D01*
X149539856Y-119344221D01*
X149541000Y-119367500D01*
X149541000Y-119942500D01*
X149539856Y-119965779D01*
X149536437Y-119988834D01*
X149530773Y-120011443D01*
X149522921Y-120033387D01*
X149512956Y-120054457D01*
X149500974Y-120074448D01*
X149487090Y-120093168D01*
X149471438Y-120110438D01*
X149454168Y-120126090D01*
X149435448Y-120139974D01*
X149415457Y-120151956D01*
X149394387Y-120161921D01*
X149372443Y-120169773D01*
X149349834Y-120175437D01*
X149326779Y-120178856D01*
X149303500Y-120180000D01*
X148828500Y-120180000D01*
X148805221Y-120178856D01*
X148782166Y-120175437D01*
X148759557Y-120169773D01*
X148737613Y-120161921D01*
X148716543Y-120151956D01*
X148696552Y-120139974D01*
X148677832Y-120126090D01*
X148660562Y-120110438D01*
X148644910Y-120093168D01*
X148631026Y-120074448D01*
X148619044Y-120054457D01*
X148609079Y-120033387D01*
X148601227Y-120011443D01*
X148595563Y-119988834D01*
X148592144Y-119965779D01*
X148591000Y-119942500D01*
X148591000Y-119367500D01*
X148592144Y-119344221D01*
X148595563Y-119321166D01*
X148601227Y-119298557D01*
X148609079Y-119276613D01*
X148619044Y-119255543D01*
X148631026Y-119235552D01*
X148644910Y-119216832D01*
X148660562Y-119199562D01*
X148677832Y-119183910D01*
X148696552Y-119170026D01*
X148716543Y-119158044D01*
X148737613Y-119148079D01*
X148759557Y-119140227D01*
X148782166Y-119134563D01*
X148805221Y-119131144D01*
X148828500Y-119130000D01*
X149303500Y-119130000D01*
X149326779Y-119131144D01*
X149326779Y-119131144D01*
G37*
D12*
G04 #@! TD*
G04 #@! TO.P,R3,2*
G04 #@! TO.N,GND*
X149066000Y-119655000D03*
D11*
G04 #@! TO.N,/ROW0*
G04 #@! TO.C,R3*
G36*
X149326779Y-120881144D02*
X149349834Y-120884563D01*
X149372443Y-120890227D01*
X149394387Y-120898079D01*
X149415457Y-120908044D01*
X149435448Y-120920026D01*
X149454168Y-120933910D01*
X149471438Y-120949562D01*
X149487090Y-120966832D01*
X149500974Y-120985552D01*
X149512956Y-121005543D01*
X149522921Y-121026613D01*
X149530773Y-121048557D01*
X149536437Y-121071166D01*
X149539856Y-121094221D01*
X149541000Y-121117500D01*
X149541000Y-121692500D01*
X149539856Y-121715779D01*
X149536437Y-121738834D01*
X149530773Y-121761443D01*
X149522921Y-121783387D01*
X149512956Y-121804457D01*
X149500974Y-121824448D01*
X149487090Y-121843168D01*
X149471438Y-121860438D01*
X149454168Y-121876090D01*
X149435448Y-121889974D01*
X149415457Y-121901956D01*
X149394387Y-121911921D01*
X149372443Y-121919773D01*
X149349834Y-121925437D01*
X149326779Y-121928856D01*
X149303500Y-121930000D01*
X148828500Y-121930000D01*
X148805221Y-121928856D01*
X148782166Y-121925437D01*
X148759557Y-121919773D01*
X148737613Y-121911921D01*
X148716543Y-121901956D01*
X148696552Y-121889974D01*
X148677832Y-121876090D01*
X148660562Y-121860438D01*
X148644910Y-121843168D01*
X148631026Y-121824448D01*
X148619044Y-121804457D01*
X148609079Y-121783387D01*
X148601227Y-121761443D01*
X148595563Y-121738834D01*
X148592144Y-121715779D01*
X148591000Y-121692500D01*
X148591000Y-121117500D01*
X148592144Y-121094221D01*
X148595563Y-121071166D01*
X148601227Y-121048557D01*
X148609079Y-121026613D01*
X148619044Y-121005543D01*
X148631026Y-120985552D01*
X148644910Y-120966832D01*
X148660562Y-120949562D01*
X148677832Y-120933910D01*
X148696552Y-120920026D01*
X148716543Y-120908044D01*
X148737613Y-120898079D01*
X148759557Y-120890227D01*
X148782166Y-120884563D01*
X148805221Y-120881144D01*
X148828500Y-120880000D01*
X149303500Y-120880000D01*
X149326779Y-120881144D01*
X149326779Y-120881144D01*
G37*
D12*
G04 #@! TD*
G04 #@! TO.P,R3,1*
G04 #@! TO.N,/ROW0*
X149066000Y-121405000D03*
D11*
G04 #@! TO.N,/ROW3*
G04 #@! TO.C,R4*
G36*
X145426779Y-120881144D02*
X145449834Y-120884563D01*
X145472443Y-120890227D01*
X145494387Y-120898079D01*
X145515457Y-120908044D01*
X145535448Y-120920026D01*
X145554168Y-120933910D01*
X145571438Y-120949562D01*
X145587090Y-120966832D01*
X145600974Y-120985552D01*
X145612956Y-121005543D01*
X145622921Y-121026613D01*
X145630773Y-121048557D01*
X145636437Y-121071166D01*
X145639856Y-121094221D01*
X145641000Y-121117500D01*
X145641000Y-121692500D01*
X145639856Y-121715779D01*
X145636437Y-121738834D01*
X145630773Y-121761443D01*
X145622921Y-121783387D01*
X145612956Y-121804457D01*
X145600974Y-121824448D01*
X145587090Y-121843168D01*
X145571438Y-121860438D01*
X145554168Y-121876090D01*
X145535448Y-121889974D01*
X145515457Y-121901956D01*
X145494387Y-121911921D01*
X145472443Y-121919773D01*
X145449834Y-121925437D01*
X145426779Y-121928856D01*
X145403500Y-121930000D01*
X144928500Y-121930000D01*
X144905221Y-121928856D01*
X144882166Y-121925437D01*
X144859557Y-121919773D01*
X144837613Y-121911921D01*
X144816543Y-121901956D01*
X144796552Y-121889974D01*
X144777832Y-121876090D01*
X144760562Y-121860438D01*
X144744910Y-121843168D01*
X144731026Y-121824448D01*
X144719044Y-121804457D01*
X144709079Y-121783387D01*
X144701227Y-121761443D01*
X144695563Y-121738834D01*
X144692144Y-121715779D01*
X144691000Y-121692500D01*
X144691000Y-121117500D01*
X144692144Y-121094221D01*
X144695563Y-121071166D01*
X144701227Y-121048557D01*
X144709079Y-121026613D01*
X144719044Y-121005543D01*
X144731026Y-120985552D01*
X144744910Y-120966832D01*
X144760562Y-120949562D01*
X144777832Y-120933910D01*
X144796552Y-120920026D01*
X144816543Y-120908044D01*
X144837613Y-120898079D01*
X144859557Y-120890227D01*
X144882166Y-120884563D01*
X144905221Y-120881144D01*
X144928500Y-120880000D01*
X145403500Y-120880000D01*
X145426779Y-120881144D01*
X145426779Y-120881144D01*
G37*
D12*
G04 #@! TD*
G04 #@! TO.P,R4,1*
G04 #@! TO.N,/ROW3*
X145166000Y-121405000D03*
D11*
G04 #@! TO.N,GND*
G04 #@! TO.C,R4*
G36*
X145426779Y-119131144D02*
X145449834Y-119134563D01*
X145472443Y-119140227D01*
X145494387Y-119148079D01*
X145515457Y-119158044D01*
X145535448Y-119170026D01*
X145554168Y-119183910D01*
X145571438Y-119199562D01*
X145587090Y-119216832D01*
X145600974Y-119235552D01*
X145612956Y-119255543D01*
X145622921Y-119276613D01*
X145630773Y-119298557D01*
X145636437Y-119321166D01*
X145639856Y-119344221D01*
X145641000Y-119367500D01*
X145641000Y-119942500D01*
X145639856Y-119965779D01*
X145636437Y-119988834D01*
X145630773Y-120011443D01*
X145622921Y-120033387D01*
X145612956Y-120054457D01*
X145600974Y-120074448D01*
X145587090Y-120093168D01*
X145571438Y-120110438D01*
X145554168Y-120126090D01*
X145535448Y-120139974D01*
X145515457Y-120151956D01*
X145494387Y-120161921D01*
X145472443Y-120169773D01*
X145449834Y-120175437D01*
X145426779Y-120178856D01*
X145403500Y-120180000D01*
X144928500Y-120180000D01*
X144905221Y-120178856D01*
X144882166Y-120175437D01*
X144859557Y-120169773D01*
X144837613Y-120161921D01*
X144816543Y-120151956D01*
X144796552Y-120139974D01*
X144777832Y-120126090D01*
X144760562Y-120110438D01*
X144744910Y-120093168D01*
X144731026Y-120074448D01*
X144719044Y-120054457D01*
X144709079Y-120033387D01*
X144701227Y-120011443D01*
X144695563Y-119988834D01*
X144692144Y-119965779D01*
X144691000Y-119942500D01*
X144691000Y-119367500D01*
X144692144Y-119344221D01*
X144695563Y-119321166D01*
X144701227Y-119298557D01*
X144709079Y-119276613D01*
X144719044Y-119255543D01*
X144731026Y-119235552D01*
X144744910Y-119216832D01*
X144760562Y-119199562D01*
X144777832Y-119183910D01*
X144796552Y-119170026D01*
X144816543Y-119158044D01*
X144837613Y-119148079D01*
X144859557Y-119140227D01*
X144882166Y-119134563D01*
X144905221Y-119131144D01*
X144928500Y-119130000D01*
X145403500Y-119130000D01*
X145426779Y-119131144D01*
X145426779Y-119131144D01*
G37*
D12*
G04 #@! TD*
G04 #@! TO.P,R4,2*
G04 #@! TO.N,GND*
X145166000Y-119655000D03*
D11*
G04 #@! TO.N,/ROW4*
G04 #@! TO.C,R5*
G36*
X150626779Y-130881144D02*
X150649834Y-130884563D01*
X150672443Y-130890227D01*
X150694387Y-130898079D01*
X150715457Y-130908044D01*
X150735448Y-130920026D01*
X150754168Y-130933910D01*
X150771438Y-130949562D01*
X150787090Y-130966832D01*
X150800974Y-130985552D01*
X150812956Y-131005543D01*
X150822921Y-131026613D01*
X150830773Y-131048557D01*
X150836437Y-131071166D01*
X150839856Y-131094221D01*
X150841000Y-131117500D01*
X150841000Y-131692500D01*
X150839856Y-131715779D01*
X150836437Y-131738834D01*
X150830773Y-131761443D01*
X150822921Y-131783387D01*
X150812956Y-131804457D01*
X150800974Y-131824448D01*
X150787090Y-131843168D01*
X150771438Y-131860438D01*
X150754168Y-131876090D01*
X150735448Y-131889974D01*
X150715457Y-131901956D01*
X150694387Y-131911921D01*
X150672443Y-131919773D01*
X150649834Y-131925437D01*
X150626779Y-131928856D01*
X150603500Y-131930000D01*
X150128500Y-131930000D01*
X150105221Y-131928856D01*
X150082166Y-131925437D01*
X150059557Y-131919773D01*
X150037613Y-131911921D01*
X150016543Y-131901956D01*
X149996552Y-131889974D01*
X149977832Y-131876090D01*
X149960562Y-131860438D01*
X149944910Y-131843168D01*
X149931026Y-131824448D01*
X149919044Y-131804457D01*
X149909079Y-131783387D01*
X149901227Y-131761443D01*
X149895563Y-131738834D01*
X149892144Y-131715779D01*
X149891000Y-131692500D01*
X149891000Y-131117500D01*
X149892144Y-131094221D01*
X149895563Y-131071166D01*
X149901227Y-131048557D01*
X149909079Y-131026613D01*
X149919044Y-131005543D01*
X149931026Y-130985552D01*
X149944910Y-130966832D01*
X149960562Y-130949562D01*
X149977832Y-130933910D01*
X149996552Y-130920026D01*
X150016543Y-130908044D01*
X150037613Y-130898079D01*
X150059557Y-130890227D01*
X150082166Y-130884563D01*
X150105221Y-130881144D01*
X150128500Y-130880000D01*
X150603500Y-130880000D01*
X150626779Y-130881144D01*
X150626779Y-130881144D01*
G37*
D12*
G04 #@! TD*
G04 #@! TO.P,R5,1*
G04 #@! TO.N,/ROW4*
X150366000Y-131405000D03*
D11*
G04 #@! TO.N,GND*
G04 #@! TO.C,R5*
G36*
X150626779Y-132631144D02*
X150649834Y-132634563D01*
X150672443Y-132640227D01*
X150694387Y-132648079D01*
X150715457Y-132658044D01*
X150735448Y-132670026D01*
X150754168Y-132683910D01*
X150771438Y-132699562D01*
X150787090Y-132716832D01*
X150800974Y-132735552D01*
X150812956Y-132755543D01*
X150822921Y-132776613D01*
X150830773Y-132798557D01*
X150836437Y-132821166D01*
X150839856Y-132844221D01*
X150841000Y-132867500D01*
X150841000Y-133442500D01*
X150839856Y-133465779D01*
X150836437Y-133488834D01*
X150830773Y-133511443D01*
X150822921Y-133533387D01*
X150812956Y-133554457D01*
X150800974Y-133574448D01*
X150787090Y-133593168D01*
X150771438Y-133610438D01*
X150754168Y-133626090D01*
X150735448Y-133639974D01*
X150715457Y-133651956D01*
X150694387Y-133661921D01*
X150672443Y-133669773D01*
X150649834Y-133675437D01*
X150626779Y-133678856D01*
X150603500Y-133680000D01*
X150128500Y-133680000D01*
X150105221Y-133678856D01*
X150082166Y-133675437D01*
X150059557Y-133669773D01*
X150037613Y-133661921D01*
X150016543Y-133651956D01*
X149996552Y-133639974D01*
X149977832Y-133626090D01*
X149960562Y-133610438D01*
X149944910Y-133593168D01*
X149931026Y-133574448D01*
X149919044Y-133554457D01*
X149909079Y-133533387D01*
X149901227Y-133511443D01*
X149895563Y-133488834D01*
X149892144Y-133465779D01*
X149891000Y-133442500D01*
X149891000Y-132867500D01*
X149892144Y-132844221D01*
X149895563Y-132821166D01*
X149901227Y-132798557D01*
X149909079Y-132776613D01*
X149919044Y-132755543D01*
X149931026Y-132735552D01*
X149944910Y-132716832D01*
X149960562Y-132699562D01*
X149977832Y-132683910D01*
X149996552Y-132670026D01*
X150016543Y-132658044D01*
X150037613Y-132648079D01*
X150059557Y-132640227D01*
X150082166Y-132634563D01*
X150105221Y-132631144D01*
X150128500Y-132630000D01*
X150603500Y-132630000D01*
X150626779Y-132631144D01*
X150626779Y-132631144D01*
G37*
D12*
G04 #@! TD*
G04 #@! TO.P,R5,2*
G04 #@! TO.N,GND*
X150366000Y-133155000D03*
D11*
G04 #@! TO.N,Net-(C1-Pad1)*
G04 #@! TO.C,R6*
G36*
X148026779Y-130881144D02*
X148049834Y-130884563D01*
X148072443Y-130890227D01*
X148094387Y-130898079D01*
X148115457Y-130908044D01*
X148135448Y-130920026D01*
X148154168Y-130933910D01*
X148171438Y-130949562D01*
X148187090Y-130966832D01*
X148200974Y-130985552D01*
X148212956Y-131005543D01*
X148222921Y-131026613D01*
X148230773Y-131048557D01*
X148236437Y-131071166D01*
X148239856Y-131094221D01*
X148241000Y-131117500D01*
X148241000Y-131692500D01*
X148239856Y-131715779D01*
X148236437Y-131738834D01*
X148230773Y-131761443D01*
X148222921Y-131783387D01*
X148212956Y-131804457D01*
X148200974Y-131824448D01*
X148187090Y-131843168D01*
X148171438Y-131860438D01*
X148154168Y-131876090D01*
X148135448Y-131889974D01*
X148115457Y-131901956D01*
X148094387Y-131911921D01*
X148072443Y-131919773D01*
X148049834Y-131925437D01*
X148026779Y-131928856D01*
X148003500Y-131930000D01*
X147528500Y-131930000D01*
X147505221Y-131928856D01*
X147482166Y-131925437D01*
X147459557Y-131919773D01*
X147437613Y-131911921D01*
X147416543Y-131901956D01*
X147396552Y-131889974D01*
X147377832Y-131876090D01*
X147360562Y-131860438D01*
X147344910Y-131843168D01*
X147331026Y-131824448D01*
X147319044Y-131804457D01*
X147309079Y-131783387D01*
X147301227Y-131761443D01*
X147295563Y-131738834D01*
X147292144Y-131715779D01*
X147291000Y-131692500D01*
X147291000Y-131117500D01*
X147292144Y-131094221D01*
X147295563Y-131071166D01*
X147301227Y-131048557D01*
X147309079Y-131026613D01*
X147319044Y-131005543D01*
X147331026Y-130985552D01*
X147344910Y-130966832D01*
X147360562Y-130949562D01*
X147377832Y-130933910D01*
X147396552Y-130920026D01*
X147416543Y-130908044D01*
X147437613Y-130898079D01*
X147459557Y-130890227D01*
X147482166Y-130884563D01*
X147505221Y-130881144D01*
X147528500Y-130880000D01*
X148003500Y-130880000D01*
X148026779Y-130881144D01*
X148026779Y-130881144D01*
G37*
D12*
G04 #@! TD*
G04 #@! TO.P,R6,2*
G04 #@! TO.N,Net-(C1-Pad1)*
X147766000Y-131405000D03*
D11*
G04 #@! TO.N,/DRAIN*
G04 #@! TO.C,R6*
G36*
X148026779Y-132631144D02*
X148049834Y-132634563D01*
X148072443Y-132640227D01*
X148094387Y-132648079D01*
X148115457Y-132658044D01*
X148135448Y-132670026D01*
X148154168Y-132683910D01*
X148171438Y-132699562D01*
X148187090Y-132716832D01*
X148200974Y-132735552D01*
X148212956Y-132755543D01*
X148222921Y-132776613D01*
X148230773Y-132798557D01*
X148236437Y-132821166D01*
X148239856Y-132844221D01*
X148241000Y-132867500D01*
X148241000Y-133442500D01*
X148239856Y-133465779D01*
X148236437Y-133488834D01*
X148230773Y-133511443D01*
X148222921Y-133533387D01*
X148212956Y-133554457D01*
X148200974Y-133574448D01*
X148187090Y-133593168D01*
X148171438Y-133610438D01*
X148154168Y-133626090D01*
X148135448Y-133639974D01*
X148115457Y-133651956D01*
X148094387Y-133661921D01*
X148072443Y-133669773D01*
X148049834Y-133675437D01*
X148026779Y-133678856D01*
X148003500Y-133680000D01*
X147528500Y-133680000D01*
X147505221Y-133678856D01*
X147482166Y-133675437D01*
X147459557Y-133669773D01*
X147437613Y-133661921D01*
X147416543Y-133651956D01*
X147396552Y-133639974D01*
X147377832Y-133626090D01*
X147360562Y-133610438D01*
X147344910Y-133593168D01*
X147331026Y-133574448D01*
X147319044Y-133554457D01*
X147309079Y-133533387D01*
X147301227Y-133511443D01*
X147295563Y-133488834D01*
X147292144Y-133465779D01*
X147291000Y-133442500D01*
X147291000Y-132867500D01*
X147292144Y-132844221D01*
X147295563Y-132821166D01*
X147301227Y-132798557D01*
X147309079Y-132776613D01*
X147319044Y-132755543D01*
X147331026Y-132735552D01*
X147344910Y-132716832D01*
X147360562Y-132699562D01*
X147377832Y-132683910D01*
X147396552Y-132670026D01*
X147416543Y-132658044D01*
X147437613Y-132648079D01*
X147459557Y-132640227D01*
X147482166Y-132634563D01*
X147505221Y-132631144D01*
X147528500Y-132630000D01*
X148003500Y-132630000D01*
X148026779Y-132631144D01*
X148026779Y-132631144D01*
G37*
D12*
G04 #@! TD*
G04 #@! TO.P,R6,1*
G04 #@! TO.N,/DRAIN*
X147766000Y-133155000D03*
D11*
G04 #@! TO.N,Net-(R7-Pad1)*
G04 #@! TO.C,R7*
G36*
X152476779Y-128731144D02*
X152499834Y-128734563D01*
X152522443Y-128740227D01*
X152544387Y-128748079D01*
X152565457Y-128758044D01*
X152585448Y-128770026D01*
X152604168Y-128783910D01*
X152621438Y-128799562D01*
X152637090Y-128816832D01*
X152650974Y-128835552D01*
X152662956Y-128855543D01*
X152672921Y-128876613D01*
X152680773Y-128898557D01*
X152686437Y-128921166D01*
X152689856Y-128944221D01*
X152691000Y-128967500D01*
X152691000Y-129542500D01*
X152689856Y-129565779D01*
X152686437Y-129588834D01*
X152680773Y-129611443D01*
X152672921Y-129633387D01*
X152662956Y-129654457D01*
X152650974Y-129674448D01*
X152637090Y-129693168D01*
X152621438Y-129710438D01*
X152604168Y-129726090D01*
X152585448Y-129739974D01*
X152565457Y-129751956D01*
X152544387Y-129761921D01*
X152522443Y-129769773D01*
X152499834Y-129775437D01*
X152476779Y-129778856D01*
X152453500Y-129780000D01*
X151978500Y-129780000D01*
X151955221Y-129778856D01*
X151932166Y-129775437D01*
X151909557Y-129769773D01*
X151887613Y-129761921D01*
X151866543Y-129751956D01*
X151846552Y-129739974D01*
X151827832Y-129726090D01*
X151810562Y-129710438D01*
X151794910Y-129693168D01*
X151781026Y-129674448D01*
X151769044Y-129654457D01*
X151759079Y-129633387D01*
X151751227Y-129611443D01*
X151745563Y-129588834D01*
X151742144Y-129565779D01*
X151741000Y-129542500D01*
X151741000Y-128967500D01*
X151742144Y-128944221D01*
X151745563Y-128921166D01*
X151751227Y-128898557D01*
X151759079Y-128876613D01*
X151769044Y-128855543D01*
X151781026Y-128835552D01*
X151794910Y-128816832D01*
X151810562Y-128799562D01*
X151827832Y-128783910D01*
X151846552Y-128770026D01*
X151866543Y-128758044D01*
X151887613Y-128748079D01*
X151909557Y-128740227D01*
X151932166Y-128734563D01*
X151955221Y-128731144D01*
X151978500Y-128730000D01*
X152453500Y-128730000D01*
X152476779Y-128731144D01*
X152476779Y-128731144D01*
G37*
D12*
G04 #@! TD*
G04 #@! TO.P,R7,1*
G04 #@! TO.N,Net-(R7-Pad1)*
X152216000Y-129255000D03*
D11*
G04 #@! TO.N,Net-(C1-Pad1)*
G04 #@! TO.C,R7*
G36*
X152476779Y-126981144D02*
X152499834Y-126984563D01*
X152522443Y-126990227D01*
X152544387Y-126998079D01*
X152565457Y-127008044D01*
X152585448Y-127020026D01*
X152604168Y-127033910D01*
X152621438Y-127049562D01*
X152637090Y-127066832D01*
X152650974Y-127085552D01*
X152662956Y-127105543D01*
X152672921Y-127126613D01*
X152680773Y-127148557D01*
X152686437Y-127171166D01*
X152689856Y-127194221D01*
X152691000Y-127217500D01*
X152691000Y-127792500D01*
X152689856Y-127815779D01*
X152686437Y-127838834D01*
X152680773Y-127861443D01*
X152672921Y-127883387D01*
X152662956Y-127904457D01*
X152650974Y-127924448D01*
X152637090Y-127943168D01*
X152621438Y-127960438D01*
X152604168Y-127976090D01*
X152585448Y-127989974D01*
X152565457Y-128001956D01*
X152544387Y-128011921D01*
X152522443Y-128019773D01*
X152499834Y-128025437D01*
X152476779Y-128028856D01*
X152453500Y-128030000D01*
X151978500Y-128030000D01*
X151955221Y-128028856D01*
X151932166Y-128025437D01*
X151909557Y-128019773D01*
X151887613Y-128011921D01*
X151866543Y-128001956D01*
X151846552Y-127989974D01*
X151827832Y-127976090D01*
X151810562Y-127960438D01*
X151794910Y-127943168D01*
X151781026Y-127924448D01*
X151769044Y-127904457D01*
X151759079Y-127883387D01*
X151751227Y-127861443D01*
X151745563Y-127838834D01*
X151742144Y-127815779D01*
X151741000Y-127792500D01*
X151741000Y-127217500D01*
X151742144Y-127194221D01*
X151745563Y-127171166D01*
X151751227Y-127148557D01*
X151759079Y-127126613D01*
X151769044Y-127105543D01*
X151781026Y-127085552D01*
X151794910Y-127066832D01*
X151810562Y-127049562D01*
X151827832Y-127033910D01*
X151846552Y-127020026D01*
X151866543Y-127008044D01*
X151887613Y-126998079D01*
X151909557Y-126990227D01*
X151932166Y-126984563D01*
X151955221Y-126981144D01*
X151978500Y-126980000D01*
X152453500Y-126980000D01*
X152476779Y-126981144D01*
X152476779Y-126981144D01*
G37*
D12*
G04 #@! TD*
G04 #@! TO.P,R7,2*
G04 #@! TO.N,Net-(C1-Pad1)*
X152216000Y-127505000D03*
D11*
G04 #@! TO.N,Net-(R10-Pad2)*
G04 #@! TO.C,R8*
G36*
X154676779Y-133531144D02*
X154699834Y-133534563D01*
X154722443Y-133540227D01*
X154744387Y-133548079D01*
X154765457Y-133558044D01*
X154785448Y-133570026D01*
X154804168Y-133583910D01*
X154821438Y-133599562D01*
X154837090Y-133616832D01*
X154850974Y-133635552D01*
X154862956Y-133655543D01*
X154872921Y-133676613D01*
X154880773Y-133698557D01*
X154886437Y-133721166D01*
X154889856Y-133744221D01*
X154891000Y-133767500D01*
X154891000Y-134342500D01*
X154889856Y-134365779D01*
X154886437Y-134388834D01*
X154880773Y-134411443D01*
X154872921Y-134433387D01*
X154862956Y-134454457D01*
X154850974Y-134474448D01*
X154837090Y-134493168D01*
X154821438Y-134510438D01*
X154804168Y-134526090D01*
X154785448Y-134539974D01*
X154765457Y-134551956D01*
X154744387Y-134561921D01*
X154722443Y-134569773D01*
X154699834Y-134575437D01*
X154676779Y-134578856D01*
X154653500Y-134580000D01*
X154178500Y-134580000D01*
X154155221Y-134578856D01*
X154132166Y-134575437D01*
X154109557Y-134569773D01*
X154087613Y-134561921D01*
X154066543Y-134551956D01*
X154046552Y-134539974D01*
X154027832Y-134526090D01*
X154010562Y-134510438D01*
X153994910Y-134493168D01*
X153981026Y-134474448D01*
X153969044Y-134454457D01*
X153959079Y-134433387D01*
X153951227Y-134411443D01*
X153945563Y-134388834D01*
X153942144Y-134365779D01*
X153941000Y-134342500D01*
X153941000Y-133767500D01*
X153942144Y-133744221D01*
X153945563Y-133721166D01*
X153951227Y-133698557D01*
X153959079Y-133676613D01*
X153969044Y-133655543D01*
X153981026Y-133635552D01*
X153994910Y-133616832D01*
X154010562Y-133599562D01*
X154027832Y-133583910D01*
X154046552Y-133570026D01*
X154066543Y-133558044D01*
X154087613Y-133548079D01*
X154109557Y-133540227D01*
X154132166Y-133534563D01*
X154155221Y-133531144D01*
X154178500Y-133530000D01*
X154653500Y-133530000D01*
X154676779Y-133531144D01*
X154676779Y-133531144D01*
G37*
D12*
G04 #@! TD*
G04 #@! TO.P,R8,2*
G04 #@! TO.N,Net-(R10-Pad2)*
X154416000Y-134055000D03*
D11*
G04 #@! TO.N,GND*
G04 #@! TO.C,R8*
G36*
X154676779Y-131781144D02*
X154699834Y-131784563D01*
X154722443Y-131790227D01*
X154744387Y-131798079D01*
X154765457Y-131808044D01*
X154785448Y-131820026D01*
X154804168Y-131833910D01*
X154821438Y-131849562D01*
X154837090Y-131866832D01*
X154850974Y-131885552D01*
X154862956Y-131905543D01*
X154872921Y-131926613D01*
X154880773Y-131948557D01*
X154886437Y-131971166D01*
X154889856Y-131994221D01*
X154891000Y-132017500D01*
X154891000Y-132592500D01*
X154889856Y-132615779D01*
X154886437Y-132638834D01*
X154880773Y-132661443D01*
X154872921Y-132683387D01*
X154862956Y-132704457D01*
X154850974Y-132724448D01*
X154837090Y-132743168D01*
X154821438Y-132760438D01*
X154804168Y-132776090D01*
X154785448Y-132789974D01*
X154765457Y-132801956D01*
X154744387Y-132811921D01*
X154722443Y-132819773D01*
X154699834Y-132825437D01*
X154676779Y-132828856D01*
X154653500Y-132830000D01*
X154178500Y-132830000D01*
X154155221Y-132828856D01*
X154132166Y-132825437D01*
X154109557Y-132819773D01*
X154087613Y-132811921D01*
X154066543Y-132801956D01*
X154046552Y-132789974D01*
X154027832Y-132776090D01*
X154010562Y-132760438D01*
X153994910Y-132743168D01*
X153981026Y-132724448D01*
X153969044Y-132704457D01*
X153959079Y-132683387D01*
X153951227Y-132661443D01*
X153945563Y-132638834D01*
X153942144Y-132615779D01*
X153941000Y-132592500D01*
X153941000Y-132017500D01*
X153942144Y-131994221D01*
X153945563Y-131971166D01*
X153951227Y-131948557D01*
X153959079Y-131926613D01*
X153969044Y-131905543D01*
X153981026Y-131885552D01*
X153994910Y-131866832D01*
X154010562Y-131849562D01*
X154027832Y-131833910D01*
X154046552Y-131820026D01*
X154066543Y-131808044D01*
X154087613Y-131798079D01*
X154109557Y-131790227D01*
X154132166Y-131784563D01*
X154155221Y-131781144D01*
X154178500Y-131780000D01*
X154653500Y-131780000D01*
X154676779Y-131781144D01*
X154676779Y-131781144D01*
G37*
D12*
G04 #@! TD*
G04 #@! TO.P,R8,1*
G04 #@! TO.N,GND*
X154416000Y-132305000D03*
D11*
G04 #@! TO.N,/READ*
G04 #@! TO.C,R10*
G36*
X158576779Y-131781144D02*
X158599834Y-131784563D01*
X158622443Y-131790227D01*
X158644387Y-131798079D01*
X158665457Y-131808044D01*
X158685448Y-131820026D01*
X158704168Y-131833910D01*
X158721438Y-131849562D01*
X158737090Y-131866832D01*
X158750974Y-131885552D01*
X158762956Y-131905543D01*
X158772921Y-131926613D01*
X158780773Y-131948557D01*
X158786437Y-131971166D01*
X158789856Y-131994221D01*
X158791000Y-132017500D01*
X158791000Y-132592500D01*
X158789856Y-132615779D01*
X158786437Y-132638834D01*
X158780773Y-132661443D01*
X158772921Y-132683387D01*
X158762956Y-132704457D01*
X158750974Y-132724448D01*
X158737090Y-132743168D01*
X158721438Y-132760438D01*
X158704168Y-132776090D01*
X158685448Y-132789974D01*
X158665457Y-132801956D01*
X158644387Y-132811921D01*
X158622443Y-132819773D01*
X158599834Y-132825437D01*
X158576779Y-132828856D01*
X158553500Y-132830000D01*
X158078500Y-132830000D01*
X158055221Y-132828856D01*
X158032166Y-132825437D01*
X158009557Y-132819773D01*
X157987613Y-132811921D01*
X157966543Y-132801956D01*
X157946552Y-132789974D01*
X157927832Y-132776090D01*
X157910562Y-132760438D01*
X157894910Y-132743168D01*
X157881026Y-132724448D01*
X157869044Y-132704457D01*
X157859079Y-132683387D01*
X157851227Y-132661443D01*
X157845563Y-132638834D01*
X157842144Y-132615779D01*
X157841000Y-132592500D01*
X157841000Y-132017500D01*
X157842144Y-131994221D01*
X157845563Y-131971166D01*
X157851227Y-131948557D01*
X157859079Y-131926613D01*
X157869044Y-131905543D01*
X157881026Y-131885552D01*
X157894910Y-131866832D01*
X157910562Y-131849562D01*
X157927832Y-131833910D01*
X157946552Y-131820026D01*
X157966543Y-131808044D01*
X157987613Y-131798079D01*
X158009557Y-131790227D01*
X158032166Y-131784563D01*
X158055221Y-131781144D01*
X158078500Y-131780000D01*
X158553500Y-131780000D01*
X158576779Y-131781144D01*
X158576779Y-131781144D01*
G37*
D12*
G04 #@! TD*
G04 #@! TO.P,R10,1*
G04 #@! TO.N,/READ*
X158316000Y-132305000D03*
D11*
G04 #@! TO.N,Net-(R10-Pad2)*
G04 #@! TO.C,R10*
G36*
X158576779Y-133531144D02*
X158599834Y-133534563D01*
X158622443Y-133540227D01*
X158644387Y-133548079D01*
X158665457Y-133558044D01*
X158685448Y-133570026D01*
X158704168Y-133583910D01*
X158721438Y-133599562D01*
X158737090Y-133616832D01*
X158750974Y-133635552D01*
X158762956Y-133655543D01*
X158772921Y-133676613D01*
X158780773Y-133698557D01*
X158786437Y-133721166D01*
X158789856Y-133744221D01*
X158791000Y-133767500D01*
X158791000Y-134342500D01*
X158789856Y-134365779D01*
X158786437Y-134388834D01*
X158780773Y-134411443D01*
X158772921Y-134433387D01*
X158762956Y-134454457D01*
X158750974Y-134474448D01*
X158737090Y-134493168D01*
X158721438Y-134510438D01*
X158704168Y-134526090D01*
X158685448Y-134539974D01*
X158665457Y-134551956D01*
X158644387Y-134561921D01*
X158622443Y-134569773D01*
X158599834Y-134575437D01*
X158576779Y-134578856D01*
X158553500Y-134580000D01*
X158078500Y-134580000D01*
X158055221Y-134578856D01*
X158032166Y-134575437D01*
X158009557Y-134569773D01*
X157987613Y-134561921D01*
X157966543Y-134551956D01*
X157946552Y-134539974D01*
X157927832Y-134526090D01*
X157910562Y-134510438D01*
X157894910Y-134493168D01*
X157881026Y-134474448D01*
X157869044Y-134454457D01*
X157859079Y-134433387D01*
X157851227Y-134411443D01*
X157845563Y-134388834D01*
X157842144Y-134365779D01*
X157841000Y-134342500D01*
X157841000Y-133767500D01*
X157842144Y-133744221D01*
X157845563Y-133721166D01*
X157851227Y-133698557D01*
X157859079Y-133676613D01*
X157869044Y-133655543D01*
X157881026Y-133635552D01*
X157894910Y-133616832D01*
X157910562Y-133599562D01*
X157927832Y-133583910D01*
X157946552Y-133570026D01*
X157966543Y-133558044D01*
X157987613Y-133548079D01*
X158009557Y-133540227D01*
X158032166Y-133534563D01*
X158055221Y-133531144D01*
X158078500Y-133530000D01*
X158553500Y-133530000D01*
X158576779Y-133531144D01*
X158576779Y-133531144D01*
G37*
D12*
G04 #@! TD*
G04 #@! TO.P,R10,2*
G04 #@! TO.N,Net-(R10-Pad2)*
X158316000Y-134055000D03*
D19*
G04 #@! TO.N,GND*
X154600000Y-118950000D03*
X156800000Y-124950000D03*
X103550000Y-95550000D03*
X99400000Y-94900000D03*
X103100000Y-98400000D03*
X103800000Y-100700000D03*
X120400000Y-100650000D03*
X140600000Y-100500000D03*
X160000000Y-100500000D03*
X179500000Y-100500000D03*
X203300000Y-100750000D03*
X227200000Y-100850000D03*
X94300000Y-84050000D03*
X96550000Y-94950000D03*
X89350000Y-74100000D03*
X160291802Y-135049979D03*
X145550000Y-134950000D03*
X137200000Y-122400000D03*
X138450000Y-128550000D03*
X211650000Y-130650000D03*
X104650000Y-134300000D03*
X126600000Y-134250000D03*
X136400000Y-134100000D03*
X187600000Y-134350000D03*
X171600000Y-134250000D03*
X107050000Y-94750000D03*
X116100000Y-95650000D03*
X129200000Y-95600000D03*
X144450000Y-95450000D03*
X165050000Y-95650000D03*
X186150000Y-95550000D03*
X204550000Y-95650000D03*
X230700000Y-95850000D03*
X232050000Y-77050000D03*
X237600000Y-76900000D03*
X94150000Y-76950000D03*
X99050000Y-76950000D03*
X112900000Y-77150000D03*
X120450000Y-77150000D03*
X131700000Y-77150000D03*
X137150000Y-77050000D03*
X151300000Y-77050000D03*
X158450000Y-77050000D03*
X168600000Y-77000000D03*
X176500000Y-77000000D03*
X187350000Y-77100000D03*
X195400000Y-77150000D03*
X206900000Y-77200000D03*
X215650000Y-76400000D03*
X232400000Y-49750000D03*
X233250000Y-53350000D03*
X217600000Y-57400000D03*
X221850000Y-58900000D03*
X187550000Y-57700000D03*
X179300000Y-57650000D03*
X167600000Y-57700000D03*
X160700000Y-57700000D03*
X149750000Y-57700000D03*
X142250000Y-57700000D03*
X129550000Y-57700000D03*
X122700000Y-57750000D03*
X109400000Y-57750000D03*
X103150000Y-57700000D03*
X90850000Y-57750000D03*
X85300000Y-58450000D03*
G04 #@! TO.N,+5V*
X212083122Y-119549990D03*
X211650000Y-123300000D03*
G04 #@! TO.N,/READ*
X158093609Y-127681203D03*
X159600000Y-119100000D03*
G04 #@! TO.N,/DRAIN*
X148350000Y-133950000D03*
X152300000Y-118050000D03*
G04 #@! TO.N,/MUX_EN*
X144550000Y-128050000D03*
X152000000Y-117000000D03*
G04 #@! TD*
D20*
G04 #@! TO.N,Net-(C1-Pad1)*
X152216000Y-127505000D02*
X152216000Y-125755000D01*
X147790677Y-131380323D02*
X147766000Y-131405000D01*
X147790677Y-129539650D02*
X147790677Y-131380323D01*
X147790677Y-129539650D02*
X147790677Y-128259323D01*
X147790677Y-128259323D02*
X148545000Y-127505000D01*
X148545000Y-127505000D02*
X152216000Y-127505000D01*
G04 #@! TO.N,GND*
X154416000Y-130201651D02*
X154445514Y-130172137D01*
X154416000Y-132305000D02*
X154416000Y-130201651D01*
X149050677Y-129539650D02*
X149050677Y-132550677D01*
X149655000Y-133155000D02*
X150366000Y-133155000D01*
X149050677Y-132550677D02*
X149655000Y-133155000D01*
X229922000Y-117638000D02*
X229922000Y-119578000D01*
X229922000Y-119578000D02*
X229360000Y-120140000D01*
X229360000Y-120140000D02*
X229360000Y-121150000D01*
X229360000Y-121150000D02*
X229360000Y-123150000D01*
X226820000Y-121450000D02*
X226820000Y-123150000D01*
X227120000Y-121150000D02*
X226820000Y-121450000D01*
X228350000Y-121150000D02*
X229360000Y-120140000D01*
X227120000Y-121150000D02*
X228350000Y-121150000D01*
X236980000Y-121450000D02*
X236530000Y-121000000D01*
X236980000Y-123150000D02*
X236980000Y-121450000D01*
X230220000Y-121000000D02*
X229360000Y-120140000D01*
X236530000Y-121000000D02*
X230220000Y-121000000D01*
X146140677Y-129539650D02*
X145240677Y-129539650D01*
X146520677Y-129919650D02*
X146140677Y-129539650D01*
X146520677Y-130650000D02*
X146520677Y-129919650D01*
X146520677Y-130650000D02*
X146520677Y-129539650D01*
X141430677Y-129539650D02*
X142710677Y-129539650D01*
X153566000Y-133155000D02*
X154416000Y-132305000D01*
X153490990Y-134627278D02*
X153490990Y-133230010D01*
X153490990Y-133230010D02*
X154416000Y-132305000D01*
X159241010Y-134627278D02*
X158718288Y-135150000D01*
X158718288Y-135150000D02*
X154013712Y-135150000D01*
X154013712Y-135150000D02*
X153490990Y-134627278D01*
X155715514Y-123372137D02*
X155715514Y-122772137D01*
X156490514Y-124147137D02*
X155715514Y-123372137D01*
X159241010Y-124050000D02*
X159143873Y-124147137D01*
X159241010Y-124050000D02*
X159241010Y-134627278D01*
X154445514Y-123372137D02*
X154445514Y-122772137D01*
X155220514Y-124147137D02*
X154445514Y-123372137D01*
X156490514Y-124147137D02*
X155220514Y-124147137D01*
X152933137Y-124147137D02*
X155220514Y-124147137D01*
X152791000Y-124005000D02*
X152933137Y-124147137D01*
X152216000Y-124005000D02*
X152791000Y-124005000D01*
X142710677Y-130689650D02*
X142921027Y-130900000D01*
X142710677Y-129539650D02*
X142710677Y-130689650D01*
X146120677Y-130900000D02*
X146520677Y-131300000D01*
X142921027Y-130900000D02*
X146120677Y-130900000D01*
X146520677Y-131300000D02*
X146520677Y-130650000D01*
X152576202Y-124504072D02*
X152933137Y-124147137D01*
X227019990Y-121250010D02*
X214387510Y-121250010D01*
X214387510Y-121250010D02*
X213821825Y-121250010D01*
X227120000Y-121150000D02*
X227019990Y-121250010D01*
X151716928Y-124504072D02*
X152216000Y-124005000D01*
X150295928Y-124504072D02*
X151716928Y-124504072D01*
X146520677Y-128279323D02*
X150295928Y-124504072D01*
X146520677Y-129539650D02*
X146520677Y-128279323D01*
X147350002Y-134800002D02*
X146520677Y-133970677D01*
X148720998Y-134800002D02*
X147350002Y-134800002D01*
X150366000Y-133155000D02*
X148720998Y-134800002D01*
X146520677Y-133970677D02*
X146520677Y-131300000D01*
X159691010Y-120700000D02*
X159241010Y-121150000D01*
X159241010Y-121150000D02*
X159241010Y-124050000D01*
X159241010Y-120700000D02*
X159241010Y-121150000D01*
X159850000Y-120700000D02*
X159241010Y-120700000D01*
X159691010Y-120700000D02*
X159241010Y-120250000D01*
X159850000Y-120700000D02*
X159691010Y-120700000D01*
X159241010Y-120250000D02*
X159241010Y-120700000D01*
X158799072Y-119508063D02*
X159241010Y-119950001D01*
X159241010Y-119950001D02*
X159241010Y-120250000D01*
X158799072Y-119499072D02*
X158799072Y-119508063D01*
X158300000Y-119000000D02*
X158799072Y-119499072D01*
X196610112Y-119600076D02*
X187499924Y-119600076D01*
X172707283Y-121700000D02*
X170657294Y-119650011D01*
X187499924Y-119600076D02*
X185400000Y-121700000D01*
X198260046Y-121250010D02*
X196610112Y-119600076D01*
X170657294Y-119650011D02*
X160899989Y-119650011D01*
X160899989Y-119650011D02*
X159850000Y-120700000D01*
X145166000Y-119030000D02*
X145796000Y-118400000D01*
X145166000Y-119655000D02*
X145166000Y-119030000D01*
X151300000Y-118400000D02*
X151850000Y-118950000D01*
X151850000Y-118950000D02*
X154600000Y-118950000D01*
X157199999Y-124547138D02*
X157600000Y-124147137D01*
X157199999Y-124550001D02*
X157199999Y-124547138D01*
X156800000Y-124950000D02*
X157199999Y-124550001D01*
X159143873Y-124147137D02*
X157600000Y-124147137D01*
X157600000Y-124147137D02*
X156490514Y-124147137D01*
X146900000Y-118596000D02*
X146900000Y-118400000D01*
X146466000Y-119030000D02*
X146900000Y-118596000D01*
X146466000Y-119655000D02*
X146466000Y-119030000D01*
X145796000Y-118400000D02*
X146900000Y-118400000D01*
X148396000Y-118400000D02*
X148450000Y-118400000D01*
X147766000Y-119030000D02*
X148396000Y-118400000D01*
X147766000Y-119655000D02*
X147766000Y-119030000D01*
X146900000Y-118400000D02*
X148450000Y-118400000D01*
X149696000Y-118400000D02*
X149950000Y-118400000D01*
X149066000Y-119030000D02*
X149696000Y-118400000D01*
X149066000Y-119655000D02*
X149066000Y-119030000D01*
X148450000Y-118400000D02*
X149950000Y-118400000D01*
X149950000Y-118400000D02*
X151300000Y-118400000D01*
X150996000Y-118400000D02*
X151300000Y-118400000D01*
X150366000Y-119030000D02*
X150996000Y-118400000D01*
X150366000Y-119655000D02*
X150366000Y-119030000D01*
X104435771Y-81550005D02*
X98649995Y-81550005D01*
X108237059Y-85351293D02*
X104435771Y-81550005D01*
X108237059Y-91428626D02*
X108237059Y-85351293D01*
X103550000Y-95550000D02*
X104115685Y-95550000D01*
X104115685Y-95550000D02*
X108237059Y-91428626D01*
X94962941Y-90848707D02*
X99014234Y-94900000D01*
X94962941Y-85237059D02*
X94962941Y-90848707D01*
X98649995Y-81550005D02*
X94962941Y-85237059D01*
X99014234Y-94900000D02*
X99400000Y-94900000D01*
X180635771Y-81550005D02*
X184437059Y-85351293D01*
X180286568Y-95000000D02*
X179100000Y-95000000D01*
X184437059Y-85351293D02*
X184437059Y-90849509D01*
X155800000Y-96600000D02*
X156900000Y-95500000D01*
X179100000Y-95000000D02*
X177550000Y-96550000D01*
X193450000Y-96550000D02*
X194900000Y-95100000D01*
X145838487Y-96599980D02*
X145838507Y-96600000D01*
X194900000Y-95100000D02*
X194900000Y-94850000D01*
X197850000Y-94900000D02*
X196350000Y-96400000D01*
X232149995Y-62500005D02*
X238135771Y-62500005D01*
X155899995Y-81550005D02*
X161650005Y-81550005D01*
X227800000Y-94900000D02*
X226250000Y-96450000D01*
X165387059Y-90849509D02*
X161236568Y-95000000D01*
X242050000Y-71700000D02*
X238000000Y-75750000D01*
X236550000Y-95700000D02*
X236550000Y-80029929D01*
X194900000Y-94850000D02*
X194050000Y-94850000D01*
X190212941Y-91012941D02*
X190212941Y-85350489D01*
X190212941Y-85350489D02*
X194063430Y-81500000D01*
X235800000Y-96450000D02*
X236550000Y-95700000D01*
X235450000Y-76950000D02*
X238100000Y-79600000D01*
X196350000Y-96400000D02*
X196500000Y-96400000D01*
X203500000Y-90836568D02*
X199436568Y-94900000D01*
X171162941Y-90962941D02*
X171162941Y-85137059D01*
X174749995Y-81550005D02*
X180635771Y-81550005D01*
X171162941Y-85137059D02*
X174749995Y-81550005D01*
X156900000Y-94950000D02*
X155900000Y-94950000D01*
X184437059Y-90849509D02*
X180286568Y-95000000D01*
X155900000Y-94950000D02*
X152050000Y-91100000D01*
X194063430Y-81500000D02*
X199635766Y-81500000D01*
X145838507Y-96600000D02*
X155800000Y-96600000D01*
X152050000Y-85413430D02*
X155863430Y-81600000D01*
X152050000Y-91100000D02*
X152050000Y-85413430D01*
X155863430Y-81600000D02*
X155863430Y-81586570D01*
X175950000Y-95500000D02*
X175950000Y-95000000D01*
X161650005Y-81550005D02*
X165387059Y-85287059D01*
X196500000Y-96400000D02*
X196700000Y-96600000D01*
X199635766Y-81500000D02*
X203500000Y-85364234D01*
X238000000Y-75750000D02*
X235450000Y-75750000D01*
X225100000Y-94750000D02*
X221562941Y-91212941D01*
X175200000Y-95000000D02*
X171162941Y-90962941D01*
X155863430Y-81586570D02*
X155899995Y-81550005D01*
X175950000Y-95000000D02*
X175200000Y-95000000D01*
X203500000Y-85364234D02*
X203500000Y-90836568D01*
X165387059Y-85287059D02*
X165387059Y-90849509D01*
X234837059Y-85287059D02*
X234837059Y-90862941D01*
X231100005Y-81550005D02*
X234837059Y-85287059D01*
X238100000Y-79600000D02*
X238100000Y-96300000D01*
X238135771Y-62500005D02*
X242050000Y-66414234D01*
X225363425Y-81550005D02*
X231100005Y-81550005D01*
X242050000Y-66414234D02*
X242050000Y-71700000D01*
X228662941Y-72142870D02*
X228662941Y-65987059D01*
X221550000Y-85363430D02*
X225363425Y-81550005D01*
X223800000Y-96600000D02*
X225650000Y-94750000D01*
X156900000Y-95500000D02*
X156900000Y-94950000D01*
X194050000Y-94850000D02*
X190212941Y-91012941D01*
X199436568Y-94900000D02*
X197850000Y-94900000D01*
X221550000Y-85524118D02*
X221550000Y-85363430D01*
X225650000Y-94750000D02*
X225100000Y-94750000D01*
X221562941Y-91212941D02*
X221562941Y-85537059D01*
X221562941Y-85537059D02*
X221550000Y-85524118D01*
X174800000Y-96650000D02*
X175950000Y-95500000D01*
X234837059Y-90862941D02*
X230800000Y-94900000D01*
X230800000Y-94900000D02*
X227800000Y-94900000D01*
X228662941Y-65987059D02*
X232149995Y-62500005D01*
X161236568Y-95000000D02*
X162886568Y-96650000D01*
X235450000Y-75750000D02*
X235450000Y-76950000D01*
D21*
X118898543Y-98000000D02*
X118848532Y-97949989D01*
X103499999Y-98000001D02*
X103100000Y-98400000D01*
X236400000Y-98000000D02*
X118898543Y-98000000D01*
X112499989Y-97949989D02*
X111750000Y-97200000D01*
X118848532Y-97949989D02*
X112499989Y-97949989D01*
X104300000Y-97200000D02*
X103499999Y-98000001D01*
X111750000Y-97200000D02*
X104300000Y-97200000D01*
D20*
X237550000Y-97250000D02*
X237150000Y-97250000D01*
X247137059Y-104401293D02*
X243085766Y-100350000D01*
X247137059Y-109899509D02*
X247137059Y-104401293D01*
X237664229Y-113699995D02*
X243336573Y-113699995D01*
X233850000Y-109885766D02*
X237664229Y-113699995D01*
X233850000Y-104413430D02*
X233850000Y-109885766D01*
X237813430Y-100450000D02*
X233850000Y-104413430D01*
X235500000Y-99650000D02*
X237750000Y-99650000D01*
X235200000Y-100448002D02*
X235200000Y-99950000D01*
X234148001Y-101500001D02*
X235200000Y-100448002D01*
X232550001Y-101500001D02*
X234148001Y-101500001D01*
X230700000Y-99650000D02*
X232550001Y-101500001D01*
X222350000Y-100150000D02*
X222850000Y-99650000D01*
X222350000Y-100548002D02*
X222350000Y-100150000D01*
X220101999Y-101500001D02*
X221398001Y-101500001D01*
X218151998Y-99550000D02*
X220101999Y-101500001D01*
X213300000Y-99550000D02*
X218151998Y-99550000D01*
X214250000Y-100500000D02*
X213300000Y-99550000D01*
X216485766Y-100500000D02*
X214250000Y-100500000D01*
X220400000Y-104414234D02*
X216485766Y-100500000D01*
X220400000Y-109886568D02*
X220400000Y-104414234D01*
X216386568Y-113900000D02*
X220400000Y-109886568D01*
X211114234Y-113900000D02*
X216386568Y-113900000D01*
X207112941Y-109898707D02*
X211114234Y-113900000D01*
X207112941Y-104087059D02*
X207112941Y-109898707D01*
X210750000Y-100450000D02*
X207112941Y-104087059D01*
X211800000Y-100450000D02*
X210750000Y-100450000D01*
X211098002Y-99748002D02*
X211800000Y-100450000D01*
X194498001Y-101500001D02*
X196250000Y-99748002D01*
X193100001Y-101500001D02*
X194498001Y-101500001D01*
X191200000Y-99600000D02*
X193100001Y-101500001D01*
X187100000Y-99600000D02*
X191200000Y-99600000D01*
X186700000Y-100000000D02*
X187100000Y-99600000D01*
X186700000Y-100350000D02*
X186700000Y-100000000D01*
X189435766Y-100350000D02*
X186700000Y-100350000D01*
X193500000Y-104414234D02*
X189435766Y-100350000D01*
X193500000Y-109886568D02*
X193500000Y-104414234D01*
X189686573Y-113699995D02*
X193500000Y-109886568D01*
X183899995Y-113699995D02*
X189686573Y-113699995D01*
X180212941Y-110012941D02*
X183899995Y-113699995D01*
X180212941Y-104400489D02*
X180212941Y-110012941D01*
X184213430Y-100400000D02*
X180212941Y-104400489D01*
X184950000Y-100400000D02*
X184213430Y-100400000D01*
X184950000Y-100050000D02*
X184950000Y-100400000D01*
X184450000Y-99550000D02*
X184950000Y-100050000D01*
X176551998Y-100398002D02*
X177400000Y-99550000D01*
X176550000Y-100398002D02*
X176551998Y-100398002D01*
X175448001Y-101500001D02*
X176550000Y-100398002D01*
X174151999Y-101500001D02*
X175448001Y-101500001D01*
X172151998Y-99500000D02*
X174151999Y-101500001D01*
X168300000Y-99500000D02*
X172151998Y-99500000D01*
X129850005Y-100600005D02*
X129600000Y-100350000D01*
X132700005Y-100600005D02*
X129850005Y-100600005D01*
X165950000Y-100450000D02*
X165550000Y-100850000D01*
X136400000Y-104300000D02*
X132700005Y-100600005D01*
X132500000Y-113750000D02*
X136400000Y-109850000D01*
X155400000Y-109950000D02*
X155400000Y-104250000D01*
X126800000Y-113750000D02*
X132500000Y-113750000D01*
X157801998Y-100148002D02*
X158450000Y-99500000D01*
X237750000Y-99650000D02*
X238550000Y-100450000D01*
X126950000Y-100450000D02*
X123062941Y-104337059D01*
X145964234Y-113750000D02*
X151600000Y-113750000D01*
X127350000Y-100450000D02*
X126950000Y-100450000D01*
X148600000Y-99450000D02*
X153100000Y-99450000D01*
X126850000Y-99550000D02*
X127350000Y-100050000D01*
X119100000Y-100698002D02*
X119100000Y-100150000D01*
X238550000Y-100450000D02*
X237813430Y-100450000D01*
X123062941Y-110012941D02*
X126800000Y-113750000D01*
X118248002Y-101550000D02*
X119100000Y-100698002D01*
X117051998Y-101550000D02*
X118248002Y-101550000D01*
X155150001Y-101500001D02*
X156398001Y-101500001D01*
X114901998Y-99400000D02*
X117051998Y-101550000D01*
X142100000Y-109885766D02*
X145964234Y-113750000D01*
X127350000Y-100050000D02*
X127350000Y-100450000D01*
X167800000Y-100000000D02*
X168300000Y-99500000D01*
X110750000Y-99400000D02*
X114901998Y-99400000D01*
X110550000Y-99600000D02*
X110750000Y-99400000D01*
X221398001Y-101500001D02*
X222350000Y-100548002D01*
X108600000Y-100750000D02*
X107650000Y-100750000D01*
X108850000Y-100500000D02*
X108600000Y-100750000D01*
X110550000Y-100350000D02*
X110550000Y-99600000D01*
X148550000Y-99500000D02*
X148600000Y-99450000D01*
X243085766Y-100350000D02*
X240650000Y-100350000D01*
X108850000Y-99650000D02*
X108850000Y-100500000D01*
X108550000Y-99350000D02*
X108850000Y-99650000D01*
X167800000Y-100550000D02*
X167800000Y-100000000D01*
X235200000Y-99950000D02*
X235500000Y-99650000D01*
X123062941Y-104337059D02*
X123062941Y-110012941D01*
X103800000Y-100700000D02*
X105150000Y-99350000D01*
X136400000Y-109850000D02*
X136400000Y-104300000D01*
X105150000Y-99350000D02*
X108550000Y-99350000D01*
X119100000Y-100150000D02*
X119700000Y-99550000D01*
X161150000Y-104400000D02*
X161150000Y-110100000D01*
X107650000Y-100750000D02*
X103850000Y-104550000D01*
X103850000Y-104550000D02*
X103850000Y-109900000D01*
X113550000Y-113700000D02*
X117400000Y-109850000D01*
X103850000Y-109900000D02*
X107650000Y-113700000D01*
X117400000Y-109850000D02*
X117400000Y-104350000D01*
X107650000Y-113700000D02*
X113550000Y-113700000D01*
X164800000Y-113750000D02*
X170700000Y-113750000D01*
X117400000Y-104350000D02*
X113600000Y-100550000D01*
X110750000Y-100550000D02*
X110550000Y-100350000D01*
X113600000Y-100550000D02*
X110750000Y-100550000D01*
X129600000Y-100350000D02*
X129600000Y-99850000D01*
X129600000Y-99850000D02*
X129850000Y-99600000D01*
X167749995Y-100600005D02*
X167800000Y-100550000D01*
X129850000Y-99600000D02*
X134151998Y-99600000D01*
X134151998Y-99600000D02*
X136051999Y-101500001D01*
X136051999Y-101500001D02*
X137549999Y-101500001D01*
X137549999Y-101500001D02*
X139350000Y-99700000D01*
X243336573Y-113699995D02*
X247137059Y-109899509D01*
X146100000Y-99700000D02*
X146500000Y-100100000D01*
X142100000Y-104400000D02*
X142100000Y-109885766D01*
X146500000Y-100100000D02*
X146500000Y-100600005D01*
X146500000Y-100600005D02*
X145899995Y-100600005D01*
X145899995Y-100600005D02*
X142100000Y-104400000D01*
X151600000Y-113750000D02*
X155400000Y-109950000D01*
X155400000Y-104250000D02*
X151650000Y-100500000D01*
X151650000Y-100500000D02*
X149550000Y-100500000D01*
X149550000Y-100500000D02*
X148550000Y-99500000D01*
X153100000Y-99450000D02*
X155150001Y-101500001D01*
X156398001Y-101500001D02*
X157750000Y-100148002D01*
X157750000Y-100148002D02*
X157801998Y-100148002D01*
X165750000Y-99500000D02*
X165950000Y-99700000D01*
X165950000Y-99700000D02*
X165950000Y-100450000D01*
X165550000Y-100850000D02*
X164700000Y-100850000D01*
X164700000Y-100850000D02*
X161150000Y-104400000D01*
X161150000Y-110100000D02*
X164800000Y-113750000D01*
X170700000Y-113750000D02*
X174500000Y-109950000D01*
X174500000Y-109950000D02*
X174500000Y-104400000D01*
X174500000Y-104400000D02*
X170700005Y-100600005D01*
X170700005Y-100600005D02*
X167749995Y-100600005D01*
X237850000Y-96850000D02*
X237700000Y-96700000D01*
X237850000Y-97550000D02*
X237850000Y-96850000D01*
X237700000Y-96700000D02*
X237150000Y-97250000D01*
X238100000Y-96300000D02*
X237700000Y-96700000D01*
X237850000Y-97550000D02*
X237550000Y-97250000D01*
X238000000Y-98000000D02*
X238150000Y-97850000D01*
X238150000Y-97850000D02*
X237850000Y-97550000D01*
X240650000Y-100350000D02*
X238150000Y-97850000D01*
X237000000Y-98000000D02*
X237050000Y-98000000D01*
X236400000Y-98000000D02*
X237000000Y-98000000D01*
X237000000Y-98000000D02*
X238000000Y-98000000D01*
X237050000Y-98000000D02*
X237200000Y-97850000D01*
X237200000Y-97600000D02*
X237550000Y-97250000D01*
X237200000Y-97850000D02*
X237200000Y-97600000D01*
X237750000Y-97650000D02*
X237850000Y-97550000D01*
X236750000Y-97650000D02*
X237750000Y-97650000D01*
D21*
X237150000Y-97250000D02*
X236750000Y-97650000D01*
X236750000Y-97650000D02*
X236400000Y-98000000D01*
D20*
X236400000Y-98000000D02*
X237150000Y-97250000D01*
X238000000Y-96400000D02*
X238100000Y-96300000D01*
X238000000Y-98000000D02*
X238000000Y-96400000D01*
X120400000Y-99950000D02*
X120800000Y-99550000D01*
X120400000Y-100150000D02*
X120400000Y-99950000D01*
X120800000Y-99550000D02*
X126850000Y-99550000D01*
X120400000Y-99550000D02*
X120800000Y-99550000D01*
X120400000Y-99550000D02*
X120400000Y-100150000D01*
X120400000Y-100150000D02*
X120400000Y-100650000D01*
X120400000Y-100000000D02*
X119950000Y-99550000D01*
X120400000Y-100150000D02*
X120400000Y-100000000D01*
X119700000Y-99550000D02*
X119950000Y-99550000D01*
X119950000Y-99550000D02*
X120400000Y-99550000D01*
X140600000Y-99700000D02*
X140600000Y-100500000D01*
X139350000Y-99700000D02*
X140600000Y-99700000D01*
X140600000Y-99700000D02*
X146100000Y-99700000D01*
X159550000Y-99500000D02*
X160000000Y-99950000D01*
X159350000Y-99500000D02*
X159550000Y-99500000D01*
X160000000Y-99950000D02*
X160000000Y-100500000D01*
X160000000Y-99500000D02*
X160000000Y-99950000D01*
X158450000Y-99500000D02*
X159350000Y-99500000D01*
X159350000Y-99500000D02*
X160000000Y-99500000D01*
X160000000Y-99950000D02*
X160450000Y-99500000D01*
X160000000Y-99500000D02*
X160450000Y-99500000D01*
X160450000Y-99500000D02*
X165750000Y-99500000D01*
X179850000Y-99550000D02*
X184450000Y-99550000D01*
X179500000Y-99550000D02*
X179850000Y-99550000D01*
X179500000Y-99550000D02*
X179500000Y-100000000D01*
X179500000Y-100000000D02*
X179500000Y-100500000D01*
X179050000Y-99550000D02*
X179500000Y-100000000D01*
X177400000Y-99550000D02*
X179050000Y-99550000D01*
X179050000Y-99550000D02*
X179500000Y-99550000D01*
X179500000Y-99900000D02*
X179850000Y-99550000D01*
X179500000Y-100000000D02*
X179500000Y-99900000D01*
X203398002Y-100200000D02*
X203850000Y-99748002D01*
X203300000Y-100200000D02*
X203398002Y-100200000D01*
X203850000Y-99748002D02*
X211098002Y-99748002D01*
X203300000Y-99748002D02*
X203850000Y-99748002D01*
X203300000Y-99748002D02*
X203300000Y-100200000D01*
X203300000Y-100200000D02*
X203300000Y-100750000D01*
X203101998Y-100200000D02*
X202650000Y-99748002D01*
X203300000Y-100200000D02*
X203101998Y-100200000D01*
X196250000Y-99748002D02*
X202650000Y-99748002D01*
X202650000Y-99748002D02*
X203300000Y-99748002D01*
X227200000Y-99650000D02*
X227200000Y-100850000D01*
X222850000Y-99650000D02*
X227200000Y-99650000D01*
X227200000Y-99650000D02*
X230700000Y-99650000D01*
X113001999Y-96450001D02*
X112101998Y-95550000D01*
X118100000Y-95200000D02*
X116849999Y-96450001D01*
X118100000Y-94500000D02*
X118100000Y-95200000D01*
X117650000Y-94050000D02*
X118100000Y-94500000D01*
X117200000Y-94050000D02*
X117650000Y-94050000D01*
X117799995Y-81550005D02*
X114000000Y-85350000D01*
X127287059Y-85287059D02*
X123550005Y-81550005D01*
X123500005Y-94649995D02*
X127287059Y-90862941D01*
X114000000Y-90850000D02*
X117200000Y-94050000D01*
X119950000Y-95199990D02*
X120499995Y-94649995D01*
X120099990Y-95199990D02*
X119950000Y-95199990D01*
X121599978Y-96699978D02*
X120099990Y-95199990D01*
X146337059Y-91412941D02*
X146337059Y-85351293D01*
X143050000Y-94700000D02*
X146337059Y-91412941D01*
X137150000Y-94950000D02*
X137150000Y-95450000D01*
X123550005Y-81550005D02*
X117799995Y-81550005D01*
X140600000Y-94700000D02*
X143050000Y-94700000D01*
X114000000Y-85350000D02*
X114000000Y-90850000D01*
X138850000Y-96450000D02*
X140600000Y-94700000D01*
X139000000Y-96600000D02*
X138850000Y-96450000D01*
X133050000Y-85600000D02*
X133062941Y-85612941D01*
X146337059Y-85351293D02*
X142535771Y-81550005D01*
X142535771Y-81550005D02*
X136863425Y-81550005D01*
X136863425Y-81550005D02*
X133050000Y-85363430D01*
X133050000Y-85363430D02*
X133050000Y-85600000D01*
X133062941Y-85612941D02*
X133062941Y-90862941D01*
X133062941Y-90862941D02*
X137150000Y-94950000D01*
X127287059Y-90862941D02*
X127287059Y-85287059D01*
X137150000Y-95450000D02*
X135900022Y-96699978D01*
X120499995Y-94649995D02*
X123500005Y-94649995D01*
X152150000Y-75850000D02*
X152450000Y-76150000D01*
X243287349Y-43400000D02*
X237713029Y-43400000D01*
X160887576Y-66300227D02*
X156887349Y-62300000D01*
X189513024Y-62500005D02*
X185400000Y-66613029D01*
X118550000Y-76250000D02*
X122787576Y-72012424D01*
X154100000Y-77600000D02*
X154100000Y-76250000D01*
X122787576Y-66300227D02*
X118987354Y-62500005D01*
X135500000Y-75900000D02*
X138050000Y-75900000D01*
X156887349Y-62300000D02*
X151613029Y-62300000D01*
X194736971Y-76050000D02*
X198987576Y-71799395D01*
X170500000Y-75800000D02*
X170500000Y-77400000D01*
X170563029Y-62400000D02*
X166662424Y-66300605D01*
X176037349Y-62400000D02*
X170563029Y-62400000D01*
X179937576Y-71799395D02*
X179937576Y-66300227D01*
X175986971Y-75750000D02*
X179937576Y-71799395D01*
X152450000Y-77450000D02*
X152050000Y-77850000D01*
X115950000Y-77450000D02*
X115950000Y-76250000D01*
X166662424Y-66300605D02*
X166662424Y-71962424D01*
X173150000Y-75750000D02*
X175986971Y-75750000D01*
X138037354Y-62500005D02*
X132099995Y-62500005D01*
X172250000Y-76650000D02*
X173150000Y-75750000D01*
X147612424Y-71812424D02*
X151650000Y-75850000D01*
X172250000Y-77700000D02*
X172250000Y-76650000D01*
X172500000Y-77950000D02*
X172250000Y-77700000D01*
X189950000Y-76800000D02*
X188800000Y-77950000D01*
X189950000Y-76100000D02*
X189950000Y-76800000D01*
X185400000Y-71550000D02*
X189950000Y-76100000D01*
X195187354Y-62500005D02*
X189513024Y-62500005D01*
X116450000Y-77950000D02*
X115950000Y-77450000D01*
X198987576Y-66300227D02*
X195187354Y-62500005D01*
X198987576Y-71799395D02*
X198987576Y-66300227D01*
X192250000Y-76900000D02*
X193100000Y-76050000D01*
X192550000Y-77850000D02*
X192250000Y-77550000D01*
X109500000Y-71800000D02*
X113350000Y-75650000D01*
X115950000Y-76250000D02*
X118550000Y-76250000D01*
X151650000Y-75850000D02*
X152150000Y-75850000D01*
X227650010Y-57559025D02*
X233009035Y-52200000D01*
X185400000Y-66613029D02*
X185400000Y-71550000D01*
X157000000Y-75800000D02*
X160887576Y-71912424D01*
X109500000Y-66313029D02*
X109500000Y-71800000D01*
X209150000Y-76200000D02*
X209150000Y-76600000D01*
X170500000Y-77400000D02*
X169950000Y-77950000D01*
X219089953Y-78600010D02*
X227650010Y-70039953D01*
X214187349Y-62450000D02*
X208613029Y-62450000D01*
X154450000Y-77950000D02*
X154100000Y-77600000D01*
X227650010Y-70039953D02*
X227650010Y-57559025D01*
X133349999Y-77400001D02*
X132800000Y-77950000D01*
X147612424Y-66300605D02*
X147612424Y-71812424D01*
X179937576Y-66300227D02*
X176037349Y-62400000D01*
X189379908Y-79350022D02*
X189479908Y-79250022D01*
X113313024Y-62500005D02*
X109500000Y-66313029D01*
X208479908Y-79250022D02*
X209129919Y-78600011D01*
X154100000Y-76250000D02*
X154550000Y-75800000D01*
X237713029Y-43400000D02*
X233500000Y-47613029D01*
X237599995Y-56549995D02*
X243336976Y-56549995D01*
X218037576Y-71962424D02*
X218037576Y-66300227D01*
X204762424Y-66300605D02*
X204762424Y-71812424D01*
X189479908Y-79250022D02*
X208479908Y-79250022D01*
X94300000Y-84050000D02*
X94300000Y-79950000D01*
X208613029Y-62450000D02*
X204762424Y-66300605D01*
X132099995Y-62500005D02*
X128400000Y-66200000D01*
X94300000Y-79950000D02*
X94850000Y-79400000D01*
X94850000Y-79400000D02*
X166120114Y-79400000D01*
X243336976Y-56549995D02*
X247137576Y-52749395D01*
X154550000Y-75800000D02*
X157000000Y-75800000D01*
X166120114Y-79400000D02*
X166170092Y-79350022D01*
X138050000Y-75900000D02*
X141837576Y-72112424D01*
X233009035Y-52200000D02*
X233250000Y-52200000D01*
X233500000Y-47613029D02*
X233500000Y-49600000D01*
X166170092Y-79350022D02*
X189379908Y-79350022D01*
X226200000Y-69300000D02*
X218350000Y-77150000D01*
X166662424Y-71962424D02*
X170500000Y-75800000D01*
X247137576Y-52749395D02*
X247137576Y-47250227D01*
X247137576Y-47250227D02*
X243287349Y-43400000D01*
X233250000Y-52200000D02*
X237599995Y-56549995D01*
X160887576Y-71912424D02*
X160887576Y-66300227D01*
X209129919Y-78600011D02*
X219089953Y-78600010D01*
X204762424Y-71812424D02*
X209150000Y-76200000D01*
X226200000Y-56900000D02*
X226200000Y-69300000D01*
X133150000Y-75950000D02*
X133500000Y-76300000D01*
X192250000Y-77550000D02*
X192250000Y-76900000D01*
X193100000Y-76050000D02*
X194736971Y-76050000D01*
X214750000Y-77150000D02*
X213800000Y-76200000D01*
X218037576Y-66300227D02*
X214187349Y-62450000D01*
X213800000Y-76200000D02*
X218037576Y-71962424D01*
X151613029Y-62300000D02*
X147612424Y-66300605D01*
X209150000Y-76600000D02*
X207900000Y-77850000D01*
X152450000Y-76150000D02*
X152450000Y-77450000D01*
X135650000Y-77850000D02*
X135150000Y-77350000D01*
X135150000Y-77350000D02*
X135150000Y-76250000D01*
X135150000Y-76250000D02*
X135500000Y-75900000D01*
X141837576Y-72112424D02*
X141837576Y-66300227D01*
X141837576Y-66300227D02*
X138037354Y-62500005D01*
X128400000Y-66200000D02*
X128400000Y-71650000D01*
X133500000Y-77250000D02*
X133349999Y-77400001D01*
X128400000Y-71650000D02*
X132700000Y-75950000D01*
X132700000Y-75950000D02*
X133150000Y-75950000D01*
X133500000Y-76300000D02*
X133500000Y-77250000D01*
X122787576Y-72012424D02*
X122787576Y-66300227D01*
X118987354Y-62500005D02*
X113313024Y-62500005D01*
X113350000Y-75650000D02*
X114100000Y-75650000D01*
X114100000Y-75650000D02*
X114450000Y-76000000D01*
X114450000Y-76000000D02*
X114450000Y-77200000D01*
X114450000Y-77200000D02*
X113700000Y-77950000D01*
X97700000Y-77950000D02*
X96950000Y-77200000D01*
X96950000Y-77200000D02*
X96950000Y-76100000D01*
X96950000Y-76100000D02*
X97500000Y-75550000D01*
X97549995Y-75599995D02*
X100050005Y-75599995D01*
X97500000Y-75550000D02*
X97549995Y-75599995D01*
X103737576Y-66300227D02*
X99887349Y-62450000D01*
X100050005Y-75599995D02*
X103737576Y-71912424D01*
X103737576Y-71912424D02*
X103737576Y-66300227D01*
X94313029Y-62450000D02*
X90400000Y-66363029D01*
X99887349Y-62450000D02*
X94313029Y-62450000D01*
X90400000Y-66363029D02*
X90400000Y-71900000D01*
X90400000Y-71900000D02*
X94300000Y-75800000D01*
X94300000Y-75800000D02*
X94950000Y-75800000D01*
X94950000Y-75800000D02*
X95200000Y-76050000D01*
X95200000Y-76050000D02*
X95200000Y-77350000D01*
X95200000Y-77350000D02*
X94800000Y-77750000D01*
X93650000Y-77750000D02*
X92450000Y-78950000D01*
X96448002Y-94950000D02*
X96550000Y-94950000D01*
X92450000Y-90951998D02*
X96448002Y-94950000D01*
X92450000Y-78950000D02*
X92450000Y-90951998D01*
X157650000Y-47263029D02*
X157650000Y-52737349D01*
X107150000Y-57850000D02*
X107150000Y-57100000D01*
X92450000Y-78950000D02*
X92450000Y-74800000D01*
X104000000Y-56550000D02*
X104700000Y-56550000D01*
X92450000Y-74800000D02*
X88700000Y-71050000D01*
X88700000Y-71050000D02*
X88700000Y-60750000D01*
X88700000Y-60750000D02*
X89500000Y-59950000D01*
X89500000Y-59950000D02*
X98400028Y-59950000D01*
X98400028Y-59950000D02*
X98450027Y-59999999D01*
X126150000Y-58100000D02*
X126150000Y-57200000D01*
X98450027Y-59999999D02*
X104060036Y-59999999D01*
X200450000Y-57850000D02*
X199949999Y-58350001D01*
X104060036Y-59999999D02*
X104110047Y-60050010D01*
X104110047Y-60050010D02*
X219539953Y-60050010D01*
X167137349Y-43450000D02*
X161463029Y-43450000D01*
X219539953Y-60050010D02*
X221150008Y-58439954D01*
X221150008Y-58439954D02*
X221150008Y-57249992D01*
X176700000Y-52750000D02*
X180500000Y-56550000D01*
X100350000Y-52900000D02*
X104000000Y-56550000D01*
X221150008Y-57249992D02*
X221700000Y-56700000D01*
X132837576Y-47250227D02*
X129037354Y-43450005D01*
X221700000Y-56700000D02*
X224200000Y-56700000D01*
X224200000Y-56700000D02*
X228087576Y-52812424D01*
X123363024Y-43450005D02*
X119500000Y-47313029D01*
X228087576Y-52812424D02*
X228087576Y-47250227D01*
X105250000Y-57100000D02*
X105250000Y-57850000D01*
X228087576Y-47250227D02*
X224287354Y-43450005D01*
X181550000Y-56900000D02*
X181550000Y-57700000D01*
X143400000Y-57900000D02*
X142949999Y-58350001D01*
X224287354Y-43450005D02*
X218613024Y-43450005D01*
X218613024Y-43450005D02*
X214850000Y-47213029D01*
X107715059Y-56549995D02*
X109986976Y-56549995D01*
X214850000Y-47213029D02*
X214836971Y-47213029D01*
X145700000Y-56650000D02*
X147986971Y-56650000D01*
X214836971Y-47213029D02*
X214812424Y-47237576D01*
X183500000Y-58100000D02*
X183500000Y-56950000D01*
X107150000Y-57100000D02*
X107707532Y-56542468D01*
X214812424Y-47237576D02*
X214812424Y-52812424D01*
X190050000Y-47312651D02*
X186187354Y-43450005D01*
X151887576Y-47250227D02*
X147987349Y-43350000D01*
X214812424Y-52812424D02*
X218750000Y-56750000D01*
X218750000Y-56750000D02*
X219200000Y-56750000D01*
X104313029Y-43450000D02*
X100350000Y-47413029D01*
X219200000Y-56750000D02*
X219600000Y-57150000D01*
X100350000Y-47413029D02*
X100350000Y-52900000D01*
X219600000Y-57150000D02*
X219600000Y-57850000D01*
X143400000Y-57100000D02*
X143400000Y-57900000D01*
X219600000Y-57850000D02*
X219100000Y-58350000D01*
X181550000Y-57700000D02*
X180899999Y-58350001D01*
X94800000Y-47312651D02*
X90937354Y-43450005D01*
X202800000Y-58350000D02*
X202300000Y-57850000D01*
X202300000Y-57850000D02*
X202300000Y-57200000D01*
X147987349Y-43350000D02*
X142513029Y-43350000D01*
X171000000Y-47312651D02*
X167137349Y-43450000D01*
X209037576Y-47137576D02*
X205350005Y-43450005D01*
X161463029Y-43450000D02*
X157650000Y-47263029D01*
X87950000Y-57000000D02*
X88400000Y-56550000D01*
X157650000Y-52737349D02*
X161312651Y-56400000D01*
X162150000Y-56400000D02*
X162500000Y-56750000D01*
X104700000Y-56550000D02*
X105250000Y-57100000D01*
X186187354Y-43450005D02*
X180513024Y-43450005D01*
X145950001Y-58350001D02*
X145300000Y-57700000D01*
X145300000Y-57700000D02*
X145300000Y-57050000D01*
X145300000Y-57050000D02*
X145700000Y-56650000D01*
X87950000Y-57720070D02*
X87950000Y-57000000D01*
X200150000Y-56700000D02*
X200450000Y-57000000D01*
X109986976Y-56549995D02*
X113900000Y-52636971D01*
X161312651Y-56400000D02*
X162150000Y-56400000D01*
X88400000Y-56550000D02*
X90936971Y-56550000D01*
X162500000Y-57450000D02*
X161599999Y-58350001D01*
X147986971Y-56650000D02*
X151887576Y-52749395D01*
X138612424Y-52962424D02*
X142350000Y-56700000D01*
X94800000Y-52686971D02*
X94800000Y-47312651D01*
X107650001Y-58350001D02*
X107150000Y-57850000D01*
X128936971Y-56650000D02*
X132837576Y-52749395D01*
X162500000Y-56750000D02*
X162500000Y-57450000D01*
X113900000Y-47362651D02*
X109987349Y-43450000D01*
X109987349Y-43450000D02*
X104313029Y-43450000D01*
X151887576Y-52749395D02*
X151887576Y-47250227D01*
X90937354Y-43450005D02*
X85199995Y-43450005D01*
X126150000Y-57200000D02*
X126700000Y-56650000D01*
X81462424Y-47187576D02*
X81462424Y-53212424D01*
X105250000Y-57850000D02*
X104749999Y-58350001D01*
X164300000Y-57800000D02*
X164300000Y-57200000D01*
X195750000Y-47263029D02*
X195750000Y-52737349D01*
X142513029Y-43350000D02*
X138612424Y-47250605D01*
X85199995Y-43450005D02*
X81462424Y-47187576D01*
X124050000Y-56650000D02*
X124400000Y-57000000D01*
X164300000Y-57200000D02*
X164850000Y-56650000D01*
X202300000Y-57200000D02*
X202800000Y-56700000D01*
X132837576Y-52749395D02*
X132837576Y-47250227D01*
X119500000Y-52850000D02*
X123300000Y-56650000D01*
X126700000Y-56650000D02*
X128936971Y-56650000D01*
X143000000Y-56700000D02*
X143400000Y-57100000D01*
X142350000Y-56700000D02*
X143000000Y-56700000D01*
X199563024Y-43450005D02*
X195750000Y-47263029D01*
X129037354Y-43450005D02*
X123363024Y-43450005D01*
X164850001Y-58350001D02*
X164300000Y-57800000D01*
X181200000Y-56550000D02*
X181550000Y-56900000D01*
X119500000Y-47313029D02*
X119500000Y-52850000D01*
X180500000Y-56550000D02*
X181200000Y-56550000D01*
X124400000Y-57000000D02*
X124400000Y-57900000D01*
X180513024Y-43450005D02*
X176700000Y-47263029D01*
X123300000Y-56650000D02*
X124050000Y-56650000D01*
X190050000Y-52686971D02*
X190050000Y-47312651D01*
X90936971Y-56550000D02*
X94800000Y-52686971D01*
X183900000Y-56550000D02*
X186186971Y-56550000D01*
X186186971Y-56550000D02*
X190050000Y-52686971D01*
X199712651Y-56700000D02*
X200150000Y-56700000D01*
X138612424Y-47250605D02*
X138612424Y-52962424D01*
X183500000Y-56950000D02*
X183900000Y-56550000D01*
X113900000Y-52636971D02*
X113900000Y-47362651D01*
X183750001Y-58350001D02*
X183500000Y-58100000D01*
X107707532Y-56542468D02*
X107715059Y-56549995D01*
X200450000Y-57000000D02*
X200450000Y-57850000D01*
X126400001Y-58350001D02*
X126150000Y-58100000D01*
X195750000Y-52737349D02*
X199712651Y-56700000D01*
X167036971Y-56650000D02*
X171000000Y-52686971D01*
X205350005Y-43450005D02*
X199563024Y-43450005D01*
X209037576Y-52749395D02*
X209037576Y-47137576D01*
X124400000Y-57900000D02*
X123949999Y-58350001D01*
X88579931Y-58350001D02*
X87950000Y-57720070D01*
X164850000Y-56650000D02*
X167036971Y-56650000D01*
X205086971Y-56700000D02*
X209037576Y-52749395D01*
X171000000Y-52686971D02*
X171000000Y-47312651D01*
X176700000Y-47263029D02*
X176700000Y-52750000D01*
X202800000Y-56700000D02*
X205086971Y-56700000D01*
X86900000Y-58650000D02*
X86900000Y-71650000D01*
X86900000Y-71650000D02*
X89350000Y-74100000D01*
X174437576Y-123137576D02*
X174437576Y-129012424D01*
X173000000Y-121700000D02*
X174437576Y-123137576D01*
X185400000Y-121700000D02*
X173000000Y-121700000D01*
X173000000Y-121700000D02*
X172707283Y-121700000D01*
X174437576Y-129012424D02*
X170650000Y-132800000D01*
X170650000Y-132800000D02*
X168150000Y-132800000D01*
X168150000Y-132800000D02*
X167600000Y-133350000D01*
X167600000Y-133350000D02*
X167600000Y-134550000D01*
X167600000Y-134550000D02*
X168200000Y-135150000D01*
X189450000Y-135150000D02*
X190400000Y-134200000D01*
X190400000Y-134200000D02*
X190400000Y-133100000D01*
X190400000Y-133100000D02*
X189800000Y-132500000D01*
X189800000Y-132500000D02*
X189250000Y-132500000D01*
X189250000Y-132500000D02*
X185650000Y-128900000D01*
X189513024Y-119650005D02*
X195300005Y-119650005D01*
X185650000Y-128900000D02*
X185650000Y-123513029D01*
X185650000Y-123513029D02*
X189513024Y-119650005D01*
X198987576Y-123337576D02*
X198987576Y-129312424D01*
X195300005Y-119650005D02*
X198987576Y-123337576D01*
X195550005Y-132749995D02*
X192500005Y-132749995D01*
X198987576Y-129312424D02*
X195550005Y-132749995D01*
X192500005Y-132749995D02*
X192150000Y-133100000D01*
X192150000Y-133100000D02*
X192150000Y-134550000D01*
X192150000Y-134550000D02*
X190100000Y-136600000D01*
X190100000Y-136600000D02*
X187800000Y-136600000D01*
X187800000Y-136600000D02*
X177250000Y-136600000D01*
X177250000Y-136600000D02*
X167150000Y-136600000D01*
X164500000Y-132500000D02*
X165300000Y-132500000D01*
X160857487Y-135049979D02*
X160291802Y-135049979D01*
X165300000Y-132500000D02*
X165950000Y-133150000D01*
X165950000Y-133150000D02*
X165950000Y-134250000D01*
X165950000Y-134250000D02*
X165150021Y-135049979D01*
X165150021Y-135049979D02*
X160857487Y-135049979D01*
X161162424Y-129162424D02*
X164500000Y-132500000D01*
X161162424Y-123237576D02*
X161162424Y-129162424D01*
X164749995Y-119650005D02*
X161162424Y-123237576D01*
X170657288Y-119650005D02*
X164749995Y-119650005D01*
X170657294Y-119650011D02*
X170657288Y-119650005D01*
X167150000Y-136600000D02*
X132650000Y-136600000D01*
X99410036Y-136599999D02*
X98999979Y-136189942D01*
X132650000Y-136600000D02*
X99410036Y-136599999D01*
X98999979Y-136189942D02*
X98989942Y-136189942D01*
X98989942Y-136189942D02*
X98250000Y-135450000D01*
X98250000Y-135450000D02*
X98250000Y-133050000D01*
X97462651Y-133050000D02*
X93350000Y-128937349D01*
X98250000Y-133050000D02*
X97462651Y-133050000D01*
X93350000Y-128937349D02*
X93350000Y-123400000D01*
X102837354Y-119650005D02*
X106700000Y-123512651D01*
X93350000Y-123400000D02*
X97099995Y-119650005D01*
X97099995Y-119650005D02*
X102837354Y-119650005D01*
X106700000Y-128886971D02*
X102586971Y-133000000D01*
X106700000Y-123512651D02*
X106700000Y-128886971D01*
X102586971Y-133000000D02*
X100500000Y-133000000D01*
X100500000Y-133000000D02*
X99750000Y-133750000D01*
X132150000Y-134950000D02*
X131550000Y-134350000D01*
X131550000Y-134350000D02*
X131550000Y-133450000D01*
X99750000Y-133750000D02*
X99750000Y-134550000D01*
X99750000Y-134550000D02*
X100300000Y-135100000D01*
X129000000Y-135100000D02*
X129750000Y-134350000D01*
X129750000Y-134350000D02*
X129750000Y-133400000D01*
X129750000Y-133400000D02*
X129250000Y-133400000D01*
X124912424Y-129062424D02*
X124912424Y-123387576D01*
X129250000Y-133400000D02*
X124912424Y-129062424D01*
X128649995Y-119650005D02*
X134400005Y-119650005D01*
X124912424Y-123387576D02*
X128649995Y-119650005D01*
X134400005Y-119650005D02*
X136750000Y-122000000D01*
X136750000Y-122000000D02*
X136800000Y-122000000D01*
X136800000Y-122000000D02*
X137200000Y-122400000D01*
X131550000Y-133450000D02*
X134250000Y-133450000D01*
X138450000Y-129250000D02*
X138450000Y-128550000D01*
X134250000Y-133450000D02*
X138450000Y-129250000D01*
X210350000Y-129350000D02*
X211650000Y-130650000D01*
X210350010Y-121950000D02*
X211050000Y-121250010D01*
X210350000Y-121950000D02*
X210350010Y-121950000D01*
X211050000Y-121250010D02*
X210350000Y-121250010D01*
X213821825Y-121250010D02*
X211050000Y-121250010D01*
X210350000Y-121250010D02*
X210350000Y-121950000D01*
X210350000Y-121950000D02*
X210350000Y-129350000D01*
X210350000Y-121800010D02*
X209800000Y-121250010D01*
X210350000Y-121950000D02*
X210350000Y-121800010D01*
X210350000Y-121250010D02*
X209800000Y-121250010D01*
X209800000Y-121250010D02*
X198260046Y-121250010D01*
X104600000Y-134350000D02*
X104650000Y-134300000D01*
X104600000Y-135100000D02*
X104600000Y-134350000D01*
X100300000Y-135100000D02*
X104600000Y-135100000D01*
X126600000Y-135000000D02*
X126700000Y-135100000D01*
X126600000Y-134250000D02*
X126600000Y-135000000D01*
X104600000Y-135100000D02*
X126700000Y-135100000D01*
X126700000Y-135100000D02*
X129000000Y-135100000D01*
X136350000Y-134150000D02*
X136400000Y-134100000D01*
X136050000Y-134950000D02*
X136350000Y-134650000D01*
X135800000Y-134950000D02*
X136050000Y-134950000D01*
X136350000Y-134650000D02*
X136350000Y-134150000D01*
X136350000Y-134950000D02*
X136350000Y-134650000D01*
X136350000Y-134950000D02*
X135800000Y-134950000D01*
X135800000Y-134950000D02*
X132150000Y-134950000D01*
X136550000Y-134650000D02*
X136850000Y-134950000D01*
X136350000Y-134650000D02*
X136550000Y-134650000D01*
X145550000Y-134950000D02*
X136850000Y-134950000D01*
X136850000Y-134950000D02*
X136350000Y-134950000D01*
X187600000Y-135150000D02*
X187600000Y-134350000D01*
X187600000Y-135150000D02*
X189450000Y-135150000D01*
X171550000Y-134300000D02*
X171600000Y-134250000D01*
X171550000Y-135150000D02*
X171550000Y-134300000D01*
X168200000Y-135150000D02*
X171550000Y-135150000D01*
X171550000Y-135150000D02*
X187600000Y-135150000D01*
X107050000Y-95550000D02*
X107050000Y-94750000D01*
X116100000Y-96450001D02*
X116100000Y-95650000D01*
X116849999Y-96450001D02*
X116100000Y-96450001D01*
X130050000Y-96450000D02*
X129200000Y-95600000D01*
X130050000Y-96699978D02*
X130050000Y-96450000D01*
X135900022Y-96699978D02*
X130050000Y-96699978D01*
X143750000Y-96150000D02*
X144450000Y-95450000D01*
X143750000Y-96600000D02*
X143750000Y-96150000D01*
X143750000Y-96600000D02*
X139000000Y-96600000D01*
X164750000Y-95950000D02*
X165050000Y-95650000D01*
X164750000Y-96650000D02*
X164750000Y-95950000D01*
X162886568Y-96650000D02*
X164750000Y-96650000D01*
X185700000Y-96000000D02*
X186150000Y-95550000D01*
X185700000Y-96550000D02*
X185700000Y-96000000D01*
X177550000Y-96550000D02*
X185700000Y-96550000D01*
X204100000Y-96100000D02*
X204550000Y-95650000D01*
X204100000Y-96600000D02*
X204100000Y-96100000D01*
X196700000Y-96600000D02*
X204100000Y-96600000D01*
X204300000Y-96100000D02*
X204800000Y-96600000D01*
X204100000Y-96100000D02*
X204300000Y-96100000D01*
X204100000Y-96600000D02*
X204800000Y-96600000D01*
X204949999Y-96199999D02*
X205350000Y-96600000D01*
X204949999Y-96049999D02*
X204949999Y-96199999D01*
X204550000Y-95650000D02*
X204949999Y-96049999D01*
X204800000Y-96600000D02*
X205350000Y-96600000D01*
X205350000Y-96600000D02*
X223800000Y-96600000D01*
X186550000Y-96515685D02*
X186550000Y-96550000D01*
X186150000Y-96115685D02*
X186550000Y-96515685D01*
X186150000Y-95550000D02*
X186150000Y-96115685D01*
X185700000Y-96550000D02*
X186550000Y-96550000D01*
X186550000Y-96550000D02*
X193450000Y-96550000D01*
X165500000Y-96650000D02*
X174800000Y-96650000D01*
X165500000Y-96100000D02*
X165500000Y-96650000D01*
X165050000Y-95650000D02*
X165500000Y-96100000D01*
X165050000Y-96600000D02*
X165050000Y-95650000D01*
X165100000Y-96650000D02*
X165050000Y-96600000D01*
X164750000Y-96650000D02*
X165100000Y-96650000D01*
X165100000Y-96650000D02*
X165500000Y-96650000D01*
X144450000Y-96550000D02*
X144450000Y-95450000D01*
X144500000Y-96600000D02*
X144450000Y-96550000D01*
X144500000Y-96600000D02*
X143750000Y-96600000D01*
X145300000Y-96300000D02*
X144450000Y-95450000D01*
X145300000Y-96600000D02*
X145300000Y-96300000D01*
X145838507Y-96600000D02*
X145300000Y-96600000D01*
X145300000Y-96600000D02*
X144500000Y-96600000D01*
X143900000Y-96300000D02*
X143750000Y-96150000D01*
X145300000Y-96300000D02*
X143900000Y-96300000D01*
X129250000Y-96215685D02*
X129250000Y-96699978D01*
X129200000Y-96165685D02*
X129250000Y-96215685D01*
X129200000Y-95600000D02*
X129200000Y-96165685D01*
X128800001Y-96649977D02*
X128750000Y-96699978D01*
X128800001Y-95999999D02*
X128800001Y-96649977D01*
X129200000Y-95600000D02*
X128800001Y-95999999D01*
X129250000Y-96699978D02*
X128750000Y-96699978D01*
X128750000Y-96699978D02*
X121599978Y-96699978D01*
X129650000Y-96615685D02*
X129200000Y-96165685D01*
X129650000Y-96699978D02*
X129650000Y-96615685D01*
X130050000Y-96699978D02*
X129650000Y-96699978D01*
X129650000Y-96699978D02*
X129250000Y-96699978D01*
X115550000Y-96200000D02*
X116100000Y-95650000D01*
X115550000Y-96450001D02*
X115550000Y-96200000D01*
X116100000Y-96450001D02*
X115550000Y-96450001D01*
X115550000Y-96450001D02*
X113001999Y-96450001D01*
X116499999Y-96100001D02*
X116849999Y-96450001D01*
X116499999Y-96049999D02*
X116499999Y-96100001D01*
X116100000Y-95650000D02*
X116499999Y-96049999D01*
X106600000Y-95200000D02*
X107050000Y-94750000D01*
X106600000Y-95550000D02*
X106600000Y-95200000D01*
X107050000Y-95550000D02*
X106600000Y-95550000D01*
X106600000Y-95550000D02*
X104115685Y-95550000D01*
X107550000Y-95250000D02*
X107550000Y-95550000D01*
X107050000Y-94750000D02*
X107550000Y-95250000D01*
X112101998Y-95550000D02*
X107550000Y-95550000D01*
X107550000Y-95550000D02*
X107050000Y-95550000D01*
X230100000Y-96450000D02*
X230700000Y-95850000D01*
X230000000Y-96450000D02*
X230100000Y-96450000D01*
X226250000Y-96450000D02*
X230000000Y-96450000D01*
X230000000Y-96450000D02*
X235800000Y-96450000D01*
X232150000Y-76950000D02*
X232050000Y-77050000D01*
X233470071Y-76950000D02*
X232150000Y-76950000D01*
X236550000Y-80029929D02*
X233470071Y-76950000D01*
X233470071Y-76950000D02*
X228662941Y-72142870D01*
X235450000Y-76950000D02*
X237550000Y-76950000D01*
X237550000Y-76950000D02*
X237600000Y-76900000D01*
X94450000Y-77250000D02*
X94150000Y-76950000D01*
X94450000Y-77750000D02*
X94450000Y-77250000D01*
X94800000Y-77750000D02*
X94450000Y-77750000D01*
X98850000Y-77150000D02*
X99050000Y-76950000D01*
X98850000Y-77950000D02*
X98850000Y-77150000D01*
X98850000Y-77950000D02*
X97700000Y-77950000D01*
X99050000Y-77800000D02*
X99050000Y-76950000D01*
X99200000Y-77950000D02*
X99050000Y-77800000D01*
X99200000Y-77950000D02*
X98850000Y-77950000D01*
X94150000Y-77650000D02*
X94150000Y-76950000D01*
X94050000Y-77750000D02*
X94150000Y-77650000D01*
X94450000Y-77750000D02*
X94050000Y-77750000D01*
X94050000Y-77750000D02*
X93650000Y-77750000D01*
X112900000Y-77950000D02*
X112900000Y-77150000D01*
X113700000Y-77950000D02*
X112900000Y-77950000D01*
X112900000Y-77950000D02*
X99200000Y-77950000D01*
X120450000Y-77950000D02*
X120450000Y-77150000D01*
X120450000Y-77950000D02*
X116450000Y-77950000D01*
X131700000Y-77950000D02*
X131700000Y-77150000D01*
X132800000Y-77950000D02*
X131700000Y-77950000D01*
X131700000Y-77950000D02*
X120450000Y-77950000D01*
X137150000Y-77850000D02*
X137150000Y-77050000D01*
X137150000Y-77850000D02*
X135650000Y-77850000D01*
X151300000Y-77850000D02*
X151300000Y-77050000D01*
X152050000Y-77850000D02*
X151300000Y-77850000D01*
X151300000Y-77850000D02*
X137150000Y-77850000D01*
X158450000Y-77950000D02*
X158450000Y-77050000D01*
X158450000Y-77950000D02*
X154450000Y-77950000D01*
X168600000Y-77950000D02*
X168600000Y-77000000D01*
X169950000Y-77950000D02*
X168600000Y-77950000D01*
X168600000Y-77950000D02*
X158450000Y-77950000D01*
X176500000Y-77950000D02*
X176500000Y-77000000D01*
X176500000Y-77950000D02*
X172500000Y-77950000D01*
X187100000Y-77350000D02*
X187350000Y-77100000D01*
X187100000Y-77950000D02*
X187100000Y-77350000D01*
X188800000Y-77950000D02*
X187100000Y-77950000D01*
X187100000Y-77950000D02*
X176500000Y-77950000D01*
X195200000Y-77350000D02*
X195400000Y-77150000D01*
X195200000Y-77850000D02*
X195200000Y-77350000D01*
X195200000Y-77850000D02*
X192550000Y-77850000D01*
X206900000Y-77850000D02*
X206900000Y-77200000D01*
X207900000Y-77850000D02*
X206900000Y-77850000D01*
X206900000Y-77850000D02*
X195200000Y-77850000D01*
X215400000Y-76650000D02*
X215650000Y-76400000D01*
X215400000Y-77150000D02*
X215400000Y-76650000D01*
X218350000Y-77150000D02*
X215400000Y-77150000D01*
X215400000Y-77150000D02*
X214750000Y-77150000D01*
X232750000Y-50100000D02*
X232400000Y-49750000D01*
X232750000Y-50350000D02*
X232750000Y-50100000D01*
X233500000Y-49600000D02*
X232750000Y-50350000D01*
X232750000Y-50350000D02*
X226200000Y-56900000D01*
X233009035Y-52200000D02*
X233009035Y-53109035D01*
X233009035Y-53109035D02*
X233250000Y-53350000D01*
X218000000Y-57800000D02*
X217600000Y-57400000D01*
X218000000Y-58350000D02*
X218000000Y-57800000D01*
X219100000Y-58350000D02*
X218000000Y-58350000D01*
X218000000Y-58350000D02*
X202800000Y-58350000D01*
X221150008Y-58439954D02*
X221389954Y-58439954D01*
X221389954Y-58439954D02*
X221850000Y-58900000D01*
X187550000Y-58350001D02*
X183750001Y-58350001D01*
X199949999Y-58350001D02*
X187550000Y-58350001D01*
X187550000Y-58350001D02*
X187550000Y-57700000D01*
X179300000Y-57650000D02*
X179300000Y-58350001D01*
X180899999Y-58350001D02*
X179300000Y-58350001D01*
X167100000Y-58200000D02*
X167600000Y-57700000D01*
X167100000Y-58350001D02*
X167100000Y-58200000D01*
X179300000Y-58350001D02*
X167100000Y-58350001D01*
X167100000Y-58350001D02*
X164850001Y-58350001D01*
X160700000Y-58350001D02*
X160700000Y-57700000D01*
X161599999Y-58350001D02*
X160700000Y-58350001D01*
X149750000Y-58350001D02*
X149750000Y-57700000D01*
X160700000Y-58350001D02*
X149750000Y-58350001D01*
X149750000Y-58350001D02*
X145950001Y-58350001D01*
X142250000Y-58350001D02*
X142250000Y-57700000D01*
X142949999Y-58350001D02*
X142250000Y-58350001D01*
X129550000Y-58350001D02*
X129550000Y-57700000D01*
X142250000Y-58350001D02*
X129550000Y-58350001D01*
X129550000Y-58350001D02*
X126400001Y-58350001D01*
X122700000Y-58350001D02*
X122700000Y-57750000D01*
X123949999Y-58350001D02*
X122700000Y-58350001D01*
X109400000Y-58350001D02*
X109400000Y-57750000D01*
X122700000Y-58350001D02*
X109400000Y-58350001D01*
X109400000Y-58350001D02*
X107650001Y-58350001D01*
X103150000Y-58350001D02*
X103150000Y-57700000D01*
X104749999Y-58350001D02*
X103150000Y-58350001D01*
X90850000Y-58350001D02*
X90850000Y-57750000D01*
X103150000Y-58350001D02*
X90850000Y-58350001D01*
X90850000Y-58350001D02*
X88579931Y-58350001D01*
X85350000Y-58400000D02*
X85300000Y-58450000D01*
X86650000Y-58400000D02*
X85350000Y-58400000D01*
X81462424Y-53212424D02*
X86650000Y-58400000D01*
X86650000Y-58400000D02*
X86900000Y-58650000D01*
G04 #@! TO.N,+5V*
X150330677Y-121440323D02*
X150366000Y-121405000D01*
X150330677Y-123239650D02*
X150330677Y-121440323D01*
X150871000Y-120900000D02*
X150366000Y-121405000D01*
X158300000Y-122727651D02*
X158255514Y-122772137D01*
X158300000Y-120750000D02*
X158300000Y-122727651D01*
X226522000Y-117738000D02*
X226522000Y-118038000D01*
X226522000Y-118038000D02*
X225010010Y-119549990D01*
X225010010Y-119549990D02*
X212648807Y-119549990D01*
X212648807Y-119549990D02*
X212083122Y-119549990D01*
X157150000Y-119600000D02*
X158300000Y-120750000D01*
X157150000Y-119600000D02*
X157150000Y-120150000D01*
X156400000Y-120900000D02*
X150871000Y-120900000D01*
X157150000Y-120150000D02*
X156400000Y-120900000D01*
X212130000Y-123300000D02*
X211650000Y-123300000D01*
X219200000Y-130370000D02*
X212130000Y-123300000D01*
X219200000Y-130770000D02*
X219200000Y-130370000D01*
X212083122Y-119549990D02*
X201697992Y-119549990D01*
X173976976Y-118100055D02*
X159223022Y-118100055D01*
X174276976Y-117800055D02*
X173976976Y-118100055D01*
X159123022Y-118000055D02*
X157802657Y-118000055D01*
X159223022Y-118100055D02*
X159123022Y-118000055D01*
X157150000Y-118652712D02*
X157150000Y-119600000D01*
X157802657Y-118000055D02*
X157150000Y-118652712D01*
X176273042Y-117800055D02*
X174276976Y-117800055D01*
X176573041Y-118100054D02*
X176273042Y-117800055D01*
X198451944Y-118100054D02*
X176573041Y-118100054D01*
X201697992Y-119549990D02*
X199998001Y-117849999D01*
X198701999Y-117849999D02*
X198451944Y-118100054D01*
X199998001Y-117849999D02*
X198701999Y-117849999D01*
G04 #@! TO.N,/ROW0*
X149050677Y-121420323D02*
X149066000Y-121405000D01*
X149050677Y-123239650D02*
X149050677Y-121420323D01*
X104400000Y-59350000D02*
X123250000Y-59350000D01*
X123250000Y-59350000D02*
X142250000Y-59350000D01*
X142250000Y-59350000D02*
X161800000Y-59350000D01*
X163300000Y-57850000D02*
X163300000Y-50000000D01*
X161800000Y-59350000D02*
X163300000Y-57850000D01*
X161800000Y-59350000D02*
X181150000Y-59350000D01*
X182350000Y-58150000D02*
X182350000Y-50000000D01*
X181150000Y-59350000D02*
X182350000Y-58150000D01*
X181150000Y-59350000D02*
X200150000Y-59350000D01*
X201400000Y-58100000D02*
X201400000Y-50000000D01*
X200150000Y-59350000D02*
X201400000Y-58100000D01*
X200150000Y-59350000D02*
X219250000Y-59350000D01*
X220450000Y-58150000D02*
X220450000Y-50000000D01*
X219250000Y-59350000D02*
X220450000Y-58150000D01*
X104349989Y-59299989D02*
X104400000Y-59350000D01*
X98689980Y-59249989D02*
X98739980Y-59299989D01*
X89150011Y-59249989D02*
X98689980Y-59249989D01*
X98739980Y-59299989D02*
X104349989Y-59299989D01*
X87850000Y-60550000D02*
X89150011Y-59249989D01*
X144250000Y-56199603D02*
X144250000Y-50000000D01*
X142250000Y-59350000D02*
X142939964Y-59350000D01*
X144250000Y-58039964D02*
X144250000Y-56199603D01*
X142939964Y-59350000D02*
X144250000Y-58039964D01*
X123250000Y-59350000D02*
X123939964Y-59350000D01*
X123939964Y-59350000D02*
X125200000Y-58089964D01*
X125200000Y-56199603D02*
X125200000Y-50000000D01*
X125200000Y-58089964D02*
X125200000Y-56199603D01*
X104400000Y-59350000D02*
X104739964Y-59350000D01*
X104739964Y-59350000D02*
X106150000Y-57939964D01*
X106150000Y-56199603D02*
X106150000Y-50000000D01*
X106150000Y-57939964D02*
X106150000Y-56199603D01*
X87100000Y-50000000D02*
X87100000Y-57860035D01*
X87100000Y-57860035D02*
X87850000Y-58610035D01*
X87850000Y-58610035D02*
X87850000Y-60550000D01*
X140489965Y-127000000D02*
X138200000Y-124710035D01*
X99142489Y-96450013D02*
X93952011Y-96450013D01*
X93952011Y-96450013D02*
X91599989Y-94097991D01*
X138200000Y-118700000D02*
X137100034Y-117600034D01*
X100549978Y-115027910D02*
X100549978Y-97857502D01*
X137100034Y-117600034D02*
X121660001Y-117600034D01*
X100549978Y-97857502D02*
X99142489Y-96450013D01*
X103572068Y-118050000D02*
X100549978Y-115027910D01*
X149050677Y-123239650D02*
X149050677Y-124389650D01*
X149050677Y-124389650D02*
X146440327Y-127000000D01*
X146440327Y-127000000D02*
X140489965Y-127000000D01*
X138200000Y-124710035D02*
X138200000Y-118700000D01*
X121660001Y-117600034D02*
X121210035Y-118050000D01*
X121210035Y-118050000D02*
X103572068Y-118050000D01*
X87850000Y-71200000D02*
X87850000Y-60550000D01*
X91599989Y-94097991D02*
X91599989Y-74949989D01*
X91599989Y-74949989D02*
X87850000Y-71200000D01*
G04 #@! TO.N,/ROW1*
X147790677Y-121429677D02*
X147766000Y-121405000D01*
X147790677Y-123239650D02*
X147790677Y-121429677D01*
X191350000Y-77050000D02*
X191350000Y-69050000D01*
X190500000Y-77900000D02*
X191350000Y-77050000D01*
X210400000Y-77050000D02*
X210400000Y-69050000D01*
X209550000Y-77900000D02*
X210400000Y-77050000D01*
X234219073Y-50000000D02*
X239500000Y-50000000D01*
X226950000Y-57269073D02*
X234219073Y-50000000D01*
X226950000Y-69750000D02*
X226950000Y-57269073D01*
X218800000Y-77900000D02*
X226950000Y-69750000D01*
X209550000Y-77900000D02*
X218800000Y-77900000D01*
X190500000Y-77900000D02*
X191010035Y-77900000D01*
X208189954Y-78550011D02*
X208839965Y-77900000D01*
X191660046Y-78550011D02*
X208189954Y-78550011D01*
X208839965Y-77900000D02*
X209100000Y-77900000D01*
X209100000Y-77900000D02*
X209550000Y-77900000D01*
X191010035Y-77900000D02*
X191660046Y-78550011D01*
X189089954Y-78650011D02*
X189839965Y-77900000D01*
X171350000Y-77900000D02*
X171350000Y-77989965D01*
X171350000Y-77989965D02*
X172010046Y-78650011D01*
X172010046Y-78650011D02*
X189089954Y-78650011D01*
X189839965Y-77900000D02*
X190500000Y-77900000D01*
X171350000Y-77900000D02*
X171350000Y-76199603D01*
X172300000Y-75249603D02*
X172300000Y-69050000D01*
X171350000Y-76199603D02*
X172300000Y-75249603D01*
X171350000Y-77900000D02*
X170599989Y-78650011D01*
X96100000Y-77850011D02*
X95300000Y-78650011D01*
X96100000Y-69050000D02*
X96100000Y-77850011D01*
X115150000Y-77950011D02*
X114450000Y-78650011D01*
X115150000Y-69050000D02*
X115150000Y-77950011D01*
X153250000Y-77800011D02*
X152400000Y-78650011D01*
X153250000Y-69050000D02*
X153250000Y-77800011D01*
X170599989Y-78650011D02*
X152400000Y-78650011D01*
X134200000Y-77750011D02*
X133300000Y-78650011D01*
X134200000Y-69050000D02*
X134200000Y-77750011D01*
X152400000Y-78650011D02*
X133300000Y-78650011D01*
X133300000Y-78650011D02*
X114450000Y-78650011D01*
X114450000Y-78650011D02*
X95300000Y-78650011D01*
X138900011Y-118410046D02*
X137389988Y-116900023D01*
X137389988Y-116900023D02*
X121370047Y-116900023D01*
X101249989Y-114737956D02*
X101249989Y-97560045D01*
X121370047Y-116900023D02*
X120920081Y-117349989D01*
X103862022Y-117349989D02*
X101249989Y-114737956D01*
X147790677Y-123239650D02*
X147790677Y-124389650D01*
X120920081Y-117349989D02*
X103862022Y-117349989D01*
X93400000Y-79500000D02*
X94249989Y-78650011D01*
X93400000Y-88799998D02*
X93400000Y-79500000D01*
X94249989Y-78650011D02*
X95300000Y-78650011D01*
X147790677Y-124389650D02*
X146130305Y-126050022D01*
X93850002Y-89250000D02*
X93400000Y-88799998D01*
X93850002Y-90739966D02*
X93850002Y-89250000D01*
X140529952Y-126050022D02*
X138900011Y-124420081D01*
X98860038Y-95750002D02*
X93850002Y-90739966D01*
X146130305Y-126050022D02*
X140529952Y-126050022D01*
X99439946Y-95750002D02*
X98860038Y-95750002D01*
X101249989Y-97560045D02*
X99439946Y-95750002D01*
X138900011Y-124420081D02*
X138900011Y-118410046D01*
G04 #@! TO.N,/ROW2*
X146520677Y-121459677D02*
X146466000Y-121405000D01*
X146520677Y-123239650D02*
X146520677Y-121459677D01*
X157750000Y-95950000D02*
X157750000Y-88100000D01*
X157150000Y-96550000D02*
X157750000Y-95950000D01*
X176800000Y-95850000D02*
X176800000Y-88100000D01*
X176100000Y-96550000D02*
X176800000Y-95850000D01*
X195850000Y-95600000D02*
X195850000Y-88100000D01*
X194900000Y-96550000D02*
X195850000Y-95600000D01*
X234300000Y-69050000D02*
X234300000Y-76000000D01*
X234300000Y-76000000D02*
X234300000Y-75249603D01*
X100600000Y-88100000D02*
X100600000Y-95600000D01*
X100600000Y-95600000D02*
X101550000Y-96550000D01*
X102500000Y-97550000D02*
X103500000Y-96550000D01*
X102500000Y-97500000D02*
X101550000Y-96550000D01*
X102500000Y-97550000D02*
X102500000Y-97500000D01*
X101550000Y-96550000D02*
X102500000Y-96550000D01*
X102100000Y-96550000D02*
X102500000Y-96950000D01*
X101550000Y-96550000D02*
X102100000Y-96550000D01*
X102500000Y-97550000D02*
X102500000Y-96950000D01*
X102500000Y-96950000D02*
X102500000Y-96550000D01*
X102900000Y-96550000D02*
X102500000Y-96950000D01*
X103250000Y-96550000D02*
X102900000Y-96550000D01*
X102500000Y-96550000D02*
X103250000Y-96550000D01*
X103250000Y-96550000D02*
X103500000Y-96550000D01*
X112712045Y-97150012D02*
X117299988Y-97150012D01*
X117299988Y-97150012D02*
X117900000Y-96550000D01*
X112112034Y-96550000D02*
X112712045Y-97150012D01*
X103500000Y-96550000D02*
X112112034Y-96550000D01*
X117900000Y-96550000D02*
X119249989Y-95200011D01*
X119249989Y-95200011D02*
X119249989Y-94699614D01*
X119650000Y-94299603D02*
X119650000Y-88100000D01*
X119249989Y-94699614D02*
X119650000Y-94299603D01*
X138700000Y-95110035D02*
X138700000Y-94299603D01*
X137300000Y-96550000D02*
X137300000Y-96510035D01*
X137300000Y-96510035D02*
X138700000Y-95110035D01*
X138700000Y-94299603D02*
X138700000Y-88100000D01*
X194149990Y-97300010D02*
X194900000Y-96550000D01*
X176850010Y-97300010D02*
X194149990Y-97300010D01*
X176100000Y-96550000D02*
X176850010Y-97300010D01*
X194900000Y-96550000D02*
X195650011Y-97300011D01*
X224299989Y-97300011D02*
X225050000Y-96550000D01*
X195650011Y-97300011D02*
X224299989Y-97300011D01*
X227200000Y-94299603D02*
X227200000Y-88100000D01*
X225050000Y-96550000D02*
X225050000Y-96510035D01*
X225050000Y-96510035D02*
X227200000Y-94360035D01*
X227200000Y-94360035D02*
X227200000Y-94299603D01*
X225050000Y-96550000D02*
X225800010Y-97300010D01*
X225800010Y-97300010D02*
X235999990Y-97300010D01*
X235999990Y-97300010D02*
X237350000Y-95950000D01*
X237350000Y-95950000D02*
X237350000Y-79839964D01*
X237350000Y-79839964D02*
X234300000Y-76789964D01*
X234300000Y-76789964D02*
X234300000Y-76000000D01*
X157150000Y-96550000D02*
X157999989Y-97399989D01*
X175250011Y-97399989D02*
X176100000Y-96550000D01*
X157999989Y-97399989D02*
X175250011Y-97399989D01*
X138149989Y-97399989D02*
X156300011Y-97399989D01*
X156300011Y-97399989D02*
X157150000Y-96550000D01*
X137300000Y-96550000D02*
X138149989Y-97399989D01*
X119147075Y-97399989D02*
X136450011Y-97399989D01*
X136450011Y-97399989D02*
X137300000Y-96550000D01*
X118297086Y-96550000D02*
X119147075Y-97399989D01*
X117900000Y-96550000D02*
X118297086Y-96550000D01*
X140819906Y-125350011D02*
X139600022Y-124130127D01*
X146520677Y-124389650D02*
X145560316Y-125350011D01*
X102049991Y-98698533D02*
X102049991Y-98000009D01*
X139600022Y-124130127D02*
X139600022Y-118120092D01*
X145560316Y-125350011D02*
X140819906Y-125350011D01*
X139600022Y-118120092D02*
X137679942Y-116200012D01*
X103951975Y-116449977D02*
X102149989Y-114647991D01*
X137679942Y-116200012D02*
X121080093Y-116200012D01*
X102049991Y-98000009D02*
X102500000Y-97550000D01*
X146520677Y-123239650D02*
X146520677Y-124389650D01*
X121080093Y-116200012D02*
X120830128Y-116449977D01*
X102149989Y-114647991D02*
X102149989Y-98798531D01*
X120830128Y-116449977D02*
X103951975Y-116449977D01*
X102149989Y-98798531D02*
X102049991Y-98698533D01*
G04 #@! TO.N,/ROW3*
X145240677Y-121479677D02*
X145166000Y-121405000D01*
X145240677Y-123239650D02*
X145240677Y-121479677D01*
X147750000Y-99800000D02*
X147750000Y-107150000D01*
X128700000Y-99950000D02*
X128700000Y-107150000D01*
X145240677Y-123239650D02*
X145240677Y-122089650D01*
X109650000Y-99950000D02*
X109650000Y-107150000D01*
X109650000Y-99100000D02*
X109650000Y-99950000D01*
X109100000Y-98550000D02*
X109650000Y-99100000D01*
X185850000Y-99525010D02*
X185000000Y-98675010D01*
X185850000Y-107150000D02*
X185850000Y-99525010D01*
X185000000Y-98675010D02*
X211700000Y-98675010D01*
X166800000Y-99225010D02*
X166250000Y-98675010D01*
X166800000Y-107150000D02*
X166800000Y-99225010D01*
X166225001Y-98700009D02*
X166250000Y-98675010D01*
X147623532Y-98675010D02*
X163576468Y-98675010D01*
X163601467Y-98700009D02*
X166225001Y-98700009D01*
X163576468Y-98675010D02*
X163601467Y-98700009D01*
X109100000Y-98550000D02*
X118600000Y-98550000D01*
X118600000Y-98550000D02*
X118850000Y-98800000D01*
X127550000Y-98800000D02*
X128700000Y-99950000D01*
X118850000Y-98800000D02*
X127550000Y-98800000D01*
X146750000Y-98800000D02*
X147750000Y-99800000D01*
X127550000Y-98800000D02*
X146750000Y-98800000D01*
X147498542Y-98800000D02*
X147623532Y-98675010D01*
X146750000Y-98800000D02*
X147498542Y-98800000D01*
X168873532Y-98675010D02*
X185000000Y-98675010D01*
X166250000Y-98675010D02*
X168873532Y-98675010D01*
X212750000Y-107150000D02*
X212750000Y-100039965D01*
X211700000Y-98989965D02*
X211700000Y-98675010D01*
X212750000Y-100039965D02*
X211700000Y-98989965D01*
X238010047Y-98700011D02*
X239500000Y-100189964D01*
X239500000Y-100189964D02*
X239500000Y-100950397D01*
X236110046Y-98700011D02*
X238010047Y-98700011D01*
X236085045Y-98675010D02*
X236110046Y-98700011D01*
X239500000Y-100950397D02*
X239500000Y-107150000D01*
X211700000Y-98675010D02*
X236085045Y-98675010D01*
X102850000Y-111200000D02*
X102850000Y-100300000D01*
X145240677Y-123239650D02*
X145240677Y-124389650D01*
X137969896Y-115500001D02*
X107150001Y-115500001D01*
X107150001Y-115500001D02*
X102850000Y-111200000D01*
X102850000Y-100300000D02*
X104600000Y-98550000D01*
X144980327Y-124650000D02*
X141109860Y-124650000D01*
X140350000Y-117880105D02*
X137969896Y-115500001D01*
X140350000Y-123890141D02*
X140350000Y-117880105D01*
X145240677Y-124389650D02*
X144980327Y-124650000D01*
X104600000Y-98550000D02*
X109100000Y-98550000D01*
X141109860Y-124650000D02*
X140350000Y-123890141D01*
G04 #@! TO.N,/ROW4*
X150366000Y-129574973D02*
X150330677Y-129539650D01*
X150366000Y-131405000D02*
X150366000Y-129574973D01*
X166800000Y-135100000D02*
X166800000Y-126200000D01*
X152150000Y-134600000D02*
X152150000Y-135400000D01*
X150941000Y-131405000D02*
X152150000Y-132614000D01*
X150366000Y-131405000D02*
X150941000Y-131405000D01*
X152150000Y-132614000D02*
X152150000Y-134600000D01*
X166000011Y-135899989D02*
X189810047Y-135899989D01*
X189810047Y-135899989D02*
X191350000Y-134360036D01*
X191350000Y-132399603D02*
X191350000Y-126200000D01*
X191350000Y-134360036D02*
X191350000Y-132399603D01*
X166800000Y-135100000D02*
X166000011Y-135899989D01*
X166000011Y-135899989D02*
X152649989Y-135899989D01*
X152649989Y-135899989D02*
X152150000Y-135400000D01*
X99000000Y-134700000D02*
X99000000Y-126200000D01*
X99000000Y-135200000D02*
X99000000Y-134700000D01*
X99699989Y-135899989D02*
X99000000Y-135200000D01*
X152150000Y-135400000D02*
X151650011Y-135899989D01*
X130550000Y-135199989D02*
X131250000Y-135899989D01*
X130550000Y-126200000D02*
X130550000Y-135199989D01*
X151650011Y-135899989D02*
X131250000Y-135899989D01*
X131250000Y-135899989D02*
X99699989Y-135899989D01*
G04 #@! TO.N,Net-(R7-Pad1)*
X152791000Y-129255000D02*
X154096000Y-127950000D01*
X152216000Y-129255000D02*
X152791000Y-129255000D01*
X154096000Y-127950000D02*
X156700000Y-127950000D01*
X156985514Y-128235514D02*
X156985514Y-130172137D01*
X156700000Y-127950000D02*
X156985514Y-128235514D01*
G04 #@! TO.N,Net-(R10-Pad2)*
X155715514Y-132755486D02*
X155715514Y-130172137D01*
X155715514Y-132755486D02*
X155715514Y-133265514D01*
X156505000Y-134055000D02*
X158316000Y-134055000D01*
X156021000Y-133571000D02*
X156150000Y-133700000D01*
X156150000Y-133700000D02*
X156505000Y-134055000D01*
X155715514Y-133265514D02*
X156150000Y-133700000D01*
X154416000Y-134055000D02*
X154900000Y-133571000D01*
X154900000Y-133571000D02*
X155715514Y-132755486D01*
X155500000Y-133481028D02*
X155715514Y-133265514D01*
X155500000Y-133571000D02*
X155500000Y-133481028D01*
X154900000Y-133571000D02*
X155500000Y-133571000D01*
X155500000Y-133571000D02*
X156021000Y-133571000D01*
G04 #@! TO.N,/READ*
X158255514Y-132244514D02*
X158316000Y-132305000D01*
X158255514Y-130172137D02*
X158255514Y-132244514D01*
X158255514Y-127843108D02*
X158093609Y-127681203D01*
X158255514Y-130172137D02*
X158255514Y-127843108D01*
X228500000Y-116500000D02*
X228500000Y-119400000D01*
X185516995Y-120550001D02*
X172547250Y-120550001D01*
X160315685Y-118950000D02*
X160165685Y-119100000D01*
X209899999Y-120550001D02*
X198550001Y-120550001D01*
X231422000Y-116238000D02*
X230934000Y-115750000D01*
X210050000Y-120400000D02*
X209899999Y-120550001D01*
X172547250Y-120550001D02*
X170947249Y-118950000D01*
X228500000Y-119400000D02*
X227500000Y-120400000D01*
X230934000Y-115750000D02*
X229250000Y-115750000D01*
X187166931Y-118900065D02*
X185516995Y-120550001D01*
X196900065Y-118900065D02*
X187166931Y-118900065D01*
X231422000Y-117638000D02*
X231422000Y-116238000D01*
X229250000Y-115750000D02*
X228500000Y-116500000D01*
X160165685Y-119100000D02*
X159600000Y-119100000D01*
X227500000Y-120400000D02*
X210050000Y-120400000D01*
X198550001Y-120550001D02*
X196900065Y-118900065D01*
X170947249Y-118950000D02*
X160315685Y-118950000D01*
D21*
G04 #@! TO.N,/COL_EN*
X232922000Y-117638000D02*
X232922000Y-117938000D01*
X232922000Y-117938000D02*
X235134000Y-120150000D01*
X235134000Y-120150000D02*
X236950000Y-120150000D01*
X236950000Y-120150000D02*
X238130010Y-121330010D01*
X238130010Y-121330010D02*
X238130010Y-124369990D01*
X238130010Y-124369990D02*
X237799990Y-124700010D01*
X231900000Y-123550000D02*
X231900000Y-123150000D01*
X233050010Y-124700010D02*
X231900000Y-123550000D01*
X237799990Y-124700010D02*
X233050010Y-124700010D01*
G04 #@! TO.N,/COL_C*
X236133989Y-119649989D02*
X234422000Y-117938000D01*
X224280000Y-123150000D02*
X224280000Y-123550000D01*
X237157111Y-119649989D02*
X236133989Y-119649989D01*
X238630020Y-121122898D02*
X237157111Y-119649989D01*
X234422000Y-117938000D02*
X234422000Y-117638000D01*
X238630021Y-124577101D02*
X238630020Y-121122898D01*
X237957122Y-125250000D02*
X238630021Y-124577101D01*
X225980000Y-125250000D02*
X237957122Y-125250000D01*
X224280000Y-123550000D02*
X225980000Y-125250000D01*
G04 #@! TO.N,/COL_B*
X221740000Y-123150000D02*
X221740000Y-123550000D01*
X236822000Y-118838000D02*
X235922000Y-117938000D01*
X239130031Y-124784211D02*
X239130030Y-120915786D01*
X239130030Y-120915786D02*
X237052244Y-118838000D01*
X221740000Y-123550000D02*
X224040000Y-125850000D01*
X238064244Y-125850000D02*
X239130031Y-124784211D01*
X237052244Y-118838000D02*
X236822000Y-118838000D01*
X224040000Y-125850000D02*
X238064244Y-125850000D01*
X235922000Y-117938000D02*
X235922000Y-117638000D01*
G04 #@! TO.N,/COL_A*
X238221364Y-126400000D02*
X240000032Y-124621332D01*
X219200000Y-123150000D02*
X219200000Y-123550000D01*
X222050000Y-126400000D02*
X238221364Y-126400000D01*
X240000032Y-120516032D02*
X237422000Y-117938000D01*
X240000032Y-124621332D02*
X240000032Y-120516032D01*
X237422000Y-117938000D02*
X237422000Y-117638000D01*
X219200000Y-123550000D02*
X222050000Y-126400000D01*
G04 #@! TO.N,/DRAIN*
X147766000Y-133366000D02*
X148350000Y-133950000D01*
X147766000Y-133155000D02*
X147766000Y-133366000D01*
X219022000Y-117738000D02*
X218122000Y-117738000D01*
X218122000Y-117738000D02*
X218059956Y-117800044D01*
X198203412Y-117500043D02*
X176821573Y-117500043D01*
X200246533Y-117249988D02*
X198453467Y-117249988D01*
X176821573Y-117500043D02*
X176521574Y-117200044D01*
X176521574Y-117200044D02*
X174028444Y-117200044D01*
X200796589Y-117800044D02*
X200246533Y-117249988D01*
X174028444Y-117200044D02*
X173728444Y-117500044D01*
X218059956Y-117800044D02*
X200796589Y-117800044D01*
X159371554Y-117400044D02*
X152949957Y-117400044D01*
X152949957Y-117400044D02*
X152699999Y-117650001D01*
X198453467Y-117249988D02*
X198203412Y-117500043D01*
X152699999Y-117650001D02*
X152300000Y-118050000D01*
X159471554Y-117500044D02*
X159371554Y-117400044D01*
X173728444Y-117500044D02*
X159471554Y-117500044D01*
G04 #@! TO.N,/MUX_EN*
X143970677Y-129539650D02*
X143970677Y-128629323D01*
X143970677Y-128629323D02*
X144550000Y-128050000D01*
X173821333Y-116700033D02*
X176728685Y-116700033D01*
X159278633Y-116600001D02*
X159678665Y-117000033D01*
X197996301Y-117000032D02*
X198246356Y-116749977D01*
X200453644Y-116749977D02*
X200903700Y-117200033D01*
X200903700Y-117200033D02*
X217521333Y-117200033D01*
X217521333Y-117200033D02*
X218321343Y-116400023D01*
X220276901Y-116400023D02*
X220522000Y-116645122D01*
X177028684Y-117000032D02*
X197996301Y-117000032D01*
X220522000Y-116645122D02*
X220522000Y-117738000D01*
X198246356Y-116749977D02*
X200453644Y-116749977D01*
X218321343Y-116400023D02*
X220276901Y-116400023D01*
X176728685Y-116700033D02*
X177028684Y-117000032D01*
X173521333Y-117000033D02*
X173821333Y-116700033D01*
X159678665Y-117000033D02*
X173521333Y-117000033D01*
X152399999Y-116600001D02*
X159278633Y-116600001D01*
X152000000Y-117000000D02*
X152399999Y-116600001D01*
G04 #@! TO.N,/MUX_C*
X176935796Y-116200022D02*
X173614222Y-116200022D01*
X143970677Y-122289650D02*
X143970677Y-123239650D01*
X143970677Y-118279323D02*
X143970677Y-122289650D01*
X146349988Y-115900012D02*
X143970677Y-118279323D01*
X159885776Y-116500022D02*
X159285766Y-115900012D01*
X173314222Y-116500022D02*
X159885776Y-116500022D01*
X173614222Y-116200022D02*
X173314222Y-116500022D01*
X177235795Y-116500021D02*
X176935796Y-116200022D01*
X197789190Y-116500021D02*
X177235795Y-116500021D01*
X198039245Y-116249966D02*
X197789190Y-116500021D01*
X200660755Y-116249966D02*
X198039245Y-116249966D01*
X201110811Y-116700022D02*
X200660755Y-116249966D01*
X217314222Y-116700022D02*
X201110811Y-116700022D01*
X218114232Y-115900012D02*
X217314222Y-116700022D01*
X220484012Y-115900012D02*
X218114232Y-115900012D01*
X222022000Y-117438000D02*
X220484012Y-115900012D01*
X222022000Y-117738000D02*
X222022000Y-117438000D01*
X159285766Y-115900012D02*
X146349988Y-115900012D01*
G04 #@! TO.N,/MUX_B*
X217107111Y-116200011D02*
X217907121Y-115400001D01*
X177342908Y-115900012D02*
X197682079Y-115900010D01*
X217907121Y-115400001D02*
X221484001Y-115400001D01*
X142700000Y-122078973D02*
X142700000Y-117900000D01*
X145300000Y-115300000D02*
X159392876Y-115300000D01*
X221484001Y-115400001D02*
X223522000Y-117438000D01*
X142710677Y-123239650D02*
X142710677Y-122089650D01*
X159392876Y-115300000D02*
X160092887Y-116000011D01*
X173107111Y-116000011D02*
X173407111Y-115700011D01*
X142710677Y-122089650D02*
X142700000Y-122078973D01*
X177142907Y-115700011D02*
X177342908Y-115900012D01*
X142700000Y-117900000D02*
X145300000Y-115300000D01*
X223522000Y-117438000D02*
X223522000Y-117738000D01*
X201317922Y-116200011D02*
X217107111Y-116200011D01*
X160092887Y-116000011D02*
X173107111Y-116000011D01*
X197832134Y-115749955D02*
X200867866Y-115749955D01*
X197682079Y-115900010D02*
X197832134Y-115749955D01*
X173407111Y-115700011D02*
X177142907Y-115700011D01*
X200867866Y-115749955D02*
X201317922Y-116200011D01*
G04 #@! TO.N,/MUX_A*
X225022000Y-117438000D02*
X225022000Y-117738000D01*
X222483991Y-114899991D02*
X225022000Y-117438000D01*
X216950002Y-115650000D02*
X217700011Y-114899991D01*
X197625023Y-115249944D02*
X201074978Y-115249945D01*
X177550019Y-115400001D02*
X197474966Y-115400001D01*
X177350017Y-115200001D02*
X177550019Y-115400001D01*
X173200001Y-115200001D02*
X177350017Y-115200001D01*
X172900002Y-115500000D02*
X173200001Y-115200001D01*
X160299998Y-115500000D02*
X172900002Y-115500000D01*
X159249998Y-114450000D02*
X160299998Y-115500000D01*
X144700000Y-114450000D02*
X159249998Y-114450000D01*
X141430677Y-117719323D02*
X144700000Y-114450000D01*
X141430677Y-123239650D02*
X141430677Y-117719323D01*
X217700011Y-114899991D02*
X222483991Y-114899991D01*
X201074978Y-115249945D02*
X201475033Y-115650000D01*
X201475033Y-115650000D02*
X216950002Y-115650000D01*
X197474966Y-115400001D02*
X197625023Y-115249944D01*
G04 #@! TD*
M02*
