G04 #@! TF.GenerationSoftware,KiCad,Pcbnew,(5.0.2)-1*
G04 #@! TF.CreationDate,2020-04-01T19:52:44+09:00*
G04 #@! TF.ProjectId,controller,636f6e74-726f-46c6-9c65-722e6b696361,rev?*
G04 #@! TF.SameCoordinates,Original*
G04 #@! TF.FileFunction,Copper,L2,Bot*
G04 #@! TF.FilePolarity,Positive*
%FSLAX46Y46*%
G04 Gerber Fmt 4.6, Leading zero omitted, Abs format (unit mm)*
G04 Created by KiCad (PCBNEW (5.0.2)-1) date 2020/04/01 19:52:44*
%MOMM*%
%LPD*%
G01*
G04 APERTURE LIST*
G04 #@! TA.AperFunction,SMDPad,CuDef*
%ADD10R,1.175000X1.900000*%
G04 #@! TD*
G04 #@! TA.AperFunction,SMDPad,CuDef*
%ADD11R,2.375000X1.900000*%
G04 #@! TD*
G04 #@! TA.AperFunction,SMDPad,CuDef*
%ADD12R,1.475000X2.100000*%
G04 #@! TD*
G04 #@! TA.AperFunction,SMDPad,CuDef*
%ADD13R,0.450000X1.380000*%
G04 #@! TD*
G04 #@! TA.AperFunction,ComponentPad*
%ADD14R,1.700000X1.700000*%
G04 #@! TD*
G04 #@! TA.AperFunction,ComponentPad*
%ADD15O,1.700000X1.700000*%
G04 #@! TD*
G04 #@! TA.AperFunction,SMDPad,CuDef*
%ADD16R,0.550000X1.500000*%
G04 #@! TD*
G04 #@! TA.AperFunction,SMDPad,CuDef*
%ADD17R,1.500000X0.550000*%
G04 #@! TD*
G04 #@! TA.AperFunction,ComponentPad*
%ADD18C,2.300000*%
G04 #@! TD*
G04 #@! TA.AperFunction,ComponentPad*
%ADD19O,1.000000X2.500000*%
G04 #@! TD*
G04 #@! TA.AperFunction,ComponentPad*
%ADD20O,1.000000X2.700000*%
G04 #@! TD*
G04 #@! TA.AperFunction,ComponentPad*
%ADD21C,1.200000*%
G04 #@! TD*
G04 #@! TA.AperFunction,Conductor*
%ADD22C,0.100000*%
G04 #@! TD*
G04 #@! TA.AperFunction,SMDPad,CuDef*
%ADD23C,0.950000*%
G04 #@! TD*
G04 #@! TA.AperFunction,SMDPad,CuDef*
%ADD24R,2.180000X1.600000*%
G04 #@! TD*
G04 #@! TA.AperFunction,ComponentPad*
%ADD25O,1.200000X1.800000*%
G04 #@! TD*
G04 #@! TA.AperFunction,ComponentPad*
%ADD26R,1.200000X1.800000*%
G04 #@! TD*
G04 #@! TA.AperFunction,ViaPad*
%ADD27C,0.800000*%
G04 #@! TD*
G04 #@! TA.AperFunction,Conductor*
%ADD28C,0.500000*%
G04 #@! TD*
G04 #@! TA.AperFunction,Conductor*
%ADD29C,0.300000*%
G04 #@! TD*
G04 APERTURE END LIST*
D10*
G04 #@! TO.P,J2,6*
G04 #@! TO.N,GND*
X58777500Y-51400000D03*
X57097500Y-51400000D03*
D11*
X60847500Y-51400000D03*
X55027500Y-51400000D03*
D12*
X60400000Y-53700000D03*
X55475000Y-53700000D03*
D13*
G04 #@! TO.P,J2,5*
X59237500Y-54060000D03*
G04 #@! TO.P,J2,4*
G04 #@! TO.N,Net-(J2-Pad4)*
X58587500Y-54060000D03*
G04 #@! TO.P,J2,3*
G04 #@! TO.N,Net-(J2-Pad3)*
X57937500Y-54060000D03*
G04 #@! TO.P,J2,2*
G04 #@! TO.N,Net-(J2-Pad2)*
X57287500Y-54060000D03*
G04 #@! TO.P,J2,1*
G04 #@! TO.N,+5V*
X56637500Y-54060000D03*
G04 #@! TD*
D14*
G04 #@! TO.P,J1,1*
G04 #@! TO.N,/MISO*
X91100000Y-54500000D03*
D15*
G04 #@! TO.P,J1,2*
G04 #@! TO.N,+5V*
X91100000Y-51960000D03*
G04 #@! TO.P,J1,3*
G04 #@! TO.N,/SCK*
X88560000Y-54500000D03*
G04 #@! TO.P,J1,4*
G04 #@! TO.N,/MOSI*
X88560000Y-51960000D03*
G04 #@! TO.P,J1,5*
G04 #@! TO.N,/RESET*
X86020000Y-54500000D03*
G04 #@! TO.P,J1,6*
G04 #@! TO.N,GND*
X86020000Y-51960000D03*
G04 #@! TD*
D16*
G04 #@! TO.P,U3,1*
G04 #@! TO.N,Net-(U3-Pad1)*
X73400000Y-55200000D03*
G04 #@! TO.P,U3,2*
G04 #@! TO.N,+5V*
X74200000Y-55200000D03*
G04 #@! TO.P,U3,3*
G04 #@! TO.N,/D+*
X75000000Y-55200000D03*
G04 #@! TO.P,U3,4*
G04 #@! TO.N,/D-*
X75800000Y-55200000D03*
G04 #@! TO.P,U3,5*
G04 #@! TO.N,GND*
X76600000Y-55200000D03*
G04 #@! TO.P,U3,6*
G04 #@! TO.N,Net-(C12-Pad1)*
X77400000Y-55200000D03*
G04 #@! TO.P,U3,7*
G04 #@! TO.N,+5V*
X78200000Y-55200000D03*
G04 #@! TO.P,U3,8*
G04 #@! TO.N,/RXLED*
X79000000Y-55200000D03*
G04 #@! TO.P,U3,9*
G04 #@! TO.N,/SCK*
X79800000Y-55200000D03*
G04 #@! TO.P,U3,10*
G04 #@! TO.N,/MOSI*
X80600000Y-55200000D03*
G04 #@! TO.P,U3,11*
G04 #@! TO.N,/MISO*
X81400000Y-55200000D03*
D17*
G04 #@! TO.P,U3,12*
G04 #@! TO.N,/COL_EN*
X83100000Y-56900000D03*
G04 #@! TO.P,U3,13*
G04 #@! TO.N,/RESET*
X83100000Y-57700000D03*
G04 #@! TO.P,U3,14*
G04 #@! TO.N,+5V*
X83100000Y-58500000D03*
G04 #@! TO.P,U3,15*
G04 #@! TO.N,GND*
X83100000Y-59300000D03*
G04 #@! TO.P,U3,16*
G04 #@! TO.N,Net-(C9-Pad1)*
X83100000Y-60100000D03*
G04 #@! TO.P,U3,17*
G04 #@! TO.N,Net-(C8-Pad1)*
X83100000Y-60900000D03*
G04 #@! TO.P,U3,18*
G04 #@! TO.N,Net-(U3-Pad18)*
X83100000Y-61700000D03*
G04 #@! TO.P,U3,19*
G04 #@! TO.N,Net-(U3-Pad19)*
X83100000Y-62500000D03*
G04 #@! TO.P,U3,20*
G04 #@! TO.N,/Rx*
X83100000Y-63300000D03*
G04 #@! TO.P,U3,21*
G04 #@! TO.N,/Tx*
X83100000Y-64100000D03*
G04 #@! TO.P,U3,22*
G04 #@! TO.N,/TXLED*
X83100000Y-64900000D03*
D16*
G04 #@! TO.P,U3,23*
G04 #@! TO.N,GND*
X81400000Y-66600000D03*
G04 #@! TO.P,U3,24*
G04 #@! TO.N,+5V*
X80600000Y-66600000D03*
G04 #@! TO.P,U3,25*
G04 #@! TO.N,Net-(U3-Pad25)*
X79800000Y-66600000D03*
G04 #@! TO.P,U3,26*
G04 #@! TO.N,Net-(U3-Pad26)*
X79000000Y-66600000D03*
G04 #@! TO.P,U3,27*
G04 #@! TO.N,Net-(U3-Pad27)*
X78200000Y-66600000D03*
G04 #@! TO.P,U3,28*
G04 #@! TO.N,/COL_A*
X77400000Y-66600000D03*
G04 #@! TO.P,U3,29*
G04 #@! TO.N,/COL_B*
X76600000Y-66600000D03*
G04 #@! TO.P,U3,30*
G04 #@! TO.N,/COL_C*
X75800000Y-66600000D03*
G04 #@! TO.P,U3,31*
G04 #@! TO.N,Net-(U3-Pad31)*
X75000000Y-66600000D03*
G04 #@! TO.P,U3,32*
G04 #@! TO.N,/CLKLED*
X74200000Y-66600000D03*
G04 #@! TO.P,U3,33*
G04 #@! TO.N,/HWB*
X73400000Y-66600000D03*
D17*
G04 #@! TO.P,U3,34*
G04 #@! TO.N,+5V*
X71700000Y-64900000D03*
G04 #@! TO.P,U3,35*
G04 #@! TO.N,GND*
X71700000Y-64100000D03*
G04 #@! TO.P,U3,36*
G04 #@! TO.N,/MUX_A*
X71700000Y-63300000D03*
G04 #@! TO.P,U3,37*
G04 #@! TO.N,/MUX_B*
X71700000Y-62500000D03*
G04 #@! TO.P,U3,38*
G04 #@! TO.N,/MUX_C*
X71700000Y-61700000D03*
G04 #@! TO.P,U3,39*
G04 #@! TO.N,/MUX_EN*
X71700000Y-60900000D03*
G04 #@! TO.P,U3,40*
G04 #@! TO.N,/DRAIN*
X71700000Y-60100000D03*
G04 #@! TO.P,U3,41*
G04 #@! TO.N,/READ*
X71700000Y-59300000D03*
G04 #@! TO.P,U3,42*
G04 #@! TO.N,Net-(C10-Pad1)*
X71700000Y-58500000D03*
G04 #@! TO.P,U3,43*
G04 #@! TO.N,GND*
X71700000Y-57700000D03*
G04 #@! TO.P,U3,44*
G04 #@! TO.N,+5V*
X71700000Y-56900000D03*
G04 #@! TD*
D18*
G04 #@! TO.P,Y1,1*
G04 #@! TO.N,Net-(C8-Pad1)*
X87600000Y-65000000D03*
G04 #@! TO.P,Y1,2*
G04 #@! TO.N,Net-(C9-Pad1)*
X87600000Y-60100000D03*
G04 #@! TD*
D19*
G04 #@! TO.P,J3,S*
G04 #@! TO.N,GND*
X98200000Y-61800000D03*
G04 #@! TO.P,J3,T*
G04 #@! TO.N,+5V*
X93900000Y-60300000D03*
G04 #@! TO.P,J3,R1*
G04 #@! TO.N,/Rx*
X93900000Y-56300000D03*
D20*
G04 #@! TO.P,J3,R2*
G04 #@! TO.N,/Tx*
X93900000Y-53300000D03*
D21*
G04 #@! TO.P,J3,*
G04 #@! TO.N,*
X96100000Y-51500000D03*
X96100000Y-58500000D03*
G04 #@! TD*
D22*
G04 #@! TO.N,GND*
G04 #@! TO.C,C8*
G36*
X91460779Y-62376144D02*
X91483834Y-62379563D01*
X91506443Y-62385227D01*
X91528387Y-62393079D01*
X91549457Y-62403044D01*
X91569448Y-62415026D01*
X91588168Y-62428910D01*
X91605438Y-62444562D01*
X91621090Y-62461832D01*
X91634974Y-62480552D01*
X91646956Y-62500543D01*
X91656921Y-62521613D01*
X91664773Y-62543557D01*
X91670437Y-62566166D01*
X91673856Y-62589221D01*
X91675000Y-62612500D01*
X91675000Y-63187500D01*
X91673856Y-63210779D01*
X91670437Y-63233834D01*
X91664773Y-63256443D01*
X91656921Y-63278387D01*
X91646956Y-63299457D01*
X91634974Y-63319448D01*
X91621090Y-63338168D01*
X91605438Y-63355438D01*
X91588168Y-63371090D01*
X91569448Y-63384974D01*
X91549457Y-63396956D01*
X91528387Y-63406921D01*
X91506443Y-63414773D01*
X91483834Y-63420437D01*
X91460779Y-63423856D01*
X91437500Y-63425000D01*
X90962500Y-63425000D01*
X90939221Y-63423856D01*
X90916166Y-63420437D01*
X90893557Y-63414773D01*
X90871613Y-63406921D01*
X90850543Y-63396956D01*
X90830552Y-63384974D01*
X90811832Y-63371090D01*
X90794562Y-63355438D01*
X90778910Y-63338168D01*
X90765026Y-63319448D01*
X90753044Y-63299457D01*
X90743079Y-63278387D01*
X90735227Y-63256443D01*
X90729563Y-63233834D01*
X90726144Y-63210779D01*
X90725000Y-63187500D01*
X90725000Y-62612500D01*
X90726144Y-62589221D01*
X90729563Y-62566166D01*
X90735227Y-62543557D01*
X90743079Y-62521613D01*
X90753044Y-62500543D01*
X90765026Y-62480552D01*
X90778910Y-62461832D01*
X90794562Y-62444562D01*
X90811832Y-62428910D01*
X90830552Y-62415026D01*
X90850543Y-62403044D01*
X90871613Y-62393079D01*
X90893557Y-62385227D01*
X90916166Y-62379563D01*
X90939221Y-62376144D01*
X90962500Y-62375000D01*
X91437500Y-62375000D01*
X91460779Y-62376144D01*
X91460779Y-62376144D01*
G37*
D23*
G04 #@! TD*
G04 #@! TO.P,C8,2*
G04 #@! TO.N,GND*
X91200000Y-62900000D03*
D22*
G04 #@! TO.N,Net-(C8-Pad1)*
G04 #@! TO.C,C8*
G36*
X91460779Y-64126144D02*
X91483834Y-64129563D01*
X91506443Y-64135227D01*
X91528387Y-64143079D01*
X91549457Y-64153044D01*
X91569448Y-64165026D01*
X91588168Y-64178910D01*
X91605438Y-64194562D01*
X91621090Y-64211832D01*
X91634974Y-64230552D01*
X91646956Y-64250543D01*
X91656921Y-64271613D01*
X91664773Y-64293557D01*
X91670437Y-64316166D01*
X91673856Y-64339221D01*
X91675000Y-64362500D01*
X91675000Y-64937500D01*
X91673856Y-64960779D01*
X91670437Y-64983834D01*
X91664773Y-65006443D01*
X91656921Y-65028387D01*
X91646956Y-65049457D01*
X91634974Y-65069448D01*
X91621090Y-65088168D01*
X91605438Y-65105438D01*
X91588168Y-65121090D01*
X91569448Y-65134974D01*
X91549457Y-65146956D01*
X91528387Y-65156921D01*
X91506443Y-65164773D01*
X91483834Y-65170437D01*
X91460779Y-65173856D01*
X91437500Y-65175000D01*
X90962500Y-65175000D01*
X90939221Y-65173856D01*
X90916166Y-65170437D01*
X90893557Y-65164773D01*
X90871613Y-65156921D01*
X90850543Y-65146956D01*
X90830552Y-65134974D01*
X90811832Y-65121090D01*
X90794562Y-65105438D01*
X90778910Y-65088168D01*
X90765026Y-65069448D01*
X90753044Y-65049457D01*
X90743079Y-65028387D01*
X90735227Y-65006443D01*
X90729563Y-64983834D01*
X90726144Y-64960779D01*
X90725000Y-64937500D01*
X90725000Y-64362500D01*
X90726144Y-64339221D01*
X90729563Y-64316166D01*
X90735227Y-64293557D01*
X90743079Y-64271613D01*
X90753044Y-64250543D01*
X90765026Y-64230552D01*
X90778910Y-64211832D01*
X90794562Y-64194562D01*
X90811832Y-64178910D01*
X90830552Y-64165026D01*
X90850543Y-64153044D01*
X90871613Y-64143079D01*
X90893557Y-64135227D01*
X90916166Y-64129563D01*
X90939221Y-64126144D01*
X90962500Y-64125000D01*
X91437500Y-64125000D01*
X91460779Y-64126144D01*
X91460779Y-64126144D01*
G37*
D23*
G04 #@! TD*
G04 #@! TO.P,C8,1*
G04 #@! TO.N,Net-(C8-Pad1)*
X91200000Y-64650000D03*
D22*
G04 #@! TO.N,Net-(C9-Pad1)*
G04 #@! TO.C,C9*
G36*
X91460779Y-59201144D02*
X91483834Y-59204563D01*
X91506443Y-59210227D01*
X91528387Y-59218079D01*
X91549457Y-59228044D01*
X91569448Y-59240026D01*
X91588168Y-59253910D01*
X91605438Y-59269562D01*
X91621090Y-59286832D01*
X91634974Y-59305552D01*
X91646956Y-59325543D01*
X91656921Y-59346613D01*
X91664773Y-59368557D01*
X91670437Y-59391166D01*
X91673856Y-59414221D01*
X91675000Y-59437500D01*
X91675000Y-60012500D01*
X91673856Y-60035779D01*
X91670437Y-60058834D01*
X91664773Y-60081443D01*
X91656921Y-60103387D01*
X91646956Y-60124457D01*
X91634974Y-60144448D01*
X91621090Y-60163168D01*
X91605438Y-60180438D01*
X91588168Y-60196090D01*
X91569448Y-60209974D01*
X91549457Y-60221956D01*
X91528387Y-60231921D01*
X91506443Y-60239773D01*
X91483834Y-60245437D01*
X91460779Y-60248856D01*
X91437500Y-60250000D01*
X90962500Y-60250000D01*
X90939221Y-60248856D01*
X90916166Y-60245437D01*
X90893557Y-60239773D01*
X90871613Y-60231921D01*
X90850543Y-60221956D01*
X90830552Y-60209974D01*
X90811832Y-60196090D01*
X90794562Y-60180438D01*
X90778910Y-60163168D01*
X90765026Y-60144448D01*
X90753044Y-60124457D01*
X90743079Y-60103387D01*
X90735227Y-60081443D01*
X90729563Y-60058834D01*
X90726144Y-60035779D01*
X90725000Y-60012500D01*
X90725000Y-59437500D01*
X90726144Y-59414221D01*
X90729563Y-59391166D01*
X90735227Y-59368557D01*
X90743079Y-59346613D01*
X90753044Y-59325543D01*
X90765026Y-59305552D01*
X90778910Y-59286832D01*
X90794562Y-59269562D01*
X90811832Y-59253910D01*
X90830552Y-59240026D01*
X90850543Y-59228044D01*
X90871613Y-59218079D01*
X90893557Y-59210227D01*
X90916166Y-59204563D01*
X90939221Y-59201144D01*
X90962500Y-59200000D01*
X91437500Y-59200000D01*
X91460779Y-59201144D01*
X91460779Y-59201144D01*
G37*
D23*
G04 #@! TD*
G04 #@! TO.P,C9,1*
G04 #@! TO.N,Net-(C9-Pad1)*
X91200000Y-59725000D03*
D22*
G04 #@! TO.N,GND*
G04 #@! TO.C,C9*
G36*
X91460779Y-60951144D02*
X91483834Y-60954563D01*
X91506443Y-60960227D01*
X91528387Y-60968079D01*
X91549457Y-60978044D01*
X91569448Y-60990026D01*
X91588168Y-61003910D01*
X91605438Y-61019562D01*
X91621090Y-61036832D01*
X91634974Y-61055552D01*
X91646956Y-61075543D01*
X91656921Y-61096613D01*
X91664773Y-61118557D01*
X91670437Y-61141166D01*
X91673856Y-61164221D01*
X91675000Y-61187500D01*
X91675000Y-61762500D01*
X91673856Y-61785779D01*
X91670437Y-61808834D01*
X91664773Y-61831443D01*
X91656921Y-61853387D01*
X91646956Y-61874457D01*
X91634974Y-61894448D01*
X91621090Y-61913168D01*
X91605438Y-61930438D01*
X91588168Y-61946090D01*
X91569448Y-61959974D01*
X91549457Y-61971956D01*
X91528387Y-61981921D01*
X91506443Y-61989773D01*
X91483834Y-61995437D01*
X91460779Y-61998856D01*
X91437500Y-62000000D01*
X90962500Y-62000000D01*
X90939221Y-61998856D01*
X90916166Y-61995437D01*
X90893557Y-61989773D01*
X90871613Y-61981921D01*
X90850543Y-61971956D01*
X90830552Y-61959974D01*
X90811832Y-61946090D01*
X90794562Y-61930438D01*
X90778910Y-61913168D01*
X90765026Y-61894448D01*
X90753044Y-61874457D01*
X90743079Y-61853387D01*
X90735227Y-61831443D01*
X90729563Y-61808834D01*
X90726144Y-61785779D01*
X90725000Y-61762500D01*
X90725000Y-61187500D01*
X90726144Y-61164221D01*
X90729563Y-61141166D01*
X90735227Y-61118557D01*
X90743079Y-61096613D01*
X90753044Y-61075543D01*
X90765026Y-61055552D01*
X90778910Y-61036832D01*
X90794562Y-61019562D01*
X90811832Y-61003910D01*
X90830552Y-60990026D01*
X90850543Y-60978044D01*
X90871613Y-60968079D01*
X90893557Y-60960227D01*
X90916166Y-60954563D01*
X90939221Y-60951144D01*
X90962500Y-60950000D01*
X91437500Y-60950000D01*
X91460779Y-60951144D01*
X91460779Y-60951144D01*
G37*
D23*
G04 #@! TD*
G04 #@! TO.P,C9,2*
G04 #@! TO.N,GND*
X91200000Y-61475000D03*
D22*
G04 #@! TO.N,Net-(C10-Pad1)*
G04 #@! TO.C,C10*
G36*
X69960779Y-58026144D02*
X69983834Y-58029563D01*
X70006443Y-58035227D01*
X70028387Y-58043079D01*
X70049457Y-58053044D01*
X70069448Y-58065026D01*
X70088168Y-58078910D01*
X70105438Y-58094562D01*
X70121090Y-58111832D01*
X70134974Y-58130552D01*
X70146956Y-58150543D01*
X70156921Y-58171613D01*
X70164773Y-58193557D01*
X70170437Y-58216166D01*
X70173856Y-58239221D01*
X70175000Y-58262500D01*
X70175000Y-58737500D01*
X70173856Y-58760779D01*
X70170437Y-58783834D01*
X70164773Y-58806443D01*
X70156921Y-58828387D01*
X70146956Y-58849457D01*
X70134974Y-58869448D01*
X70121090Y-58888168D01*
X70105438Y-58905438D01*
X70088168Y-58921090D01*
X70069448Y-58934974D01*
X70049457Y-58946956D01*
X70028387Y-58956921D01*
X70006443Y-58964773D01*
X69983834Y-58970437D01*
X69960779Y-58973856D01*
X69937500Y-58975000D01*
X69362500Y-58975000D01*
X69339221Y-58973856D01*
X69316166Y-58970437D01*
X69293557Y-58964773D01*
X69271613Y-58956921D01*
X69250543Y-58946956D01*
X69230552Y-58934974D01*
X69211832Y-58921090D01*
X69194562Y-58905438D01*
X69178910Y-58888168D01*
X69165026Y-58869448D01*
X69153044Y-58849457D01*
X69143079Y-58828387D01*
X69135227Y-58806443D01*
X69129563Y-58783834D01*
X69126144Y-58760779D01*
X69125000Y-58737500D01*
X69125000Y-58262500D01*
X69126144Y-58239221D01*
X69129563Y-58216166D01*
X69135227Y-58193557D01*
X69143079Y-58171613D01*
X69153044Y-58150543D01*
X69165026Y-58130552D01*
X69178910Y-58111832D01*
X69194562Y-58094562D01*
X69211832Y-58078910D01*
X69230552Y-58065026D01*
X69250543Y-58053044D01*
X69271613Y-58043079D01*
X69293557Y-58035227D01*
X69316166Y-58029563D01*
X69339221Y-58026144D01*
X69362500Y-58025000D01*
X69937500Y-58025000D01*
X69960779Y-58026144D01*
X69960779Y-58026144D01*
G37*
D23*
G04 #@! TD*
G04 #@! TO.P,C10,1*
G04 #@! TO.N,Net-(C10-Pad1)*
X69650000Y-58500000D03*
D22*
G04 #@! TO.N,GND*
G04 #@! TO.C,C10*
G36*
X68210779Y-58026144D02*
X68233834Y-58029563D01*
X68256443Y-58035227D01*
X68278387Y-58043079D01*
X68299457Y-58053044D01*
X68319448Y-58065026D01*
X68338168Y-58078910D01*
X68355438Y-58094562D01*
X68371090Y-58111832D01*
X68384974Y-58130552D01*
X68396956Y-58150543D01*
X68406921Y-58171613D01*
X68414773Y-58193557D01*
X68420437Y-58216166D01*
X68423856Y-58239221D01*
X68425000Y-58262500D01*
X68425000Y-58737500D01*
X68423856Y-58760779D01*
X68420437Y-58783834D01*
X68414773Y-58806443D01*
X68406921Y-58828387D01*
X68396956Y-58849457D01*
X68384974Y-58869448D01*
X68371090Y-58888168D01*
X68355438Y-58905438D01*
X68338168Y-58921090D01*
X68319448Y-58934974D01*
X68299457Y-58946956D01*
X68278387Y-58956921D01*
X68256443Y-58964773D01*
X68233834Y-58970437D01*
X68210779Y-58973856D01*
X68187500Y-58975000D01*
X67612500Y-58975000D01*
X67589221Y-58973856D01*
X67566166Y-58970437D01*
X67543557Y-58964773D01*
X67521613Y-58956921D01*
X67500543Y-58946956D01*
X67480552Y-58934974D01*
X67461832Y-58921090D01*
X67444562Y-58905438D01*
X67428910Y-58888168D01*
X67415026Y-58869448D01*
X67403044Y-58849457D01*
X67393079Y-58828387D01*
X67385227Y-58806443D01*
X67379563Y-58783834D01*
X67376144Y-58760779D01*
X67375000Y-58737500D01*
X67375000Y-58262500D01*
X67376144Y-58239221D01*
X67379563Y-58216166D01*
X67385227Y-58193557D01*
X67393079Y-58171613D01*
X67403044Y-58150543D01*
X67415026Y-58130552D01*
X67428910Y-58111832D01*
X67444562Y-58094562D01*
X67461832Y-58078910D01*
X67480552Y-58065026D01*
X67500543Y-58053044D01*
X67521613Y-58043079D01*
X67543557Y-58035227D01*
X67566166Y-58029563D01*
X67589221Y-58026144D01*
X67612500Y-58025000D01*
X68187500Y-58025000D01*
X68210779Y-58026144D01*
X68210779Y-58026144D01*
G37*
D23*
G04 #@! TD*
G04 #@! TO.P,C10,2*
G04 #@! TO.N,GND*
X67900000Y-58500000D03*
D22*
G04 #@! TO.N,GND*
G04 #@! TO.C,C11*
G36*
X78660779Y-50901144D02*
X78683834Y-50904563D01*
X78706443Y-50910227D01*
X78728387Y-50918079D01*
X78749457Y-50928044D01*
X78769448Y-50940026D01*
X78788168Y-50953910D01*
X78805438Y-50969562D01*
X78821090Y-50986832D01*
X78834974Y-51005552D01*
X78846956Y-51025543D01*
X78856921Y-51046613D01*
X78864773Y-51068557D01*
X78870437Y-51091166D01*
X78873856Y-51114221D01*
X78875000Y-51137500D01*
X78875000Y-51712500D01*
X78873856Y-51735779D01*
X78870437Y-51758834D01*
X78864773Y-51781443D01*
X78856921Y-51803387D01*
X78846956Y-51824457D01*
X78834974Y-51844448D01*
X78821090Y-51863168D01*
X78805438Y-51880438D01*
X78788168Y-51896090D01*
X78769448Y-51909974D01*
X78749457Y-51921956D01*
X78728387Y-51931921D01*
X78706443Y-51939773D01*
X78683834Y-51945437D01*
X78660779Y-51948856D01*
X78637500Y-51950000D01*
X78162500Y-51950000D01*
X78139221Y-51948856D01*
X78116166Y-51945437D01*
X78093557Y-51939773D01*
X78071613Y-51931921D01*
X78050543Y-51921956D01*
X78030552Y-51909974D01*
X78011832Y-51896090D01*
X77994562Y-51880438D01*
X77978910Y-51863168D01*
X77965026Y-51844448D01*
X77953044Y-51824457D01*
X77943079Y-51803387D01*
X77935227Y-51781443D01*
X77929563Y-51758834D01*
X77926144Y-51735779D01*
X77925000Y-51712500D01*
X77925000Y-51137500D01*
X77926144Y-51114221D01*
X77929563Y-51091166D01*
X77935227Y-51068557D01*
X77943079Y-51046613D01*
X77953044Y-51025543D01*
X77965026Y-51005552D01*
X77978910Y-50986832D01*
X77994562Y-50969562D01*
X78011832Y-50953910D01*
X78030552Y-50940026D01*
X78050543Y-50928044D01*
X78071613Y-50918079D01*
X78093557Y-50910227D01*
X78116166Y-50904563D01*
X78139221Y-50901144D01*
X78162500Y-50900000D01*
X78637500Y-50900000D01*
X78660779Y-50901144D01*
X78660779Y-50901144D01*
G37*
D23*
G04 #@! TD*
G04 #@! TO.P,C11,2*
G04 #@! TO.N,GND*
X78400000Y-51425000D03*
D22*
G04 #@! TO.N,+5V*
G04 #@! TO.C,C11*
G36*
X78660779Y-52651144D02*
X78683834Y-52654563D01*
X78706443Y-52660227D01*
X78728387Y-52668079D01*
X78749457Y-52678044D01*
X78769448Y-52690026D01*
X78788168Y-52703910D01*
X78805438Y-52719562D01*
X78821090Y-52736832D01*
X78834974Y-52755552D01*
X78846956Y-52775543D01*
X78856921Y-52796613D01*
X78864773Y-52818557D01*
X78870437Y-52841166D01*
X78873856Y-52864221D01*
X78875000Y-52887500D01*
X78875000Y-53462500D01*
X78873856Y-53485779D01*
X78870437Y-53508834D01*
X78864773Y-53531443D01*
X78856921Y-53553387D01*
X78846956Y-53574457D01*
X78834974Y-53594448D01*
X78821090Y-53613168D01*
X78805438Y-53630438D01*
X78788168Y-53646090D01*
X78769448Y-53659974D01*
X78749457Y-53671956D01*
X78728387Y-53681921D01*
X78706443Y-53689773D01*
X78683834Y-53695437D01*
X78660779Y-53698856D01*
X78637500Y-53700000D01*
X78162500Y-53700000D01*
X78139221Y-53698856D01*
X78116166Y-53695437D01*
X78093557Y-53689773D01*
X78071613Y-53681921D01*
X78050543Y-53671956D01*
X78030552Y-53659974D01*
X78011832Y-53646090D01*
X77994562Y-53630438D01*
X77978910Y-53613168D01*
X77965026Y-53594448D01*
X77953044Y-53574457D01*
X77943079Y-53553387D01*
X77935227Y-53531443D01*
X77929563Y-53508834D01*
X77926144Y-53485779D01*
X77925000Y-53462500D01*
X77925000Y-52887500D01*
X77926144Y-52864221D01*
X77929563Y-52841166D01*
X77935227Y-52818557D01*
X77943079Y-52796613D01*
X77953044Y-52775543D01*
X77965026Y-52755552D01*
X77978910Y-52736832D01*
X77994562Y-52719562D01*
X78011832Y-52703910D01*
X78030552Y-52690026D01*
X78050543Y-52678044D01*
X78071613Y-52668079D01*
X78093557Y-52660227D01*
X78116166Y-52654563D01*
X78139221Y-52651144D01*
X78162500Y-52650000D01*
X78637500Y-52650000D01*
X78660779Y-52651144D01*
X78660779Y-52651144D01*
G37*
D23*
G04 #@! TD*
G04 #@! TO.P,C11,1*
G04 #@! TO.N,+5V*
X78400000Y-53175000D03*
D22*
G04 #@! TO.N,GND*
G04 #@! TO.C,C12*
G36*
X77260779Y-50901144D02*
X77283834Y-50904563D01*
X77306443Y-50910227D01*
X77328387Y-50918079D01*
X77349457Y-50928044D01*
X77369448Y-50940026D01*
X77388168Y-50953910D01*
X77405438Y-50969562D01*
X77421090Y-50986832D01*
X77434974Y-51005552D01*
X77446956Y-51025543D01*
X77456921Y-51046613D01*
X77464773Y-51068557D01*
X77470437Y-51091166D01*
X77473856Y-51114221D01*
X77475000Y-51137500D01*
X77475000Y-51712500D01*
X77473856Y-51735779D01*
X77470437Y-51758834D01*
X77464773Y-51781443D01*
X77456921Y-51803387D01*
X77446956Y-51824457D01*
X77434974Y-51844448D01*
X77421090Y-51863168D01*
X77405438Y-51880438D01*
X77388168Y-51896090D01*
X77369448Y-51909974D01*
X77349457Y-51921956D01*
X77328387Y-51931921D01*
X77306443Y-51939773D01*
X77283834Y-51945437D01*
X77260779Y-51948856D01*
X77237500Y-51950000D01*
X76762500Y-51950000D01*
X76739221Y-51948856D01*
X76716166Y-51945437D01*
X76693557Y-51939773D01*
X76671613Y-51931921D01*
X76650543Y-51921956D01*
X76630552Y-51909974D01*
X76611832Y-51896090D01*
X76594562Y-51880438D01*
X76578910Y-51863168D01*
X76565026Y-51844448D01*
X76553044Y-51824457D01*
X76543079Y-51803387D01*
X76535227Y-51781443D01*
X76529563Y-51758834D01*
X76526144Y-51735779D01*
X76525000Y-51712500D01*
X76525000Y-51137500D01*
X76526144Y-51114221D01*
X76529563Y-51091166D01*
X76535227Y-51068557D01*
X76543079Y-51046613D01*
X76553044Y-51025543D01*
X76565026Y-51005552D01*
X76578910Y-50986832D01*
X76594562Y-50969562D01*
X76611832Y-50953910D01*
X76630552Y-50940026D01*
X76650543Y-50928044D01*
X76671613Y-50918079D01*
X76693557Y-50910227D01*
X76716166Y-50904563D01*
X76739221Y-50901144D01*
X76762500Y-50900000D01*
X77237500Y-50900000D01*
X77260779Y-50901144D01*
X77260779Y-50901144D01*
G37*
D23*
G04 #@! TD*
G04 #@! TO.P,C12,2*
G04 #@! TO.N,GND*
X77000000Y-51425000D03*
D22*
G04 #@! TO.N,Net-(C12-Pad1)*
G04 #@! TO.C,C12*
G36*
X77260779Y-52651144D02*
X77283834Y-52654563D01*
X77306443Y-52660227D01*
X77328387Y-52668079D01*
X77349457Y-52678044D01*
X77369448Y-52690026D01*
X77388168Y-52703910D01*
X77405438Y-52719562D01*
X77421090Y-52736832D01*
X77434974Y-52755552D01*
X77446956Y-52775543D01*
X77456921Y-52796613D01*
X77464773Y-52818557D01*
X77470437Y-52841166D01*
X77473856Y-52864221D01*
X77475000Y-52887500D01*
X77475000Y-53462500D01*
X77473856Y-53485779D01*
X77470437Y-53508834D01*
X77464773Y-53531443D01*
X77456921Y-53553387D01*
X77446956Y-53574457D01*
X77434974Y-53594448D01*
X77421090Y-53613168D01*
X77405438Y-53630438D01*
X77388168Y-53646090D01*
X77369448Y-53659974D01*
X77349457Y-53671956D01*
X77328387Y-53681921D01*
X77306443Y-53689773D01*
X77283834Y-53695437D01*
X77260779Y-53698856D01*
X77237500Y-53700000D01*
X76762500Y-53700000D01*
X76739221Y-53698856D01*
X76716166Y-53695437D01*
X76693557Y-53689773D01*
X76671613Y-53681921D01*
X76650543Y-53671956D01*
X76630552Y-53659974D01*
X76611832Y-53646090D01*
X76594562Y-53630438D01*
X76578910Y-53613168D01*
X76565026Y-53594448D01*
X76553044Y-53574457D01*
X76543079Y-53553387D01*
X76535227Y-53531443D01*
X76529563Y-53508834D01*
X76526144Y-53485779D01*
X76525000Y-53462500D01*
X76525000Y-52887500D01*
X76526144Y-52864221D01*
X76529563Y-52841166D01*
X76535227Y-52818557D01*
X76543079Y-52796613D01*
X76553044Y-52775543D01*
X76565026Y-52755552D01*
X76578910Y-52736832D01*
X76594562Y-52719562D01*
X76611832Y-52703910D01*
X76630552Y-52690026D01*
X76650543Y-52678044D01*
X76671613Y-52668079D01*
X76693557Y-52660227D01*
X76716166Y-52654563D01*
X76739221Y-52651144D01*
X76762500Y-52650000D01*
X77237500Y-52650000D01*
X77260779Y-52651144D01*
X77260779Y-52651144D01*
G37*
D23*
G04 #@! TD*
G04 #@! TO.P,C12,1*
G04 #@! TO.N,Net-(C12-Pad1)*
X77000000Y-53175000D03*
D22*
G04 #@! TO.N,+5V*
G04 #@! TO.C,C13*
G36*
X81660779Y-68076144D02*
X81683834Y-68079563D01*
X81706443Y-68085227D01*
X81728387Y-68093079D01*
X81749457Y-68103044D01*
X81769448Y-68115026D01*
X81788168Y-68128910D01*
X81805438Y-68144562D01*
X81821090Y-68161832D01*
X81834974Y-68180552D01*
X81846956Y-68200543D01*
X81856921Y-68221613D01*
X81864773Y-68243557D01*
X81870437Y-68266166D01*
X81873856Y-68289221D01*
X81875000Y-68312500D01*
X81875000Y-68887500D01*
X81873856Y-68910779D01*
X81870437Y-68933834D01*
X81864773Y-68956443D01*
X81856921Y-68978387D01*
X81846956Y-68999457D01*
X81834974Y-69019448D01*
X81821090Y-69038168D01*
X81805438Y-69055438D01*
X81788168Y-69071090D01*
X81769448Y-69084974D01*
X81749457Y-69096956D01*
X81728387Y-69106921D01*
X81706443Y-69114773D01*
X81683834Y-69120437D01*
X81660779Y-69123856D01*
X81637500Y-69125000D01*
X81162500Y-69125000D01*
X81139221Y-69123856D01*
X81116166Y-69120437D01*
X81093557Y-69114773D01*
X81071613Y-69106921D01*
X81050543Y-69096956D01*
X81030552Y-69084974D01*
X81011832Y-69071090D01*
X80994562Y-69055438D01*
X80978910Y-69038168D01*
X80965026Y-69019448D01*
X80953044Y-68999457D01*
X80943079Y-68978387D01*
X80935227Y-68956443D01*
X80929563Y-68933834D01*
X80926144Y-68910779D01*
X80925000Y-68887500D01*
X80925000Y-68312500D01*
X80926144Y-68289221D01*
X80929563Y-68266166D01*
X80935227Y-68243557D01*
X80943079Y-68221613D01*
X80953044Y-68200543D01*
X80965026Y-68180552D01*
X80978910Y-68161832D01*
X80994562Y-68144562D01*
X81011832Y-68128910D01*
X81030552Y-68115026D01*
X81050543Y-68103044D01*
X81071613Y-68093079D01*
X81093557Y-68085227D01*
X81116166Y-68079563D01*
X81139221Y-68076144D01*
X81162500Y-68075000D01*
X81637500Y-68075000D01*
X81660779Y-68076144D01*
X81660779Y-68076144D01*
G37*
D23*
G04 #@! TD*
G04 #@! TO.P,C13,2*
G04 #@! TO.N,+5V*
X81400000Y-68600000D03*
D22*
G04 #@! TO.N,GND*
G04 #@! TO.C,C13*
G36*
X81660779Y-69826144D02*
X81683834Y-69829563D01*
X81706443Y-69835227D01*
X81728387Y-69843079D01*
X81749457Y-69853044D01*
X81769448Y-69865026D01*
X81788168Y-69878910D01*
X81805438Y-69894562D01*
X81821090Y-69911832D01*
X81834974Y-69930552D01*
X81846956Y-69950543D01*
X81856921Y-69971613D01*
X81864773Y-69993557D01*
X81870437Y-70016166D01*
X81873856Y-70039221D01*
X81875000Y-70062500D01*
X81875000Y-70637500D01*
X81873856Y-70660779D01*
X81870437Y-70683834D01*
X81864773Y-70706443D01*
X81856921Y-70728387D01*
X81846956Y-70749457D01*
X81834974Y-70769448D01*
X81821090Y-70788168D01*
X81805438Y-70805438D01*
X81788168Y-70821090D01*
X81769448Y-70834974D01*
X81749457Y-70846956D01*
X81728387Y-70856921D01*
X81706443Y-70864773D01*
X81683834Y-70870437D01*
X81660779Y-70873856D01*
X81637500Y-70875000D01*
X81162500Y-70875000D01*
X81139221Y-70873856D01*
X81116166Y-70870437D01*
X81093557Y-70864773D01*
X81071613Y-70856921D01*
X81050543Y-70846956D01*
X81030552Y-70834974D01*
X81011832Y-70821090D01*
X80994562Y-70805438D01*
X80978910Y-70788168D01*
X80965026Y-70769448D01*
X80953044Y-70749457D01*
X80943079Y-70728387D01*
X80935227Y-70706443D01*
X80929563Y-70683834D01*
X80926144Y-70660779D01*
X80925000Y-70637500D01*
X80925000Y-70062500D01*
X80926144Y-70039221D01*
X80929563Y-70016166D01*
X80935227Y-69993557D01*
X80943079Y-69971613D01*
X80953044Y-69950543D01*
X80965026Y-69930552D01*
X80978910Y-69911832D01*
X80994562Y-69894562D01*
X81011832Y-69878910D01*
X81030552Y-69865026D01*
X81050543Y-69853044D01*
X81071613Y-69843079D01*
X81093557Y-69835227D01*
X81116166Y-69829563D01*
X81139221Y-69826144D01*
X81162500Y-69825000D01*
X81637500Y-69825000D01*
X81660779Y-69826144D01*
X81660779Y-69826144D01*
G37*
D23*
G04 #@! TD*
G04 #@! TO.P,C13,1*
G04 #@! TO.N,GND*
X81400000Y-70350000D03*
D22*
G04 #@! TO.N,GND*
G04 #@! TO.C,C14*
G36*
X80260779Y-69826144D02*
X80283834Y-69829563D01*
X80306443Y-69835227D01*
X80328387Y-69843079D01*
X80349457Y-69853044D01*
X80369448Y-69865026D01*
X80388168Y-69878910D01*
X80405438Y-69894562D01*
X80421090Y-69911832D01*
X80434974Y-69930552D01*
X80446956Y-69950543D01*
X80456921Y-69971613D01*
X80464773Y-69993557D01*
X80470437Y-70016166D01*
X80473856Y-70039221D01*
X80475000Y-70062500D01*
X80475000Y-70637500D01*
X80473856Y-70660779D01*
X80470437Y-70683834D01*
X80464773Y-70706443D01*
X80456921Y-70728387D01*
X80446956Y-70749457D01*
X80434974Y-70769448D01*
X80421090Y-70788168D01*
X80405438Y-70805438D01*
X80388168Y-70821090D01*
X80369448Y-70834974D01*
X80349457Y-70846956D01*
X80328387Y-70856921D01*
X80306443Y-70864773D01*
X80283834Y-70870437D01*
X80260779Y-70873856D01*
X80237500Y-70875000D01*
X79762500Y-70875000D01*
X79739221Y-70873856D01*
X79716166Y-70870437D01*
X79693557Y-70864773D01*
X79671613Y-70856921D01*
X79650543Y-70846956D01*
X79630552Y-70834974D01*
X79611832Y-70821090D01*
X79594562Y-70805438D01*
X79578910Y-70788168D01*
X79565026Y-70769448D01*
X79553044Y-70749457D01*
X79543079Y-70728387D01*
X79535227Y-70706443D01*
X79529563Y-70683834D01*
X79526144Y-70660779D01*
X79525000Y-70637500D01*
X79525000Y-70062500D01*
X79526144Y-70039221D01*
X79529563Y-70016166D01*
X79535227Y-69993557D01*
X79543079Y-69971613D01*
X79553044Y-69950543D01*
X79565026Y-69930552D01*
X79578910Y-69911832D01*
X79594562Y-69894562D01*
X79611832Y-69878910D01*
X79630552Y-69865026D01*
X79650543Y-69853044D01*
X79671613Y-69843079D01*
X79693557Y-69835227D01*
X79716166Y-69829563D01*
X79739221Y-69826144D01*
X79762500Y-69825000D01*
X80237500Y-69825000D01*
X80260779Y-69826144D01*
X80260779Y-69826144D01*
G37*
D23*
G04 #@! TD*
G04 #@! TO.P,C14,1*
G04 #@! TO.N,GND*
X80000000Y-70350000D03*
D22*
G04 #@! TO.N,+5V*
G04 #@! TO.C,C14*
G36*
X80260779Y-68076144D02*
X80283834Y-68079563D01*
X80306443Y-68085227D01*
X80328387Y-68093079D01*
X80349457Y-68103044D01*
X80369448Y-68115026D01*
X80388168Y-68128910D01*
X80405438Y-68144562D01*
X80421090Y-68161832D01*
X80434974Y-68180552D01*
X80446956Y-68200543D01*
X80456921Y-68221613D01*
X80464773Y-68243557D01*
X80470437Y-68266166D01*
X80473856Y-68289221D01*
X80475000Y-68312500D01*
X80475000Y-68887500D01*
X80473856Y-68910779D01*
X80470437Y-68933834D01*
X80464773Y-68956443D01*
X80456921Y-68978387D01*
X80446956Y-68999457D01*
X80434974Y-69019448D01*
X80421090Y-69038168D01*
X80405438Y-69055438D01*
X80388168Y-69071090D01*
X80369448Y-69084974D01*
X80349457Y-69096956D01*
X80328387Y-69106921D01*
X80306443Y-69114773D01*
X80283834Y-69120437D01*
X80260779Y-69123856D01*
X80237500Y-69125000D01*
X79762500Y-69125000D01*
X79739221Y-69123856D01*
X79716166Y-69120437D01*
X79693557Y-69114773D01*
X79671613Y-69106921D01*
X79650543Y-69096956D01*
X79630552Y-69084974D01*
X79611832Y-69071090D01*
X79594562Y-69055438D01*
X79578910Y-69038168D01*
X79565026Y-69019448D01*
X79553044Y-68999457D01*
X79543079Y-68978387D01*
X79535227Y-68956443D01*
X79529563Y-68933834D01*
X79526144Y-68910779D01*
X79525000Y-68887500D01*
X79525000Y-68312500D01*
X79526144Y-68289221D01*
X79529563Y-68266166D01*
X79535227Y-68243557D01*
X79543079Y-68221613D01*
X79553044Y-68200543D01*
X79565026Y-68180552D01*
X79578910Y-68161832D01*
X79594562Y-68144562D01*
X79611832Y-68128910D01*
X79630552Y-68115026D01*
X79650543Y-68103044D01*
X79671613Y-68093079D01*
X79693557Y-68085227D01*
X79716166Y-68079563D01*
X79739221Y-68076144D01*
X79762500Y-68075000D01*
X80237500Y-68075000D01*
X80260779Y-68076144D01*
X80260779Y-68076144D01*
G37*
D23*
G04 #@! TD*
G04 #@! TO.P,C14,2*
G04 #@! TO.N,+5V*
X80000000Y-68600000D03*
D22*
G04 #@! TO.N,GND*
G04 #@! TO.C,C15*
G36*
X55210779Y-57851144D02*
X55233834Y-57854563D01*
X55256443Y-57860227D01*
X55278387Y-57868079D01*
X55299457Y-57878044D01*
X55319448Y-57890026D01*
X55338168Y-57903910D01*
X55355438Y-57919562D01*
X55371090Y-57936832D01*
X55384974Y-57955552D01*
X55396956Y-57975543D01*
X55406921Y-57996613D01*
X55414773Y-58018557D01*
X55420437Y-58041166D01*
X55423856Y-58064221D01*
X55425000Y-58087500D01*
X55425000Y-58662500D01*
X55423856Y-58685779D01*
X55420437Y-58708834D01*
X55414773Y-58731443D01*
X55406921Y-58753387D01*
X55396956Y-58774457D01*
X55384974Y-58794448D01*
X55371090Y-58813168D01*
X55355438Y-58830438D01*
X55338168Y-58846090D01*
X55319448Y-58859974D01*
X55299457Y-58871956D01*
X55278387Y-58881921D01*
X55256443Y-58889773D01*
X55233834Y-58895437D01*
X55210779Y-58898856D01*
X55187500Y-58900000D01*
X54712500Y-58900000D01*
X54689221Y-58898856D01*
X54666166Y-58895437D01*
X54643557Y-58889773D01*
X54621613Y-58881921D01*
X54600543Y-58871956D01*
X54580552Y-58859974D01*
X54561832Y-58846090D01*
X54544562Y-58830438D01*
X54528910Y-58813168D01*
X54515026Y-58794448D01*
X54503044Y-58774457D01*
X54493079Y-58753387D01*
X54485227Y-58731443D01*
X54479563Y-58708834D01*
X54476144Y-58685779D01*
X54475000Y-58662500D01*
X54475000Y-58087500D01*
X54476144Y-58064221D01*
X54479563Y-58041166D01*
X54485227Y-58018557D01*
X54493079Y-57996613D01*
X54503044Y-57975543D01*
X54515026Y-57955552D01*
X54528910Y-57936832D01*
X54544562Y-57919562D01*
X54561832Y-57903910D01*
X54580552Y-57890026D01*
X54600543Y-57878044D01*
X54621613Y-57868079D01*
X54643557Y-57860227D01*
X54666166Y-57854563D01*
X54689221Y-57851144D01*
X54712500Y-57850000D01*
X55187500Y-57850000D01*
X55210779Y-57851144D01*
X55210779Y-57851144D01*
G37*
D23*
G04 #@! TD*
G04 #@! TO.P,C15,2*
G04 #@! TO.N,GND*
X54950000Y-58375000D03*
D22*
G04 #@! TO.N,+5V*
G04 #@! TO.C,C15*
G36*
X55210779Y-56101144D02*
X55233834Y-56104563D01*
X55256443Y-56110227D01*
X55278387Y-56118079D01*
X55299457Y-56128044D01*
X55319448Y-56140026D01*
X55338168Y-56153910D01*
X55355438Y-56169562D01*
X55371090Y-56186832D01*
X55384974Y-56205552D01*
X55396956Y-56225543D01*
X55406921Y-56246613D01*
X55414773Y-56268557D01*
X55420437Y-56291166D01*
X55423856Y-56314221D01*
X55425000Y-56337500D01*
X55425000Y-56912500D01*
X55423856Y-56935779D01*
X55420437Y-56958834D01*
X55414773Y-56981443D01*
X55406921Y-57003387D01*
X55396956Y-57024457D01*
X55384974Y-57044448D01*
X55371090Y-57063168D01*
X55355438Y-57080438D01*
X55338168Y-57096090D01*
X55319448Y-57109974D01*
X55299457Y-57121956D01*
X55278387Y-57131921D01*
X55256443Y-57139773D01*
X55233834Y-57145437D01*
X55210779Y-57148856D01*
X55187500Y-57150000D01*
X54712500Y-57150000D01*
X54689221Y-57148856D01*
X54666166Y-57145437D01*
X54643557Y-57139773D01*
X54621613Y-57131921D01*
X54600543Y-57121956D01*
X54580552Y-57109974D01*
X54561832Y-57096090D01*
X54544562Y-57080438D01*
X54528910Y-57063168D01*
X54515026Y-57044448D01*
X54503044Y-57024457D01*
X54493079Y-57003387D01*
X54485227Y-56981443D01*
X54479563Y-56958834D01*
X54476144Y-56935779D01*
X54475000Y-56912500D01*
X54475000Y-56337500D01*
X54476144Y-56314221D01*
X54479563Y-56291166D01*
X54485227Y-56268557D01*
X54493079Y-56246613D01*
X54503044Y-56225543D01*
X54515026Y-56205552D01*
X54528910Y-56186832D01*
X54544562Y-56169562D01*
X54561832Y-56153910D01*
X54580552Y-56140026D01*
X54600543Y-56128044D01*
X54621613Y-56118079D01*
X54643557Y-56110227D01*
X54666166Y-56104563D01*
X54689221Y-56101144D01*
X54712500Y-56100000D01*
X55187500Y-56100000D01*
X55210779Y-56101144D01*
X55210779Y-56101144D01*
G37*
D23*
G04 #@! TD*
G04 #@! TO.P,C15,1*
G04 #@! TO.N,+5V*
X54950000Y-56625000D03*
D22*
G04 #@! TO.N,+5V*
G04 #@! TO.C,C16*
G36*
X54010779Y-56101144D02*
X54033834Y-56104563D01*
X54056443Y-56110227D01*
X54078387Y-56118079D01*
X54099457Y-56128044D01*
X54119448Y-56140026D01*
X54138168Y-56153910D01*
X54155438Y-56169562D01*
X54171090Y-56186832D01*
X54184974Y-56205552D01*
X54196956Y-56225543D01*
X54206921Y-56246613D01*
X54214773Y-56268557D01*
X54220437Y-56291166D01*
X54223856Y-56314221D01*
X54225000Y-56337500D01*
X54225000Y-56912500D01*
X54223856Y-56935779D01*
X54220437Y-56958834D01*
X54214773Y-56981443D01*
X54206921Y-57003387D01*
X54196956Y-57024457D01*
X54184974Y-57044448D01*
X54171090Y-57063168D01*
X54155438Y-57080438D01*
X54138168Y-57096090D01*
X54119448Y-57109974D01*
X54099457Y-57121956D01*
X54078387Y-57131921D01*
X54056443Y-57139773D01*
X54033834Y-57145437D01*
X54010779Y-57148856D01*
X53987500Y-57150000D01*
X53512500Y-57150000D01*
X53489221Y-57148856D01*
X53466166Y-57145437D01*
X53443557Y-57139773D01*
X53421613Y-57131921D01*
X53400543Y-57121956D01*
X53380552Y-57109974D01*
X53361832Y-57096090D01*
X53344562Y-57080438D01*
X53328910Y-57063168D01*
X53315026Y-57044448D01*
X53303044Y-57024457D01*
X53293079Y-57003387D01*
X53285227Y-56981443D01*
X53279563Y-56958834D01*
X53276144Y-56935779D01*
X53275000Y-56912500D01*
X53275000Y-56337500D01*
X53276144Y-56314221D01*
X53279563Y-56291166D01*
X53285227Y-56268557D01*
X53293079Y-56246613D01*
X53303044Y-56225543D01*
X53315026Y-56205552D01*
X53328910Y-56186832D01*
X53344562Y-56169562D01*
X53361832Y-56153910D01*
X53380552Y-56140026D01*
X53400543Y-56128044D01*
X53421613Y-56118079D01*
X53443557Y-56110227D01*
X53466166Y-56104563D01*
X53489221Y-56101144D01*
X53512500Y-56100000D01*
X53987500Y-56100000D01*
X54010779Y-56101144D01*
X54010779Y-56101144D01*
G37*
D23*
G04 #@! TD*
G04 #@! TO.P,C16,1*
G04 #@! TO.N,+5V*
X53750000Y-56625000D03*
D22*
G04 #@! TO.N,GND*
G04 #@! TO.C,C16*
G36*
X54010779Y-57851144D02*
X54033834Y-57854563D01*
X54056443Y-57860227D01*
X54078387Y-57868079D01*
X54099457Y-57878044D01*
X54119448Y-57890026D01*
X54138168Y-57903910D01*
X54155438Y-57919562D01*
X54171090Y-57936832D01*
X54184974Y-57955552D01*
X54196956Y-57975543D01*
X54206921Y-57996613D01*
X54214773Y-58018557D01*
X54220437Y-58041166D01*
X54223856Y-58064221D01*
X54225000Y-58087500D01*
X54225000Y-58662500D01*
X54223856Y-58685779D01*
X54220437Y-58708834D01*
X54214773Y-58731443D01*
X54206921Y-58753387D01*
X54196956Y-58774457D01*
X54184974Y-58794448D01*
X54171090Y-58813168D01*
X54155438Y-58830438D01*
X54138168Y-58846090D01*
X54119448Y-58859974D01*
X54099457Y-58871956D01*
X54078387Y-58881921D01*
X54056443Y-58889773D01*
X54033834Y-58895437D01*
X54010779Y-58898856D01*
X53987500Y-58900000D01*
X53512500Y-58900000D01*
X53489221Y-58898856D01*
X53466166Y-58895437D01*
X53443557Y-58889773D01*
X53421613Y-58881921D01*
X53400543Y-58871956D01*
X53380552Y-58859974D01*
X53361832Y-58846090D01*
X53344562Y-58830438D01*
X53328910Y-58813168D01*
X53315026Y-58794448D01*
X53303044Y-58774457D01*
X53293079Y-58753387D01*
X53285227Y-58731443D01*
X53279563Y-58708834D01*
X53276144Y-58685779D01*
X53275000Y-58662500D01*
X53275000Y-58087500D01*
X53276144Y-58064221D01*
X53279563Y-58041166D01*
X53285227Y-58018557D01*
X53293079Y-57996613D01*
X53303044Y-57975543D01*
X53315026Y-57955552D01*
X53328910Y-57936832D01*
X53344562Y-57919562D01*
X53361832Y-57903910D01*
X53380552Y-57890026D01*
X53400543Y-57878044D01*
X53421613Y-57868079D01*
X53443557Y-57860227D01*
X53466166Y-57854563D01*
X53489221Y-57851144D01*
X53512500Y-57850000D01*
X53987500Y-57850000D01*
X54010779Y-57851144D01*
X54010779Y-57851144D01*
G37*
D23*
G04 #@! TD*
G04 #@! TO.P,C16,2*
G04 #@! TO.N,GND*
X53750000Y-58375000D03*
D22*
G04 #@! TO.N,+5V*
G04 #@! TO.C,D1*
G36*
X70160779Y-55851144D02*
X70183834Y-55854563D01*
X70206443Y-55860227D01*
X70228387Y-55868079D01*
X70249457Y-55878044D01*
X70269448Y-55890026D01*
X70288168Y-55903910D01*
X70305438Y-55919562D01*
X70321090Y-55936832D01*
X70334974Y-55955552D01*
X70346956Y-55975543D01*
X70356921Y-55996613D01*
X70364773Y-56018557D01*
X70370437Y-56041166D01*
X70373856Y-56064221D01*
X70375000Y-56087500D01*
X70375000Y-56662500D01*
X70373856Y-56685779D01*
X70370437Y-56708834D01*
X70364773Y-56731443D01*
X70356921Y-56753387D01*
X70346956Y-56774457D01*
X70334974Y-56794448D01*
X70321090Y-56813168D01*
X70305438Y-56830438D01*
X70288168Y-56846090D01*
X70269448Y-56859974D01*
X70249457Y-56871956D01*
X70228387Y-56881921D01*
X70206443Y-56889773D01*
X70183834Y-56895437D01*
X70160779Y-56898856D01*
X70137500Y-56900000D01*
X69662500Y-56900000D01*
X69639221Y-56898856D01*
X69616166Y-56895437D01*
X69593557Y-56889773D01*
X69571613Y-56881921D01*
X69550543Y-56871956D01*
X69530552Y-56859974D01*
X69511832Y-56846090D01*
X69494562Y-56830438D01*
X69478910Y-56813168D01*
X69465026Y-56794448D01*
X69453044Y-56774457D01*
X69443079Y-56753387D01*
X69435227Y-56731443D01*
X69429563Y-56708834D01*
X69426144Y-56685779D01*
X69425000Y-56662500D01*
X69425000Y-56087500D01*
X69426144Y-56064221D01*
X69429563Y-56041166D01*
X69435227Y-56018557D01*
X69443079Y-55996613D01*
X69453044Y-55975543D01*
X69465026Y-55955552D01*
X69478910Y-55936832D01*
X69494562Y-55919562D01*
X69511832Y-55903910D01*
X69530552Y-55890026D01*
X69550543Y-55878044D01*
X69571613Y-55868079D01*
X69593557Y-55860227D01*
X69616166Y-55854563D01*
X69639221Y-55851144D01*
X69662500Y-55850000D01*
X70137500Y-55850000D01*
X70160779Y-55851144D01*
X70160779Y-55851144D01*
G37*
D23*
G04 #@! TD*
G04 #@! TO.P,D1,1*
G04 #@! TO.N,+5V*
X69900000Y-56375000D03*
D22*
G04 #@! TO.N,/RESET*
G04 #@! TO.C,D1*
G36*
X70160779Y-54101144D02*
X70183834Y-54104563D01*
X70206443Y-54110227D01*
X70228387Y-54118079D01*
X70249457Y-54128044D01*
X70269448Y-54140026D01*
X70288168Y-54153910D01*
X70305438Y-54169562D01*
X70321090Y-54186832D01*
X70334974Y-54205552D01*
X70346956Y-54225543D01*
X70356921Y-54246613D01*
X70364773Y-54268557D01*
X70370437Y-54291166D01*
X70373856Y-54314221D01*
X70375000Y-54337500D01*
X70375000Y-54912500D01*
X70373856Y-54935779D01*
X70370437Y-54958834D01*
X70364773Y-54981443D01*
X70356921Y-55003387D01*
X70346956Y-55024457D01*
X70334974Y-55044448D01*
X70321090Y-55063168D01*
X70305438Y-55080438D01*
X70288168Y-55096090D01*
X70269448Y-55109974D01*
X70249457Y-55121956D01*
X70228387Y-55131921D01*
X70206443Y-55139773D01*
X70183834Y-55145437D01*
X70160779Y-55148856D01*
X70137500Y-55150000D01*
X69662500Y-55150000D01*
X69639221Y-55148856D01*
X69616166Y-55145437D01*
X69593557Y-55139773D01*
X69571613Y-55131921D01*
X69550543Y-55121956D01*
X69530552Y-55109974D01*
X69511832Y-55096090D01*
X69494562Y-55080438D01*
X69478910Y-55063168D01*
X69465026Y-55044448D01*
X69453044Y-55024457D01*
X69443079Y-55003387D01*
X69435227Y-54981443D01*
X69429563Y-54958834D01*
X69426144Y-54935779D01*
X69425000Y-54912500D01*
X69425000Y-54337500D01*
X69426144Y-54314221D01*
X69429563Y-54291166D01*
X69435227Y-54268557D01*
X69443079Y-54246613D01*
X69453044Y-54225543D01*
X69465026Y-54205552D01*
X69478910Y-54186832D01*
X69494562Y-54169562D01*
X69511832Y-54153910D01*
X69530552Y-54140026D01*
X69550543Y-54128044D01*
X69571613Y-54118079D01*
X69593557Y-54110227D01*
X69616166Y-54104563D01*
X69639221Y-54101144D01*
X69662500Y-54100000D01*
X70137500Y-54100000D01*
X70160779Y-54101144D01*
X70160779Y-54101144D01*
G37*
D23*
G04 #@! TD*
G04 #@! TO.P,D1,2*
G04 #@! TO.N,/RESET*
X69900000Y-54625000D03*
D22*
G04 #@! TO.N,GND*
G04 #@! TO.C,D2*
G36*
X99166765Y-69621908D02*
X99189820Y-69625327D01*
X99212429Y-69630991D01*
X99234373Y-69638843D01*
X99255443Y-69648808D01*
X99275434Y-69660790D01*
X99294154Y-69674674D01*
X99311424Y-69690326D01*
X99327076Y-69707596D01*
X99340960Y-69726316D01*
X99352942Y-69746307D01*
X99362907Y-69767377D01*
X99370759Y-69789321D01*
X99376423Y-69811930D01*
X99379842Y-69834985D01*
X99380986Y-69858264D01*
X99380986Y-70333264D01*
X99379842Y-70356543D01*
X99376423Y-70379598D01*
X99370759Y-70402207D01*
X99362907Y-70424151D01*
X99352942Y-70445221D01*
X99340960Y-70465212D01*
X99327076Y-70483932D01*
X99311424Y-70501202D01*
X99294154Y-70516854D01*
X99275434Y-70530738D01*
X99255443Y-70542720D01*
X99234373Y-70552685D01*
X99212429Y-70560537D01*
X99189820Y-70566201D01*
X99166765Y-70569620D01*
X99143486Y-70570764D01*
X98568486Y-70570764D01*
X98545207Y-70569620D01*
X98522152Y-70566201D01*
X98499543Y-70560537D01*
X98477599Y-70552685D01*
X98456529Y-70542720D01*
X98436538Y-70530738D01*
X98417818Y-70516854D01*
X98400548Y-70501202D01*
X98384896Y-70483932D01*
X98371012Y-70465212D01*
X98359030Y-70445221D01*
X98349065Y-70424151D01*
X98341213Y-70402207D01*
X98335549Y-70379598D01*
X98332130Y-70356543D01*
X98330986Y-70333264D01*
X98330986Y-69858264D01*
X98332130Y-69834985D01*
X98335549Y-69811930D01*
X98341213Y-69789321D01*
X98349065Y-69767377D01*
X98359030Y-69746307D01*
X98371012Y-69726316D01*
X98384896Y-69707596D01*
X98400548Y-69690326D01*
X98417818Y-69674674D01*
X98436538Y-69660790D01*
X98456529Y-69648808D01*
X98477599Y-69638843D01*
X98499543Y-69630991D01*
X98522152Y-69625327D01*
X98545207Y-69621908D01*
X98568486Y-69620764D01*
X99143486Y-69620764D01*
X99166765Y-69621908D01*
X99166765Y-69621908D01*
G37*
D23*
G04 #@! TD*
G04 #@! TO.P,D2,1*
G04 #@! TO.N,GND*
X98855986Y-70095764D03*
D22*
G04 #@! TO.N,Net-(D2-Pad2)*
G04 #@! TO.C,D2*
G36*
X97416765Y-69621908D02*
X97439820Y-69625327D01*
X97462429Y-69630991D01*
X97484373Y-69638843D01*
X97505443Y-69648808D01*
X97525434Y-69660790D01*
X97544154Y-69674674D01*
X97561424Y-69690326D01*
X97577076Y-69707596D01*
X97590960Y-69726316D01*
X97602942Y-69746307D01*
X97612907Y-69767377D01*
X97620759Y-69789321D01*
X97626423Y-69811930D01*
X97629842Y-69834985D01*
X97630986Y-69858264D01*
X97630986Y-70333264D01*
X97629842Y-70356543D01*
X97626423Y-70379598D01*
X97620759Y-70402207D01*
X97612907Y-70424151D01*
X97602942Y-70445221D01*
X97590960Y-70465212D01*
X97577076Y-70483932D01*
X97561424Y-70501202D01*
X97544154Y-70516854D01*
X97525434Y-70530738D01*
X97505443Y-70542720D01*
X97484373Y-70552685D01*
X97462429Y-70560537D01*
X97439820Y-70566201D01*
X97416765Y-70569620D01*
X97393486Y-70570764D01*
X96818486Y-70570764D01*
X96795207Y-70569620D01*
X96772152Y-70566201D01*
X96749543Y-70560537D01*
X96727599Y-70552685D01*
X96706529Y-70542720D01*
X96686538Y-70530738D01*
X96667818Y-70516854D01*
X96650548Y-70501202D01*
X96634896Y-70483932D01*
X96621012Y-70465212D01*
X96609030Y-70445221D01*
X96599065Y-70424151D01*
X96591213Y-70402207D01*
X96585549Y-70379598D01*
X96582130Y-70356543D01*
X96580986Y-70333264D01*
X96580986Y-69858264D01*
X96582130Y-69834985D01*
X96585549Y-69811930D01*
X96591213Y-69789321D01*
X96599065Y-69767377D01*
X96609030Y-69746307D01*
X96621012Y-69726316D01*
X96634896Y-69707596D01*
X96650548Y-69690326D01*
X96667818Y-69674674D01*
X96686538Y-69660790D01*
X96706529Y-69648808D01*
X96727599Y-69638843D01*
X96749543Y-69630991D01*
X96772152Y-69625327D01*
X96795207Y-69621908D01*
X96818486Y-69620764D01*
X97393486Y-69620764D01*
X97416765Y-69621908D01*
X97416765Y-69621908D01*
G37*
D23*
G04 #@! TD*
G04 #@! TO.P,D2,2*
G04 #@! TO.N,Net-(D2-Pad2)*
X97105986Y-70095764D03*
D22*
G04 #@! TO.N,Net-(D3-Pad2)*
G04 #@! TO.C,D3*
G36*
X97416765Y-68321908D02*
X97439820Y-68325327D01*
X97462429Y-68330991D01*
X97484373Y-68338843D01*
X97505443Y-68348808D01*
X97525434Y-68360790D01*
X97544154Y-68374674D01*
X97561424Y-68390326D01*
X97577076Y-68407596D01*
X97590960Y-68426316D01*
X97602942Y-68446307D01*
X97612907Y-68467377D01*
X97620759Y-68489321D01*
X97626423Y-68511930D01*
X97629842Y-68534985D01*
X97630986Y-68558264D01*
X97630986Y-69033264D01*
X97629842Y-69056543D01*
X97626423Y-69079598D01*
X97620759Y-69102207D01*
X97612907Y-69124151D01*
X97602942Y-69145221D01*
X97590960Y-69165212D01*
X97577076Y-69183932D01*
X97561424Y-69201202D01*
X97544154Y-69216854D01*
X97525434Y-69230738D01*
X97505443Y-69242720D01*
X97484373Y-69252685D01*
X97462429Y-69260537D01*
X97439820Y-69266201D01*
X97416765Y-69269620D01*
X97393486Y-69270764D01*
X96818486Y-69270764D01*
X96795207Y-69269620D01*
X96772152Y-69266201D01*
X96749543Y-69260537D01*
X96727599Y-69252685D01*
X96706529Y-69242720D01*
X96686538Y-69230738D01*
X96667818Y-69216854D01*
X96650548Y-69201202D01*
X96634896Y-69183932D01*
X96621012Y-69165212D01*
X96609030Y-69145221D01*
X96599065Y-69124151D01*
X96591213Y-69102207D01*
X96585549Y-69079598D01*
X96582130Y-69056543D01*
X96580986Y-69033264D01*
X96580986Y-68558264D01*
X96582130Y-68534985D01*
X96585549Y-68511930D01*
X96591213Y-68489321D01*
X96599065Y-68467377D01*
X96609030Y-68446307D01*
X96621012Y-68426316D01*
X96634896Y-68407596D01*
X96650548Y-68390326D01*
X96667818Y-68374674D01*
X96686538Y-68360790D01*
X96706529Y-68348808D01*
X96727599Y-68338843D01*
X96749543Y-68330991D01*
X96772152Y-68325327D01*
X96795207Y-68321908D01*
X96818486Y-68320764D01*
X97393486Y-68320764D01*
X97416765Y-68321908D01*
X97416765Y-68321908D01*
G37*
D23*
G04 #@! TD*
G04 #@! TO.P,D3,2*
G04 #@! TO.N,Net-(D3-Pad2)*
X97105986Y-68795764D03*
D22*
G04 #@! TO.N,GND*
G04 #@! TO.C,D3*
G36*
X99166765Y-68321908D02*
X99189820Y-68325327D01*
X99212429Y-68330991D01*
X99234373Y-68338843D01*
X99255443Y-68348808D01*
X99275434Y-68360790D01*
X99294154Y-68374674D01*
X99311424Y-68390326D01*
X99327076Y-68407596D01*
X99340960Y-68426316D01*
X99352942Y-68446307D01*
X99362907Y-68467377D01*
X99370759Y-68489321D01*
X99376423Y-68511930D01*
X99379842Y-68534985D01*
X99380986Y-68558264D01*
X99380986Y-69033264D01*
X99379842Y-69056543D01*
X99376423Y-69079598D01*
X99370759Y-69102207D01*
X99362907Y-69124151D01*
X99352942Y-69145221D01*
X99340960Y-69165212D01*
X99327076Y-69183932D01*
X99311424Y-69201202D01*
X99294154Y-69216854D01*
X99275434Y-69230738D01*
X99255443Y-69242720D01*
X99234373Y-69252685D01*
X99212429Y-69260537D01*
X99189820Y-69266201D01*
X99166765Y-69269620D01*
X99143486Y-69270764D01*
X98568486Y-69270764D01*
X98545207Y-69269620D01*
X98522152Y-69266201D01*
X98499543Y-69260537D01*
X98477599Y-69252685D01*
X98456529Y-69242720D01*
X98436538Y-69230738D01*
X98417818Y-69216854D01*
X98400548Y-69201202D01*
X98384896Y-69183932D01*
X98371012Y-69165212D01*
X98359030Y-69145221D01*
X98349065Y-69124151D01*
X98341213Y-69102207D01*
X98335549Y-69079598D01*
X98332130Y-69056543D01*
X98330986Y-69033264D01*
X98330986Y-68558264D01*
X98332130Y-68534985D01*
X98335549Y-68511930D01*
X98341213Y-68489321D01*
X98349065Y-68467377D01*
X98359030Y-68446307D01*
X98371012Y-68426316D01*
X98384896Y-68407596D01*
X98400548Y-68390326D01*
X98417818Y-68374674D01*
X98436538Y-68360790D01*
X98456529Y-68348808D01*
X98477599Y-68338843D01*
X98499543Y-68330991D01*
X98522152Y-68325327D01*
X98545207Y-68321908D01*
X98568486Y-68320764D01*
X99143486Y-68320764D01*
X99166765Y-68321908D01*
X99166765Y-68321908D01*
G37*
D23*
G04 #@! TD*
G04 #@! TO.P,D3,1*
G04 #@! TO.N,GND*
X98855986Y-68795764D03*
D22*
G04 #@! TO.N,GND*
G04 #@! TO.C,D4*
G36*
X99166765Y-67021908D02*
X99189820Y-67025327D01*
X99212429Y-67030991D01*
X99234373Y-67038843D01*
X99255443Y-67048808D01*
X99275434Y-67060790D01*
X99294154Y-67074674D01*
X99311424Y-67090326D01*
X99327076Y-67107596D01*
X99340960Y-67126316D01*
X99352942Y-67146307D01*
X99362907Y-67167377D01*
X99370759Y-67189321D01*
X99376423Y-67211930D01*
X99379842Y-67234985D01*
X99380986Y-67258264D01*
X99380986Y-67733264D01*
X99379842Y-67756543D01*
X99376423Y-67779598D01*
X99370759Y-67802207D01*
X99362907Y-67824151D01*
X99352942Y-67845221D01*
X99340960Y-67865212D01*
X99327076Y-67883932D01*
X99311424Y-67901202D01*
X99294154Y-67916854D01*
X99275434Y-67930738D01*
X99255443Y-67942720D01*
X99234373Y-67952685D01*
X99212429Y-67960537D01*
X99189820Y-67966201D01*
X99166765Y-67969620D01*
X99143486Y-67970764D01*
X98568486Y-67970764D01*
X98545207Y-67969620D01*
X98522152Y-67966201D01*
X98499543Y-67960537D01*
X98477599Y-67952685D01*
X98456529Y-67942720D01*
X98436538Y-67930738D01*
X98417818Y-67916854D01*
X98400548Y-67901202D01*
X98384896Y-67883932D01*
X98371012Y-67865212D01*
X98359030Y-67845221D01*
X98349065Y-67824151D01*
X98341213Y-67802207D01*
X98335549Y-67779598D01*
X98332130Y-67756543D01*
X98330986Y-67733264D01*
X98330986Y-67258264D01*
X98332130Y-67234985D01*
X98335549Y-67211930D01*
X98341213Y-67189321D01*
X98349065Y-67167377D01*
X98359030Y-67146307D01*
X98371012Y-67126316D01*
X98384896Y-67107596D01*
X98400548Y-67090326D01*
X98417818Y-67074674D01*
X98436538Y-67060790D01*
X98456529Y-67048808D01*
X98477599Y-67038843D01*
X98499543Y-67030991D01*
X98522152Y-67025327D01*
X98545207Y-67021908D01*
X98568486Y-67020764D01*
X99143486Y-67020764D01*
X99166765Y-67021908D01*
X99166765Y-67021908D01*
G37*
D23*
G04 #@! TD*
G04 #@! TO.P,D4,1*
G04 #@! TO.N,GND*
X98855986Y-67495764D03*
D22*
G04 #@! TO.N,Net-(D4-Pad2)*
G04 #@! TO.C,D4*
G36*
X97416765Y-67021908D02*
X97439820Y-67025327D01*
X97462429Y-67030991D01*
X97484373Y-67038843D01*
X97505443Y-67048808D01*
X97525434Y-67060790D01*
X97544154Y-67074674D01*
X97561424Y-67090326D01*
X97577076Y-67107596D01*
X97590960Y-67126316D01*
X97602942Y-67146307D01*
X97612907Y-67167377D01*
X97620759Y-67189321D01*
X97626423Y-67211930D01*
X97629842Y-67234985D01*
X97630986Y-67258264D01*
X97630986Y-67733264D01*
X97629842Y-67756543D01*
X97626423Y-67779598D01*
X97620759Y-67802207D01*
X97612907Y-67824151D01*
X97602942Y-67845221D01*
X97590960Y-67865212D01*
X97577076Y-67883932D01*
X97561424Y-67901202D01*
X97544154Y-67916854D01*
X97525434Y-67930738D01*
X97505443Y-67942720D01*
X97484373Y-67952685D01*
X97462429Y-67960537D01*
X97439820Y-67966201D01*
X97416765Y-67969620D01*
X97393486Y-67970764D01*
X96818486Y-67970764D01*
X96795207Y-67969620D01*
X96772152Y-67966201D01*
X96749543Y-67960537D01*
X96727599Y-67952685D01*
X96706529Y-67942720D01*
X96686538Y-67930738D01*
X96667818Y-67916854D01*
X96650548Y-67901202D01*
X96634896Y-67883932D01*
X96621012Y-67865212D01*
X96609030Y-67845221D01*
X96599065Y-67824151D01*
X96591213Y-67802207D01*
X96585549Y-67779598D01*
X96582130Y-67756543D01*
X96580986Y-67733264D01*
X96580986Y-67258264D01*
X96582130Y-67234985D01*
X96585549Y-67211930D01*
X96591213Y-67189321D01*
X96599065Y-67167377D01*
X96609030Y-67146307D01*
X96621012Y-67126316D01*
X96634896Y-67107596D01*
X96650548Y-67090326D01*
X96667818Y-67074674D01*
X96686538Y-67060790D01*
X96706529Y-67048808D01*
X96727599Y-67038843D01*
X96749543Y-67030991D01*
X96772152Y-67025327D01*
X96795207Y-67021908D01*
X96818486Y-67020764D01*
X97393486Y-67020764D01*
X97416765Y-67021908D01*
X97416765Y-67021908D01*
G37*
D23*
G04 #@! TD*
G04 #@! TO.P,D4,2*
G04 #@! TO.N,Net-(D4-Pad2)*
X97105986Y-67495764D03*
D22*
G04 #@! TO.N,Net-(D5-Pad2)*
G04 #@! TO.C,D5*
G36*
X97416765Y-70921908D02*
X97439820Y-70925327D01*
X97462429Y-70930991D01*
X97484373Y-70938843D01*
X97505443Y-70948808D01*
X97525434Y-70960790D01*
X97544154Y-70974674D01*
X97561424Y-70990326D01*
X97577076Y-71007596D01*
X97590960Y-71026316D01*
X97602942Y-71046307D01*
X97612907Y-71067377D01*
X97620759Y-71089321D01*
X97626423Y-71111930D01*
X97629842Y-71134985D01*
X97630986Y-71158264D01*
X97630986Y-71633264D01*
X97629842Y-71656543D01*
X97626423Y-71679598D01*
X97620759Y-71702207D01*
X97612907Y-71724151D01*
X97602942Y-71745221D01*
X97590960Y-71765212D01*
X97577076Y-71783932D01*
X97561424Y-71801202D01*
X97544154Y-71816854D01*
X97525434Y-71830738D01*
X97505443Y-71842720D01*
X97484373Y-71852685D01*
X97462429Y-71860537D01*
X97439820Y-71866201D01*
X97416765Y-71869620D01*
X97393486Y-71870764D01*
X96818486Y-71870764D01*
X96795207Y-71869620D01*
X96772152Y-71866201D01*
X96749543Y-71860537D01*
X96727599Y-71852685D01*
X96706529Y-71842720D01*
X96686538Y-71830738D01*
X96667818Y-71816854D01*
X96650548Y-71801202D01*
X96634896Y-71783932D01*
X96621012Y-71765212D01*
X96609030Y-71745221D01*
X96599065Y-71724151D01*
X96591213Y-71702207D01*
X96585549Y-71679598D01*
X96582130Y-71656543D01*
X96580986Y-71633264D01*
X96580986Y-71158264D01*
X96582130Y-71134985D01*
X96585549Y-71111930D01*
X96591213Y-71089321D01*
X96599065Y-71067377D01*
X96609030Y-71046307D01*
X96621012Y-71026316D01*
X96634896Y-71007596D01*
X96650548Y-70990326D01*
X96667818Y-70974674D01*
X96686538Y-70960790D01*
X96706529Y-70948808D01*
X96727599Y-70938843D01*
X96749543Y-70930991D01*
X96772152Y-70925327D01*
X96795207Y-70921908D01*
X96818486Y-70920764D01*
X97393486Y-70920764D01*
X97416765Y-70921908D01*
X97416765Y-70921908D01*
G37*
D23*
G04 #@! TD*
G04 #@! TO.P,D5,2*
G04 #@! TO.N,Net-(D5-Pad2)*
X97105986Y-71395764D03*
D22*
G04 #@! TO.N,GND*
G04 #@! TO.C,D5*
G36*
X99166765Y-70921908D02*
X99189820Y-70925327D01*
X99212429Y-70930991D01*
X99234373Y-70938843D01*
X99255443Y-70948808D01*
X99275434Y-70960790D01*
X99294154Y-70974674D01*
X99311424Y-70990326D01*
X99327076Y-71007596D01*
X99340960Y-71026316D01*
X99352942Y-71046307D01*
X99362907Y-71067377D01*
X99370759Y-71089321D01*
X99376423Y-71111930D01*
X99379842Y-71134985D01*
X99380986Y-71158264D01*
X99380986Y-71633264D01*
X99379842Y-71656543D01*
X99376423Y-71679598D01*
X99370759Y-71702207D01*
X99362907Y-71724151D01*
X99352942Y-71745221D01*
X99340960Y-71765212D01*
X99327076Y-71783932D01*
X99311424Y-71801202D01*
X99294154Y-71816854D01*
X99275434Y-71830738D01*
X99255443Y-71842720D01*
X99234373Y-71852685D01*
X99212429Y-71860537D01*
X99189820Y-71866201D01*
X99166765Y-71869620D01*
X99143486Y-71870764D01*
X98568486Y-71870764D01*
X98545207Y-71869620D01*
X98522152Y-71866201D01*
X98499543Y-71860537D01*
X98477599Y-71852685D01*
X98456529Y-71842720D01*
X98436538Y-71830738D01*
X98417818Y-71816854D01*
X98400548Y-71801202D01*
X98384896Y-71783932D01*
X98371012Y-71765212D01*
X98359030Y-71745221D01*
X98349065Y-71724151D01*
X98341213Y-71702207D01*
X98335549Y-71679598D01*
X98332130Y-71656543D01*
X98330986Y-71633264D01*
X98330986Y-71158264D01*
X98332130Y-71134985D01*
X98335549Y-71111930D01*
X98341213Y-71089321D01*
X98349065Y-71067377D01*
X98359030Y-71046307D01*
X98371012Y-71026316D01*
X98384896Y-71007596D01*
X98400548Y-70990326D01*
X98417818Y-70974674D01*
X98436538Y-70960790D01*
X98456529Y-70948808D01*
X98477599Y-70938843D01*
X98499543Y-70930991D01*
X98522152Y-70925327D01*
X98545207Y-70921908D01*
X98568486Y-70920764D01*
X99143486Y-70920764D01*
X99166765Y-70921908D01*
X99166765Y-70921908D01*
G37*
D23*
G04 #@! TD*
G04 #@! TO.P,D5,1*
G04 #@! TO.N,GND*
X98855986Y-71395764D03*
D22*
G04 #@! TO.N,+5V*
G04 #@! TO.C,R16*
G36*
X68560779Y-55826144D02*
X68583834Y-55829563D01*
X68606443Y-55835227D01*
X68628387Y-55843079D01*
X68649457Y-55853044D01*
X68669448Y-55865026D01*
X68688168Y-55878910D01*
X68705438Y-55894562D01*
X68721090Y-55911832D01*
X68734974Y-55930552D01*
X68746956Y-55950543D01*
X68756921Y-55971613D01*
X68764773Y-55993557D01*
X68770437Y-56016166D01*
X68773856Y-56039221D01*
X68775000Y-56062500D01*
X68775000Y-56637500D01*
X68773856Y-56660779D01*
X68770437Y-56683834D01*
X68764773Y-56706443D01*
X68756921Y-56728387D01*
X68746956Y-56749457D01*
X68734974Y-56769448D01*
X68721090Y-56788168D01*
X68705438Y-56805438D01*
X68688168Y-56821090D01*
X68669448Y-56834974D01*
X68649457Y-56846956D01*
X68628387Y-56856921D01*
X68606443Y-56864773D01*
X68583834Y-56870437D01*
X68560779Y-56873856D01*
X68537500Y-56875000D01*
X68062500Y-56875000D01*
X68039221Y-56873856D01*
X68016166Y-56870437D01*
X67993557Y-56864773D01*
X67971613Y-56856921D01*
X67950543Y-56846956D01*
X67930552Y-56834974D01*
X67911832Y-56821090D01*
X67894562Y-56805438D01*
X67878910Y-56788168D01*
X67865026Y-56769448D01*
X67853044Y-56749457D01*
X67843079Y-56728387D01*
X67835227Y-56706443D01*
X67829563Y-56683834D01*
X67826144Y-56660779D01*
X67825000Y-56637500D01*
X67825000Y-56062500D01*
X67826144Y-56039221D01*
X67829563Y-56016166D01*
X67835227Y-55993557D01*
X67843079Y-55971613D01*
X67853044Y-55950543D01*
X67865026Y-55930552D01*
X67878910Y-55911832D01*
X67894562Y-55894562D01*
X67911832Y-55878910D01*
X67930552Y-55865026D01*
X67950543Y-55853044D01*
X67971613Y-55843079D01*
X67993557Y-55835227D01*
X68016166Y-55829563D01*
X68039221Y-55826144D01*
X68062500Y-55825000D01*
X68537500Y-55825000D01*
X68560779Y-55826144D01*
X68560779Y-55826144D01*
G37*
D23*
G04 #@! TD*
G04 #@! TO.P,R16,1*
G04 #@! TO.N,+5V*
X68300000Y-56350000D03*
D22*
G04 #@! TO.N,/RESET*
G04 #@! TO.C,R16*
G36*
X68560779Y-54076144D02*
X68583834Y-54079563D01*
X68606443Y-54085227D01*
X68628387Y-54093079D01*
X68649457Y-54103044D01*
X68669448Y-54115026D01*
X68688168Y-54128910D01*
X68705438Y-54144562D01*
X68721090Y-54161832D01*
X68734974Y-54180552D01*
X68746956Y-54200543D01*
X68756921Y-54221613D01*
X68764773Y-54243557D01*
X68770437Y-54266166D01*
X68773856Y-54289221D01*
X68775000Y-54312500D01*
X68775000Y-54887500D01*
X68773856Y-54910779D01*
X68770437Y-54933834D01*
X68764773Y-54956443D01*
X68756921Y-54978387D01*
X68746956Y-54999457D01*
X68734974Y-55019448D01*
X68721090Y-55038168D01*
X68705438Y-55055438D01*
X68688168Y-55071090D01*
X68669448Y-55084974D01*
X68649457Y-55096956D01*
X68628387Y-55106921D01*
X68606443Y-55114773D01*
X68583834Y-55120437D01*
X68560779Y-55123856D01*
X68537500Y-55125000D01*
X68062500Y-55125000D01*
X68039221Y-55123856D01*
X68016166Y-55120437D01*
X67993557Y-55114773D01*
X67971613Y-55106921D01*
X67950543Y-55096956D01*
X67930552Y-55084974D01*
X67911832Y-55071090D01*
X67894562Y-55055438D01*
X67878910Y-55038168D01*
X67865026Y-55019448D01*
X67853044Y-54999457D01*
X67843079Y-54978387D01*
X67835227Y-54956443D01*
X67829563Y-54933834D01*
X67826144Y-54910779D01*
X67825000Y-54887500D01*
X67825000Y-54312500D01*
X67826144Y-54289221D01*
X67829563Y-54266166D01*
X67835227Y-54243557D01*
X67843079Y-54221613D01*
X67853044Y-54200543D01*
X67865026Y-54180552D01*
X67878910Y-54161832D01*
X67894562Y-54144562D01*
X67911832Y-54128910D01*
X67930552Y-54115026D01*
X67950543Y-54103044D01*
X67971613Y-54093079D01*
X67993557Y-54085227D01*
X68016166Y-54079563D01*
X68039221Y-54076144D01*
X68062500Y-54075000D01*
X68537500Y-54075000D01*
X68560779Y-54076144D01*
X68560779Y-54076144D01*
G37*
D23*
G04 #@! TD*
G04 #@! TO.P,R16,2*
G04 #@! TO.N,/RESET*
X68300000Y-54600000D03*
D22*
G04 #@! TO.N,Net-(D2-Pad2)*
G04 #@! TO.C,R17*
G36*
X95766765Y-69621908D02*
X95789820Y-69625327D01*
X95812429Y-69630991D01*
X95834373Y-69638843D01*
X95855443Y-69648808D01*
X95875434Y-69660790D01*
X95894154Y-69674674D01*
X95911424Y-69690326D01*
X95927076Y-69707596D01*
X95940960Y-69726316D01*
X95952942Y-69746307D01*
X95962907Y-69767377D01*
X95970759Y-69789321D01*
X95976423Y-69811930D01*
X95979842Y-69834985D01*
X95980986Y-69858264D01*
X95980986Y-70333264D01*
X95979842Y-70356543D01*
X95976423Y-70379598D01*
X95970759Y-70402207D01*
X95962907Y-70424151D01*
X95952942Y-70445221D01*
X95940960Y-70465212D01*
X95927076Y-70483932D01*
X95911424Y-70501202D01*
X95894154Y-70516854D01*
X95875434Y-70530738D01*
X95855443Y-70542720D01*
X95834373Y-70552685D01*
X95812429Y-70560537D01*
X95789820Y-70566201D01*
X95766765Y-70569620D01*
X95743486Y-70570764D01*
X95168486Y-70570764D01*
X95145207Y-70569620D01*
X95122152Y-70566201D01*
X95099543Y-70560537D01*
X95077599Y-70552685D01*
X95056529Y-70542720D01*
X95036538Y-70530738D01*
X95017818Y-70516854D01*
X95000548Y-70501202D01*
X94984896Y-70483932D01*
X94971012Y-70465212D01*
X94959030Y-70445221D01*
X94949065Y-70424151D01*
X94941213Y-70402207D01*
X94935549Y-70379598D01*
X94932130Y-70356543D01*
X94930986Y-70333264D01*
X94930986Y-69858264D01*
X94932130Y-69834985D01*
X94935549Y-69811930D01*
X94941213Y-69789321D01*
X94949065Y-69767377D01*
X94959030Y-69746307D01*
X94971012Y-69726316D01*
X94984896Y-69707596D01*
X95000548Y-69690326D01*
X95017818Y-69674674D01*
X95036538Y-69660790D01*
X95056529Y-69648808D01*
X95077599Y-69638843D01*
X95099543Y-69630991D01*
X95122152Y-69625327D01*
X95145207Y-69621908D01*
X95168486Y-69620764D01*
X95743486Y-69620764D01*
X95766765Y-69621908D01*
X95766765Y-69621908D01*
G37*
D23*
G04 #@! TD*
G04 #@! TO.P,R17,2*
G04 #@! TO.N,Net-(D2-Pad2)*
X95455986Y-70095764D03*
D22*
G04 #@! TO.N,/CLKLED*
G04 #@! TO.C,R17*
G36*
X94016765Y-69621908D02*
X94039820Y-69625327D01*
X94062429Y-69630991D01*
X94084373Y-69638843D01*
X94105443Y-69648808D01*
X94125434Y-69660790D01*
X94144154Y-69674674D01*
X94161424Y-69690326D01*
X94177076Y-69707596D01*
X94190960Y-69726316D01*
X94202942Y-69746307D01*
X94212907Y-69767377D01*
X94220759Y-69789321D01*
X94226423Y-69811930D01*
X94229842Y-69834985D01*
X94230986Y-69858264D01*
X94230986Y-70333264D01*
X94229842Y-70356543D01*
X94226423Y-70379598D01*
X94220759Y-70402207D01*
X94212907Y-70424151D01*
X94202942Y-70445221D01*
X94190960Y-70465212D01*
X94177076Y-70483932D01*
X94161424Y-70501202D01*
X94144154Y-70516854D01*
X94125434Y-70530738D01*
X94105443Y-70542720D01*
X94084373Y-70552685D01*
X94062429Y-70560537D01*
X94039820Y-70566201D01*
X94016765Y-70569620D01*
X93993486Y-70570764D01*
X93418486Y-70570764D01*
X93395207Y-70569620D01*
X93372152Y-70566201D01*
X93349543Y-70560537D01*
X93327599Y-70552685D01*
X93306529Y-70542720D01*
X93286538Y-70530738D01*
X93267818Y-70516854D01*
X93250548Y-70501202D01*
X93234896Y-70483932D01*
X93221012Y-70465212D01*
X93209030Y-70445221D01*
X93199065Y-70424151D01*
X93191213Y-70402207D01*
X93185549Y-70379598D01*
X93182130Y-70356543D01*
X93180986Y-70333264D01*
X93180986Y-69858264D01*
X93182130Y-69834985D01*
X93185549Y-69811930D01*
X93191213Y-69789321D01*
X93199065Y-69767377D01*
X93209030Y-69746307D01*
X93221012Y-69726316D01*
X93234896Y-69707596D01*
X93250548Y-69690326D01*
X93267818Y-69674674D01*
X93286538Y-69660790D01*
X93306529Y-69648808D01*
X93327599Y-69638843D01*
X93349543Y-69630991D01*
X93372152Y-69625327D01*
X93395207Y-69621908D01*
X93418486Y-69620764D01*
X93993486Y-69620764D01*
X94016765Y-69621908D01*
X94016765Y-69621908D01*
G37*
D23*
G04 #@! TD*
G04 #@! TO.P,R17,1*
G04 #@! TO.N,/CLKLED*
X93705986Y-70095764D03*
D22*
G04 #@! TO.N,Net-(D3-Pad2)*
G04 #@! TO.C,R18*
G36*
X95766765Y-68321908D02*
X95789820Y-68325327D01*
X95812429Y-68330991D01*
X95834373Y-68338843D01*
X95855443Y-68348808D01*
X95875434Y-68360790D01*
X95894154Y-68374674D01*
X95911424Y-68390326D01*
X95927076Y-68407596D01*
X95940960Y-68426316D01*
X95952942Y-68446307D01*
X95962907Y-68467377D01*
X95970759Y-68489321D01*
X95976423Y-68511930D01*
X95979842Y-68534985D01*
X95980986Y-68558264D01*
X95980986Y-69033264D01*
X95979842Y-69056543D01*
X95976423Y-69079598D01*
X95970759Y-69102207D01*
X95962907Y-69124151D01*
X95952942Y-69145221D01*
X95940960Y-69165212D01*
X95927076Y-69183932D01*
X95911424Y-69201202D01*
X95894154Y-69216854D01*
X95875434Y-69230738D01*
X95855443Y-69242720D01*
X95834373Y-69252685D01*
X95812429Y-69260537D01*
X95789820Y-69266201D01*
X95766765Y-69269620D01*
X95743486Y-69270764D01*
X95168486Y-69270764D01*
X95145207Y-69269620D01*
X95122152Y-69266201D01*
X95099543Y-69260537D01*
X95077599Y-69252685D01*
X95056529Y-69242720D01*
X95036538Y-69230738D01*
X95017818Y-69216854D01*
X95000548Y-69201202D01*
X94984896Y-69183932D01*
X94971012Y-69165212D01*
X94959030Y-69145221D01*
X94949065Y-69124151D01*
X94941213Y-69102207D01*
X94935549Y-69079598D01*
X94932130Y-69056543D01*
X94930986Y-69033264D01*
X94930986Y-68558264D01*
X94932130Y-68534985D01*
X94935549Y-68511930D01*
X94941213Y-68489321D01*
X94949065Y-68467377D01*
X94959030Y-68446307D01*
X94971012Y-68426316D01*
X94984896Y-68407596D01*
X95000548Y-68390326D01*
X95017818Y-68374674D01*
X95036538Y-68360790D01*
X95056529Y-68348808D01*
X95077599Y-68338843D01*
X95099543Y-68330991D01*
X95122152Y-68325327D01*
X95145207Y-68321908D01*
X95168486Y-68320764D01*
X95743486Y-68320764D01*
X95766765Y-68321908D01*
X95766765Y-68321908D01*
G37*
D23*
G04 #@! TD*
G04 #@! TO.P,R18,2*
G04 #@! TO.N,Net-(D3-Pad2)*
X95455986Y-68795764D03*
D22*
G04 #@! TO.N,/RXLED*
G04 #@! TO.C,R18*
G36*
X94016765Y-68321908D02*
X94039820Y-68325327D01*
X94062429Y-68330991D01*
X94084373Y-68338843D01*
X94105443Y-68348808D01*
X94125434Y-68360790D01*
X94144154Y-68374674D01*
X94161424Y-68390326D01*
X94177076Y-68407596D01*
X94190960Y-68426316D01*
X94202942Y-68446307D01*
X94212907Y-68467377D01*
X94220759Y-68489321D01*
X94226423Y-68511930D01*
X94229842Y-68534985D01*
X94230986Y-68558264D01*
X94230986Y-69033264D01*
X94229842Y-69056543D01*
X94226423Y-69079598D01*
X94220759Y-69102207D01*
X94212907Y-69124151D01*
X94202942Y-69145221D01*
X94190960Y-69165212D01*
X94177076Y-69183932D01*
X94161424Y-69201202D01*
X94144154Y-69216854D01*
X94125434Y-69230738D01*
X94105443Y-69242720D01*
X94084373Y-69252685D01*
X94062429Y-69260537D01*
X94039820Y-69266201D01*
X94016765Y-69269620D01*
X93993486Y-69270764D01*
X93418486Y-69270764D01*
X93395207Y-69269620D01*
X93372152Y-69266201D01*
X93349543Y-69260537D01*
X93327599Y-69252685D01*
X93306529Y-69242720D01*
X93286538Y-69230738D01*
X93267818Y-69216854D01*
X93250548Y-69201202D01*
X93234896Y-69183932D01*
X93221012Y-69165212D01*
X93209030Y-69145221D01*
X93199065Y-69124151D01*
X93191213Y-69102207D01*
X93185549Y-69079598D01*
X93182130Y-69056543D01*
X93180986Y-69033264D01*
X93180986Y-68558264D01*
X93182130Y-68534985D01*
X93185549Y-68511930D01*
X93191213Y-68489321D01*
X93199065Y-68467377D01*
X93209030Y-68446307D01*
X93221012Y-68426316D01*
X93234896Y-68407596D01*
X93250548Y-68390326D01*
X93267818Y-68374674D01*
X93286538Y-68360790D01*
X93306529Y-68348808D01*
X93327599Y-68338843D01*
X93349543Y-68330991D01*
X93372152Y-68325327D01*
X93395207Y-68321908D01*
X93418486Y-68320764D01*
X93993486Y-68320764D01*
X94016765Y-68321908D01*
X94016765Y-68321908D01*
G37*
D23*
G04 #@! TD*
G04 #@! TO.P,R18,1*
G04 #@! TO.N,/RXLED*
X93705986Y-68795764D03*
D22*
G04 #@! TO.N,/TXLED*
G04 #@! TO.C,R19*
G36*
X94041765Y-67021908D02*
X94064820Y-67025327D01*
X94087429Y-67030991D01*
X94109373Y-67038843D01*
X94130443Y-67048808D01*
X94150434Y-67060790D01*
X94169154Y-67074674D01*
X94186424Y-67090326D01*
X94202076Y-67107596D01*
X94215960Y-67126316D01*
X94227942Y-67146307D01*
X94237907Y-67167377D01*
X94245759Y-67189321D01*
X94251423Y-67211930D01*
X94254842Y-67234985D01*
X94255986Y-67258264D01*
X94255986Y-67733264D01*
X94254842Y-67756543D01*
X94251423Y-67779598D01*
X94245759Y-67802207D01*
X94237907Y-67824151D01*
X94227942Y-67845221D01*
X94215960Y-67865212D01*
X94202076Y-67883932D01*
X94186424Y-67901202D01*
X94169154Y-67916854D01*
X94150434Y-67930738D01*
X94130443Y-67942720D01*
X94109373Y-67952685D01*
X94087429Y-67960537D01*
X94064820Y-67966201D01*
X94041765Y-67969620D01*
X94018486Y-67970764D01*
X93443486Y-67970764D01*
X93420207Y-67969620D01*
X93397152Y-67966201D01*
X93374543Y-67960537D01*
X93352599Y-67952685D01*
X93331529Y-67942720D01*
X93311538Y-67930738D01*
X93292818Y-67916854D01*
X93275548Y-67901202D01*
X93259896Y-67883932D01*
X93246012Y-67865212D01*
X93234030Y-67845221D01*
X93224065Y-67824151D01*
X93216213Y-67802207D01*
X93210549Y-67779598D01*
X93207130Y-67756543D01*
X93205986Y-67733264D01*
X93205986Y-67258264D01*
X93207130Y-67234985D01*
X93210549Y-67211930D01*
X93216213Y-67189321D01*
X93224065Y-67167377D01*
X93234030Y-67146307D01*
X93246012Y-67126316D01*
X93259896Y-67107596D01*
X93275548Y-67090326D01*
X93292818Y-67074674D01*
X93311538Y-67060790D01*
X93331529Y-67048808D01*
X93352599Y-67038843D01*
X93374543Y-67030991D01*
X93397152Y-67025327D01*
X93420207Y-67021908D01*
X93443486Y-67020764D01*
X94018486Y-67020764D01*
X94041765Y-67021908D01*
X94041765Y-67021908D01*
G37*
D23*
G04 #@! TD*
G04 #@! TO.P,R19,1*
G04 #@! TO.N,/TXLED*
X93730986Y-67495764D03*
D22*
G04 #@! TO.N,Net-(D4-Pad2)*
G04 #@! TO.C,R19*
G36*
X95791765Y-67021908D02*
X95814820Y-67025327D01*
X95837429Y-67030991D01*
X95859373Y-67038843D01*
X95880443Y-67048808D01*
X95900434Y-67060790D01*
X95919154Y-67074674D01*
X95936424Y-67090326D01*
X95952076Y-67107596D01*
X95965960Y-67126316D01*
X95977942Y-67146307D01*
X95987907Y-67167377D01*
X95995759Y-67189321D01*
X96001423Y-67211930D01*
X96004842Y-67234985D01*
X96005986Y-67258264D01*
X96005986Y-67733264D01*
X96004842Y-67756543D01*
X96001423Y-67779598D01*
X95995759Y-67802207D01*
X95987907Y-67824151D01*
X95977942Y-67845221D01*
X95965960Y-67865212D01*
X95952076Y-67883932D01*
X95936424Y-67901202D01*
X95919154Y-67916854D01*
X95900434Y-67930738D01*
X95880443Y-67942720D01*
X95859373Y-67952685D01*
X95837429Y-67960537D01*
X95814820Y-67966201D01*
X95791765Y-67969620D01*
X95768486Y-67970764D01*
X95193486Y-67970764D01*
X95170207Y-67969620D01*
X95147152Y-67966201D01*
X95124543Y-67960537D01*
X95102599Y-67952685D01*
X95081529Y-67942720D01*
X95061538Y-67930738D01*
X95042818Y-67916854D01*
X95025548Y-67901202D01*
X95009896Y-67883932D01*
X94996012Y-67865212D01*
X94984030Y-67845221D01*
X94974065Y-67824151D01*
X94966213Y-67802207D01*
X94960549Y-67779598D01*
X94957130Y-67756543D01*
X94955986Y-67733264D01*
X94955986Y-67258264D01*
X94957130Y-67234985D01*
X94960549Y-67211930D01*
X94966213Y-67189321D01*
X94974065Y-67167377D01*
X94984030Y-67146307D01*
X94996012Y-67126316D01*
X95009896Y-67107596D01*
X95025548Y-67090326D01*
X95042818Y-67074674D01*
X95061538Y-67060790D01*
X95081529Y-67048808D01*
X95102599Y-67038843D01*
X95124543Y-67030991D01*
X95147152Y-67025327D01*
X95170207Y-67021908D01*
X95193486Y-67020764D01*
X95768486Y-67020764D01*
X95791765Y-67021908D01*
X95791765Y-67021908D01*
G37*
D23*
G04 #@! TD*
G04 #@! TO.P,R19,2*
G04 #@! TO.N,Net-(D4-Pad2)*
X95480986Y-67495764D03*
D22*
G04 #@! TO.N,Net-(D5-Pad2)*
G04 #@! TO.C,R20*
G36*
X95766765Y-70921908D02*
X95789820Y-70925327D01*
X95812429Y-70930991D01*
X95834373Y-70938843D01*
X95855443Y-70948808D01*
X95875434Y-70960790D01*
X95894154Y-70974674D01*
X95911424Y-70990326D01*
X95927076Y-71007596D01*
X95940960Y-71026316D01*
X95952942Y-71046307D01*
X95962907Y-71067377D01*
X95970759Y-71089321D01*
X95976423Y-71111930D01*
X95979842Y-71134985D01*
X95980986Y-71158264D01*
X95980986Y-71633264D01*
X95979842Y-71656543D01*
X95976423Y-71679598D01*
X95970759Y-71702207D01*
X95962907Y-71724151D01*
X95952942Y-71745221D01*
X95940960Y-71765212D01*
X95927076Y-71783932D01*
X95911424Y-71801202D01*
X95894154Y-71816854D01*
X95875434Y-71830738D01*
X95855443Y-71842720D01*
X95834373Y-71852685D01*
X95812429Y-71860537D01*
X95789820Y-71866201D01*
X95766765Y-71869620D01*
X95743486Y-71870764D01*
X95168486Y-71870764D01*
X95145207Y-71869620D01*
X95122152Y-71866201D01*
X95099543Y-71860537D01*
X95077599Y-71852685D01*
X95056529Y-71842720D01*
X95036538Y-71830738D01*
X95017818Y-71816854D01*
X95000548Y-71801202D01*
X94984896Y-71783932D01*
X94971012Y-71765212D01*
X94959030Y-71745221D01*
X94949065Y-71724151D01*
X94941213Y-71702207D01*
X94935549Y-71679598D01*
X94932130Y-71656543D01*
X94930986Y-71633264D01*
X94930986Y-71158264D01*
X94932130Y-71134985D01*
X94935549Y-71111930D01*
X94941213Y-71089321D01*
X94949065Y-71067377D01*
X94959030Y-71046307D01*
X94971012Y-71026316D01*
X94984896Y-71007596D01*
X95000548Y-70990326D01*
X95017818Y-70974674D01*
X95036538Y-70960790D01*
X95056529Y-70948808D01*
X95077599Y-70938843D01*
X95099543Y-70930991D01*
X95122152Y-70925327D01*
X95145207Y-70921908D01*
X95168486Y-70920764D01*
X95743486Y-70920764D01*
X95766765Y-70921908D01*
X95766765Y-70921908D01*
G37*
D23*
G04 #@! TD*
G04 #@! TO.P,R20,2*
G04 #@! TO.N,Net-(D5-Pad2)*
X95455986Y-71395764D03*
D22*
G04 #@! TO.N,+5V*
G04 #@! TO.C,R20*
G36*
X94016765Y-70921908D02*
X94039820Y-70925327D01*
X94062429Y-70930991D01*
X94084373Y-70938843D01*
X94105443Y-70948808D01*
X94125434Y-70960790D01*
X94144154Y-70974674D01*
X94161424Y-70990326D01*
X94177076Y-71007596D01*
X94190960Y-71026316D01*
X94202942Y-71046307D01*
X94212907Y-71067377D01*
X94220759Y-71089321D01*
X94226423Y-71111930D01*
X94229842Y-71134985D01*
X94230986Y-71158264D01*
X94230986Y-71633264D01*
X94229842Y-71656543D01*
X94226423Y-71679598D01*
X94220759Y-71702207D01*
X94212907Y-71724151D01*
X94202942Y-71745221D01*
X94190960Y-71765212D01*
X94177076Y-71783932D01*
X94161424Y-71801202D01*
X94144154Y-71816854D01*
X94125434Y-71830738D01*
X94105443Y-71842720D01*
X94084373Y-71852685D01*
X94062429Y-71860537D01*
X94039820Y-71866201D01*
X94016765Y-71869620D01*
X93993486Y-71870764D01*
X93418486Y-71870764D01*
X93395207Y-71869620D01*
X93372152Y-71866201D01*
X93349543Y-71860537D01*
X93327599Y-71852685D01*
X93306529Y-71842720D01*
X93286538Y-71830738D01*
X93267818Y-71816854D01*
X93250548Y-71801202D01*
X93234896Y-71783932D01*
X93221012Y-71765212D01*
X93209030Y-71745221D01*
X93199065Y-71724151D01*
X93191213Y-71702207D01*
X93185549Y-71679598D01*
X93182130Y-71656543D01*
X93180986Y-71633264D01*
X93180986Y-71158264D01*
X93182130Y-71134985D01*
X93185549Y-71111930D01*
X93191213Y-71089321D01*
X93199065Y-71067377D01*
X93209030Y-71046307D01*
X93221012Y-71026316D01*
X93234896Y-71007596D01*
X93250548Y-70990326D01*
X93267818Y-70974674D01*
X93286538Y-70960790D01*
X93306529Y-70948808D01*
X93327599Y-70938843D01*
X93349543Y-70930991D01*
X93372152Y-70925327D01*
X93395207Y-70921908D01*
X93418486Y-70920764D01*
X93993486Y-70920764D01*
X94016765Y-70921908D01*
X94016765Y-70921908D01*
G37*
D23*
G04 #@! TD*
G04 #@! TO.P,R20,1*
G04 #@! TO.N,+5V*
X93705986Y-71395764D03*
D22*
G04 #@! TO.N,/HWB*
G04 #@! TO.C,R21*
G36*
X73660779Y-68101144D02*
X73683834Y-68104563D01*
X73706443Y-68110227D01*
X73728387Y-68118079D01*
X73749457Y-68128044D01*
X73769448Y-68140026D01*
X73788168Y-68153910D01*
X73805438Y-68169562D01*
X73821090Y-68186832D01*
X73834974Y-68205552D01*
X73846956Y-68225543D01*
X73856921Y-68246613D01*
X73864773Y-68268557D01*
X73870437Y-68291166D01*
X73873856Y-68314221D01*
X73875000Y-68337500D01*
X73875000Y-68912500D01*
X73873856Y-68935779D01*
X73870437Y-68958834D01*
X73864773Y-68981443D01*
X73856921Y-69003387D01*
X73846956Y-69024457D01*
X73834974Y-69044448D01*
X73821090Y-69063168D01*
X73805438Y-69080438D01*
X73788168Y-69096090D01*
X73769448Y-69109974D01*
X73749457Y-69121956D01*
X73728387Y-69131921D01*
X73706443Y-69139773D01*
X73683834Y-69145437D01*
X73660779Y-69148856D01*
X73637500Y-69150000D01*
X73162500Y-69150000D01*
X73139221Y-69148856D01*
X73116166Y-69145437D01*
X73093557Y-69139773D01*
X73071613Y-69131921D01*
X73050543Y-69121956D01*
X73030552Y-69109974D01*
X73011832Y-69096090D01*
X72994562Y-69080438D01*
X72978910Y-69063168D01*
X72965026Y-69044448D01*
X72953044Y-69024457D01*
X72943079Y-69003387D01*
X72935227Y-68981443D01*
X72929563Y-68958834D01*
X72926144Y-68935779D01*
X72925000Y-68912500D01*
X72925000Y-68337500D01*
X72926144Y-68314221D01*
X72929563Y-68291166D01*
X72935227Y-68268557D01*
X72943079Y-68246613D01*
X72953044Y-68225543D01*
X72965026Y-68205552D01*
X72978910Y-68186832D01*
X72994562Y-68169562D01*
X73011832Y-68153910D01*
X73030552Y-68140026D01*
X73050543Y-68128044D01*
X73071613Y-68118079D01*
X73093557Y-68110227D01*
X73116166Y-68104563D01*
X73139221Y-68101144D01*
X73162500Y-68100000D01*
X73637500Y-68100000D01*
X73660779Y-68101144D01*
X73660779Y-68101144D01*
G37*
D23*
G04 #@! TD*
G04 #@! TO.P,R21,1*
G04 #@! TO.N,/HWB*
X73400000Y-68625000D03*
D22*
G04 #@! TO.N,GND*
G04 #@! TO.C,R21*
G36*
X73660779Y-69851144D02*
X73683834Y-69854563D01*
X73706443Y-69860227D01*
X73728387Y-69868079D01*
X73749457Y-69878044D01*
X73769448Y-69890026D01*
X73788168Y-69903910D01*
X73805438Y-69919562D01*
X73821090Y-69936832D01*
X73834974Y-69955552D01*
X73846956Y-69975543D01*
X73856921Y-69996613D01*
X73864773Y-70018557D01*
X73870437Y-70041166D01*
X73873856Y-70064221D01*
X73875000Y-70087500D01*
X73875000Y-70662500D01*
X73873856Y-70685779D01*
X73870437Y-70708834D01*
X73864773Y-70731443D01*
X73856921Y-70753387D01*
X73846956Y-70774457D01*
X73834974Y-70794448D01*
X73821090Y-70813168D01*
X73805438Y-70830438D01*
X73788168Y-70846090D01*
X73769448Y-70859974D01*
X73749457Y-70871956D01*
X73728387Y-70881921D01*
X73706443Y-70889773D01*
X73683834Y-70895437D01*
X73660779Y-70898856D01*
X73637500Y-70900000D01*
X73162500Y-70900000D01*
X73139221Y-70898856D01*
X73116166Y-70895437D01*
X73093557Y-70889773D01*
X73071613Y-70881921D01*
X73050543Y-70871956D01*
X73030552Y-70859974D01*
X73011832Y-70846090D01*
X72994562Y-70830438D01*
X72978910Y-70813168D01*
X72965026Y-70794448D01*
X72953044Y-70774457D01*
X72943079Y-70753387D01*
X72935227Y-70731443D01*
X72929563Y-70708834D01*
X72926144Y-70685779D01*
X72925000Y-70662500D01*
X72925000Y-70087500D01*
X72926144Y-70064221D01*
X72929563Y-70041166D01*
X72935227Y-70018557D01*
X72943079Y-69996613D01*
X72953044Y-69975543D01*
X72965026Y-69955552D01*
X72978910Y-69936832D01*
X72994562Y-69919562D01*
X73011832Y-69903910D01*
X73030552Y-69890026D01*
X73050543Y-69878044D01*
X73071613Y-69868079D01*
X73093557Y-69860227D01*
X73116166Y-69854563D01*
X73139221Y-69851144D01*
X73162500Y-69850000D01*
X73637500Y-69850000D01*
X73660779Y-69851144D01*
X73660779Y-69851144D01*
G37*
D23*
G04 #@! TD*
G04 #@! TO.P,R21,2*
G04 #@! TO.N,GND*
X73400000Y-70375000D03*
D22*
G04 #@! TO.N,Net-(J2-Pad3)*
G04 #@! TO.C,R22*
G36*
X59060779Y-56101144D02*
X59083834Y-56104563D01*
X59106443Y-56110227D01*
X59128387Y-56118079D01*
X59149457Y-56128044D01*
X59169448Y-56140026D01*
X59188168Y-56153910D01*
X59205438Y-56169562D01*
X59221090Y-56186832D01*
X59234974Y-56205552D01*
X59246956Y-56225543D01*
X59256921Y-56246613D01*
X59264773Y-56268557D01*
X59270437Y-56291166D01*
X59273856Y-56314221D01*
X59275000Y-56337500D01*
X59275000Y-56912500D01*
X59273856Y-56935779D01*
X59270437Y-56958834D01*
X59264773Y-56981443D01*
X59256921Y-57003387D01*
X59246956Y-57024457D01*
X59234974Y-57044448D01*
X59221090Y-57063168D01*
X59205438Y-57080438D01*
X59188168Y-57096090D01*
X59169448Y-57109974D01*
X59149457Y-57121956D01*
X59128387Y-57131921D01*
X59106443Y-57139773D01*
X59083834Y-57145437D01*
X59060779Y-57148856D01*
X59037500Y-57150000D01*
X58562500Y-57150000D01*
X58539221Y-57148856D01*
X58516166Y-57145437D01*
X58493557Y-57139773D01*
X58471613Y-57131921D01*
X58450543Y-57121956D01*
X58430552Y-57109974D01*
X58411832Y-57096090D01*
X58394562Y-57080438D01*
X58378910Y-57063168D01*
X58365026Y-57044448D01*
X58353044Y-57024457D01*
X58343079Y-57003387D01*
X58335227Y-56981443D01*
X58329563Y-56958834D01*
X58326144Y-56935779D01*
X58325000Y-56912500D01*
X58325000Y-56337500D01*
X58326144Y-56314221D01*
X58329563Y-56291166D01*
X58335227Y-56268557D01*
X58343079Y-56246613D01*
X58353044Y-56225543D01*
X58365026Y-56205552D01*
X58378910Y-56186832D01*
X58394562Y-56169562D01*
X58411832Y-56153910D01*
X58430552Y-56140026D01*
X58450543Y-56128044D01*
X58471613Y-56118079D01*
X58493557Y-56110227D01*
X58516166Y-56104563D01*
X58539221Y-56101144D01*
X58562500Y-56100000D01*
X59037500Y-56100000D01*
X59060779Y-56101144D01*
X59060779Y-56101144D01*
G37*
D23*
G04 #@! TD*
G04 #@! TO.P,R22,1*
G04 #@! TO.N,Net-(J2-Pad3)*
X58800000Y-56625000D03*
D22*
G04 #@! TO.N,/D+*
G04 #@! TO.C,R22*
G36*
X59060779Y-57851144D02*
X59083834Y-57854563D01*
X59106443Y-57860227D01*
X59128387Y-57868079D01*
X59149457Y-57878044D01*
X59169448Y-57890026D01*
X59188168Y-57903910D01*
X59205438Y-57919562D01*
X59221090Y-57936832D01*
X59234974Y-57955552D01*
X59246956Y-57975543D01*
X59256921Y-57996613D01*
X59264773Y-58018557D01*
X59270437Y-58041166D01*
X59273856Y-58064221D01*
X59275000Y-58087500D01*
X59275000Y-58662500D01*
X59273856Y-58685779D01*
X59270437Y-58708834D01*
X59264773Y-58731443D01*
X59256921Y-58753387D01*
X59246956Y-58774457D01*
X59234974Y-58794448D01*
X59221090Y-58813168D01*
X59205438Y-58830438D01*
X59188168Y-58846090D01*
X59169448Y-58859974D01*
X59149457Y-58871956D01*
X59128387Y-58881921D01*
X59106443Y-58889773D01*
X59083834Y-58895437D01*
X59060779Y-58898856D01*
X59037500Y-58900000D01*
X58562500Y-58900000D01*
X58539221Y-58898856D01*
X58516166Y-58895437D01*
X58493557Y-58889773D01*
X58471613Y-58881921D01*
X58450543Y-58871956D01*
X58430552Y-58859974D01*
X58411832Y-58846090D01*
X58394562Y-58830438D01*
X58378910Y-58813168D01*
X58365026Y-58794448D01*
X58353044Y-58774457D01*
X58343079Y-58753387D01*
X58335227Y-58731443D01*
X58329563Y-58708834D01*
X58326144Y-58685779D01*
X58325000Y-58662500D01*
X58325000Y-58087500D01*
X58326144Y-58064221D01*
X58329563Y-58041166D01*
X58335227Y-58018557D01*
X58343079Y-57996613D01*
X58353044Y-57975543D01*
X58365026Y-57955552D01*
X58378910Y-57936832D01*
X58394562Y-57919562D01*
X58411832Y-57903910D01*
X58430552Y-57890026D01*
X58450543Y-57878044D01*
X58471613Y-57868079D01*
X58493557Y-57860227D01*
X58516166Y-57854563D01*
X58539221Y-57851144D01*
X58562500Y-57850000D01*
X59037500Y-57850000D01*
X59060779Y-57851144D01*
X59060779Y-57851144D01*
G37*
D23*
G04 #@! TD*
G04 #@! TO.P,R22,2*
G04 #@! TO.N,/D+*
X58800000Y-58375000D03*
D22*
G04 #@! TO.N,/D-*
G04 #@! TO.C,R23*
G36*
X57760779Y-57851144D02*
X57783834Y-57854563D01*
X57806443Y-57860227D01*
X57828387Y-57868079D01*
X57849457Y-57878044D01*
X57869448Y-57890026D01*
X57888168Y-57903910D01*
X57905438Y-57919562D01*
X57921090Y-57936832D01*
X57934974Y-57955552D01*
X57946956Y-57975543D01*
X57956921Y-57996613D01*
X57964773Y-58018557D01*
X57970437Y-58041166D01*
X57973856Y-58064221D01*
X57975000Y-58087500D01*
X57975000Y-58662500D01*
X57973856Y-58685779D01*
X57970437Y-58708834D01*
X57964773Y-58731443D01*
X57956921Y-58753387D01*
X57946956Y-58774457D01*
X57934974Y-58794448D01*
X57921090Y-58813168D01*
X57905438Y-58830438D01*
X57888168Y-58846090D01*
X57869448Y-58859974D01*
X57849457Y-58871956D01*
X57828387Y-58881921D01*
X57806443Y-58889773D01*
X57783834Y-58895437D01*
X57760779Y-58898856D01*
X57737500Y-58900000D01*
X57262500Y-58900000D01*
X57239221Y-58898856D01*
X57216166Y-58895437D01*
X57193557Y-58889773D01*
X57171613Y-58881921D01*
X57150543Y-58871956D01*
X57130552Y-58859974D01*
X57111832Y-58846090D01*
X57094562Y-58830438D01*
X57078910Y-58813168D01*
X57065026Y-58794448D01*
X57053044Y-58774457D01*
X57043079Y-58753387D01*
X57035227Y-58731443D01*
X57029563Y-58708834D01*
X57026144Y-58685779D01*
X57025000Y-58662500D01*
X57025000Y-58087500D01*
X57026144Y-58064221D01*
X57029563Y-58041166D01*
X57035227Y-58018557D01*
X57043079Y-57996613D01*
X57053044Y-57975543D01*
X57065026Y-57955552D01*
X57078910Y-57936832D01*
X57094562Y-57919562D01*
X57111832Y-57903910D01*
X57130552Y-57890026D01*
X57150543Y-57878044D01*
X57171613Y-57868079D01*
X57193557Y-57860227D01*
X57216166Y-57854563D01*
X57239221Y-57851144D01*
X57262500Y-57850000D01*
X57737500Y-57850000D01*
X57760779Y-57851144D01*
X57760779Y-57851144D01*
G37*
D23*
G04 #@! TD*
G04 #@! TO.P,R23,2*
G04 #@! TO.N,/D-*
X57500000Y-58375000D03*
D22*
G04 #@! TO.N,Net-(J2-Pad2)*
G04 #@! TO.C,R23*
G36*
X57760779Y-56101144D02*
X57783834Y-56104563D01*
X57806443Y-56110227D01*
X57828387Y-56118079D01*
X57849457Y-56128044D01*
X57869448Y-56140026D01*
X57888168Y-56153910D01*
X57905438Y-56169562D01*
X57921090Y-56186832D01*
X57934974Y-56205552D01*
X57946956Y-56225543D01*
X57956921Y-56246613D01*
X57964773Y-56268557D01*
X57970437Y-56291166D01*
X57973856Y-56314221D01*
X57975000Y-56337500D01*
X57975000Y-56912500D01*
X57973856Y-56935779D01*
X57970437Y-56958834D01*
X57964773Y-56981443D01*
X57956921Y-57003387D01*
X57946956Y-57024457D01*
X57934974Y-57044448D01*
X57921090Y-57063168D01*
X57905438Y-57080438D01*
X57888168Y-57096090D01*
X57869448Y-57109974D01*
X57849457Y-57121956D01*
X57828387Y-57131921D01*
X57806443Y-57139773D01*
X57783834Y-57145437D01*
X57760779Y-57148856D01*
X57737500Y-57150000D01*
X57262500Y-57150000D01*
X57239221Y-57148856D01*
X57216166Y-57145437D01*
X57193557Y-57139773D01*
X57171613Y-57131921D01*
X57150543Y-57121956D01*
X57130552Y-57109974D01*
X57111832Y-57096090D01*
X57094562Y-57080438D01*
X57078910Y-57063168D01*
X57065026Y-57044448D01*
X57053044Y-57024457D01*
X57043079Y-57003387D01*
X57035227Y-56981443D01*
X57029563Y-56958834D01*
X57026144Y-56935779D01*
X57025000Y-56912500D01*
X57025000Y-56337500D01*
X57026144Y-56314221D01*
X57029563Y-56291166D01*
X57035227Y-56268557D01*
X57043079Y-56246613D01*
X57053044Y-56225543D01*
X57065026Y-56205552D01*
X57078910Y-56186832D01*
X57094562Y-56169562D01*
X57111832Y-56153910D01*
X57130552Y-56140026D01*
X57150543Y-56128044D01*
X57171613Y-56118079D01*
X57193557Y-56110227D01*
X57216166Y-56104563D01*
X57239221Y-56101144D01*
X57262500Y-56100000D01*
X57737500Y-56100000D01*
X57760779Y-56101144D01*
X57760779Y-56101144D01*
G37*
D23*
G04 #@! TD*
G04 #@! TO.P,R23,1*
G04 #@! TO.N,Net-(J2-Pad2)*
X57500000Y-56625000D03*
D22*
G04 #@! TO.N,GND*
G04 #@! TO.C,R24*
G36*
X56410779Y-57851144D02*
X56433834Y-57854563D01*
X56456443Y-57860227D01*
X56478387Y-57868079D01*
X56499457Y-57878044D01*
X56519448Y-57890026D01*
X56538168Y-57903910D01*
X56555438Y-57919562D01*
X56571090Y-57936832D01*
X56584974Y-57955552D01*
X56596956Y-57975543D01*
X56606921Y-57996613D01*
X56614773Y-58018557D01*
X56620437Y-58041166D01*
X56623856Y-58064221D01*
X56625000Y-58087500D01*
X56625000Y-58662500D01*
X56623856Y-58685779D01*
X56620437Y-58708834D01*
X56614773Y-58731443D01*
X56606921Y-58753387D01*
X56596956Y-58774457D01*
X56584974Y-58794448D01*
X56571090Y-58813168D01*
X56555438Y-58830438D01*
X56538168Y-58846090D01*
X56519448Y-58859974D01*
X56499457Y-58871956D01*
X56478387Y-58881921D01*
X56456443Y-58889773D01*
X56433834Y-58895437D01*
X56410779Y-58898856D01*
X56387500Y-58900000D01*
X55912500Y-58900000D01*
X55889221Y-58898856D01*
X55866166Y-58895437D01*
X55843557Y-58889773D01*
X55821613Y-58881921D01*
X55800543Y-58871956D01*
X55780552Y-58859974D01*
X55761832Y-58846090D01*
X55744562Y-58830438D01*
X55728910Y-58813168D01*
X55715026Y-58794448D01*
X55703044Y-58774457D01*
X55693079Y-58753387D01*
X55685227Y-58731443D01*
X55679563Y-58708834D01*
X55676144Y-58685779D01*
X55675000Y-58662500D01*
X55675000Y-58087500D01*
X55676144Y-58064221D01*
X55679563Y-58041166D01*
X55685227Y-58018557D01*
X55693079Y-57996613D01*
X55703044Y-57975543D01*
X55715026Y-57955552D01*
X55728910Y-57936832D01*
X55744562Y-57919562D01*
X55761832Y-57903910D01*
X55780552Y-57890026D01*
X55800543Y-57878044D01*
X55821613Y-57868079D01*
X55843557Y-57860227D01*
X55866166Y-57854563D01*
X55889221Y-57851144D01*
X55912500Y-57850000D01*
X56387500Y-57850000D01*
X56410779Y-57851144D01*
X56410779Y-57851144D01*
G37*
D23*
G04 #@! TD*
G04 #@! TO.P,R24,2*
G04 #@! TO.N,GND*
X56150000Y-58375000D03*
D22*
G04 #@! TO.N,+5V*
G04 #@! TO.C,R24*
G36*
X56410779Y-56101144D02*
X56433834Y-56104563D01*
X56456443Y-56110227D01*
X56478387Y-56118079D01*
X56499457Y-56128044D01*
X56519448Y-56140026D01*
X56538168Y-56153910D01*
X56555438Y-56169562D01*
X56571090Y-56186832D01*
X56584974Y-56205552D01*
X56596956Y-56225543D01*
X56606921Y-56246613D01*
X56614773Y-56268557D01*
X56620437Y-56291166D01*
X56623856Y-56314221D01*
X56625000Y-56337500D01*
X56625000Y-56912500D01*
X56623856Y-56935779D01*
X56620437Y-56958834D01*
X56614773Y-56981443D01*
X56606921Y-57003387D01*
X56596956Y-57024457D01*
X56584974Y-57044448D01*
X56571090Y-57063168D01*
X56555438Y-57080438D01*
X56538168Y-57096090D01*
X56519448Y-57109974D01*
X56499457Y-57121956D01*
X56478387Y-57131921D01*
X56456443Y-57139773D01*
X56433834Y-57145437D01*
X56410779Y-57148856D01*
X56387500Y-57150000D01*
X55912500Y-57150000D01*
X55889221Y-57148856D01*
X55866166Y-57145437D01*
X55843557Y-57139773D01*
X55821613Y-57131921D01*
X55800543Y-57121956D01*
X55780552Y-57109974D01*
X55761832Y-57096090D01*
X55744562Y-57080438D01*
X55728910Y-57063168D01*
X55715026Y-57044448D01*
X55703044Y-57024457D01*
X55693079Y-57003387D01*
X55685227Y-56981443D01*
X55679563Y-56958834D01*
X55676144Y-56935779D01*
X55675000Y-56912500D01*
X55675000Y-56337500D01*
X55676144Y-56314221D01*
X55679563Y-56291166D01*
X55685227Y-56268557D01*
X55693079Y-56246613D01*
X55703044Y-56225543D01*
X55715026Y-56205552D01*
X55728910Y-56186832D01*
X55744562Y-56169562D01*
X55761832Y-56153910D01*
X55780552Y-56140026D01*
X55800543Y-56128044D01*
X55821613Y-56118079D01*
X55843557Y-56110227D01*
X55866166Y-56104563D01*
X55889221Y-56101144D01*
X55912500Y-56100000D01*
X56387500Y-56100000D01*
X56410779Y-56101144D01*
X56410779Y-56101144D01*
G37*
D23*
G04 #@! TD*
G04 #@! TO.P,R24,1*
G04 #@! TO.N,+5V*
X56150000Y-56625000D03*
D24*
G04 #@! TO.P,SW1,1*
G04 #@! TO.N,GND*
X64710000Y-52100000D03*
G04 #@! TO.P,SW1,2*
G04 #@! TO.N,/RESET*
X73890000Y-52100000D03*
G04 #@! TD*
D25*
G04 #@! TO.P,J4,6*
G04 #@! TO.N,/DRAIN*
X52500000Y-68400000D03*
G04 #@! TO.P,J4,5*
G04 #@! TO.N,/MUX_EN*
X54000000Y-68400000D03*
G04 #@! TO.P,J4,4*
G04 #@! TO.N,/MUX_C*
X55500000Y-68400000D03*
G04 #@! TO.P,J4,3*
G04 #@! TO.N,/MUX_B*
X57000000Y-68400000D03*
G04 #@! TO.P,J4,2*
G04 #@! TO.N,/MUX_A*
X58500000Y-68400000D03*
D26*
G04 #@! TO.P,J4,1*
G04 #@! TO.N,+5V*
X60000000Y-68400000D03*
G04 #@! TD*
G04 #@! TO.P,J5,1*
G04 #@! TO.N,/COL_A*
X70800000Y-68400000D03*
D25*
G04 #@! TO.P,J5,2*
G04 #@! TO.N,/COL_B*
X69300000Y-68400000D03*
G04 #@! TO.P,J5,3*
G04 #@! TO.N,/COL_C*
X67800000Y-68400000D03*
G04 #@! TO.P,J5,4*
G04 #@! TO.N,/COL_EN*
X66300000Y-68400000D03*
G04 #@! TO.P,J5,5*
G04 #@! TO.N,/READ*
X64800000Y-68400000D03*
G04 #@! TO.P,J5,6*
G04 #@! TO.N,GND*
X63300000Y-68400000D03*
G04 #@! TD*
D27*
G04 #@! TO.N,GND*
X84900000Y-61900000D03*
X86600000Y-58200000D03*
X86600001Y-66600001D03*
X90072287Y-66600001D03*
X90200000Y-58200000D03*
X92225010Y-61900000D03*
X92225010Y-58887037D03*
G04 #@! TO.N,/READ*
X65300000Y-60000000D03*
G04 #@! TO.N,/COL_EN*
X79048952Y-57851048D03*
G04 #@! TO.N,/COL_C*
X75500000Y-63649979D03*
G04 #@! TO.N,/COL_B*
X76500000Y-64149990D03*
G04 #@! TO.N,/COL_A*
X77700000Y-64900000D03*
G04 #@! TO.N,/RESET*
X84777952Y-57477951D03*
X71800000Y-53300000D03*
G04 #@! TO.N,/CLKLED*
X74600000Y-68300000D03*
X92300000Y-70500000D03*
G04 #@! TO.N,/RXLED*
X91200000Y-70300000D03*
X79200000Y-56800000D03*
G04 #@! TO.N,/D+*
X59900000Y-57800000D03*
X75050010Y-56915644D03*
G04 #@! TO.N,/D-*
X60400000Y-58700000D03*
X75941848Y-57368026D03*
G04 #@! TD*
D28*
G04 #@! TO.N,GND*
X73400000Y-70375000D02*
X73400000Y-71600000D01*
X73400000Y-71600000D02*
X74274990Y-72474990D01*
X74274990Y-72474990D02*
X74349980Y-72400000D01*
X98855986Y-71395764D02*
X98855986Y-70095764D01*
X98855986Y-70095764D02*
X98855986Y-68795764D01*
X98855986Y-68795764D02*
X98855986Y-67495764D01*
X98555986Y-62155986D02*
X98200000Y-61800000D01*
X80000000Y-71974990D02*
X80500000Y-72474990D01*
X80000000Y-70350000D02*
X80000000Y-71974990D01*
X74274990Y-72474990D02*
X80500000Y-72474990D01*
X81700000Y-72474990D02*
X81700000Y-72400000D01*
X80500000Y-72474990D02*
X81700000Y-72474990D01*
X81400000Y-72100000D02*
X81400000Y-70350000D01*
X81700000Y-72400000D02*
X81400000Y-72100000D01*
X81400000Y-65350000D02*
X81400000Y-66600000D01*
X81400000Y-59750000D02*
X81400000Y-65350000D01*
X81850000Y-59300000D02*
X81400000Y-59750000D01*
X83100000Y-59300000D02*
X81850000Y-59300000D01*
D29*
X59237500Y-54060000D02*
X59237500Y-55137500D01*
X59237500Y-55137500D02*
X59500000Y-55400000D01*
D28*
X53900000Y-53700000D02*
X55475000Y-53700000D01*
X53500000Y-53700000D02*
X53900000Y-53700000D01*
X64074990Y-72474990D02*
X63100000Y-71500000D01*
X51800000Y-71500000D02*
X50749979Y-70449979D01*
X74274990Y-72474990D02*
X64074990Y-72474990D01*
X50749979Y-70449979D02*
X50749979Y-56450021D01*
X50749979Y-56450021D02*
X53500000Y-53700000D01*
X63300000Y-70500000D02*
X62300000Y-71500000D01*
X63300000Y-68400000D02*
X63300000Y-70500000D01*
X63100000Y-71500000D02*
X62300000Y-71500000D01*
X62300000Y-71500000D02*
X51800000Y-71500000D01*
X55027500Y-53252500D02*
X55475000Y-53700000D01*
X55027500Y-51400000D02*
X57097500Y-51400000D01*
X57097500Y-51400000D02*
X59300000Y-51400000D01*
X59300000Y-51400000D02*
X58777500Y-51400000D01*
X58777500Y-51400000D02*
X60847500Y-51400000D01*
X60847500Y-53252500D02*
X60400000Y-53700000D01*
X59597500Y-53700000D02*
X59262501Y-54034999D01*
X60400000Y-53700000D02*
X59597500Y-53700000D01*
X61547500Y-52100000D02*
X60847500Y-51400000D01*
X64710000Y-52100000D02*
X61547500Y-52100000D01*
X55475000Y-53387500D02*
X55475000Y-53700000D01*
X56712500Y-52150000D02*
X55475000Y-53387500D01*
X60497500Y-52150000D02*
X56712500Y-52150000D01*
X60847500Y-52500000D02*
X60497500Y-52150000D01*
X60847500Y-51400000D02*
X60847500Y-52500000D01*
X60847500Y-52500000D02*
X60847500Y-53252500D01*
X56462500Y-52400000D02*
X56712500Y-52150000D01*
X55027500Y-51400000D02*
X55027500Y-52400000D01*
X55027500Y-52400000D02*
X55027500Y-53252500D01*
X55027500Y-52400000D02*
X56200000Y-52400000D01*
X56200000Y-52400000D02*
X56462500Y-52400000D01*
X60400000Y-53387500D02*
X60400000Y-53700000D01*
X59162500Y-52150000D02*
X60400000Y-53387500D01*
X56450000Y-52150000D02*
X59162500Y-52150000D01*
X56200000Y-52400000D02*
X56450000Y-52150000D01*
X76600000Y-54272288D02*
X75700000Y-53372288D01*
X76600000Y-55200000D02*
X76600000Y-54272288D01*
X75700000Y-51209998D02*
X75190002Y-50700000D01*
X75700000Y-53372288D02*
X75700000Y-51209998D01*
X66300000Y-52100000D02*
X64710000Y-52100000D01*
X67700000Y-50700000D02*
X66300000Y-52100000D01*
X75190002Y-50700000D02*
X67700000Y-50700000D01*
X76275000Y-50700000D02*
X77000000Y-51425000D01*
X75190002Y-50700000D02*
X76275000Y-50700000D01*
X77675000Y-50700000D02*
X78400000Y-51425000D01*
X76275000Y-50700000D02*
X77675000Y-50700000D01*
X70450000Y-57700000D02*
X71700000Y-57700000D01*
X53750000Y-58375000D02*
X54950000Y-58375000D01*
X54950000Y-58375000D02*
X56150000Y-58375000D01*
X73499989Y-58439953D02*
X72760036Y-57700000D01*
X72760036Y-57700000D02*
X71700000Y-57700000D01*
X73499989Y-63335013D02*
X73499989Y-58439953D01*
X72735002Y-64100000D02*
X73499989Y-63335013D01*
X71700000Y-64100000D02*
X72735002Y-64100000D01*
X56150000Y-58375000D02*
X56150000Y-59000000D01*
X56150000Y-59000000D02*
X57350000Y-60200000D01*
X57350000Y-60200000D02*
X60300000Y-60200000D01*
X60300000Y-60200000D02*
X61600000Y-58900000D01*
X61600000Y-56000000D02*
X61000000Y-55400000D01*
X59500000Y-55400000D02*
X61000000Y-55400000D01*
X70450000Y-57700000D02*
X70250000Y-57500000D01*
X68900000Y-57500000D02*
X67900000Y-58500000D01*
X70250000Y-57500000D02*
X68900000Y-57500000D01*
X62200000Y-57500000D02*
X61600000Y-56900000D01*
X68900000Y-57500000D02*
X62200000Y-57500000D01*
X61600000Y-58900000D02*
X61600000Y-56900000D01*
X61600000Y-56900000D02*
X61600000Y-56000000D01*
X84760000Y-50700000D02*
X86020000Y-51960000D01*
X77675000Y-50700000D02*
X84760000Y-50700000D01*
X86247967Y-58200000D02*
X85147967Y-59300000D01*
X84350000Y-59300000D02*
X83100000Y-59300000D01*
X85147967Y-59300000D02*
X84350000Y-59300000D01*
X97776760Y-72474990D02*
X98855986Y-71395764D01*
X81700000Y-72474990D02*
X97776760Y-72474990D01*
X98855986Y-62455986D02*
X98200000Y-61800000D01*
X98855986Y-67495764D02*
X98855986Y-62455986D01*
X86247967Y-58200000D02*
X90200000Y-58200000D01*
X90200000Y-58200000D02*
X90272288Y-58200000D01*
X90072287Y-66600001D02*
X90072287Y-66600001D01*
X86600001Y-66600001D02*
X86000000Y-66000000D01*
X86000000Y-66000000D02*
X86000000Y-63000000D01*
X86000000Y-63000000D02*
X84900000Y-61900000D01*
X86600001Y-66600001D02*
X86600001Y-66600001D01*
X90072287Y-66600001D02*
X86600001Y-66600001D01*
X90200000Y-58200000D02*
X90200000Y-58200000D01*
X92225010Y-63425010D02*
X92225010Y-63425010D01*
X91200000Y-62200000D02*
X91200000Y-62900000D01*
X91200000Y-61475000D02*
X91200000Y-62200000D01*
X92225010Y-59452722D02*
X92225010Y-59452722D01*
X92225010Y-61900000D02*
X92225010Y-61900000D01*
X92225010Y-62900000D02*
X92225010Y-62825010D01*
X91200000Y-62200000D02*
X91800000Y-62200000D01*
X92225010Y-62900000D02*
X92225010Y-62600000D01*
X91999082Y-61974072D02*
X92225010Y-62200000D01*
X91699072Y-61974072D02*
X91999082Y-61974072D01*
X91200000Y-61475000D02*
X91699072Y-61974072D01*
X92225010Y-62600000D02*
X92225010Y-62200000D01*
X92225010Y-62200000D02*
X92225010Y-61900000D01*
X91699072Y-62400928D02*
X91699072Y-61974072D01*
X91200000Y-62900000D02*
X91699072Y-62400928D01*
X92225010Y-63425010D02*
X92225010Y-62900000D01*
X92225010Y-65122278D02*
X92225010Y-63425010D01*
X90747287Y-66600001D02*
X92225010Y-65122278D01*
X90072287Y-66600001D02*
X90747287Y-66600001D01*
X92225010Y-61900000D02*
X92225010Y-59452722D01*
X92225010Y-59452722D02*
X92225010Y-59452722D01*
X90600000Y-58200000D02*
X90200000Y-58200000D01*
X91537973Y-58200000D02*
X90600000Y-58200000D01*
X92225010Y-58887037D02*
X91537973Y-58200000D01*
X92225010Y-59452722D02*
X92225010Y-58887037D01*
G04 #@! TO.N,Net-(C8-Pad1)*
X87875000Y-65275000D02*
X87600000Y-65000000D01*
X87600000Y-65000000D02*
X90175000Y-65000000D01*
X87600000Y-65000000D02*
X87600000Y-63373655D01*
X87600000Y-63373655D02*
X85126345Y-60900000D01*
X84350000Y-60900000D02*
X83100000Y-60900000D01*
X85126345Y-60900000D02*
X84350000Y-60900000D01*
X90175000Y-65000000D02*
X90225000Y-64950000D01*
X90275000Y-65000000D02*
X90175000Y-65000000D01*
X90625000Y-64650000D02*
X90275000Y-65000000D01*
X91200000Y-64650000D02*
X90625000Y-64650000D01*
G04 #@! TO.N,Net-(C9-Pad1)*
X87600000Y-60100000D02*
X83100000Y-60100000D01*
X87950000Y-59750000D02*
X87600000Y-60100000D01*
X87600000Y-60100000D02*
X89925000Y-60100000D01*
X89925000Y-60100000D02*
X90000000Y-60025000D01*
X90300000Y-59725000D02*
X91200000Y-59725000D01*
X89925000Y-60100000D02*
X90300000Y-59725000D01*
G04 #@! TO.N,Net-(C10-Pad1)*
X71700000Y-58500000D02*
X69650000Y-58500000D01*
D29*
G04 #@! TO.N,+5V*
X56637500Y-55050000D02*
X56387500Y-55300000D01*
X56637500Y-54060000D02*
X56637500Y-55050000D01*
D28*
X56150000Y-55537500D02*
X56387500Y-55300000D01*
X56150000Y-56625000D02*
X56150000Y-55537500D01*
X56387500Y-55300000D02*
X55400000Y-55300000D01*
X54950000Y-55750000D02*
X54950000Y-56625000D01*
X55400000Y-55300000D02*
X54950000Y-55750000D01*
X55400000Y-55300000D02*
X54100000Y-55300000D01*
X53750000Y-55650000D02*
X53750000Y-56625000D01*
X54100000Y-55300000D02*
X53750000Y-55650000D01*
X59800000Y-68400000D02*
X59800000Y-68700000D01*
X80600000Y-68000000D02*
X80600000Y-66600000D01*
X80000000Y-68600000D02*
X80600000Y-68000000D01*
X80600000Y-67800000D02*
X80600000Y-66600000D01*
X81400000Y-68600000D02*
X80600000Y-67800000D01*
X80600000Y-64800000D02*
X80600000Y-66600000D01*
X80400000Y-64600000D02*
X80400000Y-59400000D01*
X80400000Y-64600000D02*
X80600000Y-64800000D01*
X81300000Y-58500000D02*
X83100000Y-58500000D01*
X80600000Y-59200000D02*
X78700000Y-59200000D01*
X80400000Y-59400000D02*
X80600000Y-59200000D01*
X80600000Y-59200000D02*
X81300000Y-58500000D01*
X78200000Y-53375000D02*
X78400000Y-53175000D01*
X78200000Y-55200000D02*
X78200000Y-53375000D01*
X61300000Y-66500000D02*
X61300000Y-69500000D01*
X61300000Y-69500000D02*
X60700000Y-70100000D01*
X52215062Y-70100000D02*
X51449990Y-69334928D01*
X51449990Y-57950010D02*
X54100000Y-55300000D01*
X51449990Y-69334928D02*
X51449990Y-57950010D01*
X71700000Y-64900000D02*
X62900000Y-64900000D01*
X62900000Y-64900000D02*
X61300000Y-66500000D01*
X59700000Y-70100000D02*
X59300000Y-70100000D01*
X60000000Y-69800000D02*
X59700000Y-70100000D01*
X60000000Y-68400000D02*
X60000000Y-69800000D01*
X60700000Y-70100000D02*
X59300000Y-70100000D01*
X59300000Y-70100000D02*
X52215062Y-70100000D01*
X71700000Y-64900000D02*
X72991977Y-64900000D01*
X78599978Y-62799978D02*
X80400000Y-64600000D01*
X75091999Y-62799978D02*
X78599978Y-62799978D01*
X72991977Y-64900000D02*
X75091999Y-62799978D01*
X75000000Y-59200000D02*
X78700000Y-59200000D01*
X74200000Y-55200000D02*
X74200000Y-58400000D01*
X74200000Y-58400000D02*
X75000000Y-59200000D01*
X72950000Y-56900000D02*
X74200000Y-58150000D01*
X71700000Y-56900000D02*
X72950000Y-56900000D01*
X74200000Y-58150000D02*
X74200000Y-58400000D01*
X69875000Y-56350000D02*
X69900000Y-56375000D01*
X68300000Y-56350000D02*
X69875000Y-56350000D01*
X71175000Y-56375000D02*
X71700000Y-56900000D01*
X69900000Y-56375000D02*
X71175000Y-56375000D01*
X91949999Y-52809999D02*
X91100000Y-51960000D01*
X92400001Y-53260001D02*
X91949999Y-52809999D01*
X92400001Y-57050001D02*
X92400001Y-53260001D01*
X93900000Y-60300000D02*
X93900000Y-58550000D01*
X93900000Y-58550000D02*
X92700000Y-57350000D01*
X92700000Y-57350000D02*
X92400001Y-57050001D01*
X84958002Y-58500000D02*
X86108002Y-57350000D01*
X86108002Y-57350000D02*
X92700000Y-57350000D01*
X83100000Y-58500000D02*
X84958002Y-58500000D01*
X83504236Y-71395764D02*
X93705986Y-71395764D01*
X83400000Y-71500000D02*
X83504236Y-71395764D01*
X82700000Y-70800000D02*
X83400000Y-71500000D01*
X82700000Y-69325000D02*
X82700000Y-70800000D01*
X81400000Y-68600000D02*
X81975000Y-68600000D01*
X81975000Y-68600000D02*
X82700000Y-69325000D01*
X78700000Y-59200000D02*
X78198950Y-58698950D01*
X78198950Y-58698950D02*
X78198950Y-56451050D01*
X78200000Y-56450000D02*
X78200000Y-55200000D01*
X78198950Y-56451050D02*
X78200000Y-56450000D01*
G04 #@! TO.N,Net-(C12-Pad1)*
X77400000Y-53575000D02*
X77400000Y-55200000D01*
X77000000Y-53175000D02*
X77400000Y-53575000D01*
G04 #@! TO.N,Net-(D2-Pad2)*
X97105986Y-70095764D02*
X95455986Y-70095764D01*
G04 #@! TO.N,Net-(D3-Pad2)*
X95455986Y-68795764D02*
X97105986Y-68795764D01*
G04 #@! TO.N,Net-(D4-Pad2)*
X97105986Y-67495764D02*
X95480986Y-67495764D01*
G04 #@! TO.N,Net-(D5-Pad2)*
X95455986Y-71395764D02*
X97105986Y-71395764D01*
D29*
G04 #@! TO.N,Net-(J2-Pad2)*
X57500000Y-56625000D02*
X57287500Y-56412500D01*
X57287500Y-55050000D02*
X57300000Y-55062500D01*
D28*
X57500000Y-56625000D02*
X57500000Y-55689962D01*
X57500000Y-55689962D02*
X57237492Y-55427454D01*
X57237492Y-55237492D02*
X57237492Y-55427454D01*
X57237492Y-55237492D02*
X57237492Y-55185010D01*
D29*
X57287500Y-54060000D02*
X57237492Y-55185010D01*
X57237492Y-55185010D02*
X57287500Y-55050000D01*
G04 #@! TO.N,Net-(J2-Pad3)*
X57937500Y-55137500D02*
X57937500Y-54060000D01*
D28*
X58800000Y-56000000D02*
X57937500Y-55137500D01*
X58800000Y-56625000D02*
X58800000Y-56000000D01*
G04 #@! TO.N,/READ*
X70450000Y-59300000D02*
X71700000Y-59300000D01*
X70347288Y-59300000D02*
X70450000Y-59300000D01*
X70222278Y-59425010D02*
X70347288Y-59300000D01*
X66125010Y-59425010D02*
X70222278Y-59425010D01*
X65874990Y-59425010D02*
X65300000Y-60000000D01*
X66125010Y-59425010D02*
X65874990Y-59425010D01*
D29*
G04 #@! TO.N,/COL_EN*
X82050000Y-56900000D02*
X81098952Y-57851048D01*
X81098952Y-57851048D02*
X79614637Y-57851048D01*
X83100000Y-56900000D02*
X82050000Y-56900000D01*
X79614637Y-57851048D02*
X79048952Y-57851048D01*
G04 #@! TO.N,/COL_C*
X75800000Y-66600000D02*
X75800000Y-65065685D01*
X75500000Y-64215664D02*
X75500000Y-63649979D01*
X75500000Y-64765685D02*
X75500000Y-64215664D01*
X75800000Y-65065685D02*
X75500000Y-64765685D01*
G04 #@! TO.N,/COL_B*
X76600000Y-64249990D02*
X76500000Y-64149990D01*
X76600000Y-66600000D02*
X76600000Y-64249990D01*
G04 #@! TO.N,/COL_A*
X77400000Y-65200000D02*
X77400000Y-66600000D01*
X77700000Y-64900000D02*
X77400000Y-65200000D01*
G04 #@! TO.N,/DRAIN*
X70650000Y-60100000D02*
X71700000Y-60100000D01*
X57548532Y-60800011D02*
X69949989Y-60800011D01*
X69949989Y-60800011D02*
X70650000Y-60100000D01*
X52500000Y-65848543D02*
X57548532Y-60800011D01*
X52500000Y-68400000D02*
X52500000Y-65848543D01*
G04 #@! TO.N,/MUX_EN*
X70249978Y-61300022D02*
X70650000Y-60900000D01*
X70650000Y-60900000D02*
X71700000Y-60900000D01*
X57755643Y-61300022D02*
X70249978Y-61300022D01*
X54000000Y-65055665D02*
X57755643Y-61300022D01*
X54000000Y-68400000D02*
X54000000Y-65055665D01*
G04 #@! TO.N,/MUX_C*
X55500000Y-68400000D02*
X55500000Y-64262787D01*
X57962754Y-61800033D02*
X70549967Y-61800033D01*
X70650000Y-61700000D02*
X71700000Y-61700000D01*
X70549967Y-61800033D02*
X70650000Y-61700000D01*
X55500000Y-64262787D02*
X57962754Y-61800033D01*
G04 #@! TO.N,/MUX_B*
X57000000Y-68400000D02*
X57000000Y-63500000D01*
X58000000Y-62500000D02*
X71700000Y-62500000D01*
X57000000Y-63500000D02*
X58000000Y-62500000D01*
G04 #@! TO.N,/MUX_A*
X59800000Y-63300000D02*
X71700000Y-63300000D01*
X58500000Y-68400000D02*
X58500000Y-64600000D01*
X58500000Y-64600000D02*
X59800000Y-63300000D01*
D28*
G04 #@! TO.N,/RESET*
X69900000Y-54625000D02*
X69900000Y-53200000D01*
X69900000Y-53200000D02*
X69900000Y-53700000D01*
X69075000Y-53200000D02*
X69900000Y-53200000D01*
X68300000Y-53975000D02*
X69075000Y-53200000D01*
X68300000Y-54600000D02*
X68300000Y-53975000D01*
X84555903Y-57700000D02*
X83100000Y-57700000D01*
X84777952Y-57477951D02*
X84555903Y-57700000D01*
X72300000Y-52234315D02*
X72300000Y-52100000D01*
X71800000Y-52734315D02*
X72300000Y-52234315D01*
X71800000Y-53300000D02*
X71800000Y-52734315D01*
X72300000Y-52100000D02*
X73890000Y-52100000D01*
X71800000Y-52600000D02*
X71300000Y-52100000D01*
X71800000Y-52734315D02*
X71800000Y-52600000D01*
X71000000Y-52100000D02*
X71300000Y-52100000D01*
X71300000Y-52100000D02*
X72300000Y-52100000D01*
X69900000Y-53200000D02*
X71000000Y-52100000D01*
D29*
G04 #@! TO.N,/MISO*
X81400000Y-54150000D02*
X81750000Y-53800000D01*
X81400000Y-55200000D02*
X81400000Y-54150000D01*
X81750000Y-53800000D02*
X83500000Y-53800000D01*
X85400001Y-55700001D02*
X86599999Y-55700001D01*
X83500000Y-53800000D02*
X85400001Y-55700001D01*
X87359999Y-54940001D02*
X87359999Y-53740001D01*
X86599999Y-55700001D02*
X87359999Y-54940001D01*
X87359999Y-53740001D02*
X87800000Y-53300000D01*
X87800000Y-53300000D02*
X89900000Y-53300000D01*
X89900000Y-53300000D02*
X91100000Y-54500000D01*
G04 #@! TO.N,/SCK*
X80050001Y-56439999D02*
X79800000Y-56189998D01*
X79800000Y-56189998D02*
X79800000Y-55200000D01*
X82054990Y-56200012D02*
X81815003Y-56439999D01*
X81815003Y-56439999D02*
X80050001Y-56439999D01*
X88560000Y-54500000D02*
X86859988Y-56200012D01*
X86859988Y-56200012D02*
X82054990Y-56200012D01*
G04 #@! TO.N,/MOSI*
X87232877Y-53160001D02*
X88432878Y-51960000D01*
X88432878Y-51960000D02*
X88560000Y-51960000D01*
X81589999Y-53160001D02*
X87232877Y-53160001D01*
X80600000Y-54150000D02*
X81589999Y-53160001D01*
X80600000Y-55200000D02*
X80600000Y-54150000D01*
D28*
G04 #@! TO.N,/Rx*
X90137252Y-68200000D02*
X94900000Y-63437252D01*
X85100011Y-67610047D02*
X85689964Y-68200000D01*
X85689964Y-68200000D02*
X90137252Y-68200000D01*
X94900000Y-58050000D02*
X93900000Y-57050000D01*
X94900000Y-63437252D02*
X94900000Y-58050000D01*
X84350000Y-63300000D02*
X85100011Y-64050011D01*
X83100000Y-63300000D02*
X84350000Y-63300000D01*
X93900000Y-57050000D02*
X93900000Y-56300000D01*
X85100011Y-64050011D02*
X85100011Y-67610047D01*
G04 #@! TO.N,/Tx*
X90327217Y-69000000D02*
X85500000Y-69000000D01*
X84000000Y-64100000D02*
X83100000Y-64100000D01*
X93900000Y-53300000D02*
X93900000Y-54150000D01*
X97150001Y-62177216D02*
X90327217Y-69000000D01*
X93900000Y-54150000D02*
X97150001Y-57400001D01*
X97150001Y-57400001D02*
X97150001Y-62177216D01*
X84400000Y-64500000D02*
X84000000Y-64100000D01*
X84400000Y-67900001D02*
X84400000Y-64500000D01*
X85500000Y-69000000D02*
X84400000Y-67900001D01*
G04 #@! TO.N,/CLKLED*
X74200000Y-66600000D02*
X74200000Y-67900000D01*
X74200000Y-67900000D02*
X74600000Y-68300000D01*
X92704236Y-70095764D02*
X93705986Y-70095764D01*
X92300000Y-70500000D02*
X92704236Y-70095764D01*
G04 #@! TO.N,/RXLED*
X93080986Y-68795764D02*
X93076750Y-68800000D01*
X93705986Y-68795764D02*
X93080986Y-68795764D01*
X93076750Y-68800000D02*
X92700000Y-68800000D01*
X92700000Y-68800000D02*
X91200000Y-70300000D01*
X79000000Y-56600000D02*
X79000000Y-55200000D01*
X79200000Y-56800000D02*
X79000000Y-56600000D01*
D29*
G04 #@! TO.N,/TXLED*
X90600000Y-69600000D02*
X92205164Y-67994836D01*
X85200000Y-69600000D02*
X90600000Y-69600000D01*
X83100000Y-64900000D02*
X83100000Y-67500000D01*
X93231914Y-67994836D02*
X93730986Y-67495764D01*
X83100000Y-67500000D02*
X85200000Y-69600000D01*
X92205164Y-67994836D02*
X93231914Y-67994836D01*
D28*
G04 #@! TO.N,/HWB*
X73400000Y-68625000D02*
X73400000Y-66600000D01*
G04 #@! TO.N,/D+*
X59375000Y-57800000D02*
X58800000Y-58375000D01*
X59900000Y-57800000D02*
X59375000Y-57800000D01*
X75000000Y-55200000D02*
X75000000Y-56865634D01*
X75000000Y-56865634D02*
X75050010Y-56915644D01*
D29*
G04 #@! TO.N,/D-*
X57500000Y-57750000D02*
X57750000Y-57500000D01*
X57500000Y-58375000D02*
X57500000Y-57750000D01*
D28*
X59749990Y-59350010D02*
X60400000Y-58700000D01*
X57850010Y-59350010D02*
X59749990Y-59350010D01*
X57500000Y-58375000D02*
X57500000Y-59000000D01*
X57500000Y-59000000D02*
X57850010Y-59350010D01*
X75941848Y-56802341D02*
X75941848Y-57368026D01*
X75941848Y-56591848D02*
X75941848Y-56802341D01*
X75800000Y-55200000D02*
X75800000Y-56450000D01*
X75800000Y-56450000D02*
X75941848Y-56591848D01*
G04 #@! TD*
M02*
