G04 #@! TF.GenerationSoftware,KiCad,Pcbnew,(5.0.2)-1*
G04 #@! TF.CreationDate,2020-04-01T19:52:44+09:00*
G04 #@! TF.ProjectId,controller,636f6e74-726f-46c6-9c65-722e6b696361,rev?*
G04 #@! TF.SameCoordinates,Original*
G04 #@! TF.FileFunction,Soldermask,Top*
G04 #@! TF.FilePolarity,Negative*
%FSLAX46Y46*%
G04 Gerber Fmt 4.6, Leading zero omitted, Abs format (unit mm)*
G04 Created by KiCad (PCBNEW (5.0.2)-1) date 2020/04/01 19:52:44*
%MOMM*%
%LPD*%
G01*
G04 APERTURE LIST*
%ADD10C,0.100000*%
G04 APERTURE END LIST*
D10*
G36*
X69427618Y-67458420D02*
X69509427Y-67483237D01*
X69550333Y-67495645D01*
X69650491Y-67549181D01*
X69663426Y-67556095D01*
X69762553Y-67637447D01*
X69843905Y-67736574D01*
X69843906Y-67736576D01*
X69904355Y-67849667D01*
X69904382Y-67849757D01*
X69913760Y-67872396D01*
X69927374Y-67892771D01*
X69944701Y-67910098D01*
X69965075Y-67923712D01*
X69987714Y-67933089D01*
X70011748Y-67937870D01*
X70036252Y-67937870D01*
X70060285Y-67933090D01*
X70082924Y-67923712D01*
X70103299Y-67910098D01*
X70120626Y-67892771D01*
X70134240Y-67872397D01*
X70143617Y-67849758D01*
X70148398Y-67825724D01*
X70149000Y-67813472D01*
X70149000Y-67449000D01*
X71451000Y-67449000D01*
X71451000Y-69351000D01*
X70149000Y-69351000D01*
X70149000Y-68986528D01*
X70146598Y-68962142D01*
X70139485Y-68938693D01*
X70127934Y-68917082D01*
X70112388Y-68898140D01*
X70093446Y-68882594D01*
X70071835Y-68871043D01*
X70048386Y-68863930D01*
X70024000Y-68861528D01*
X69999614Y-68863930D01*
X69976165Y-68871043D01*
X69954554Y-68882594D01*
X69935612Y-68898140D01*
X69920066Y-68917082D01*
X69908515Y-68938693D01*
X69904382Y-68950243D01*
X69904355Y-68950333D01*
X69885008Y-68986528D01*
X69843905Y-69063426D01*
X69762553Y-69162553D01*
X69663425Y-69243905D01*
X69610782Y-69272043D01*
X69550332Y-69304355D01*
X69509426Y-69316763D01*
X69427617Y-69341580D01*
X69300000Y-69354149D01*
X69172382Y-69341580D01*
X69090573Y-69316763D01*
X69049667Y-69304355D01*
X68936576Y-69243906D01*
X68936574Y-69243905D01*
X68837447Y-69162553D01*
X68756095Y-69063425D01*
X68727957Y-69010782D01*
X68695645Y-68950332D01*
X68669618Y-68864531D01*
X68660240Y-68841892D01*
X68646626Y-68821517D01*
X68629299Y-68804190D01*
X68608925Y-68790576D01*
X68586286Y-68781199D01*
X68562252Y-68776418D01*
X68537748Y-68776418D01*
X68513715Y-68781198D01*
X68491076Y-68790576D01*
X68470701Y-68804190D01*
X68453374Y-68821517D01*
X68439760Y-68841891D01*
X68430384Y-68864526D01*
X68428407Y-68871043D01*
X68404355Y-68950333D01*
X68385008Y-68986528D01*
X68343905Y-69063426D01*
X68262553Y-69162553D01*
X68163425Y-69243905D01*
X68110782Y-69272043D01*
X68050332Y-69304355D01*
X68009426Y-69316763D01*
X67927617Y-69341580D01*
X67800000Y-69354149D01*
X67672382Y-69341580D01*
X67590573Y-69316763D01*
X67549667Y-69304355D01*
X67436576Y-69243906D01*
X67436574Y-69243905D01*
X67337447Y-69162553D01*
X67256095Y-69063425D01*
X67227957Y-69010782D01*
X67195645Y-68950332D01*
X67169618Y-68864531D01*
X67160240Y-68841892D01*
X67146626Y-68821517D01*
X67129299Y-68804190D01*
X67108925Y-68790576D01*
X67086286Y-68781199D01*
X67062252Y-68776418D01*
X67037748Y-68776418D01*
X67013715Y-68781198D01*
X66991076Y-68790576D01*
X66970701Y-68804190D01*
X66953374Y-68821517D01*
X66939760Y-68841891D01*
X66930384Y-68864526D01*
X66928407Y-68871043D01*
X66904355Y-68950333D01*
X66885008Y-68986528D01*
X66843905Y-69063426D01*
X66762553Y-69162553D01*
X66663425Y-69243905D01*
X66610782Y-69272043D01*
X66550332Y-69304355D01*
X66509426Y-69316763D01*
X66427617Y-69341580D01*
X66300000Y-69354149D01*
X66172382Y-69341580D01*
X66090573Y-69316763D01*
X66049667Y-69304355D01*
X65936576Y-69243906D01*
X65936574Y-69243905D01*
X65837447Y-69162553D01*
X65756095Y-69063425D01*
X65727957Y-69010782D01*
X65695645Y-68950332D01*
X65669618Y-68864531D01*
X65660240Y-68841892D01*
X65646626Y-68821517D01*
X65629299Y-68804190D01*
X65608925Y-68790576D01*
X65586286Y-68781199D01*
X65562252Y-68776418D01*
X65537748Y-68776418D01*
X65513715Y-68781198D01*
X65491076Y-68790576D01*
X65470701Y-68804190D01*
X65453374Y-68821517D01*
X65439760Y-68841891D01*
X65430384Y-68864526D01*
X65428407Y-68871043D01*
X65404355Y-68950333D01*
X65385008Y-68986528D01*
X65343905Y-69063426D01*
X65262553Y-69162553D01*
X65163425Y-69243905D01*
X65110782Y-69272043D01*
X65050332Y-69304355D01*
X65009426Y-69316763D01*
X64927617Y-69341580D01*
X64800000Y-69354149D01*
X64672382Y-69341580D01*
X64590573Y-69316763D01*
X64549667Y-69304355D01*
X64436576Y-69243906D01*
X64436574Y-69243905D01*
X64337447Y-69162553D01*
X64256095Y-69063425D01*
X64227957Y-69010782D01*
X64195645Y-68950332D01*
X64169618Y-68864531D01*
X64160240Y-68841892D01*
X64146626Y-68821517D01*
X64129299Y-68804190D01*
X64108925Y-68790576D01*
X64086286Y-68781199D01*
X64062252Y-68776418D01*
X64037748Y-68776418D01*
X64013715Y-68781198D01*
X63991076Y-68790576D01*
X63970701Y-68804190D01*
X63953374Y-68821517D01*
X63939760Y-68841891D01*
X63930384Y-68864526D01*
X63928407Y-68871043D01*
X63904355Y-68950333D01*
X63885008Y-68986528D01*
X63843905Y-69063426D01*
X63762553Y-69162553D01*
X63663425Y-69243905D01*
X63610782Y-69272043D01*
X63550332Y-69304355D01*
X63509426Y-69316763D01*
X63427617Y-69341580D01*
X63300000Y-69354149D01*
X63172382Y-69341580D01*
X63090573Y-69316763D01*
X63049667Y-69304355D01*
X62936576Y-69243906D01*
X62936574Y-69243905D01*
X62837447Y-69162553D01*
X62756095Y-69063425D01*
X62727957Y-69010782D01*
X62695645Y-68950332D01*
X62669618Y-68864531D01*
X62658420Y-68827617D01*
X62649000Y-68731972D01*
X62649000Y-68068027D01*
X62658420Y-67972382D01*
X62688750Y-67872397D01*
X62695645Y-67849667D01*
X62756095Y-67736576D01*
X62756096Y-67736574D01*
X62837448Y-67637447D01*
X62936575Y-67556095D01*
X62949510Y-67549181D01*
X63049668Y-67495645D01*
X63090574Y-67483237D01*
X63172383Y-67458420D01*
X63300000Y-67445851D01*
X63427618Y-67458420D01*
X63509427Y-67483237D01*
X63550333Y-67495645D01*
X63650491Y-67549181D01*
X63663426Y-67556095D01*
X63762553Y-67637447D01*
X63843905Y-67736574D01*
X63843906Y-67736576D01*
X63904355Y-67849667D01*
X63911250Y-67872397D01*
X63930384Y-67935474D01*
X63939760Y-67958108D01*
X63953373Y-67978483D01*
X63970700Y-67995810D01*
X63991075Y-68009424D01*
X64013714Y-68018801D01*
X64037747Y-68023582D01*
X64062252Y-68023582D01*
X64086285Y-68018802D01*
X64108924Y-68009424D01*
X64129299Y-67995811D01*
X64146626Y-67978484D01*
X64160240Y-67958109D01*
X64169616Y-67935474D01*
X64188750Y-67872397D01*
X64195645Y-67849667D01*
X64256095Y-67736576D01*
X64256096Y-67736574D01*
X64337448Y-67637447D01*
X64436575Y-67556095D01*
X64449510Y-67549181D01*
X64549668Y-67495645D01*
X64590574Y-67483237D01*
X64672383Y-67458420D01*
X64800000Y-67445851D01*
X64927618Y-67458420D01*
X65009427Y-67483237D01*
X65050333Y-67495645D01*
X65150491Y-67549181D01*
X65163426Y-67556095D01*
X65262553Y-67637447D01*
X65343905Y-67736574D01*
X65343906Y-67736576D01*
X65404355Y-67849667D01*
X65411250Y-67872397D01*
X65430384Y-67935474D01*
X65439760Y-67958108D01*
X65453373Y-67978483D01*
X65470700Y-67995810D01*
X65491075Y-68009424D01*
X65513714Y-68018801D01*
X65537747Y-68023582D01*
X65562252Y-68023582D01*
X65586285Y-68018802D01*
X65608924Y-68009424D01*
X65629299Y-67995811D01*
X65646626Y-67978484D01*
X65660240Y-67958109D01*
X65669616Y-67935474D01*
X65688750Y-67872397D01*
X65695645Y-67849667D01*
X65756095Y-67736576D01*
X65756096Y-67736574D01*
X65837448Y-67637447D01*
X65936575Y-67556095D01*
X65949510Y-67549181D01*
X66049668Y-67495645D01*
X66090574Y-67483237D01*
X66172383Y-67458420D01*
X66300000Y-67445851D01*
X66427618Y-67458420D01*
X66509427Y-67483237D01*
X66550333Y-67495645D01*
X66650491Y-67549181D01*
X66663426Y-67556095D01*
X66762553Y-67637447D01*
X66843905Y-67736574D01*
X66843906Y-67736576D01*
X66904355Y-67849667D01*
X66911250Y-67872397D01*
X66930384Y-67935474D01*
X66939760Y-67958108D01*
X66953373Y-67978483D01*
X66970700Y-67995810D01*
X66991075Y-68009424D01*
X67013714Y-68018801D01*
X67037747Y-68023582D01*
X67062252Y-68023582D01*
X67086285Y-68018802D01*
X67108924Y-68009424D01*
X67129299Y-67995811D01*
X67146626Y-67978484D01*
X67160240Y-67958109D01*
X67169616Y-67935474D01*
X67188750Y-67872397D01*
X67195645Y-67849667D01*
X67256095Y-67736576D01*
X67256096Y-67736574D01*
X67337448Y-67637447D01*
X67436575Y-67556095D01*
X67449510Y-67549181D01*
X67549668Y-67495645D01*
X67590574Y-67483237D01*
X67672383Y-67458420D01*
X67800000Y-67445851D01*
X67927618Y-67458420D01*
X68009427Y-67483237D01*
X68050333Y-67495645D01*
X68150491Y-67549181D01*
X68163426Y-67556095D01*
X68262553Y-67637447D01*
X68343905Y-67736574D01*
X68343906Y-67736576D01*
X68404355Y-67849667D01*
X68411250Y-67872397D01*
X68430384Y-67935474D01*
X68439760Y-67958108D01*
X68453373Y-67978483D01*
X68470700Y-67995810D01*
X68491075Y-68009424D01*
X68513714Y-68018801D01*
X68537747Y-68023582D01*
X68562252Y-68023582D01*
X68586285Y-68018802D01*
X68608924Y-68009424D01*
X68629299Y-67995811D01*
X68646626Y-67978484D01*
X68660240Y-67958109D01*
X68669616Y-67935474D01*
X68688750Y-67872397D01*
X68695645Y-67849667D01*
X68756095Y-67736576D01*
X68756096Y-67736574D01*
X68837448Y-67637447D01*
X68936575Y-67556095D01*
X68949510Y-67549181D01*
X69049668Y-67495645D01*
X69090574Y-67483237D01*
X69172383Y-67458420D01*
X69300000Y-67445851D01*
X69427618Y-67458420D01*
X69427618Y-67458420D01*
G37*
G36*
X58627618Y-67458420D02*
X58709427Y-67483237D01*
X58750333Y-67495645D01*
X58850491Y-67549181D01*
X58863426Y-67556095D01*
X58962553Y-67637447D01*
X59043905Y-67736574D01*
X59043906Y-67736576D01*
X59104355Y-67849667D01*
X59104382Y-67849757D01*
X59113760Y-67872396D01*
X59127374Y-67892771D01*
X59144701Y-67910098D01*
X59165075Y-67923712D01*
X59187714Y-67933089D01*
X59211748Y-67937870D01*
X59236252Y-67937870D01*
X59260285Y-67933090D01*
X59282924Y-67923712D01*
X59303299Y-67910098D01*
X59320626Y-67892771D01*
X59334240Y-67872397D01*
X59343617Y-67849758D01*
X59348398Y-67825724D01*
X59349000Y-67813472D01*
X59349000Y-67449000D01*
X60651000Y-67449000D01*
X60651000Y-69351000D01*
X59349000Y-69351000D01*
X59349000Y-68986528D01*
X59346598Y-68962142D01*
X59339485Y-68938693D01*
X59327934Y-68917082D01*
X59312388Y-68898140D01*
X59293446Y-68882594D01*
X59271835Y-68871043D01*
X59248386Y-68863930D01*
X59224000Y-68861528D01*
X59199614Y-68863930D01*
X59176165Y-68871043D01*
X59154554Y-68882594D01*
X59135612Y-68898140D01*
X59120066Y-68917082D01*
X59108515Y-68938693D01*
X59104382Y-68950243D01*
X59104355Y-68950333D01*
X59085008Y-68986528D01*
X59043905Y-69063426D01*
X58962553Y-69162553D01*
X58863425Y-69243905D01*
X58810782Y-69272043D01*
X58750332Y-69304355D01*
X58709426Y-69316763D01*
X58627617Y-69341580D01*
X58500000Y-69354149D01*
X58372382Y-69341580D01*
X58290573Y-69316763D01*
X58249667Y-69304355D01*
X58136576Y-69243906D01*
X58136574Y-69243905D01*
X58037447Y-69162553D01*
X57956095Y-69063425D01*
X57927957Y-69010782D01*
X57895645Y-68950332D01*
X57869618Y-68864531D01*
X57860240Y-68841892D01*
X57846626Y-68821517D01*
X57829299Y-68804190D01*
X57808925Y-68790576D01*
X57786286Y-68781199D01*
X57762252Y-68776418D01*
X57737748Y-68776418D01*
X57713715Y-68781198D01*
X57691076Y-68790576D01*
X57670701Y-68804190D01*
X57653374Y-68821517D01*
X57639760Y-68841891D01*
X57630384Y-68864526D01*
X57628407Y-68871043D01*
X57604355Y-68950333D01*
X57585008Y-68986528D01*
X57543905Y-69063426D01*
X57462553Y-69162553D01*
X57363425Y-69243905D01*
X57310782Y-69272043D01*
X57250332Y-69304355D01*
X57209426Y-69316763D01*
X57127617Y-69341580D01*
X57000000Y-69354149D01*
X56872382Y-69341580D01*
X56790573Y-69316763D01*
X56749667Y-69304355D01*
X56636576Y-69243906D01*
X56636574Y-69243905D01*
X56537447Y-69162553D01*
X56456095Y-69063425D01*
X56427957Y-69010782D01*
X56395645Y-68950332D01*
X56369618Y-68864531D01*
X56360240Y-68841892D01*
X56346626Y-68821517D01*
X56329299Y-68804190D01*
X56308925Y-68790576D01*
X56286286Y-68781199D01*
X56262252Y-68776418D01*
X56237748Y-68776418D01*
X56213715Y-68781198D01*
X56191076Y-68790576D01*
X56170701Y-68804190D01*
X56153374Y-68821517D01*
X56139760Y-68841891D01*
X56130384Y-68864526D01*
X56128407Y-68871043D01*
X56104355Y-68950333D01*
X56085008Y-68986528D01*
X56043905Y-69063426D01*
X55962553Y-69162553D01*
X55863425Y-69243905D01*
X55810782Y-69272043D01*
X55750332Y-69304355D01*
X55709426Y-69316763D01*
X55627617Y-69341580D01*
X55500000Y-69354149D01*
X55372382Y-69341580D01*
X55290573Y-69316763D01*
X55249667Y-69304355D01*
X55136576Y-69243906D01*
X55136574Y-69243905D01*
X55037447Y-69162553D01*
X54956095Y-69063425D01*
X54927957Y-69010782D01*
X54895645Y-68950332D01*
X54869618Y-68864531D01*
X54860240Y-68841892D01*
X54846626Y-68821517D01*
X54829299Y-68804190D01*
X54808925Y-68790576D01*
X54786286Y-68781199D01*
X54762252Y-68776418D01*
X54737748Y-68776418D01*
X54713715Y-68781198D01*
X54691076Y-68790576D01*
X54670701Y-68804190D01*
X54653374Y-68821517D01*
X54639760Y-68841891D01*
X54630384Y-68864526D01*
X54628407Y-68871043D01*
X54604355Y-68950333D01*
X54585008Y-68986528D01*
X54543905Y-69063426D01*
X54462553Y-69162553D01*
X54363425Y-69243905D01*
X54310782Y-69272043D01*
X54250332Y-69304355D01*
X54209426Y-69316763D01*
X54127617Y-69341580D01*
X54000000Y-69354149D01*
X53872382Y-69341580D01*
X53790573Y-69316763D01*
X53749667Y-69304355D01*
X53636576Y-69243906D01*
X53636574Y-69243905D01*
X53537447Y-69162553D01*
X53456095Y-69063425D01*
X53427957Y-69010782D01*
X53395645Y-68950332D01*
X53369618Y-68864531D01*
X53360240Y-68841892D01*
X53346626Y-68821517D01*
X53329299Y-68804190D01*
X53308925Y-68790576D01*
X53286286Y-68781199D01*
X53262252Y-68776418D01*
X53237748Y-68776418D01*
X53213715Y-68781198D01*
X53191076Y-68790576D01*
X53170701Y-68804190D01*
X53153374Y-68821517D01*
X53139760Y-68841891D01*
X53130384Y-68864526D01*
X53128407Y-68871043D01*
X53104355Y-68950333D01*
X53085008Y-68986528D01*
X53043905Y-69063426D01*
X52962553Y-69162553D01*
X52863425Y-69243905D01*
X52810782Y-69272043D01*
X52750332Y-69304355D01*
X52709426Y-69316763D01*
X52627617Y-69341580D01*
X52500000Y-69354149D01*
X52372382Y-69341580D01*
X52290573Y-69316763D01*
X52249667Y-69304355D01*
X52136576Y-69243906D01*
X52136574Y-69243905D01*
X52037447Y-69162553D01*
X51956095Y-69063425D01*
X51927957Y-69010782D01*
X51895645Y-68950332D01*
X51869618Y-68864531D01*
X51858420Y-68827617D01*
X51849000Y-68731972D01*
X51849000Y-68068027D01*
X51858420Y-67972382D01*
X51888750Y-67872397D01*
X51895645Y-67849667D01*
X51956095Y-67736576D01*
X51956096Y-67736574D01*
X52037448Y-67637447D01*
X52136575Y-67556095D01*
X52149510Y-67549181D01*
X52249668Y-67495645D01*
X52290574Y-67483237D01*
X52372383Y-67458420D01*
X52500000Y-67445851D01*
X52627618Y-67458420D01*
X52709427Y-67483237D01*
X52750333Y-67495645D01*
X52850491Y-67549181D01*
X52863426Y-67556095D01*
X52962553Y-67637447D01*
X53043905Y-67736574D01*
X53043906Y-67736576D01*
X53104355Y-67849667D01*
X53111250Y-67872397D01*
X53130384Y-67935474D01*
X53139760Y-67958108D01*
X53153373Y-67978483D01*
X53170700Y-67995810D01*
X53191075Y-68009424D01*
X53213714Y-68018801D01*
X53237747Y-68023582D01*
X53262252Y-68023582D01*
X53286285Y-68018802D01*
X53308924Y-68009424D01*
X53329299Y-67995811D01*
X53346626Y-67978484D01*
X53360240Y-67958109D01*
X53369616Y-67935474D01*
X53388750Y-67872397D01*
X53395645Y-67849667D01*
X53456095Y-67736576D01*
X53456096Y-67736574D01*
X53537448Y-67637447D01*
X53636575Y-67556095D01*
X53649510Y-67549181D01*
X53749668Y-67495645D01*
X53790574Y-67483237D01*
X53872383Y-67458420D01*
X54000000Y-67445851D01*
X54127618Y-67458420D01*
X54209427Y-67483237D01*
X54250333Y-67495645D01*
X54350491Y-67549181D01*
X54363426Y-67556095D01*
X54462553Y-67637447D01*
X54543905Y-67736574D01*
X54543906Y-67736576D01*
X54604355Y-67849667D01*
X54611250Y-67872397D01*
X54630384Y-67935474D01*
X54639760Y-67958108D01*
X54653373Y-67978483D01*
X54670700Y-67995810D01*
X54691075Y-68009424D01*
X54713714Y-68018801D01*
X54737747Y-68023582D01*
X54762252Y-68023582D01*
X54786285Y-68018802D01*
X54808924Y-68009424D01*
X54829299Y-67995811D01*
X54846626Y-67978484D01*
X54860240Y-67958109D01*
X54869616Y-67935474D01*
X54888750Y-67872397D01*
X54895645Y-67849667D01*
X54956095Y-67736576D01*
X54956096Y-67736574D01*
X55037448Y-67637447D01*
X55136575Y-67556095D01*
X55149510Y-67549181D01*
X55249668Y-67495645D01*
X55290574Y-67483237D01*
X55372383Y-67458420D01*
X55500000Y-67445851D01*
X55627618Y-67458420D01*
X55709427Y-67483237D01*
X55750333Y-67495645D01*
X55850491Y-67549181D01*
X55863426Y-67556095D01*
X55962553Y-67637447D01*
X56043905Y-67736574D01*
X56043906Y-67736576D01*
X56104355Y-67849667D01*
X56111250Y-67872397D01*
X56130384Y-67935474D01*
X56139760Y-67958108D01*
X56153373Y-67978483D01*
X56170700Y-67995810D01*
X56191075Y-68009424D01*
X56213714Y-68018801D01*
X56237747Y-68023582D01*
X56262252Y-68023582D01*
X56286285Y-68018802D01*
X56308924Y-68009424D01*
X56329299Y-67995811D01*
X56346626Y-67978484D01*
X56360240Y-67958109D01*
X56369616Y-67935474D01*
X56388750Y-67872397D01*
X56395645Y-67849667D01*
X56456095Y-67736576D01*
X56456096Y-67736574D01*
X56537448Y-67637447D01*
X56636575Y-67556095D01*
X56649510Y-67549181D01*
X56749668Y-67495645D01*
X56790574Y-67483237D01*
X56872383Y-67458420D01*
X57000000Y-67445851D01*
X57127618Y-67458420D01*
X57209427Y-67483237D01*
X57250333Y-67495645D01*
X57350491Y-67549181D01*
X57363426Y-67556095D01*
X57462553Y-67637447D01*
X57543905Y-67736574D01*
X57543906Y-67736576D01*
X57604355Y-67849667D01*
X57611250Y-67872397D01*
X57630384Y-67935474D01*
X57639760Y-67958108D01*
X57653373Y-67978483D01*
X57670700Y-67995810D01*
X57691075Y-68009424D01*
X57713714Y-68018801D01*
X57737747Y-68023582D01*
X57762252Y-68023582D01*
X57786285Y-68018802D01*
X57808924Y-68009424D01*
X57829299Y-67995811D01*
X57846626Y-67978484D01*
X57860240Y-67958109D01*
X57869616Y-67935474D01*
X57888750Y-67872397D01*
X57895645Y-67849667D01*
X57956095Y-67736576D01*
X57956096Y-67736574D01*
X58037448Y-67637447D01*
X58136575Y-67556095D01*
X58149510Y-67549181D01*
X58249668Y-67495645D01*
X58290574Y-67483237D01*
X58372383Y-67458420D01*
X58500000Y-67445851D01*
X58627618Y-67458420D01*
X58627618Y-67458420D01*
G37*
G36*
X87950316Y-63845153D02*
X87950318Y-63845154D01*
X87950319Y-63845154D01*
X88031056Y-63878597D01*
X88168888Y-63935688D01*
X88267576Y-64001629D01*
X88365593Y-64067122D01*
X88532878Y-64234407D01*
X88598371Y-64332424D01*
X88664312Y-64431112D01*
X88754847Y-64649684D01*
X88801000Y-64881710D01*
X88801000Y-65118290D01*
X88754847Y-65350316D01*
X88664312Y-65568888D01*
X88598371Y-65667576D01*
X88532878Y-65765593D01*
X88365593Y-65932878D01*
X88267576Y-65998371D01*
X88168888Y-66064312D01*
X88031056Y-66121403D01*
X87950319Y-66154846D01*
X87950318Y-66154846D01*
X87950316Y-66154847D01*
X87718290Y-66201000D01*
X87481710Y-66201000D01*
X87249684Y-66154847D01*
X87249682Y-66154846D01*
X87249681Y-66154846D01*
X87168944Y-66121403D01*
X87031112Y-66064312D01*
X86932424Y-65998371D01*
X86834407Y-65932878D01*
X86667122Y-65765593D01*
X86601629Y-65667576D01*
X86535688Y-65568888D01*
X86445153Y-65350316D01*
X86399000Y-65118290D01*
X86399000Y-64881710D01*
X86445153Y-64649684D01*
X86535688Y-64431112D01*
X86601629Y-64332424D01*
X86667122Y-64234407D01*
X86834407Y-64067122D01*
X86932424Y-64001629D01*
X87031112Y-63935688D01*
X87168944Y-63878597D01*
X87249681Y-63845154D01*
X87249682Y-63845154D01*
X87249684Y-63845153D01*
X87481710Y-63799000D01*
X87718290Y-63799000D01*
X87950316Y-63845153D01*
X87950316Y-63845153D01*
G37*
G36*
X98308015Y-60506973D02*
X98411879Y-60538479D01*
X98507600Y-60589644D01*
X98591501Y-60658499D01*
X98660356Y-60742400D01*
X98711521Y-60838121D01*
X98743027Y-60941985D01*
X98751000Y-61022933D01*
X98751000Y-62577067D01*
X98743027Y-62658015D01*
X98711521Y-62761879D01*
X98660356Y-62857600D01*
X98591501Y-62941501D01*
X98507600Y-63010356D01*
X98411878Y-63061521D01*
X98308014Y-63093027D01*
X98200000Y-63103666D01*
X98091985Y-63093027D01*
X97988121Y-63061521D01*
X97892400Y-63010356D01*
X97808499Y-62941501D01*
X97739644Y-62857600D01*
X97688479Y-62761878D01*
X97656973Y-62658014D01*
X97649000Y-62577066D01*
X97649001Y-61022933D01*
X97656974Y-60941985D01*
X97688480Y-60838121D01*
X97739645Y-60742400D01*
X97808500Y-60658499D01*
X97892401Y-60589644D01*
X97988122Y-60538479D01*
X98091986Y-60506973D01*
X98200000Y-60496334D01*
X98308015Y-60506973D01*
X98308015Y-60506973D01*
G37*
G36*
X94008015Y-59006973D02*
X94111879Y-59038479D01*
X94207600Y-59089644D01*
X94291501Y-59158499D01*
X94360356Y-59242400D01*
X94411521Y-59338121D01*
X94443027Y-59441985D01*
X94451000Y-59522933D01*
X94451000Y-61077067D01*
X94443027Y-61158015D01*
X94411521Y-61261879D01*
X94360356Y-61357600D01*
X94291501Y-61441501D01*
X94207600Y-61510356D01*
X94111878Y-61561521D01*
X94008014Y-61593027D01*
X93900000Y-61603666D01*
X93791985Y-61593027D01*
X93688121Y-61561521D01*
X93592400Y-61510356D01*
X93508499Y-61441501D01*
X93439644Y-61357600D01*
X93388479Y-61261878D01*
X93356973Y-61158014D01*
X93349000Y-61077066D01*
X93349001Y-59522933D01*
X93356974Y-59441985D01*
X93388480Y-59338121D01*
X93439645Y-59242400D01*
X93508500Y-59158499D01*
X93592401Y-59089644D01*
X93688122Y-59038479D01*
X93791986Y-59006973D01*
X93900000Y-58996334D01*
X94008015Y-59006973D01*
X94008015Y-59006973D01*
G37*
G36*
X87950316Y-58945153D02*
X87950318Y-58945154D01*
X87950319Y-58945154D01*
X88031056Y-58978597D01*
X88168888Y-59035688D01*
X88249640Y-59089645D01*
X88365593Y-59167122D01*
X88532878Y-59334407D01*
X88598371Y-59432424D01*
X88664312Y-59531112D01*
X88664312Y-59531113D01*
X88754846Y-59749681D01*
X88801000Y-59981712D01*
X88801000Y-60218288D01*
X88754846Y-60450319D01*
X88731379Y-60506973D01*
X88664312Y-60668888D01*
X88598371Y-60767576D01*
X88532878Y-60865593D01*
X88365593Y-61032878D01*
X88299459Y-61077067D01*
X88168888Y-61164312D01*
X88031056Y-61221403D01*
X87950319Y-61254846D01*
X87950318Y-61254846D01*
X87950316Y-61254847D01*
X87718290Y-61301000D01*
X87481710Y-61301000D01*
X87249684Y-61254847D01*
X87249682Y-61254846D01*
X87249681Y-61254846D01*
X87168944Y-61221403D01*
X87031112Y-61164312D01*
X86900541Y-61077067D01*
X86834407Y-61032878D01*
X86667122Y-60865593D01*
X86601629Y-60767576D01*
X86535688Y-60668888D01*
X86468621Y-60506973D01*
X86445154Y-60450319D01*
X86399000Y-60218288D01*
X86399000Y-59981712D01*
X86445154Y-59749681D01*
X86535688Y-59531113D01*
X86535688Y-59531112D01*
X86601629Y-59432424D01*
X86667122Y-59334407D01*
X86834407Y-59167122D01*
X86950360Y-59089645D01*
X87031112Y-59035688D01*
X87168944Y-58978597D01*
X87249681Y-58945154D01*
X87249682Y-58945154D01*
X87249684Y-58945153D01*
X87481710Y-58899000D01*
X87718290Y-58899000D01*
X87950316Y-58945153D01*
X87950316Y-58945153D01*
G37*
G36*
X96289890Y-57874017D02*
X96408361Y-57923089D01*
X96514992Y-57994338D01*
X96605662Y-58085008D01*
X96676911Y-58191639D01*
X96725983Y-58310110D01*
X96751000Y-58435881D01*
X96751000Y-58564119D01*
X96725983Y-58689890D01*
X96676911Y-58808361D01*
X96605662Y-58914992D01*
X96514992Y-59005662D01*
X96408361Y-59076911D01*
X96289890Y-59125983D01*
X96164119Y-59151000D01*
X96035881Y-59151000D01*
X95910110Y-59125983D01*
X95791639Y-59076911D01*
X95685008Y-59005662D01*
X95594338Y-58914992D01*
X95523089Y-58808361D01*
X95474017Y-58689890D01*
X95449000Y-58564119D01*
X95449000Y-58435881D01*
X95474017Y-58310110D01*
X95523089Y-58191639D01*
X95594338Y-58085008D01*
X95685008Y-57994338D01*
X95791639Y-57923089D01*
X95910110Y-57874017D01*
X96035881Y-57849000D01*
X96164119Y-57849000D01*
X96289890Y-57874017D01*
X96289890Y-57874017D01*
G37*
G36*
X94008015Y-55006973D02*
X94111879Y-55038479D01*
X94207600Y-55089644D01*
X94291501Y-55158499D01*
X94360356Y-55242400D01*
X94411521Y-55338121D01*
X94443027Y-55441985D01*
X94451000Y-55522933D01*
X94451000Y-57077067D01*
X94443027Y-57158015D01*
X94411521Y-57261879D01*
X94360356Y-57357600D01*
X94291501Y-57441501D01*
X94207600Y-57510356D01*
X94111878Y-57561521D01*
X94008014Y-57593027D01*
X93900000Y-57603666D01*
X93791985Y-57593027D01*
X93688121Y-57561521D01*
X93592400Y-57510356D01*
X93508499Y-57441501D01*
X93439644Y-57357600D01*
X93388479Y-57261878D01*
X93356973Y-57158014D01*
X93349000Y-57077066D01*
X93349001Y-55522933D01*
X93356974Y-55441985D01*
X93388480Y-55338121D01*
X93439645Y-55242400D01*
X93508500Y-55158499D01*
X93592401Y-55089644D01*
X93688122Y-55038479D01*
X93791986Y-55006973D01*
X93900000Y-54996334D01*
X94008015Y-55006973D01*
X94008015Y-55006973D01*
G37*
G36*
X86130443Y-53605519D02*
X86196627Y-53612037D01*
X86309853Y-53646384D01*
X86366467Y-53663557D01*
X86505087Y-53737652D01*
X86522991Y-53747222D01*
X86558729Y-53776552D01*
X86660186Y-53859814D01*
X86743448Y-53961271D01*
X86772778Y-53997009D01*
X86772779Y-53997011D01*
X86856443Y-54153533D01*
X86863582Y-54177067D01*
X86907963Y-54323373D01*
X86925359Y-54500000D01*
X86907963Y-54676627D01*
X86873616Y-54789853D01*
X86856443Y-54846467D01*
X86782348Y-54985087D01*
X86772778Y-55002991D01*
X86743654Y-55038479D01*
X86660186Y-55140186D01*
X86558729Y-55223448D01*
X86522991Y-55252778D01*
X86522989Y-55252779D01*
X86366467Y-55336443D01*
X86309853Y-55353616D01*
X86196627Y-55387963D01*
X86130443Y-55394481D01*
X86064260Y-55401000D01*
X85975740Y-55401000D01*
X85909557Y-55394481D01*
X85843373Y-55387963D01*
X85730147Y-55353616D01*
X85673533Y-55336443D01*
X85517011Y-55252779D01*
X85517009Y-55252778D01*
X85481271Y-55223448D01*
X85379814Y-55140186D01*
X85296346Y-55038479D01*
X85267222Y-55002991D01*
X85257652Y-54985087D01*
X85183557Y-54846467D01*
X85166384Y-54789853D01*
X85132037Y-54676627D01*
X85114641Y-54500000D01*
X85132037Y-54323373D01*
X85176418Y-54177067D01*
X85183557Y-54153533D01*
X85267221Y-53997011D01*
X85267222Y-53997009D01*
X85296552Y-53961271D01*
X85379814Y-53859814D01*
X85481271Y-53776552D01*
X85517009Y-53747222D01*
X85534913Y-53737652D01*
X85673533Y-53663557D01*
X85730147Y-53646384D01*
X85843373Y-53612037D01*
X85909557Y-53605519D01*
X85975740Y-53599000D01*
X86064260Y-53599000D01*
X86130443Y-53605519D01*
X86130443Y-53605519D01*
G37*
G36*
X92001000Y-55401000D02*
X90199000Y-55401000D01*
X90199000Y-53599000D01*
X92001000Y-53599000D01*
X92001000Y-55401000D01*
X92001000Y-55401000D01*
G37*
G36*
X88670443Y-53605519D02*
X88736627Y-53612037D01*
X88849853Y-53646384D01*
X88906467Y-53663557D01*
X89045087Y-53737652D01*
X89062991Y-53747222D01*
X89098729Y-53776552D01*
X89200186Y-53859814D01*
X89283448Y-53961271D01*
X89312778Y-53997009D01*
X89312779Y-53997011D01*
X89396443Y-54153533D01*
X89403582Y-54177067D01*
X89447963Y-54323373D01*
X89465359Y-54500000D01*
X89447963Y-54676627D01*
X89413616Y-54789853D01*
X89396443Y-54846467D01*
X89322348Y-54985087D01*
X89312778Y-55002991D01*
X89283654Y-55038479D01*
X89200186Y-55140186D01*
X89098729Y-55223448D01*
X89062991Y-55252778D01*
X89062989Y-55252779D01*
X88906467Y-55336443D01*
X88849853Y-55353616D01*
X88736627Y-55387963D01*
X88670443Y-55394481D01*
X88604260Y-55401000D01*
X88515740Y-55401000D01*
X88449557Y-55394481D01*
X88383373Y-55387963D01*
X88270147Y-55353616D01*
X88213533Y-55336443D01*
X88057011Y-55252779D01*
X88057009Y-55252778D01*
X88021271Y-55223448D01*
X87919814Y-55140186D01*
X87836346Y-55038479D01*
X87807222Y-55002991D01*
X87797652Y-54985087D01*
X87723557Y-54846467D01*
X87706384Y-54789853D01*
X87672037Y-54676627D01*
X87654641Y-54500000D01*
X87672037Y-54323373D01*
X87716418Y-54177067D01*
X87723557Y-54153533D01*
X87807221Y-53997011D01*
X87807222Y-53997009D01*
X87836552Y-53961271D01*
X87919814Y-53859814D01*
X88021271Y-53776552D01*
X88057009Y-53747222D01*
X88074913Y-53737652D01*
X88213533Y-53663557D01*
X88270147Y-53646384D01*
X88383373Y-53612037D01*
X88449557Y-53605519D01*
X88515740Y-53599000D01*
X88604260Y-53599000D01*
X88670443Y-53605519D01*
X88670443Y-53605519D01*
G37*
G36*
X94008015Y-51906973D02*
X94111879Y-51938479D01*
X94207600Y-51989644D01*
X94291501Y-52058499D01*
X94360356Y-52142400D01*
X94411521Y-52238121D01*
X94443027Y-52341985D01*
X94451000Y-52422933D01*
X94451000Y-54177067D01*
X94443027Y-54258015D01*
X94411521Y-54361879D01*
X94360356Y-54457600D01*
X94291501Y-54541501D01*
X94207600Y-54610356D01*
X94111878Y-54661521D01*
X94008014Y-54693027D01*
X93900000Y-54703666D01*
X93791985Y-54693027D01*
X93688121Y-54661521D01*
X93592400Y-54610356D01*
X93508499Y-54541501D01*
X93439644Y-54457600D01*
X93388479Y-54361878D01*
X93356973Y-54258014D01*
X93349000Y-54177066D01*
X93349001Y-52422933D01*
X93356974Y-52341985D01*
X93388480Y-52238121D01*
X93439645Y-52142400D01*
X93508500Y-52058499D01*
X93592401Y-51989644D01*
X93688122Y-51938479D01*
X93791986Y-51906973D01*
X93900000Y-51896334D01*
X94008015Y-51906973D01*
X94008015Y-51906973D01*
G37*
G36*
X91210442Y-51065518D02*
X91276627Y-51072037D01*
X91389853Y-51106384D01*
X91446467Y-51123557D01*
X91585087Y-51197652D01*
X91602991Y-51207222D01*
X91638729Y-51236552D01*
X91740186Y-51319814D01*
X91823448Y-51421271D01*
X91852778Y-51457009D01*
X91852779Y-51457011D01*
X91936443Y-51613533D01*
X91936443Y-51613534D01*
X91987963Y-51783373D01*
X92005359Y-51960000D01*
X91987963Y-52136627D01*
X91957175Y-52238121D01*
X91936443Y-52306467D01*
X91874190Y-52422933D01*
X91852778Y-52462991D01*
X91823448Y-52498729D01*
X91740186Y-52600186D01*
X91638729Y-52683448D01*
X91602991Y-52712778D01*
X91602989Y-52712779D01*
X91446467Y-52796443D01*
X91389853Y-52813616D01*
X91276627Y-52847963D01*
X91210442Y-52854482D01*
X91144260Y-52861000D01*
X91055740Y-52861000D01*
X90989558Y-52854482D01*
X90923373Y-52847963D01*
X90810147Y-52813616D01*
X90753533Y-52796443D01*
X90597011Y-52712779D01*
X90597009Y-52712778D01*
X90561271Y-52683448D01*
X90459814Y-52600186D01*
X90376552Y-52498729D01*
X90347222Y-52462991D01*
X90325810Y-52422933D01*
X90263557Y-52306467D01*
X90242825Y-52238121D01*
X90212037Y-52136627D01*
X90194641Y-51960000D01*
X90212037Y-51783373D01*
X90263557Y-51613534D01*
X90263557Y-51613533D01*
X90347221Y-51457011D01*
X90347222Y-51457009D01*
X90376552Y-51421271D01*
X90459814Y-51319814D01*
X90561271Y-51236552D01*
X90597009Y-51207222D01*
X90614913Y-51197652D01*
X90753533Y-51123557D01*
X90810147Y-51106384D01*
X90923373Y-51072037D01*
X90989557Y-51065519D01*
X91055740Y-51059000D01*
X91144260Y-51059000D01*
X91210442Y-51065518D01*
X91210442Y-51065518D01*
G37*
G36*
X86130442Y-51065518D02*
X86196627Y-51072037D01*
X86309853Y-51106384D01*
X86366467Y-51123557D01*
X86505087Y-51197652D01*
X86522991Y-51207222D01*
X86558729Y-51236552D01*
X86660186Y-51319814D01*
X86743448Y-51421271D01*
X86772778Y-51457009D01*
X86772779Y-51457011D01*
X86856443Y-51613533D01*
X86856443Y-51613534D01*
X86907963Y-51783373D01*
X86925359Y-51960000D01*
X86907963Y-52136627D01*
X86877175Y-52238121D01*
X86856443Y-52306467D01*
X86794190Y-52422933D01*
X86772778Y-52462991D01*
X86743448Y-52498729D01*
X86660186Y-52600186D01*
X86558729Y-52683448D01*
X86522991Y-52712778D01*
X86522989Y-52712779D01*
X86366467Y-52796443D01*
X86309853Y-52813616D01*
X86196627Y-52847963D01*
X86130442Y-52854482D01*
X86064260Y-52861000D01*
X85975740Y-52861000D01*
X85909558Y-52854482D01*
X85843373Y-52847963D01*
X85730147Y-52813616D01*
X85673533Y-52796443D01*
X85517011Y-52712779D01*
X85517009Y-52712778D01*
X85481271Y-52683448D01*
X85379814Y-52600186D01*
X85296552Y-52498729D01*
X85267222Y-52462991D01*
X85245810Y-52422933D01*
X85183557Y-52306467D01*
X85162825Y-52238121D01*
X85132037Y-52136627D01*
X85114641Y-51960000D01*
X85132037Y-51783373D01*
X85183557Y-51613534D01*
X85183557Y-51613533D01*
X85267221Y-51457011D01*
X85267222Y-51457009D01*
X85296552Y-51421271D01*
X85379814Y-51319814D01*
X85481271Y-51236552D01*
X85517009Y-51207222D01*
X85534913Y-51197652D01*
X85673533Y-51123557D01*
X85730147Y-51106384D01*
X85843373Y-51072037D01*
X85909557Y-51065519D01*
X85975740Y-51059000D01*
X86064260Y-51059000D01*
X86130442Y-51065518D01*
X86130442Y-51065518D01*
G37*
G36*
X88670442Y-51065518D02*
X88736627Y-51072037D01*
X88849853Y-51106384D01*
X88906467Y-51123557D01*
X89045087Y-51197652D01*
X89062991Y-51207222D01*
X89098729Y-51236552D01*
X89200186Y-51319814D01*
X89283448Y-51421271D01*
X89312778Y-51457009D01*
X89312779Y-51457011D01*
X89396443Y-51613533D01*
X89396443Y-51613534D01*
X89447963Y-51783373D01*
X89465359Y-51960000D01*
X89447963Y-52136627D01*
X89417175Y-52238121D01*
X89396443Y-52306467D01*
X89334190Y-52422933D01*
X89312778Y-52462991D01*
X89283448Y-52498729D01*
X89200186Y-52600186D01*
X89098729Y-52683448D01*
X89062991Y-52712778D01*
X89062989Y-52712779D01*
X88906467Y-52796443D01*
X88849853Y-52813616D01*
X88736627Y-52847963D01*
X88670442Y-52854482D01*
X88604260Y-52861000D01*
X88515740Y-52861000D01*
X88449558Y-52854482D01*
X88383373Y-52847963D01*
X88270147Y-52813616D01*
X88213533Y-52796443D01*
X88057011Y-52712779D01*
X88057009Y-52712778D01*
X88021271Y-52683448D01*
X87919814Y-52600186D01*
X87836552Y-52498729D01*
X87807222Y-52462991D01*
X87785810Y-52422933D01*
X87723557Y-52306467D01*
X87702825Y-52238121D01*
X87672037Y-52136627D01*
X87654641Y-51960000D01*
X87672037Y-51783373D01*
X87723557Y-51613534D01*
X87723557Y-51613533D01*
X87807221Y-51457011D01*
X87807222Y-51457009D01*
X87836552Y-51421271D01*
X87919814Y-51319814D01*
X88021271Y-51236552D01*
X88057009Y-51207222D01*
X88074913Y-51197652D01*
X88213533Y-51123557D01*
X88270147Y-51106384D01*
X88383373Y-51072037D01*
X88449557Y-51065519D01*
X88515740Y-51059000D01*
X88604260Y-51059000D01*
X88670442Y-51065518D01*
X88670442Y-51065518D01*
G37*
G36*
X96289890Y-50874017D02*
X96408361Y-50923089D01*
X96514992Y-50994338D01*
X96605662Y-51085008D01*
X96676911Y-51191639D01*
X96725983Y-51310110D01*
X96751000Y-51435881D01*
X96751000Y-51564119D01*
X96725983Y-51689890D01*
X96676911Y-51808361D01*
X96676909Y-51808364D01*
X96618129Y-51896335D01*
X96605662Y-51914992D01*
X96514992Y-52005662D01*
X96408361Y-52076911D01*
X96289890Y-52125983D01*
X96164119Y-52151000D01*
X96035881Y-52151000D01*
X95910110Y-52125983D01*
X95791639Y-52076911D01*
X95685008Y-52005662D01*
X95594338Y-51914992D01*
X95581872Y-51896335D01*
X95523091Y-51808364D01*
X95523089Y-51808361D01*
X95474017Y-51689890D01*
X95449000Y-51564119D01*
X95449000Y-51435881D01*
X95474017Y-51310110D01*
X95523089Y-51191639D01*
X95594338Y-51085008D01*
X95685008Y-50994338D01*
X95791639Y-50923089D01*
X95910110Y-50874017D01*
X96035881Y-50849000D01*
X96164119Y-50849000D01*
X96289890Y-50874017D01*
X96289890Y-50874017D01*
G37*
M02*
