G04 #@! TF.GenerationSoftware,KiCad,Pcbnew,(5.0.2)-1*
G04 #@! TF.CreationDate,2020-04-01T00:19:12+09:00*
G04 #@! TF.ProjectId,eckeyboard,65636b65-7962-46f6-9172-642e6b696361,rev?*
G04 #@! TF.SameCoordinates,Original*
G04 #@! TF.FileFunction,Legend,Bot*
G04 #@! TF.FilePolarity,Positive*
%FSLAX46Y46*%
G04 Gerber Fmt 4.6, Leading zero omitted, Abs format (unit mm)*
G04 Created by KiCad (PCBNEW (5.0.2)-1) date 2020/04/01 0:19:12*
%MOMM*%
%LPD*%
G01*
G04 APERTURE LIST*
%ADD10C,0.150000*%
%ADD11C,0.120000*%
%ADD12C,0.075000*%
G04 APERTURE END LIST*
D10*
G04 #@! TO.C,C11*
X124850000Y-127615207D02*
X124850000Y-126815207D01*
X126450000Y-127615207D02*
X124850000Y-127615207D01*
X126450000Y-126815207D02*
X126450000Y-127615207D01*
X124850000Y-126815207D02*
X126450000Y-126815207D01*
G04 #@! TO.C,C2*
X80300000Y-132850000D02*
X80300000Y-131250000D01*
X80300000Y-131250000D02*
X81100000Y-131250000D01*
X81100000Y-131250000D02*
X81100000Y-132850000D01*
X81100000Y-132850000D02*
X80300000Y-132850000D01*
G04 #@! TO.C,C3*
X106500000Y-129958348D02*
X107300000Y-129958348D01*
X106500000Y-131558348D02*
X106500000Y-129958348D01*
X107300000Y-131558348D02*
X106500000Y-131558348D01*
X107300000Y-129958348D02*
X107300000Y-131558348D01*
G04 #@! TO.C,C5*
X149650000Y-133150000D02*
X149650000Y-131550000D01*
X149650000Y-131550000D02*
X150450000Y-131550000D01*
X150450000Y-131550000D02*
X150450000Y-133150000D01*
X150450000Y-133150000D02*
X149650000Y-133150000D01*
G04 #@! TO.C,C6*
X163550000Y-120500000D02*
X164350000Y-120500000D01*
X163550000Y-122100000D02*
X163550000Y-120500000D01*
X164350000Y-122100000D02*
X163550000Y-122100000D01*
X164350000Y-120500000D02*
X164350000Y-122100000D01*
G04 #@! TO.C,C7*
X166350000Y-120500000D02*
X167150000Y-120500000D01*
X166350000Y-122100000D02*
X166350000Y-120500000D01*
X167150000Y-122100000D02*
X166350000Y-122100000D01*
X167150000Y-120500000D02*
X167150000Y-122100000D01*
G04 #@! TO.C,C8*
X133650000Y-132300000D02*
X133650000Y-130700000D01*
X133650000Y-130700000D02*
X134450000Y-130700000D01*
X134450000Y-130700000D02*
X134450000Y-132300000D01*
X134450000Y-132300000D02*
X133650000Y-132300000D01*
G04 #@! TO.C,C9*
X134500000Y-126300000D02*
X134500000Y-127900000D01*
X134500000Y-127900000D02*
X133700000Y-127900000D01*
X133700000Y-127900000D02*
X133700000Y-126300000D01*
X133700000Y-126300000D02*
X134500000Y-126300000D01*
G04 #@! TO.C,C10*
X118915063Y-118065207D02*
X118915063Y-116465207D01*
X118915063Y-116465207D02*
X119715063Y-116465207D01*
X119715063Y-116465207D02*
X119715063Y-118065207D01*
X119715063Y-118065207D02*
X118915063Y-118065207D01*
G04 #@! TO.C,C12*
X124850000Y-125715207D02*
X126450000Y-125715207D01*
X126450000Y-125715207D02*
X126450000Y-126515207D01*
X126450000Y-126515207D02*
X124850000Y-126515207D01*
X124850000Y-126515207D02*
X124850000Y-125715207D01*
G04 #@! TO.C,C13*
X123886416Y-118782178D02*
X122286416Y-118782178D01*
X122286416Y-118782178D02*
X122286416Y-117982178D01*
X122286416Y-117982178D02*
X123886416Y-117982178D01*
X123886416Y-117982178D02*
X123886416Y-118782178D01*
G04 #@! TO.C,C14*
X123901623Y-116717115D02*
X123901623Y-117517115D01*
X122301623Y-116717115D02*
X123901623Y-116717115D01*
X122301623Y-117517115D02*
X122301623Y-116717115D01*
X123901623Y-117517115D02*
X122301623Y-117517115D01*
G04 #@! TO.C,C15*
X97100000Y-50650000D02*
X98700000Y-50650000D01*
X98700000Y-50650000D02*
X98700000Y-51450000D01*
X98700000Y-51450000D02*
X97100000Y-51450000D01*
X97100000Y-51450000D02*
X97100000Y-50650000D01*
G04 #@! TO.C,C16*
X97100000Y-52650000D02*
X97100000Y-51850000D01*
X98700000Y-52650000D02*
X97100000Y-52650000D01*
X98700000Y-51850000D02*
X98700000Y-52650000D01*
X97100000Y-51850000D02*
X98700000Y-51850000D01*
G04 #@! TO.C,D2*
X158963040Y-122228168D02*
X157363040Y-122228168D01*
X157363040Y-122228168D02*
X157363040Y-121428168D01*
X157363040Y-121428168D02*
X158963040Y-121428168D01*
X158963040Y-121428168D02*
X158963040Y-122228168D01*
G04 #@! TO.C,D3*
X158963040Y-120978168D02*
X157363040Y-120978168D01*
X157363040Y-120978168D02*
X157363040Y-120178168D01*
X157363040Y-120178168D02*
X158963040Y-120178168D01*
X158963040Y-120178168D02*
X158963040Y-120978168D01*
G04 #@! TO.C,D4*
X158963040Y-118928168D02*
X158963040Y-119728168D01*
X157363040Y-118928168D02*
X158963040Y-118928168D01*
X157363040Y-119728168D02*
X157363040Y-118928168D01*
X158963040Y-119728168D02*
X157363040Y-119728168D01*
G04 #@! TO.C,D5*
X158963040Y-122678168D02*
X158963040Y-123478168D01*
X157363040Y-122678168D02*
X158963040Y-122678168D01*
X157363040Y-123478168D02*
X157363040Y-122678168D01*
X158963040Y-123478168D02*
X157363040Y-123478168D01*
D11*
G04 #@! TO.C,J1*
X83340000Y-132980000D02*
X83340000Y-127780000D01*
X88480000Y-132980000D02*
X83340000Y-132980000D01*
X91080000Y-127780000D02*
X83340000Y-127780000D01*
X88480000Y-132980000D02*
X88480000Y-130380000D01*
X88480000Y-130380000D02*
X91080000Y-130380000D01*
X91080000Y-130380000D02*
X91080000Y-127780000D01*
X89750000Y-132980000D02*
X91080000Y-132980000D01*
X91080000Y-132980000D02*
X91080000Y-131650000D01*
G04 #@! TO.C,J2*
X101310000Y-45210000D02*
X100930000Y-45210000D01*
X101310000Y-41160000D02*
X101310000Y-40900000D01*
X101310000Y-45210000D02*
X101310000Y-43440000D01*
X93690000Y-45210000D02*
X94070000Y-45210000D01*
X93690000Y-43440000D02*
X93690000Y-45210000D01*
X93690000Y-40900000D02*
X93690000Y-41160000D01*
G04 #@! TO.C,SW1*
X157350000Y-131850000D02*
X157350000Y-127350000D01*
X161350000Y-133100000D02*
X159850000Y-133100000D01*
X163850000Y-127350000D02*
X163850000Y-131850000D01*
X159850000Y-126100000D02*
X161350000Y-126100000D01*
D10*
G04 #@! TO.C,U3*
X122025000Y-120675000D02*
X122025000Y-121250000D01*
X111675000Y-120675000D02*
X111675000Y-121350000D01*
X111675000Y-131025000D02*
X111675000Y-130350000D01*
X122025000Y-131025000D02*
X122025000Y-130350000D01*
X122025000Y-120675000D02*
X121350000Y-120675000D01*
X122025000Y-131025000D02*
X121350000Y-131025000D01*
X111675000Y-131025000D02*
X112350000Y-131025000D01*
X111675000Y-120675000D02*
X112350000Y-120675000D01*
X122025000Y-121250000D02*
X123300000Y-121250000D01*
D11*
G04 #@! TO.C,Y1*
X133590207Y-132284937D02*
X133590207Y-125884937D01*
X128540207Y-132284937D02*
X128540207Y-125884937D01*
X128540207Y-132284937D02*
G75*
G03X133590207Y-132284937I2525000J0D01*
G01*
X128540207Y-125884937D02*
G75*
G02X133590207Y-125884937I2525000J0D01*
G01*
D10*
G04 #@! TO.C,J3*
X138250000Y-41000000D02*
X138250000Y-39000000D01*
X138250000Y-39000000D02*
X133250000Y-39000000D01*
X133250000Y-39000000D02*
X133250000Y-41000000D01*
X138750000Y-53100000D02*
X138750000Y-41000000D01*
X138750000Y-41000000D02*
X132750000Y-41000000D01*
X132750000Y-41000000D02*
X132750000Y-53100000D01*
X132750000Y-53100000D02*
X138750000Y-53100000D01*
G04 #@! TO.C,R17*
X153563040Y-122228168D02*
X153563040Y-121428168D01*
X155163040Y-122228168D02*
X153563040Y-122228168D01*
X155163040Y-121428168D02*
X155163040Y-122228168D01*
X153563040Y-121428168D02*
X155163040Y-121428168D01*
G04 #@! TO.C,R18*
X153563040Y-120178168D02*
X155163040Y-120178168D01*
X155163040Y-120178168D02*
X155163040Y-120978168D01*
X155163040Y-120978168D02*
X153563040Y-120978168D01*
X153563040Y-120978168D02*
X153563040Y-120178168D01*
G04 #@! TO.C,R19*
X153563040Y-118928168D02*
X155163040Y-118928168D01*
X155163040Y-118928168D02*
X155163040Y-119728168D01*
X155163040Y-119728168D02*
X153563040Y-119728168D01*
X153563040Y-119728168D02*
X153563040Y-118928168D01*
G04 #@! TO.C,R20*
X153563040Y-123478168D02*
X153563040Y-122678168D01*
X155163040Y-123478168D02*
X153563040Y-123478168D01*
X155163040Y-122678168D02*
X155163040Y-123478168D01*
X153563040Y-122678168D02*
X155163040Y-122678168D01*
G04 #@! TO.C,R9*
X81600000Y-132850000D02*
X81600000Y-131250000D01*
X81600000Y-131250000D02*
X82400000Y-131250000D01*
X82400000Y-131250000D02*
X82400000Y-132850000D01*
X82400000Y-132850000D02*
X81600000Y-132850000D01*
G04 #@! TO.C,R11*
X107700000Y-129958348D02*
X108500000Y-129958348D01*
X107700000Y-131558348D02*
X107700000Y-129958348D01*
X108500000Y-131558348D02*
X107700000Y-131558348D01*
X108500000Y-129958348D02*
X108500000Y-131558348D01*
G04 #@! TO.C,R13*
X151700000Y-133150000D02*
X150900000Y-133150000D01*
X151700000Y-131550000D02*
X151700000Y-133150000D01*
X150900000Y-131550000D02*
X151700000Y-131550000D01*
X150900000Y-133150000D02*
X150900000Y-131550000D01*
G04 #@! TO.C,R14*
X163150000Y-120500000D02*
X163150000Y-122100000D01*
X163150000Y-122100000D02*
X162350000Y-122100000D01*
X162350000Y-122100000D02*
X162350000Y-120500000D01*
X162350000Y-120500000D02*
X163150000Y-120500000D01*
G04 #@! TO.C,R15*
X165150000Y-120500000D02*
X165950000Y-120500000D01*
X165150000Y-122100000D02*
X165150000Y-120500000D01*
X165950000Y-122100000D02*
X165150000Y-122100000D01*
X165950000Y-120500000D02*
X165950000Y-122100000D01*
G04 #@! TO.C,R16*
X154800000Y-128700000D02*
X154800000Y-130300000D01*
X154800000Y-130300000D02*
X154000000Y-130300000D01*
X154000000Y-130300000D02*
X154000000Y-128700000D01*
X154000000Y-128700000D02*
X154800000Y-128700000D01*
G04 #@! TO.C,R21*
X109100000Y-121450000D02*
X109100000Y-122250000D01*
X107500000Y-121450000D02*
X109100000Y-121450000D01*
X107500000Y-122250000D02*
X107500000Y-121450000D01*
X109100000Y-122250000D02*
X107500000Y-122250000D01*
G04 #@! TO.C,R24*
X97100000Y-50250000D02*
X97100000Y-49450000D01*
X98700000Y-50250000D02*
X97100000Y-50250000D01*
X98700000Y-49450000D02*
X98700000Y-50250000D01*
X97100000Y-49450000D02*
X98700000Y-49450000D01*
G04 #@! TO.C,C11*
D12*
X126171428Y-128193778D02*
X126195238Y-128217587D01*
X126266666Y-128241397D01*
X126314285Y-128241397D01*
X126385714Y-128217587D01*
X126433333Y-128169968D01*
X126457142Y-128122349D01*
X126480952Y-128027111D01*
X126480952Y-127955683D01*
X126457142Y-127860445D01*
X126433333Y-127812826D01*
X126385714Y-127765207D01*
X126314285Y-127741397D01*
X126266666Y-127741397D01*
X126195238Y-127765207D01*
X126171428Y-127789016D01*
X125695238Y-128241397D02*
X125980952Y-128241397D01*
X125838095Y-128241397D02*
X125838095Y-127741397D01*
X125885714Y-127812826D01*
X125933333Y-127860445D01*
X125980952Y-127884254D01*
X125219047Y-128241397D02*
X125504761Y-128241397D01*
X125361904Y-128241397D02*
X125361904Y-127741397D01*
X125409523Y-127812826D01*
X125457142Y-127860445D01*
X125504761Y-127884254D01*
G04 #@! TO.C,C2*
X81678571Y-131766666D02*
X81702380Y-131742857D01*
X81726190Y-131671428D01*
X81726190Y-131623809D01*
X81702380Y-131552380D01*
X81654761Y-131504761D01*
X81607142Y-131480952D01*
X81511904Y-131457142D01*
X81440476Y-131457142D01*
X81345238Y-131480952D01*
X81297619Y-131504761D01*
X81250000Y-131552380D01*
X81226190Y-131623809D01*
X81226190Y-131671428D01*
X81250000Y-131742857D01*
X81273809Y-131766666D01*
X81273809Y-131957142D02*
X81250000Y-131980952D01*
X81226190Y-132028571D01*
X81226190Y-132147619D01*
X81250000Y-132195238D01*
X81273809Y-132219047D01*
X81321428Y-132242857D01*
X81369047Y-132242857D01*
X81440476Y-132219047D01*
X81726190Y-131933333D01*
X81726190Y-132242857D01*
G04 #@! TO.C,C3*
X106278571Y-130875014D02*
X106302380Y-130851205D01*
X106326190Y-130779776D01*
X106326190Y-130732157D01*
X106302380Y-130660728D01*
X106254761Y-130613109D01*
X106207142Y-130589300D01*
X106111904Y-130565490D01*
X106040476Y-130565490D01*
X105945238Y-130589300D01*
X105897619Y-130613109D01*
X105850000Y-130660728D01*
X105826190Y-130732157D01*
X105826190Y-130779776D01*
X105850000Y-130851205D01*
X105873809Y-130875014D01*
X105826190Y-131041681D02*
X105826190Y-131351205D01*
X106016666Y-131184538D01*
X106016666Y-131255967D01*
X106040476Y-131303586D01*
X106064285Y-131327395D01*
X106111904Y-131351205D01*
X106230952Y-131351205D01*
X106278571Y-131327395D01*
X106302380Y-131303586D01*
X106326190Y-131255967D01*
X106326190Y-131113109D01*
X106302380Y-131065490D01*
X106278571Y-131041681D01*
G04 #@! TO.C,C5*
X151028571Y-132066666D02*
X151052380Y-132042857D01*
X151076190Y-131971428D01*
X151076190Y-131923809D01*
X151052380Y-131852380D01*
X151004761Y-131804761D01*
X150957142Y-131780952D01*
X150861904Y-131757142D01*
X150790476Y-131757142D01*
X150695238Y-131780952D01*
X150647619Y-131804761D01*
X150600000Y-131852380D01*
X150576190Y-131923809D01*
X150576190Y-131971428D01*
X150600000Y-132042857D01*
X150623809Y-132066666D01*
X150576190Y-132519047D02*
X150576190Y-132280952D01*
X150814285Y-132257142D01*
X150790476Y-132280952D01*
X150766666Y-132328571D01*
X150766666Y-132447619D01*
X150790476Y-132495238D01*
X150814285Y-132519047D01*
X150861904Y-132542857D01*
X150980952Y-132542857D01*
X151028571Y-132519047D01*
X151052380Y-132495238D01*
X151076190Y-132447619D01*
X151076190Y-132328571D01*
X151052380Y-132280952D01*
X151028571Y-132257142D01*
G04 #@! TO.C,C6*
X163328571Y-121416666D02*
X163352380Y-121392857D01*
X163376190Y-121321428D01*
X163376190Y-121273809D01*
X163352380Y-121202380D01*
X163304761Y-121154761D01*
X163257142Y-121130952D01*
X163161904Y-121107142D01*
X163090476Y-121107142D01*
X162995238Y-121130952D01*
X162947619Y-121154761D01*
X162900000Y-121202380D01*
X162876190Y-121273809D01*
X162876190Y-121321428D01*
X162900000Y-121392857D01*
X162923809Y-121416666D01*
X162876190Y-121845238D02*
X162876190Y-121750000D01*
X162900000Y-121702380D01*
X162923809Y-121678571D01*
X162995238Y-121630952D01*
X163090476Y-121607142D01*
X163280952Y-121607142D01*
X163328571Y-121630952D01*
X163352380Y-121654761D01*
X163376190Y-121702380D01*
X163376190Y-121797619D01*
X163352380Y-121845238D01*
X163328571Y-121869047D01*
X163280952Y-121892857D01*
X163161904Y-121892857D01*
X163114285Y-121869047D01*
X163090476Y-121845238D01*
X163066666Y-121797619D01*
X163066666Y-121702380D01*
X163090476Y-121654761D01*
X163114285Y-121630952D01*
X163161904Y-121607142D01*
G04 #@! TO.C,C7*
X166128571Y-121416666D02*
X166152380Y-121392857D01*
X166176190Y-121321428D01*
X166176190Y-121273809D01*
X166152380Y-121202380D01*
X166104761Y-121154761D01*
X166057142Y-121130952D01*
X165961904Y-121107142D01*
X165890476Y-121107142D01*
X165795238Y-121130952D01*
X165747619Y-121154761D01*
X165700000Y-121202380D01*
X165676190Y-121273809D01*
X165676190Y-121321428D01*
X165700000Y-121392857D01*
X165723809Y-121416666D01*
X165676190Y-121583333D02*
X165676190Y-121916666D01*
X166176190Y-121702380D01*
G04 #@! TO.C,C8*
X135028571Y-131216666D02*
X135052380Y-131192857D01*
X135076190Y-131121428D01*
X135076190Y-131073809D01*
X135052380Y-131002380D01*
X135004761Y-130954761D01*
X134957142Y-130930952D01*
X134861904Y-130907142D01*
X134790476Y-130907142D01*
X134695238Y-130930952D01*
X134647619Y-130954761D01*
X134600000Y-131002380D01*
X134576190Y-131073809D01*
X134576190Y-131121428D01*
X134600000Y-131192857D01*
X134623809Y-131216666D01*
X134790476Y-131502380D02*
X134766666Y-131454761D01*
X134742857Y-131430952D01*
X134695238Y-131407142D01*
X134671428Y-131407142D01*
X134623809Y-131430952D01*
X134600000Y-131454761D01*
X134576190Y-131502380D01*
X134576190Y-131597619D01*
X134600000Y-131645238D01*
X134623809Y-131669047D01*
X134671428Y-131692857D01*
X134695238Y-131692857D01*
X134742857Y-131669047D01*
X134766666Y-131645238D01*
X134790476Y-131597619D01*
X134790476Y-131502380D01*
X134814285Y-131454761D01*
X134838095Y-131430952D01*
X134885714Y-131407142D01*
X134980952Y-131407142D01*
X135028571Y-131430952D01*
X135052380Y-131454761D01*
X135076190Y-131502380D01*
X135076190Y-131597619D01*
X135052380Y-131645238D01*
X135028571Y-131669047D01*
X134980952Y-131692857D01*
X134885714Y-131692857D01*
X134838095Y-131669047D01*
X134814285Y-131645238D01*
X134790476Y-131597619D01*
G04 #@! TO.C,C9*
X133478571Y-127216666D02*
X133502380Y-127192857D01*
X133526190Y-127121428D01*
X133526190Y-127073809D01*
X133502380Y-127002380D01*
X133454761Y-126954761D01*
X133407142Y-126930952D01*
X133311904Y-126907142D01*
X133240476Y-126907142D01*
X133145238Y-126930952D01*
X133097619Y-126954761D01*
X133050000Y-127002380D01*
X133026190Y-127073809D01*
X133026190Y-127121428D01*
X133050000Y-127192857D01*
X133073809Y-127216666D01*
X133526190Y-127454761D02*
X133526190Y-127550000D01*
X133502380Y-127597619D01*
X133478571Y-127621428D01*
X133407142Y-127669047D01*
X133311904Y-127692857D01*
X133121428Y-127692857D01*
X133073809Y-127669047D01*
X133050000Y-127645238D01*
X133026190Y-127597619D01*
X133026190Y-127502380D01*
X133050000Y-127454761D01*
X133073809Y-127430952D01*
X133121428Y-127407142D01*
X133240476Y-127407142D01*
X133288095Y-127430952D01*
X133311904Y-127454761D01*
X133335714Y-127502380D01*
X133335714Y-127597619D01*
X133311904Y-127645238D01*
X133288095Y-127669047D01*
X133240476Y-127692857D01*
G04 #@! TO.C,C10*
X120293634Y-116743778D02*
X120317443Y-116719968D01*
X120341253Y-116648540D01*
X120341253Y-116600921D01*
X120317443Y-116529492D01*
X120269824Y-116481873D01*
X120222205Y-116458064D01*
X120126967Y-116434254D01*
X120055539Y-116434254D01*
X119960301Y-116458064D01*
X119912682Y-116481873D01*
X119865063Y-116529492D01*
X119841253Y-116600921D01*
X119841253Y-116648540D01*
X119865063Y-116719968D01*
X119888872Y-116743778D01*
X120341253Y-117219968D02*
X120341253Y-116934254D01*
X120341253Y-117077111D02*
X119841253Y-117077111D01*
X119912682Y-117029492D01*
X119960301Y-116981873D01*
X119984110Y-116934254D01*
X119841253Y-117529492D02*
X119841253Y-117577111D01*
X119865063Y-117624730D01*
X119888872Y-117648540D01*
X119936491Y-117672349D01*
X120031729Y-117696159D01*
X120150777Y-117696159D01*
X120246015Y-117672349D01*
X120293634Y-117648540D01*
X120317443Y-117624730D01*
X120341253Y-117577111D01*
X120341253Y-117529492D01*
X120317443Y-117481873D01*
X120293634Y-117458064D01*
X120246015Y-117434254D01*
X120150777Y-117410445D01*
X120031729Y-117410445D01*
X119936491Y-117434254D01*
X119888872Y-117458064D01*
X119865063Y-117481873D01*
X119841253Y-117529492D01*
G04 #@! TO.C,C12*
X126171428Y-127093778D02*
X126195238Y-127117587D01*
X126266666Y-127141397D01*
X126314285Y-127141397D01*
X126385714Y-127117587D01*
X126433333Y-127069968D01*
X126457142Y-127022349D01*
X126480952Y-126927111D01*
X126480952Y-126855683D01*
X126457142Y-126760445D01*
X126433333Y-126712826D01*
X126385714Y-126665207D01*
X126314285Y-126641397D01*
X126266666Y-126641397D01*
X126195238Y-126665207D01*
X126171428Y-126689016D01*
X125695238Y-127141397D02*
X125980952Y-127141397D01*
X125838095Y-127141397D02*
X125838095Y-126641397D01*
X125885714Y-126712826D01*
X125933333Y-126760445D01*
X125980952Y-126784254D01*
X125504761Y-126689016D02*
X125480952Y-126665207D01*
X125433333Y-126641397D01*
X125314285Y-126641397D01*
X125266666Y-126665207D01*
X125242857Y-126689016D01*
X125219047Y-126736635D01*
X125219047Y-126784254D01*
X125242857Y-126855683D01*
X125528571Y-127141397D01*
X125219047Y-127141397D01*
G04 #@! TO.C,C13*
X123207844Y-117760749D02*
X123231654Y-117784558D01*
X123303082Y-117808368D01*
X123350701Y-117808368D01*
X123422130Y-117784558D01*
X123469749Y-117736939D01*
X123493558Y-117689320D01*
X123517368Y-117594082D01*
X123517368Y-117522654D01*
X123493558Y-117427416D01*
X123469749Y-117379797D01*
X123422130Y-117332178D01*
X123350701Y-117308368D01*
X123303082Y-117308368D01*
X123231654Y-117332178D01*
X123207844Y-117355987D01*
X122731654Y-117808368D02*
X123017368Y-117808368D01*
X122874511Y-117808368D02*
X122874511Y-117308368D01*
X122922130Y-117379797D01*
X122969749Y-117427416D01*
X123017368Y-117451225D01*
X122564987Y-117308368D02*
X122255463Y-117308368D01*
X122422130Y-117498844D01*
X122350701Y-117498844D01*
X122303082Y-117522654D01*
X122279273Y-117546463D01*
X122255463Y-117594082D01*
X122255463Y-117713130D01*
X122279273Y-117760749D01*
X122303082Y-117784558D01*
X122350701Y-117808368D01*
X122493558Y-117808368D01*
X122541177Y-117784558D01*
X122564987Y-117760749D01*
G04 #@! TO.C,C14*
X123223051Y-116495686D02*
X123246861Y-116519495D01*
X123318289Y-116543305D01*
X123365908Y-116543305D01*
X123437337Y-116519495D01*
X123484956Y-116471876D01*
X123508765Y-116424257D01*
X123532575Y-116329019D01*
X123532575Y-116257591D01*
X123508765Y-116162353D01*
X123484956Y-116114734D01*
X123437337Y-116067115D01*
X123365908Y-116043305D01*
X123318289Y-116043305D01*
X123246861Y-116067115D01*
X123223051Y-116090924D01*
X122746861Y-116543305D02*
X123032575Y-116543305D01*
X122889718Y-116543305D02*
X122889718Y-116043305D01*
X122937337Y-116114734D01*
X122984956Y-116162353D01*
X123032575Y-116186162D01*
X122318289Y-116209972D02*
X122318289Y-116543305D01*
X122437337Y-116019495D02*
X122556384Y-116376638D01*
X122246861Y-116376638D01*
G04 #@! TO.C,C15*
X98421428Y-52028571D02*
X98445238Y-52052380D01*
X98516666Y-52076190D01*
X98564285Y-52076190D01*
X98635714Y-52052380D01*
X98683333Y-52004761D01*
X98707142Y-51957142D01*
X98730952Y-51861904D01*
X98730952Y-51790476D01*
X98707142Y-51695238D01*
X98683333Y-51647619D01*
X98635714Y-51600000D01*
X98564285Y-51576190D01*
X98516666Y-51576190D01*
X98445238Y-51600000D01*
X98421428Y-51623809D01*
X97945238Y-52076190D02*
X98230952Y-52076190D01*
X98088095Y-52076190D02*
X98088095Y-51576190D01*
X98135714Y-51647619D01*
X98183333Y-51695238D01*
X98230952Y-51719047D01*
X97492857Y-51576190D02*
X97730952Y-51576190D01*
X97754761Y-51814285D01*
X97730952Y-51790476D01*
X97683333Y-51766666D01*
X97564285Y-51766666D01*
X97516666Y-51790476D01*
X97492857Y-51814285D01*
X97469047Y-51861904D01*
X97469047Y-51980952D01*
X97492857Y-52028571D01*
X97516666Y-52052380D01*
X97564285Y-52076190D01*
X97683333Y-52076190D01*
X97730952Y-52052380D01*
X97754761Y-52028571D01*
G04 #@! TO.C,C16*
X98421428Y-53228571D02*
X98445238Y-53252380D01*
X98516666Y-53276190D01*
X98564285Y-53276190D01*
X98635714Y-53252380D01*
X98683333Y-53204761D01*
X98707142Y-53157142D01*
X98730952Y-53061904D01*
X98730952Y-52990476D01*
X98707142Y-52895238D01*
X98683333Y-52847619D01*
X98635714Y-52800000D01*
X98564285Y-52776190D01*
X98516666Y-52776190D01*
X98445238Y-52800000D01*
X98421428Y-52823809D01*
X97945238Y-53276190D02*
X98230952Y-53276190D01*
X98088095Y-53276190D02*
X98088095Y-52776190D01*
X98135714Y-52847619D01*
X98183333Y-52895238D01*
X98230952Y-52919047D01*
X97516666Y-52776190D02*
X97611904Y-52776190D01*
X97659523Y-52800000D01*
X97683333Y-52823809D01*
X97730952Y-52895238D01*
X97754761Y-52990476D01*
X97754761Y-53180952D01*
X97730952Y-53228571D01*
X97707142Y-53252380D01*
X97659523Y-53276190D01*
X97564285Y-53276190D01*
X97516666Y-53252380D01*
X97492857Y-53228571D01*
X97469047Y-53180952D01*
X97469047Y-53061904D01*
X97492857Y-53014285D01*
X97516666Y-52990476D01*
X97564285Y-52966666D01*
X97659523Y-52966666D01*
X97707142Y-52990476D01*
X97730952Y-53014285D01*
X97754761Y-53061904D01*
G04 #@! TO.C,D2*
X158582087Y-122054358D02*
X158582087Y-121554358D01*
X158463040Y-121554358D01*
X158391611Y-121578168D01*
X158343992Y-121625787D01*
X158320182Y-121673406D01*
X158296373Y-121768644D01*
X158296373Y-121840072D01*
X158320182Y-121935310D01*
X158343992Y-121982929D01*
X158391611Y-122030548D01*
X158463040Y-122054358D01*
X158582087Y-122054358D01*
X158105897Y-121601977D02*
X158082087Y-121578168D01*
X158034468Y-121554358D01*
X157915420Y-121554358D01*
X157867801Y-121578168D01*
X157843992Y-121601977D01*
X157820182Y-121649596D01*
X157820182Y-121697215D01*
X157843992Y-121768644D01*
X158129706Y-122054358D01*
X157820182Y-122054358D01*
G04 #@! TO.C,D3*
X158532087Y-120754358D02*
X158532087Y-120254358D01*
X158413040Y-120254358D01*
X158341611Y-120278168D01*
X158293992Y-120325787D01*
X158270182Y-120373406D01*
X158246373Y-120468644D01*
X158246373Y-120540072D01*
X158270182Y-120635310D01*
X158293992Y-120682929D01*
X158341611Y-120730548D01*
X158413040Y-120754358D01*
X158532087Y-120754358D01*
X158079706Y-120254358D02*
X157770182Y-120254358D01*
X157936849Y-120444834D01*
X157865420Y-120444834D01*
X157817801Y-120468644D01*
X157793992Y-120492453D01*
X157770182Y-120540072D01*
X157770182Y-120659120D01*
X157793992Y-120706739D01*
X157817801Y-120730548D01*
X157865420Y-120754358D01*
X158008278Y-120754358D01*
X158055897Y-120730548D01*
X158079706Y-120706739D01*
G04 #@! TO.C,D4*
X158582087Y-119554358D02*
X158582087Y-119054358D01*
X158463040Y-119054358D01*
X158391611Y-119078168D01*
X158343992Y-119125787D01*
X158320182Y-119173406D01*
X158296373Y-119268644D01*
X158296373Y-119340072D01*
X158320182Y-119435310D01*
X158343992Y-119482929D01*
X158391611Y-119530548D01*
X158463040Y-119554358D01*
X158582087Y-119554358D01*
X157867801Y-119221025D02*
X157867801Y-119554358D01*
X157986849Y-119030548D02*
X158105897Y-119387691D01*
X157796373Y-119387691D01*
G04 #@! TO.C,D5*
X158582087Y-123254358D02*
X158582087Y-122754358D01*
X158463040Y-122754358D01*
X158391611Y-122778168D01*
X158343992Y-122825787D01*
X158320182Y-122873406D01*
X158296373Y-122968644D01*
X158296373Y-123040072D01*
X158320182Y-123135310D01*
X158343992Y-123182929D01*
X158391611Y-123230548D01*
X158463040Y-123254358D01*
X158582087Y-123254358D01*
X157843992Y-122754358D02*
X158082087Y-122754358D01*
X158105897Y-122992453D01*
X158082087Y-122968644D01*
X158034468Y-122944834D01*
X157915420Y-122944834D01*
X157867801Y-122968644D01*
X157843992Y-122992453D01*
X157820182Y-123040072D01*
X157820182Y-123159120D01*
X157843992Y-123206739D01*
X157867801Y-123230548D01*
X157915420Y-123254358D01*
X158034468Y-123254358D01*
X158082087Y-123230548D01*
X158105897Y-123206739D01*
G04 #@! TO.C,J1*
D10*
X91532380Y-130046666D02*
X92246666Y-130046666D01*
X92389523Y-129999047D01*
X92484761Y-129903809D01*
X92532380Y-129760952D01*
X92532380Y-129665714D01*
X92532380Y-131046666D02*
X92532380Y-130475238D01*
X92532380Y-130760952D02*
X91532380Y-130760952D01*
X91675238Y-130665714D01*
X91770476Y-130570476D01*
X91818095Y-130475238D01*
G04 #@! TO.C,J2*
X97833333Y-46252380D02*
X97833333Y-46966666D01*
X97880952Y-47109523D01*
X97976190Y-47204761D01*
X98119047Y-47252380D01*
X98214285Y-47252380D01*
X97404761Y-46347619D02*
X97357142Y-46300000D01*
X97261904Y-46252380D01*
X97023809Y-46252380D01*
X96928571Y-46300000D01*
X96880952Y-46347619D01*
X96833333Y-46442857D01*
X96833333Y-46538095D01*
X96880952Y-46680952D01*
X97452380Y-47252380D01*
X96833333Y-47252380D01*
G04 #@! TO.C,SW1*
X165254761Y-128266666D02*
X165302380Y-128409523D01*
X165302380Y-128647619D01*
X165254761Y-128742857D01*
X165207142Y-128790476D01*
X165111904Y-128838095D01*
X165016666Y-128838095D01*
X164921428Y-128790476D01*
X164873809Y-128742857D01*
X164826190Y-128647619D01*
X164778571Y-128457142D01*
X164730952Y-128361904D01*
X164683333Y-128314285D01*
X164588095Y-128266666D01*
X164492857Y-128266666D01*
X164397619Y-128314285D01*
X164350000Y-128361904D01*
X164302380Y-128457142D01*
X164302380Y-128695238D01*
X164350000Y-128838095D01*
X164302380Y-129171428D02*
X165302380Y-129409523D01*
X164588095Y-129600000D01*
X165302380Y-129790476D01*
X164302380Y-130028571D01*
X165302380Y-130933333D02*
X165302380Y-130361904D01*
X165302380Y-130647619D02*
X164302380Y-130647619D01*
X164445238Y-130552380D01*
X164540476Y-130457142D01*
X164588095Y-130361904D01*
G04 #@! TO.C,U3*
X117611904Y-117852380D02*
X117611904Y-118661904D01*
X117564285Y-118757142D01*
X117516666Y-118804761D01*
X117421428Y-118852380D01*
X117230952Y-118852380D01*
X117135714Y-118804761D01*
X117088095Y-118757142D01*
X117040476Y-118661904D01*
X117040476Y-117852380D01*
X116659523Y-117852380D02*
X116040476Y-117852380D01*
X116373809Y-118233333D01*
X116230952Y-118233333D01*
X116135714Y-118280952D01*
X116088095Y-118328571D01*
X116040476Y-118423809D01*
X116040476Y-118661904D01*
X116088095Y-118757142D01*
X116135714Y-118804761D01*
X116230952Y-118852380D01*
X116516666Y-118852380D01*
X116611904Y-118804761D01*
X116659523Y-118757142D01*
G04 #@! TO.C,Y1*
X134566397Y-128608746D02*
X135042587Y-128608746D01*
X134042587Y-128275413D02*
X134566397Y-128608746D01*
X134042587Y-128942079D01*
X135042587Y-129799222D02*
X135042587Y-129227794D01*
X135042587Y-129513508D02*
X134042587Y-129513508D01*
X134185445Y-129418270D01*
X134280683Y-129323032D01*
X134328302Y-129227794D01*
G04 #@! TO.C,J3*
X131402380Y-45966666D02*
X132116666Y-45966666D01*
X132259523Y-45919047D01*
X132354761Y-45823809D01*
X132402380Y-45680952D01*
X132402380Y-45585714D01*
X131402380Y-46347619D02*
X131402380Y-46966666D01*
X131783333Y-46633333D01*
X131783333Y-46776190D01*
X131830952Y-46871428D01*
X131878571Y-46919047D01*
X131973809Y-46966666D01*
X132211904Y-46966666D01*
X132307142Y-46919047D01*
X132354761Y-46871428D01*
X132402380Y-46776190D01*
X132402380Y-46490476D01*
X132354761Y-46395238D01*
X132307142Y-46347619D01*
G04 #@! TO.C,R17*
D12*
X154684468Y-122054358D02*
X154851135Y-121816263D01*
X154970182Y-122054358D02*
X154970182Y-121554358D01*
X154779706Y-121554358D01*
X154732087Y-121578168D01*
X154708278Y-121601977D01*
X154684468Y-121649596D01*
X154684468Y-121721025D01*
X154708278Y-121768644D01*
X154732087Y-121792453D01*
X154779706Y-121816263D01*
X154970182Y-121816263D01*
X154208278Y-122054358D02*
X154493992Y-122054358D01*
X154351135Y-122054358D02*
X154351135Y-121554358D01*
X154398754Y-121625787D01*
X154446373Y-121673406D01*
X154493992Y-121697215D01*
X154041611Y-121554358D02*
X153708278Y-121554358D01*
X153922563Y-122054358D01*
G04 #@! TO.C,R18*
X154684468Y-120804358D02*
X154851135Y-120566263D01*
X154970182Y-120804358D02*
X154970182Y-120304358D01*
X154779706Y-120304358D01*
X154732087Y-120328168D01*
X154708278Y-120351977D01*
X154684468Y-120399596D01*
X154684468Y-120471025D01*
X154708278Y-120518644D01*
X154732087Y-120542453D01*
X154779706Y-120566263D01*
X154970182Y-120566263D01*
X154208278Y-120804358D02*
X154493992Y-120804358D01*
X154351135Y-120804358D02*
X154351135Y-120304358D01*
X154398754Y-120375787D01*
X154446373Y-120423406D01*
X154493992Y-120447215D01*
X153922563Y-120518644D02*
X153970182Y-120494834D01*
X153993992Y-120471025D01*
X154017801Y-120423406D01*
X154017801Y-120399596D01*
X153993992Y-120351977D01*
X153970182Y-120328168D01*
X153922563Y-120304358D01*
X153827325Y-120304358D01*
X153779706Y-120328168D01*
X153755897Y-120351977D01*
X153732087Y-120399596D01*
X153732087Y-120423406D01*
X153755897Y-120471025D01*
X153779706Y-120494834D01*
X153827325Y-120518644D01*
X153922563Y-120518644D01*
X153970182Y-120542453D01*
X153993992Y-120566263D01*
X154017801Y-120613882D01*
X154017801Y-120709120D01*
X153993992Y-120756739D01*
X153970182Y-120780548D01*
X153922563Y-120804358D01*
X153827325Y-120804358D01*
X153779706Y-120780548D01*
X153755897Y-120756739D01*
X153732087Y-120709120D01*
X153732087Y-120613882D01*
X153755897Y-120566263D01*
X153779706Y-120542453D01*
X153827325Y-120518644D01*
G04 #@! TO.C,R19*
X154684468Y-119554358D02*
X154851135Y-119316263D01*
X154970182Y-119554358D02*
X154970182Y-119054358D01*
X154779706Y-119054358D01*
X154732087Y-119078168D01*
X154708278Y-119101977D01*
X154684468Y-119149596D01*
X154684468Y-119221025D01*
X154708278Y-119268644D01*
X154732087Y-119292453D01*
X154779706Y-119316263D01*
X154970182Y-119316263D01*
X154208278Y-119554358D02*
X154493992Y-119554358D01*
X154351135Y-119554358D02*
X154351135Y-119054358D01*
X154398754Y-119125787D01*
X154446373Y-119173406D01*
X154493992Y-119197215D01*
X153970182Y-119554358D02*
X153874944Y-119554358D01*
X153827325Y-119530548D01*
X153803516Y-119506739D01*
X153755897Y-119435310D01*
X153732087Y-119340072D01*
X153732087Y-119149596D01*
X153755897Y-119101977D01*
X153779706Y-119078168D01*
X153827325Y-119054358D01*
X153922563Y-119054358D01*
X153970182Y-119078168D01*
X153993992Y-119101977D01*
X154017801Y-119149596D01*
X154017801Y-119268644D01*
X153993992Y-119316263D01*
X153970182Y-119340072D01*
X153922563Y-119363882D01*
X153827325Y-119363882D01*
X153779706Y-119340072D01*
X153755897Y-119316263D01*
X153732087Y-119268644D01*
G04 #@! TO.C,R20*
X154684468Y-123304358D02*
X154851135Y-123066263D01*
X154970182Y-123304358D02*
X154970182Y-122804358D01*
X154779706Y-122804358D01*
X154732087Y-122828168D01*
X154708278Y-122851977D01*
X154684468Y-122899596D01*
X154684468Y-122971025D01*
X154708278Y-123018644D01*
X154732087Y-123042453D01*
X154779706Y-123066263D01*
X154970182Y-123066263D01*
X154493992Y-122851977D02*
X154470182Y-122828168D01*
X154422563Y-122804358D01*
X154303516Y-122804358D01*
X154255897Y-122828168D01*
X154232087Y-122851977D01*
X154208278Y-122899596D01*
X154208278Y-122947215D01*
X154232087Y-123018644D01*
X154517801Y-123304358D01*
X154208278Y-123304358D01*
X153898754Y-122804358D02*
X153851135Y-122804358D01*
X153803516Y-122828168D01*
X153779706Y-122851977D01*
X153755897Y-122899596D01*
X153732087Y-122994834D01*
X153732087Y-123113882D01*
X153755897Y-123209120D01*
X153779706Y-123256739D01*
X153803516Y-123280548D01*
X153851135Y-123304358D01*
X153898754Y-123304358D01*
X153946373Y-123280548D01*
X153970182Y-123256739D01*
X153993992Y-123209120D01*
X154017801Y-123113882D01*
X154017801Y-122994834D01*
X153993992Y-122899596D01*
X153970182Y-122851977D01*
X153946373Y-122828168D01*
X153898754Y-122804358D01*
G04 #@! TO.C,R9*
X83026190Y-131766666D02*
X82788095Y-131600000D01*
X83026190Y-131480952D02*
X82526190Y-131480952D01*
X82526190Y-131671428D01*
X82550000Y-131719047D01*
X82573809Y-131742857D01*
X82621428Y-131766666D01*
X82692857Y-131766666D01*
X82740476Y-131742857D01*
X82764285Y-131719047D01*
X82788095Y-131671428D01*
X82788095Y-131480952D01*
X83026190Y-132004761D02*
X83026190Y-132100000D01*
X83002380Y-132147619D01*
X82978571Y-132171428D01*
X82907142Y-132219047D01*
X82811904Y-132242857D01*
X82621428Y-132242857D01*
X82573809Y-132219047D01*
X82550000Y-132195238D01*
X82526190Y-132147619D01*
X82526190Y-132052380D01*
X82550000Y-132004761D01*
X82573809Y-131980952D01*
X82621428Y-131957142D01*
X82740476Y-131957142D01*
X82788095Y-131980952D01*
X82811904Y-132004761D01*
X82835714Y-132052380D01*
X82835714Y-132147619D01*
X82811904Y-132195238D01*
X82788095Y-132219047D01*
X82740476Y-132242857D01*
G04 #@! TO.C,R11*
X107526190Y-130636919D02*
X107288095Y-130470252D01*
X107526190Y-130351205D02*
X107026190Y-130351205D01*
X107026190Y-130541681D01*
X107050000Y-130589300D01*
X107073809Y-130613109D01*
X107121428Y-130636919D01*
X107192857Y-130636919D01*
X107240476Y-130613109D01*
X107264285Y-130589300D01*
X107288095Y-130541681D01*
X107288095Y-130351205D01*
X107526190Y-131113109D02*
X107526190Y-130827395D01*
X107526190Y-130970252D02*
X107026190Y-130970252D01*
X107097619Y-130922633D01*
X107145238Y-130875014D01*
X107169047Y-130827395D01*
X107526190Y-131589300D02*
X107526190Y-131303586D01*
X107526190Y-131446443D02*
X107026190Y-131446443D01*
X107097619Y-131398824D01*
X107145238Y-131351205D01*
X107169047Y-131303586D01*
G04 #@! TO.C,R13*
X152326190Y-131828571D02*
X152088095Y-131661904D01*
X152326190Y-131542857D02*
X151826190Y-131542857D01*
X151826190Y-131733333D01*
X151850000Y-131780952D01*
X151873809Y-131804761D01*
X151921428Y-131828571D01*
X151992857Y-131828571D01*
X152040476Y-131804761D01*
X152064285Y-131780952D01*
X152088095Y-131733333D01*
X152088095Y-131542857D01*
X152326190Y-132304761D02*
X152326190Y-132019047D01*
X152326190Y-132161904D02*
X151826190Y-132161904D01*
X151897619Y-132114285D01*
X151945238Y-132066666D01*
X151969047Y-132019047D01*
X151826190Y-132471428D02*
X151826190Y-132780952D01*
X152016666Y-132614285D01*
X152016666Y-132685714D01*
X152040476Y-132733333D01*
X152064285Y-132757142D01*
X152111904Y-132780952D01*
X152230952Y-132780952D01*
X152278571Y-132757142D01*
X152302380Y-132733333D01*
X152326190Y-132685714D01*
X152326190Y-132542857D01*
X152302380Y-132495238D01*
X152278571Y-132471428D01*
G04 #@! TO.C,R14*
X162176190Y-121178571D02*
X161938095Y-121011904D01*
X162176190Y-120892857D02*
X161676190Y-120892857D01*
X161676190Y-121083333D01*
X161700000Y-121130952D01*
X161723809Y-121154761D01*
X161771428Y-121178571D01*
X161842857Y-121178571D01*
X161890476Y-121154761D01*
X161914285Y-121130952D01*
X161938095Y-121083333D01*
X161938095Y-120892857D01*
X162176190Y-121654761D02*
X162176190Y-121369047D01*
X162176190Y-121511904D02*
X161676190Y-121511904D01*
X161747619Y-121464285D01*
X161795238Y-121416666D01*
X161819047Y-121369047D01*
X161842857Y-122083333D02*
X162176190Y-122083333D01*
X161652380Y-121964285D02*
X162009523Y-121845238D01*
X162009523Y-122154761D01*
G04 #@! TO.C,R15*
X164976190Y-121178571D02*
X164738095Y-121011904D01*
X164976190Y-120892857D02*
X164476190Y-120892857D01*
X164476190Y-121083333D01*
X164500000Y-121130952D01*
X164523809Y-121154761D01*
X164571428Y-121178571D01*
X164642857Y-121178571D01*
X164690476Y-121154761D01*
X164714285Y-121130952D01*
X164738095Y-121083333D01*
X164738095Y-120892857D01*
X164976190Y-121654761D02*
X164976190Y-121369047D01*
X164976190Y-121511904D02*
X164476190Y-121511904D01*
X164547619Y-121464285D01*
X164595238Y-121416666D01*
X164619047Y-121369047D01*
X164476190Y-122107142D02*
X164476190Y-121869047D01*
X164714285Y-121845238D01*
X164690476Y-121869047D01*
X164666666Y-121916666D01*
X164666666Y-122035714D01*
X164690476Y-122083333D01*
X164714285Y-122107142D01*
X164761904Y-122130952D01*
X164880952Y-122130952D01*
X164928571Y-122107142D01*
X164952380Y-122083333D01*
X164976190Y-122035714D01*
X164976190Y-121916666D01*
X164952380Y-121869047D01*
X164928571Y-121845238D01*
G04 #@! TO.C,R16*
X153826190Y-129378571D02*
X153588095Y-129211904D01*
X153826190Y-129092857D02*
X153326190Y-129092857D01*
X153326190Y-129283333D01*
X153350000Y-129330952D01*
X153373809Y-129354761D01*
X153421428Y-129378571D01*
X153492857Y-129378571D01*
X153540476Y-129354761D01*
X153564285Y-129330952D01*
X153588095Y-129283333D01*
X153588095Y-129092857D01*
X153826190Y-129854761D02*
X153826190Y-129569047D01*
X153826190Y-129711904D02*
X153326190Y-129711904D01*
X153397619Y-129664285D01*
X153445238Y-129616666D01*
X153469047Y-129569047D01*
X153326190Y-130283333D02*
X153326190Y-130188095D01*
X153350000Y-130140476D01*
X153373809Y-130116666D01*
X153445238Y-130069047D01*
X153540476Y-130045238D01*
X153730952Y-130045238D01*
X153778571Y-130069047D01*
X153802380Y-130092857D01*
X153826190Y-130140476D01*
X153826190Y-130235714D01*
X153802380Y-130283333D01*
X153778571Y-130307142D01*
X153730952Y-130330952D01*
X153611904Y-130330952D01*
X153564285Y-130307142D01*
X153540476Y-130283333D01*
X153516666Y-130235714D01*
X153516666Y-130140476D01*
X153540476Y-130092857D01*
X153564285Y-130069047D01*
X153611904Y-130045238D01*
G04 #@! TO.C,R21*
X108421428Y-121276190D02*
X108588095Y-121038095D01*
X108707142Y-121276190D02*
X108707142Y-120776190D01*
X108516666Y-120776190D01*
X108469047Y-120800000D01*
X108445238Y-120823809D01*
X108421428Y-120871428D01*
X108421428Y-120942857D01*
X108445238Y-120990476D01*
X108469047Y-121014285D01*
X108516666Y-121038095D01*
X108707142Y-121038095D01*
X108230952Y-120823809D02*
X108207142Y-120800000D01*
X108159523Y-120776190D01*
X108040476Y-120776190D01*
X107992857Y-120800000D01*
X107969047Y-120823809D01*
X107945238Y-120871428D01*
X107945238Y-120919047D01*
X107969047Y-120990476D01*
X108254761Y-121276190D01*
X107945238Y-121276190D01*
X107469047Y-121276190D02*
X107754761Y-121276190D01*
X107611904Y-121276190D02*
X107611904Y-120776190D01*
X107659523Y-120847619D01*
X107707142Y-120895238D01*
X107754761Y-120919047D01*
G04 #@! TO.C,R24*
X98421428Y-50876190D02*
X98588095Y-50638095D01*
X98707142Y-50876190D02*
X98707142Y-50376190D01*
X98516666Y-50376190D01*
X98469047Y-50400000D01*
X98445238Y-50423809D01*
X98421428Y-50471428D01*
X98421428Y-50542857D01*
X98445238Y-50590476D01*
X98469047Y-50614285D01*
X98516666Y-50638095D01*
X98707142Y-50638095D01*
X98230952Y-50423809D02*
X98207142Y-50400000D01*
X98159523Y-50376190D01*
X98040476Y-50376190D01*
X97992857Y-50400000D01*
X97969047Y-50423809D01*
X97945238Y-50471428D01*
X97945238Y-50519047D01*
X97969047Y-50590476D01*
X98254761Y-50876190D01*
X97945238Y-50876190D01*
X97516666Y-50542857D02*
X97516666Y-50876190D01*
X97635714Y-50352380D02*
X97754761Y-50709523D01*
X97445238Y-50709523D01*
G04 #@! TD*
M02*
