G04 #@! TF.GenerationSoftware,KiCad,Pcbnew,(5.0.2)-1*
G04 #@! TF.CreationDate,2020-04-01T00:19:12+09:00*
G04 #@! TF.ProjectId,eckeyboard,65636b65-7962-46f6-9172-642e6b696361,rev?*
G04 #@! TF.SameCoordinates,Original*
G04 #@! TF.FileFunction,Paste,Bot*
G04 #@! TF.FilePolarity,Positive*
%FSLAX46Y46*%
G04 Gerber Fmt 4.6, Leading zero omitted, Abs format (unit mm)*
G04 Created by KiCad (PCBNEW (5.0.2)-1) date 2020/04/01 0:19:12*
%MOMM*%
%LPD*%
G01*
G04 APERTURE LIST*
%ADD10C,0.750000*%
%ADD11C,0.100000*%
%ADD12R,0.450000X1.380000*%
%ADD13R,1.475000X2.100000*%
%ADD14R,2.375000X1.900000*%
%ADD15R,1.175000X1.900000*%
%ADD16R,1.500000X0.550000*%
%ADD17R,0.550000X1.500000*%
G04 APERTURE END LIST*
D10*
G04 #@! TO.C,C11*
X126650000Y-127215207D03*
D11*
G36*
X126050000Y-127590207D02*
X126050000Y-126840207D01*
X127250000Y-126840207D01*
X127250000Y-127590207D01*
X126050000Y-127590207D01*
X126050000Y-127590207D01*
G37*
D10*
X124650000Y-127215207D03*
D11*
G36*
X124050000Y-127590207D02*
X124050000Y-126840207D01*
X125250000Y-126840207D01*
X125250000Y-127590207D01*
X124050000Y-127590207D01*
X124050000Y-127590207D01*
G37*
G04 #@! TD*
D10*
G04 #@! TO.C,C2*
X80700000Y-133050000D03*
D11*
G36*
X81075000Y-133650000D02*
X80325000Y-133650000D01*
X80325000Y-132450000D01*
X81075000Y-132450000D01*
X81075000Y-133650000D01*
X81075000Y-133650000D01*
G37*
D10*
X80700000Y-131050000D03*
D11*
G36*
X81075000Y-131650000D02*
X80325000Y-131650000D01*
X80325000Y-130450000D01*
X81075000Y-130450000D01*
X81075000Y-131650000D01*
X81075000Y-131650000D01*
G37*
G04 #@! TD*
D10*
G04 #@! TO.C,C3*
X106900000Y-131758348D03*
D11*
G36*
X106525000Y-131158348D02*
X107275000Y-131158348D01*
X107275000Y-132358348D01*
X106525000Y-132358348D01*
X106525000Y-131158348D01*
X106525000Y-131158348D01*
G37*
D10*
X106900000Y-129758348D03*
D11*
G36*
X106525000Y-129158348D02*
X107275000Y-129158348D01*
X107275000Y-130358348D01*
X106525000Y-130358348D01*
X106525000Y-129158348D01*
X106525000Y-129158348D01*
G37*
G04 #@! TD*
D10*
G04 #@! TO.C,C5*
X150050000Y-133350000D03*
D11*
G36*
X150425000Y-133950000D02*
X149675000Y-133950000D01*
X149675000Y-132750000D01*
X150425000Y-132750000D01*
X150425000Y-133950000D01*
X150425000Y-133950000D01*
G37*
D10*
X150050000Y-131350000D03*
D11*
G36*
X150425000Y-131950000D02*
X149675000Y-131950000D01*
X149675000Y-130750000D01*
X150425000Y-130750000D01*
X150425000Y-131950000D01*
X150425000Y-131950000D01*
G37*
G04 #@! TD*
D10*
G04 #@! TO.C,C6*
X163950000Y-122300000D03*
D11*
G36*
X163575000Y-121700000D02*
X164325000Y-121700000D01*
X164325000Y-122900000D01*
X163575000Y-122900000D01*
X163575000Y-121700000D01*
X163575000Y-121700000D01*
G37*
D10*
X163950000Y-120300000D03*
D11*
G36*
X163575000Y-119700000D02*
X164325000Y-119700000D01*
X164325000Y-120900000D01*
X163575000Y-120900000D01*
X163575000Y-119700000D01*
X163575000Y-119700000D01*
G37*
G04 #@! TD*
D10*
G04 #@! TO.C,C7*
X166750000Y-122300000D03*
D11*
G36*
X166375000Y-121700000D02*
X167125000Y-121700000D01*
X167125000Y-122900000D01*
X166375000Y-122900000D01*
X166375000Y-121700000D01*
X166375000Y-121700000D01*
G37*
D10*
X166750000Y-120300000D03*
D11*
G36*
X166375000Y-119700000D02*
X167125000Y-119700000D01*
X167125000Y-120900000D01*
X166375000Y-120900000D01*
X166375000Y-119700000D01*
X166375000Y-119700000D01*
G37*
G04 #@! TD*
D10*
G04 #@! TO.C,C8*
X134050000Y-132500000D03*
D11*
G36*
X134425000Y-133100000D02*
X133675000Y-133100000D01*
X133675000Y-131900000D01*
X134425000Y-131900000D01*
X134425000Y-133100000D01*
X134425000Y-133100000D01*
G37*
D10*
X134050000Y-130500000D03*
D11*
G36*
X134425000Y-131100000D02*
X133675000Y-131100000D01*
X133675000Y-129900000D01*
X134425000Y-129900000D01*
X134425000Y-131100000D01*
X134425000Y-131100000D01*
G37*
G04 #@! TD*
D10*
G04 #@! TO.C,C9*
X134100000Y-126100000D03*
D11*
G36*
X133725000Y-125500000D02*
X134475000Y-125500000D01*
X134475000Y-126700000D01*
X133725000Y-126700000D01*
X133725000Y-125500000D01*
X133725000Y-125500000D01*
G37*
D10*
X134100000Y-128100000D03*
D11*
G36*
X133725000Y-127500000D02*
X134475000Y-127500000D01*
X134475000Y-128700000D01*
X133725000Y-128700000D01*
X133725000Y-127500000D01*
X133725000Y-127500000D01*
G37*
G04 #@! TD*
D10*
G04 #@! TO.C,C10*
X119315063Y-118265207D03*
D11*
G36*
X119690063Y-118865207D02*
X118940063Y-118865207D01*
X118940063Y-117665207D01*
X119690063Y-117665207D01*
X119690063Y-118865207D01*
X119690063Y-118865207D01*
G37*
D10*
X119315063Y-116265207D03*
D11*
G36*
X119690063Y-116865207D02*
X118940063Y-116865207D01*
X118940063Y-115665207D01*
X119690063Y-115665207D01*
X119690063Y-116865207D01*
X119690063Y-116865207D01*
G37*
G04 #@! TD*
D10*
G04 #@! TO.C,C12*
X124650000Y-126115207D03*
D11*
G36*
X124050000Y-126490207D02*
X124050000Y-125740207D01*
X125250000Y-125740207D01*
X125250000Y-126490207D01*
X124050000Y-126490207D01*
X124050000Y-126490207D01*
G37*
D10*
X126650000Y-126115207D03*
D11*
G36*
X126050000Y-126490207D02*
X126050000Y-125740207D01*
X127250000Y-125740207D01*
X127250000Y-126490207D01*
X126050000Y-126490207D01*
X126050000Y-126490207D01*
G37*
G04 #@! TD*
D10*
G04 #@! TO.C,C13*
X124086416Y-118382178D03*
D11*
G36*
X124686416Y-118007178D02*
X124686416Y-118757178D01*
X123486416Y-118757178D01*
X123486416Y-118007178D01*
X124686416Y-118007178D01*
X124686416Y-118007178D01*
G37*
D10*
X122086416Y-118382178D03*
D11*
G36*
X122686416Y-118007178D02*
X122686416Y-118757178D01*
X121486416Y-118757178D01*
X121486416Y-118007178D01*
X122686416Y-118007178D01*
X122686416Y-118007178D01*
G37*
G04 #@! TD*
D10*
G04 #@! TO.C,C14*
X122101623Y-117117115D03*
D11*
G36*
X122701623Y-116742115D02*
X122701623Y-117492115D01*
X121501623Y-117492115D01*
X121501623Y-116742115D01*
X122701623Y-116742115D01*
X122701623Y-116742115D01*
G37*
D10*
X124101623Y-117117115D03*
D11*
G36*
X124701623Y-116742115D02*
X124701623Y-117492115D01*
X123501623Y-117492115D01*
X123501623Y-116742115D01*
X124701623Y-116742115D01*
X124701623Y-116742115D01*
G37*
G04 #@! TD*
D10*
G04 #@! TO.C,C15*
X96900000Y-51050000D03*
D11*
G36*
X96300000Y-51425000D02*
X96300000Y-50675000D01*
X97500000Y-50675000D01*
X97500000Y-51425000D01*
X96300000Y-51425000D01*
X96300000Y-51425000D01*
G37*
D10*
X98900000Y-51050000D03*
D11*
G36*
X98300000Y-51425000D02*
X98300000Y-50675000D01*
X99500000Y-50675000D01*
X99500000Y-51425000D01*
X98300000Y-51425000D01*
X98300000Y-51425000D01*
G37*
G04 #@! TD*
D10*
G04 #@! TO.C,C16*
X98900000Y-52250000D03*
D11*
G36*
X98300000Y-52625000D02*
X98300000Y-51875000D01*
X99500000Y-51875000D01*
X99500000Y-52625000D01*
X98300000Y-52625000D01*
X98300000Y-52625000D01*
G37*
D10*
X96900000Y-52250000D03*
D11*
G36*
X96300000Y-52625000D02*
X96300000Y-51875000D01*
X97500000Y-51875000D01*
X97500000Y-52625000D01*
X96300000Y-52625000D01*
X96300000Y-52625000D01*
G37*
G04 #@! TD*
D10*
G04 #@! TO.C,D2*
X159163040Y-121828168D03*
D11*
G36*
X159763040Y-121453168D02*
X159763040Y-122203168D01*
X158563040Y-122203168D01*
X158563040Y-121453168D01*
X159763040Y-121453168D01*
X159763040Y-121453168D01*
G37*
D10*
X157163040Y-121828168D03*
D11*
G36*
X157763040Y-121453168D02*
X157763040Y-122203168D01*
X156563040Y-122203168D01*
X156563040Y-121453168D01*
X157763040Y-121453168D01*
X157763040Y-121453168D01*
G37*
G04 #@! TD*
D10*
G04 #@! TO.C,D3*
X159163040Y-120578168D03*
D11*
G36*
X159763040Y-120203168D02*
X159763040Y-120953168D01*
X158563040Y-120953168D01*
X158563040Y-120203168D01*
X159763040Y-120203168D01*
X159763040Y-120203168D01*
G37*
D10*
X157163040Y-120578168D03*
D11*
G36*
X157763040Y-120203168D02*
X157763040Y-120953168D01*
X156563040Y-120953168D01*
X156563040Y-120203168D01*
X157763040Y-120203168D01*
X157763040Y-120203168D01*
G37*
G04 #@! TD*
D10*
G04 #@! TO.C,D4*
X157163040Y-119328168D03*
D11*
G36*
X157763040Y-118953168D02*
X157763040Y-119703168D01*
X156563040Y-119703168D01*
X156563040Y-118953168D01*
X157763040Y-118953168D01*
X157763040Y-118953168D01*
G37*
D10*
X159163040Y-119328168D03*
D11*
G36*
X159763040Y-118953168D02*
X159763040Y-119703168D01*
X158563040Y-119703168D01*
X158563040Y-118953168D01*
X159763040Y-118953168D01*
X159763040Y-118953168D01*
G37*
G04 #@! TD*
D10*
G04 #@! TO.C,D5*
X157163040Y-123078168D03*
D11*
G36*
X157763040Y-122703168D02*
X157763040Y-123453168D01*
X156563040Y-123453168D01*
X156563040Y-122703168D01*
X157763040Y-122703168D01*
X157763040Y-122703168D01*
G37*
D10*
X159163040Y-123078168D03*
D11*
G36*
X159763040Y-122703168D02*
X159763040Y-123453168D01*
X158563040Y-123453168D01*
X158563040Y-122703168D01*
X159763040Y-122703168D01*
X159763040Y-122703168D01*
G37*
G04 #@! TD*
D12*
G04 #@! TO.C,J2*
X96200000Y-44960000D03*
X96850000Y-44960000D03*
X97500000Y-44960000D03*
X98150000Y-44960000D03*
X98800000Y-44960000D03*
D13*
X95037500Y-44600000D03*
X99962500Y-44600000D03*
D14*
X94590000Y-42300000D03*
X100410000Y-42300000D03*
D15*
X96660000Y-42300000D03*
X98340000Y-42300000D03*
G04 #@! TD*
D16*
G04 #@! TO.C,U3*
X122550000Y-121850000D03*
X122550000Y-122650000D03*
X122550000Y-123450000D03*
X122550000Y-124250000D03*
X122550000Y-125050000D03*
X122550000Y-125850000D03*
X122550000Y-126650000D03*
X122550000Y-127450000D03*
X122550000Y-128250000D03*
X122550000Y-129050000D03*
X122550000Y-129850000D03*
D17*
X120850000Y-131550000D03*
X120050000Y-131550000D03*
X119250000Y-131550000D03*
X118450000Y-131550000D03*
X117650000Y-131550000D03*
X116850000Y-131550000D03*
X116050000Y-131550000D03*
X115250000Y-131550000D03*
X114450000Y-131550000D03*
X113650000Y-131550000D03*
X112850000Y-131550000D03*
D16*
X111150000Y-129850000D03*
X111150000Y-129050000D03*
X111150000Y-128250000D03*
X111150000Y-127450000D03*
X111150000Y-126650000D03*
X111150000Y-125850000D03*
X111150000Y-125050000D03*
X111150000Y-124250000D03*
X111150000Y-123450000D03*
X111150000Y-122650000D03*
X111150000Y-121850000D03*
D17*
X112850000Y-120150000D03*
X113650000Y-120150000D03*
X114450000Y-120150000D03*
X115250000Y-120150000D03*
X116050000Y-120150000D03*
X116850000Y-120150000D03*
X117650000Y-120150000D03*
X118450000Y-120150000D03*
X119250000Y-120150000D03*
X120050000Y-120150000D03*
X120850000Y-120150000D03*
G04 #@! TD*
D10*
G04 #@! TO.C,R17*
X155363040Y-121828168D03*
D11*
G36*
X154763040Y-122203168D02*
X154763040Y-121453168D01*
X155963040Y-121453168D01*
X155963040Y-122203168D01*
X154763040Y-122203168D01*
X154763040Y-122203168D01*
G37*
D10*
X153363040Y-121828168D03*
D11*
G36*
X152763040Y-122203168D02*
X152763040Y-121453168D01*
X153963040Y-121453168D01*
X153963040Y-122203168D01*
X152763040Y-122203168D01*
X152763040Y-122203168D01*
G37*
G04 #@! TD*
D10*
G04 #@! TO.C,R18*
X153363040Y-120578168D03*
D11*
G36*
X152763040Y-120953168D02*
X152763040Y-120203168D01*
X153963040Y-120203168D01*
X153963040Y-120953168D01*
X152763040Y-120953168D01*
X152763040Y-120953168D01*
G37*
D10*
X155363040Y-120578168D03*
D11*
G36*
X154763040Y-120953168D02*
X154763040Y-120203168D01*
X155963040Y-120203168D01*
X155963040Y-120953168D01*
X154763040Y-120953168D01*
X154763040Y-120953168D01*
G37*
G04 #@! TD*
D10*
G04 #@! TO.C,R19*
X153363040Y-119328168D03*
D11*
G36*
X152763040Y-119703168D02*
X152763040Y-118953168D01*
X153963040Y-118953168D01*
X153963040Y-119703168D01*
X152763040Y-119703168D01*
X152763040Y-119703168D01*
G37*
D10*
X155363040Y-119328168D03*
D11*
G36*
X154763040Y-119703168D02*
X154763040Y-118953168D01*
X155963040Y-118953168D01*
X155963040Y-119703168D01*
X154763040Y-119703168D01*
X154763040Y-119703168D01*
G37*
G04 #@! TD*
D10*
G04 #@! TO.C,R20*
X155363040Y-123078168D03*
D11*
G36*
X154763040Y-123453168D02*
X154763040Y-122703168D01*
X155963040Y-122703168D01*
X155963040Y-123453168D01*
X154763040Y-123453168D01*
X154763040Y-123453168D01*
G37*
D10*
X153363040Y-123078168D03*
D11*
G36*
X152763040Y-123453168D02*
X152763040Y-122703168D01*
X153963040Y-122703168D01*
X153963040Y-123453168D01*
X152763040Y-123453168D01*
X152763040Y-123453168D01*
G37*
G04 #@! TD*
D10*
G04 #@! TO.C,R9*
X82000000Y-133050000D03*
D11*
G36*
X82375000Y-133650000D02*
X81625000Y-133650000D01*
X81625000Y-132450000D01*
X82375000Y-132450000D01*
X82375000Y-133650000D01*
X82375000Y-133650000D01*
G37*
D10*
X82000000Y-131050000D03*
D11*
G36*
X82375000Y-131650000D02*
X81625000Y-131650000D01*
X81625000Y-130450000D01*
X82375000Y-130450000D01*
X82375000Y-131650000D01*
X82375000Y-131650000D01*
G37*
G04 #@! TD*
D10*
G04 #@! TO.C,R11*
X108100000Y-131758348D03*
D11*
G36*
X107725000Y-131158348D02*
X108475000Y-131158348D01*
X108475000Y-132358348D01*
X107725000Y-132358348D01*
X107725000Y-131158348D01*
X107725000Y-131158348D01*
G37*
D10*
X108100000Y-129758348D03*
D11*
G36*
X107725000Y-129158348D02*
X108475000Y-129158348D01*
X108475000Y-130358348D01*
X107725000Y-130358348D01*
X107725000Y-129158348D01*
X107725000Y-129158348D01*
G37*
G04 #@! TD*
D10*
G04 #@! TO.C,R13*
X151300000Y-131350000D03*
D11*
G36*
X151675000Y-131950000D02*
X150925000Y-131950000D01*
X150925000Y-130750000D01*
X151675000Y-130750000D01*
X151675000Y-131950000D01*
X151675000Y-131950000D01*
G37*
D10*
X151300000Y-133350000D03*
D11*
G36*
X151675000Y-133950000D02*
X150925000Y-133950000D01*
X150925000Y-132750000D01*
X151675000Y-132750000D01*
X151675000Y-133950000D01*
X151675000Y-133950000D01*
G37*
G04 #@! TD*
D10*
G04 #@! TO.C,R14*
X162750000Y-120300000D03*
D11*
G36*
X162375000Y-119700000D02*
X163125000Y-119700000D01*
X163125000Y-120900000D01*
X162375000Y-120900000D01*
X162375000Y-119700000D01*
X162375000Y-119700000D01*
G37*
D10*
X162750000Y-122300000D03*
D11*
G36*
X162375000Y-121700000D02*
X163125000Y-121700000D01*
X163125000Y-122900000D01*
X162375000Y-122900000D01*
X162375000Y-121700000D01*
X162375000Y-121700000D01*
G37*
G04 #@! TD*
D10*
G04 #@! TO.C,R15*
X165550000Y-122300000D03*
D11*
G36*
X165175000Y-121700000D02*
X165925000Y-121700000D01*
X165925000Y-122900000D01*
X165175000Y-122900000D01*
X165175000Y-121700000D01*
X165175000Y-121700000D01*
G37*
D10*
X165550000Y-120300000D03*
D11*
G36*
X165175000Y-119700000D02*
X165925000Y-119700000D01*
X165925000Y-120900000D01*
X165175000Y-120900000D01*
X165175000Y-119700000D01*
X165175000Y-119700000D01*
G37*
G04 #@! TD*
D10*
G04 #@! TO.C,R16*
X154400000Y-128500000D03*
D11*
G36*
X154025000Y-127900000D02*
X154775000Y-127900000D01*
X154775000Y-129100000D01*
X154025000Y-129100000D01*
X154025000Y-127900000D01*
X154025000Y-127900000D01*
G37*
D10*
X154400000Y-130500000D03*
D11*
G36*
X154025000Y-129900000D02*
X154775000Y-129900000D01*
X154775000Y-131100000D01*
X154025000Y-131100000D01*
X154025000Y-129900000D01*
X154025000Y-129900000D01*
G37*
G04 #@! TD*
D10*
G04 #@! TO.C,R21*
X107300000Y-121850000D03*
D11*
G36*
X107900000Y-121475000D02*
X107900000Y-122225000D01*
X106700000Y-122225000D01*
X106700000Y-121475000D01*
X107900000Y-121475000D01*
X107900000Y-121475000D01*
G37*
D10*
X109300000Y-121850000D03*
D11*
G36*
X109900000Y-121475000D02*
X109900000Y-122225000D01*
X108700000Y-122225000D01*
X108700000Y-121475000D01*
X109900000Y-121475000D01*
X109900000Y-121475000D01*
G37*
G04 #@! TD*
D10*
G04 #@! TO.C,R24*
X98900000Y-49850000D03*
D11*
G36*
X98300000Y-50225000D02*
X98300000Y-49475000D01*
X99500000Y-49475000D01*
X99500000Y-50225000D01*
X98300000Y-50225000D01*
X98300000Y-50225000D01*
G37*
D10*
X96900000Y-49850000D03*
D11*
G36*
X96300000Y-50225000D02*
X96300000Y-49475000D01*
X97500000Y-49475000D01*
X97500000Y-50225000D01*
X96300000Y-50225000D01*
X96300000Y-50225000D01*
G37*
G04 #@! TD*
M02*
