M48
;DRILL file {KiCad (5.0.2)-1} date 2020/04/01 0:19:20
;FORMAT={-:-/ absolute / metric / decimal}
FMAT,2
METRIC,TZ
T1C0.400
T2C0.600
T3C0.900
T4C1.000
T5C1.100
T6C1.200
T7C1.500
%
G90
G05
T1
X45.35Y-128.15
X46.35Y-128.65
X46.8Y-57.7
X47.05Y-122.45
X47.45Y-114.6
X47.694Y-128.749
X49.8Y-77.2
X51.2Y-97.863
X52.3Y-119.3
X54.8Y-127.4
X62.887Y-120.011
X63.355Y-125.012
X65.3Y-116.85
X73.3Y-134.05
X92.896Y-132.864
X95.1Y-50.45
X96.95Y-54.05
X97.6Y-48.45
X98.5Y-47.75
X100.05Y-59.3
X100.65Y-53.2
X105.Y-133.575
X105.295Y-132.074
X108.3Y-126.65
X108.4Y-119.95
X109.238Y-132.25
X112.499Y-122.152
X112.85Y-130.3
X113.182Y-129.26
X113.564Y-118.991
X114.05Y-123.95
X114.05Y-125.9
X114.07Y-128.585
X114.3Y-124.932
X119.4Y-115.35
X120.563Y-116.382
X121.Y-129.4
X122.6Y-131.7
X122.8Y-130.65
X123.65Y-120.
X124.184Y-132.075
X124.6Y-120.8
X124.91Y-128.365
X125.45Y-115.65
X126.45Y-120.05
X131.9Y-120.7
X132.Y-121.75
X135.2Y-117.85
X136.1Y-117.
X137.1Y-116.05
X137.75Y-59.
X137.85Y-115.25
X145.18Y-133.725
X146.7Y-134.575
X148.1Y-118.578
X151.3Y-117.603
X152.05Y-122.75
X155.906Y-115.
X155.926Y-113.926
X158.05Y-114.195
X160.7Y-119.3
T2
X109.634Y-107.15
X109.65Y-107.15
X111.65Y-107.15
X111.65Y-107.15
X157.734Y-88.1
X157.75Y-88.1
X159.75Y-88.1
X159.75Y-88.1
X115.134Y-69.05
X115.15Y-69.05
X117.15Y-69.05
X117.15Y-69.05
X90.584Y-107.15
X90.6Y-107.15
X92.6Y-107.15
X92.6Y-107.15
X53.484Y-69.05
X53.5Y-69.05
X55.5Y-69.05
X55.5Y-69.05
X144.234Y-50.
X144.25Y-50.
X146.25Y-50.
X146.25Y-50.
X100.584Y-88.1
X100.6Y-88.1
X102.6Y-88.1
X102.6Y-88.1
X73.284Y-126.2
X73.3Y-126.2
X75.3Y-126.2
X75.3Y-126.2
X119.634Y-88.1
X119.65Y-88.1
X121.65Y-88.1
X121.65Y-88.1
X96.084Y-69.05
X96.1Y-69.05
X98.1Y-69.05
X98.1Y-69.05
X81.534Y-88.1
X81.55Y-88.1
X83.55Y-88.1
X83.55Y-88.1
X147.734Y-107.15
X147.75Y-107.15
X149.75Y-107.15
X149.75Y-107.15
X106.134Y-50.
X106.15Y-50.
X108.15Y-50.
X108.15Y-50.
X55.734Y-88.1
X55.75Y-88.1
X57.75Y-88.1
X57.75Y-88.1
X98.984Y-126.2
X99.Y-126.2
X101.Y-126.2
X101.Y-126.2
X77.034Y-69.05
X77.05Y-69.05
X79.05Y-69.05
X79.05Y-69.05
X60.234Y-107.15
X60.25Y-107.15
X62.25Y-107.15
X62.25Y-107.15
X153.234Y-69.05
X153.25Y-69.05
X155.25Y-69.05
X155.25Y-69.05
X48.984Y-50.
X49.Y-50.
X51.Y-50.
X51.Y-50.
X134.184Y-69.05
X134.2Y-69.05
X136.2Y-69.05
X136.2Y-69.05
X128.684Y-107.15
X128.7Y-107.15
X130.7Y-107.15
X130.7Y-107.15
X125.184Y-50.
X125.2Y-50.
X127.2Y-50.
X127.2Y-50.
X87.084Y-50.
X87.1Y-50.
X89.1Y-50.
X89.1Y-50.
X141.984Y-126.2
X142.Y-126.2
X144.Y-126.2
X144.Y-126.2
X166.784Y-107.15
X166.8Y-107.15
X168.8Y-107.15
X168.8Y-107.15
X138.684Y-88.1
X138.7Y-88.1
X140.7Y-88.1
X140.7Y-88.1
X68.034Y-50.
X68.05Y-50.
X70.05Y-50.
X70.05Y-50.
T3
X154.35Y-125.55
X154.35Y-133.17
T4
X84.67Y-129.11
X84.67Y-131.65
X87.21Y-129.11
X87.21Y-131.65
X89.75Y-129.11
X89.75Y-131.65
T5
X158.35Y-126.35
X158.35Y-132.85
X162.85Y-126.35
X162.85Y-132.85
T6
X135.75Y-42.5
X135.75Y-49.5
T7
X131.065Y-126.635
X131.065Y-131.535
T2
X133.55Y-43.85G85X133.55Y-44.75
G05
X133.55Y-46.85G85X133.55Y-47.75
G05
X133.55Y-50.85G85X133.55Y-51.75
G05
X137.85Y-52.35G85X137.85Y-53.25
G05
T0
M30
