G04 #@! TF.GenerationSoftware,KiCad,Pcbnew,(5.0.2)-1*
G04 #@! TF.CreationDate,2020-04-01T00:19:12+09:00*
G04 #@! TF.ProjectId,eckeyboard,65636b65-7962-46f6-9172-642e6b696361,rev?*
G04 #@! TF.SameCoordinates,Original*
G04 #@! TF.FileFunction,Copper,L2,Bot*
G04 #@! TF.FilePolarity,Positive*
%FSLAX46Y46*%
G04 Gerber Fmt 4.6, Leading zero omitted, Abs format (unit mm)*
G04 Created by KiCad (PCBNEW (5.0.2)-1) date 2020/04/01 0:19:12*
%MOMM*%
%LPD*%
G01*
G04 APERTURE LIST*
G04 #@! TA.AperFunction,SMDPad,CuDef*
%ADD10C,0.750000*%
G04 #@! TD*
G04 #@! TA.AperFunction,Conductor*
%ADD11C,0.100000*%
G04 #@! TD*
G04 #@! TA.AperFunction,ComponentPad*
%ADD12R,1.800000X1.800000*%
G04 #@! TD*
G04 #@! TA.AperFunction,ComponentPad*
%ADD13O,1.800000X1.800000*%
G04 #@! TD*
G04 #@! TA.AperFunction,ComponentPad*
%ADD14R,1.700000X1.700000*%
G04 #@! TD*
G04 #@! TA.AperFunction,ComponentPad*
%ADD15O,1.700000X1.700000*%
G04 #@! TD*
G04 #@! TA.AperFunction,SMDPad,CuDef*
%ADD16R,0.450000X1.380000*%
G04 #@! TD*
G04 #@! TA.AperFunction,SMDPad,CuDef*
%ADD17R,1.475000X2.100000*%
G04 #@! TD*
G04 #@! TA.AperFunction,SMDPad,CuDef*
%ADD18R,2.375000X1.900000*%
G04 #@! TD*
G04 #@! TA.AperFunction,SMDPad,CuDef*
%ADD19R,1.175000X1.900000*%
G04 #@! TD*
G04 #@! TA.AperFunction,ComponentPad*
%ADD20C,2.000000*%
G04 #@! TD*
G04 #@! TA.AperFunction,ComponentPad*
%ADD21C,1.000000*%
G04 #@! TD*
G04 #@! TA.AperFunction,SMDPad,CuDef*
%ADD22R,1.500000X0.550000*%
G04 #@! TD*
G04 #@! TA.AperFunction,SMDPad,CuDef*
%ADD23R,0.550000X1.500000*%
G04 #@! TD*
G04 #@! TA.AperFunction,ComponentPad*
%ADD24C,2.300000*%
G04 #@! TD*
G04 #@! TA.AperFunction,ComponentPad*
%ADD25O,1.000000X2.500000*%
G04 #@! TD*
G04 #@! TA.AperFunction,ComponentPad*
%ADD26O,1.000000X2.700000*%
G04 #@! TD*
G04 #@! TA.AperFunction,ComponentPad*
%ADD27C,1.200000*%
G04 #@! TD*
G04 #@! TA.AperFunction,ViaPad*
%ADD28C,0.800000*%
G04 #@! TD*
G04 #@! TA.AperFunction,Conductor*
%ADD29C,0.500000*%
G04 #@! TD*
G04 #@! TA.AperFunction,Conductor*
%ADD30C,0.300000*%
G04 #@! TD*
G04 #@! TA.AperFunction,Conductor*
%ADD31C,0.254000*%
G04 #@! TD*
G04 APERTURE END LIST*
D10*
G04 #@! TO.P,C11,2*
G04 #@! TO.N,GND*
X126650000Y-127215207D03*
D11*
G04 #@! TD*
G04 #@! TO.N,GND*
G04 #@! TO.C,C11*
G36*
X126050000Y-127590207D02*
X126050000Y-126840207D01*
X127250000Y-126840207D01*
X127250000Y-127590207D01*
X126050000Y-127590207D01*
X126050000Y-127590207D01*
G37*
D10*
G04 #@! TO.P,C11,1*
G04 #@! TO.N,+5V*
X124650000Y-127215207D03*
D11*
G04 #@! TD*
G04 #@! TO.N,+5V*
G04 #@! TO.C,C11*
G36*
X124050000Y-127590207D02*
X124050000Y-126840207D01*
X125250000Y-126840207D01*
X125250000Y-127590207D01*
X124050000Y-127590207D01*
X124050000Y-127590207D01*
G37*
D10*
G04 #@! TO.P,C2,1*
G04 #@! TO.N,COL0*
X80700000Y-133050000D03*
D11*
G04 #@! TD*
G04 #@! TO.N,COL0*
G04 #@! TO.C,C2*
G36*
X81075000Y-133650000D02*
X80325000Y-133650000D01*
X80325000Y-132450000D01*
X81075000Y-132450000D01*
X81075000Y-133650000D01*
X81075000Y-133650000D01*
G37*
D10*
G04 #@! TO.P,C2,2*
G04 #@! TO.N,GND*
X80700000Y-131050000D03*
D11*
G04 #@! TD*
G04 #@! TO.N,GND*
G04 #@! TO.C,C2*
G36*
X81075000Y-131650000D02*
X80325000Y-131650000D01*
X80325000Y-130450000D01*
X81075000Y-130450000D01*
X81075000Y-131650000D01*
X81075000Y-131650000D01*
G37*
D10*
G04 #@! TO.P,C3,2*
G04 #@! TO.N,GND*
X106900000Y-131758348D03*
D11*
G04 #@! TD*
G04 #@! TO.N,GND*
G04 #@! TO.C,C3*
G36*
X106525000Y-131158348D02*
X107275000Y-131158348D01*
X107275000Y-132358348D01*
X106525000Y-132358348D01*
X106525000Y-131158348D01*
X106525000Y-131158348D01*
G37*
D10*
G04 #@! TO.P,C3,1*
G04 #@! TO.N,COL1*
X106900000Y-129758348D03*
D11*
G04 #@! TD*
G04 #@! TO.N,COL1*
G04 #@! TO.C,C3*
G36*
X106525000Y-129158348D02*
X107275000Y-129158348D01*
X107275000Y-130358348D01*
X106525000Y-130358348D01*
X106525000Y-129158348D01*
X106525000Y-129158348D01*
G37*
D10*
G04 #@! TO.P,C5,1*
G04 #@! TO.N,COL3*
X150050000Y-133350000D03*
D11*
G04 #@! TD*
G04 #@! TO.N,COL3*
G04 #@! TO.C,C5*
G36*
X150425000Y-133950000D02*
X149675000Y-133950000D01*
X149675000Y-132750000D01*
X150425000Y-132750000D01*
X150425000Y-133950000D01*
X150425000Y-133950000D01*
G37*
D10*
G04 #@! TO.P,C5,2*
G04 #@! TO.N,GND*
X150050000Y-131350000D03*
D11*
G04 #@! TD*
G04 #@! TO.N,GND*
G04 #@! TO.C,C5*
G36*
X150425000Y-131950000D02*
X149675000Y-131950000D01*
X149675000Y-130750000D01*
X150425000Y-130750000D01*
X150425000Y-131950000D01*
X150425000Y-131950000D01*
G37*
D10*
G04 #@! TO.P,C6,2*
G04 #@! TO.N,GND*
X163950000Y-122300000D03*
D11*
G04 #@! TD*
G04 #@! TO.N,GND*
G04 #@! TO.C,C6*
G36*
X163575000Y-121700000D02*
X164325000Y-121700000D01*
X164325000Y-122900000D01*
X163575000Y-122900000D01*
X163575000Y-121700000D01*
X163575000Y-121700000D01*
G37*
D10*
G04 #@! TO.P,C6,1*
G04 #@! TO.N,COL4*
X163950000Y-120300000D03*
D11*
G04 #@! TD*
G04 #@! TO.N,COL4*
G04 #@! TO.C,C6*
G36*
X163575000Y-119700000D02*
X164325000Y-119700000D01*
X164325000Y-120900000D01*
X163575000Y-120900000D01*
X163575000Y-119700000D01*
X163575000Y-119700000D01*
G37*
D10*
G04 #@! TO.P,C7,2*
G04 #@! TO.N,GND*
X166750000Y-122300000D03*
D11*
G04 #@! TD*
G04 #@! TO.N,GND*
G04 #@! TO.C,C7*
G36*
X166375000Y-121700000D02*
X167125000Y-121700000D01*
X167125000Y-122900000D01*
X166375000Y-122900000D01*
X166375000Y-121700000D01*
X166375000Y-121700000D01*
G37*
D10*
G04 #@! TO.P,C7,1*
G04 #@! TO.N,COL5*
X166750000Y-120300000D03*
D11*
G04 #@! TD*
G04 #@! TO.N,COL5*
G04 #@! TO.C,C7*
G36*
X166375000Y-119700000D02*
X167125000Y-119700000D01*
X167125000Y-120900000D01*
X166375000Y-120900000D01*
X166375000Y-119700000D01*
X166375000Y-119700000D01*
G37*
D10*
G04 #@! TO.P,C8,1*
G04 #@! TO.N,Net-(C8-Pad1)*
X134050000Y-132500000D03*
D11*
G04 #@! TD*
G04 #@! TO.N,Net-(C8-Pad1)*
G04 #@! TO.C,C8*
G36*
X134425000Y-133100000D02*
X133675000Y-133100000D01*
X133675000Y-131900000D01*
X134425000Y-131900000D01*
X134425000Y-133100000D01*
X134425000Y-133100000D01*
G37*
D10*
G04 #@! TO.P,C8,2*
G04 #@! TO.N,GND*
X134050000Y-130500000D03*
D11*
G04 #@! TD*
G04 #@! TO.N,GND*
G04 #@! TO.C,C8*
G36*
X134425000Y-131100000D02*
X133675000Y-131100000D01*
X133675000Y-129900000D01*
X134425000Y-129900000D01*
X134425000Y-131100000D01*
X134425000Y-131100000D01*
G37*
D10*
G04 #@! TO.P,C9,1*
G04 #@! TO.N,Net-(C9-Pad1)*
X134100000Y-126100000D03*
D11*
G04 #@! TD*
G04 #@! TO.N,Net-(C9-Pad1)*
G04 #@! TO.C,C9*
G36*
X133725000Y-125500000D02*
X134475000Y-125500000D01*
X134475000Y-126700000D01*
X133725000Y-126700000D01*
X133725000Y-125500000D01*
X133725000Y-125500000D01*
G37*
D10*
G04 #@! TO.P,C9,2*
G04 #@! TO.N,GND*
X134100000Y-128100000D03*
D11*
G04 #@! TD*
G04 #@! TO.N,GND*
G04 #@! TO.C,C9*
G36*
X133725000Y-127500000D02*
X134475000Y-127500000D01*
X134475000Y-128700000D01*
X133725000Y-128700000D01*
X133725000Y-127500000D01*
X133725000Y-127500000D01*
G37*
D10*
G04 #@! TO.P,C10,1*
G04 #@! TO.N,Net-(C10-Pad1)*
X119315063Y-118265207D03*
D11*
G04 #@! TD*
G04 #@! TO.N,Net-(C10-Pad1)*
G04 #@! TO.C,C10*
G36*
X119690063Y-118865207D02*
X118940063Y-118865207D01*
X118940063Y-117665207D01*
X119690063Y-117665207D01*
X119690063Y-118865207D01*
X119690063Y-118865207D01*
G37*
D10*
G04 #@! TO.P,C10,2*
G04 #@! TO.N,GND*
X119315063Y-116265207D03*
D11*
G04 #@! TD*
G04 #@! TO.N,GND*
G04 #@! TO.C,C10*
G36*
X119690063Y-116865207D02*
X118940063Y-116865207D01*
X118940063Y-115665207D01*
X119690063Y-115665207D01*
X119690063Y-116865207D01*
X119690063Y-116865207D01*
G37*
D10*
G04 #@! TO.P,C12,1*
G04 #@! TO.N,Net-(C12-Pad1)*
X124650000Y-126115207D03*
D11*
G04 #@! TD*
G04 #@! TO.N,Net-(C12-Pad1)*
G04 #@! TO.C,C12*
G36*
X124050000Y-126490207D02*
X124050000Y-125740207D01*
X125250000Y-125740207D01*
X125250000Y-126490207D01*
X124050000Y-126490207D01*
X124050000Y-126490207D01*
G37*
D10*
G04 #@! TO.P,C12,2*
G04 #@! TO.N,GND*
X126650000Y-126115207D03*
D11*
G04 #@! TD*
G04 #@! TO.N,GND*
G04 #@! TO.C,C12*
G36*
X126050000Y-126490207D02*
X126050000Y-125740207D01*
X127250000Y-125740207D01*
X127250000Y-126490207D01*
X126050000Y-126490207D01*
X126050000Y-126490207D01*
G37*
D10*
G04 #@! TO.P,C13,1*
G04 #@! TO.N,GND*
X124086416Y-118382178D03*
D11*
G04 #@! TD*
G04 #@! TO.N,GND*
G04 #@! TO.C,C13*
G36*
X124686416Y-118007178D02*
X124686416Y-118757178D01*
X123486416Y-118757178D01*
X123486416Y-118007178D01*
X124686416Y-118007178D01*
X124686416Y-118007178D01*
G37*
D10*
G04 #@! TO.P,C13,2*
G04 #@! TO.N,+5V*
X122086416Y-118382178D03*
D11*
G04 #@! TD*
G04 #@! TO.N,+5V*
G04 #@! TO.C,C13*
G36*
X122686416Y-118007178D02*
X122686416Y-118757178D01*
X121486416Y-118757178D01*
X121486416Y-118007178D01*
X122686416Y-118007178D01*
X122686416Y-118007178D01*
G37*
D10*
G04 #@! TO.P,C14,2*
G04 #@! TO.N,+5V*
X122101623Y-117117115D03*
D11*
G04 #@! TD*
G04 #@! TO.N,+5V*
G04 #@! TO.C,C14*
G36*
X122701623Y-116742115D02*
X122701623Y-117492115D01*
X121501623Y-117492115D01*
X121501623Y-116742115D01*
X122701623Y-116742115D01*
X122701623Y-116742115D01*
G37*
D10*
G04 #@! TO.P,C14,1*
G04 #@! TO.N,GND*
X124101623Y-117117115D03*
D11*
G04 #@! TD*
G04 #@! TO.N,GND*
G04 #@! TO.C,C14*
G36*
X124701623Y-116742115D02*
X124701623Y-117492115D01*
X123501623Y-117492115D01*
X123501623Y-116742115D01*
X124701623Y-116742115D01*
X124701623Y-116742115D01*
G37*
D10*
G04 #@! TO.P,C15,1*
G04 #@! TO.N,+5V*
X96900000Y-51050000D03*
D11*
G04 #@! TD*
G04 #@! TO.N,+5V*
G04 #@! TO.C,C15*
G36*
X96300000Y-51425000D02*
X96300000Y-50675000D01*
X97500000Y-50675000D01*
X97500000Y-51425000D01*
X96300000Y-51425000D01*
X96300000Y-51425000D01*
G37*
D10*
G04 #@! TO.P,C15,2*
G04 #@! TO.N,GND*
X98900000Y-51050000D03*
D11*
G04 #@! TD*
G04 #@! TO.N,GND*
G04 #@! TO.C,C15*
G36*
X98300000Y-51425000D02*
X98300000Y-50675000D01*
X99500000Y-50675000D01*
X99500000Y-51425000D01*
X98300000Y-51425000D01*
X98300000Y-51425000D01*
G37*
D10*
G04 #@! TO.P,C16,2*
G04 #@! TO.N,GND*
X98900000Y-52250000D03*
D11*
G04 #@! TD*
G04 #@! TO.N,GND*
G04 #@! TO.C,C16*
G36*
X98300000Y-52625000D02*
X98300000Y-51875000D01*
X99500000Y-51875000D01*
X99500000Y-52625000D01*
X98300000Y-52625000D01*
X98300000Y-52625000D01*
G37*
D10*
G04 #@! TO.P,C16,1*
G04 #@! TO.N,+5V*
X96900000Y-52250000D03*
D11*
G04 #@! TD*
G04 #@! TO.N,+5V*
G04 #@! TO.C,C16*
G36*
X96300000Y-52625000D02*
X96300000Y-51875000D01*
X97500000Y-51875000D01*
X97500000Y-52625000D01*
X96300000Y-52625000D01*
X96300000Y-52625000D01*
G37*
D12*
G04 #@! TO.P,D1,1*
G04 #@! TO.N,+5V*
X154350000Y-125550000D03*
D13*
G04 #@! TO.P,D1,2*
G04 #@! TO.N,/ArduinoLayer/RESET*
X154350000Y-133170000D03*
G04 #@! TD*
D10*
G04 #@! TO.P,D2,1*
G04 #@! TO.N,GND*
X159163040Y-121828168D03*
D11*
G04 #@! TD*
G04 #@! TO.N,GND*
G04 #@! TO.C,D2*
G36*
X159763040Y-121453168D02*
X159763040Y-122203168D01*
X158563040Y-122203168D01*
X158563040Y-121453168D01*
X159763040Y-121453168D01*
X159763040Y-121453168D01*
G37*
D10*
G04 #@! TO.P,D2,2*
G04 #@! TO.N,Net-(D2-Pad2)*
X157163040Y-121828168D03*
D11*
G04 #@! TD*
G04 #@! TO.N,Net-(D2-Pad2)*
G04 #@! TO.C,D2*
G36*
X157763040Y-121453168D02*
X157763040Y-122203168D01*
X156563040Y-122203168D01*
X156563040Y-121453168D01*
X157763040Y-121453168D01*
X157763040Y-121453168D01*
G37*
D10*
G04 #@! TO.P,D3,1*
G04 #@! TO.N,GND*
X159163040Y-120578168D03*
D11*
G04 #@! TD*
G04 #@! TO.N,GND*
G04 #@! TO.C,D3*
G36*
X159763040Y-120203168D02*
X159763040Y-120953168D01*
X158563040Y-120953168D01*
X158563040Y-120203168D01*
X159763040Y-120203168D01*
X159763040Y-120203168D01*
G37*
D10*
G04 #@! TO.P,D3,2*
G04 #@! TO.N,Net-(D3-Pad2)*
X157163040Y-120578168D03*
D11*
G04 #@! TD*
G04 #@! TO.N,Net-(D3-Pad2)*
G04 #@! TO.C,D3*
G36*
X157763040Y-120203168D02*
X157763040Y-120953168D01*
X156563040Y-120953168D01*
X156563040Y-120203168D01*
X157763040Y-120203168D01*
X157763040Y-120203168D01*
G37*
D10*
G04 #@! TO.P,D4,2*
G04 #@! TO.N,Net-(D4-Pad2)*
X157163040Y-119328168D03*
D11*
G04 #@! TD*
G04 #@! TO.N,Net-(D4-Pad2)*
G04 #@! TO.C,D4*
G36*
X157763040Y-118953168D02*
X157763040Y-119703168D01*
X156563040Y-119703168D01*
X156563040Y-118953168D01*
X157763040Y-118953168D01*
X157763040Y-118953168D01*
G37*
D10*
G04 #@! TO.P,D4,1*
G04 #@! TO.N,GND*
X159163040Y-119328168D03*
D11*
G04 #@! TD*
G04 #@! TO.N,GND*
G04 #@! TO.C,D4*
G36*
X159763040Y-118953168D02*
X159763040Y-119703168D01*
X158563040Y-119703168D01*
X158563040Y-118953168D01*
X159763040Y-118953168D01*
X159763040Y-118953168D01*
G37*
D10*
G04 #@! TO.P,D5,2*
G04 #@! TO.N,Net-(D5-Pad2)*
X157163040Y-123078168D03*
D11*
G04 #@! TD*
G04 #@! TO.N,Net-(D5-Pad2)*
G04 #@! TO.C,D5*
G36*
X157763040Y-122703168D02*
X157763040Y-123453168D01*
X156563040Y-123453168D01*
X156563040Y-122703168D01*
X157763040Y-122703168D01*
X157763040Y-122703168D01*
G37*
D10*
G04 #@! TO.P,D5,1*
G04 #@! TO.N,GND*
X159163040Y-123078168D03*
D11*
G04 #@! TD*
G04 #@! TO.N,GND*
G04 #@! TO.C,D5*
G36*
X159763040Y-122703168D02*
X159763040Y-123453168D01*
X158563040Y-123453168D01*
X158563040Y-122703168D01*
X159763040Y-122703168D01*
X159763040Y-122703168D01*
G37*
D14*
G04 #@! TO.P,J1,1*
G04 #@! TO.N,/ArduinoLayer/MISO*
X89750000Y-131650000D03*
D15*
G04 #@! TO.P,J1,2*
G04 #@! TO.N,+5V*
X89750000Y-129110000D03*
G04 #@! TO.P,J1,3*
G04 #@! TO.N,/ArduinoLayer/SCK*
X87210000Y-131650000D03*
G04 #@! TO.P,J1,4*
G04 #@! TO.N,/ArduinoLayer/MOSI*
X87210000Y-129110000D03*
G04 #@! TO.P,J1,5*
G04 #@! TO.N,/ArduinoLayer/RESET*
X84670000Y-131650000D03*
G04 #@! TO.P,J1,6*
G04 #@! TO.N,GND*
X84670000Y-129110000D03*
G04 #@! TD*
D16*
G04 #@! TO.P,J2,1*
G04 #@! TO.N,+5V*
X96200000Y-44960000D03*
G04 #@! TO.P,J2,2*
G04 #@! TO.N,Net-(J2-Pad2)*
X96850000Y-44960000D03*
G04 #@! TO.P,J2,3*
G04 #@! TO.N,Net-(J2-Pad3)*
X97500000Y-44960000D03*
G04 #@! TO.P,J2,4*
G04 #@! TO.N,N/C*
X98150000Y-44960000D03*
G04 #@! TO.P,J2,5*
G04 #@! TO.N,GND*
X98800000Y-44960000D03*
D17*
G04 #@! TO.P,J2,6*
X95037500Y-44600000D03*
X99962500Y-44600000D03*
D18*
X94590000Y-42300000D03*
X100410000Y-42300000D03*
D19*
X96660000Y-42300000D03*
X98340000Y-42300000D03*
G04 #@! TD*
D20*
G04 #@! TO.P,SW1,2*
G04 #@! TO.N,/ArduinoLayer/RESET*
X158350000Y-132850000D03*
G04 #@! TO.P,SW1,1*
G04 #@! TO.N,GND*
X162850000Y-132850000D03*
G04 #@! TO.P,SW1,2*
G04 #@! TO.N,/ArduinoLayer/RESET*
X158350000Y-126350000D03*
G04 #@! TO.P,SW1,1*
G04 #@! TO.N,GND*
X162850000Y-126350000D03*
G04 #@! TD*
D21*
G04 #@! TO.P,TP1,2*
G04 #@! TO.N,/ROW0*
X48984000Y-50000000D03*
G04 #@! TO.P,TP1,1*
G04 #@! TO.N,COL0*
X51000000Y-50000000D03*
G04 #@! TD*
G04 #@! TO.P,TP2,2*
G04 #@! TO.N,/ROW1*
X53484000Y-69050000D03*
G04 #@! TO.P,TP2,1*
G04 #@! TO.N,COL0*
X55500000Y-69050000D03*
G04 #@! TD*
G04 #@! TO.P,TP3,2*
G04 #@! TO.N,/ROW2*
X55734000Y-88100000D03*
G04 #@! TO.P,TP3,1*
G04 #@! TO.N,COL0*
X57750000Y-88100000D03*
G04 #@! TD*
G04 #@! TO.P,TP4,1*
G04 #@! TO.N,COL1*
X70050000Y-50000000D03*
G04 #@! TO.P,TP4,2*
G04 #@! TO.N,/ROW0*
X68034000Y-50000000D03*
G04 #@! TD*
G04 #@! TO.P,TP5,2*
G04 #@! TO.N,/ROW1*
X77034000Y-69050000D03*
G04 #@! TO.P,TP5,1*
G04 #@! TO.N,COL1*
X79050000Y-69050000D03*
G04 #@! TD*
G04 #@! TO.P,TP6,1*
G04 #@! TO.N,COL1*
X83550000Y-88100000D03*
G04 #@! TO.P,TP6,2*
G04 #@! TO.N,/ROW2*
X81534000Y-88100000D03*
G04 #@! TD*
G04 #@! TO.P,TP7,1*
G04 #@! TO.N,COL2*
X89100000Y-50000000D03*
G04 #@! TO.P,TP7,2*
G04 #@! TO.N,/ROW0*
X87084000Y-50000000D03*
G04 #@! TD*
G04 #@! TO.P,TP8,2*
G04 #@! TO.N,/ROW1*
X96084000Y-69050000D03*
G04 #@! TO.P,TP8,1*
G04 #@! TO.N,COL2*
X98100000Y-69050000D03*
G04 #@! TD*
G04 #@! TO.P,TP9,1*
G04 #@! TO.N,COL2*
X102600000Y-88100000D03*
G04 #@! TO.P,TP9,2*
G04 #@! TO.N,/ROW2*
X100584000Y-88100000D03*
G04 #@! TD*
G04 #@! TO.P,TP10,1*
G04 #@! TO.N,COL0*
X62250000Y-107150000D03*
G04 #@! TO.P,TP10,2*
G04 #@! TO.N,/ROW3*
X60234000Y-107150000D03*
G04 #@! TD*
G04 #@! TO.P,TP11,1*
G04 #@! TO.N,COL0*
X75300000Y-126200000D03*
G04 #@! TO.P,TP11,2*
G04 #@! TO.N,/ROW4*
X73284000Y-126200000D03*
G04 #@! TD*
G04 #@! TO.P,TP12,2*
G04 #@! TO.N,/ROW3*
X90584000Y-107150000D03*
G04 #@! TO.P,TP12,1*
G04 #@! TO.N,COL1*
X92600000Y-107150000D03*
G04 #@! TD*
G04 #@! TO.P,TP13,2*
G04 #@! TO.N,/ROW4*
X98984000Y-126200000D03*
G04 #@! TO.P,TP13,1*
G04 #@! TO.N,COL1*
X101000000Y-126200000D03*
G04 #@! TD*
G04 #@! TO.P,TP14,1*
G04 #@! TO.N,COL2*
X111650000Y-107150000D03*
G04 #@! TO.P,TP14,2*
G04 #@! TO.N,/ROW3*
X109634000Y-107150000D03*
G04 #@! TD*
G04 #@! TO.P,TP15,1*
G04 #@! TO.N,COL3*
X108150000Y-50000000D03*
G04 #@! TO.P,TP15,2*
G04 #@! TO.N,/ROW0*
X106134000Y-50000000D03*
G04 #@! TD*
G04 #@! TO.P,TP16,1*
G04 #@! TO.N,COL3*
X117150000Y-69050000D03*
G04 #@! TO.P,TP16,2*
G04 #@! TO.N,/ROW1*
X115134000Y-69050000D03*
G04 #@! TD*
G04 #@! TO.P,TP17,2*
G04 #@! TO.N,/ROW2*
X119634000Y-88100000D03*
G04 #@! TO.P,TP17,1*
G04 #@! TO.N,COL3*
X121650000Y-88100000D03*
G04 #@! TD*
G04 #@! TO.P,TP18,2*
G04 #@! TO.N,/ROW3*
X128684000Y-107150000D03*
G04 #@! TO.P,TP18,1*
G04 #@! TO.N,COL3*
X130700000Y-107150000D03*
G04 #@! TD*
G04 #@! TO.P,TP19,1*
G04 #@! TO.N,COL3*
X144000000Y-126200000D03*
G04 #@! TO.P,TP19,2*
G04 #@! TO.N,/ROW4*
X141984000Y-126200000D03*
G04 #@! TD*
G04 #@! TO.P,TP20,2*
G04 #@! TO.N,/ROW0*
X125184000Y-50000000D03*
G04 #@! TO.P,TP20,1*
G04 #@! TO.N,COL4*
X127200000Y-50000000D03*
G04 #@! TD*
G04 #@! TO.P,TP21,1*
G04 #@! TO.N,COL4*
X136200000Y-69050000D03*
G04 #@! TO.P,TP21,2*
G04 #@! TO.N,/ROW1*
X134184000Y-69050000D03*
G04 #@! TD*
G04 #@! TO.P,TP22,2*
G04 #@! TO.N,/ROW2*
X138684000Y-88100000D03*
G04 #@! TO.P,TP22,1*
G04 #@! TO.N,COL4*
X140700000Y-88100000D03*
G04 #@! TD*
G04 #@! TO.P,TP23,1*
G04 #@! TO.N,COL4*
X149750000Y-107150000D03*
G04 #@! TO.P,TP23,2*
G04 #@! TO.N,/ROW3*
X147734000Y-107150000D03*
G04 #@! TD*
G04 #@! TO.P,TP24,2*
G04 #@! TO.N,/ROW0*
X144234000Y-50000000D03*
G04 #@! TO.P,TP24,1*
G04 #@! TO.N,COL5*
X146250000Y-50000000D03*
G04 #@! TD*
G04 #@! TO.P,TP25,1*
G04 #@! TO.N,COL5*
X155250000Y-69050000D03*
G04 #@! TO.P,TP25,2*
G04 #@! TO.N,/ROW1*
X153234000Y-69050000D03*
G04 #@! TD*
G04 #@! TO.P,TP26,2*
G04 #@! TO.N,/ROW2*
X157734000Y-88100000D03*
G04 #@! TO.P,TP26,1*
G04 #@! TO.N,COL5*
X159750000Y-88100000D03*
G04 #@! TD*
G04 #@! TO.P,TP27,1*
G04 #@! TO.N,COL5*
X168800000Y-107150000D03*
G04 #@! TO.P,TP27,2*
G04 #@! TO.N,/ROW3*
X166784000Y-107150000D03*
G04 #@! TD*
D22*
G04 #@! TO.P,U3,1*
G04 #@! TO.N,N/C*
X122550000Y-121850000D03*
G04 #@! TO.P,U3,2*
G04 #@! TO.N,+5V*
X122550000Y-122650000D03*
G04 #@! TO.P,U3,3*
G04 #@! TO.N,/ArduinoLayer/D+*
X122550000Y-123450000D03*
G04 #@! TO.P,U3,4*
G04 #@! TO.N,/ArduinoLayer/D-*
X122550000Y-124250000D03*
G04 #@! TO.P,U3,5*
G04 #@! TO.N,GND*
X122550000Y-125050000D03*
G04 #@! TO.P,U3,6*
G04 #@! TO.N,Net-(C12-Pad1)*
X122550000Y-125850000D03*
G04 #@! TO.P,U3,7*
G04 #@! TO.N,+5V*
X122550000Y-126650000D03*
G04 #@! TO.P,U3,8*
G04 #@! TO.N,/ArduinoLayer/RXLED*
X122550000Y-127450000D03*
G04 #@! TO.P,U3,9*
G04 #@! TO.N,/ArduinoLayer/SCK*
X122550000Y-128250000D03*
G04 #@! TO.P,U3,10*
G04 #@! TO.N,/ArduinoLayer/MOSI*
X122550000Y-129050000D03*
G04 #@! TO.P,U3,11*
G04 #@! TO.N,/ArduinoLayer/MISO*
X122550000Y-129850000D03*
D23*
G04 #@! TO.P,U3,12*
G04 #@! TO.N,N/C*
X120850000Y-131550000D03*
G04 #@! TO.P,U3,13*
G04 #@! TO.N,/ArduinoLayer/RESET*
X120050000Y-131550000D03*
G04 #@! TO.P,U3,14*
G04 #@! TO.N,+5V*
X119250000Y-131550000D03*
G04 #@! TO.P,U3,15*
G04 #@! TO.N,GND*
X118450000Y-131550000D03*
G04 #@! TO.P,U3,16*
G04 #@! TO.N,Net-(C9-Pad1)*
X117650000Y-131550000D03*
G04 #@! TO.P,U3,17*
G04 #@! TO.N,Net-(C8-Pad1)*
X116850000Y-131550000D03*
G04 #@! TO.P,U3,18*
G04 #@! TO.N,N/C*
X116050000Y-131550000D03*
G04 #@! TO.P,U3,19*
X115250000Y-131550000D03*
G04 #@! TO.P,U3,20*
G04 #@! TO.N,/ArduinoLayer/Rx*
X114450000Y-131550000D03*
G04 #@! TO.P,U3,21*
G04 #@! TO.N,/ArduinoLayer/Tx*
X113650000Y-131550000D03*
G04 #@! TO.P,U3,22*
G04 #@! TO.N,/ArduinoLayer/TXLED*
X112850000Y-131550000D03*
D22*
G04 #@! TO.P,U3,23*
G04 #@! TO.N,GND*
X111150000Y-129850000D03*
G04 #@! TO.P,U3,24*
G04 #@! TO.N,+5V*
X111150000Y-129050000D03*
G04 #@! TO.P,U3,25*
G04 #@! TO.N,COL0*
X111150000Y-128250000D03*
G04 #@! TO.P,U3,26*
G04 #@! TO.N,COL1*
X111150000Y-127450000D03*
G04 #@! TO.P,U3,27*
G04 #@! TO.N,COL2*
X111150000Y-126650000D03*
G04 #@! TO.P,U3,28*
G04 #@! TO.N,COL3*
X111150000Y-125850000D03*
G04 #@! TO.P,U3,29*
G04 #@! TO.N,COL4*
X111150000Y-125050000D03*
G04 #@! TO.P,U3,30*
G04 #@! TO.N,COL5*
X111150000Y-124250000D03*
G04 #@! TO.P,U3,31*
G04 #@! TO.N,N/C*
X111150000Y-123450000D03*
G04 #@! TO.P,U3,32*
G04 #@! TO.N,/ArduinoLayer/CLKLED*
X111150000Y-122650000D03*
G04 #@! TO.P,U3,33*
G04 #@! TO.N,/ArduinoLayer/HWB*
X111150000Y-121850000D03*
D23*
G04 #@! TO.P,U3,34*
G04 #@! TO.N,+5V*
X112850000Y-120150000D03*
G04 #@! TO.P,U3,35*
G04 #@! TO.N,GND*
X113650000Y-120150000D03*
G04 #@! TO.P,U3,36*
G04 #@! TO.N,MUX_A*
X114450000Y-120150000D03*
G04 #@! TO.P,U3,37*
G04 #@! TO.N,MUX_B*
X115250000Y-120150000D03*
G04 #@! TO.P,U3,38*
G04 #@! TO.N,MUX_C*
X116050000Y-120150000D03*
G04 #@! TO.P,U3,39*
G04 #@! TO.N,MUX_EN*
X116850000Y-120150000D03*
G04 #@! TO.P,U3,40*
G04 #@! TO.N,DRAIN*
X117650000Y-120150000D03*
G04 #@! TO.P,U3,41*
G04 #@! TO.N,READ*
X118450000Y-120150000D03*
G04 #@! TO.P,U3,42*
G04 #@! TO.N,Net-(C10-Pad1)*
X119250000Y-120150000D03*
G04 #@! TO.P,U3,43*
G04 #@! TO.N,GND*
X120050000Y-120150000D03*
G04 #@! TO.P,U3,44*
G04 #@! TO.N,+5V*
X120850000Y-120150000D03*
G04 #@! TD*
D24*
G04 #@! TO.P,Y1,1*
G04 #@! TO.N,Net-(C8-Pad1)*
X131065207Y-131534937D03*
G04 #@! TO.P,Y1,2*
G04 #@! TO.N,Net-(C9-Pad1)*
X131065207Y-126634937D03*
G04 #@! TD*
D25*
G04 #@! TO.P,J3,S*
G04 #@! TO.N,GND*
X137850000Y-52800000D03*
G04 #@! TO.P,J3,T*
G04 #@! TO.N,+5V*
X133550000Y-51300000D03*
G04 #@! TO.P,J3,R1*
G04 #@! TO.N,/ArduinoLayer/Rx*
X133550000Y-47300000D03*
D26*
G04 #@! TO.P,J3,R2*
G04 #@! TO.N,/ArduinoLayer/Tx*
X133550000Y-44300000D03*
D27*
G04 #@! TO.P,J3,*
G04 #@! TO.N,*
X135750000Y-42500000D03*
X135750000Y-49500000D03*
G04 #@! TD*
D10*
G04 #@! TO.P,R17,2*
G04 #@! TO.N,Net-(D2-Pad2)*
X155363040Y-121828168D03*
D11*
G04 #@! TD*
G04 #@! TO.N,Net-(D2-Pad2)*
G04 #@! TO.C,R17*
G36*
X154763040Y-122203168D02*
X154763040Y-121453168D01*
X155963040Y-121453168D01*
X155963040Y-122203168D01*
X154763040Y-122203168D01*
X154763040Y-122203168D01*
G37*
D10*
G04 #@! TO.P,R17,1*
G04 #@! TO.N,/ArduinoLayer/CLKLED*
X153363040Y-121828168D03*
D11*
G04 #@! TD*
G04 #@! TO.N,/ArduinoLayer/CLKLED*
G04 #@! TO.C,R17*
G36*
X152763040Y-122203168D02*
X152763040Y-121453168D01*
X153963040Y-121453168D01*
X153963040Y-122203168D01*
X152763040Y-122203168D01*
X152763040Y-122203168D01*
G37*
D10*
G04 #@! TO.P,R18,1*
G04 #@! TO.N,/ArduinoLayer/RXLED*
X153363040Y-120578168D03*
D11*
G04 #@! TD*
G04 #@! TO.N,/ArduinoLayer/RXLED*
G04 #@! TO.C,R18*
G36*
X152763040Y-120953168D02*
X152763040Y-120203168D01*
X153963040Y-120203168D01*
X153963040Y-120953168D01*
X152763040Y-120953168D01*
X152763040Y-120953168D01*
G37*
D10*
G04 #@! TO.P,R18,2*
G04 #@! TO.N,Net-(D3-Pad2)*
X155363040Y-120578168D03*
D11*
G04 #@! TD*
G04 #@! TO.N,Net-(D3-Pad2)*
G04 #@! TO.C,R18*
G36*
X154763040Y-120953168D02*
X154763040Y-120203168D01*
X155963040Y-120203168D01*
X155963040Y-120953168D01*
X154763040Y-120953168D01*
X154763040Y-120953168D01*
G37*
D10*
G04 #@! TO.P,R19,1*
G04 #@! TO.N,/ArduinoLayer/TXLED*
X153363040Y-119328168D03*
D11*
G04 #@! TD*
G04 #@! TO.N,/ArduinoLayer/TXLED*
G04 #@! TO.C,R19*
G36*
X152763040Y-119703168D02*
X152763040Y-118953168D01*
X153963040Y-118953168D01*
X153963040Y-119703168D01*
X152763040Y-119703168D01*
X152763040Y-119703168D01*
G37*
D10*
G04 #@! TO.P,R19,2*
G04 #@! TO.N,Net-(D4-Pad2)*
X155363040Y-119328168D03*
D11*
G04 #@! TD*
G04 #@! TO.N,Net-(D4-Pad2)*
G04 #@! TO.C,R19*
G36*
X154763040Y-119703168D02*
X154763040Y-118953168D01*
X155963040Y-118953168D01*
X155963040Y-119703168D01*
X154763040Y-119703168D01*
X154763040Y-119703168D01*
G37*
D10*
G04 #@! TO.P,R20,2*
G04 #@! TO.N,Net-(D5-Pad2)*
X155363040Y-123078168D03*
D11*
G04 #@! TD*
G04 #@! TO.N,Net-(D5-Pad2)*
G04 #@! TO.C,R20*
G36*
X154763040Y-123453168D02*
X154763040Y-122703168D01*
X155963040Y-122703168D01*
X155963040Y-123453168D01*
X154763040Y-123453168D01*
X154763040Y-123453168D01*
G37*
D10*
G04 #@! TO.P,R20,1*
G04 #@! TO.N,+5V*
X153363040Y-123078168D03*
D11*
G04 #@! TD*
G04 #@! TO.N,+5V*
G04 #@! TO.C,R20*
G36*
X152763040Y-123453168D02*
X152763040Y-122703168D01*
X153963040Y-122703168D01*
X153963040Y-123453168D01*
X152763040Y-123453168D01*
X152763040Y-123453168D01*
G37*
D10*
G04 #@! TO.P,R9,1*
G04 #@! TO.N,COL0*
X82000000Y-133050000D03*
D11*
G04 #@! TD*
G04 #@! TO.N,COL0*
G04 #@! TO.C,R9*
G36*
X82375000Y-133650000D02*
X81625000Y-133650000D01*
X81625000Y-132450000D01*
X82375000Y-132450000D01*
X82375000Y-133650000D01*
X82375000Y-133650000D01*
G37*
D10*
G04 #@! TO.P,R9,2*
G04 #@! TO.N,GND*
X82000000Y-131050000D03*
D11*
G04 #@! TD*
G04 #@! TO.N,GND*
G04 #@! TO.C,R9*
G36*
X82375000Y-131650000D02*
X81625000Y-131650000D01*
X81625000Y-130450000D01*
X82375000Y-130450000D01*
X82375000Y-131650000D01*
X82375000Y-131650000D01*
G37*
D10*
G04 #@! TO.P,R11,2*
G04 #@! TO.N,GND*
X108100000Y-131758348D03*
D11*
G04 #@! TD*
G04 #@! TO.N,GND*
G04 #@! TO.C,R11*
G36*
X107725000Y-131158348D02*
X108475000Y-131158348D01*
X108475000Y-132358348D01*
X107725000Y-132358348D01*
X107725000Y-131158348D01*
X107725000Y-131158348D01*
G37*
D10*
G04 #@! TO.P,R11,1*
G04 #@! TO.N,COL1*
X108100000Y-129758348D03*
D11*
G04 #@! TD*
G04 #@! TO.N,COL1*
G04 #@! TO.C,R11*
G36*
X107725000Y-129158348D02*
X108475000Y-129158348D01*
X108475000Y-130358348D01*
X107725000Y-130358348D01*
X107725000Y-129158348D01*
X107725000Y-129158348D01*
G37*
D10*
G04 #@! TO.P,R13,2*
G04 #@! TO.N,GND*
X151300000Y-131350000D03*
D11*
G04 #@! TD*
G04 #@! TO.N,GND*
G04 #@! TO.C,R13*
G36*
X151675000Y-131950000D02*
X150925000Y-131950000D01*
X150925000Y-130750000D01*
X151675000Y-130750000D01*
X151675000Y-131950000D01*
X151675000Y-131950000D01*
G37*
D10*
G04 #@! TO.P,R13,1*
G04 #@! TO.N,COL3*
X151300000Y-133350000D03*
D11*
G04 #@! TD*
G04 #@! TO.N,COL3*
G04 #@! TO.C,R13*
G36*
X151675000Y-133950000D02*
X150925000Y-133950000D01*
X150925000Y-132750000D01*
X151675000Y-132750000D01*
X151675000Y-133950000D01*
X151675000Y-133950000D01*
G37*
D10*
G04 #@! TO.P,R14,1*
G04 #@! TO.N,COL4*
X162750000Y-120300000D03*
D11*
G04 #@! TD*
G04 #@! TO.N,COL4*
G04 #@! TO.C,R14*
G36*
X162375000Y-119700000D02*
X163125000Y-119700000D01*
X163125000Y-120900000D01*
X162375000Y-120900000D01*
X162375000Y-119700000D01*
X162375000Y-119700000D01*
G37*
D10*
G04 #@! TO.P,R14,2*
G04 #@! TO.N,GND*
X162750000Y-122300000D03*
D11*
G04 #@! TD*
G04 #@! TO.N,GND*
G04 #@! TO.C,R14*
G36*
X162375000Y-121700000D02*
X163125000Y-121700000D01*
X163125000Y-122900000D01*
X162375000Y-122900000D01*
X162375000Y-121700000D01*
X162375000Y-121700000D01*
G37*
D10*
G04 #@! TO.P,R15,2*
G04 #@! TO.N,GND*
X165550000Y-122300000D03*
D11*
G04 #@! TD*
G04 #@! TO.N,GND*
G04 #@! TO.C,R15*
G36*
X165175000Y-121700000D02*
X165925000Y-121700000D01*
X165925000Y-122900000D01*
X165175000Y-122900000D01*
X165175000Y-121700000D01*
X165175000Y-121700000D01*
G37*
D10*
G04 #@! TO.P,R15,1*
G04 #@! TO.N,COL5*
X165550000Y-120300000D03*
D11*
G04 #@! TD*
G04 #@! TO.N,COL5*
G04 #@! TO.C,R15*
G36*
X165175000Y-119700000D02*
X165925000Y-119700000D01*
X165925000Y-120900000D01*
X165175000Y-120900000D01*
X165175000Y-119700000D01*
X165175000Y-119700000D01*
G37*
D10*
G04 #@! TO.P,R16,1*
G04 #@! TO.N,+5V*
X154400000Y-128500000D03*
D11*
G04 #@! TD*
G04 #@! TO.N,+5V*
G04 #@! TO.C,R16*
G36*
X154025000Y-127900000D02*
X154775000Y-127900000D01*
X154775000Y-129100000D01*
X154025000Y-129100000D01*
X154025000Y-127900000D01*
X154025000Y-127900000D01*
G37*
D10*
G04 #@! TO.P,R16,2*
G04 #@! TO.N,/ArduinoLayer/RESET*
X154400000Y-130500000D03*
D11*
G04 #@! TD*
G04 #@! TO.N,/ArduinoLayer/RESET*
G04 #@! TO.C,R16*
G36*
X154025000Y-129900000D02*
X154775000Y-129900000D01*
X154775000Y-131100000D01*
X154025000Y-131100000D01*
X154025000Y-129900000D01*
X154025000Y-129900000D01*
G37*
D10*
G04 #@! TO.P,R21,2*
G04 #@! TO.N,GND*
X107300000Y-121850000D03*
D11*
G04 #@! TD*
G04 #@! TO.N,GND*
G04 #@! TO.C,R21*
G36*
X107900000Y-121475000D02*
X107900000Y-122225000D01*
X106700000Y-122225000D01*
X106700000Y-121475000D01*
X107900000Y-121475000D01*
X107900000Y-121475000D01*
G37*
D10*
G04 #@! TO.P,R21,1*
G04 #@! TO.N,/ArduinoLayer/HWB*
X109300000Y-121850000D03*
D11*
G04 #@! TD*
G04 #@! TO.N,/ArduinoLayer/HWB*
G04 #@! TO.C,R21*
G36*
X109900000Y-121475000D02*
X109900000Y-122225000D01*
X108700000Y-122225000D01*
X108700000Y-121475000D01*
X109900000Y-121475000D01*
X109900000Y-121475000D01*
G37*
D10*
G04 #@! TO.P,R24,2*
G04 #@! TO.N,GND*
X98900000Y-49850000D03*
D11*
G04 #@! TD*
G04 #@! TO.N,GND*
G04 #@! TO.C,R24*
G36*
X98300000Y-50225000D02*
X98300000Y-49475000D01*
X99500000Y-49475000D01*
X99500000Y-50225000D01*
X98300000Y-50225000D01*
X98300000Y-50225000D01*
G37*
D10*
G04 #@! TO.P,R24,1*
G04 #@! TO.N,+5V*
X96900000Y-49850000D03*
D11*
G04 #@! TD*
G04 #@! TO.N,+5V*
G04 #@! TO.C,R24*
G36*
X96300000Y-50225000D02*
X96300000Y-49475000D01*
X97500000Y-49475000D01*
X97500000Y-50225000D01*
X96300000Y-50225000D01*
X96300000Y-50225000D01*
G37*
D28*
G04 #@! TO.N,GND*
X100650000Y-53200000D03*
X95100000Y-50450000D03*
X65300000Y-116850000D03*
X119400000Y-115350000D03*
X108400000Y-119950010D03*
X113563634Y-118990608D03*
X125450000Y-115650010D03*
X160700000Y-119300000D03*
X148100000Y-118578158D03*
X109238379Y-132249968D03*
G04 #@! TO.N,COL2*
X108300000Y-126650000D03*
G04 #@! TO.N,COL3*
X114050010Y-125900010D03*
X145180144Y-133724990D03*
G04 #@! TO.N,COL4*
X114300307Y-124931828D03*
X151300000Y-117603148D03*
X135200000Y-117849979D03*
G04 #@! TO.N,COL5*
X114050010Y-123950000D03*
X136100000Y-117000000D03*
G04 #@! TO.N,+5V*
X96950000Y-54050000D03*
X120563130Y-116381751D03*
X63355374Y-125012424D03*
X137750000Y-59000000D03*
X100050000Y-59300000D03*
X155926048Y-113926048D03*
X152050000Y-122750000D03*
G04 #@! TO.N,/ArduinoLayer/RESET*
X146700000Y-134575000D03*
X122600000Y-131700000D03*
X105000000Y-133574969D03*
G04 #@! TO.N,/ArduinoLayer/MISO*
X122800000Y-130650000D03*
G04 #@! TO.N,/ArduinoLayer/SCK*
X124183505Y-132074936D03*
G04 #@! TO.N,/ArduinoLayer/MOSI*
X121000000Y-129400000D03*
X105294531Y-132073851D03*
G04 #@! TO.N,Net-(J2-Pad2)*
X97600000Y-48450000D03*
G04 #@! TO.N,Net-(J2-Pad3)*
X98500000Y-47750000D03*
G04 #@! TO.N,/ROW0*
X46800000Y-57700000D03*
G04 #@! TO.N,/ROW1*
X49800000Y-77200000D03*
G04 #@! TO.N,/ROW2*
X51200010Y-97862764D03*
G04 #@! TO.N,/ROW3*
X47450000Y-114600000D03*
G04 #@! TO.N,/ROW4*
X73300000Y-134050000D03*
X54800000Y-127400000D03*
X92896439Y-132864236D03*
G04 #@! TO.N,DRAIN*
X52300000Y-119300000D03*
G04 #@! TO.N,READ*
X62886581Y-120011239D03*
G04 #@! TO.N,/ArduinoLayer/CLKLED*
X126450000Y-120050000D03*
X112499384Y-122152244D03*
G04 #@! TO.N,/ArduinoLayer/RXLED*
X132000000Y-121750000D03*
X124909975Y-128364613D03*
G04 #@! TO.N,/ArduinoLayer/TXLED*
X131900000Y-120700000D03*
X112850000Y-130300000D03*
G04 #@! TO.N,/ArduinoLayer/D+*
X123650000Y-120000000D03*
G04 #@! TO.N,/ArduinoLayer/D-*
X124599999Y-120800000D03*
G04 #@! TO.N,MUX_C*
X45350000Y-128150000D03*
G04 #@! TO.N,MUX_B*
X46350000Y-128650000D03*
G04 #@! TO.N,MUX_A*
X47694228Y-128749347D03*
G04 #@! TO.N,MUX_EN*
X47050000Y-122450000D03*
G04 #@! TO.N,/ArduinoLayer/Rx*
X158049990Y-114195450D03*
X137100000Y-116050010D03*
X114069748Y-128585262D03*
G04 #@! TO.N,/ArduinoLayer/Tx*
X155905853Y-114999979D03*
X137850000Y-115250021D03*
X113182462Y-129260194D03*
G04 #@! TD*
D29*
G04 #@! TO.N,GND*
X99962500Y-46150000D02*
X99550000Y-46562500D01*
X99962500Y-44600000D02*
X99962500Y-46150000D01*
X99550000Y-49200000D02*
X98900000Y-49850000D01*
X99550000Y-46562500D02*
X99550000Y-49200000D01*
X99550000Y-50400000D02*
X98900000Y-51050000D01*
X99550000Y-49200000D02*
X99550000Y-50400000D01*
X99550000Y-51600000D02*
X98900000Y-52250000D01*
X99550000Y-50400000D02*
X99550000Y-51600000D01*
D30*
X99550000Y-46562500D02*
X99062500Y-46562500D01*
X98800000Y-46300000D02*
X98800000Y-44960000D01*
X99062500Y-46562500D02*
X98800000Y-46300000D01*
D29*
X100410000Y-42840000D02*
X99950000Y-43300000D01*
X100410000Y-42300000D02*
X100410000Y-42840000D01*
X99950000Y-44587500D02*
X99962500Y-44600000D01*
X99950000Y-43300000D02*
X99950000Y-44587500D01*
X94590000Y-42300000D02*
X94590000Y-42490000D01*
X94590000Y-44152500D02*
X95037500Y-44600000D01*
X94590000Y-42300000D02*
X94590000Y-44152500D01*
X94590000Y-42300000D02*
X96660000Y-42300000D01*
X96660000Y-42300000D02*
X98340000Y-42300000D01*
X98340000Y-42300000D02*
X100410000Y-42300000D01*
X99550000Y-51600000D02*
X99550000Y-52100000D01*
X99550000Y-52100000D02*
X100650000Y-53200000D01*
D30*
X120050000Y-117000144D02*
X119315063Y-116265207D01*
X120050000Y-120150000D02*
X120050000Y-117000144D01*
D29*
X95100000Y-44662500D02*
X95037500Y-44600000D01*
X95100000Y-50450000D02*
X95100000Y-44662500D01*
X126650000Y-126115207D02*
X126650000Y-127215207D01*
X134100000Y-130450000D02*
X134050000Y-130500000D01*
X134100000Y-128100000D02*
X134100000Y-130450000D01*
X119400000Y-116180270D02*
X119315063Y-116265207D01*
X119400000Y-115350000D02*
X119400000Y-116180270D01*
X125450000Y-123400000D02*
X125450000Y-123200000D01*
X123800000Y-125050000D02*
X125450000Y-123400000D01*
X122550000Y-125050000D02*
X123800000Y-125050000D01*
X125450000Y-116468738D02*
X125450000Y-116850000D01*
X125182885Y-117117115D02*
X124101623Y-117117115D01*
X125450000Y-116850000D02*
X125182885Y-117117115D01*
X125450000Y-118100000D02*
X125400000Y-118100000D01*
X125450000Y-116468738D02*
X125450000Y-118100000D01*
X125117822Y-118382178D02*
X124086416Y-118382178D01*
X125400000Y-118100000D02*
X125117822Y-118382178D01*
X111150000Y-129850000D02*
X110675000Y-129850000D01*
X111150000Y-129850000D02*
X110450000Y-129850000D01*
X109900000Y-129850000D02*
X111150000Y-129850000D01*
D30*
X126571336Y-134300030D02*
X126571364Y-134300002D01*
D29*
X126650000Y-123400000D02*
X125450000Y-122200000D01*
X126650000Y-126115207D02*
X126650000Y-123400000D01*
X125450000Y-118100000D02*
X125450000Y-122200000D01*
X125450000Y-122200000D02*
X125450000Y-123200000D01*
X134925010Y-125313598D02*
X134261412Y-124650000D01*
X134100000Y-128100000D02*
X134925010Y-127274990D01*
X134925010Y-127274990D02*
X134925010Y-125313598D01*
X127900000Y-124650000D02*
X126650000Y-123400000D01*
X134261412Y-124650000D02*
X127900000Y-124650000D01*
D30*
X134261412Y-133900000D02*
X128450000Y-133900000D01*
X128049970Y-134300030D02*
X126571336Y-134300030D01*
X128450000Y-133900000D02*
X128049970Y-134300030D01*
X134495710Y-130945710D02*
X134050000Y-130500000D01*
X134775010Y-131225010D02*
X134495710Y-130945710D01*
X134775010Y-133386402D02*
X134775010Y-131225010D01*
X134261412Y-133900000D02*
X134775010Y-133386402D01*
D29*
X109691652Y-130058348D02*
X109900000Y-129850000D01*
X106900000Y-132458348D02*
X107341652Y-132900000D01*
X106900000Y-131758348D02*
X106900000Y-132458348D01*
X107341652Y-132900000D02*
X107350000Y-132900000D01*
X107350000Y-132900000D02*
X107550000Y-133100000D01*
X107550000Y-133100000D02*
X109100001Y-133099999D01*
X108741651Y-133099999D02*
X109100001Y-133099999D01*
X108100000Y-132458348D02*
X108741651Y-133099999D01*
X108100000Y-131758348D02*
X108100000Y-132458348D01*
X166750000Y-123350000D02*
X166750000Y-122300000D01*
X166350000Y-123750000D02*
X166750000Y-123350000D01*
X164800000Y-123750000D02*
X164650000Y-123750000D01*
X165550000Y-123000000D02*
X164800000Y-123750000D01*
X165550000Y-122300000D02*
X165550000Y-123000000D01*
X164650000Y-123750000D02*
X166350000Y-123750000D01*
X163950000Y-123150000D02*
X163350000Y-123750000D01*
X163950000Y-122300000D02*
X163950000Y-123150000D01*
X163350000Y-123750000D02*
X164650000Y-123750000D01*
X162750000Y-123200000D02*
X162200000Y-123750000D01*
X162750000Y-122300000D02*
X162750000Y-123200000D01*
X161600000Y-123750000D02*
X162200000Y-123750000D01*
X162200000Y-123750000D02*
X163350000Y-123750000D01*
X151300000Y-131350000D02*
X150854290Y-130904290D01*
X150495710Y-130904290D02*
X150854290Y-130904290D01*
X150050000Y-131350000D02*
X150495710Y-130904290D01*
X150495710Y-130058580D02*
X150854290Y-129700000D01*
X150495710Y-130904290D02*
X150495710Y-130058580D01*
X150854290Y-130904290D02*
X150854290Y-129700000D01*
X107300000Y-121850000D02*
X107300000Y-121050010D01*
X108000001Y-120350009D02*
X108400000Y-119950010D01*
X107300000Y-121050010D02*
X108000001Y-120350009D01*
X113650000Y-120150000D02*
X113650000Y-119076974D01*
X113650000Y-119076974D02*
X113563634Y-118990608D01*
X118840063Y-116265207D02*
X119315063Y-116265207D01*
X67300041Y-114849959D02*
X115469867Y-114849959D01*
X116885115Y-116265207D02*
X118840063Y-116265207D01*
X65300000Y-116850000D02*
X67300041Y-114849959D01*
X115469867Y-114849959D02*
X116885115Y-116265207D01*
X125450000Y-116468738D02*
X125450000Y-115650010D01*
X162850000Y-132850000D02*
X162850000Y-126350000D01*
X161664213Y-123750000D02*
X161600000Y-123750000D01*
X162850000Y-124935787D02*
X161664213Y-123750000D01*
X162850000Y-126350000D02*
X162850000Y-124935787D01*
X118899959Y-114849959D02*
X119400000Y-115350000D01*
X115469867Y-114849959D02*
X118899959Y-114849959D01*
X161664213Y-123750000D02*
X161200000Y-123750000D01*
X161200000Y-123750000D02*
X160700000Y-123250000D01*
X160700000Y-123250000D02*
X160700000Y-122100000D01*
X160700000Y-122100000D02*
X160700000Y-120800000D01*
X160678168Y-119278168D02*
X160700000Y-119300000D01*
X150854290Y-129700000D02*
X150854290Y-124995710D01*
X159950000Y-124000000D02*
X160700000Y-123250000D01*
X160671832Y-119328168D02*
X160700000Y-119300000D01*
X159163040Y-119328168D02*
X160671832Y-119328168D01*
X160121832Y-120578168D02*
X160700000Y-120000000D01*
X159163040Y-120578168D02*
X160121832Y-120578168D01*
X160700000Y-120800000D02*
X160700000Y-120000000D01*
X160700000Y-120000000D02*
X160700000Y-119300000D01*
X160700000Y-120991208D02*
X160700000Y-120800000D01*
X159863040Y-121828168D02*
X160700000Y-120991208D01*
X159163040Y-121828168D02*
X159863040Y-121828168D01*
X160700000Y-122241208D02*
X160700000Y-122100000D01*
X159863040Y-123078168D02*
X160700000Y-122241208D01*
X159163040Y-123078168D02*
X159863040Y-123078168D01*
X150854290Y-124995710D02*
X150854290Y-124645710D01*
X151500000Y-124000000D02*
X150854290Y-124645710D01*
X159950000Y-124000000D02*
X151500000Y-124000000D01*
X159853158Y-118453158D02*
X148790685Y-118453158D01*
X160700000Y-119300000D02*
X159853158Y-118453158D01*
X148790685Y-118453158D02*
X148665685Y-118578158D01*
X148665685Y-118578158D02*
X148100000Y-118578158D01*
X139937246Y-117899969D02*
X146208682Y-117899969D01*
X127299979Y-118699979D02*
X139137235Y-118699979D01*
X147534315Y-118578158D02*
X148100000Y-118578158D01*
X139137235Y-118699979D02*
X139937246Y-117899969D01*
X125450000Y-116850000D02*
X127299979Y-118699979D01*
X146886871Y-118578158D02*
X147534315Y-118578158D01*
X146208682Y-117899969D02*
X146886871Y-118578158D01*
X82000000Y-130200000D02*
X82000000Y-131050000D01*
X82250000Y-129950000D02*
X82000000Y-130200000D01*
X82250000Y-129950000D02*
X81050000Y-129950000D01*
X80700000Y-130300000D02*
X80700000Y-131050000D01*
X81050000Y-129950000D02*
X80700000Y-130300000D01*
X82700000Y-129950000D02*
X82250000Y-129950000D01*
X84670000Y-129110000D02*
X83467919Y-129110000D01*
X82700000Y-129877919D02*
X83467919Y-129110000D01*
X82700000Y-129950000D02*
X82700000Y-129877919D01*
X109100001Y-133099999D02*
X109238379Y-132961621D01*
X109638378Y-131849969D02*
X109238379Y-132249968D01*
X109900000Y-129850000D02*
X109900000Y-131588347D01*
X109900000Y-131588347D02*
X109638378Y-131849969D01*
X109238379Y-132815653D02*
X109238379Y-132249968D01*
X109238379Y-132961621D02*
X109238379Y-132815653D01*
D30*
X109638378Y-132649967D02*
X109238379Y-132249968D01*
X124545156Y-132824946D02*
X126650000Y-130720102D01*
X126571336Y-134300030D02*
X126546387Y-134324979D01*
X123599924Y-132795358D02*
X123629512Y-132824946D01*
X126546387Y-134324979D02*
X122944757Y-134324979D01*
X118450000Y-131550000D02*
X118450000Y-132600000D01*
X118645358Y-132795358D02*
X123599924Y-132795358D01*
X122919768Y-134299990D02*
X111288401Y-134299990D01*
X122944757Y-134324979D02*
X122919768Y-134299990D01*
X118450000Y-132600000D02*
X118645358Y-132795358D01*
X111288401Y-134299990D02*
X109638378Y-132649967D01*
X123629512Y-132824946D02*
X124545156Y-132824946D01*
X126650000Y-127690207D02*
X126650000Y-127215207D01*
X126650000Y-130720102D02*
X126650000Y-127690207D01*
G04 #@! TO.N,COL0*
X75300000Y-133350000D02*
X75300000Y-126200000D01*
X76024990Y-134074990D02*
X75300000Y-133350000D01*
X80250000Y-134074990D02*
X80375010Y-134074990D01*
X80900000Y-134074990D02*
X80250000Y-134074990D01*
X80250000Y-134074990D02*
X76024990Y-134074990D01*
X80700000Y-133750000D02*
X80700000Y-133050000D01*
X80375010Y-134074990D02*
X80700000Y-133750000D01*
X81650000Y-134074990D02*
X81775010Y-134074990D01*
X81650000Y-134074990D02*
X80900000Y-134074990D01*
X82000000Y-133850000D02*
X82000000Y-133050000D01*
X81775010Y-134074990D02*
X82000000Y-133850000D01*
X81725011Y-134150001D02*
X81650000Y-134074990D01*
X108886486Y-130441854D02*
X108528340Y-130800000D01*
X93092889Y-132000011D02*
X92699989Y-132000011D01*
X106200000Y-130800000D02*
X106044533Y-130955467D01*
X92699989Y-132000011D02*
X90625010Y-134074990D01*
X103917857Y-134324979D02*
X103792889Y-134200011D01*
X90625010Y-134074990D02*
X81650000Y-134074990D01*
X105485023Y-134324979D02*
X103917857Y-134324979D01*
X108886486Y-129463514D02*
X108886486Y-130441854D01*
X106044533Y-130955467D02*
X106044533Y-133765469D01*
X106044533Y-133765469D02*
X105485023Y-134324979D01*
X108528340Y-130800000D02*
X106200000Y-130800000D01*
X110100000Y-128250000D02*
X108886486Y-129463514D01*
X103792889Y-134200011D02*
X95292888Y-134200010D01*
X111150000Y-128250000D02*
X110100000Y-128250000D01*
X95292888Y-134200010D02*
X93092889Y-132000011D01*
G04 #@! TO.N,COL1*
X102250000Y-127450000D02*
X101000000Y-126200000D01*
X106900000Y-127850000D02*
X106500000Y-127450000D01*
X106900000Y-129758348D02*
X106900000Y-127850000D01*
X111150000Y-127450000D02*
X106500000Y-127450000D01*
X106500000Y-127450000D02*
X102250000Y-127450000D01*
X106900000Y-127858348D02*
X106900000Y-127850000D01*
X108100000Y-129058348D02*
X106900000Y-127858348D01*
X108100000Y-129758348D02*
X108100000Y-129058348D01*
D29*
G04 #@! TO.N,COL2*
X111150000Y-126650000D02*
X110114998Y-126650000D01*
X110114998Y-126650000D02*
X108700000Y-126650000D01*
X108700000Y-126650000D02*
X108300000Y-126650000D01*
G04 #@! TO.N,COL3*
X114000000Y-125850000D02*
X114050010Y-125900010D01*
X111150000Y-125850000D02*
X114000000Y-125850000D01*
X150050000Y-133350000D02*
X150825000Y-133350000D01*
X150825000Y-133350000D02*
X151300000Y-133350000D01*
X150050000Y-133350000D02*
X145555134Y-133350000D01*
X145555134Y-133350000D02*
X145180144Y-133724990D01*
G04 #@! TO.N,COL4*
X111150000Y-125050000D02*
X114182135Y-125050000D01*
X114182135Y-125050000D02*
X114300307Y-124931828D01*
X162304290Y-119854290D02*
X162304290Y-119450766D01*
X163950000Y-120300000D02*
X163153524Y-120300000D01*
X162750000Y-120300000D02*
X162304290Y-119854290D01*
X163153524Y-120300000D02*
X161399989Y-118546465D01*
X162304290Y-119450766D02*
X161399989Y-118546465D01*
X160603514Y-117749990D02*
X151446842Y-117749990D01*
X161399989Y-118546465D02*
X160603514Y-117749990D01*
X151446842Y-117749990D02*
X151300000Y-117603148D01*
X135765685Y-117849979D02*
X135200000Y-117849979D01*
X135765706Y-117850000D02*
X135765685Y-117849979D01*
X138997249Y-117850000D02*
X135765706Y-117850000D01*
X151300000Y-117603148D02*
X146901826Y-117603148D01*
X146498636Y-117199958D02*
X139647292Y-117199958D01*
X139647292Y-117199958D02*
X138997249Y-117850000D01*
X146901826Y-117603148D02*
X146498636Y-117199958D01*
G04 #@! TO.N,COL5*
X168800000Y-113600000D02*
X168800000Y-107150000D01*
X166799999Y-115600001D02*
X168800000Y-113600000D01*
X165995710Y-116404290D02*
X166799999Y-115600001D01*
X165995710Y-119854290D02*
X165995710Y-116404290D01*
X165550000Y-120300000D02*
X165995710Y-119854290D01*
X166304290Y-119854290D02*
X166750000Y-120300000D01*
X165995710Y-119854290D02*
X166304290Y-119854290D01*
X111150000Y-124250000D02*
X113750010Y-124250000D01*
X113750010Y-124250000D02*
X114050010Y-123950000D01*
X136100000Y-117000000D02*
X136665685Y-117000000D01*
X138818236Y-117000023D02*
X138818259Y-117000000D01*
X136665708Y-117000023D02*
X138818236Y-117000023D01*
X136665685Y-117000000D02*
X136665708Y-117000023D01*
X146788590Y-116499947D02*
X139318312Y-116499947D01*
X139318312Y-116499947D02*
X138818236Y-117000023D01*
X159450000Y-116550000D02*
X146838643Y-116550000D01*
X159595710Y-116404290D02*
X159450000Y-116550000D01*
X146838643Y-116550000D02*
X146788590Y-116499947D01*
X165995710Y-116404290D02*
X159595710Y-116404290D01*
G04 #@! TO.N,Net-(C8-Pad1)*
X132030270Y-132500000D02*
X131065207Y-131534937D01*
X134050000Y-132500000D02*
X132030270Y-132500000D01*
D30*
X116850000Y-131550000D02*
X116850000Y-132500000D01*
X116850000Y-132500000D02*
X116850000Y-132650000D01*
X127249409Y-131534937D02*
X129438862Y-131534937D01*
X116850000Y-132500000D02*
X116850000Y-132507120D01*
X124959378Y-133824968D02*
X127249409Y-131534937D01*
X118138258Y-133795380D02*
X123122280Y-133795380D01*
X116850000Y-132507120D02*
X118138258Y-133795380D01*
X123122280Y-133795380D02*
X123151868Y-133824968D01*
X129438862Y-131534937D02*
X131065207Y-131534937D01*
X123151868Y-133824968D02*
X124959378Y-133824968D01*
D29*
G04 #@! TO.N,Net-(C9-Pad1)*
X131600144Y-126100000D02*
X131065207Y-126634937D01*
X134100000Y-126100000D02*
X131600144Y-126100000D01*
D30*
X129915208Y-127784936D02*
X131065207Y-126634937D01*
X129915208Y-128162016D02*
X129915208Y-127784936D01*
X123359005Y-133324957D02*
X124752267Y-133324957D01*
X123329417Y-133295369D02*
X123359005Y-133324957D01*
X117650000Y-132600000D02*
X118345369Y-133295369D01*
X118345369Y-133295369D02*
X123329417Y-133295369D01*
X117650000Y-131550000D02*
X117650000Y-132600000D01*
X124752267Y-133324957D02*
X129915208Y-128162016D01*
G04 #@! TO.N,Net-(C10-Pad1)*
X119315063Y-120084937D02*
X119250000Y-120150000D01*
X119315063Y-118265207D02*
X119315063Y-120084937D01*
D29*
G04 #@! TO.N,+5V*
X120850000Y-119675000D02*
X120850000Y-120150000D01*
X96050000Y-47200000D02*
X96050000Y-49000000D01*
X96050000Y-49000000D02*
X96900000Y-49850000D01*
X96050000Y-50200000D02*
X96900000Y-51050000D01*
X96050000Y-49000000D02*
X96050000Y-50200000D01*
X96050000Y-51400000D02*
X96900000Y-52250000D01*
X96050000Y-50200000D02*
X96050000Y-51400000D01*
X96050000Y-51400000D02*
X96050000Y-53150000D01*
X96050000Y-53150000D02*
X96950000Y-54050000D01*
D30*
X96050000Y-46600000D02*
X96200000Y-46450000D01*
X96050000Y-47200000D02*
X96050000Y-46600000D01*
X96200000Y-44960000D02*
X96200000Y-46450000D01*
D29*
X120850000Y-118900000D02*
X120850000Y-120150000D01*
X120850000Y-117850000D02*
X120850000Y-118000000D01*
X120850000Y-117850000D02*
X120850000Y-118900000D01*
X121232178Y-118382178D02*
X122086416Y-118382178D01*
X120850000Y-118000000D02*
X121232178Y-118382178D01*
X124138588Y-127215207D02*
X124650000Y-127215207D01*
X123573381Y-126650000D02*
X124138588Y-127215207D01*
X122550000Y-126650000D02*
X123573381Y-126650000D01*
X121300000Y-122650000D02*
X122550000Y-122650000D01*
X120850000Y-122200000D02*
X121300000Y-122650000D01*
X120850000Y-120150000D02*
X120850000Y-122200000D01*
X120850000Y-122200000D02*
X120850000Y-126200000D01*
X120850000Y-120150000D02*
X120850000Y-121185002D01*
X119250000Y-129850000D02*
X119250000Y-131550000D01*
X119250000Y-129500000D02*
X119700000Y-129050000D01*
X119250000Y-129850000D02*
X119250000Y-129500000D01*
X120850000Y-117400000D02*
X120850000Y-118000000D01*
X122101623Y-117117115D02*
X121132885Y-117117115D01*
X121132885Y-117117115D02*
X120850000Y-117400000D01*
X120850000Y-117400000D02*
X120963129Y-117286871D01*
X120963129Y-117286871D02*
X120963129Y-116781750D01*
X120963129Y-116781750D02*
X120563130Y-116381751D01*
X112850000Y-120150000D02*
X112075000Y-120150000D01*
X112075000Y-120150000D02*
X110775021Y-118850021D01*
X63755373Y-124612425D02*
X63355374Y-125012424D01*
X69517777Y-118850021D02*
X63755373Y-124612425D01*
X112850000Y-121185002D02*
X113314998Y-121650000D01*
X112850000Y-120150000D02*
X112850000Y-121185002D01*
X120385002Y-121650000D02*
X120850000Y-121185002D01*
X113314998Y-121650000D02*
X120385002Y-121650000D01*
X119599998Y-128949998D02*
X119700000Y-129050000D01*
X137750000Y-59000000D02*
X136700000Y-60050000D01*
X136700000Y-60050000D02*
X101150000Y-60050000D01*
X101150000Y-60050000D02*
X100800000Y-60050000D01*
X100800000Y-60050000D02*
X100050000Y-59300000D01*
X154400000Y-125600000D02*
X154350000Y-125550000D01*
X154400000Y-128500000D02*
X154400000Y-125600000D01*
X120963129Y-115981752D02*
X120563130Y-116381751D01*
X120100000Y-129050000D02*
X120850000Y-128300000D01*
X119700000Y-129050000D02*
X120100000Y-129050000D01*
X120850000Y-128300000D02*
X120850000Y-126200000D01*
X120850000Y-126200000D02*
X121300000Y-126650000D01*
X121300000Y-126650000D02*
X122550000Y-126650000D01*
X122144881Y-114800010D02*
X120963129Y-115981752D01*
X122144881Y-114800000D02*
X122144881Y-114800010D01*
X155900000Y-113900000D02*
X155926048Y-113926048D01*
X155747828Y-113900000D02*
X155900000Y-113900000D01*
X154886405Y-114400006D02*
X155360363Y-113926048D01*
X155360363Y-113926048D02*
X155926048Y-113926048D01*
X134239957Y-114400006D02*
X154886405Y-114400006D01*
X133839953Y-114800010D02*
X134239957Y-114400006D01*
X122144881Y-114800010D02*
X133839953Y-114800010D01*
X153363040Y-123078168D02*
X152378168Y-123078168D01*
X152378168Y-123078168D02*
X152050000Y-122750000D01*
X113499741Y-127735261D02*
X118385261Y-127735261D01*
X112185002Y-129050000D02*
X113499741Y-127735261D01*
X111150000Y-129050000D02*
X112185002Y-129050000D01*
X118385261Y-127735261D02*
X119700000Y-129050000D01*
X89750000Y-119550021D02*
X90450000Y-118850021D01*
X89750000Y-129110000D02*
X89750000Y-119550021D01*
X110775021Y-118850021D02*
X90450000Y-118850021D01*
X90450000Y-118850021D02*
X69517777Y-118850021D01*
G04 #@! TO.N,Net-(C12-Pad1)*
X124384793Y-125850000D02*
X122550000Y-125850000D01*
X124650000Y-126115207D02*
X124384793Y-125850000D01*
G04 #@! TO.N,/ArduinoLayer/RESET*
X154400000Y-133120000D02*
X154350000Y-133170000D01*
X154400000Y-130500000D02*
X154400000Y-133120000D01*
X152945000Y-134575000D02*
X146700000Y-134575000D01*
X154350000Y-133170000D02*
X152945000Y-134575000D01*
X158030000Y-133170000D02*
X158350000Y-132850000D01*
X154350000Y-133170000D02*
X158030000Y-133170000D01*
X158350000Y-132850000D02*
X158350000Y-126350000D01*
D30*
X121139996Y-130239996D02*
X122600000Y-131700000D01*
X120210004Y-130239996D02*
X121139996Y-130239996D01*
X120050000Y-131550000D02*
X120050000Y-130400000D01*
X120050000Y-130400000D02*
X120210004Y-130239996D01*
X85047921Y-133230002D02*
X84670000Y-132852081D01*
X90500000Y-133230002D02*
X85047921Y-133230002D01*
X105000000Y-133574969D02*
X104434315Y-133574969D01*
X104434315Y-133574969D02*
X104309284Y-133700000D01*
X84670000Y-132852081D02*
X84670000Y-131650000D01*
X104309284Y-133700000D02*
X95513613Y-133700000D01*
X95513613Y-133700000D02*
X93313613Y-131500000D01*
X93313613Y-131500000D02*
X92230002Y-131500000D01*
X92230002Y-131500000D02*
X90500000Y-133230002D01*
D29*
G04 #@! TO.N,Net-(D2-Pad2)*
X155363040Y-121828168D02*
X157163040Y-121828168D01*
G04 #@! TO.N,Net-(D3-Pad2)*
X155363040Y-120578168D02*
X157163040Y-120578168D01*
G04 #@! TO.N,Net-(D4-Pad2)*
X155363040Y-119328168D02*
X156528168Y-119328168D01*
X156528168Y-119328168D02*
X157163040Y-119328168D01*
G04 #@! TO.N,Net-(D5-Pad2)*
X155363040Y-123078168D02*
X157163040Y-123078168D01*
D30*
G04 #@! TO.N,/ArduinoLayer/MISO*
X122800000Y-130100000D02*
X122550000Y-129850000D01*
X122800000Y-130650000D02*
X122800000Y-130100000D01*
G04 #@! TO.N,/ArduinoLayer/SCK*
X122550000Y-128250000D02*
X123405002Y-128250000D01*
X124183505Y-129028503D02*
X124183505Y-131509251D01*
X124183505Y-131509251D02*
X124183505Y-132074936D01*
X123405002Y-128250000D02*
X124183505Y-129028503D01*
G04 #@! TO.N,/ArduinoLayer/MOSI*
X122550000Y-129050000D02*
X121350000Y-129050000D01*
X121350000Y-129050000D02*
X121000000Y-129400000D01*
X93310001Y-130310001D02*
X95699989Y-132699989D01*
X88410001Y-130310001D02*
X93310001Y-130310001D01*
X104668393Y-132699989D02*
X104894532Y-132473850D01*
X95699989Y-132699989D02*
X104668393Y-132699989D01*
X104894532Y-132473850D02*
X105294531Y-132073851D01*
X87210000Y-129110000D02*
X88410001Y-130310001D01*
G04 #@! TO.N,Net-(J2-Pad2)*
X96850000Y-47700000D02*
X97600000Y-48450000D01*
X96850000Y-44960000D02*
X96850000Y-47700000D01*
G04 #@! TO.N,Net-(J2-Pad3)*
X97500000Y-44960000D02*
X97500000Y-46750000D01*
X97500000Y-46750000D02*
X98500000Y-47750000D01*
D29*
G04 #@! TO.N,/ROW0*
X49000000Y-56199603D02*
X50500397Y-57700000D01*
X49000000Y-50000000D02*
X49000000Y-56199603D01*
X50500397Y-57700000D02*
X60350000Y-57700000D01*
X87084000Y-50707106D02*
X87084000Y-50000000D01*
X87084000Y-56666000D02*
X87084000Y-50707106D01*
X86050000Y-57700000D02*
X87084000Y-56666000D01*
X86050000Y-57700000D02*
X105550000Y-57700000D01*
X106150000Y-57100000D02*
X106150000Y-50000000D01*
X105550000Y-57700000D02*
X106150000Y-57100000D01*
X105550000Y-57700000D02*
X124250000Y-57700000D01*
X125200000Y-56750000D02*
X125200000Y-50000000D01*
X124250000Y-57700000D02*
X125200000Y-56750000D01*
X124250000Y-57700000D02*
X143400000Y-57700000D01*
X144250000Y-56850000D02*
X144250000Y-50000000D01*
X143400000Y-57700000D02*
X144250000Y-56850000D01*
X68050000Y-56199603D02*
X68050000Y-50000000D01*
X66549603Y-57700000D02*
X68050000Y-56199603D01*
X65150000Y-57700000D02*
X66549603Y-57700000D01*
X60350000Y-57700000D02*
X65150000Y-57700000D01*
X65150000Y-57700000D02*
X86050000Y-57700000D01*
X46800000Y-57700000D02*
X50500397Y-57700000D01*
G04 #@! TO.N,/ROW1*
X53500000Y-75950000D02*
X53500000Y-69050000D01*
X52250000Y-77200000D02*
X53500000Y-75950000D01*
X52250000Y-77200000D02*
X76250000Y-77200000D01*
X77050000Y-76400000D02*
X77050000Y-69050000D01*
X76250000Y-77200000D02*
X77050000Y-76400000D01*
X76250000Y-77200000D02*
X95350000Y-77200000D01*
X96100000Y-76450000D02*
X96100000Y-69050000D01*
X95350000Y-77200000D02*
X96100000Y-76450000D01*
X95350000Y-77200000D02*
X114500000Y-77200000D01*
X115150000Y-76550000D02*
X115150000Y-69050000D01*
X114500000Y-77200000D02*
X115150000Y-76550000D01*
X114500000Y-77200000D02*
X133300000Y-77200000D01*
X134200000Y-76300000D02*
X134200000Y-69050000D01*
X133300000Y-77200000D02*
X134200000Y-76300000D01*
X133300000Y-77200000D02*
X152400000Y-77200000D01*
X153250000Y-76350000D02*
X153250000Y-69050000D01*
X152400000Y-77200000D02*
X153250000Y-76350000D01*
X51200000Y-77200000D02*
X52250000Y-77200000D01*
X49800000Y-77200000D02*
X51200000Y-77200000D01*
G04 #@! TO.N,/ROW2*
X55000000Y-96400000D02*
X80800000Y-96400000D01*
X81550000Y-95650000D02*
X81550000Y-88100000D01*
X80800000Y-96400000D02*
X81550000Y-95650000D01*
X80800000Y-96400000D02*
X99850000Y-96400000D01*
X100600000Y-95650000D02*
X100600000Y-88100000D01*
X99850000Y-96400000D02*
X100600000Y-95650000D01*
X99850000Y-96400000D02*
X119000000Y-96400000D01*
X119650000Y-95750000D02*
X119650000Y-88100000D01*
X119000000Y-96400000D02*
X119650000Y-95750000D01*
X119000000Y-96400000D02*
X138100000Y-96400000D01*
X138700000Y-95800000D02*
X138700000Y-88100000D01*
X138100000Y-96400000D02*
X138700000Y-95800000D01*
X138100000Y-96400000D02*
X156950000Y-96400000D01*
X157750000Y-95600000D02*
X157750000Y-88100000D01*
X156950000Y-96400000D02*
X157750000Y-95600000D01*
X55000000Y-96400000D02*
X55750000Y-95650000D01*
X55750000Y-95650000D02*
X55750000Y-88100000D01*
X51765695Y-97862764D02*
X51200010Y-97862764D01*
X55000000Y-96400000D02*
X53537236Y-97862764D01*
X53537236Y-97862764D02*
X51765695Y-97862764D01*
D30*
G04 #@! TO.N,/ROW3*
X90050000Y-114100000D02*
X109250000Y-114100000D01*
D29*
X60300000Y-114100000D02*
X59950000Y-114100000D01*
X59450000Y-114600000D02*
X47450000Y-114600000D01*
X59950000Y-114100000D02*
X59450000Y-114600000D01*
X60250000Y-114050000D02*
X60250000Y-107150000D01*
X60300000Y-114100000D02*
X60250000Y-114050000D01*
X60300000Y-114100000D02*
X90050000Y-114100000D01*
X90050000Y-114100000D02*
X90600000Y-113550000D01*
X90600000Y-113550000D02*
X90600000Y-107150000D01*
X90050000Y-114100000D02*
X109450000Y-114100000D01*
D30*
X109250000Y-114100000D02*
X109450000Y-114100000D01*
X109450000Y-114100000D02*
X128150000Y-114100000D01*
D29*
X109250000Y-114100000D02*
X109650000Y-113700000D01*
X109650000Y-113700000D02*
X109650000Y-107150000D01*
X109250000Y-114100000D02*
X128150000Y-114100000D01*
X128150000Y-114100000D02*
X128700000Y-113550000D01*
X128700000Y-113550000D02*
X128700000Y-107150000D01*
X161100000Y-107150000D02*
X166800000Y-107150000D01*
X133550000Y-114100000D02*
X133850044Y-113799956D01*
X128150000Y-114100000D02*
X133550000Y-114100000D01*
X133850044Y-113799956D02*
X133850044Y-113749956D01*
X133850044Y-113749956D02*
X133900005Y-113699995D01*
X154550005Y-113699995D02*
X161100000Y-107150000D01*
X147750000Y-113349603D02*
X147750000Y-107150000D01*
X147399608Y-113699995D02*
X147750000Y-113349603D01*
X146650000Y-113699995D02*
X147399608Y-113699995D01*
X133900005Y-113699995D02*
X146650000Y-113699995D01*
X146650000Y-113699995D02*
X154550005Y-113699995D01*
D30*
G04 #@! TO.N,/ROW4*
X74050000Y-134800000D02*
X73300000Y-134050000D01*
X96510026Y-134800000D02*
X96485036Y-134824990D01*
X94374989Y-134824989D02*
X94350000Y-134800000D01*
X96485036Y-134824990D02*
X94374989Y-134824989D01*
X99150000Y-134800000D02*
X96510026Y-134800000D01*
X61499990Y-134050000D02*
X73300000Y-134050000D01*
X55750000Y-134050000D02*
X61499990Y-134050000D01*
X54800000Y-127400000D02*
X54800000Y-133100000D01*
X54800000Y-133100000D02*
X55750000Y-134050000D01*
X99150000Y-134800000D02*
X97385367Y-134800000D01*
X94350000Y-134800000D02*
X93650000Y-134800000D01*
X93650000Y-134800000D02*
X92700000Y-134800000D01*
X92700000Y-134800000D02*
X74050000Y-134800000D01*
X92700000Y-134800000D02*
X92896439Y-134603561D01*
X92896439Y-133429921D02*
X92896439Y-132864236D01*
X92896439Y-134603561D02*
X92896439Y-133429921D01*
X139599592Y-134800011D02*
X135607109Y-134800013D01*
X128232132Y-134824990D02*
X103757866Y-134824990D01*
X99150001Y-134800001D02*
X99150000Y-134800000D01*
X142000000Y-126200000D02*
X142000000Y-132399603D01*
X142000000Y-132399603D02*
X139599592Y-134800011D01*
X103757866Y-134824990D02*
X103732877Y-134800001D01*
X103732877Y-134800001D02*
X99150001Y-134800001D01*
X135607109Y-134800013D02*
X128257109Y-134800013D01*
X128257109Y-134800013D02*
X128232132Y-134824990D01*
G04 #@! TO.N,DRAIN*
X117650000Y-120150000D02*
X117650000Y-118585756D01*
X115264222Y-116199978D02*
X68135778Y-116199978D01*
X68135778Y-116199978D02*
X63335767Y-120999989D01*
X52699999Y-119699999D02*
X52300000Y-119300000D01*
X63335767Y-120999989D02*
X53999989Y-120999989D01*
X53999989Y-120999989D02*
X52699999Y-119699999D01*
X117650000Y-118585756D02*
X115264222Y-116199978D01*
G04 #@! TO.N,READ*
X63604528Y-120011239D02*
X63452266Y-120011239D01*
X118450000Y-120150000D02*
X118450000Y-118678634D01*
X67915800Y-115699967D02*
X63604528Y-120011239D01*
X115471333Y-115699967D02*
X67915800Y-115699967D01*
X63452266Y-120011239D02*
X62886581Y-120011239D01*
X118450000Y-118678634D02*
X115471333Y-115699967D01*
G04 #@! TO.N,/ArduinoLayer/CLKLED*
X147874095Y-121828168D02*
X153363040Y-121828168D01*
X145545926Y-119499999D02*
X147874095Y-121828168D01*
X129050000Y-122650000D02*
X132200000Y-122650000D01*
X126450000Y-120050000D02*
X129050000Y-122650000D01*
X134549980Y-120300020D02*
X139799976Y-120300020D01*
X132200000Y-122650000D02*
X134549980Y-120300020D01*
X139799976Y-120300020D02*
X140599997Y-119499999D01*
X140599997Y-119499999D02*
X145545926Y-119499999D01*
X112001628Y-122650000D02*
X111150000Y-122650000D01*
X112499384Y-122152244D02*
X112001628Y-122650000D01*
G04 #@! TO.N,/ArduinoLayer/RXLED*
X124329414Y-128364613D02*
X124909975Y-128364613D01*
X122550000Y-127450000D02*
X123414801Y-127450000D01*
X123414801Y-127450000D02*
X124329414Y-128364613D01*
X133949990Y-119800010D02*
X132000000Y-121750000D01*
X139592866Y-119800010D02*
X133949990Y-119800010D01*
X153363040Y-120578168D02*
X147331217Y-120578168D01*
X140392887Y-118999989D02*
X139592866Y-119800010D01*
X145753038Y-118999989D02*
X140392887Y-118999989D01*
X147331217Y-120578168D02*
X145753038Y-118999989D01*
G04 #@! TO.N,/ArduinoLayer/TXLED*
X131900000Y-120700000D02*
X133300010Y-119299990D01*
X133300010Y-119299990D02*
X139385766Y-119299990D01*
X152663040Y-119328168D02*
X153363040Y-119328168D01*
X139385766Y-119299990D02*
X140185777Y-118499979D01*
X145960149Y-118499978D02*
X146788339Y-119328168D01*
X140185777Y-118499979D02*
X145960149Y-118499978D01*
X146788339Y-119328168D02*
X152663040Y-119328168D01*
X112850000Y-131550000D02*
X112850000Y-131075000D01*
X112850000Y-131550000D02*
X112850000Y-130300000D01*
D29*
G04 #@! TO.N,/ArduinoLayer/HWB*
X109300000Y-121850000D02*
X111150000Y-121850000D01*
D30*
G04 #@! TO.N,/ArduinoLayer/D+*
X123600000Y-123450000D02*
X123849989Y-123200011D01*
X122550000Y-123450000D02*
X123600000Y-123450000D01*
X123849989Y-123200011D02*
X123849989Y-121359993D01*
X123650000Y-121160004D02*
X123849989Y-121359993D01*
X123650000Y-120000000D02*
X123650000Y-121160004D01*
G04 #@! TO.N,/ArduinoLayer/D-*
X124599999Y-123250001D02*
X124599999Y-121365685D01*
X122550000Y-124250000D02*
X123600000Y-124250000D01*
X123600000Y-124250000D02*
X124599999Y-123250001D01*
X124599999Y-121365685D02*
X124599999Y-120800000D01*
G04 #@! TO.N,MUX_C*
X116050000Y-120150000D02*
X116050000Y-119100000D01*
X116050000Y-119100000D02*
X116050000Y-118400000D01*
X116050000Y-118400000D02*
X114850000Y-117200000D01*
X114850000Y-117200000D02*
X68550000Y-117200000D01*
X68550000Y-117200000D02*
X60550000Y-125200000D01*
X60550000Y-125200000D02*
X53700000Y-125200000D01*
X45749999Y-127750001D02*
X45899999Y-127750001D01*
X45350000Y-128150000D02*
X45749999Y-127750001D01*
X45899999Y-127750001D02*
X46250000Y-127400000D01*
X46250000Y-127400000D02*
X51900000Y-127400000D01*
X51900000Y-127400000D02*
X52150000Y-127150000D01*
X52150000Y-126750000D02*
X53700000Y-125200000D01*
X52150000Y-127150000D02*
X52150000Y-126750000D01*
G04 #@! TO.N,MUX_B*
X46350000Y-128650000D02*
X47000655Y-127999345D01*
X115250000Y-119100000D02*
X115250000Y-120150000D01*
X52900000Y-127650000D02*
X52900000Y-127000000D01*
X52550655Y-127999345D02*
X52900000Y-127650000D01*
X53999990Y-125900010D02*
X60699991Y-125900009D01*
X114300000Y-117700000D02*
X115250000Y-118650000D01*
X115250000Y-118650000D02*
X115250000Y-119100000D01*
X52900000Y-127000000D02*
X53999990Y-125900010D01*
X60699991Y-125900009D02*
X68900000Y-117700000D01*
X47000655Y-127999345D02*
X52550655Y-127999345D01*
X68900000Y-117700000D02*
X114300000Y-117700000D01*
G04 #@! TO.N,MUX_A*
X114450000Y-120150000D02*
X114450000Y-118750000D01*
X53700000Y-126950000D02*
X53700000Y-128100000D01*
X114450000Y-118750000D02*
X113900011Y-118200011D01*
X69107111Y-118200011D02*
X60907102Y-126400020D01*
X53700000Y-128100000D02*
X53050653Y-128749347D01*
X54249980Y-126400020D02*
X53700000Y-126950000D01*
X60907102Y-126400020D02*
X54249980Y-126400020D01*
X48259913Y-128749347D02*
X47694228Y-128749347D01*
X53050653Y-128749347D02*
X48259913Y-128749347D01*
X113900011Y-118200011D02*
X69107111Y-118200011D01*
G04 #@! TO.N,MUX_EN*
X115057111Y-116699989D02*
X68342889Y-116699989D01*
X116850000Y-118492878D02*
X115057111Y-116699989D01*
X116850000Y-120150000D02*
X116850000Y-118492878D01*
X47050000Y-121884315D02*
X47434315Y-121500000D01*
X47050000Y-122450000D02*
X47050000Y-121884315D01*
X63542878Y-121500000D02*
X64042878Y-121000000D01*
X47434315Y-121500000D02*
X63542878Y-121500000D01*
X68342889Y-116699989D02*
X64042878Y-121000000D01*
G04 #@! TO.N,/ArduinoLayer/Rx*
X158049990Y-114195450D02*
X156345504Y-115899936D01*
X156345504Y-115899936D02*
X139069780Y-115899936D01*
X138919706Y-116050010D02*
X137100000Y-116050010D01*
X139069780Y-115899936D02*
X138919706Y-116050010D01*
X114450000Y-128965514D02*
X114069748Y-128585262D01*
X114450000Y-131550000D02*
X114450000Y-128965514D01*
G04 #@! TO.N,/ArduinoLayer/Tx*
X155805855Y-115099977D02*
X155905853Y-114999979D01*
X155905853Y-114999979D02*
X155340168Y-114999979D01*
X155090126Y-115250021D02*
X138415685Y-115250021D01*
X155340168Y-114999979D02*
X155090126Y-115250021D01*
X138415685Y-115250021D02*
X137850000Y-115250021D01*
X113582461Y-129660193D02*
X113182462Y-129260194D01*
X113650000Y-129727732D02*
X113582461Y-129660193D01*
X113650000Y-131550000D02*
X113650000Y-129727732D01*
G04 #@! TD*
D31*
G04 #@! TO.N,GND*
G36*
X128484047Y-123215953D02*
X128549589Y-123259747D01*
X128549591Y-123259749D01*
X128624625Y-123309885D01*
X128743708Y-123389454D01*
X128972684Y-123435000D01*
X128972688Y-123435000D01*
X129049999Y-123450378D01*
X129127310Y-123435000D01*
X132122688Y-123435000D01*
X132200000Y-123450378D01*
X132277312Y-123435000D01*
X132277316Y-123435000D01*
X132506292Y-123389454D01*
X132765953Y-123215953D01*
X132791981Y-123177000D01*
X135773000Y-123177000D01*
X135773000Y-134015014D01*
X135684429Y-134015014D01*
X135684425Y-134015013D01*
X128334421Y-134015013D01*
X128257109Y-133999635D01*
X128179797Y-134015013D01*
X128179793Y-134015013D01*
X128054225Y-134039990D01*
X127100293Y-134039990D01*
X127124720Y-132769783D01*
X127574567Y-132319937D01*
X129458295Y-132319937D01*
X129551957Y-132546058D01*
X130054086Y-133048187D01*
X130710148Y-133319937D01*
X131420266Y-133319937D01*
X131570995Y-133257503D01*
X131577150Y-133261615D01*
X131684960Y-133333652D01*
X131943105Y-133385000D01*
X131943109Y-133385000D01*
X132030269Y-133402337D01*
X132117429Y-133385000D01*
X133101723Y-133385000D01*
X133217191Y-133557809D01*
X133427235Y-133698157D01*
X133675000Y-133747440D01*
X134425000Y-133747440D01*
X134672765Y-133698157D01*
X134882809Y-133557809D01*
X135023157Y-133347765D01*
X135072440Y-133100000D01*
X135072440Y-131900000D01*
X135023157Y-131652235D01*
X134921436Y-131500000D01*
X135023157Y-131347765D01*
X135072440Y-131100000D01*
X135072440Y-130627000D01*
X134177000Y-130627000D01*
X134177000Y-130647000D01*
X133923000Y-130647000D01*
X133923000Y-130627000D01*
X133027560Y-130627000D01*
X133027560Y-131100000D01*
X133076843Y-131347765D01*
X133178564Y-131500000D01*
X133101723Y-131615000D01*
X132850207Y-131615000D01*
X132850207Y-131179878D01*
X132578457Y-130523816D01*
X132076328Y-130021687D01*
X131782550Y-129900000D01*
X133027560Y-129900000D01*
X133027560Y-130373000D01*
X133923000Y-130373000D01*
X133923000Y-130353000D01*
X134177000Y-130353000D01*
X134177000Y-130373000D01*
X135072440Y-130373000D01*
X135072440Y-129900000D01*
X135023157Y-129652235D01*
X134882809Y-129442191D01*
X134679984Y-129306667D01*
X134722765Y-129298157D01*
X134932809Y-129157809D01*
X135073157Y-128947765D01*
X135122440Y-128700000D01*
X135122440Y-128227000D01*
X134227000Y-128227000D01*
X134227000Y-128247000D01*
X133973000Y-128247000D01*
X133973000Y-128227000D01*
X133077560Y-128227000D01*
X133077560Y-128700000D01*
X133126843Y-128947765D01*
X133267191Y-129157809D01*
X133470016Y-129293333D01*
X133427235Y-129301843D01*
X133217191Y-129442191D01*
X133076843Y-129652235D01*
X133027560Y-129900000D01*
X131782550Y-129900000D01*
X131420266Y-129749937D01*
X130710148Y-129749937D01*
X130054086Y-130021687D01*
X129551957Y-130523816D01*
X129458295Y-130749937D01*
X128437445Y-130749937D01*
X130415619Y-128771763D01*
X130481161Y-128727969D01*
X130524955Y-128662427D01*
X130524957Y-128662425D01*
X130576481Y-128585314D01*
X130654662Y-128468308D01*
X130667775Y-128402385D01*
X130710148Y-128419937D01*
X131420266Y-128419937D01*
X132076328Y-128148187D01*
X132578457Y-127646058D01*
X132850207Y-126989996D01*
X132850207Y-126985000D01*
X133151723Y-126985000D01*
X133228564Y-127100000D01*
X133126843Y-127252235D01*
X133077560Y-127500000D01*
X133077560Y-127973000D01*
X133973000Y-127973000D01*
X133973000Y-127953000D01*
X134227000Y-127953000D01*
X134227000Y-127973000D01*
X135122440Y-127973000D01*
X135122440Y-127500000D01*
X135073157Y-127252235D01*
X134971436Y-127100000D01*
X135073157Y-126947765D01*
X135122440Y-126700000D01*
X135122440Y-125500000D01*
X135073157Y-125252235D01*
X134932809Y-125042191D01*
X134722765Y-124901843D01*
X134475000Y-124852560D01*
X133725000Y-124852560D01*
X133477235Y-124901843D01*
X133267191Y-125042191D01*
X133151723Y-125215000D01*
X132169641Y-125215000D01*
X132076328Y-125121687D01*
X131420266Y-124849937D01*
X130710148Y-124849937D01*
X130054086Y-125121687D01*
X129551957Y-125623816D01*
X129280207Y-126279878D01*
X129280207Y-126989996D01*
X129369464Y-127205480D01*
X129349255Y-127218983D01*
X129175754Y-127478644D01*
X129130208Y-127707620D01*
X129130208Y-127707624D01*
X129114830Y-127784936D01*
X129125996Y-127841070D01*
X127127000Y-129840066D01*
X127127000Y-128237647D01*
X127250000Y-128237647D01*
X127497765Y-128188364D01*
X127707809Y-128048016D01*
X127848157Y-127837972D01*
X127897440Y-127590207D01*
X127897440Y-126840207D01*
X127862631Y-126665207D01*
X127897440Y-126490207D01*
X127897440Y-125740207D01*
X127848157Y-125492442D01*
X127707809Y-125282398D01*
X127497765Y-125142050D01*
X127250000Y-125092767D01*
X127127000Y-125092767D01*
X127127000Y-123177000D01*
X128458019Y-123177000D01*
X128484047Y-123215953D01*
X128484047Y-123215953D01*
G37*
X128484047Y-123215953D02*
X128549589Y-123259747D01*
X128549591Y-123259749D01*
X128624625Y-123309885D01*
X128743708Y-123389454D01*
X128972684Y-123435000D01*
X128972688Y-123435000D01*
X129049999Y-123450378D01*
X129127310Y-123435000D01*
X132122688Y-123435000D01*
X132200000Y-123450378D01*
X132277312Y-123435000D01*
X132277316Y-123435000D01*
X132506292Y-123389454D01*
X132765953Y-123215953D01*
X132791981Y-123177000D01*
X135773000Y-123177000D01*
X135773000Y-134015014D01*
X135684429Y-134015014D01*
X135684425Y-134015013D01*
X128334421Y-134015013D01*
X128257109Y-133999635D01*
X128179797Y-134015013D01*
X128179793Y-134015013D01*
X128054225Y-134039990D01*
X127100293Y-134039990D01*
X127124720Y-132769783D01*
X127574567Y-132319937D01*
X129458295Y-132319937D01*
X129551957Y-132546058D01*
X130054086Y-133048187D01*
X130710148Y-133319937D01*
X131420266Y-133319937D01*
X131570995Y-133257503D01*
X131577150Y-133261615D01*
X131684960Y-133333652D01*
X131943105Y-133385000D01*
X131943109Y-133385000D01*
X132030269Y-133402337D01*
X132117429Y-133385000D01*
X133101723Y-133385000D01*
X133217191Y-133557809D01*
X133427235Y-133698157D01*
X133675000Y-133747440D01*
X134425000Y-133747440D01*
X134672765Y-133698157D01*
X134882809Y-133557809D01*
X135023157Y-133347765D01*
X135072440Y-133100000D01*
X135072440Y-131900000D01*
X135023157Y-131652235D01*
X134921436Y-131500000D01*
X135023157Y-131347765D01*
X135072440Y-131100000D01*
X135072440Y-130627000D01*
X134177000Y-130627000D01*
X134177000Y-130647000D01*
X133923000Y-130647000D01*
X133923000Y-130627000D01*
X133027560Y-130627000D01*
X133027560Y-131100000D01*
X133076843Y-131347765D01*
X133178564Y-131500000D01*
X133101723Y-131615000D01*
X132850207Y-131615000D01*
X132850207Y-131179878D01*
X132578457Y-130523816D01*
X132076328Y-130021687D01*
X131782550Y-129900000D01*
X133027560Y-129900000D01*
X133027560Y-130373000D01*
X133923000Y-130373000D01*
X133923000Y-130353000D01*
X134177000Y-130353000D01*
X134177000Y-130373000D01*
X135072440Y-130373000D01*
X135072440Y-129900000D01*
X135023157Y-129652235D01*
X134882809Y-129442191D01*
X134679984Y-129306667D01*
X134722765Y-129298157D01*
X134932809Y-129157809D01*
X135073157Y-128947765D01*
X135122440Y-128700000D01*
X135122440Y-128227000D01*
X134227000Y-128227000D01*
X134227000Y-128247000D01*
X133973000Y-128247000D01*
X133973000Y-128227000D01*
X133077560Y-128227000D01*
X133077560Y-128700000D01*
X133126843Y-128947765D01*
X133267191Y-129157809D01*
X133470016Y-129293333D01*
X133427235Y-129301843D01*
X133217191Y-129442191D01*
X133076843Y-129652235D01*
X133027560Y-129900000D01*
X131782550Y-129900000D01*
X131420266Y-129749937D01*
X130710148Y-129749937D01*
X130054086Y-130021687D01*
X129551957Y-130523816D01*
X129458295Y-130749937D01*
X128437445Y-130749937D01*
X130415619Y-128771763D01*
X130481161Y-128727969D01*
X130524955Y-128662427D01*
X130524957Y-128662425D01*
X130576481Y-128585314D01*
X130654662Y-128468308D01*
X130667775Y-128402385D01*
X130710148Y-128419937D01*
X131420266Y-128419937D01*
X132076328Y-128148187D01*
X132578457Y-127646058D01*
X132850207Y-126989996D01*
X132850207Y-126985000D01*
X133151723Y-126985000D01*
X133228564Y-127100000D01*
X133126843Y-127252235D01*
X133077560Y-127500000D01*
X133077560Y-127973000D01*
X133973000Y-127973000D01*
X133973000Y-127953000D01*
X134227000Y-127953000D01*
X134227000Y-127973000D01*
X135122440Y-127973000D01*
X135122440Y-127500000D01*
X135073157Y-127252235D01*
X134971436Y-127100000D01*
X135073157Y-126947765D01*
X135122440Y-126700000D01*
X135122440Y-125500000D01*
X135073157Y-125252235D01*
X134932809Y-125042191D01*
X134722765Y-124901843D01*
X134475000Y-124852560D01*
X133725000Y-124852560D01*
X133477235Y-124901843D01*
X133267191Y-125042191D01*
X133151723Y-125215000D01*
X132169641Y-125215000D01*
X132076328Y-125121687D01*
X131420266Y-124849937D01*
X130710148Y-124849937D01*
X130054086Y-125121687D01*
X129551957Y-125623816D01*
X129280207Y-126279878D01*
X129280207Y-126989996D01*
X129369464Y-127205480D01*
X129349255Y-127218983D01*
X129175754Y-127478644D01*
X129130208Y-127707620D01*
X129130208Y-127707624D01*
X129114830Y-127784936D01*
X129125996Y-127841070D01*
X127127000Y-129840066D01*
X127127000Y-128237647D01*
X127250000Y-128237647D01*
X127497765Y-128188364D01*
X127707809Y-128048016D01*
X127848157Y-127837972D01*
X127897440Y-127590207D01*
X127897440Y-126840207D01*
X127862631Y-126665207D01*
X127897440Y-126490207D01*
X127897440Y-125740207D01*
X127848157Y-125492442D01*
X127707809Y-125282398D01*
X127497765Y-125142050D01*
X127250000Y-125092767D01*
X127127000Y-125092767D01*
X127127000Y-123177000D01*
X128458019Y-123177000D01*
X128484047Y-123215953D01*
G04 #@! TD*
M02*
