G04 #@! TF.GenerationSoftware,KiCad,Pcbnew,(5.0.2)-1*
G04 #@! TF.CreationDate,2020-05-18T12:22:33+09:00*
G04 #@! TF.ProjectId,controller,636f6e74-726f-46c6-9c65-722e6b696361,rev?*
G04 #@! TF.SameCoordinates,Original*
G04 #@! TF.FileFunction,Copper,L1,Top*
G04 #@! TF.FilePolarity,Positive*
%FSLAX46Y46*%
G04 Gerber Fmt 4.6, Leading zero omitted, Abs format (unit mm)*
G04 Created by KiCad (PCBNEW (5.0.2)-1) date 2020/05/18 12:22:33*
%MOMM*%
%LPD*%
G01*
G04 APERTURE LIST*
G04 #@! TA.AperFunction,ComponentPad*
%ADD10C,1.200000*%
G04 #@! TD*
G04 #@! TA.AperFunction,ComponentPad*
%ADD11O,1.000000X2.700000*%
G04 #@! TD*
G04 #@! TA.AperFunction,ComponentPad*
%ADD12O,1.000000X2.500000*%
G04 #@! TD*
G04 #@! TA.AperFunction,ComponentPad*
%ADD13O,1.200000X1.800000*%
G04 #@! TD*
G04 #@! TA.AperFunction,ComponentPad*
%ADD14R,1.200000X1.800000*%
G04 #@! TD*
G04 #@! TA.AperFunction,ComponentPad*
%ADD15C,2.300000*%
G04 #@! TD*
G04 #@! TA.AperFunction,ComponentPad*
%ADD16O,1.700000X1.700000*%
G04 #@! TD*
G04 #@! TA.AperFunction,ComponentPad*
%ADD17R,1.700000X1.700000*%
G04 #@! TD*
G04 #@! TA.AperFunction,ViaPad*
%ADD18C,0.800000*%
G04 #@! TD*
G04 #@! TA.AperFunction,Conductor*
%ADD19C,0.500000*%
G04 #@! TD*
G04 #@! TA.AperFunction,Conductor*
%ADD20C,0.300000*%
G04 #@! TD*
G04 #@! TA.AperFunction,Conductor*
%ADD21C,0.254000*%
G04 #@! TD*
G04 APERTURE END LIST*
D10*
G04 #@! TO.P,J3,*
G04 #@! TO.N,*
X96450000Y-83500000D03*
X96450000Y-76500000D03*
D11*
G04 #@! TO.P,J3,R2*
G04 #@! TO.N,/Rx*
X94250000Y-78300000D03*
D12*
G04 #@! TO.P,J3,R1*
G04 #@! TO.N,/Tx*
X94250000Y-81300000D03*
G04 #@! TO.P,J3,T*
G04 #@! TO.N,+5V*
X94250000Y-85300000D03*
G04 #@! TO.P,J3,S*
G04 #@! TO.N,GND*
X98550000Y-86800000D03*
G04 #@! TD*
D13*
G04 #@! TO.P,J5,6*
G04 #@! TO.N,GND*
X63300000Y-93400000D03*
G04 #@! TO.P,J5,5*
G04 #@! TO.N,/READ*
X64800000Y-93400000D03*
G04 #@! TO.P,J5,4*
G04 #@! TO.N,/COL_EN*
X66300000Y-93400000D03*
G04 #@! TO.P,J5,3*
G04 #@! TO.N,/COL_C*
X67800000Y-93400000D03*
G04 #@! TO.P,J5,2*
G04 #@! TO.N,/COL_B*
X69300000Y-93400000D03*
D14*
G04 #@! TO.P,J5,1*
G04 #@! TO.N,/COL_A*
X70800000Y-93400000D03*
G04 #@! TD*
G04 #@! TO.P,J4,1*
G04 #@! TO.N,+5V*
X60000000Y-93400000D03*
D13*
G04 #@! TO.P,J4,2*
G04 #@! TO.N,/MUX_A*
X58500000Y-93400000D03*
G04 #@! TO.P,J4,3*
G04 #@! TO.N,/MUX_B*
X57000000Y-93400000D03*
G04 #@! TO.P,J4,4*
G04 #@! TO.N,/MUX_C*
X55500000Y-93400000D03*
G04 #@! TO.P,J4,5*
G04 #@! TO.N,/MUX_EN*
X54000000Y-93400000D03*
G04 #@! TO.P,J4,6*
G04 #@! TO.N,/DRAIN*
X52500000Y-93400000D03*
G04 #@! TD*
D15*
G04 #@! TO.P,Y1,2*
G04 #@! TO.N,Net-(C9-Pad1)*
X87600000Y-85100000D03*
G04 #@! TO.P,Y1,1*
G04 #@! TO.N,Net-(C8-Pad1)*
X87600000Y-90000000D03*
G04 #@! TD*
D16*
G04 #@! TO.P,J1,6*
G04 #@! TO.N,GND*
X86020000Y-76960000D03*
G04 #@! TO.P,J1,5*
G04 #@! TO.N,/RESET*
X86020000Y-79500000D03*
G04 #@! TO.P,J1,4*
G04 #@! TO.N,/MOSI*
X88560000Y-76960000D03*
G04 #@! TO.P,J1,3*
G04 #@! TO.N,/SCK*
X88560000Y-79500000D03*
G04 #@! TO.P,J1,2*
G04 #@! TO.N,+5V*
X91100000Y-76960000D03*
D17*
G04 #@! TO.P,J1,1*
G04 #@! TO.N,/MISO*
X91100000Y-79500000D03*
G04 #@! TD*
G04 #@! TO.P,J1,1*
G04 #@! TO.N,/MISO*
X91100000Y-54500000D03*
D16*
G04 #@! TO.P,J1,2*
G04 #@! TO.N,+5V*
X91100000Y-51960000D03*
G04 #@! TO.P,J1,3*
G04 #@! TO.N,/SCK*
X88560000Y-54500000D03*
G04 #@! TO.P,J1,4*
G04 #@! TO.N,/MOSI*
X88560000Y-51960000D03*
G04 #@! TO.P,J1,5*
G04 #@! TO.N,/RESET*
X86020000Y-54500000D03*
G04 #@! TO.P,J1,6*
G04 #@! TO.N,GND*
X86020000Y-51960000D03*
G04 #@! TD*
D15*
G04 #@! TO.P,Y1,1*
G04 #@! TO.N,Net-(C8-Pad1)*
X87600000Y-65000000D03*
G04 #@! TO.P,Y1,2*
G04 #@! TO.N,Net-(C9-Pad1)*
X87600000Y-60100000D03*
G04 #@! TD*
D12*
G04 #@! TO.P,J3,S*
G04 #@! TO.N,GND*
X98200000Y-61800000D03*
G04 #@! TO.P,J3,T*
G04 #@! TO.N,+5V*
X93900000Y-60300000D03*
G04 #@! TO.P,J3,R1*
G04 #@! TO.N,/Rx*
X93900000Y-56300000D03*
D11*
G04 #@! TO.P,J3,R2*
G04 #@! TO.N,/Tx*
X93900000Y-53300000D03*
D10*
G04 #@! TO.P,J3,*
G04 #@! TO.N,*
X96100000Y-51500000D03*
X96100000Y-58500000D03*
G04 #@! TD*
D13*
G04 #@! TO.P,J4,6*
G04 #@! TO.N,/DRAIN*
X52500000Y-68400000D03*
G04 #@! TO.P,J4,5*
G04 #@! TO.N,/MUX_EN*
X54000000Y-68400000D03*
G04 #@! TO.P,J4,4*
G04 #@! TO.N,/MUX_C*
X55500000Y-68400000D03*
G04 #@! TO.P,J4,3*
G04 #@! TO.N,/MUX_B*
X57000000Y-68400000D03*
G04 #@! TO.P,J4,2*
G04 #@! TO.N,/MUX_A*
X58500000Y-68400000D03*
D14*
G04 #@! TO.P,J4,1*
G04 #@! TO.N,+5V*
X60000000Y-68400000D03*
G04 #@! TD*
G04 #@! TO.P,J5,1*
G04 #@! TO.N,/COL_A*
X70800000Y-68400000D03*
D13*
G04 #@! TO.P,J5,2*
G04 #@! TO.N,/COL_B*
X69300000Y-68400000D03*
G04 #@! TO.P,J5,3*
G04 #@! TO.N,/COL_C*
X67800000Y-68400000D03*
G04 #@! TO.P,J5,4*
G04 #@! TO.N,/COL_EN*
X66300000Y-68400000D03*
G04 #@! TO.P,J5,5*
G04 #@! TO.N,/READ*
X64800000Y-68400000D03*
G04 #@! TO.P,J5,6*
G04 #@! TO.N,GND*
X63300000Y-68400000D03*
G04 #@! TD*
D18*
G04 #@! TO.N,GND*
X84900000Y-61900000D03*
X86600000Y-58200000D03*
X86600001Y-66600001D03*
X90072287Y-66600001D03*
X90200000Y-58200000D03*
X92225010Y-61900000D03*
X92225010Y-58887037D03*
X86600000Y-83200000D03*
X90200000Y-83200000D03*
X90072287Y-91600001D03*
X92225010Y-86900000D03*
X92225010Y-83887037D03*
X84900000Y-86900000D03*
X86600001Y-91600001D03*
G04 #@! TO.N,/READ*
X65300000Y-60000000D03*
X65300000Y-85000000D03*
G04 #@! TO.N,/COL_EN*
X79048952Y-57851048D03*
X79048952Y-82851048D03*
G04 #@! TO.N,/COL_C*
X75500000Y-63649979D03*
X75500000Y-88649979D03*
G04 #@! TO.N,/COL_B*
X76500000Y-64149990D03*
X76500000Y-89149990D03*
G04 #@! TO.N,/COL_A*
X77700000Y-64900000D03*
X77700000Y-89900000D03*
G04 #@! TO.N,/RESET*
X84777952Y-57477951D03*
X71800000Y-53300000D03*
X84777952Y-82477951D03*
X71800000Y-78300000D03*
G04 #@! TO.N,/CLKLED*
X74600000Y-68300000D03*
X92300000Y-70500000D03*
X74600000Y-93300000D03*
X92300000Y-95500000D03*
G04 #@! TO.N,/RXLED*
X91200000Y-70300000D03*
X79200000Y-56800000D03*
X79200000Y-81800000D03*
X91200000Y-95300000D03*
G04 #@! TO.N,/D+*
X59900000Y-57800000D03*
X75050010Y-56915644D03*
X75050010Y-81915644D03*
X59900000Y-82800000D03*
G04 #@! TO.N,/D-*
X60400000Y-58700000D03*
X75941848Y-57368026D03*
X60400000Y-83700000D03*
X75941848Y-82368026D03*
G04 #@! TD*
D19*
G04 #@! TO.N,GND*
X84900000Y-61900000D02*
X84900000Y-59900000D01*
X84900000Y-59900000D02*
X86600000Y-58200000D01*
X84900000Y-84900000D02*
X86600000Y-83200000D01*
X84900000Y-86900000D02*
X84900000Y-84900000D01*
G04 #@! TO.N,/READ*
X64800000Y-60500000D02*
X64800000Y-68400000D01*
X65300000Y-60000000D02*
X64800000Y-60500000D01*
X65300000Y-85000000D02*
X64800000Y-85500000D01*
X64800000Y-85500000D02*
X64800000Y-93400000D01*
G04 #@! TO.N,/COL_EN*
X76600000Y-60300000D02*
X78648953Y-58251047D01*
X66300000Y-67000000D02*
X73000000Y-60300000D01*
X66300000Y-68400000D02*
X66300000Y-67000000D01*
X78648953Y-58251047D02*
X79048952Y-57851048D01*
X73000000Y-60300000D02*
X76600000Y-60300000D01*
X66300000Y-92000000D02*
X73000000Y-85300000D01*
X73000000Y-85300000D02*
X76600000Y-85300000D01*
X66300000Y-93400000D02*
X66300000Y-92000000D01*
X76600000Y-85300000D02*
X78648953Y-83251047D01*
X78648953Y-83251047D02*
X79048952Y-82851048D01*
D20*
G04 #@! TO.N,/COL_C*
X67800000Y-67200000D02*
X71350021Y-63649979D01*
X71350021Y-63649979D02*
X74934315Y-63649979D01*
X74934315Y-63649979D02*
X75500000Y-63649979D01*
X67800000Y-68400000D02*
X67800000Y-67200000D01*
X67800000Y-92200000D02*
X71350021Y-88649979D01*
X67800000Y-93400000D02*
X67800000Y-92200000D01*
X74934315Y-88649979D02*
X75500000Y-88649979D01*
X71350021Y-88649979D02*
X74934315Y-88649979D01*
G04 #@! TO.N,/COL_B*
X71492889Y-64399989D02*
X76250001Y-64399989D01*
X76250001Y-64399989D02*
X76500000Y-64149990D01*
X69300000Y-66592878D02*
X71492889Y-64399989D01*
X69300000Y-68400000D02*
X69300000Y-66592878D01*
X76250001Y-89399989D02*
X76500000Y-89149990D01*
X69300000Y-91592878D02*
X71492889Y-89399989D01*
X69300000Y-93400000D02*
X69300000Y-91592878D01*
X71492889Y-89399989D02*
X76250001Y-89399989D01*
G04 #@! TO.N,/COL_A*
X70800000Y-68400000D02*
X70800000Y-65800000D01*
X71700000Y-64900000D02*
X77700000Y-64900000D01*
X70800000Y-65800000D02*
X71700000Y-64900000D01*
X71700000Y-89900000D02*
X77700000Y-89900000D01*
X70800000Y-90800000D02*
X71700000Y-89900000D01*
X70800000Y-93400000D02*
X70800000Y-90800000D01*
D19*
G04 #@! TO.N,/RESET*
X86020000Y-55702081D02*
X86000000Y-55722081D01*
X86020000Y-54500000D02*
X86020000Y-55702081D01*
X86000000Y-55722081D02*
X86000000Y-56900000D01*
X85422049Y-57477951D02*
X84777952Y-57477951D01*
X86000000Y-56900000D02*
X85422049Y-57477951D01*
X86000000Y-56900000D02*
X86000000Y-56500000D01*
X86000000Y-56500000D02*
X85000000Y-55500000D01*
X85000000Y-55500000D02*
X72800000Y-55500000D01*
X72800000Y-55500000D02*
X71800000Y-54500000D01*
X71800000Y-54500000D02*
X71800000Y-53300000D01*
X71800000Y-79500000D02*
X71800000Y-78300000D01*
X85000000Y-80500000D02*
X72800000Y-80500000D01*
X72800000Y-80500000D02*
X71800000Y-79500000D01*
X86020000Y-79500000D02*
X86020000Y-80702081D01*
X86000000Y-80722081D02*
X86000000Y-81900000D01*
X85422049Y-82477951D02*
X84777952Y-82477951D01*
X86000000Y-81900000D02*
X85422049Y-82477951D01*
X86000000Y-81900000D02*
X86000000Y-81500000D01*
X86020000Y-80702081D02*
X86000000Y-80722081D01*
X86000000Y-81500000D02*
X85000000Y-80500000D01*
G04 #@! TO.N,/CLKLED*
X74600000Y-68865685D02*
X77734315Y-72000000D01*
X74600000Y-68300000D02*
X74600000Y-68865685D01*
X77734315Y-72000000D02*
X90800000Y-72000000D01*
X90800000Y-72000000D02*
X92300000Y-70500000D01*
X77734315Y-97000000D02*
X90800000Y-97000000D01*
X90800000Y-97000000D02*
X92300000Y-95500000D01*
X74600000Y-93865685D02*
X77734315Y-97000000D01*
X74600000Y-93300000D02*
X74600000Y-93865685D01*
G04 #@! TO.N,/RXLED*
X91200000Y-70300000D02*
X90634315Y-70300000D01*
X90634315Y-70300000D02*
X80600000Y-70300000D01*
X80600000Y-70300000D02*
X80100000Y-69800000D01*
X80100000Y-57700000D02*
X79200000Y-56800000D01*
X80100000Y-69800000D02*
X80100000Y-57700000D01*
X90634315Y-95300000D02*
X80600000Y-95300000D01*
X80600000Y-95300000D02*
X80100000Y-94800000D01*
X80100000Y-94800000D02*
X80100000Y-82700000D01*
X91200000Y-95300000D02*
X90634315Y-95300000D01*
X80100000Y-82700000D02*
X79200000Y-81800000D01*
G04 #@! TO.N,/D+*
X59900000Y-57800000D02*
X60784356Y-56915644D01*
X74484325Y-56915644D02*
X75050010Y-56915644D01*
X60784356Y-56915644D02*
X74484325Y-56915644D01*
X59900000Y-82800000D02*
X60784356Y-81915644D01*
X74484325Y-81915644D02*
X75050010Y-81915644D01*
X60784356Y-81915644D02*
X74484325Y-81915644D01*
G04 #@! TO.N,/D-*
X60400000Y-58700000D02*
X61300000Y-57800000D01*
X61300000Y-57800000D02*
X75509874Y-57800000D01*
X75541849Y-57768025D02*
X75941848Y-57368026D01*
X75509874Y-57800000D02*
X75541849Y-57768025D01*
X60400000Y-83700000D02*
X61300000Y-82800000D01*
X75541849Y-82768025D02*
X75941848Y-82368026D01*
X75509874Y-82800000D02*
X75541849Y-82768025D01*
X61300000Y-82800000D02*
X75509874Y-82800000D01*
G04 #@! TD*
D21*
G04 #@! TO.N,GND*
G36*
X95053018Y-50800429D02*
X94865000Y-51254343D01*
X94865000Y-51745657D01*
X95053018Y-52199571D01*
X95400429Y-52546982D01*
X95854343Y-52735000D01*
X96345657Y-52735000D01*
X96799571Y-52546982D01*
X97146982Y-52199571D01*
X97335000Y-51745657D01*
X97335000Y-51254343D01*
X97146982Y-50800429D01*
X97056553Y-50710000D01*
X99290001Y-50710000D01*
X99290001Y-60781440D01*
X99200002Y-60498322D01*
X98912763Y-60157632D01*
X98501874Y-59955881D01*
X98327000Y-60082046D01*
X98327000Y-61673000D01*
X98347000Y-61673000D01*
X98347000Y-61927000D01*
X98327000Y-61927000D01*
X98327000Y-63517954D01*
X98501874Y-63644119D01*
X98912763Y-63442368D01*
X99200002Y-63101678D01*
X99290000Y-62818560D01*
X99290000Y-72790000D01*
X97930074Y-72790000D01*
X97861491Y-72803642D01*
X97861487Y-72803642D01*
X97670145Y-72841702D01*
X97594585Y-72873000D01*
X94405416Y-72873000D01*
X94329856Y-72841702D01*
X94138513Y-72803642D01*
X94138509Y-72803642D01*
X94069926Y-72790000D01*
X91930074Y-72790000D01*
X91861491Y-72803642D01*
X91861487Y-72803642D01*
X91670145Y-72841702D01*
X91594585Y-72873000D01*
X90947493Y-72873000D01*
X91145310Y-72833652D01*
X91438049Y-72638049D01*
X91487425Y-72564153D01*
X92524148Y-71527431D01*
X92886280Y-71377431D01*
X93177431Y-71086280D01*
X93335000Y-70705874D01*
X93335000Y-70294126D01*
X93177431Y-69913720D01*
X92886280Y-69622569D01*
X92505874Y-69465000D01*
X92094126Y-69465000D01*
X91906449Y-69542738D01*
X91786280Y-69422569D01*
X91405874Y-69265000D01*
X90994126Y-69265000D01*
X90631993Y-69415000D01*
X80985000Y-69415000D01*
X80985000Y-64644941D01*
X85815000Y-64644941D01*
X85815000Y-65355059D01*
X86086750Y-66011121D01*
X86588879Y-66513250D01*
X87244941Y-66785000D01*
X87955059Y-66785000D01*
X88611121Y-66513250D01*
X89113250Y-66011121D01*
X89385000Y-65355059D01*
X89385000Y-64644941D01*
X89113250Y-63988879D01*
X88611121Y-63486750D01*
X87955059Y-63215000D01*
X87244941Y-63215000D01*
X86588879Y-63486750D01*
X86086750Y-63988879D01*
X85815000Y-64644941D01*
X80985000Y-64644941D01*
X80985000Y-59744941D01*
X85815000Y-59744941D01*
X85815000Y-60455059D01*
X86086750Y-61111121D01*
X86588879Y-61613250D01*
X87244941Y-61885000D01*
X87955059Y-61885000D01*
X88611121Y-61613250D01*
X89113250Y-61111121D01*
X89385000Y-60455059D01*
X89385000Y-59744941D01*
X89257951Y-59438217D01*
X92765000Y-59438217D01*
X92765000Y-61161782D01*
X92830854Y-61492854D01*
X93081711Y-61868289D01*
X93457145Y-62119146D01*
X93900000Y-62207235D01*
X94342854Y-62119146D01*
X94630421Y-61927000D01*
X97065000Y-61927000D01*
X97065000Y-62677000D01*
X97199998Y-63101678D01*
X97487237Y-63442368D01*
X97898126Y-63644119D01*
X98073000Y-63517954D01*
X98073000Y-61927000D01*
X97065000Y-61927000D01*
X94630421Y-61927000D01*
X94718289Y-61868289D01*
X94969146Y-61492855D01*
X95035000Y-61161783D01*
X95035000Y-60923000D01*
X97065000Y-60923000D01*
X97065000Y-61673000D01*
X98073000Y-61673000D01*
X98073000Y-60082046D01*
X97898126Y-59955881D01*
X97487237Y-60157632D01*
X97199998Y-60498322D01*
X97065000Y-60923000D01*
X95035000Y-60923000D01*
X95035000Y-59438217D01*
X94969146Y-59107145D01*
X94718289Y-58731711D01*
X94342855Y-58480854D01*
X93900000Y-58392765D01*
X93457146Y-58480854D01*
X93081712Y-58731711D01*
X92830855Y-59107145D01*
X92765000Y-59438217D01*
X89257951Y-59438217D01*
X89113250Y-59088879D01*
X88611121Y-58586750D01*
X87955059Y-58315000D01*
X87244941Y-58315000D01*
X86588879Y-58586750D01*
X86086750Y-59088879D01*
X85815000Y-59744941D01*
X80985000Y-59744941D01*
X80985000Y-57787159D01*
X81002337Y-57699999D01*
X80985000Y-57612839D01*
X80985000Y-57612835D01*
X80933652Y-57354690D01*
X80838977Y-57212999D01*
X80787424Y-57135845D01*
X80787423Y-57135844D01*
X80738049Y-57061951D01*
X80664156Y-57012577D01*
X80227431Y-56575852D01*
X80148377Y-56385000D01*
X84633422Y-56385000D01*
X84691373Y-56442951D01*
X84572078Y-56442951D01*
X84191672Y-56600520D01*
X83900521Y-56891671D01*
X83742952Y-57272077D01*
X83742952Y-57683825D01*
X83900521Y-58064231D01*
X84191672Y-58355382D01*
X84572078Y-58512951D01*
X84983826Y-58512951D01*
X85342367Y-58364439D01*
X85422049Y-58380288D01*
X85509210Y-58362951D01*
X85509214Y-58362951D01*
X85767359Y-58311603D01*
X85853054Y-58254343D01*
X94865000Y-58254343D01*
X94865000Y-58745657D01*
X95053018Y-59199571D01*
X95400429Y-59546982D01*
X95854343Y-59735000D01*
X96345657Y-59735000D01*
X96799571Y-59546982D01*
X97146982Y-59199571D01*
X97335000Y-58745657D01*
X97335000Y-58254343D01*
X97146982Y-57800429D01*
X96799571Y-57453018D01*
X96345657Y-57265000D01*
X95854343Y-57265000D01*
X95400429Y-57453018D01*
X95053018Y-57800429D01*
X94865000Y-58254343D01*
X85853054Y-58254343D01*
X86060098Y-58116000D01*
X86109474Y-58042105D01*
X86564156Y-57587423D01*
X86638049Y-57538049D01*
X86693748Y-57454691D01*
X86820495Y-57265000D01*
X86833652Y-57245310D01*
X86885000Y-56987165D01*
X86885000Y-56987161D01*
X86902337Y-56900001D01*
X86885000Y-56812841D01*
X86885000Y-56587161D01*
X86902337Y-56500000D01*
X86885000Y-56412839D01*
X86885000Y-55889793D01*
X86905000Y-55789246D01*
X86905000Y-55789241D01*
X86922337Y-55702082D01*
X86918999Y-55685302D01*
X87090625Y-55570625D01*
X87290000Y-55272239D01*
X87489375Y-55570625D01*
X87980582Y-55898839D01*
X88413744Y-55985000D01*
X88706256Y-55985000D01*
X89139418Y-55898839D01*
X89630625Y-55570625D01*
X89642816Y-55552381D01*
X89651843Y-55597765D01*
X89792191Y-55807809D01*
X90002235Y-55948157D01*
X90250000Y-55997440D01*
X91950000Y-55997440D01*
X92197765Y-55948157D01*
X92407809Y-55807809D01*
X92548157Y-55597765D01*
X92597440Y-55350000D01*
X92597440Y-53650000D01*
X92548157Y-53402235D01*
X92407809Y-53192191D01*
X92197765Y-53051843D01*
X92152381Y-53042816D01*
X92170625Y-53030625D01*
X92498839Y-52539418D01*
X92538860Y-52338217D01*
X92765000Y-52338217D01*
X92765000Y-54261782D01*
X92830854Y-54592854D01*
X93002673Y-54850001D01*
X92830855Y-55107145D01*
X92765000Y-55438217D01*
X92765000Y-57161782D01*
X92830854Y-57492854D01*
X93081711Y-57868289D01*
X93457145Y-58119146D01*
X93900000Y-58207235D01*
X94342854Y-58119146D01*
X94718289Y-57868289D01*
X94969146Y-57492855D01*
X95035000Y-57161783D01*
X95035000Y-55438217D01*
X94969146Y-55107145D01*
X94797327Y-54850000D01*
X94969146Y-54592855D01*
X95035000Y-54261783D01*
X95035000Y-52338217D01*
X94969146Y-52007145D01*
X94718289Y-51631711D01*
X94342855Y-51380854D01*
X93900000Y-51292765D01*
X93457146Y-51380854D01*
X93081712Y-51631711D01*
X92830855Y-52007145D01*
X92765000Y-52338217D01*
X92538860Y-52338217D01*
X92614092Y-51960000D01*
X92498839Y-51380582D01*
X92170625Y-50889375D01*
X91902171Y-50710000D01*
X95143447Y-50710000D01*
X95053018Y-50800429D01*
X95053018Y-50800429D01*
G37*
X95053018Y-50800429D02*
X94865000Y-51254343D01*
X94865000Y-51745657D01*
X95053018Y-52199571D01*
X95400429Y-52546982D01*
X95854343Y-52735000D01*
X96345657Y-52735000D01*
X96799571Y-52546982D01*
X97146982Y-52199571D01*
X97335000Y-51745657D01*
X97335000Y-51254343D01*
X97146982Y-50800429D01*
X97056553Y-50710000D01*
X99290001Y-50710000D01*
X99290001Y-60781440D01*
X99200002Y-60498322D01*
X98912763Y-60157632D01*
X98501874Y-59955881D01*
X98327000Y-60082046D01*
X98327000Y-61673000D01*
X98347000Y-61673000D01*
X98347000Y-61927000D01*
X98327000Y-61927000D01*
X98327000Y-63517954D01*
X98501874Y-63644119D01*
X98912763Y-63442368D01*
X99200002Y-63101678D01*
X99290000Y-62818560D01*
X99290000Y-72790000D01*
X97930074Y-72790000D01*
X97861491Y-72803642D01*
X97861487Y-72803642D01*
X97670145Y-72841702D01*
X97594585Y-72873000D01*
X94405416Y-72873000D01*
X94329856Y-72841702D01*
X94138513Y-72803642D01*
X94138509Y-72803642D01*
X94069926Y-72790000D01*
X91930074Y-72790000D01*
X91861491Y-72803642D01*
X91861487Y-72803642D01*
X91670145Y-72841702D01*
X91594585Y-72873000D01*
X90947493Y-72873000D01*
X91145310Y-72833652D01*
X91438049Y-72638049D01*
X91487425Y-72564153D01*
X92524148Y-71527431D01*
X92886280Y-71377431D01*
X93177431Y-71086280D01*
X93335000Y-70705874D01*
X93335000Y-70294126D01*
X93177431Y-69913720D01*
X92886280Y-69622569D01*
X92505874Y-69465000D01*
X92094126Y-69465000D01*
X91906449Y-69542738D01*
X91786280Y-69422569D01*
X91405874Y-69265000D01*
X90994126Y-69265000D01*
X90631993Y-69415000D01*
X80985000Y-69415000D01*
X80985000Y-64644941D01*
X85815000Y-64644941D01*
X85815000Y-65355059D01*
X86086750Y-66011121D01*
X86588879Y-66513250D01*
X87244941Y-66785000D01*
X87955059Y-66785000D01*
X88611121Y-66513250D01*
X89113250Y-66011121D01*
X89385000Y-65355059D01*
X89385000Y-64644941D01*
X89113250Y-63988879D01*
X88611121Y-63486750D01*
X87955059Y-63215000D01*
X87244941Y-63215000D01*
X86588879Y-63486750D01*
X86086750Y-63988879D01*
X85815000Y-64644941D01*
X80985000Y-64644941D01*
X80985000Y-59744941D01*
X85815000Y-59744941D01*
X85815000Y-60455059D01*
X86086750Y-61111121D01*
X86588879Y-61613250D01*
X87244941Y-61885000D01*
X87955059Y-61885000D01*
X88611121Y-61613250D01*
X89113250Y-61111121D01*
X89385000Y-60455059D01*
X89385000Y-59744941D01*
X89257951Y-59438217D01*
X92765000Y-59438217D01*
X92765000Y-61161782D01*
X92830854Y-61492854D01*
X93081711Y-61868289D01*
X93457145Y-62119146D01*
X93900000Y-62207235D01*
X94342854Y-62119146D01*
X94630421Y-61927000D01*
X97065000Y-61927000D01*
X97065000Y-62677000D01*
X97199998Y-63101678D01*
X97487237Y-63442368D01*
X97898126Y-63644119D01*
X98073000Y-63517954D01*
X98073000Y-61927000D01*
X97065000Y-61927000D01*
X94630421Y-61927000D01*
X94718289Y-61868289D01*
X94969146Y-61492855D01*
X95035000Y-61161783D01*
X95035000Y-60923000D01*
X97065000Y-60923000D01*
X97065000Y-61673000D01*
X98073000Y-61673000D01*
X98073000Y-60082046D01*
X97898126Y-59955881D01*
X97487237Y-60157632D01*
X97199998Y-60498322D01*
X97065000Y-60923000D01*
X95035000Y-60923000D01*
X95035000Y-59438217D01*
X94969146Y-59107145D01*
X94718289Y-58731711D01*
X94342855Y-58480854D01*
X93900000Y-58392765D01*
X93457146Y-58480854D01*
X93081712Y-58731711D01*
X92830855Y-59107145D01*
X92765000Y-59438217D01*
X89257951Y-59438217D01*
X89113250Y-59088879D01*
X88611121Y-58586750D01*
X87955059Y-58315000D01*
X87244941Y-58315000D01*
X86588879Y-58586750D01*
X86086750Y-59088879D01*
X85815000Y-59744941D01*
X80985000Y-59744941D01*
X80985000Y-57787159D01*
X81002337Y-57699999D01*
X80985000Y-57612839D01*
X80985000Y-57612835D01*
X80933652Y-57354690D01*
X80838977Y-57212999D01*
X80787424Y-57135845D01*
X80787423Y-57135844D01*
X80738049Y-57061951D01*
X80664156Y-57012577D01*
X80227431Y-56575852D01*
X80148377Y-56385000D01*
X84633422Y-56385000D01*
X84691373Y-56442951D01*
X84572078Y-56442951D01*
X84191672Y-56600520D01*
X83900521Y-56891671D01*
X83742952Y-57272077D01*
X83742952Y-57683825D01*
X83900521Y-58064231D01*
X84191672Y-58355382D01*
X84572078Y-58512951D01*
X84983826Y-58512951D01*
X85342367Y-58364439D01*
X85422049Y-58380288D01*
X85509210Y-58362951D01*
X85509214Y-58362951D01*
X85767359Y-58311603D01*
X85853054Y-58254343D01*
X94865000Y-58254343D01*
X94865000Y-58745657D01*
X95053018Y-59199571D01*
X95400429Y-59546982D01*
X95854343Y-59735000D01*
X96345657Y-59735000D01*
X96799571Y-59546982D01*
X97146982Y-59199571D01*
X97335000Y-58745657D01*
X97335000Y-58254343D01*
X97146982Y-57800429D01*
X96799571Y-57453018D01*
X96345657Y-57265000D01*
X95854343Y-57265000D01*
X95400429Y-57453018D01*
X95053018Y-57800429D01*
X94865000Y-58254343D01*
X85853054Y-58254343D01*
X86060098Y-58116000D01*
X86109474Y-58042105D01*
X86564156Y-57587423D01*
X86638049Y-57538049D01*
X86693748Y-57454691D01*
X86820495Y-57265000D01*
X86833652Y-57245310D01*
X86885000Y-56987165D01*
X86885000Y-56987161D01*
X86902337Y-56900001D01*
X86885000Y-56812841D01*
X86885000Y-56587161D01*
X86902337Y-56500000D01*
X86885000Y-56412839D01*
X86885000Y-55889793D01*
X86905000Y-55789246D01*
X86905000Y-55789241D01*
X86922337Y-55702082D01*
X86918999Y-55685302D01*
X87090625Y-55570625D01*
X87290000Y-55272239D01*
X87489375Y-55570625D01*
X87980582Y-55898839D01*
X88413744Y-55985000D01*
X88706256Y-55985000D01*
X89139418Y-55898839D01*
X89630625Y-55570625D01*
X89642816Y-55552381D01*
X89651843Y-55597765D01*
X89792191Y-55807809D01*
X90002235Y-55948157D01*
X90250000Y-55997440D01*
X91950000Y-55997440D01*
X92197765Y-55948157D01*
X92407809Y-55807809D01*
X92548157Y-55597765D01*
X92597440Y-55350000D01*
X92597440Y-53650000D01*
X92548157Y-53402235D01*
X92407809Y-53192191D01*
X92197765Y-53051843D01*
X92152381Y-53042816D01*
X92170625Y-53030625D01*
X92498839Y-52539418D01*
X92538860Y-52338217D01*
X92765000Y-52338217D01*
X92765000Y-54261782D01*
X92830854Y-54592854D01*
X93002673Y-54850001D01*
X92830855Y-55107145D01*
X92765000Y-55438217D01*
X92765000Y-57161782D01*
X92830854Y-57492854D01*
X93081711Y-57868289D01*
X93457145Y-58119146D01*
X93900000Y-58207235D01*
X94342854Y-58119146D01*
X94718289Y-57868289D01*
X94969146Y-57492855D01*
X95035000Y-57161783D01*
X95035000Y-55438217D01*
X94969146Y-55107145D01*
X94797327Y-54850000D01*
X94969146Y-54592855D01*
X95035000Y-54261783D01*
X95035000Y-52338217D01*
X94969146Y-52007145D01*
X94718289Y-51631711D01*
X94342855Y-51380854D01*
X93900000Y-51292765D01*
X93457146Y-51380854D01*
X93081712Y-51631711D01*
X92830855Y-52007145D01*
X92765000Y-52338217D01*
X92538860Y-52338217D01*
X92614092Y-51960000D01*
X92498839Y-51380582D01*
X92170625Y-50889375D01*
X91902171Y-50710000D01*
X95143447Y-50710000D01*
X95053018Y-50800429D01*
G36*
X84824817Y-51078642D02*
X84578514Y-51603108D01*
X84699181Y-51833000D01*
X85893000Y-51833000D01*
X85893000Y-51813000D01*
X86147000Y-51813000D01*
X86147000Y-51833000D01*
X86167000Y-51833000D01*
X86167000Y-52087000D01*
X86147000Y-52087000D01*
X86147000Y-52107000D01*
X85893000Y-52107000D01*
X85893000Y-52087000D01*
X84699181Y-52087000D01*
X84578514Y-52316892D01*
X84824817Y-52841358D01*
X85249786Y-53228647D01*
X84949375Y-53429375D01*
X84621161Y-53920582D01*
X84505908Y-54500000D01*
X84528783Y-54615000D01*
X73166579Y-54615000D01*
X72685000Y-54133422D01*
X72685000Y-53868007D01*
X72835000Y-53505874D01*
X72835000Y-53094126D01*
X72677431Y-52713720D01*
X72386280Y-52422569D01*
X72005874Y-52265000D01*
X71594126Y-52265000D01*
X71213720Y-52422569D01*
X70922569Y-52713720D01*
X70765000Y-53094126D01*
X70765000Y-53505874D01*
X70915001Y-53868008D01*
X70915000Y-54412839D01*
X70897663Y-54500000D01*
X70915000Y-54587161D01*
X70915000Y-54587164D01*
X70966348Y-54845309D01*
X71161951Y-55138049D01*
X71235847Y-55187425D01*
X72079065Y-56030644D01*
X60871515Y-56030644D01*
X60784355Y-56013307D01*
X60697195Y-56030644D01*
X60697191Y-56030644D01*
X60439046Y-56081992D01*
X60439044Y-56081993D01*
X60439045Y-56081993D01*
X60220201Y-56228220D01*
X60220200Y-56228221D01*
X60146307Y-56277595D01*
X60096933Y-56351488D01*
X59675852Y-56772569D01*
X59313720Y-56922569D01*
X59022569Y-57213720D01*
X58865000Y-57594126D01*
X58865000Y-58005874D01*
X59022569Y-58386280D01*
X59313720Y-58677431D01*
X59365000Y-58698672D01*
X59365000Y-58905874D01*
X59522569Y-59286280D01*
X59813720Y-59577431D01*
X60194126Y-59735000D01*
X60605874Y-59735000D01*
X60986280Y-59577431D01*
X61277431Y-59286280D01*
X61427431Y-58924148D01*
X61666579Y-58685000D01*
X75422713Y-58685000D01*
X75509874Y-58702337D01*
X75597035Y-58685000D01*
X75597039Y-58685000D01*
X75855184Y-58633652D01*
X76147923Y-58438049D01*
X76180357Y-58389508D01*
X76528128Y-58245457D01*
X76819279Y-57954306D01*
X76976848Y-57573900D01*
X76976848Y-57162152D01*
X76819279Y-56781746D01*
X76528128Y-56490595D01*
X76273199Y-56385000D01*
X78251623Y-56385000D01*
X78165000Y-56594126D01*
X78165000Y-57005874D01*
X78242738Y-57193551D01*
X78171521Y-57264768D01*
X78021522Y-57626899D01*
X76233422Y-59415000D01*
X73087161Y-59415000D01*
X73000000Y-59397663D01*
X72912839Y-59415000D01*
X72912835Y-59415000D01*
X72654690Y-59466348D01*
X72435845Y-59612576D01*
X72435844Y-59612577D01*
X72361951Y-59661951D01*
X72312577Y-59735844D01*
X65735845Y-66312577D01*
X65685000Y-66346551D01*
X65685000Y-60960804D01*
X65886280Y-60877431D01*
X66177431Y-60586280D01*
X66335000Y-60205874D01*
X66335000Y-59794126D01*
X66177431Y-59413720D01*
X65886280Y-59122569D01*
X65505874Y-58965000D01*
X65094126Y-58965000D01*
X64713720Y-59122569D01*
X64422569Y-59413720D01*
X64272569Y-59775853D01*
X64235847Y-59812575D01*
X64161951Y-59861951D01*
X63966348Y-60154691D01*
X63915000Y-60412836D01*
X63915000Y-60412839D01*
X63897663Y-60500000D01*
X63915000Y-60587161D01*
X63915001Y-67047799D01*
X63655281Y-66910408D01*
X63617609Y-66906538D01*
X63427000Y-67031269D01*
X63427000Y-68273000D01*
X63447000Y-68273000D01*
X63447000Y-68527000D01*
X63427000Y-68527000D01*
X63427000Y-69768731D01*
X63617609Y-69893462D01*
X63655281Y-69889592D01*
X64047160Y-69682290D01*
X64318127Y-69863344D01*
X64800000Y-69959195D01*
X65281872Y-69863344D01*
X65550000Y-69684187D01*
X65818127Y-69863344D01*
X66300000Y-69959195D01*
X66781872Y-69863344D01*
X67050000Y-69684187D01*
X67318127Y-69863344D01*
X67800000Y-69959195D01*
X68281872Y-69863344D01*
X68550000Y-69684187D01*
X68818127Y-69863344D01*
X69300000Y-69959195D01*
X69781872Y-69863344D01*
X69841003Y-69823834D01*
X69952235Y-69898157D01*
X70200000Y-69947440D01*
X71400000Y-69947440D01*
X71647765Y-69898157D01*
X71857809Y-69757809D01*
X71998157Y-69547765D01*
X72047440Y-69300000D01*
X72047440Y-67500000D01*
X71998157Y-67252235D01*
X71857809Y-67042191D01*
X71647765Y-66901843D01*
X71585000Y-66889358D01*
X71585000Y-66125157D01*
X72025158Y-65685000D01*
X77021289Y-65685000D01*
X77113720Y-65777431D01*
X77494126Y-65935000D01*
X77905874Y-65935000D01*
X78286280Y-65777431D01*
X78577431Y-65486280D01*
X78735000Y-65105874D01*
X78735000Y-64694126D01*
X78577431Y-64313720D01*
X78286280Y-64022569D01*
X77905874Y-63865000D01*
X77502229Y-63865000D01*
X77377431Y-63563710D01*
X77086280Y-63272559D01*
X76705874Y-63114990D01*
X76398676Y-63114990D01*
X76377431Y-63063699D01*
X76086280Y-62772548D01*
X75705874Y-62614979D01*
X75294126Y-62614979D01*
X74913720Y-62772548D01*
X74821289Y-62864979D01*
X71686600Y-62864979D01*
X73366579Y-61185000D01*
X76512839Y-61185000D01*
X76600000Y-61202337D01*
X76687161Y-61185000D01*
X76687165Y-61185000D01*
X76945310Y-61133652D01*
X77238049Y-60938049D01*
X77287425Y-60864153D01*
X79215001Y-58936578D01*
X79215000Y-69712839D01*
X79197663Y-69800000D01*
X79215000Y-69887161D01*
X79215000Y-69887164D01*
X79266348Y-70145309D01*
X79461951Y-70438049D01*
X79535847Y-70487425D01*
X79912575Y-70864153D01*
X79961951Y-70938049D01*
X80226775Y-71115000D01*
X78100894Y-71115000D01*
X75593048Y-68607155D01*
X75635000Y-68505874D01*
X75635000Y-68094126D01*
X75477431Y-67713720D01*
X75186280Y-67422569D01*
X74805874Y-67265000D01*
X74394126Y-67265000D01*
X74013720Y-67422569D01*
X73722569Y-67713720D01*
X73565000Y-68094126D01*
X73565000Y-68505874D01*
X73702975Y-68838977D01*
X73697663Y-68865685D01*
X73715000Y-68952846D01*
X73715000Y-68952850D01*
X73766348Y-69210995D01*
X73819103Y-69289947D01*
X73907719Y-69422569D01*
X73961952Y-69503734D01*
X74035845Y-69553108D01*
X77046892Y-72564156D01*
X77096266Y-72638049D01*
X77170159Y-72687423D01*
X77170160Y-72687424D01*
X77385328Y-72831195D01*
X77389005Y-72833652D01*
X77586822Y-72873000D01*
X76405416Y-72873000D01*
X76329856Y-72841702D01*
X76138513Y-72803642D01*
X76138509Y-72803642D01*
X76069926Y-72790000D01*
X73930074Y-72790000D01*
X73861491Y-72803642D01*
X73861487Y-72803642D01*
X73670145Y-72841702D01*
X73594585Y-72873000D01*
X70405416Y-72873000D01*
X70329856Y-72841702D01*
X70138513Y-72803642D01*
X70138509Y-72803642D01*
X70069926Y-72790000D01*
X67930074Y-72790000D01*
X67861491Y-72803642D01*
X67861487Y-72803642D01*
X67670145Y-72841702D01*
X67594585Y-72873000D01*
X64405416Y-72873000D01*
X64329856Y-72841702D01*
X64138513Y-72803642D01*
X64138509Y-72803642D01*
X64069926Y-72790000D01*
X61930074Y-72790000D01*
X61861491Y-72803642D01*
X61861487Y-72803642D01*
X61670145Y-72841702D01*
X61594585Y-72873000D01*
X58405416Y-72873000D01*
X58329856Y-72841702D01*
X58138513Y-72803642D01*
X58138509Y-72803642D01*
X58069926Y-72790000D01*
X55930074Y-72790000D01*
X55861491Y-72803642D01*
X55861487Y-72803642D01*
X55670145Y-72841702D01*
X55594585Y-72873000D01*
X52405416Y-72873000D01*
X52329856Y-72841702D01*
X52138513Y-72803642D01*
X52138509Y-72803642D01*
X52069926Y-72790000D01*
X50710000Y-72790000D01*
X50710000Y-67978364D01*
X51265000Y-67978364D01*
X51265000Y-68821635D01*
X51336656Y-69181872D01*
X51609615Y-69590385D01*
X52018127Y-69863344D01*
X52500000Y-69959195D01*
X52981872Y-69863344D01*
X53250000Y-69684187D01*
X53518127Y-69863344D01*
X54000000Y-69959195D01*
X54481872Y-69863344D01*
X54750000Y-69684187D01*
X55018127Y-69863344D01*
X55500000Y-69959195D01*
X55981872Y-69863344D01*
X56250000Y-69684187D01*
X56518127Y-69863344D01*
X57000000Y-69959195D01*
X57481872Y-69863344D01*
X57750000Y-69684187D01*
X58018127Y-69863344D01*
X58500000Y-69959195D01*
X58981872Y-69863344D01*
X59041003Y-69823834D01*
X59152235Y-69898157D01*
X59400000Y-69947440D01*
X60600000Y-69947440D01*
X60847765Y-69898157D01*
X61057809Y-69757809D01*
X61198157Y-69547765D01*
X61247440Y-69300000D01*
X61247440Y-68527000D01*
X62065000Y-68527000D01*
X62065000Y-68827000D01*
X62207610Y-69289947D01*
X62516526Y-69663080D01*
X62944719Y-69889592D01*
X62982391Y-69893462D01*
X63173000Y-69768731D01*
X63173000Y-68527000D01*
X62065000Y-68527000D01*
X61247440Y-68527000D01*
X61247440Y-67973000D01*
X62065000Y-67973000D01*
X62065000Y-68273000D01*
X63173000Y-68273000D01*
X63173000Y-67031269D01*
X62982391Y-66906538D01*
X62944719Y-66910408D01*
X62516526Y-67136920D01*
X62207610Y-67510053D01*
X62065000Y-67973000D01*
X61247440Y-67973000D01*
X61247440Y-67500000D01*
X61198157Y-67252235D01*
X61057809Y-67042191D01*
X60847765Y-66901843D01*
X60600000Y-66852560D01*
X59400000Y-66852560D01*
X59152235Y-66901843D01*
X59041004Y-66976166D01*
X58981873Y-66936656D01*
X58500000Y-66840805D01*
X58018128Y-66936656D01*
X57750001Y-67115813D01*
X57481873Y-66936656D01*
X57000000Y-66840805D01*
X56518128Y-66936656D01*
X56250001Y-67115813D01*
X55981873Y-66936656D01*
X55500000Y-66840805D01*
X55018128Y-66936656D01*
X54750001Y-67115813D01*
X54481873Y-66936656D01*
X54000000Y-66840805D01*
X53518128Y-66936656D01*
X53250001Y-67115813D01*
X52981873Y-66936656D01*
X52500000Y-66840805D01*
X52018128Y-66936656D01*
X51609616Y-67209615D01*
X51336656Y-67618127D01*
X51265000Y-67978364D01*
X50710000Y-67978364D01*
X50710000Y-50710000D01*
X85229325Y-50710000D01*
X84824817Y-51078642D01*
X84824817Y-51078642D01*
G37*
X84824817Y-51078642D02*
X84578514Y-51603108D01*
X84699181Y-51833000D01*
X85893000Y-51833000D01*
X85893000Y-51813000D01*
X86147000Y-51813000D01*
X86147000Y-51833000D01*
X86167000Y-51833000D01*
X86167000Y-52087000D01*
X86147000Y-52087000D01*
X86147000Y-52107000D01*
X85893000Y-52107000D01*
X85893000Y-52087000D01*
X84699181Y-52087000D01*
X84578514Y-52316892D01*
X84824817Y-52841358D01*
X85249786Y-53228647D01*
X84949375Y-53429375D01*
X84621161Y-53920582D01*
X84505908Y-54500000D01*
X84528783Y-54615000D01*
X73166579Y-54615000D01*
X72685000Y-54133422D01*
X72685000Y-53868007D01*
X72835000Y-53505874D01*
X72835000Y-53094126D01*
X72677431Y-52713720D01*
X72386280Y-52422569D01*
X72005874Y-52265000D01*
X71594126Y-52265000D01*
X71213720Y-52422569D01*
X70922569Y-52713720D01*
X70765000Y-53094126D01*
X70765000Y-53505874D01*
X70915001Y-53868008D01*
X70915000Y-54412839D01*
X70897663Y-54500000D01*
X70915000Y-54587161D01*
X70915000Y-54587164D01*
X70966348Y-54845309D01*
X71161951Y-55138049D01*
X71235847Y-55187425D01*
X72079065Y-56030644D01*
X60871515Y-56030644D01*
X60784355Y-56013307D01*
X60697195Y-56030644D01*
X60697191Y-56030644D01*
X60439046Y-56081992D01*
X60439044Y-56081993D01*
X60439045Y-56081993D01*
X60220201Y-56228220D01*
X60220200Y-56228221D01*
X60146307Y-56277595D01*
X60096933Y-56351488D01*
X59675852Y-56772569D01*
X59313720Y-56922569D01*
X59022569Y-57213720D01*
X58865000Y-57594126D01*
X58865000Y-58005874D01*
X59022569Y-58386280D01*
X59313720Y-58677431D01*
X59365000Y-58698672D01*
X59365000Y-58905874D01*
X59522569Y-59286280D01*
X59813720Y-59577431D01*
X60194126Y-59735000D01*
X60605874Y-59735000D01*
X60986280Y-59577431D01*
X61277431Y-59286280D01*
X61427431Y-58924148D01*
X61666579Y-58685000D01*
X75422713Y-58685000D01*
X75509874Y-58702337D01*
X75597035Y-58685000D01*
X75597039Y-58685000D01*
X75855184Y-58633652D01*
X76147923Y-58438049D01*
X76180357Y-58389508D01*
X76528128Y-58245457D01*
X76819279Y-57954306D01*
X76976848Y-57573900D01*
X76976848Y-57162152D01*
X76819279Y-56781746D01*
X76528128Y-56490595D01*
X76273199Y-56385000D01*
X78251623Y-56385000D01*
X78165000Y-56594126D01*
X78165000Y-57005874D01*
X78242738Y-57193551D01*
X78171521Y-57264768D01*
X78021522Y-57626899D01*
X76233422Y-59415000D01*
X73087161Y-59415000D01*
X73000000Y-59397663D01*
X72912839Y-59415000D01*
X72912835Y-59415000D01*
X72654690Y-59466348D01*
X72435845Y-59612576D01*
X72435844Y-59612577D01*
X72361951Y-59661951D01*
X72312577Y-59735844D01*
X65735845Y-66312577D01*
X65685000Y-66346551D01*
X65685000Y-60960804D01*
X65886280Y-60877431D01*
X66177431Y-60586280D01*
X66335000Y-60205874D01*
X66335000Y-59794126D01*
X66177431Y-59413720D01*
X65886280Y-59122569D01*
X65505874Y-58965000D01*
X65094126Y-58965000D01*
X64713720Y-59122569D01*
X64422569Y-59413720D01*
X64272569Y-59775853D01*
X64235847Y-59812575D01*
X64161951Y-59861951D01*
X63966348Y-60154691D01*
X63915000Y-60412836D01*
X63915000Y-60412839D01*
X63897663Y-60500000D01*
X63915000Y-60587161D01*
X63915001Y-67047799D01*
X63655281Y-66910408D01*
X63617609Y-66906538D01*
X63427000Y-67031269D01*
X63427000Y-68273000D01*
X63447000Y-68273000D01*
X63447000Y-68527000D01*
X63427000Y-68527000D01*
X63427000Y-69768731D01*
X63617609Y-69893462D01*
X63655281Y-69889592D01*
X64047160Y-69682290D01*
X64318127Y-69863344D01*
X64800000Y-69959195D01*
X65281872Y-69863344D01*
X65550000Y-69684187D01*
X65818127Y-69863344D01*
X66300000Y-69959195D01*
X66781872Y-69863344D01*
X67050000Y-69684187D01*
X67318127Y-69863344D01*
X67800000Y-69959195D01*
X68281872Y-69863344D01*
X68550000Y-69684187D01*
X68818127Y-69863344D01*
X69300000Y-69959195D01*
X69781872Y-69863344D01*
X69841003Y-69823834D01*
X69952235Y-69898157D01*
X70200000Y-69947440D01*
X71400000Y-69947440D01*
X71647765Y-69898157D01*
X71857809Y-69757809D01*
X71998157Y-69547765D01*
X72047440Y-69300000D01*
X72047440Y-67500000D01*
X71998157Y-67252235D01*
X71857809Y-67042191D01*
X71647765Y-66901843D01*
X71585000Y-66889358D01*
X71585000Y-66125157D01*
X72025158Y-65685000D01*
X77021289Y-65685000D01*
X77113720Y-65777431D01*
X77494126Y-65935000D01*
X77905874Y-65935000D01*
X78286280Y-65777431D01*
X78577431Y-65486280D01*
X78735000Y-65105874D01*
X78735000Y-64694126D01*
X78577431Y-64313720D01*
X78286280Y-64022569D01*
X77905874Y-63865000D01*
X77502229Y-63865000D01*
X77377431Y-63563710D01*
X77086280Y-63272559D01*
X76705874Y-63114990D01*
X76398676Y-63114990D01*
X76377431Y-63063699D01*
X76086280Y-62772548D01*
X75705874Y-62614979D01*
X75294126Y-62614979D01*
X74913720Y-62772548D01*
X74821289Y-62864979D01*
X71686600Y-62864979D01*
X73366579Y-61185000D01*
X76512839Y-61185000D01*
X76600000Y-61202337D01*
X76687161Y-61185000D01*
X76687165Y-61185000D01*
X76945310Y-61133652D01*
X77238049Y-60938049D01*
X77287425Y-60864153D01*
X79215001Y-58936578D01*
X79215000Y-69712839D01*
X79197663Y-69800000D01*
X79215000Y-69887161D01*
X79215000Y-69887164D01*
X79266348Y-70145309D01*
X79461951Y-70438049D01*
X79535847Y-70487425D01*
X79912575Y-70864153D01*
X79961951Y-70938049D01*
X80226775Y-71115000D01*
X78100894Y-71115000D01*
X75593048Y-68607155D01*
X75635000Y-68505874D01*
X75635000Y-68094126D01*
X75477431Y-67713720D01*
X75186280Y-67422569D01*
X74805874Y-67265000D01*
X74394126Y-67265000D01*
X74013720Y-67422569D01*
X73722569Y-67713720D01*
X73565000Y-68094126D01*
X73565000Y-68505874D01*
X73702975Y-68838977D01*
X73697663Y-68865685D01*
X73715000Y-68952846D01*
X73715000Y-68952850D01*
X73766348Y-69210995D01*
X73819103Y-69289947D01*
X73907719Y-69422569D01*
X73961952Y-69503734D01*
X74035845Y-69553108D01*
X77046892Y-72564156D01*
X77096266Y-72638049D01*
X77170159Y-72687423D01*
X77170160Y-72687424D01*
X77385328Y-72831195D01*
X77389005Y-72833652D01*
X77586822Y-72873000D01*
X76405416Y-72873000D01*
X76329856Y-72841702D01*
X76138513Y-72803642D01*
X76138509Y-72803642D01*
X76069926Y-72790000D01*
X73930074Y-72790000D01*
X73861491Y-72803642D01*
X73861487Y-72803642D01*
X73670145Y-72841702D01*
X73594585Y-72873000D01*
X70405416Y-72873000D01*
X70329856Y-72841702D01*
X70138513Y-72803642D01*
X70138509Y-72803642D01*
X70069926Y-72790000D01*
X67930074Y-72790000D01*
X67861491Y-72803642D01*
X67861487Y-72803642D01*
X67670145Y-72841702D01*
X67594585Y-72873000D01*
X64405416Y-72873000D01*
X64329856Y-72841702D01*
X64138513Y-72803642D01*
X64138509Y-72803642D01*
X64069926Y-72790000D01*
X61930074Y-72790000D01*
X61861491Y-72803642D01*
X61861487Y-72803642D01*
X61670145Y-72841702D01*
X61594585Y-72873000D01*
X58405416Y-72873000D01*
X58329856Y-72841702D01*
X58138513Y-72803642D01*
X58138509Y-72803642D01*
X58069926Y-72790000D01*
X55930074Y-72790000D01*
X55861491Y-72803642D01*
X55861487Y-72803642D01*
X55670145Y-72841702D01*
X55594585Y-72873000D01*
X52405416Y-72873000D01*
X52329856Y-72841702D01*
X52138513Y-72803642D01*
X52138509Y-72803642D01*
X52069926Y-72790000D01*
X50710000Y-72790000D01*
X50710000Y-67978364D01*
X51265000Y-67978364D01*
X51265000Y-68821635D01*
X51336656Y-69181872D01*
X51609615Y-69590385D01*
X52018127Y-69863344D01*
X52500000Y-69959195D01*
X52981872Y-69863344D01*
X53250000Y-69684187D01*
X53518127Y-69863344D01*
X54000000Y-69959195D01*
X54481872Y-69863344D01*
X54750000Y-69684187D01*
X55018127Y-69863344D01*
X55500000Y-69959195D01*
X55981872Y-69863344D01*
X56250000Y-69684187D01*
X56518127Y-69863344D01*
X57000000Y-69959195D01*
X57481872Y-69863344D01*
X57750000Y-69684187D01*
X58018127Y-69863344D01*
X58500000Y-69959195D01*
X58981872Y-69863344D01*
X59041003Y-69823834D01*
X59152235Y-69898157D01*
X59400000Y-69947440D01*
X60600000Y-69947440D01*
X60847765Y-69898157D01*
X61057809Y-69757809D01*
X61198157Y-69547765D01*
X61247440Y-69300000D01*
X61247440Y-68527000D01*
X62065000Y-68527000D01*
X62065000Y-68827000D01*
X62207610Y-69289947D01*
X62516526Y-69663080D01*
X62944719Y-69889592D01*
X62982391Y-69893462D01*
X63173000Y-69768731D01*
X63173000Y-68527000D01*
X62065000Y-68527000D01*
X61247440Y-68527000D01*
X61247440Y-67973000D01*
X62065000Y-67973000D01*
X62065000Y-68273000D01*
X63173000Y-68273000D01*
X63173000Y-67031269D01*
X62982391Y-66906538D01*
X62944719Y-66910408D01*
X62516526Y-67136920D01*
X62207610Y-67510053D01*
X62065000Y-67973000D01*
X61247440Y-67973000D01*
X61247440Y-67500000D01*
X61198157Y-67252235D01*
X61057809Y-67042191D01*
X60847765Y-66901843D01*
X60600000Y-66852560D01*
X59400000Y-66852560D01*
X59152235Y-66901843D01*
X59041004Y-66976166D01*
X58981873Y-66936656D01*
X58500000Y-66840805D01*
X58018128Y-66936656D01*
X57750001Y-67115813D01*
X57481873Y-66936656D01*
X57000000Y-66840805D01*
X56518128Y-66936656D01*
X56250001Y-67115813D01*
X55981873Y-66936656D01*
X55500000Y-66840805D01*
X55018128Y-66936656D01*
X54750001Y-67115813D01*
X54481873Y-66936656D01*
X54000000Y-66840805D01*
X53518128Y-66936656D01*
X53250001Y-67115813D01*
X52981873Y-66936656D01*
X52500000Y-66840805D01*
X52018128Y-66936656D01*
X51609616Y-67209615D01*
X51336656Y-67618127D01*
X51265000Y-67978364D01*
X50710000Y-67978364D01*
X50710000Y-50710000D01*
X85229325Y-50710000D01*
X84824817Y-51078642D01*
G36*
X55670145Y-75158298D02*
X55861487Y-75196358D01*
X55861491Y-75196358D01*
X55930074Y-75210000D01*
X58069926Y-75210000D01*
X58138509Y-75196358D01*
X58138513Y-75196358D01*
X58329856Y-75158298D01*
X58405416Y-75127000D01*
X61594585Y-75127000D01*
X61670145Y-75158298D01*
X61861487Y-75196358D01*
X61861491Y-75196358D01*
X61930074Y-75210000D01*
X64069926Y-75210000D01*
X64138509Y-75196358D01*
X64138513Y-75196358D01*
X64329856Y-75158298D01*
X64405416Y-75127000D01*
X67594585Y-75127000D01*
X67670145Y-75158298D01*
X67861487Y-75196358D01*
X67861491Y-75196358D01*
X67930074Y-75210000D01*
X70069926Y-75210000D01*
X70138509Y-75196358D01*
X70138513Y-75196358D01*
X70329856Y-75158298D01*
X70405416Y-75127000D01*
X73594585Y-75127000D01*
X73670145Y-75158298D01*
X73861487Y-75196358D01*
X73861491Y-75196358D01*
X73930074Y-75210000D01*
X76069926Y-75210000D01*
X76138509Y-75196358D01*
X76138513Y-75196358D01*
X76329856Y-75158298D01*
X76405416Y-75127000D01*
X79594585Y-75127000D01*
X79670145Y-75158298D01*
X79861487Y-75196358D01*
X79861491Y-75196358D01*
X79930074Y-75210000D01*
X82069926Y-75210000D01*
X82138509Y-75196358D01*
X82138513Y-75196358D01*
X82329856Y-75158298D01*
X82405416Y-75127000D01*
X85594585Y-75127000D01*
X85670145Y-75158298D01*
X85861487Y-75196358D01*
X85861491Y-75196358D01*
X85930074Y-75210000D01*
X88069926Y-75210000D01*
X88138509Y-75196358D01*
X88138513Y-75196358D01*
X88329856Y-75158298D01*
X88405416Y-75127000D01*
X91594585Y-75127000D01*
X91670145Y-75158298D01*
X91861487Y-75196358D01*
X91861491Y-75196358D01*
X91930074Y-75210000D01*
X94069926Y-75210000D01*
X94138509Y-75196358D01*
X94138513Y-75196358D01*
X94329856Y-75158298D01*
X94405416Y-75127000D01*
X97594585Y-75127000D01*
X97670145Y-75158298D01*
X97861487Y-75196358D01*
X97861491Y-75196358D01*
X97930074Y-75210000D01*
X99290001Y-75210000D01*
X99290001Y-85189938D01*
X99262763Y-85157632D01*
X98851874Y-84955881D01*
X98677000Y-85082046D01*
X98677000Y-86673000D01*
X98697000Y-86673000D01*
X98697000Y-86927000D01*
X98677000Y-86927000D01*
X98677000Y-88517954D01*
X98851874Y-88644119D01*
X99262763Y-88442368D01*
X99290000Y-88410062D01*
X99290000Y-97290000D01*
X91761578Y-97290000D01*
X92524148Y-96527431D01*
X92886280Y-96377431D01*
X93177431Y-96086280D01*
X93335000Y-95705874D01*
X93335000Y-95294126D01*
X93177431Y-94913720D01*
X92886280Y-94622569D01*
X92505874Y-94465000D01*
X92094126Y-94465000D01*
X91906449Y-94542738D01*
X91786280Y-94422569D01*
X91405874Y-94265000D01*
X90994126Y-94265000D01*
X90631993Y-94415000D01*
X80985000Y-94415000D01*
X80985000Y-89644941D01*
X85815000Y-89644941D01*
X85815000Y-90355059D01*
X86086750Y-91011121D01*
X86588879Y-91513250D01*
X87244941Y-91785000D01*
X87955059Y-91785000D01*
X88611121Y-91513250D01*
X89113250Y-91011121D01*
X89385000Y-90355059D01*
X89385000Y-89644941D01*
X89113250Y-88988879D01*
X88611121Y-88486750D01*
X87955059Y-88215000D01*
X87244941Y-88215000D01*
X86588879Y-88486750D01*
X86086750Y-88988879D01*
X85815000Y-89644941D01*
X80985000Y-89644941D01*
X80985000Y-84744941D01*
X85815000Y-84744941D01*
X85815000Y-85455059D01*
X86086750Y-86111121D01*
X86588879Y-86613250D01*
X87244941Y-86885000D01*
X87955059Y-86885000D01*
X88611121Y-86613250D01*
X89113250Y-86111121D01*
X89385000Y-85455059D01*
X89385000Y-84744941D01*
X89257951Y-84438217D01*
X93115000Y-84438217D01*
X93115000Y-86161782D01*
X93180854Y-86492854D01*
X93431711Y-86868289D01*
X93807145Y-87119146D01*
X94250000Y-87207235D01*
X94692854Y-87119146D01*
X94980421Y-86927000D01*
X97415000Y-86927000D01*
X97415000Y-87677000D01*
X97549998Y-88101678D01*
X97837237Y-88442368D01*
X98248126Y-88644119D01*
X98423000Y-88517954D01*
X98423000Y-86927000D01*
X97415000Y-86927000D01*
X94980421Y-86927000D01*
X95068289Y-86868289D01*
X95319146Y-86492855D01*
X95385000Y-86161783D01*
X95385000Y-85923000D01*
X97415000Y-85923000D01*
X97415000Y-86673000D01*
X98423000Y-86673000D01*
X98423000Y-85082046D01*
X98248126Y-84955881D01*
X97837237Y-85157632D01*
X97549998Y-85498322D01*
X97415000Y-85923000D01*
X95385000Y-85923000D01*
X95385000Y-84438217D01*
X95319146Y-84107145D01*
X95068289Y-83731711D01*
X94692855Y-83480854D01*
X94250000Y-83392765D01*
X93807146Y-83480854D01*
X93431712Y-83731711D01*
X93180855Y-84107145D01*
X93115000Y-84438217D01*
X89257951Y-84438217D01*
X89113250Y-84088879D01*
X88611121Y-83586750D01*
X87955059Y-83315000D01*
X87244941Y-83315000D01*
X86588879Y-83586750D01*
X86086750Y-84088879D01*
X85815000Y-84744941D01*
X80985000Y-84744941D01*
X80985000Y-82787159D01*
X81002337Y-82699999D01*
X80985000Y-82612839D01*
X80985000Y-82612835D01*
X80933652Y-82354690D01*
X80838977Y-82212999D01*
X80787424Y-82135845D01*
X80787423Y-82135844D01*
X80738049Y-82061951D01*
X80664156Y-82012577D01*
X80227431Y-81575852D01*
X80148377Y-81385000D01*
X84633422Y-81385000D01*
X84691373Y-81442951D01*
X84572078Y-81442951D01*
X84191672Y-81600520D01*
X83900521Y-81891671D01*
X83742952Y-82272077D01*
X83742952Y-82683825D01*
X83900521Y-83064231D01*
X84191672Y-83355382D01*
X84572078Y-83512951D01*
X84983826Y-83512951D01*
X85342367Y-83364439D01*
X85422049Y-83380288D01*
X85509210Y-83362951D01*
X85509214Y-83362951D01*
X85767359Y-83311603D01*
X85853054Y-83254343D01*
X95215000Y-83254343D01*
X95215000Y-83745657D01*
X95403018Y-84199571D01*
X95750429Y-84546982D01*
X96204343Y-84735000D01*
X96695657Y-84735000D01*
X97149571Y-84546982D01*
X97496982Y-84199571D01*
X97685000Y-83745657D01*
X97685000Y-83254343D01*
X97496982Y-82800429D01*
X97149571Y-82453018D01*
X96695657Y-82265000D01*
X96204343Y-82265000D01*
X95750429Y-82453018D01*
X95403018Y-82800429D01*
X95215000Y-83254343D01*
X85853054Y-83254343D01*
X86060098Y-83116000D01*
X86109474Y-83042105D01*
X86564156Y-82587423D01*
X86638049Y-82538049D01*
X86693748Y-82454691D01*
X86820495Y-82265000D01*
X86833652Y-82245310D01*
X86885000Y-81987165D01*
X86885000Y-81987161D01*
X86902337Y-81900001D01*
X86885000Y-81812841D01*
X86885000Y-81587161D01*
X86902337Y-81500000D01*
X86885000Y-81412839D01*
X86885000Y-80889793D01*
X86905000Y-80789246D01*
X86905000Y-80789241D01*
X86922337Y-80702082D01*
X86918999Y-80685302D01*
X87090625Y-80570625D01*
X87290000Y-80272239D01*
X87489375Y-80570625D01*
X87980582Y-80898839D01*
X88413744Y-80985000D01*
X88706256Y-80985000D01*
X89139418Y-80898839D01*
X89630625Y-80570625D01*
X89642816Y-80552381D01*
X89651843Y-80597765D01*
X89792191Y-80807809D01*
X90002235Y-80948157D01*
X90250000Y-80997440D01*
X91950000Y-80997440D01*
X92197765Y-80948157D01*
X92407809Y-80807809D01*
X92548157Y-80597765D01*
X92597440Y-80350000D01*
X92597440Y-78650000D01*
X92548157Y-78402235D01*
X92407809Y-78192191D01*
X92197765Y-78051843D01*
X92152381Y-78042816D01*
X92170625Y-78030625D01*
X92498839Y-77539418D01*
X92538860Y-77338217D01*
X93115000Y-77338217D01*
X93115000Y-79261782D01*
X93180854Y-79592854D01*
X93352673Y-79850001D01*
X93180855Y-80107145D01*
X93115000Y-80438217D01*
X93115000Y-82161782D01*
X93180854Y-82492854D01*
X93431711Y-82868289D01*
X93807145Y-83119146D01*
X94250000Y-83207235D01*
X94692854Y-83119146D01*
X95068289Y-82868289D01*
X95319146Y-82492855D01*
X95385000Y-82161783D01*
X95385000Y-80438217D01*
X95319146Y-80107145D01*
X95147327Y-79850000D01*
X95319146Y-79592855D01*
X95385000Y-79261783D01*
X95385000Y-77338217D01*
X95319146Y-77007145D01*
X95068289Y-76631711D01*
X94692855Y-76380854D01*
X94250000Y-76292765D01*
X93807146Y-76380854D01*
X93431712Y-76631711D01*
X93180855Y-77007145D01*
X93115000Y-77338217D01*
X92538860Y-77338217D01*
X92614092Y-76960000D01*
X92498839Y-76380582D01*
X92414489Y-76254343D01*
X95215000Y-76254343D01*
X95215000Y-76745657D01*
X95403018Y-77199571D01*
X95750429Y-77546982D01*
X96204343Y-77735000D01*
X96695657Y-77735000D01*
X97149571Y-77546982D01*
X97496982Y-77199571D01*
X97685000Y-76745657D01*
X97685000Y-76254343D01*
X97496982Y-75800429D01*
X97149571Y-75453018D01*
X96695657Y-75265000D01*
X96204343Y-75265000D01*
X95750429Y-75453018D01*
X95403018Y-75800429D01*
X95215000Y-76254343D01*
X92414489Y-76254343D01*
X92170625Y-75889375D01*
X91679418Y-75561161D01*
X91246256Y-75475000D01*
X90953744Y-75475000D01*
X90520582Y-75561161D01*
X90029375Y-75889375D01*
X89830000Y-76187761D01*
X89630625Y-75889375D01*
X89139418Y-75561161D01*
X88706256Y-75475000D01*
X88413744Y-75475000D01*
X87980582Y-75561161D01*
X87489375Y-75889375D01*
X87276157Y-76208478D01*
X87215183Y-76078642D01*
X86786924Y-75688355D01*
X86376890Y-75518524D01*
X86147000Y-75639845D01*
X86147000Y-76833000D01*
X86167000Y-76833000D01*
X86167000Y-77087000D01*
X86147000Y-77087000D01*
X86147000Y-77107000D01*
X85893000Y-77107000D01*
X85893000Y-77087000D01*
X84699181Y-77087000D01*
X84578514Y-77316892D01*
X84824817Y-77841358D01*
X85249786Y-78228647D01*
X84949375Y-78429375D01*
X84621161Y-78920582D01*
X84505908Y-79500000D01*
X84528783Y-79615000D01*
X73166579Y-79615000D01*
X72685000Y-79133422D01*
X72685000Y-78868007D01*
X72835000Y-78505874D01*
X72835000Y-78094126D01*
X72677431Y-77713720D01*
X72386280Y-77422569D01*
X72005874Y-77265000D01*
X71594126Y-77265000D01*
X71213720Y-77422569D01*
X70922569Y-77713720D01*
X70765000Y-78094126D01*
X70765000Y-78505874D01*
X70915001Y-78868008D01*
X70915000Y-79412839D01*
X70897663Y-79500000D01*
X70915000Y-79587161D01*
X70915000Y-79587164D01*
X70966348Y-79845309D01*
X71161951Y-80138049D01*
X71235847Y-80187425D01*
X72079065Y-81030644D01*
X60871515Y-81030644D01*
X60784355Y-81013307D01*
X60697195Y-81030644D01*
X60697191Y-81030644D01*
X60439046Y-81081992D01*
X60439044Y-81081993D01*
X60439045Y-81081993D01*
X60220201Y-81228220D01*
X60220200Y-81228221D01*
X60146307Y-81277595D01*
X60096933Y-81351488D01*
X59675852Y-81772569D01*
X59313720Y-81922569D01*
X59022569Y-82213720D01*
X58865000Y-82594126D01*
X58865000Y-83005874D01*
X59022569Y-83386280D01*
X59313720Y-83677431D01*
X59365000Y-83698672D01*
X59365000Y-83905874D01*
X59522569Y-84286280D01*
X59813720Y-84577431D01*
X60194126Y-84735000D01*
X60605874Y-84735000D01*
X60986280Y-84577431D01*
X61277431Y-84286280D01*
X61427431Y-83924148D01*
X61666579Y-83685000D01*
X75422713Y-83685000D01*
X75509874Y-83702337D01*
X75597035Y-83685000D01*
X75597039Y-83685000D01*
X75855184Y-83633652D01*
X76147923Y-83438049D01*
X76180357Y-83389508D01*
X76528128Y-83245457D01*
X76819279Y-82954306D01*
X76976848Y-82573900D01*
X76976848Y-82162152D01*
X76819279Y-81781746D01*
X76528128Y-81490595D01*
X76273199Y-81385000D01*
X78251623Y-81385000D01*
X78165000Y-81594126D01*
X78165000Y-82005874D01*
X78242738Y-82193551D01*
X78171521Y-82264768D01*
X78021522Y-82626899D01*
X76233422Y-84415000D01*
X73087161Y-84415000D01*
X73000000Y-84397663D01*
X72912839Y-84415000D01*
X72912835Y-84415000D01*
X72654690Y-84466348D01*
X72435845Y-84612576D01*
X72435844Y-84612577D01*
X72361951Y-84661951D01*
X72312577Y-84735844D01*
X65735845Y-91312577D01*
X65685000Y-91346551D01*
X65685000Y-85960804D01*
X65886280Y-85877431D01*
X66177431Y-85586280D01*
X66335000Y-85205874D01*
X66335000Y-84794126D01*
X66177431Y-84413720D01*
X65886280Y-84122569D01*
X65505874Y-83965000D01*
X65094126Y-83965000D01*
X64713720Y-84122569D01*
X64422569Y-84413720D01*
X64272569Y-84775853D01*
X64235847Y-84812575D01*
X64161951Y-84861951D01*
X63966348Y-85154691D01*
X63915000Y-85412836D01*
X63915000Y-85412839D01*
X63897663Y-85500000D01*
X63915000Y-85587161D01*
X63915001Y-92047799D01*
X63655281Y-91910408D01*
X63617609Y-91906538D01*
X63427000Y-92031269D01*
X63427000Y-93273000D01*
X63447000Y-93273000D01*
X63447000Y-93527000D01*
X63427000Y-93527000D01*
X63427000Y-94768731D01*
X63617609Y-94893462D01*
X63655281Y-94889592D01*
X64047160Y-94682290D01*
X64318127Y-94863344D01*
X64800000Y-94959195D01*
X65281872Y-94863344D01*
X65550000Y-94684187D01*
X65818127Y-94863344D01*
X66300000Y-94959195D01*
X66781872Y-94863344D01*
X67050000Y-94684187D01*
X67318127Y-94863344D01*
X67800000Y-94959195D01*
X68281872Y-94863344D01*
X68550000Y-94684187D01*
X68818127Y-94863344D01*
X69300000Y-94959195D01*
X69781872Y-94863344D01*
X69841003Y-94823834D01*
X69952235Y-94898157D01*
X70200000Y-94947440D01*
X71400000Y-94947440D01*
X71647765Y-94898157D01*
X71857809Y-94757809D01*
X71998157Y-94547765D01*
X72047440Y-94300000D01*
X72047440Y-92500000D01*
X71998157Y-92252235D01*
X71857809Y-92042191D01*
X71647765Y-91901843D01*
X71585000Y-91889358D01*
X71585000Y-91125157D01*
X72025158Y-90685000D01*
X77021289Y-90685000D01*
X77113720Y-90777431D01*
X77494126Y-90935000D01*
X77905874Y-90935000D01*
X78286280Y-90777431D01*
X78577431Y-90486280D01*
X78735000Y-90105874D01*
X78735000Y-89694126D01*
X78577431Y-89313720D01*
X78286280Y-89022569D01*
X77905874Y-88865000D01*
X77502229Y-88865000D01*
X77377431Y-88563710D01*
X77086280Y-88272559D01*
X76705874Y-88114990D01*
X76398676Y-88114990D01*
X76377431Y-88063699D01*
X76086280Y-87772548D01*
X75705874Y-87614979D01*
X75294126Y-87614979D01*
X74913720Y-87772548D01*
X74821289Y-87864979D01*
X71686600Y-87864979D01*
X73366579Y-86185000D01*
X76512839Y-86185000D01*
X76600000Y-86202337D01*
X76687161Y-86185000D01*
X76687165Y-86185000D01*
X76945310Y-86133652D01*
X77238049Y-85938049D01*
X77287425Y-85864153D01*
X79215001Y-83936578D01*
X79215000Y-94712839D01*
X79197663Y-94800000D01*
X79215000Y-94887161D01*
X79215000Y-94887164D01*
X79266348Y-95145309D01*
X79461951Y-95438049D01*
X79535847Y-95487425D01*
X79912575Y-95864153D01*
X79961951Y-95938049D01*
X80226775Y-96115000D01*
X78100894Y-96115000D01*
X75593048Y-93607155D01*
X75635000Y-93505874D01*
X75635000Y-93094126D01*
X75477431Y-92713720D01*
X75186280Y-92422569D01*
X74805874Y-92265000D01*
X74394126Y-92265000D01*
X74013720Y-92422569D01*
X73722569Y-92713720D01*
X73565000Y-93094126D01*
X73565000Y-93505874D01*
X73702975Y-93838977D01*
X73697663Y-93865685D01*
X73715000Y-93952846D01*
X73715000Y-93952850D01*
X73766348Y-94210995D01*
X73819103Y-94289947D01*
X73907719Y-94422569D01*
X73961952Y-94503734D01*
X74035845Y-94553108D01*
X76772736Y-97290000D01*
X50710000Y-97290000D01*
X50710000Y-92978364D01*
X51265000Y-92978364D01*
X51265000Y-93821635D01*
X51336656Y-94181872D01*
X51609615Y-94590385D01*
X52018127Y-94863344D01*
X52500000Y-94959195D01*
X52981872Y-94863344D01*
X53250000Y-94684187D01*
X53518127Y-94863344D01*
X54000000Y-94959195D01*
X54481872Y-94863344D01*
X54750000Y-94684187D01*
X55018127Y-94863344D01*
X55500000Y-94959195D01*
X55981872Y-94863344D01*
X56250000Y-94684187D01*
X56518127Y-94863344D01*
X57000000Y-94959195D01*
X57481872Y-94863344D01*
X57750000Y-94684187D01*
X58018127Y-94863344D01*
X58500000Y-94959195D01*
X58981872Y-94863344D01*
X59041003Y-94823834D01*
X59152235Y-94898157D01*
X59400000Y-94947440D01*
X60600000Y-94947440D01*
X60847765Y-94898157D01*
X61057809Y-94757809D01*
X61198157Y-94547765D01*
X61247440Y-94300000D01*
X61247440Y-93527000D01*
X62065000Y-93527000D01*
X62065000Y-93827000D01*
X62207610Y-94289947D01*
X62516526Y-94663080D01*
X62944719Y-94889592D01*
X62982391Y-94893462D01*
X63173000Y-94768731D01*
X63173000Y-93527000D01*
X62065000Y-93527000D01*
X61247440Y-93527000D01*
X61247440Y-92973000D01*
X62065000Y-92973000D01*
X62065000Y-93273000D01*
X63173000Y-93273000D01*
X63173000Y-92031269D01*
X62982391Y-91906538D01*
X62944719Y-91910408D01*
X62516526Y-92136920D01*
X62207610Y-92510053D01*
X62065000Y-92973000D01*
X61247440Y-92973000D01*
X61247440Y-92500000D01*
X61198157Y-92252235D01*
X61057809Y-92042191D01*
X60847765Y-91901843D01*
X60600000Y-91852560D01*
X59400000Y-91852560D01*
X59152235Y-91901843D01*
X59041004Y-91976166D01*
X58981873Y-91936656D01*
X58500000Y-91840805D01*
X58018128Y-91936656D01*
X57750001Y-92115813D01*
X57481873Y-91936656D01*
X57000000Y-91840805D01*
X56518128Y-91936656D01*
X56250001Y-92115813D01*
X55981873Y-91936656D01*
X55500000Y-91840805D01*
X55018128Y-91936656D01*
X54750001Y-92115813D01*
X54481873Y-91936656D01*
X54000000Y-91840805D01*
X53518128Y-91936656D01*
X53250001Y-92115813D01*
X52981873Y-91936656D01*
X52500000Y-91840805D01*
X52018128Y-91936656D01*
X51609616Y-92209615D01*
X51336656Y-92618127D01*
X51265000Y-92978364D01*
X50710000Y-92978364D01*
X50710000Y-76603108D01*
X84578514Y-76603108D01*
X84699181Y-76833000D01*
X85893000Y-76833000D01*
X85893000Y-75639845D01*
X85663110Y-75518524D01*
X85253076Y-75688355D01*
X84824817Y-76078642D01*
X84578514Y-76603108D01*
X50710000Y-76603108D01*
X50710000Y-75210000D01*
X52069926Y-75210000D01*
X52138509Y-75196358D01*
X52138513Y-75196358D01*
X52329856Y-75158298D01*
X52405416Y-75127000D01*
X55594585Y-75127000D01*
X55670145Y-75158298D01*
X55670145Y-75158298D01*
G37*
X55670145Y-75158298D02*
X55861487Y-75196358D01*
X55861491Y-75196358D01*
X55930074Y-75210000D01*
X58069926Y-75210000D01*
X58138509Y-75196358D01*
X58138513Y-75196358D01*
X58329856Y-75158298D01*
X58405416Y-75127000D01*
X61594585Y-75127000D01*
X61670145Y-75158298D01*
X61861487Y-75196358D01*
X61861491Y-75196358D01*
X61930074Y-75210000D01*
X64069926Y-75210000D01*
X64138509Y-75196358D01*
X64138513Y-75196358D01*
X64329856Y-75158298D01*
X64405416Y-75127000D01*
X67594585Y-75127000D01*
X67670145Y-75158298D01*
X67861487Y-75196358D01*
X67861491Y-75196358D01*
X67930074Y-75210000D01*
X70069926Y-75210000D01*
X70138509Y-75196358D01*
X70138513Y-75196358D01*
X70329856Y-75158298D01*
X70405416Y-75127000D01*
X73594585Y-75127000D01*
X73670145Y-75158298D01*
X73861487Y-75196358D01*
X73861491Y-75196358D01*
X73930074Y-75210000D01*
X76069926Y-75210000D01*
X76138509Y-75196358D01*
X76138513Y-75196358D01*
X76329856Y-75158298D01*
X76405416Y-75127000D01*
X79594585Y-75127000D01*
X79670145Y-75158298D01*
X79861487Y-75196358D01*
X79861491Y-75196358D01*
X79930074Y-75210000D01*
X82069926Y-75210000D01*
X82138509Y-75196358D01*
X82138513Y-75196358D01*
X82329856Y-75158298D01*
X82405416Y-75127000D01*
X85594585Y-75127000D01*
X85670145Y-75158298D01*
X85861487Y-75196358D01*
X85861491Y-75196358D01*
X85930074Y-75210000D01*
X88069926Y-75210000D01*
X88138509Y-75196358D01*
X88138513Y-75196358D01*
X88329856Y-75158298D01*
X88405416Y-75127000D01*
X91594585Y-75127000D01*
X91670145Y-75158298D01*
X91861487Y-75196358D01*
X91861491Y-75196358D01*
X91930074Y-75210000D01*
X94069926Y-75210000D01*
X94138509Y-75196358D01*
X94138513Y-75196358D01*
X94329856Y-75158298D01*
X94405416Y-75127000D01*
X97594585Y-75127000D01*
X97670145Y-75158298D01*
X97861487Y-75196358D01*
X97861491Y-75196358D01*
X97930074Y-75210000D01*
X99290001Y-75210000D01*
X99290001Y-85189938D01*
X99262763Y-85157632D01*
X98851874Y-84955881D01*
X98677000Y-85082046D01*
X98677000Y-86673000D01*
X98697000Y-86673000D01*
X98697000Y-86927000D01*
X98677000Y-86927000D01*
X98677000Y-88517954D01*
X98851874Y-88644119D01*
X99262763Y-88442368D01*
X99290000Y-88410062D01*
X99290000Y-97290000D01*
X91761578Y-97290000D01*
X92524148Y-96527431D01*
X92886280Y-96377431D01*
X93177431Y-96086280D01*
X93335000Y-95705874D01*
X93335000Y-95294126D01*
X93177431Y-94913720D01*
X92886280Y-94622569D01*
X92505874Y-94465000D01*
X92094126Y-94465000D01*
X91906449Y-94542738D01*
X91786280Y-94422569D01*
X91405874Y-94265000D01*
X90994126Y-94265000D01*
X90631993Y-94415000D01*
X80985000Y-94415000D01*
X80985000Y-89644941D01*
X85815000Y-89644941D01*
X85815000Y-90355059D01*
X86086750Y-91011121D01*
X86588879Y-91513250D01*
X87244941Y-91785000D01*
X87955059Y-91785000D01*
X88611121Y-91513250D01*
X89113250Y-91011121D01*
X89385000Y-90355059D01*
X89385000Y-89644941D01*
X89113250Y-88988879D01*
X88611121Y-88486750D01*
X87955059Y-88215000D01*
X87244941Y-88215000D01*
X86588879Y-88486750D01*
X86086750Y-88988879D01*
X85815000Y-89644941D01*
X80985000Y-89644941D01*
X80985000Y-84744941D01*
X85815000Y-84744941D01*
X85815000Y-85455059D01*
X86086750Y-86111121D01*
X86588879Y-86613250D01*
X87244941Y-86885000D01*
X87955059Y-86885000D01*
X88611121Y-86613250D01*
X89113250Y-86111121D01*
X89385000Y-85455059D01*
X89385000Y-84744941D01*
X89257951Y-84438217D01*
X93115000Y-84438217D01*
X93115000Y-86161782D01*
X93180854Y-86492854D01*
X93431711Y-86868289D01*
X93807145Y-87119146D01*
X94250000Y-87207235D01*
X94692854Y-87119146D01*
X94980421Y-86927000D01*
X97415000Y-86927000D01*
X97415000Y-87677000D01*
X97549998Y-88101678D01*
X97837237Y-88442368D01*
X98248126Y-88644119D01*
X98423000Y-88517954D01*
X98423000Y-86927000D01*
X97415000Y-86927000D01*
X94980421Y-86927000D01*
X95068289Y-86868289D01*
X95319146Y-86492855D01*
X95385000Y-86161783D01*
X95385000Y-85923000D01*
X97415000Y-85923000D01*
X97415000Y-86673000D01*
X98423000Y-86673000D01*
X98423000Y-85082046D01*
X98248126Y-84955881D01*
X97837237Y-85157632D01*
X97549998Y-85498322D01*
X97415000Y-85923000D01*
X95385000Y-85923000D01*
X95385000Y-84438217D01*
X95319146Y-84107145D01*
X95068289Y-83731711D01*
X94692855Y-83480854D01*
X94250000Y-83392765D01*
X93807146Y-83480854D01*
X93431712Y-83731711D01*
X93180855Y-84107145D01*
X93115000Y-84438217D01*
X89257951Y-84438217D01*
X89113250Y-84088879D01*
X88611121Y-83586750D01*
X87955059Y-83315000D01*
X87244941Y-83315000D01*
X86588879Y-83586750D01*
X86086750Y-84088879D01*
X85815000Y-84744941D01*
X80985000Y-84744941D01*
X80985000Y-82787159D01*
X81002337Y-82699999D01*
X80985000Y-82612839D01*
X80985000Y-82612835D01*
X80933652Y-82354690D01*
X80838977Y-82212999D01*
X80787424Y-82135845D01*
X80787423Y-82135844D01*
X80738049Y-82061951D01*
X80664156Y-82012577D01*
X80227431Y-81575852D01*
X80148377Y-81385000D01*
X84633422Y-81385000D01*
X84691373Y-81442951D01*
X84572078Y-81442951D01*
X84191672Y-81600520D01*
X83900521Y-81891671D01*
X83742952Y-82272077D01*
X83742952Y-82683825D01*
X83900521Y-83064231D01*
X84191672Y-83355382D01*
X84572078Y-83512951D01*
X84983826Y-83512951D01*
X85342367Y-83364439D01*
X85422049Y-83380288D01*
X85509210Y-83362951D01*
X85509214Y-83362951D01*
X85767359Y-83311603D01*
X85853054Y-83254343D01*
X95215000Y-83254343D01*
X95215000Y-83745657D01*
X95403018Y-84199571D01*
X95750429Y-84546982D01*
X96204343Y-84735000D01*
X96695657Y-84735000D01*
X97149571Y-84546982D01*
X97496982Y-84199571D01*
X97685000Y-83745657D01*
X97685000Y-83254343D01*
X97496982Y-82800429D01*
X97149571Y-82453018D01*
X96695657Y-82265000D01*
X96204343Y-82265000D01*
X95750429Y-82453018D01*
X95403018Y-82800429D01*
X95215000Y-83254343D01*
X85853054Y-83254343D01*
X86060098Y-83116000D01*
X86109474Y-83042105D01*
X86564156Y-82587423D01*
X86638049Y-82538049D01*
X86693748Y-82454691D01*
X86820495Y-82265000D01*
X86833652Y-82245310D01*
X86885000Y-81987165D01*
X86885000Y-81987161D01*
X86902337Y-81900001D01*
X86885000Y-81812841D01*
X86885000Y-81587161D01*
X86902337Y-81500000D01*
X86885000Y-81412839D01*
X86885000Y-80889793D01*
X86905000Y-80789246D01*
X86905000Y-80789241D01*
X86922337Y-80702082D01*
X86918999Y-80685302D01*
X87090625Y-80570625D01*
X87290000Y-80272239D01*
X87489375Y-80570625D01*
X87980582Y-80898839D01*
X88413744Y-80985000D01*
X88706256Y-80985000D01*
X89139418Y-80898839D01*
X89630625Y-80570625D01*
X89642816Y-80552381D01*
X89651843Y-80597765D01*
X89792191Y-80807809D01*
X90002235Y-80948157D01*
X90250000Y-80997440D01*
X91950000Y-80997440D01*
X92197765Y-80948157D01*
X92407809Y-80807809D01*
X92548157Y-80597765D01*
X92597440Y-80350000D01*
X92597440Y-78650000D01*
X92548157Y-78402235D01*
X92407809Y-78192191D01*
X92197765Y-78051843D01*
X92152381Y-78042816D01*
X92170625Y-78030625D01*
X92498839Y-77539418D01*
X92538860Y-77338217D01*
X93115000Y-77338217D01*
X93115000Y-79261782D01*
X93180854Y-79592854D01*
X93352673Y-79850001D01*
X93180855Y-80107145D01*
X93115000Y-80438217D01*
X93115000Y-82161782D01*
X93180854Y-82492854D01*
X93431711Y-82868289D01*
X93807145Y-83119146D01*
X94250000Y-83207235D01*
X94692854Y-83119146D01*
X95068289Y-82868289D01*
X95319146Y-82492855D01*
X95385000Y-82161783D01*
X95385000Y-80438217D01*
X95319146Y-80107145D01*
X95147327Y-79850000D01*
X95319146Y-79592855D01*
X95385000Y-79261783D01*
X95385000Y-77338217D01*
X95319146Y-77007145D01*
X95068289Y-76631711D01*
X94692855Y-76380854D01*
X94250000Y-76292765D01*
X93807146Y-76380854D01*
X93431712Y-76631711D01*
X93180855Y-77007145D01*
X93115000Y-77338217D01*
X92538860Y-77338217D01*
X92614092Y-76960000D01*
X92498839Y-76380582D01*
X92414489Y-76254343D01*
X95215000Y-76254343D01*
X95215000Y-76745657D01*
X95403018Y-77199571D01*
X95750429Y-77546982D01*
X96204343Y-77735000D01*
X96695657Y-77735000D01*
X97149571Y-77546982D01*
X97496982Y-77199571D01*
X97685000Y-76745657D01*
X97685000Y-76254343D01*
X97496982Y-75800429D01*
X97149571Y-75453018D01*
X96695657Y-75265000D01*
X96204343Y-75265000D01*
X95750429Y-75453018D01*
X95403018Y-75800429D01*
X95215000Y-76254343D01*
X92414489Y-76254343D01*
X92170625Y-75889375D01*
X91679418Y-75561161D01*
X91246256Y-75475000D01*
X90953744Y-75475000D01*
X90520582Y-75561161D01*
X90029375Y-75889375D01*
X89830000Y-76187761D01*
X89630625Y-75889375D01*
X89139418Y-75561161D01*
X88706256Y-75475000D01*
X88413744Y-75475000D01*
X87980582Y-75561161D01*
X87489375Y-75889375D01*
X87276157Y-76208478D01*
X87215183Y-76078642D01*
X86786924Y-75688355D01*
X86376890Y-75518524D01*
X86147000Y-75639845D01*
X86147000Y-76833000D01*
X86167000Y-76833000D01*
X86167000Y-77087000D01*
X86147000Y-77087000D01*
X86147000Y-77107000D01*
X85893000Y-77107000D01*
X85893000Y-77087000D01*
X84699181Y-77087000D01*
X84578514Y-77316892D01*
X84824817Y-77841358D01*
X85249786Y-78228647D01*
X84949375Y-78429375D01*
X84621161Y-78920582D01*
X84505908Y-79500000D01*
X84528783Y-79615000D01*
X73166579Y-79615000D01*
X72685000Y-79133422D01*
X72685000Y-78868007D01*
X72835000Y-78505874D01*
X72835000Y-78094126D01*
X72677431Y-77713720D01*
X72386280Y-77422569D01*
X72005874Y-77265000D01*
X71594126Y-77265000D01*
X71213720Y-77422569D01*
X70922569Y-77713720D01*
X70765000Y-78094126D01*
X70765000Y-78505874D01*
X70915001Y-78868008D01*
X70915000Y-79412839D01*
X70897663Y-79500000D01*
X70915000Y-79587161D01*
X70915000Y-79587164D01*
X70966348Y-79845309D01*
X71161951Y-80138049D01*
X71235847Y-80187425D01*
X72079065Y-81030644D01*
X60871515Y-81030644D01*
X60784355Y-81013307D01*
X60697195Y-81030644D01*
X60697191Y-81030644D01*
X60439046Y-81081992D01*
X60439044Y-81081993D01*
X60439045Y-81081993D01*
X60220201Y-81228220D01*
X60220200Y-81228221D01*
X60146307Y-81277595D01*
X60096933Y-81351488D01*
X59675852Y-81772569D01*
X59313720Y-81922569D01*
X59022569Y-82213720D01*
X58865000Y-82594126D01*
X58865000Y-83005874D01*
X59022569Y-83386280D01*
X59313720Y-83677431D01*
X59365000Y-83698672D01*
X59365000Y-83905874D01*
X59522569Y-84286280D01*
X59813720Y-84577431D01*
X60194126Y-84735000D01*
X60605874Y-84735000D01*
X60986280Y-84577431D01*
X61277431Y-84286280D01*
X61427431Y-83924148D01*
X61666579Y-83685000D01*
X75422713Y-83685000D01*
X75509874Y-83702337D01*
X75597035Y-83685000D01*
X75597039Y-83685000D01*
X75855184Y-83633652D01*
X76147923Y-83438049D01*
X76180357Y-83389508D01*
X76528128Y-83245457D01*
X76819279Y-82954306D01*
X76976848Y-82573900D01*
X76976848Y-82162152D01*
X76819279Y-81781746D01*
X76528128Y-81490595D01*
X76273199Y-81385000D01*
X78251623Y-81385000D01*
X78165000Y-81594126D01*
X78165000Y-82005874D01*
X78242738Y-82193551D01*
X78171521Y-82264768D01*
X78021522Y-82626899D01*
X76233422Y-84415000D01*
X73087161Y-84415000D01*
X73000000Y-84397663D01*
X72912839Y-84415000D01*
X72912835Y-84415000D01*
X72654690Y-84466348D01*
X72435845Y-84612576D01*
X72435844Y-84612577D01*
X72361951Y-84661951D01*
X72312577Y-84735844D01*
X65735845Y-91312577D01*
X65685000Y-91346551D01*
X65685000Y-85960804D01*
X65886280Y-85877431D01*
X66177431Y-85586280D01*
X66335000Y-85205874D01*
X66335000Y-84794126D01*
X66177431Y-84413720D01*
X65886280Y-84122569D01*
X65505874Y-83965000D01*
X65094126Y-83965000D01*
X64713720Y-84122569D01*
X64422569Y-84413720D01*
X64272569Y-84775853D01*
X64235847Y-84812575D01*
X64161951Y-84861951D01*
X63966348Y-85154691D01*
X63915000Y-85412836D01*
X63915000Y-85412839D01*
X63897663Y-85500000D01*
X63915000Y-85587161D01*
X63915001Y-92047799D01*
X63655281Y-91910408D01*
X63617609Y-91906538D01*
X63427000Y-92031269D01*
X63427000Y-93273000D01*
X63447000Y-93273000D01*
X63447000Y-93527000D01*
X63427000Y-93527000D01*
X63427000Y-94768731D01*
X63617609Y-94893462D01*
X63655281Y-94889592D01*
X64047160Y-94682290D01*
X64318127Y-94863344D01*
X64800000Y-94959195D01*
X65281872Y-94863344D01*
X65550000Y-94684187D01*
X65818127Y-94863344D01*
X66300000Y-94959195D01*
X66781872Y-94863344D01*
X67050000Y-94684187D01*
X67318127Y-94863344D01*
X67800000Y-94959195D01*
X68281872Y-94863344D01*
X68550000Y-94684187D01*
X68818127Y-94863344D01*
X69300000Y-94959195D01*
X69781872Y-94863344D01*
X69841003Y-94823834D01*
X69952235Y-94898157D01*
X70200000Y-94947440D01*
X71400000Y-94947440D01*
X71647765Y-94898157D01*
X71857809Y-94757809D01*
X71998157Y-94547765D01*
X72047440Y-94300000D01*
X72047440Y-92500000D01*
X71998157Y-92252235D01*
X71857809Y-92042191D01*
X71647765Y-91901843D01*
X71585000Y-91889358D01*
X71585000Y-91125157D01*
X72025158Y-90685000D01*
X77021289Y-90685000D01*
X77113720Y-90777431D01*
X77494126Y-90935000D01*
X77905874Y-90935000D01*
X78286280Y-90777431D01*
X78577431Y-90486280D01*
X78735000Y-90105874D01*
X78735000Y-89694126D01*
X78577431Y-89313720D01*
X78286280Y-89022569D01*
X77905874Y-88865000D01*
X77502229Y-88865000D01*
X77377431Y-88563710D01*
X77086280Y-88272559D01*
X76705874Y-88114990D01*
X76398676Y-88114990D01*
X76377431Y-88063699D01*
X76086280Y-87772548D01*
X75705874Y-87614979D01*
X75294126Y-87614979D01*
X74913720Y-87772548D01*
X74821289Y-87864979D01*
X71686600Y-87864979D01*
X73366579Y-86185000D01*
X76512839Y-86185000D01*
X76600000Y-86202337D01*
X76687161Y-86185000D01*
X76687165Y-86185000D01*
X76945310Y-86133652D01*
X77238049Y-85938049D01*
X77287425Y-85864153D01*
X79215001Y-83936578D01*
X79215000Y-94712839D01*
X79197663Y-94800000D01*
X79215000Y-94887161D01*
X79215000Y-94887164D01*
X79266348Y-95145309D01*
X79461951Y-95438049D01*
X79535847Y-95487425D01*
X79912575Y-95864153D01*
X79961951Y-95938049D01*
X80226775Y-96115000D01*
X78100894Y-96115000D01*
X75593048Y-93607155D01*
X75635000Y-93505874D01*
X75635000Y-93094126D01*
X75477431Y-92713720D01*
X75186280Y-92422569D01*
X74805874Y-92265000D01*
X74394126Y-92265000D01*
X74013720Y-92422569D01*
X73722569Y-92713720D01*
X73565000Y-93094126D01*
X73565000Y-93505874D01*
X73702975Y-93838977D01*
X73697663Y-93865685D01*
X73715000Y-93952846D01*
X73715000Y-93952850D01*
X73766348Y-94210995D01*
X73819103Y-94289947D01*
X73907719Y-94422569D01*
X73961952Y-94503734D01*
X74035845Y-94553108D01*
X76772736Y-97290000D01*
X50710000Y-97290000D01*
X50710000Y-92978364D01*
X51265000Y-92978364D01*
X51265000Y-93821635D01*
X51336656Y-94181872D01*
X51609615Y-94590385D01*
X52018127Y-94863344D01*
X52500000Y-94959195D01*
X52981872Y-94863344D01*
X53250000Y-94684187D01*
X53518127Y-94863344D01*
X54000000Y-94959195D01*
X54481872Y-94863344D01*
X54750000Y-94684187D01*
X55018127Y-94863344D01*
X55500000Y-94959195D01*
X55981872Y-94863344D01*
X56250000Y-94684187D01*
X56518127Y-94863344D01*
X57000000Y-94959195D01*
X57481872Y-94863344D01*
X57750000Y-94684187D01*
X58018127Y-94863344D01*
X58500000Y-94959195D01*
X58981872Y-94863344D01*
X59041003Y-94823834D01*
X59152235Y-94898157D01*
X59400000Y-94947440D01*
X60600000Y-94947440D01*
X60847765Y-94898157D01*
X61057809Y-94757809D01*
X61198157Y-94547765D01*
X61247440Y-94300000D01*
X61247440Y-93527000D01*
X62065000Y-93527000D01*
X62065000Y-93827000D01*
X62207610Y-94289947D01*
X62516526Y-94663080D01*
X62944719Y-94889592D01*
X62982391Y-94893462D01*
X63173000Y-94768731D01*
X63173000Y-93527000D01*
X62065000Y-93527000D01*
X61247440Y-93527000D01*
X61247440Y-92973000D01*
X62065000Y-92973000D01*
X62065000Y-93273000D01*
X63173000Y-93273000D01*
X63173000Y-92031269D01*
X62982391Y-91906538D01*
X62944719Y-91910408D01*
X62516526Y-92136920D01*
X62207610Y-92510053D01*
X62065000Y-92973000D01*
X61247440Y-92973000D01*
X61247440Y-92500000D01*
X61198157Y-92252235D01*
X61057809Y-92042191D01*
X60847765Y-91901843D01*
X60600000Y-91852560D01*
X59400000Y-91852560D01*
X59152235Y-91901843D01*
X59041004Y-91976166D01*
X58981873Y-91936656D01*
X58500000Y-91840805D01*
X58018128Y-91936656D01*
X57750001Y-92115813D01*
X57481873Y-91936656D01*
X57000000Y-91840805D01*
X56518128Y-91936656D01*
X56250001Y-92115813D01*
X55981873Y-91936656D01*
X55500000Y-91840805D01*
X55018128Y-91936656D01*
X54750001Y-92115813D01*
X54481873Y-91936656D01*
X54000000Y-91840805D01*
X53518128Y-91936656D01*
X53250001Y-92115813D01*
X52981873Y-91936656D01*
X52500000Y-91840805D01*
X52018128Y-91936656D01*
X51609616Y-92209615D01*
X51336656Y-92618127D01*
X51265000Y-92978364D01*
X50710000Y-92978364D01*
X50710000Y-76603108D01*
X84578514Y-76603108D01*
X84699181Y-76833000D01*
X85893000Y-76833000D01*
X85893000Y-75639845D01*
X85663110Y-75518524D01*
X85253076Y-75688355D01*
X84824817Y-76078642D01*
X84578514Y-76603108D01*
X50710000Y-76603108D01*
X50710000Y-75210000D01*
X52069926Y-75210000D01*
X52138509Y-75196358D01*
X52138513Y-75196358D01*
X52329856Y-75158298D01*
X52405416Y-75127000D01*
X55594585Y-75127000D01*
X55670145Y-75158298D01*
G04 #@! TD*
M02*
