M48
;DRILL file {KiCad (5.0.2)-1} date 2020/04/15 17:47:29
;FORMAT={-:-/ absolute / metric / decimal}
FMAT,2
METRIC,TZ
T1C0.400
T2C0.600
T3C0.700
T4C1.000
T5C1.200
T6C1.500
%
G90
G05
T1
X59.9Y-57.8
X59.9Y-82.8
X60.4Y-58.7
X60.4Y-83.7
X65.3Y-60.
X65.3Y-85.
X71.8Y-53.3
X71.8Y-78.3
X74.6Y-68.3
X74.6Y-93.3
X75.05Y-56.916
X75.05Y-81.916
X75.5Y-63.65
X75.5Y-88.65
X75.942Y-57.368
X75.942Y-82.368
X76.5Y-64.15
X76.5Y-89.15
X77.7Y-64.9
X77.7Y-89.9
X79.049Y-57.851
X79.049Y-82.851
X79.2Y-56.8
X79.2Y-81.8
X84.778Y-57.478
X84.778Y-82.478
X84.9Y-61.9
X84.9Y-86.9
X86.6Y-58.2
X86.6Y-83.2
X86.6Y-66.6
X86.6Y-91.6
X90.072Y-66.6
X90.072Y-91.6
X90.2Y-58.2
X90.2Y-83.2
X91.2Y-70.3
X91.2Y-95.3
X92.225Y-58.887
X92.225Y-61.9
X92.225Y-83.887
X92.225Y-86.9
X92.3Y-70.5
X92.3Y-95.5
T3
X63.3Y-68.4
X64.8Y-68.4
X66.3Y-68.4
X67.8Y-68.4
X69.3Y-68.4
X70.8Y-68.4
X63.3Y-93.4
X64.8Y-93.4
X66.3Y-93.4
X67.8Y-93.4
X69.3Y-93.4
X70.8Y-93.4
X52.5Y-93.4
X54.Y-93.4
X55.5Y-93.4
X57.Y-93.4
X58.5Y-93.4
X60.Y-93.4
X52.5Y-68.4
X54.Y-68.4
X55.5Y-68.4
X57.Y-68.4
X58.5Y-68.4
X60.Y-68.4
T4
X86.02Y-76.96
X86.02Y-79.5
X88.56Y-76.96
X88.56Y-79.5
X91.1Y-76.96
X91.1Y-79.5
X86.02Y-51.96
X86.02Y-54.5
X88.56Y-51.96
X88.56Y-54.5
X91.1Y-51.96
X91.1Y-54.5
T5
X96.1Y-51.5
X96.1Y-58.5
X96.45Y-76.5
X96.45Y-83.5
T6
X87.6Y-60.1
X87.6Y-65.
X87.6Y-85.1
X87.6Y-90.
T2
X93.9Y-52.85G85X93.9Y-53.75
G05
X93.9Y-55.85G85X93.9Y-56.75
G05
X93.9Y-59.85G85X93.9Y-60.75
G05
X98.2Y-61.35G85X98.2Y-62.25
G05
X94.25Y-77.85G85X94.25Y-78.75
G05
X94.25Y-80.85G85X94.25Y-81.75
G05
X94.25Y-84.85G85X94.25Y-85.75
G05
X98.55Y-86.35G85X98.55Y-87.25
G05
T0
M30
