G04 #@! TF.GenerationSoftware,KiCad,Pcbnew,(5.0.2)-1*
G04 #@! TF.CreationDate,2020-05-18T12:22:33+09:00*
G04 #@! TF.ProjectId,controller,636f6e74-726f-46c6-9c65-722e6b696361,rev?*
G04 #@! TF.SameCoordinates,Original*
G04 #@! TF.FileFunction,Soldermask,Bot*
G04 #@! TF.FilePolarity,Negative*
%FSLAX46Y46*%
G04 Gerber Fmt 4.6, Leading zero omitted, Abs format (unit mm)*
G04 Created by KiCad (PCBNEW (5.0.2)-1) date 2020/05/18 12:22:33*
%MOMM*%
%LPD*%
G01*
G04 APERTURE LIST*
%ADD10C,0.100000*%
G04 APERTURE END LIST*
D10*
G36*
X99270485Y-91974209D02*
X99307979Y-91985583D01*
X99342543Y-92004058D01*
X99372833Y-92028917D01*
X99397692Y-92059207D01*
X99416167Y-92093771D01*
X99427541Y-92131265D01*
X99431986Y-92176402D01*
X99431986Y-92815126D01*
X99427541Y-92860263D01*
X99416167Y-92897757D01*
X99397692Y-92932321D01*
X99372833Y-92962611D01*
X99342543Y-92987470D01*
X99307979Y-93005945D01*
X99270485Y-93017319D01*
X99229389Y-93021366D01*
X99205355Y-93026146D01*
X99182716Y-93035523D01*
X99162341Y-93049137D01*
X99145014Y-93066464D01*
X99131400Y-93086839D01*
X99122023Y-93109478D01*
X99117242Y-93133511D01*
X99117242Y-93158015D01*
X99122022Y-93182049D01*
X99131399Y-93204688D01*
X99145013Y-93225063D01*
X99162340Y-93242390D01*
X99182715Y-93256004D01*
X99205354Y-93265381D01*
X99229389Y-93270162D01*
X99270485Y-93274209D01*
X99307979Y-93285583D01*
X99342543Y-93304058D01*
X99372833Y-93328917D01*
X99397692Y-93359207D01*
X99416167Y-93393771D01*
X99427541Y-93431265D01*
X99431986Y-93476402D01*
X99431986Y-94115126D01*
X99427541Y-94160263D01*
X99416167Y-94197757D01*
X99397692Y-94232321D01*
X99372833Y-94262611D01*
X99342543Y-94287470D01*
X99307979Y-94305945D01*
X99270485Y-94317319D01*
X99229389Y-94321366D01*
X99205355Y-94326146D01*
X99182716Y-94335523D01*
X99162341Y-94349137D01*
X99145014Y-94366464D01*
X99131400Y-94386839D01*
X99122023Y-94409478D01*
X99117242Y-94433511D01*
X99117242Y-94458015D01*
X99122022Y-94482049D01*
X99131399Y-94504688D01*
X99145013Y-94525063D01*
X99162340Y-94542390D01*
X99182715Y-94556004D01*
X99205354Y-94565381D01*
X99229389Y-94570162D01*
X99270485Y-94574209D01*
X99307979Y-94585583D01*
X99342543Y-94604058D01*
X99372833Y-94628917D01*
X99397692Y-94659207D01*
X99416167Y-94693771D01*
X99427541Y-94731265D01*
X99431986Y-94776402D01*
X99431986Y-95415126D01*
X99427541Y-95460263D01*
X99416167Y-95497757D01*
X99397692Y-95532321D01*
X99372833Y-95562611D01*
X99342543Y-95587470D01*
X99307979Y-95605945D01*
X99270485Y-95617319D01*
X99229389Y-95621366D01*
X99205355Y-95626146D01*
X99182716Y-95635523D01*
X99162341Y-95649137D01*
X99145014Y-95666464D01*
X99131400Y-95686839D01*
X99122023Y-95709478D01*
X99117242Y-95733511D01*
X99117242Y-95758015D01*
X99122022Y-95782049D01*
X99131399Y-95804688D01*
X99145013Y-95825063D01*
X99162340Y-95842390D01*
X99182715Y-95856004D01*
X99205354Y-95865381D01*
X99229389Y-95870162D01*
X99270485Y-95874209D01*
X99307979Y-95885583D01*
X99342543Y-95904058D01*
X99372833Y-95928917D01*
X99397692Y-95959207D01*
X99416167Y-95993771D01*
X99427541Y-96031265D01*
X99431986Y-96076402D01*
X99431986Y-96715126D01*
X99427541Y-96760263D01*
X99416167Y-96797757D01*
X99397692Y-96832321D01*
X99372833Y-96862611D01*
X99342543Y-96887470D01*
X99307979Y-96905945D01*
X99270485Y-96917319D01*
X99225348Y-96921764D01*
X98486624Y-96921764D01*
X98441487Y-96917319D01*
X98403993Y-96905945D01*
X98369429Y-96887470D01*
X98339139Y-96862611D01*
X98314280Y-96832321D01*
X98295805Y-96797757D01*
X98284431Y-96760263D01*
X98279986Y-96715126D01*
X98279986Y-96076402D01*
X98284431Y-96031265D01*
X98295805Y-95993771D01*
X98314280Y-95959207D01*
X98339139Y-95928917D01*
X98369429Y-95904058D01*
X98403993Y-95885583D01*
X98441487Y-95874209D01*
X98482583Y-95870162D01*
X98506617Y-95865382D01*
X98529256Y-95856005D01*
X98549631Y-95842391D01*
X98566958Y-95825064D01*
X98580572Y-95804689D01*
X98589949Y-95782050D01*
X98594730Y-95758017D01*
X98594730Y-95733513D01*
X98589950Y-95709479D01*
X98580573Y-95686840D01*
X98566959Y-95666465D01*
X98549632Y-95649138D01*
X98529257Y-95635524D01*
X98506618Y-95626147D01*
X98482583Y-95621366D01*
X98441487Y-95617319D01*
X98403993Y-95605945D01*
X98369429Y-95587470D01*
X98339139Y-95562611D01*
X98314280Y-95532321D01*
X98295805Y-95497757D01*
X98284431Y-95460263D01*
X98279986Y-95415126D01*
X98279986Y-94776402D01*
X98284431Y-94731265D01*
X98295805Y-94693771D01*
X98314280Y-94659207D01*
X98339139Y-94628917D01*
X98369429Y-94604058D01*
X98403993Y-94585583D01*
X98441487Y-94574209D01*
X98482583Y-94570162D01*
X98506617Y-94565382D01*
X98529256Y-94556005D01*
X98549631Y-94542391D01*
X98566958Y-94525064D01*
X98580572Y-94504689D01*
X98589949Y-94482050D01*
X98594730Y-94458017D01*
X98594730Y-94433513D01*
X98589950Y-94409479D01*
X98580573Y-94386840D01*
X98566959Y-94366465D01*
X98549632Y-94349138D01*
X98529257Y-94335524D01*
X98506618Y-94326147D01*
X98482583Y-94321366D01*
X98441487Y-94317319D01*
X98403993Y-94305945D01*
X98369429Y-94287470D01*
X98339139Y-94262611D01*
X98314280Y-94232321D01*
X98295805Y-94197757D01*
X98284431Y-94160263D01*
X98279986Y-94115126D01*
X98279986Y-93476402D01*
X98284431Y-93431265D01*
X98295805Y-93393771D01*
X98314280Y-93359207D01*
X98339139Y-93328917D01*
X98369429Y-93304058D01*
X98403993Y-93285583D01*
X98441487Y-93274209D01*
X98482583Y-93270162D01*
X98506617Y-93265382D01*
X98529256Y-93256005D01*
X98549631Y-93242391D01*
X98566958Y-93225064D01*
X98580572Y-93204689D01*
X98589949Y-93182050D01*
X98594730Y-93158017D01*
X98594730Y-93133513D01*
X98589950Y-93109479D01*
X98580573Y-93086840D01*
X98566959Y-93066465D01*
X98549632Y-93049138D01*
X98529257Y-93035524D01*
X98506618Y-93026147D01*
X98482583Y-93021366D01*
X98441487Y-93017319D01*
X98403993Y-93005945D01*
X98369429Y-92987470D01*
X98339139Y-92962611D01*
X98314280Y-92932321D01*
X98295805Y-92897757D01*
X98284431Y-92860263D01*
X98279986Y-92815126D01*
X98279986Y-92176402D01*
X98284431Y-92131265D01*
X98295805Y-92093771D01*
X98314280Y-92059207D01*
X98339139Y-92028917D01*
X98369429Y-92004058D01*
X98403993Y-91985583D01*
X98441487Y-91974209D01*
X98486624Y-91969764D01*
X99225348Y-91969764D01*
X99270485Y-91974209D01*
X99270485Y-91974209D01*
G37*
G36*
X97520485Y-91974209D02*
X97557979Y-91985583D01*
X97592543Y-92004058D01*
X97622833Y-92028917D01*
X97647692Y-92059207D01*
X97666167Y-92093771D01*
X97677541Y-92131265D01*
X97681986Y-92176402D01*
X97681986Y-92815126D01*
X97677541Y-92860263D01*
X97666167Y-92897757D01*
X97647692Y-92932321D01*
X97622833Y-92962611D01*
X97592543Y-92987470D01*
X97557979Y-93005945D01*
X97520485Y-93017319D01*
X97479389Y-93021366D01*
X97455355Y-93026146D01*
X97432716Y-93035523D01*
X97412341Y-93049137D01*
X97395014Y-93066464D01*
X97381400Y-93086839D01*
X97372023Y-93109478D01*
X97367242Y-93133511D01*
X97367242Y-93158015D01*
X97372022Y-93182049D01*
X97381399Y-93204688D01*
X97395013Y-93225063D01*
X97412340Y-93242390D01*
X97432715Y-93256004D01*
X97455354Y-93265381D01*
X97479389Y-93270162D01*
X97520485Y-93274209D01*
X97557979Y-93285583D01*
X97592543Y-93304058D01*
X97622833Y-93328917D01*
X97647692Y-93359207D01*
X97666167Y-93393771D01*
X97677541Y-93431265D01*
X97681986Y-93476402D01*
X97681986Y-94115126D01*
X97677541Y-94160263D01*
X97666167Y-94197757D01*
X97647692Y-94232321D01*
X97622833Y-94262611D01*
X97592543Y-94287470D01*
X97557979Y-94305945D01*
X97520485Y-94317319D01*
X97479389Y-94321366D01*
X97455355Y-94326146D01*
X97432716Y-94335523D01*
X97412341Y-94349137D01*
X97395014Y-94366464D01*
X97381400Y-94386839D01*
X97372023Y-94409478D01*
X97367242Y-94433511D01*
X97367242Y-94458015D01*
X97372022Y-94482049D01*
X97381399Y-94504688D01*
X97395013Y-94525063D01*
X97412340Y-94542390D01*
X97432715Y-94556004D01*
X97455354Y-94565381D01*
X97479389Y-94570162D01*
X97520485Y-94574209D01*
X97557979Y-94585583D01*
X97592543Y-94604058D01*
X97622833Y-94628917D01*
X97647692Y-94659207D01*
X97666167Y-94693771D01*
X97677541Y-94731265D01*
X97681986Y-94776402D01*
X97681986Y-95415126D01*
X97677541Y-95460263D01*
X97666167Y-95497757D01*
X97647692Y-95532321D01*
X97622833Y-95562611D01*
X97592543Y-95587470D01*
X97557979Y-95605945D01*
X97520485Y-95617319D01*
X97479389Y-95621366D01*
X97455355Y-95626146D01*
X97432716Y-95635523D01*
X97412341Y-95649137D01*
X97395014Y-95666464D01*
X97381400Y-95686839D01*
X97372023Y-95709478D01*
X97367242Y-95733511D01*
X97367242Y-95758015D01*
X97372022Y-95782049D01*
X97381399Y-95804688D01*
X97395013Y-95825063D01*
X97412340Y-95842390D01*
X97432715Y-95856004D01*
X97455354Y-95865381D01*
X97479389Y-95870162D01*
X97520485Y-95874209D01*
X97557979Y-95885583D01*
X97592543Y-95904058D01*
X97622833Y-95928917D01*
X97647692Y-95959207D01*
X97666167Y-95993771D01*
X97677541Y-96031265D01*
X97681986Y-96076402D01*
X97681986Y-96715126D01*
X97677541Y-96760263D01*
X97666167Y-96797757D01*
X97647692Y-96832321D01*
X97622833Y-96862611D01*
X97592543Y-96887470D01*
X97557979Y-96905945D01*
X97520485Y-96917319D01*
X97475348Y-96921764D01*
X96736624Y-96921764D01*
X96691487Y-96917319D01*
X96653993Y-96905945D01*
X96619429Y-96887470D01*
X96589139Y-96862611D01*
X96564280Y-96832321D01*
X96545805Y-96797757D01*
X96534431Y-96760263D01*
X96529986Y-96715126D01*
X96529986Y-96076402D01*
X96534431Y-96031265D01*
X96545805Y-95993771D01*
X96564280Y-95959207D01*
X96589139Y-95928917D01*
X96619429Y-95904058D01*
X96653993Y-95885583D01*
X96691487Y-95874209D01*
X96732583Y-95870162D01*
X96756617Y-95865382D01*
X96779256Y-95856005D01*
X96799631Y-95842391D01*
X96816958Y-95825064D01*
X96830572Y-95804689D01*
X96839949Y-95782050D01*
X96844730Y-95758017D01*
X96844730Y-95733513D01*
X96839950Y-95709479D01*
X96830573Y-95686840D01*
X96816959Y-95666465D01*
X96799632Y-95649138D01*
X96779257Y-95635524D01*
X96756618Y-95626147D01*
X96732583Y-95621366D01*
X96691487Y-95617319D01*
X96653993Y-95605945D01*
X96619429Y-95587470D01*
X96589139Y-95562611D01*
X96564280Y-95532321D01*
X96545805Y-95497757D01*
X96534431Y-95460263D01*
X96529986Y-95415126D01*
X96529986Y-94776402D01*
X96534431Y-94731265D01*
X96545805Y-94693771D01*
X96564280Y-94659207D01*
X96589139Y-94628917D01*
X96619429Y-94604058D01*
X96653993Y-94585583D01*
X96691487Y-94574209D01*
X96732583Y-94570162D01*
X96756617Y-94565382D01*
X96779256Y-94556005D01*
X96799631Y-94542391D01*
X96816958Y-94525064D01*
X96830572Y-94504689D01*
X96839949Y-94482050D01*
X96844730Y-94458017D01*
X96844730Y-94433513D01*
X96839950Y-94409479D01*
X96830573Y-94386840D01*
X96816959Y-94366465D01*
X96799632Y-94349138D01*
X96779257Y-94335524D01*
X96756618Y-94326147D01*
X96732583Y-94321366D01*
X96691487Y-94317319D01*
X96653993Y-94305945D01*
X96619429Y-94287470D01*
X96589139Y-94262611D01*
X96564280Y-94232321D01*
X96545805Y-94197757D01*
X96534431Y-94160263D01*
X96529986Y-94115126D01*
X96529986Y-93476402D01*
X96534431Y-93431265D01*
X96545805Y-93393771D01*
X96564280Y-93359207D01*
X96589139Y-93328917D01*
X96619429Y-93304058D01*
X96653993Y-93285583D01*
X96691487Y-93274209D01*
X96732583Y-93270162D01*
X96756617Y-93265382D01*
X96779256Y-93256005D01*
X96799631Y-93242391D01*
X96816958Y-93225064D01*
X96830572Y-93204689D01*
X96839949Y-93182050D01*
X96844730Y-93158017D01*
X96844730Y-93133513D01*
X96839950Y-93109479D01*
X96830573Y-93086840D01*
X96816959Y-93066465D01*
X96799632Y-93049138D01*
X96779257Y-93035524D01*
X96756618Y-93026147D01*
X96732583Y-93021366D01*
X96691487Y-93017319D01*
X96653993Y-93005945D01*
X96619429Y-92987470D01*
X96589139Y-92962611D01*
X96564280Y-92932321D01*
X96545805Y-92897757D01*
X96534431Y-92860263D01*
X96529986Y-92815126D01*
X96529986Y-92176402D01*
X96534431Y-92131265D01*
X96545805Y-92093771D01*
X96564280Y-92059207D01*
X96589139Y-92028917D01*
X96619429Y-92004058D01*
X96653993Y-91985583D01*
X96691487Y-91974209D01*
X96736624Y-91969764D01*
X97475348Y-91969764D01*
X97520485Y-91974209D01*
X97520485Y-91974209D01*
G37*
G36*
X94145485Y-91974209D02*
X94182979Y-91985583D01*
X94217543Y-92004058D01*
X94247833Y-92028917D01*
X94272692Y-92059207D01*
X94291167Y-92093771D01*
X94302541Y-92131265D01*
X94306986Y-92176402D01*
X94306986Y-92815126D01*
X94302541Y-92860263D01*
X94291167Y-92897757D01*
X94272692Y-92932321D01*
X94247833Y-92962611D01*
X94217543Y-92987470D01*
X94182979Y-93005945D01*
X94145485Y-93017319D01*
X94094235Y-93022366D01*
X94094249Y-93022507D01*
X94077408Y-93024166D01*
X94053959Y-93031279D01*
X94032348Y-93042830D01*
X94013406Y-93058376D01*
X93997860Y-93077318D01*
X93986309Y-93098929D01*
X93979196Y-93122378D01*
X93976794Y-93146764D01*
X93979196Y-93171150D01*
X93986309Y-93194599D01*
X93997860Y-93216210D01*
X94013406Y-93235152D01*
X94032348Y-93250698D01*
X94053959Y-93262249D01*
X94077408Y-93269362D01*
X94089543Y-93271162D01*
X94120485Y-93274209D01*
X94157979Y-93285583D01*
X94192543Y-93304058D01*
X94222833Y-93328917D01*
X94247692Y-93359207D01*
X94266167Y-93393771D01*
X94277541Y-93431265D01*
X94281986Y-93476402D01*
X94281986Y-94115126D01*
X94277541Y-94160263D01*
X94266167Y-94197757D01*
X94247692Y-94232321D01*
X94222833Y-94262611D01*
X94192543Y-94287470D01*
X94157979Y-94305945D01*
X94120485Y-94317319D01*
X94079389Y-94321366D01*
X94055355Y-94326146D01*
X94032716Y-94335523D01*
X94012341Y-94349137D01*
X93995014Y-94366464D01*
X93981400Y-94386839D01*
X93972023Y-94409478D01*
X93967242Y-94433511D01*
X93967242Y-94458015D01*
X93972022Y-94482049D01*
X93981399Y-94504688D01*
X93995013Y-94525063D01*
X94012340Y-94542390D01*
X94032715Y-94556004D01*
X94055354Y-94565381D01*
X94079389Y-94570162D01*
X94120485Y-94574209D01*
X94157979Y-94585583D01*
X94192543Y-94604058D01*
X94222833Y-94628917D01*
X94247692Y-94659207D01*
X94266167Y-94693771D01*
X94277541Y-94731265D01*
X94281986Y-94776402D01*
X94281986Y-95415126D01*
X94277541Y-95460263D01*
X94266167Y-95497757D01*
X94247692Y-95532321D01*
X94222833Y-95562611D01*
X94192543Y-95587470D01*
X94157979Y-95605945D01*
X94120485Y-95617319D01*
X94079389Y-95621366D01*
X94055355Y-95626146D01*
X94032716Y-95635523D01*
X94012341Y-95649137D01*
X93995014Y-95666464D01*
X93981400Y-95686839D01*
X93972023Y-95709478D01*
X93967242Y-95733511D01*
X93967242Y-95758015D01*
X93972022Y-95782049D01*
X93981399Y-95804688D01*
X93995013Y-95825063D01*
X94012340Y-95842390D01*
X94032715Y-95856004D01*
X94055354Y-95865381D01*
X94079389Y-95870162D01*
X94120485Y-95874209D01*
X94157979Y-95885583D01*
X94192543Y-95904058D01*
X94222833Y-95928917D01*
X94247692Y-95959207D01*
X94266167Y-95993771D01*
X94277541Y-96031265D01*
X94281986Y-96076402D01*
X94281986Y-96715126D01*
X94277541Y-96760263D01*
X94266167Y-96797757D01*
X94247692Y-96832321D01*
X94222833Y-96862611D01*
X94192543Y-96887470D01*
X94157979Y-96905945D01*
X94120485Y-96917319D01*
X94075348Y-96921764D01*
X93336624Y-96921764D01*
X93291487Y-96917319D01*
X93253993Y-96905945D01*
X93219429Y-96887470D01*
X93189139Y-96862611D01*
X93164280Y-96832321D01*
X93145805Y-96797757D01*
X93134431Y-96760263D01*
X93129986Y-96715126D01*
X93129986Y-96076402D01*
X93134431Y-96031265D01*
X93145805Y-95993771D01*
X93164280Y-95959207D01*
X93189139Y-95928917D01*
X93219429Y-95904058D01*
X93253993Y-95885583D01*
X93291487Y-95874209D01*
X93332583Y-95870162D01*
X93356617Y-95865382D01*
X93379256Y-95856005D01*
X93399631Y-95842391D01*
X93416958Y-95825064D01*
X93430572Y-95804689D01*
X93439949Y-95782050D01*
X93444730Y-95758017D01*
X93444730Y-95733513D01*
X93439950Y-95709479D01*
X93430573Y-95686840D01*
X93416959Y-95666465D01*
X93399632Y-95649138D01*
X93379257Y-95635524D01*
X93356618Y-95626147D01*
X93332583Y-95621366D01*
X93291487Y-95617319D01*
X93253993Y-95605945D01*
X93219429Y-95587470D01*
X93189139Y-95562611D01*
X93164280Y-95532321D01*
X93145805Y-95497757D01*
X93134431Y-95460263D01*
X93129986Y-95415126D01*
X93129986Y-94776402D01*
X93134431Y-94731265D01*
X93145805Y-94693771D01*
X93164280Y-94659207D01*
X93189139Y-94628917D01*
X93219429Y-94604058D01*
X93253993Y-94585583D01*
X93291487Y-94574209D01*
X93332583Y-94570162D01*
X93356617Y-94565382D01*
X93379256Y-94556005D01*
X93399631Y-94542391D01*
X93416958Y-94525064D01*
X93430572Y-94504689D01*
X93439949Y-94482050D01*
X93444730Y-94458017D01*
X93444730Y-94433513D01*
X93439950Y-94409479D01*
X93430573Y-94386840D01*
X93416959Y-94366465D01*
X93399632Y-94349138D01*
X93379257Y-94335524D01*
X93356618Y-94326147D01*
X93332583Y-94321366D01*
X93291487Y-94317319D01*
X93253993Y-94305945D01*
X93219429Y-94287470D01*
X93189139Y-94262611D01*
X93164280Y-94232321D01*
X93145805Y-94197757D01*
X93134431Y-94160263D01*
X93129986Y-94115126D01*
X93129986Y-93476402D01*
X93134431Y-93431265D01*
X93145805Y-93393771D01*
X93164280Y-93359207D01*
X93189139Y-93328917D01*
X93219429Y-93304058D01*
X93253993Y-93285583D01*
X93291487Y-93274209D01*
X93342737Y-93269162D01*
X93342723Y-93269021D01*
X93359564Y-93267362D01*
X93383013Y-93260249D01*
X93404624Y-93248698D01*
X93423566Y-93233152D01*
X93439112Y-93214210D01*
X93450663Y-93192599D01*
X93457776Y-93169150D01*
X93460178Y-93144764D01*
X93457776Y-93120378D01*
X93450663Y-93096929D01*
X93439112Y-93075318D01*
X93423566Y-93056376D01*
X93404624Y-93040830D01*
X93383013Y-93029279D01*
X93359564Y-93022166D01*
X93347429Y-93020366D01*
X93316487Y-93017319D01*
X93278993Y-93005945D01*
X93244429Y-92987470D01*
X93214139Y-92962611D01*
X93189280Y-92932321D01*
X93170805Y-92897757D01*
X93159431Y-92860263D01*
X93154986Y-92815126D01*
X93154986Y-92176402D01*
X93159431Y-92131265D01*
X93170805Y-92093771D01*
X93189280Y-92059207D01*
X93214139Y-92028917D01*
X93244429Y-92004058D01*
X93278993Y-91985583D01*
X93316487Y-91974209D01*
X93361624Y-91969764D01*
X94100348Y-91969764D01*
X94145485Y-91974209D01*
X94145485Y-91974209D01*
G37*
G36*
X95895485Y-91974209D02*
X95932979Y-91985583D01*
X95967543Y-92004058D01*
X95997833Y-92028917D01*
X96022692Y-92059207D01*
X96041167Y-92093771D01*
X96052541Y-92131265D01*
X96056986Y-92176402D01*
X96056986Y-92815126D01*
X96052541Y-92860263D01*
X96041167Y-92897757D01*
X96022692Y-92932321D01*
X95997833Y-92962611D01*
X95967543Y-92987470D01*
X95932979Y-93005945D01*
X95895485Y-93017319D01*
X95844235Y-93022366D01*
X95844249Y-93022507D01*
X95827408Y-93024166D01*
X95803959Y-93031279D01*
X95782348Y-93042830D01*
X95763406Y-93058376D01*
X95747860Y-93077318D01*
X95736309Y-93098929D01*
X95729196Y-93122378D01*
X95726794Y-93146764D01*
X95729196Y-93171150D01*
X95736309Y-93194599D01*
X95747860Y-93216210D01*
X95763406Y-93235152D01*
X95782348Y-93250698D01*
X95803959Y-93262249D01*
X95827408Y-93269362D01*
X95839543Y-93271162D01*
X95870485Y-93274209D01*
X95907979Y-93285583D01*
X95942543Y-93304058D01*
X95972833Y-93328917D01*
X95997692Y-93359207D01*
X96016167Y-93393771D01*
X96027541Y-93431265D01*
X96031986Y-93476402D01*
X96031986Y-94115126D01*
X96027541Y-94160263D01*
X96016167Y-94197757D01*
X95997692Y-94232321D01*
X95972833Y-94262611D01*
X95942543Y-94287470D01*
X95907979Y-94305945D01*
X95870485Y-94317319D01*
X95829389Y-94321366D01*
X95805355Y-94326146D01*
X95782716Y-94335523D01*
X95762341Y-94349137D01*
X95745014Y-94366464D01*
X95731400Y-94386839D01*
X95722023Y-94409478D01*
X95717242Y-94433511D01*
X95717242Y-94458015D01*
X95722022Y-94482049D01*
X95731399Y-94504688D01*
X95745013Y-94525063D01*
X95762340Y-94542390D01*
X95782715Y-94556004D01*
X95805354Y-94565381D01*
X95829389Y-94570162D01*
X95870485Y-94574209D01*
X95907979Y-94585583D01*
X95942543Y-94604058D01*
X95972833Y-94628917D01*
X95997692Y-94659207D01*
X96016167Y-94693771D01*
X96027541Y-94731265D01*
X96031986Y-94776402D01*
X96031986Y-95415126D01*
X96027541Y-95460263D01*
X96016167Y-95497757D01*
X95997692Y-95532321D01*
X95972833Y-95562611D01*
X95942543Y-95587470D01*
X95907979Y-95605945D01*
X95870485Y-95617319D01*
X95829389Y-95621366D01*
X95805355Y-95626146D01*
X95782716Y-95635523D01*
X95762341Y-95649137D01*
X95745014Y-95666464D01*
X95731400Y-95686839D01*
X95722023Y-95709478D01*
X95717242Y-95733511D01*
X95717242Y-95758015D01*
X95722022Y-95782049D01*
X95731399Y-95804688D01*
X95745013Y-95825063D01*
X95762340Y-95842390D01*
X95782715Y-95856004D01*
X95805354Y-95865381D01*
X95829389Y-95870162D01*
X95870485Y-95874209D01*
X95907979Y-95885583D01*
X95942543Y-95904058D01*
X95972833Y-95928917D01*
X95997692Y-95959207D01*
X96016167Y-95993771D01*
X96027541Y-96031265D01*
X96031986Y-96076402D01*
X96031986Y-96715126D01*
X96027541Y-96760263D01*
X96016167Y-96797757D01*
X95997692Y-96832321D01*
X95972833Y-96862611D01*
X95942543Y-96887470D01*
X95907979Y-96905945D01*
X95870485Y-96917319D01*
X95825348Y-96921764D01*
X95086624Y-96921764D01*
X95041487Y-96917319D01*
X95003993Y-96905945D01*
X94969429Y-96887470D01*
X94939139Y-96862611D01*
X94914280Y-96832321D01*
X94895805Y-96797757D01*
X94884431Y-96760263D01*
X94879986Y-96715126D01*
X94879986Y-96076402D01*
X94884431Y-96031265D01*
X94895805Y-95993771D01*
X94914280Y-95959207D01*
X94939139Y-95928917D01*
X94969429Y-95904058D01*
X95003993Y-95885583D01*
X95041487Y-95874209D01*
X95082583Y-95870162D01*
X95106617Y-95865382D01*
X95129256Y-95856005D01*
X95149631Y-95842391D01*
X95166958Y-95825064D01*
X95180572Y-95804689D01*
X95189949Y-95782050D01*
X95194730Y-95758017D01*
X95194730Y-95733513D01*
X95189950Y-95709479D01*
X95180573Y-95686840D01*
X95166959Y-95666465D01*
X95149632Y-95649138D01*
X95129257Y-95635524D01*
X95106618Y-95626147D01*
X95082583Y-95621366D01*
X95041487Y-95617319D01*
X95003993Y-95605945D01*
X94969429Y-95587470D01*
X94939139Y-95562611D01*
X94914280Y-95532321D01*
X94895805Y-95497757D01*
X94884431Y-95460263D01*
X94879986Y-95415126D01*
X94879986Y-94776402D01*
X94884431Y-94731265D01*
X94895805Y-94693771D01*
X94914280Y-94659207D01*
X94939139Y-94628917D01*
X94969429Y-94604058D01*
X95003993Y-94585583D01*
X95041487Y-94574209D01*
X95082583Y-94570162D01*
X95106617Y-94565382D01*
X95129256Y-94556005D01*
X95149631Y-94542391D01*
X95166958Y-94525064D01*
X95180572Y-94504689D01*
X95189949Y-94482050D01*
X95194730Y-94458017D01*
X95194730Y-94433513D01*
X95189950Y-94409479D01*
X95180573Y-94386840D01*
X95166959Y-94366465D01*
X95149632Y-94349138D01*
X95129257Y-94335524D01*
X95106618Y-94326147D01*
X95082583Y-94321366D01*
X95041487Y-94317319D01*
X95003993Y-94305945D01*
X94969429Y-94287470D01*
X94939139Y-94262611D01*
X94914280Y-94232321D01*
X94895805Y-94197757D01*
X94884431Y-94160263D01*
X94879986Y-94115126D01*
X94879986Y-93476402D01*
X94884431Y-93431265D01*
X94895805Y-93393771D01*
X94914280Y-93359207D01*
X94939139Y-93328917D01*
X94969429Y-93304058D01*
X95003993Y-93285583D01*
X95041487Y-93274209D01*
X95092737Y-93269162D01*
X95092723Y-93269021D01*
X95109564Y-93267362D01*
X95133013Y-93260249D01*
X95154624Y-93248698D01*
X95173566Y-93233152D01*
X95189112Y-93214210D01*
X95200663Y-93192599D01*
X95207776Y-93169150D01*
X95210178Y-93144764D01*
X95207776Y-93120378D01*
X95200663Y-93096929D01*
X95189112Y-93075318D01*
X95173566Y-93056376D01*
X95154624Y-93040830D01*
X95133013Y-93029279D01*
X95109564Y-93022166D01*
X95097429Y-93020366D01*
X95066487Y-93017319D01*
X95028993Y-93005945D01*
X94994429Y-92987470D01*
X94964139Y-92962611D01*
X94939280Y-92932321D01*
X94920805Y-92897757D01*
X94909431Y-92860263D01*
X94904986Y-92815126D01*
X94904986Y-92176402D01*
X94909431Y-92131265D01*
X94920805Y-92093771D01*
X94939280Y-92059207D01*
X94964139Y-92028917D01*
X94994429Y-92004058D01*
X95028993Y-91985583D01*
X95066487Y-91974209D01*
X95111624Y-91969764D01*
X95850348Y-91969764D01*
X95895485Y-91974209D01*
X95895485Y-91974209D01*
G37*
G36*
X73764499Y-94803445D02*
X73801993Y-94814819D01*
X73836557Y-94833294D01*
X73866847Y-94858153D01*
X73891706Y-94888443D01*
X73910181Y-94923007D01*
X73921555Y-94960501D01*
X73926000Y-95005638D01*
X73926000Y-95744362D01*
X73921555Y-95789499D01*
X73910181Y-95826993D01*
X73891706Y-95861557D01*
X73866847Y-95891847D01*
X73836557Y-95916706D01*
X73801993Y-95935181D01*
X73764499Y-95946555D01*
X73719362Y-95951000D01*
X73080638Y-95951000D01*
X73035501Y-95946555D01*
X72998007Y-95935181D01*
X72963443Y-95916706D01*
X72933153Y-95891847D01*
X72908294Y-95861557D01*
X72889819Y-95826993D01*
X72878445Y-95789499D01*
X72874000Y-95744362D01*
X72874000Y-95005638D01*
X72878445Y-94960501D01*
X72889819Y-94923007D01*
X72908294Y-94888443D01*
X72933153Y-94858153D01*
X72963443Y-94833294D01*
X72998007Y-94814819D01*
X73035501Y-94803445D01*
X73080638Y-94799000D01*
X73719362Y-94799000D01*
X73764499Y-94803445D01*
X73764499Y-94803445D01*
G37*
G36*
X80364499Y-94778445D02*
X80401993Y-94789819D01*
X80436557Y-94808294D01*
X80466847Y-94833153D01*
X80491706Y-94863443D01*
X80510181Y-94898007D01*
X80521555Y-94935501D01*
X80526000Y-94980638D01*
X80526000Y-95719362D01*
X80521555Y-95764499D01*
X80510181Y-95801993D01*
X80491706Y-95836557D01*
X80466847Y-95866847D01*
X80436557Y-95891706D01*
X80401993Y-95910181D01*
X80364499Y-95921555D01*
X80319362Y-95926000D01*
X79680638Y-95926000D01*
X79635501Y-95921555D01*
X79598007Y-95910181D01*
X79563443Y-95891706D01*
X79533153Y-95866847D01*
X79508294Y-95836557D01*
X79489819Y-95801993D01*
X79478445Y-95764499D01*
X79474000Y-95719362D01*
X79474000Y-94980638D01*
X79478445Y-94935501D01*
X79489819Y-94898007D01*
X79508294Y-94863443D01*
X79533153Y-94833153D01*
X79563443Y-94808294D01*
X79598007Y-94789819D01*
X79635501Y-94778445D01*
X79680638Y-94774000D01*
X80319362Y-94774000D01*
X80364499Y-94778445D01*
X80364499Y-94778445D01*
G37*
G36*
X81764499Y-94778445D02*
X81801993Y-94789819D01*
X81836557Y-94808294D01*
X81866847Y-94833153D01*
X81891706Y-94863443D01*
X81910181Y-94898007D01*
X81921555Y-94935501D01*
X81926000Y-94980638D01*
X81926000Y-95719362D01*
X81921555Y-95764499D01*
X81910181Y-95801993D01*
X81891706Y-95836557D01*
X81866847Y-95866847D01*
X81836557Y-95891706D01*
X81801993Y-95910181D01*
X81764499Y-95921555D01*
X81719362Y-95926000D01*
X81080638Y-95926000D01*
X81035501Y-95921555D01*
X80998007Y-95910181D01*
X80963443Y-95891706D01*
X80933153Y-95866847D01*
X80908294Y-95836557D01*
X80889819Y-95801993D01*
X80878445Y-95764499D01*
X80874000Y-95719362D01*
X80874000Y-94980638D01*
X80878445Y-94935501D01*
X80889819Y-94898007D01*
X80908294Y-94863443D01*
X80933153Y-94833153D01*
X80963443Y-94808294D01*
X80998007Y-94789819D01*
X81035501Y-94778445D01*
X81080638Y-94774000D01*
X81719362Y-94774000D01*
X81764499Y-94778445D01*
X81764499Y-94778445D01*
G37*
G36*
X58627618Y-92458420D02*
X58709427Y-92483237D01*
X58750333Y-92495645D01*
X58850491Y-92549181D01*
X58863426Y-92556095D01*
X58962553Y-92637447D01*
X59043905Y-92736574D01*
X59043906Y-92736576D01*
X59104355Y-92849667D01*
X59104382Y-92849757D01*
X59113760Y-92872396D01*
X59127374Y-92892771D01*
X59144701Y-92910098D01*
X59165075Y-92923712D01*
X59187714Y-92933089D01*
X59211748Y-92937870D01*
X59236252Y-92937870D01*
X59260285Y-92933090D01*
X59282924Y-92923712D01*
X59303299Y-92910098D01*
X59320626Y-92892771D01*
X59334240Y-92872397D01*
X59343617Y-92849758D01*
X59348398Y-92825724D01*
X59349000Y-92813472D01*
X59349000Y-92449000D01*
X60651000Y-92449000D01*
X60651000Y-94351000D01*
X59349000Y-94351000D01*
X59349000Y-93986528D01*
X59346598Y-93962142D01*
X59339485Y-93938693D01*
X59327934Y-93917082D01*
X59312388Y-93898140D01*
X59293446Y-93882594D01*
X59271835Y-93871043D01*
X59248386Y-93863930D01*
X59224000Y-93861528D01*
X59199614Y-93863930D01*
X59176165Y-93871043D01*
X59154554Y-93882594D01*
X59135612Y-93898140D01*
X59120066Y-93917082D01*
X59108515Y-93938693D01*
X59104382Y-93950243D01*
X59104355Y-93950333D01*
X59070513Y-94013646D01*
X59043905Y-94063426D01*
X58962553Y-94162553D01*
X58962551Y-94162555D01*
X58896468Y-94216788D01*
X58863425Y-94243905D01*
X58810782Y-94272043D01*
X58750332Y-94304355D01*
X58709599Y-94316711D01*
X58627617Y-94341580D01*
X58500000Y-94354149D01*
X58372382Y-94341580D01*
X58290400Y-94316711D01*
X58249667Y-94304355D01*
X58136576Y-94243906D01*
X58136574Y-94243905D01*
X58037447Y-94162553D01*
X58035568Y-94160263D01*
X57956096Y-94063426D01*
X57956095Y-94063424D01*
X57916479Y-93989309D01*
X57895645Y-93950332D01*
X57869618Y-93864531D01*
X57860240Y-93841892D01*
X57846626Y-93821517D01*
X57829299Y-93804190D01*
X57808925Y-93790576D01*
X57786286Y-93781199D01*
X57762252Y-93776418D01*
X57737748Y-93776418D01*
X57713715Y-93781198D01*
X57691076Y-93790576D01*
X57670701Y-93804190D01*
X57653374Y-93821517D01*
X57639760Y-93841891D01*
X57630384Y-93864526D01*
X57628407Y-93871043D01*
X57604355Y-93950333D01*
X57570513Y-94013646D01*
X57543905Y-94063426D01*
X57462553Y-94162553D01*
X57462551Y-94162555D01*
X57396468Y-94216788D01*
X57363425Y-94243905D01*
X57310782Y-94272043D01*
X57250332Y-94304355D01*
X57209599Y-94316711D01*
X57127617Y-94341580D01*
X57000000Y-94354149D01*
X56872382Y-94341580D01*
X56790400Y-94316711D01*
X56749667Y-94304355D01*
X56636576Y-94243906D01*
X56636574Y-94243905D01*
X56537447Y-94162553D01*
X56535568Y-94160263D01*
X56456096Y-94063426D01*
X56456095Y-94063424D01*
X56416479Y-93989309D01*
X56395645Y-93950332D01*
X56369618Y-93864531D01*
X56360240Y-93841892D01*
X56346626Y-93821517D01*
X56329299Y-93804190D01*
X56308925Y-93790576D01*
X56286286Y-93781199D01*
X56262252Y-93776418D01*
X56237748Y-93776418D01*
X56213715Y-93781198D01*
X56191076Y-93790576D01*
X56170701Y-93804190D01*
X56153374Y-93821517D01*
X56139760Y-93841891D01*
X56130384Y-93864526D01*
X56128407Y-93871043D01*
X56104355Y-93950333D01*
X56070513Y-94013646D01*
X56043905Y-94063426D01*
X55962553Y-94162553D01*
X55962551Y-94162555D01*
X55896468Y-94216788D01*
X55863425Y-94243905D01*
X55810782Y-94272043D01*
X55750332Y-94304355D01*
X55709599Y-94316711D01*
X55627617Y-94341580D01*
X55500000Y-94354149D01*
X55372382Y-94341580D01*
X55290400Y-94316711D01*
X55249667Y-94304355D01*
X55136576Y-94243906D01*
X55136574Y-94243905D01*
X55037447Y-94162553D01*
X55035568Y-94160263D01*
X54956096Y-94063426D01*
X54956095Y-94063424D01*
X54916479Y-93989309D01*
X54895645Y-93950332D01*
X54869618Y-93864531D01*
X54860240Y-93841892D01*
X54846626Y-93821517D01*
X54829299Y-93804190D01*
X54808925Y-93790576D01*
X54786286Y-93781199D01*
X54762252Y-93776418D01*
X54737748Y-93776418D01*
X54713715Y-93781198D01*
X54691076Y-93790576D01*
X54670701Y-93804190D01*
X54653374Y-93821517D01*
X54639760Y-93841891D01*
X54630384Y-93864526D01*
X54628407Y-93871043D01*
X54604355Y-93950333D01*
X54570513Y-94013646D01*
X54543905Y-94063426D01*
X54462553Y-94162553D01*
X54462551Y-94162555D01*
X54396468Y-94216788D01*
X54363425Y-94243905D01*
X54310782Y-94272043D01*
X54250332Y-94304355D01*
X54209599Y-94316711D01*
X54127617Y-94341580D01*
X54000000Y-94354149D01*
X53872382Y-94341580D01*
X53790400Y-94316711D01*
X53749667Y-94304355D01*
X53636576Y-94243906D01*
X53636574Y-94243905D01*
X53537447Y-94162553D01*
X53535568Y-94160263D01*
X53456096Y-94063426D01*
X53456095Y-94063424D01*
X53416479Y-93989309D01*
X53395645Y-93950332D01*
X53369618Y-93864531D01*
X53360240Y-93841892D01*
X53346626Y-93821517D01*
X53329299Y-93804190D01*
X53308925Y-93790576D01*
X53286286Y-93781199D01*
X53262252Y-93776418D01*
X53237748Y-93776418D01*
X53213715Y-93781198D01*
X53191076Y-93790576D01*
X53170701Y-93804190D01*
X53153374Y-93821517D01*
X53139760Y-93841891D01*
X53130384Y-93864526D01*
X53128407Y-93871043D01*
X53104355Y-93950333D01*
X53070513Y-94013646D01*
X53043905Y-94063426D01*
X52962553Y-94162553D01*
X52962551Y-94162555D01*
X52896468Y-94216788D01*
X52863425Y-94243905D01*
X52810782Y-94272043D01*
X52750332Y-94304355D01*
X52709599Y-94316711D01*
X52627617Y-94341580D01*
X52500000Y-94354149D01*
X52372382Y-94341580D01*
X52290400Y-94316711D01*
X52249667Y-94304355D01*
X52136576Y-94243906D01*
X52136574Y-94243905D01*
X52037447Y-94162553D01*
X52035568Y-94160263D01*
X51956096Y-94063426D01*
X51956095Y-94063424D01*
X51916479Y-93989309D01*
X51895645Y-93950332D01*
X51869618Y-93864531D01*
X51858420Y-93827617D01*
X51849000Y-93731972D01*
X51849000Y-93068027D01*
X51849951Y-93058376D01*
X51854772Y-93009424D01*
X51858420Y-92972382D01*
X51888750Y-92872397D01*
X51895645Y-92849667D01*
X51956095Y-92736576D01*
X51956096Y-92736574D01*
X52037448Y-92637447D01*
X52136575Y-92556095D01*
X52149510Y-92549181D01*
X52249668Y-92495645D01*
X52290574Y-92483237D01*
X52372383Y-92458420D01*
X52500000Y-92445851D01*
X52627618Y-92458420D01*
X52709427Y-92483237D01*
X52750333Y-92495645D01*
X52850491Y-92549181D01*
X52863426Y-92556095D01*
X52962553Y-92637447D01*
X53043905Y-92736574D01*
X53043906Y-92736576D01*
X53104355Y-92849667D01*
X53111250Y-92872397D01*
X53130384Y-92935474D01*
X53139760Y-92958108D01*
X53153373Y-92978483D01*
X53170700Y-92995810D01*
X53191075Y-93009424D01*
X53213714Y-93018801D01*
X53237747Y-93023582D01*
X53262252Y-93023582D01*
X53286285Y-93018802D01*
X53308924Y-93009424D01*
X53329299Y-92995811D01*
X53346626Y-92978484D01*
X53360240Y-92958109D01*
X53369616Y-92935474D01*
X53388750Y-92872397D01*
X53395645Y-92849667D01*
X53456095Y-92736576D01*
X53456096Y-92736574D01*
X53537448Y-92637447D01*
X53636575Y-92556095D01*
X53649510Y-92549181D01*
X53749668Y-92495645D01*
X53790574Y-92483237D01*
X53872383Y-92458420D01*
X54000000Y-92445851D01*
X54127618Y-92458420D01*
X54209427Y-92483237D01*
X54250333Y-92495645D01*
X54350491Y-92549181D01*
X54363426Y-92556095D01*
X54462553Y-92637447D01*
X54543905Y-92736574D01*
X54543906Y-92736576D01*
X54604355Y-92849667D01*
X54611250Y-92872397D01*
X54630384Y-92935474D01*
X54639760Y-92958108D01*
X54653373Y-92978483D01*
X54670700Y-92995810D01*
X54691075Y-93009424D01*
X54713714Y-93018801D01*
X54737747Y-93023582D01*
X54762252Y-93023582D01*
X54786285Y-93018802D01*
X54808924Y-93009424D01*
X54829299Y-92995811D01*
X54846626Y-92978484D01*
X54860240Y-92958109D01*
X54869616Y-92935474D01*
X54888750Y-92872397D01*
X54895645Y-92849667D01*
X54956095Y-92736576D01*
X54956096Y-92736574D01*
X55037448Y-92637447D01*
X55136575Y-92556095D01*
X55149510Y-92549181D01*
X55249668Y-92495645D01*
X55290574Y-92483237D01*
X55372383Y-92458420D01*
X55500000Y-92445851D01*
X55627618Y-92458420D01*
X55709427Y-92483237D01*
X55750333Y-92495645D01*
X55850491Y-92549181D01*
X55863426Y-92556095D01*
X55962553Y-92637447D01*
X56043905Y-92736574D01*
X56043906Y-92736576D01*
X56104355Y-92849667D01*
X56111250Y-92872397D01*
X56130384Y-92935474D01*
X56139760Y-92958108D01*
X56153373Y-92978483D01*
X56170700Y-92995810D01*
X56191075Y-93009424D01*
X56213714Y-93018801D01*
X56237747Y-93023582D01*
X56262252Y-93023582D01*
X56286285Y-93018802D01*
X56308924Y-93009424D01*
X56329299Y-92995811D01*
X56346626Y-92978484D01*
X56360240Y-92958109D01*
X56369616Y-92935474D01*
X56388750Y-92872397D01*
X56395645Y-92849667D01*
X56456095Y-92736576D01*
X56456096Y-92736574D01*
X56537448Y-92637447D01*
X56636575Y-92556095D01*
X56649510Y-92549181D01*
X56749668Y-92495645D01*
X56790574Y-92483237D01*
X56872383Y-92458420D01*
X57000000Y-92445851D01*
X57127618Y-92458420D01*
X57209427Y-92483237D01*
X57250333Y-92495645D01*
X57350491Y-92549181D01*
X57363426Y-92556095D01*
X57462553Y-92637447D01*
X57543905Y-92736574D01*
X57543906Y-92736576D01*
X57604355Y-92849667D01*
X57611250Y-92872397D01*
X57630384Y-92935474D01*
X57639760Y-92958108D01*
X57653373Y-92978483D01*
X57670700Y-92995810D01*
X57691075Y-93009424D01*
X57713714Y-93018801D01*
X57737747Y-93023582D01*
X57762252Y-93023582D01*
X57786285Y-93018802D01*
X57808924Y-93009424D01*
X57829299Y-92995811D01*
X57846626Y-92978484D01*
X57860240Y-92958109D01*
X57869616Y-92935474D01*
X57888750Y-92872397D01*
X57895645Y-92849667D01*
X57956095Y-92736576D01*
X57956096Y-92736574D01*
X58037448Y-92637447D01*
X58136575Y-92556095D01*
X58149510Y-92549181D01*
X58249668Y-92495645D01*
X58290574Y-92483237D01*
X58372383Y-92458420D01*
X58500000Y-92445851D01*
X58627618Y-92458420D01*
X58627618Y-92458420D01*
G37*
G36*
X69427618Y-92458420D02*
X69509427Y-92483237D01*
X69550333Y-92495645D01*
X69650491Y-92549181D01*
X69663426Y-92556095D01*
X69762553Y-92637447D01*
X69843905Y-92736574D01*
X69843906Y-92736576D01*
X69904355Y-92849667D01*
X69904382Y-92849757D01*
X69913760Y-92872396D01*
X69927374Y-92892771D01*
X69944701Y-92910098D01*
X69965075Y-92923712D01*
X69987714Y-92933089D01*
X70011748Y-92937870D01*
X70036252Y-92937870D01*
X70060285Y-92933090D01*
X70082924Y-92923712D01*
X70103299Y-92910098D01*
X70120626Y-92892771D01*
X70134240Y-92872397D01*
X70143617Y-92849758D01*
X70148398Y-92825724D01*
X70149000Y-92813472D01*
X70149000Y-92449000D01*
X71451000Y-92449000D01*
X71451000Y-94351000D01*
X70149000Y-94351000D01*
X70149000Y-93986528D01*
X70146598Y-93962142D01*
X70139485Y-93938693D01*
X70127934Y-93917082D01*
X70112388Y-93898140D01*
X70093446Y-93882594D01*
X70071835Y-93871043D01*
X70048386Y-93863930D01*
X70024000Y-93861528D01*
X69999614Y-93863930D01*
X69976165Y-93871043D01*
X69954554Y-93882594D01*
X69935612Y-93898140D01*
X69920066Y-93917082D01*
X69908515Y-93938693D01*
X69904382Y-93950243D01*
X69904355Y-93950333D01*
X69870513Y-94013646D01*
X69843905Y-94063426D01*
X69762553Y-94162553D01*
X69762551Y-94162555D01*
X69696468Y-94216788D01*
X69663425Y-94243905D01*
X69610782Y-94272043D01*
X69550332Y-94304355D01*
X69509599Y-94316711D01*
X69427617Y-94341580D01*
X69300000Y-94354149D01*
X69172382Y-94341580D01*
X69090400Y-94316711D01*
X69049667Y-94304355D01*
X68936576Y-94243906D01*
X68936574Y-94243905D01*
X68837447Y-94162553D01*
X68835568Y-94160263D01*
X68756096Y-94063426D01*
X68756095Y-94063424D01*
X68716479Y-93989309D01*
X68695645Y-93950332D01*
X68669618Y-93864531D01*
X68660240Y-93841892D01*
X68646626Y-93821517D01*
X68629299Y-93804190D01*
X68608925Y-93790576D01*
X68586286Y-93781199D01*
X68562252Y-93776418D01*
X68537748Y-93776418D01*
X68513715Y-93781198D01*
X68491076Y-93790576D01*
X68470701Y-93804190D01*
X68453374Y-93821517D01*
X68439760Y-93841891D01*
X68430384Y-93864526D01*
X68428407Y-93871043D01*
X68404355Y-93950333D01*
X68370513Y-94013646D01*
X68343905Y-94063426D01*
X68262553Y-94162553D01*
X68262551Y-94162555D01*
X68196468Y-94216788D01*
X68163425Y-94243905D01*
X68110782Y-94272043D01*
X68050332Y-94304355D01*
X68009599Y-94316711D01*
X67927617Y-94341580D01*
X67800000Y-94354149D01*
X67672382Y-94341580D01*
X67590400Y-94316711D01*
X67549667Y-94304355D01*
X67436576Y-94243906D01*
X67436574Y-94243905D01*
X67337447Y-94162553D01*
X67335568Y-94160263D01*
X67256096Y-94063426D01*
X67256095Y-94063424D01*
X67216479Y-93989309D01*
X67195645Y-93950332D01*
X67169618Y-93864531D01*
X67160240Y-93841892D01*
X67146626Y-93821517D01*
X67129299Y-93804190D01*
X67108925Y-93790576D01*
X67086286Y-93781199D01*
X67062252Y-93776418D01*
X67037748Y-93776418D01*
X67013715Y-93781198D01*
X66991076Y-93790576D01*
X66970701Y-93804190D01*
X66953374Y-93821517D01*
X66939760Y-93841891D01*
X66930384Y-93864526D01*
X66928407Y-93871043D01*
X66904355Y-93950333D01*
X66870513Y-94013646D01*
X66843905Y-94063426D01*
X66762553Y-94162553D01*
X66762551Y-94162555D01*
X66696468Y-94216788D01*
X66663425Y-94243905D01*
X66610782Y-94272043D01*
X66550332Y-94304355D01*
X66509599Y-94316711D01*
X66427617Y-94341580D01*
X66300000Y-94354149D01*
X66172382Y-94341580D01*
X66090400Y-94316711D01*
X66049667Y-94304355D01*
X65936576Y-94243906D01*
X65936574Y-94243905D01*
X65837447Y-94162553D01*
X65835568Y-94160263D01*
X65756096Y-94063426D01*
X65756095Y-94063424D01*
X65716479Y-93989309D01*
X65695645Y-93950332D01*
X65669618Y-93864531D01*
X65660240Y-93841892D01*
X65646626Y-93821517D01*
X65629299Y-93804190D01*
X65608925Y-93790576D01*
X65586286Y-93781199D01*
X65562252Y-93776418D01*
X65537748Y-93776418D01*
X65513715Y-93781198D01*
X65491076Y-93790576D01*
X65470701Y-93804190D01*
X65453374Y-93821517D01*
X65439760Y-93841891D01*
X65430384Y-93864526D01*
X65428407Y-93871043D01*
X65404355Y-93950333D01*
X65370513Y-94013646D01*
X65343905Y-94063426D01*
X65262553Y-94162553D01*
X65262551Y-94162555D01*
X65196468Y-94216788D01*
X65163425Y-94243905D01*
X65110782Y-94272043D01*
X65050332Y-94304355D01*
X65009599Y-94316711D01*
X64927617Y-94341580D01*
X64800000Y-94354149D01*
X64672382Y-94341580D01*
X64590400Y-94316711D01*
X64549667Y-94304355D01*
X64436576Y-94243906D01*
X64436574Y-94243905D01*
X64337447Y-94162553D01*
X64335568Y-94160263D01*
X64256096Y-94063426D01*
X64256095Y-94063424D01*
X64216479Y-93989309D01*
X64195645Y-93950332D01*
X64169618Y-93864531D01*
X64160240Y-93841892D01*
X64146626Y-93821517D01*
X64129299Y-93804190D01*
X64108925Y-93790576D01*
X64086286Y-93781199D01*
X64062252Y-93776418D01*
X64037748Y-93776418D01*
X64013715Y-93781198D01*
X63991076Y-93790576D01*
X63970701Y-93804190D01*
X63953374Y-93821517D01*
X63939760Y-93841891D01*
X63930384Y-93864526D01*
X63928407Y-93871043D01*
X63904355Y-93950333D01*
X63870513Y-94013646D01*
X63843905Y-94063426D01*
X63762553Y-94162553D01*
X63762551Y-94162555D01*
X63696468Y-94216788D01*
X63663425Y-94243905D01*
X63610782Y-94272043D01*
X63550332Y-94304355D01*
X63509599Y-94316711D01*
X63427617Y-94341580D01*
X63300000Y-94354149D01*
X63172382Y-94341580D01*
X63090400Y-94316711D01*
X63049667Y-94304355D01*
X62936576Y-94243906D01*
X62936574Y-94243905D01*
X62837447Y-94162553D01*
X62835568Y-94160263D01*
X62756096Y-94063426D01*
X62756095Y-94063424D01*
X62716479Y-93989309D01*
X62695645Y-93950332D01*
X62669618Y-93864531D01*
X62658420Y-93827617D01*
X62649000Y-93731972D01*
X62649000Y-93068027D01*
X62649951Y-93058376D01*
X62654772Y-93009424D01*
X62658420Y-92972382D01*
X62688750Y-92872397D01*
X62695645Y-92849667D01*
X62756095Y-92736576D01*
X62756096Y-92736574D01*
X62837448Y-92637447D01*
X62936575Y-92556095D01*
X62949510Y-92549181D01*
X63049668Y-92495645D01*
X63090574Y-92483237D01*
X63172383Y-92458420D01*
X63300000Y-92445851D01*
X63427618Y-92458420D01*
X63509427Y-92483237D01*
X63550333Y-92495645D01*
X63650491Y-92549181D01*
X63663426Y-92556095D01*
X63762553Y-92637447D01*
X63843905Y-92736574D01*
X63843906Y-92736576D01*
X63904355Y-92849667D01*
X63911250Y-92872397D01*
X63930384Y-92935474D01*
X63939760Y-92958108D01*
X63953373Y-92978483D01*
X63970700Y-92995810D01*
X63991075Y-93009424D01*
X64013714Y-93018801D01*
X64037747Y-93023582D01*
X64062252Y-93023582D01*
X64086285Y-93018802D01*
X64108924Y-93009424D01*
X64129299Y-92995811D01*
X64146626Y-92978484D01*
X64160240Y-92958109D01*
X64169616Y-92935474D01*
X64188750Y-92872397D01*
X64195645Y-92849667D01*
X64256095Y-92736576D01*
X64256096Y-92736574D01*
X64337448Y-92637447D01*
X64436575Y-92556095D01*
X64449510Y-92549181D01*
X64549668Y-92495645D01*
X64590574Y-92483237D01*
X64672383Y-92458420D01*
X64800000Y-92445851D01*
X64927618Y-92458420D01*
X65009427Y-92483237D01*
X65050333Y-92495645D01*
X65150491Y-92549181D01*
X65163426Y-92556095D01*
X65262553Y-92637447D01*
X65343905Y-92736574D01*
X65343906Y-92736576D01*
X65404355Y-92849667D01*
X65411250Y-92872397D01*
X65430384Y-92935474D01*
X65439760Y-92958108D01*
X65453373Y-92978483D01*
X65470700Y-92995810D01*
X65491075Y-93009424D01*
X65513714Y-93018801D01*
X65537747Y-93023582D01*
X65562252Y-93023582D01*
X65586285Y-93018802D01*
X65608924Y-93009424D01*
X65629299Y-92995811D01*
X65646626Y-92978484D01*
X65660240Y-92958109D01*
X65669616Y-92935474D01*
X65688750Y-92872397D01*
X65695645Y-92849667D01*
X65756095Y-92736576D01*
X65756096Y-92736574D01*
X65837448Y-92637447D01*
X65936575Y-92556095D01*
X65949510Y-92549181D01*
X66049668Y-92495645D01*
X66090574Y-92483237D01*
X66172383Y-92458420D01*
X66300000Y-92445851D01*
X66427618Y-92458420D01*
X66509427Y-92483237D01*
X66550333Y-92495645D01*
X66650491Y-92549181D01*
X66663426Y-92556095D01*
X66762553Y-92637447D01*
X66843905Y-92736574D01*
X66843906Y-92736576D01*
X66904355Y-92849667D01*
X66911250Y-92872397D01*
X66930384Y-92935474D01*
X66939760Y-92958108D01*
X66953373Y-92978483D01*
X66970700Y-92995810D01*
X66991075Y-93009424D01*
X67013714Y-93018801D01*
X67037747Y-93023582D01*
X67062252Y-93023582D01*
X67086285Y-93018802D01*
X67108924Y-93009424D01*
X67129299Y-92995811D01*
X67146626Y-92978484D01*
X67160240Y-92958109D01*
X67169616Y-92935474D01*
X67188750Y-92872397D01*
X67195645Y-92849667D01*
X67256095Y-92736576D01*
X67256096Y-92736574D01*
X67337448Y-92637447D01*
X67436575Y-92556095D01*
X67449510Y-92549181D01*
X67549668Y-92495645D01*
X67590574Y-92483237D01*
X67672383Y-92458420D01*
X67800000Y-92445851D01*
X67927618Y-92458420D01*
X68009427Y-92483237D01*
X68050333Y-92495645D01*
X68150491Y-92549181D01*
X68163426Y-92556095D01*
X68262553Y-92637447D01*
X68343905Y-92736574D01*
X68343906Y-92736576D01*
X68404355Y-92849667D01*
X68411250Y-92872397D01*
X68430384Y-92935474D01*
X68439760Y-92958108D01*
X68453373Y-92978483D01*
X68470700Y-92995810D01*
X68491075Y-93009424D01*
X68513714Y-93018801D01*
X68537747Y-93023582D01*
X68562252Y-93023582D01*
X68586285Y-93018802D01*
X68608924Y-93009424D01*
X68629299Y-92995811D01*
X68646626Y-92978484D01*
X68660240Y-92958109D01*
X68669616Y-92935474D01*
X68688750Y-92872397D01*
X68695645Y-92849667D01*
X68756095Y-92736576D01*
X68756096Y-92736574D01*
X68837448Y-92637447D01*
X68936575Y-92556095D01*
X68949510Y-92549181D01*
X69049668Y-92495645D01*
X69090574Y-92483237D01*
X69172383Y-92458420D01*
X69300000Y-92445851D01*
X69427618Y-92458420D01*
X69427618Y-92458420D01*
G37*
G36*
X73764499Y-93053445D02*
X73801993Y-93064819D01*
X73836557Y-93083294D01*
X73866847Y-93108153D01*
X73891706Y-93138443D01*
X73910181Y-93173007D01*
X73921555Y-93210501D01*
X73926000Y-93255638D01*
X73926000Y-93994362D01*
X73921555Y-94039499D01*
X73910181Y-94076993D01*
X73891706Y-94111557D01*
X73866847Y-94141847D01*
X73836557Y-94166706D01*
X73801993Y-94185181D01*
X73764499Y-94196555D01*
X73719362Y-94201000D01*
X73080638Y-94201000D01*
X73035501Y-94196555D01*
X72998007Y-94185181D01*
X72963443Y-94166706D01*
X72933153Y-94141847D01*
X72908294Y-94111557D01*
X72889819Y-94076993D01*
X72878445Y-94039499D01*
X72874000Y-93994362D01*
X72874000Y-93255638D01*
X72878445Y-93210501D01*
X72889819Y-93173007D01*
X72908294Y-93138443D01*
X72933153Y-93108153D01*
X72963443Y-93083294D01*
X72998007Y-93064819D01*
X73035501Y-93053445D01*
X73080638Y-93049000D01*
X73719362Y-93049000D01*
X73764499Y-93053445D01*
X73764499Y-93053445D01*
G37*
G36*
X80364499Y-93028445D02*
X80401993Y-93039819D01*
X80436557Y-93058294D01*
X80466847Y-93083153D01*
X80491706Y-93113443D01*
X80510181Y-93148007D01*
X80521555Y-93185501D01*
X80526000Y-93230638D01*
X80526000Y-93969362D01*
X80521555Y-94014499D01*
X80510181Y-94051993D01*
X80491706Y-94086557D01*
X80466847Y-94116847D01*
X80436557Y-94141706D01*
X80401993Y-94160181D01*
X80364499Y-94171555D01*
X80319362Y-94176000D01*
X79680638Y-94176000D01*
X79635501Y-94171555D01*
X79598007Y-94160181D01*
X79563443Y-94141706D01*
X79533153Y-94116847D01*
X79508294Y-94086557D01*
X79489819Y-94051993D01*
X79478445Y-94014499D01*
X79474000Y-93969362D01*
X79474000Y-93230638D01*
X79478445Y-93185501D01*
X79489819Y-93148007D01*
X79508294Y-93113443D01*
X79533153Y-93083153D01*
X79563443Y-93058294D01*
X79598007Y-93039819D01*
X79635501Y-93028445D01*
X79680638Y-93024000D01*
X80319362Y-93024000D01*
X80364499Y-93028445D01*
X80364499Y-93028445D01*
G37*
G36*
X81764499Y-93028445D02*
X81801993Y-93039819D01*
X81836557Y-93058294D01*
X81866847Y-93083153D01*
X81891706Y-93113443D01*
X81910181Y-93148007D01*
X81921555Y-93185501D01*
X81926000Y-93230638D01*
X81926000Y-93969362D01*
X81921555Y-94014499D01*
X81910181Y-94051993D01*
X81891706Y-94086557D01*
X81866847Y-94116847D01*
X81836557Y-94141706D01*
X81801993Y-94160181D01*
X81764499Y-94171555D01*
X81719362Y-94176000D01*
X81080638Y-94176000D01*
X81035501Y-94171555D01*
X80998007Y-94160181D01*
X80963443Y-94141706D01*
X80933153Y-94116847D01*
X80908294Y-94086557D01*
X80889819Y-94051993D01*
X80878445Y-94014499D01*
X80874000Y-93969362D01*
X80874000Y-93230638D01*
X80878445Y-93185501D01*
X80889819Y-93148007D01*
X80908294Y-93113443D01*
X80933153Y-93083153D01*
X80963443Y-93058294D01*
X80998007Y-93039819D01*
X81035501Y-93028445D01*
X81080638Y-93024000D01*
X81719362Y-93024000D01*
X81764499Y-93028445D01*
X81764499Y-93028445D01*
G37*
G36*
X81726000Y-92401000D02*
X73074000Y-92401000D01*
X73074000Y-90799000D01*
X81726000Y-90799000D01*
X81726000Y-92401000D01*
X81726000Y-92401000D01*
G37*
G36*
X87950316Y-88845153D02*
X87950318Y-88845154D01*
X87950319Y-88845154D01*
X88031056Y-88878597D01*
X88168888Y-88935688D01*
X88267576Y-89001629D01*
X88365593Y-89067122D01*
X88532878Y-89234407D01*
X88598371Y-89332424D01*
X88664312Y-89431112D01*
X88754847Y-89649684D01*
X88801000Y-89881710D01*
X88801000Y-90118290D01*
X88754847Y-90350316D01*
X88664312Y-90568888D01*
X88598371Y-90667576D01*
X88532878Y-90765593D01*
X88365593Y-90932878D01*
X88267576Y-90998371D01*
X88168888Y-91064312D01*
X88031056Y-91121403D01*
X87950319Y-91154846D01*
X87950318Y-91154846D01*
X87950316Y-91154847D01*
X87718290Y-91201000D01*
X87481710Y-91201000D01*
X87249684Y-91154847D01*
X87249682Y-91154846D01*
X87249681Y-91154846D01*
X87168944Y-91121403D01*
X87031112Y-91064312D01*
X86932424Y-90998371D01*
X86834407Y-90932878D01*
X86667122Y-90765593D01*
X86601629Y-90667576D01*
X86535688Y-90568888D01*
X86445153Y-90350316D01*
X86399000Y-90118290D01*
X86399000Y-89881710D01*
X86445153Y-89649684D01*
X86535688Y-89431112D01*
X86601629Y-89332424D01*
X86667122Y-89234407D01*
X86834407Y-89067122D01*
X86932424Y-89001629D01*
X87031112Y-88935688D01*
X87168944Y-88878597D01*
X87249681Y-88845154D01*
X87249682Y-88845154D01*
X87249684Y-88845153D01*
X87481710Y-88799000D01*
X87718290Y-88799000D01*
X87950316Y-88845153D01*
X87950316Y-88845153D01*
G37*
G36*
X83901000Y-90226000D02*
X82299000Y-90226000D01*
X82299000Y-81574000D01*
X83901000Y-81574000D01*
X83901000Y-90226000D01*
X83901000Y-90226000D01*
G37*
G36*
X91564499Y-89078445D02*
X91601993Y-89089819D01*
X91636557Y-89108294D01*
X91666847Y-89133153D01*
X91691706Y-89163443D01*
X91710181Y-89198007D01*
X91721555Y-89235501D01*
X91726000Y-89280638D01*
X91726000Y-90019362D01*
X91721555Y-90064499D01*
X91710181Y-90101993D01*
X91691706Y-90136557D01*
X91666847Y-90166847D01*
X91636557Y-90191706D01*
X91601993Y-90210181D01*
X91564499Y-90221555D01*
X91519362Y-90226000D01*
X90880638Y-90226000D01*
X90835501Y-90221555D01*
X90798007Y-90210181D01*
X90763443Y-90191706D01*
X90733153Y-90166847D01*
X90708294Y-90136557D01*
X90689819Y-90101993D01*
X90678445Y-90064499D01*
X90674000Y-90019362D01*
X90674000Y-89280638D01*
X90678445Y-89235501D01*
X90689819Y-89198007D01*
X90708294Y-89163443D01*
X90733153Y-89133153D01*
X90763443Y-89108294D01*
X90798007Y-89089819D01*
X90835501Y-89078445D01*
X90880638Y-89074000D01*
X91519362Y-89074000D01*
X91564499Y-89078445D01*
X91564499Y-89078445D01*
G37*
G36*
X72501000Y-90226000D02*
X70899000Y-90226000D01*
X70899000Y-81574000D01*
X72501000Y-81574000D01*
X72501000Y-90226000D01*
X72501000Y-90226000D01*
G37*
G36*
X91564499Y-87328445D02*
X91601993Y-87339819D01*
X91636557Y-87358294D01*
X91666847Y-87383153D01*
X91691706Y-87413443D01*
X91710181Y-87448007D01*
X91721555Y-87485501D01*
X91726000Y-87530638D01*
X91726000Y-88269362D01*
X91721555Y-88314499D01*
X91710181Y-88351993D01*
X91691706Y-88386557D01*
X91666847Y-88416847D01*
X91636557Y-88441706D01*
X91601993Y-88460181D01*
X91564499Y-88471555D01*
X91519362Y-88476000D01*
X90880638Y-88476000D01*
X90835501Y-88471555D01*
X90798007Y-88460181D01*
X90763443Y-88441706D01*
X90733153Y-88416847D01*
X90708294Y-88386557D01*
X90689819Y-88351993D01*
X90678445Y-88314499D01*
X90674000Y-88269362D01*
X90674000Y-87530638D01*
X90678445Y-87485501D01*
X90689819Y-87448007D01*
X90708294Y-87413443D01*
X90733153Y-87383153D01*
X90763443Y-87358294D01*
X90798007Y-87339819D01*
X90835501Y-87328445D01*
X90880638Y-87324000D01*
X91519362Y-87324000D01*
X91564499Y-87328445D01*
X91564499Y-87328445D01*
G37*
G36*
X98658015Y-85506973D02*
X98761879Y-85538479D01*
X98857600Y-85589644D01*
X98941501Y-85658499D01*
X99010356Y-85742400D01*
X99061521Y-85838121D01*
X99093027Y-85941985D01*
X99101000Y-86022933D01*
X99101000Y-87577067D01*
X99093027Y-87658015D01*
X99061521Y-87761879D01*
X99010356Y-87857600D01*
X98941501Y-87941501D01*
X98857600Y-88010356D01*
X98761878Y-88061521D01*
X98658014Y-88093027D01*
X98550000Y-88103666D01*
X98441985Y-88093027D01*
X98338121Y-88061521D01*
X98242400Y-88010356D01*
X98158499Y-87941501D01*
X98089644Y-87857600D01*
X98038479Y-87761878D01*
X98006973Y-87658014D01*
X97999000Y-87577066D01*
X97999001Y-86022933D01*
X98006974Y-85941985D01*
X98038480Y-85838121D01*
X98089645Y-85742400D01*
X98158500Y-85658499D01*
X98242401Y-85589644D01*
X98338122Y-85538479D01*
X98441986Y-85506973D01*
X98550000Y-85496334D01*
X98658015Y-85506973D01*
X98658015Y-85506973D01*
G37*
G36*
X91564499Y-85903445D02*
X91601993Y-85914819D01*
X91636557Y-85933294D01*
X91666847Y-85958153D01*
X91691706Y-85988443D01*
X91710181Y-86023007D01*
X91721555Y-86060501D01*
X91726000Y-86105638D01*
X91726000Y-86844362D01*
X91721555Y-86889499D01*
X91710181Y-86926993D01*
X91691706Y-86961557D01*
X91666847Y-86991847D01*
X91636557Y-87016706D01*
X91601993Y-87035181D01*
X91564499Y-87046555D01*
X91519362Y-87051000D01*
X90880638Y-87051000D01*
X90835501Y-87046555D01*
X90798007Y-87035181D01*
X90763443Y-87016706D01*
X90733153Y-86991847D01*
X90708294Y-86961557D01*
X90689819Y-86926993D01*
X90678445Y-86889499D01*
X90674000Y-86844362D01*
X90674000Y-86105638D01*
X90678445Y-86060501D01*
X90689819Y-86023007D01*
X90708294Y-85988443D01*
X90733153Y-85958153D01*
X90763443Y-85933294D01*
X90798007Y-85914819D01*
X90835501Y-85903445D01*
X90880638Y-85899000D01*
X91519362Y-85899000D01*
X91564499Y-85903445D01*
X91564499Y-85903445D01*
G37*
G36*
X94358015Y-84006973D02*
X94461879Y-84038479D01*
X94557600Y-84089644D01*
X94641501Y-84158499D01*
X94710356Y-84242400D01*
X94761521Y-84338121D01*
X94793027Y-84441985D01*
X94801000Y-84522933D01*
X94801000Y-86077067D01*
X94793027Y-86158015D01*
X94761521Y-86261879D01*
X94710356Y-86357600D01*
X94641501Y-86441501D01*
X94557600Y-86510356D01*
X94461878Y-86561521D01*
X94358014Y-86593027D01*
X94250000Y-86603666D01*
X94141985Y-86593027D01*
X94038121Y-86561521D01*
X93942400Y-86510356D01*
X93858499Y-86441501D01*
X93789644Y-86357600D01*
X93738479Y-86261878D01*
X93706973Y-86158014D01*
X93699000Y-86077066D01*
X93699001Y-84522933D01*
X93706974Y-84441985D01*
X93738480Y-84338121D01*
X93789645Y-84242400D01*
X93858500Y-84158499D01*
X93942401Y-84089644D01*
X94038122Y-84038479D01*
X94141986Y-84006973D01*
X94250000Y-83996334D01*
X94358015Y-84006973D01*
X94358015Y-84006973D01*
G37*
G36*
X87950316Y-83945153D02*
X87950318Y-83945154D01*
X87950319Y-83945154D01*
X87952233Y-83945947D01*
X88168888Y-84035688D01*
X88249640Y-84089645D01*
X88365593Y-84167122D01*
X88532878Y-84334407D01*
X88547064Y-84355638D01*
X88664312Y-84531112D01*
X88754847Y-84749684D01*
X88801000Y-84981710D01*
X88801000Y-85218290D01*
X88759684Y-85426000D01*
X88754846Y-85450319D01*
X88731379Y-85506973D01*
X88664312Y-85668888D01*
X88598371Y-85767576D01*
X88532878Y-85865593D01*
X88365593Y-86032878D01*
X88299459Y-86077067D01*
X88168888Y-86164312D01*
X88031056Y-86221403D01*
X87950319Y-86254846D01*
X87950318Y-86254846D01*
X87950316Y-86254847D01*
X87718290Y-86301000D01*
X87481710Y-86301000D01*
X87249684Y-86254847D01*
X87249682Y-86254846D01*
X87249681Y-86254846D01*
X87168944Y-86221403D01*
X87031112Y-86164312D01*
X86900541Y-86077067D01*
X86834407Y-86032878D01*
X86667122Y-85865593D01*
X86601629Y-85767576D01*
X86535688Y-85668888D01*
X86468621Y-85506973D01*
X86445154Y-85450319D01*
X86440317Y-85426000D01*
X86399000Y-85218290D01*
X86399000Y-84981710D01*
X86445153Y-84749684D01*
X86535688Y-84531112D01*
X86652936Y-84355638D01*
X86667122Y-84334407D01*
X86834407Y-84167122D01*
X86950360Y-84089645D01*
X87031112Y-84035688D01*
X87247767Y-83945947D01*
X87249681Y-83945154D01*
X87249682Y-83945154D01*
X87249684Y-83945153D01*
X87481710Y-83899000D01*
X87718290Y-83899000D01*
X87950316Y-83945153D01*
X87950316Y-83945153D01*
G37*
G36*
X91564499Y-84153445D02*
X91601993Y-84164819D01*
X91636557Y-84183294D01*
X91666847Y-84208153D01*
X91691706Y-84238443D01*
X91710181Y-84273007D01*
X91721555Y-84310501D01*
X91726000Y-84355638D01*
X91726000Y-85094362D01*
X91721555Y-85139499D01*
X91710181Y-85176993D01*
X91691706Y-85211557D01*
X91666847Y-85241847D01*
X91636557Y-85266706D01*
X91601993Y-85285181D01*
X91564499Y-85296555D01*
X91519362Y-85301000D01*
X90880638Y-85301000D01*
X90835501Y-85296555D01*
X90798007Y-85285181D01*
X90763443Y-85266706D01*
X90733153Y-85241847D01*
X90708294Y-85211557D01*
X90689819Y-85176993D01*
X90678445Y-85139499D01*
X90674000Y-85094362D01*
X90674000Y-84355638D01*
X90678445Y-84310501D01*
X90689819Y-84273007D01*
X90708294Y-84238443D01*
X90733153Y-84208153D01*
X90763443Y-84183294D01*
X90798007Y-84164819D01*
X90835501Y-84153445D01*
X90880638Y-84149000D01*
X91519362Y-84149000D01*
X91564499Y-84153445D01*
X91564499Y-84153445D01*
G37*
G36*
X96639890Y-82874017D02*
X96758361Y-82923089D01*
X96758364Y-82923091D01*
X96864517Y-82994020D01*
X96864992Y-82994338D01*
X96955662Y-83085008D01*
X96955664Y-83085011D01*
X96955665Y-83085012D01*
X96971669Y-83108964D01*
X97026911Y-83191639D01*
X97075983Y-83310110D01*
X97101000Y-83435881D01*
X97101000Y-83564119D01*
X97075983Y-83689890D01*
X97026911Y-83808361D01*
X97026909Y-83808364D01*
X96991367Y-83861557D01*
X96955662Y-83914992D01*
X96864992Y-84005662D01*
X96864989Y-84005664D01*
X96864988Y-84005665D01*
X96820055Y-84035688D01*
X96758361Y-84076911D01*
X96639890Y-84125983D01*
X96514119Y-84151000D01*
X96385881Y-84151000D01*
X96260110Y-84125983D01*
X96141639Y-84076911D01*
X96079945Y-84035688D01*
X96035012Y-84005665D01*
X96035011Y-84005664D01*
X96035008Y-84005662D01*
X95944338Y-83914992D01*
X95908634Y-83861557D01*
X95873091Y-83808364D01*
X95873089Y-83808361D01*
X95824017Y-83689890D01*
X95799000Y-83564119D01*
X95799000Y-83435881D01*
X95824017Y-83310110D01*
X95873089Y-83191639D01*
X95928331Y-83108964D01*
X95944335Y-83085012D01*
X95944336Y-83085011D01*
X95944338Y-83085008D01*
X96035008Y-82994338D01*
X96035484Y-82994020D01*
X96141636Y-82923091D01*
X96141639Y-82923089D01*
X96260110Y-82874017D01*
X96385881Y-82849000D01*
X96514119Y-82849000D01*
X96639890Y-82874017D01*
X96639890Y-82874017D01*
G37*
G36*
X68314499Y-82978445D02*
X68351993Y-82989819D01*
X68386557Y-83008294D01*
X68416847Y-83033153D01*
X68441706Y-83063443D01*
X68460181Y-83098007D01*
X68471555Y-83135501D01*
X68476000Y-83180638D01*
X68476000Y-83819362D01*
X68471555Y-83864499D01*
X68460181Y-83901993D01*
X68441706Y-83936557D01*
X68416847Y-83966847D01*
X68386557Y-83991706D01*
X68351993Y-84010181D01*
X68314499Y-84021555D01*
X68269362Y-84026000D01*
X67530638Y-84026000D01*
X67485501Y-84021555D01*
X67448007Y-84010181D01*
X67413443Y-83991706D01*
X67383153Y-83966847D01*
X67358294Y-83936557D01*
X67339819Y-83901993D01*
X67328445Y-83864499D01*
X67324000Y-83819362D01*
X67324000Y-83180638D01*
X67328445Y-83135501D01*
X67339819Y-83098007D01*
X67358294Y-83063443D01*
X67383153Y-83033153D01*
X67413443Y-83008294D01*
X67448007Y-82989819D01*
X67485501Y-82978445D01*
X67530638Y-82974000D01*
X68269362Y-82974000D01*
X68314499Y-82978445D01*
X68314499Y-82978445D01*
G37*
G36*
X70064499Y-82978445D02*
X70101993Y-82989819D01*
X70136557Y-83008294D01*
X70166847Y-83033153D01*
X70191706Y-83063443D01*
X70210181Y-83098007D01*
X70221555Y-83135501D01*
X70226000Y-83180638D01*
X70226000Y-83819362D01*
X70221555Y-83864499D01*
X70210181Y-83901993D01*
X70191706Y-83936557D01*
X70166847Y-83966847D01*
X70136557Y-83991706D01*
X70101993Y-84010181D01*
X70064499Y-84021555D01*
X70019362Y-84026000D01*
X69280638Y-84026000D01*
X69235501Y-84021555D01*
X69198007Y-84010181D01*
X69163443Y-83991706D01*
X69133153Y-83966847D01*
X69108294Y-83936557D01*
X69089819Y-83901993D01*
X69078445Y-83864499D01*
X69074000Y-83819362D01*
X69074000Y-83180638D01*
X69078445Y-83135501D01*
X69089819Y-83098007D01*
X69108294Y-83063443D01*
X69133153Y-83033153D01*
X69163443Y-83008294D01*
X69198007Y-82989819D01*
X69235501Y-82978445D01*
X69280638Y-82974000D01*
X70019362Y-82974000D01*
X70064499Y-82978445D01*
X70064499Y-82978445D01*
G37*
G36*
X57864499Y-82803445D02*
X57901993Y-82814819D01*
X57936557Y-82833294D01*
X57966847Y-82858153D01*
X57991706Y-82888443D01*
X58010181Y-82923007D01*
X58021555Y-82960501D01*
X58025602Y-83001597D01*
X58030382Y-83025631D01*
X58039759Y-83048270D01*
X58053373Y-83068645D01*
X58070700Y-83085972D01*
X58091075Y-83099586D01*
X58113714Y-83108963D01*
X58137747Y-83113744D01*
X58162251Y-83113744D01*
X58186285Y-83108964D01*
X58208924Y-83099587D01*
X58229299Y-83085973D01*
X58246626Y-83068646D01*
X58260240Y-83048271D01*
X58269617Y-83025632D01*
X58274398Y-83001597D01*
X58278445Y-82960501D01*
X58289819Y-82923007D01*
X58308294Y-82888443D01*
X58333153Y-82858153D01*
X58363443Y-82833294D01*
X58398007Y-82814819D01*
X58435501Y-82803445D01*
X58480638Y-82799000D01*
X59119362Y-82799000D01*
X59164499Y-82803445D01*
X59201993Y-82814819D01*
X59236557Y-82833294D01*
X59266847Y-82858153D01*
X59291706Y-82888443D01*
X59310181Y-82923007D01*
X59321555Y-82960501D01*
X59326000Y-83005638D01*
X59326000Y-83744362D01*
X59321555Y-83789499D01*
X59310181Y-83826993D01*
X59291706Y-83861557D01*
X59266847Y-83891847D01*
X59236557Y-83916706D01*
X59201993Y-83935181D01*
X59164499Y-83946555D01*
X59119362Y-83951000D01*
X58480638Y-83951000D01*
X58435501Y-83946555D01*
X58398007Y-83935181D01*
X58363443Y-83916706D01*
X58333153Y-83891847D01*
X58308294Y-83861557D01*
X58289819Y-83826993D01*
X58278445Y-83789499D01*
X58274398Y-83748403D01*
X58269618Y-83724369D01*
X58260241Y-83701730D01*
X58246627Y-83681355D01*
X58229300Y-83664028D01*
X58208925Y-83650414D01*
X58186286Y-83641037D01*
X58162253Y-83636256D01*
X58137749Y-83636256D01*
X58113715Y-83641036D01*
X58091076Y-83650413D01*
X58070701Y-83664027D01*
X58053374Y-83681354D01*
X58039760Y-83701729D01*
X58030383Y-83724368D01*
X58025602Y-83748403D01*
X58021555Y-83789499D01*
X58010181Y-83826993D01*
X57991706Y-83861557D01*
X57966847Y-83891847D01*
X57936557Y-83916706D01*
X57901993Y-83935181D01*
X57864499Y-83946555D01*
X57819362Y-83951000D01*
X57180638Y-83951000D01*
X57135501Y-83946555D01*
X57098007Y-83935181D01*
X57063443Y-83916706D01*
X57033153Y-83891847D01*
X57008294Y-83861557D01*
X56989819Y-83826993D01*
X56978445Y-83789499D01*
X56974000Y-83744362D01*
X56974000Y-83005638D01*
X56978445Y-82960501D01*
X56989819Y-82923007D01*
X57008294Y-82888443D01*
X57033153Y-82858153D01*
X57063443Y-82833294D01*
X57098007Y-82814819D01*
X57135501Y-82803445D01*
X57180638Y-82799000D01*
X57819362Y-82799000D01*
X57864499Y-82803445D01*
X57864499Y-82803445D01*
G37*
G36*
X54114499Y-82803445D02*
X54151993Y-82814819D01*
X54186557Y-82833294D01*
X54216847Y-82858153D01*
X54244325Y-82891634D01*
X54253373Y-82905177D01*
X54270701Y-82922504D01*
X54291075Y-82936118D01*
X54313714Y-82945495D01*
X54337747Y-82950276D01*
X54362252Y-82950276D01*
X54386285Y-82945496D01*
X54408924Y-82936118D01*
X54429299Y-82922505D01*
X54446626Y-82905177D01*
X54455673Y-82891637D01*
X54483153Y-82858153D01*
X54513443Y-82833294D01*
X54548007Y-82814819D01*
X54585501Y-82803445D01*
X54630638Y-82799000D01*
X55269362Y-82799000D01*
X55314499Y-82803445D01*
X55351993Y-82814819D01*
X55386557Y-82833294D01*
X55416847Y-82858153D01*
X55444325Y-82891634D01*
X55453373Y-82905177D01*
X55470701Y-82922504D01*
X55491075Y-82936118D01*
X55513714Y-82945495D01*
X55537747Y-82950276D01*
X55562252Y-82950276D01*
X55586285Y-82945496D01*
X55608924Y-82936118D01*
X55629299Y-82922505D01*
X55646626Y-82905177D01*
X55655673Y-82891637D01*
X55683153Y-82858153D01*
X55713443Y-82833294D01*
X55748007Y-82814819D01*
X55785501Y-82803445D01*
X55830638Y-82799000D01*
X56469362Y-82799000D01*
X56514499Y-82803445D01*
X56551993Y-82814819D01*
X56586557Y-82833294D01*
X56616847Y-82858153D01*
X56641706Y-82888443D01*
X56660181Y-82923007D01*
X56671555Y-82960501D01*
X56676000Y-83005638D01*
X56676000Y-83744362D01*
X56671555Y-83789499D01*
X56660181Y-83826993D01*
X56641706Y-83861557D01*
X56616847Y-83891847D01*
X56586557Y-83916706D01*
X56551993Y-83935181D01*
X56514499Y-83946555D01*
X56469362Y-83951000D01*
X55830638Y-83951000D01*
X55785501Y-83946555D01*
X55748007Y-83935181D01*
X55713443Y-83916706D01*
X55683153Y-83891847D01*
X55655675Y-83858366D01*
X55646627Y-83844823D01*
X55629299Y-83827496D01*
X55608925Y-83813882D01*
X55586286Y-83804505D01*
X55562253Y-83799724D01*
X55537748Y-83799724D01*
X55513715Y-83804504D01*
X55491076Y-83813882D01*
X55470701Y-83827495D01*
X55453374Y-83844823D01*
X55444327Y-83858363D01*
X55416847Y-83891847D01*
X55386557Y-83916706D01*
X55351993Y-83935181D01*
X55314499Y-83946555D01*
X55269362Y-83951000D01*
X54630638Y-83951000D01*
X54585501Y-83946555D01*
X54548007Y-83935181D01*
X54513443Y-83916706D01*
X54483153Y-83891847D01*
X54455675Y-83858366D01*
X54446627Y-83844823D01*
X54429299Y-83827496D01*
X54408925Y-83813882D01*
X54386286Y-83804505D01*
X54362253Y-83799724D01*
X54337748Y-83799724D01*
X54313715Y-83804504D01*
X54291076Y-83813882D01*
X54270701Y-83827495D01*
X54253374Y-83844823D01*
X54244327Y-83858363D01*
X54216847Y-83891847D01*
X54186557Y-83916706D01*
X54151993Y-83935181D01*
X54114499Y-83946555D01*
X54069362Y-83951000D01*
X53430638Y-83951000D01*
X53385501Y-83946555D01*
X53348007Y-83935181D01*
X53313443Y-83916706D01*
X53283153Y-83891847D01*
X53258294Y-83861557D01*
X53239819Y-83826993D01*
X53228445Y-83789499D01*
X53224000Y-83744362D01*
X53224000Y-83005638D01*
X53228445Y-82960501D01*
X53239819Y-82923007D01*
X53258294Y-82888443D01*
X53283153Y-82858153D01*
X53313443Y-82833294D01*
X53348007Y-82814819D01*
X53385501Y-82803445D01*
X53430638Y-82799000D01*
X54069362Y-82799000D01*
X54114499Y-82803445D01*
X54114499Y-82803445D01*
G37*
G36*
X94358015Y-80006973D02*
X94461879Y-80038479D01*
X94557600Y-80089644D01*
X94641501Y-80158499D01*
X94710356Y-80242400D01*
X94761521Y-80338121D01*
X94793027Y-80441985D01*
X94801000Y-80522933D01*
X94801000Y-82077067D01*
X94793027Y-82158015D01*
X94761521Y-82261879D01*
X94710356Y-82357600D01*
X94641501Y-82441501D01*
X94557600Y-82510356D01*
X94461878Y-82561521D01*
X94358014Y-82593027D01*
X94250000Y-82603666D01*
X94141985Y-82593027D01*
X94038121Y-82561521D01*
X93942400Y-82510356D01*
X93858499Y-82441501D01*
X93789644Y-82357600D01*
X93738479Y-82261878D01*
X93706973Y-82158014D01*
X93699000Y-82077066D01*
X93699001Y-80522933D01*
X93706974Y-80441985D01*
X93738480Y-80338121D01*
X93789645Y-80242400D01*
X93858500Y-80158499D01*
X93942401Y-80089644D01*
X94038122Y-80038479D01*
X94141986Y-80006973D01*
X94250000Y-79996334D01*
X94358015Y-80006973D01*
X94358015Y-80006973D01*
G37*
G36*
X57864499Y-81053445D02*
X57901993Y-81064819D01*
X57936557Y-81083294D01*
X57966847Y-81108153D01*
X57991706Y-81138443D01*
X58010181Y-81173007D01*
X58021555Y-81210501D01*
X58025602Y-81251597D01*
X58030382Y-81275631D01*
X58039759Y-81298270D01*
X58053373Y-81318645D01*
X58070700Y-81335972D01*
X58091075Y-81349586D01*
X58113714Y-81358963D01*
X58137747Y-81363744D01*
X58162251Y-81363744D01*
X58186285Y-81358964D01*
X58208924Y-81349587D01*
X58229299Y-81335973D01*
X58246626Y-81318646D01*
X58260240Y-81298271D01*
X58269617Y-81275632D01*
X58274398Y-81251597D01*
X58278445Y-81210501D01*
X58289819Y-81173007D01*
X58308294Y-81138443D01*
X58333153Y-81108153D01*
X58363443Y-81083294D01*
X58398007Y-81064819D01*
X58435501Y-81053445D01*
X58480638Y-81049000D01*
X59119362Y-81049000D01*
X59164499Y-81053445D01*
X59201993Y-81064819D01*
X59236557Y-81083294D01*
X59266847Y-81108153D01*
X59291706Y-81138443D01*
X59310181Y-81173007D01*
X59321555Y-81210501D01*
X59326000Y-81255638D01*
X59326000Y-81994362D01*
X59321555Y-82039499D01*
X59310181Y-82076993D01*
X59291706Y-82111557D01*
X59266847Y-82141847D01*
X59236557Y-82166706D01*
X59201993Y-82185181D01*
X59164499Y-82196555D01*
X59119362Y-82201000D01*
X58480638Y-82201000D01*
X58435501Y-82196555D01*
X58398007Y-82185181D01*
X58363443Y-82166706D01*
X58333153Y-82141847D01*
X58308294Y-82111557D01*
X58289819Y-82076993D01*
X58278445Y-82039499D01*
X58274398Y-81998403D01*
X58269618Y-81974369D01*
X58260241Y-81951730D01*
X58246627Y-81931355D01*
X58229300Y-81914028D01*
X58208925Y-81900414D01*
X58186286Y-81891037D01*
X58162253Y-81886256D01*
X58137749Y-81886256D01*
X58113715Y-81891036D01*
X58091076Y-81900413D01*
X58070701Y-81914027D01*
X58053374Y-81931354D01*
X58039760Y-81951729D01*
X58030383Y-81974368D01*
X58025602Y-81998403D01*
X58021555Y-82039499D01*
X58010181Y-82076993D01*
X57991706Y-82111557D01*
X57966847Y-82141847D01*
X57936557Y-82166706D01*
X57901993Y-82185181D01*
X57864499Y-82196555D01*
X57819362Y-82201000D01*
X57180638Y-82201000D01*
X57135501Y-82196555D01*
X57098007Y-82185181D01*
X57063443Y-82166706D01*
X57033153Y-82141847D01*
X57008294Y-82111557D01*
X56989819Y-82076993D01*
X56978445Y-82039499D01*
X56974000Y-81994362D01*
X56974000Y-81255638D01*
X56978445Y-81210501D01*
X56989819Y-81173007D01*
X57008294Y-81138443D01*
X57033153Y-81108153D01*
X57063443Y-81083294D01*
X57098007Y-81064819D01*
X57135501Y-81053445D01*
X57180638Y-81049000D01*
X57819362Y-81049000D01*
X57864499Y-81053445D01*
X57864499Y-81053445D01*
G37*
G36*
X54114499Y-81053445D02*
X54151993Y-81064819D01*
X54186557Y-81083294D01*
X54216847Y-81108153D01*
X54244325Y-81141634D01*
X54253373Y-81155177D01*
X54270701Y-81172504D01*
X54291075Y-81186118D01*
X54313714Y-81195495D01*
X54337747Y-81200276D01*
X54362252Y-81200276D01*
X54386285Y-81195496D01*
X54408924Y-81186118D01*
X54429299Y-81172505D01*
X54446626Y-81155177D01*
X54455673Y-81141637D01*
X54483153Y-81108153D01*
X54513443Y-81083294D01*
X54548007Y-81064819D01*
X54585501Y-81053445D01*
X54630638Y-81049000D01*
X55269362Y-81049000D01*
X55314499Y-81053445D01*
X55351993Y-81064819D01*
X55386557Y-81083294D01*
X55416847Y-81108153D01*
X55444325Y-81141634D01*
X55453373Y-81155177D01*
X55470701Y-81172504D01*
X55491075Y-81186118D01*
X55513714Y-81195495D01*
X55537747Y-81200276D01*
X55562252Y-81200276D01*
X55586285Y-81195496D01*
X55608924Y-81186118D01*
X55629299Y-81172505D01*
X55646626Y-81155177D01*
X55655673Y-81141637D01*
X55683153Y-81108153D01*
X55713443Y-81083294D01*
X55748007Y-81064819D01*
X55785501Y-81053445D01*
X55830638Y-81049000D01*
X56469362Y-81049000D01*
X56514499Y-81053445D01*
X56551993Y-81064819D01*
X56586557Y-81083294D01*
X56616847Y-81108153D01*
X56641706Y-81138443D01*
X56660181Y-81173007D01*
X56671555Y-81210501D01*
X56676000Y-81255638D01*
X56676000Y-81994362D01*
X56671555Y-82039499D01*
X56660181Y-82076993D01*
X56641706Y-82111557D01*
X56616847Y-82141847D01*
X56586557Y-82166706D01*
X56551993Y-82185181D01*
X56514499Y-82196555D01*
X56469362Y-82201000D01*
X55830638Y-82201000D01*
X55785501Y-82196555D01*
X55748007Y-82185181D01*
X55713443Y-82166706D01*
X55683153Y-82141847D01*
X55655675Y-82108366D01*
X55646627Y-82094823D01*
X55629299Y-82077496D01*
X55608925Y-82063882D01*
X55586286Y-82054505D01*
X55562253Y-82049724D01*
X55537748Y-82049724D01*
X55513715Y-82054504D01*
X55491076Y-82063882D01*
X55470701Y-82077495D01*
X55453374Y-82094823D01*
X55444327Y-82108363D01*
X55416847Y-82141847D01*
X55386557Y-82166706D01*
X55351993Y-82185181D01*
X55314499Y-82196555D01*
X55269362Y-82201000D01*
X54630638Y-82201000D01*
X54585501Y-82196555D01*
X54548007Y-82185181D01*
X54513443Y-82166706D01*
X54483153Y-82141847D01*
X54455675Y-82108366D01*
X54446627Y-82094823D01*
X54429299Y-82077496D01*
X54408925Y-82063882D01*
X54386286Y-82054505D01*
X54362253Y-82049724D01*
X54337748Y-82049724D01*
X54313715Y-82054504D01*
X54291076Y-82063882D01*
X54270701Y-82077495D01*
X54253374Y-82094823D01*
X54244327Y-82108363D01*
X54216847Y-82141847D01*
X54186557Y-82166706D01*
X54151993Y-82185181D01*
X54114499Y-82196555D01*
X54069362Y-82201000D01*
X53430638Y-82201000D01*
X53385501Y-82196555D01*
X53348007Y-82185181D01*
X53313443Y-82166706D01*
X53283153Y-82141847D01*
X53258294Y-82111557D01*
X53239819Y-82076993D01*
X53228445Y-82039499D01*
X53224000Y-81994362D01*
X53224000Y-81255638D01*
X53228445Y-81210501D01*
X53239819Y-81173007D01*
X53258294Y-81138443D01*
X53283153Y-81108153D01*
X53313443Y-81083294D01*
X53348007Y-81064819D01*
X53385501Y-81053445D01*
X53430638Y-81049000D01*
X54069362Y-81049000D01*
X54114499Y-81053445D01*
X54114499Y-81053445D01*
G37*
G36*
X70264499Y-80803445D02*
X70301993Y-80814819D01*
X70336557Y-80833294D01*
X70366847Y-80858153D01*
X70391706Y-80888443D01*
X70410181Y-80923007D01*
X70421555Y-80960501D01*
X70426000Y-81005638D01*
X70426000Y-81744362D01*
X70421555Y-81789499D01*
X70410181Y-81826993D01*
X70391706Y-81861557D01*
X70366847Y-81891847D01*
X70336557Y-81916706D01*
X70301993Y-81935181D01*
X70264499Y-81946555D01*
X70219362Y-81951000D01*
X69580638Y-81951000D01*
X69535501Y-81946555D01*
X69498007Y-81935181D01*
X69463443Y-81916706D01*
X69433153Y-81891847D01*
X69408294Y-81861557D01*
X69389819Y-81826993D01*
X69378445Y-81789499D01*
X69374000Y-81744362D01*
X69374000Y-81005638D01*
X69378445Y-80960501D01*
X69389819Y-80923007D01*
X69408294Y-80888443D01*
X69433153Y-80858153D01*
X69463443Y-80833294D01*
X69498007Y-80814819D01*
X69535501Y-80803445D01*
X69580638Y-80799000D01*
X70219362Y-80799000D01*
X70264499Y-80803445D01*
X70264499Y-80803445D01*
G37*
G36*
X68664499Y-80778445D02*
X68701993Y-80789819D01*
X68736557Y-80808294D01*
X68766847Y-80833153D01*
X68791706Y-80863443D01*
X68810181Y-80898007D01*
X68821555Y-80935501D01*
X68826000Y-80980638D01*
X68826000Y-81719362D01*
X68821555Y-81764499D01*
X68810181Y-81801993D01*
X68791706Y-81836557D01*
X68766847Y-81866847D01*
X68736557Y-81891706D01*
X68701993Y-81910181D01*
X68664499Y-81921555D01*
X68619362Y-81926000D01*
X67980638Y-81926000D01*
X67935501Y-81921555D01*
X67898007Y-81910181D01*
X67863443Y-81891706D01*
X67833153Y-81866847D01*
X67808294Y-81836557D01*
X67789819Y-81801993D01*
X67778445Y-81764499D01*
X67774000Y-81719362D01*
X67774000Y-80980638D01*
X67778445Y-80935501D01*
X67789819Y-80898007D01*
X67808294Y-80863443D01*
X67833153Y-80833153D01*
X67863443Y-80808294D01*
X67898007Y-80789819D01*
X67935501Y-80778445D01*
X67980638Y-80774000D01*
X68619362Y-80774000D01*
X68664499Y-80778445D01*
X68664499Y-80778445D01*
G37*
G36*
X81726000Y-81001000D02*
X73074000Y-81001000D01*
X73074000Y-79399000D01*
X81726000Y-79399000D01*
X81726000Y-81001000D01*
X81726000Y-81001000D01*
G37*
G36*
X88670443Y-78605519D02*
X88736627Y-78612037D01*
X88849853Y-78646384D01*
X88906467Y-78663557D01*
X89005900Y-78716706D01*
X89062991Y-78747222D01*
X89067594Y-78751000D01*
X89200186Y-78859814D01*
X89283448Y-78961271D01*
X89312778Y-78997009D01*
X89312779Y-78997011D01*
X89396443Y-79153533D01*
X89403582Y-79177067D01*
X89447963Y-79323373D01*
X89465359Y-79500000D01*
X89447963Y-79676627D01*
X89413616Y-79789853D01*
X89396443Y-79846467D01*
X89360880Y-79913000D01*
X89312778Y-80002991D01*
X89283654Y-80038479D01*
X89200186Y-80140186D01*
X89098729Y-80223448D01*
X89062991Y-80252778D01*
X89062989Y-80252779D01*
X88906467Y-80336443D01*
X88849853Y-80353616D01*
X88736627Y-80387963D01*
X88670442Y-80394482D01*
X88604260Y-80401000D01*
X88515740Y-80401000D01*
X88449558Y-80394482D01*
X88383373Y-80387963D01*
X88270147Y-80353616D01*
X88213533Y-80336443D01*
X88057011Y-80252779D01*
X88057009Y-80252778D01*
X88021271Y-80223448D01*
X87919814Y-80140186D01*
X87836346Y-80038479D01*
X87807222Y-80002991D01*
X87759120Y-79913000D01*
X87723557Y-79846467D01*
X87706384Y-79789853D01*
X87672037Y-79676627D01*
X87654641Y-79500000D01*
X87672037Y-79323373D01*
X87716418Y-79177067D01*
X87723557Y-79153533D01*
X87807221Y-78997011D01*
X87807222Y-78997009D01*
X87836552Y-78961271D01*
X87919814Y-78859814D01*
X88052406Y-78751000D01*
X88057009Y-78747222D01*
X88114100Y-78716706D01*
X88213533Y-78663557D01*
X88270147Y-78646384D01*
X88383373Y-78612037D01*
X88449557Y-78605519D01*
X88515740Y-78599000D01*
X88604260Y-78599000D01*
X88670443Y-78605519D01*
X88670443Y-78605519D01*
G37*
G36*
X86130443Y-78605519D02*
X86196627Y-78612037D01*
X86309853Y-78646384D01*
X86366467Y-78663557D01*
X86465900Y-78716706D01*
X86522991Y-78747222D01*
X86527594Y-78751000D01*
X86660186Y-78859814D01*
X86743448Y-78961271D01*
X86772778Y-78997009D01*
X86772779Y-78997011D01*
X86856443Y-79153533D01*
X86863582Y-79177067D01*
X86907963Y-79323373D01*
X86925359Y-79500000D01*
X86907963Y-79676627D01*
X86873616Y-79789853D01*
X86856443Y-79846467D01*
X86820880Y-79913000D01*
X86772778Y-80002991D01*
X86743654Y-80038479D01*
X86660186Y-80140186D01*
X86558729Y-80223448D01*
X86522991Y-80252778D01*
X86522989Y-80252779D01*
X86366467Y-80336443D01*
X86309853Y-80353616D01*
X86196627Y-80387963D01*
X86130442Y-80394482D01*
X86064260Y-80401000D01*
X85975740Y-80401000D01*
X85909558Y-80394482D01*
X85843373Y-80387963D01*
X85730147Y-80353616D01*
X85673533Y-80336443D01*
X85517011Y-80252779D01*
X85517009Y-80252778D01*
X85481271Y-80223448D01*
X85379814Y-80140186D01*
X85296346Y-80038479D01*
X85267222Y-80002991D01*
X85219120Y-79913000D01*
X85183557Y-79846467D01*
X85166384Y-79789853D01*
X85132037Y-79676627D01*
X85114641Y-79500000D01*
X85132037Y-79323373D01*
X85176418Y-79177067D01*
X85183557Y-79153533D01*
X85267221Y-78997011D01*
X85267222Y-78997009D01*
X85296552Y-78961271D01*
X85379814Y-78859814D01*
X85512406Y-78751000D01*
X85517009Y-78747222D01*
X85574100Y-78716706D01*
X85673533Y-78663557D01*
X85730147Y-78646384D01*
X85843373Y-78612037D01*
X85909557Y-78605519D01*
X85975740Y-78599000D01*
X86064260Y-78599000D01*
X86130443Y-78605519D01*
X86130443Y-78605519D01*
G37*
G36*
X92001000Y-80401000D02*
X90199000Y-80401000D01*
X90199000Y-78599000D01*
X92001000Y-78599000D01*
X92001000Y-80401000D01*
X92001000Y-80401000D01*
G37*
G36*
X70264499Y-79053445D02*
X70301993Y-79064819D01*
X70336557Y-79083294D01*
X70366847Y-79108153D01*
X70391706Y-79138443D01*
X70410181Y-79173007D01*
X70421555Y-79210501D01*
X70426000Y-79255638D01*
X70426000Y-79994362D01*
X70421555Y-80039499D01*
X70410181Y-80076993D01*
X70391706Y-80111557D01*
X70366847Y-80141847D01*
X70336557Y-80166706D01*
X70301993Y-80185181D01*
X70264499Y-80196555D01*
X70219362Y-80201000D01*
X69580638Y-80201000D01*
X69535501Y-80196555D01*
X69498007Y-80185181D01*
X69463443Y-80166706D01*
X69433153Y-80141847D01*
X69408294Y-80111557D01*
X69389819Y-80076993D01*
X69378445Y-80039499D01*
X69374000Y-79994362D01*
X69374000Y-79255638D01*
X69378445Y-79210501D01*
X69389819Y-79173007D01*
X69408294Y-79138443D01*
X69433153Y-79108153D01*
X69463443Y-79083294D01*
X69498007Y-79064819D01*
X69535501Y-79053445D01*
X69580638Y-79049000D01*
X70219362Y-79049000D01*
X70264499Y-79053445D01*
X70264499Y-79053445D01*
G37*
G36*
X68664499Y-79028445D02*
X68701993Y-79039819D01*
X68736557Y-79058294D01*
X68766847Y-79083153D01*
X68791706Y-79113443D01*
X68810181Y-79148007D01*
X68821555Y-79185501D01*
X68826000Y-79230638D01*
X68826000Y-79969362D01*
X68821555Y-80014499D01*
X68810181Y-80051993D01*
X68791706Y-80086557D01*
X68766847Y-80116847D01*
X68736557Y-80141706D01*
X68701993Y-80160181D01*
X68664499Y-80171555D01*
X68619362Y-80176000D01*
X67980638Y-80176000D01*
X67935501Y-80171555D01*
X67898007Y-80160181D01*
X67863443Y-80141706D01*
X67833153Y-80116847D01*
X67808294Y-80086557D01*
X67789819Y-80051993D01*
X67778445Y-80014499D01*
X67774000Y-79969362D01*
X67774000Y-79230638D01*
X67778445Y-79185501D01*
X67789819Y-79148007D01*
X67808294Y-79113443D01*
X67833153Y-79083153D01*
X67863443Y-79058294D01*
X67898007Y-79039819D01*
X67935501Y-79028445D01*
X67980638Y-79024000D01*
X68619362Y-79024000D01*
X68664499Y-79028445D01*
X68664499Y-79028445D01*
G37*
G36*
X57736000Y-77401000D02*
X56388500Y-77401000D01*
X56364114Y-77403402D01*
X56340665Y-77410515D01*
X56319054Y-77422066D01*
X56300112Y-77437612D01*
X56284566Y-77456554D01*
X56273015Y-77478165D01*
X56265902Y-77501614D01*
X56263500Y-77526000D01*
X56263500Y-78194000D01*
X56265902Y-78218386D01*
X56273015Y-78241835D01*
X56284566Y-78263446D01*
X56300112Y-78282388D01*
X56319054Y-78297934D01*
X56340665Y-78309485D01*
X56364114Y-78316598D01*
X56388500Y-78319000D01*
X59486500Y-78319000D01*
X59510886Y-78316598D01*
X59534335Y-78309485D01*
X59555946Y-78297934D01*
X59574888Y-78282388D01*
X59590434Y-78263446D01*
X59601985Y-78241835D01*
X59609098Y-78218386D01*
X59611500Y-78194000D01*
X59611500Y-77526000D01*
X59609098Y-77501614D01*
X59601985Y-77478165D01*
X59590434Y-77456554D01*
X59574888Y-77437612D01*
X59555946Y-77422066D01*
X59534335Y-77410515D01*
X59510886Y-77403402D01*
X59486500Y-77401000D01*
X58139000Y-77401000D01*
X58139000Y-75399000D01*
X62086000Y-75399000D01*
X62086000Y-77401000D01*
X61313500Y-77401000D01*
X61289114Y-77403402D01*
X61265665Y-77410515D01*
X61244054Y-77422066D01*
X61225112Y-77437612D01*
X61209566Y-77456554D01*
X61198015Y-77478165D01*
X61190902Y-77501614D01*
X61188500Y-77526000D01*
X61188500Y-79801000D01*
X54686500Y-79801000D01*
X54686500Y-77526000D01*
X54684098Y-77501614D01*
X54676985Y-77478165D01*
X54665434Y-77456554D01*
X54649888Y-77437612D01*
X54630946Y-77422066D01*
X54609335Y-77410515D01*
X54585886Y-77403402D01*
X54561500Y-77401000D01*
X53789000Y-77401000D01*
X53789000Y-75399000D01*
X57736000Y-75399000D01*
X57736000Y-77401000D01*
X57736000Y-77401000D01*
G37*
G36*
X94358015Y-76906973D02*
X94461879Y-76938479D01*
X94557600Y-76989644D01*
X94641501Y-77058499D01*
X94710356Y-77142400D01*
X94761521Y-77238121D01*
X94793027Y-77341985D01*
X94801000Y-77422933D01*
X94801000Y-79177067D01*
X94793027Y-79258015D01*
X94761521Y-79361879D01*
X94710356Y-79457600D01*
X94641501Y-79541501D01*
X94557600Y-79610356D01*
X94461878Y-79661521D01*
X94358014Y-79693027D01*
X94250000Y-79703666D01*
X94141985Y-79693027D01*
X94038121Y-79661521D01*
X93942400Y-79610356D01*
X93858499Y-79541501D01*
X93789644Y-79457600D01*
X93738479Y-79361878D01*
X93706973Y-79258014D01*
X93699000Y-79177066D01*
X93699001Y-77422933D01*
X93706974Y-77341985D01*
X93738480Y-77238121D01*
X93789645Y-77142400D01*
X93858500Y-77058499D01*
X93942401Y-76989644D01*
X94038122Y-76938479D01*
X94141986Y-76906973D01*
X94250000Y-76896334D01*
X94358015Y-76906973D01*
X94358015Y-76906973D01*
G37*
G36*
X78764499Y-77603445D02*
X78801993Y-77614819D01*
X78836557Y-77633294D01*
X78866847Y-77658153D01*
X78891706Y-77688443D01*
X78910181Y-77723007D01*
X78921555Y-77760501D01*
X78926000Y-77805638D01*
X78926000Y-78544362D01*
X78921555Y-78589499D01*
X78910181Y-78626993D01*
X78891706Y-78661557D01*
X78866847Y-78691847D01*
X78836557Y-78716706D01*
X78801993Y-78735181D01*
X78764499Y-78746555D01*
X78719362Y-78751000D01*
X78080638Y-78751000D01*
X78035501Y-78746555D01*
X77998007Y-78735181D01*
X77963443Y-78716706D01*
X77933153Y-78691847D01*
X77908294Y-78661557D01*
X77889819Y-78626993D01*
X77878445Y-78589499D01*
X77874000Y-78544362D01*
X77874000Y-77805638D01*
X77878445Y-77760501D01*
X77889819Y-77723007D01*
X77908294Y-77688443D01*
X77933153Y-77658153D01*
X77963443Y-77633294D01*
X77998007Y-77614819D01*
X78035501Y-77603445D01*
X78080638Y-77599000D01*
X78719362Y-77599000D01*
X78764499Y-77603445D01*
X78764499Y-77603445D01*
G37*
G36*
X77364499Y-77603445D02*
X77401993Y-77614819D01*
X77436557Y-77633294D01*
X77466847Y-77658153D01*
X77491706Y-77688443D01*
X77510181Y-77723007D01*
X77521555Y-77760501D01*
X77526000Y-77805638D01*
X77526000Y-78544362D01*
X77521555Y-78589499D01*
X77510181Y-78626993D01*
X77491706Y-78661557D01*
X77466847Y-78691847D01*
X77436557Y-78716706D01*
X77401993Y-78735181D01*
X77364499Y-78746555D01*
X77319362Y-78751000D01*
X76680638Y-78751000D01*
X76635501Y-78746555D01*
X76598007Y-78735181D01*
X76563443Y-78716706D01*
X76533153Y-78691847D01*
X76508294Y-78661557D01*
X76489819Y-78626993D01*
X76478445Y-78589499D01*
X76474000Y-78544362D01*
X76474000Y-77805638D01*
X76478445Y-77760501D01*
X76489819Y-77723007D01*
X76508294Y-77688443D01*
X76533153Y-77658153D01*
X76563443Y-77633294D01*
X76598007Y-77614819D01*
X76635501Y-77603445D01*
X76680638Y-77599000D01*
X77319362Y-77599000D01*
X77364499Y-77603445D01*
X77364499Y-77603445D01*
G37*
G36*
X75031000Y-77951000D02*
X72749000Y-77951000D01*
X72749000Y-76249000D01*
X75031000Y-76249000D01*
X75031000Y-77951000D01*
X75031000Y-77951000D01*
G37*
G36*
X65851000Y-77951000D02*
X63569000Y-77951000D01*
X63569000Y-76249000D01*
X65851000Y-76249000D01*
X65851000Y-77951000D01*
X65851000Y-77951000D01*
G37*
G36*
X86130443Y-76065519D02*
X86196627Y-76072037D01*
X86309853Y-76106384D01*
X86366467Y-76123557D01*
X86505087Y-76197652D01*
X86522991Y-76207222D01*
X86558729Y-76236552D01*
X86660186Y-76319814D01*
X86743448Y-76421271D01*
X86772778Y-76457009D01*
X86772779Y-76457011D01*
X86856443Y-76613533D01*
X86856443Y-76613534D01*
X86907963Y-76783373D01*
X86925359Y-76960000D01*
X86907963Y-77136627D01*
X86877175Y-77238121D01*
X86856443Y-77306467D01*
X86805913Y-77401000D01*
X86772778Y-77462991D01*
X86760325Y-77478165D01*
X86660186Y-77600186D01*
X86567767Y-77676031D01*
X86522991Y-77712778D01*
X86522989Y-77712779D01*
X86366467Y-77796443D01*
X86319497Y-77810691D01*
X86196627Y-77847963D01*
X86130443Y-77854481D01*
X86064260Y-77861000D01*
X85975740Y-77861000D01*
X85909557Y-77854481D01*
X85843373Y-77847963D01*
X85720503Y-77810691D01*
X85673533Y-77796443D01*
X85517011Y-77712779D01*
X85517009Y-77712778D01*
X85472233Y-77676031D01*
X85379814Y-77600186D01*
X85279675Y-77478165D01*
X85267222Y-77462991D01*
X85234087Y-77401000D01*
X85183557Y-77306467D01*
X85162825Y-77238121D01*
X85132037Y-77136627D01*
X85114641Y-76960000D01*
X85132037Y-76783373D01*
X85183557Y-76613534D01*
X85183557Y-76613533D01*
X85267221Y-76457011D01*
X85267222Y-76457009D01*
X85296552Y-76421271D01*
X85379814Y-76319814D01*
X85481271Y-76236552D01*
X85517009Y-76207222D01*
X85534913Y-76197652D01*
X85673533Y-76123557D01*
X85730147Y-76106384D01*
X85843373Y-76072037D01*
X85909557Y-76065519D01*
X85975740Y-76059000D01*
X86064260Y-76059000D01*
X86130443Y-76065519D01*
X86130443Y-76065519D01*
G37*
G36*
X88670443Y-76065519D02*
X88736627Y-76072037D01*
X88849853Y-76106384D01*
X88906467Y-76123557D01*
X89045087Y-76197652D01*
X89062991Y-76207222D01*
X89098729Y-76236552D01*
X89200186Y-76319814D01*
X89283448Y-76421271D01*
X89312778Y-76457009D01*
X89312779Y-76457011D01*
X89396443Y-76613533D01*
X89396443Y-76613534D01*
X89447963Y-76783373D01*
X89465359Y-76960000D01*
X89447963Y-77136627D01*
X89417175Y-77238121D01*
X89396443Y-77306467D01*
X89345913Y-77401000D01*
X89312778Y-77462991D01*
X89300325Y-77478165D01*
X89200186Y-77600186D01*
X89107767Y-77676031D01*
X89062991Y-77712778D01*
X89062989Y-77712779D01*
X88906467Y-77796443D01*
X88859497Y-77810691D01*
X88736627Y-77847963D01*
X88670443Y-77854481D01*
X88604260Y-77861000D01*
X88515740Y-77861000D01*
X88449557Y-77854481D01*
X88383373Y-77847963D01*
X88260503Y-77810691D01*
X88213533Y-77796443D01*
X88057011Y-77712779D01*
X88057009Y-77712778D01*
X88012233Y-77676031D01*
X87919814Y-77600186D01*
X87819675Y-77478165D01*
X87807222Y-77462991D01*
X87774087Y-77401000D01*
X87723557Y-77306467D01*
X87702825Y-77238121D01*
X87672037Y-77136627D01*
X87654641Y-76960000D01*
X87672037Y-76783373D01*
X87723557Y-76613534D01*
X87723557Y-76613533D01*
X87807221Y-76457011D01*
X87807222Y-76457009D01*
X87836552Y-76421271D01*
X87919814Y-76319814D01*
X88021271Y-76236552D01*
X88057009Y-76207222D01*
X88074913Y-76197652D01*
X88213533Y-76123557D01*
X88270147Y-76106384D01*
X88383373Y-76072037D01*
X88449557Y-76065519D01*
X88515740Y-76059000D01*
X88604260Y-76059000D01*
X88670443Y-76065519D01*
X88670443Y-76065519D01*
G37*
G36*
X91210443Y-76065519D02*
X91276627Y-76072037D01*
X91389853Y-76106384D01*
X91446467Y-76123557D01*
X91585087Y-76197652D01*
X91602991Y-76207222D01*
X91638729Y-76236552D01*
X91740186Y-76319814D01*
X91823448Y-76421271D01*
X91852778Y-76457009D01*
X91852779Y-76457011D01*
X91936443Y-76613533D01*
X91936443Y-76613534D01*
X91987963Y-76783373D01*
X92005359Y-76960000D01*
X91987963Y-77136627D01*
X91957175Y-77238121D01*
X91936443Y-77306467D01*
X91885913Y-77401000D01*
X91852778Y-77462991D01*
X91840325Y-77478165D01*
X91740186Y-77600186D01*
X91647767Y-77676031D01*
X91602991Y-77712778D01*
X91602989Y-77712779D01*
X91446467Y-77796443D01*
X91399497Y-77810691D01*
X91276627Y-77847963D01*
X91210443Y-77854481D01*
X91144260Y-77861000D01*
X91055740Y-77861000D01*
X90989557Y-77854481D01*
X90923373Y-77847963D01*
X90800503Y-77810691D01*
X90753533Y-77796443D01*
X90597011Y-77712779D01*
X90597009Y-77712778D01*
X90552233Y-77676031D01*
X90459814Y-77600186D01*
X90359675Y-77478165D01*
X90347222Y-77462991D01*
X90314087Y-77401000D01*
X90263557Y-77306467D01*
X90242825Y-77238121D01*
X90212037Y-77136627D01*
X90194641Y-76960000D01*
X90212037Y-76783373D01*
X90263557Y-76613534D01*
X90263557Y-76613533D01*
X90347221Y-76457011D01*
X90347222Y-76457009D01*
X90376552Y-76421271D01*
X90459814Y-76319814D01*
X90561271Y-76236552D01*
X90597009Y-76207222D01*
X90614913Y-76197652D01*
X90753533Y-76123557D01*
X90810147Y-76106384D01*
X90923373Y-76072037D01*
X90989557Y-76065519D01*
X91055740Y-76059000D01*
X91144260Y-76059000D01*
X91210443Y-76065519D01*
X91210443Y-76065519D01*
G37*
G36*
X96639890Y-75874017D02*
X96758361Y-75923089D01*
X96758364Y-75923091D01*
X96822410Y-75965885D01*
X96864992Y-75994338D01*
X96955662Y-76085008D01*
X97026911Y-76191639D01*
X97075983Y-76310110D01*
X97101000Y-76435881D01*
X97101000Y-76564119D01*
X97075983Y-76689890D01*
X97026911Y-76808361D01*
X97026909Y-76808364D01*
X96957958Y-76911557D01*
X96955662Y-76914992D01*
X96864992Y-77005662D01*
X96758361Y-77076911D01*
X96639890Y-77125983D01*
X96514119Y-77151000D01*
X96385881Y-77151000D01*
X96260110Y-77125983D01*
X96141639Y-77076911D01*
X96035008Y-77005662D01*
X95944338Y-76914992D01*
X95942043Y-76911557D01*
X95873091Y-76808364D01*
X95873089Y-76808361D01*
X95824017Y-76689890D01*
X95799000Y-76564119D01*
X95799000Y-76435881D01*
X95824017Y-76310110D01*
X95873089Y-76191639D01*
X95944338Y-76085008D01*
X96035008Y-75994338D01*
X96077591Y-75965885D01*
X96141636Y-75923091D01*
X96141639Y-75923089D01*
X96260110Y-75874017D01*
X96385881Y-75849000D01*
X96514119Y-75849000D01*
X96639890Y-75874017D01*
X96639890Y-75874017D01*
G37*
G36*
X77364499Y-75853445D02*
X77401993Y-75864819D01*
X77436557Y-75883294D01*
X77466847Y-75908153D01*
X77491706Y-75938443D01*
X77510181Y-75973007D01*
X77521555Y-76010501D01*
X77526000Y-76055638D01*
X77526000Y-76794362D01*
X77521555Y-76839499D01*
X77510181Y-76876993D01*
X77491706Y-76911557D01*
X77466847Y-76941847D01*
X77436557Y-76966706D01*
X77401993Y-76985181D01*
X77364499Y-76996555D01*
X77319362Y-77001000D01*
X76680638Y-77001000D01*
X76635501Y-76996555D01*
X76598007Y-76985181D01*
X76563443Y-76966706D01*
X76533153Y-76941847D01*
X76508294Y-76911557D01*
X76489819Y-76876993D01*
X76478445Y-76839499D01*
X76474000Y-76794362D01*
X76474000Y-76055638D01*
X76478445Y-76010501D01*
X76489819Y-75973007D01*
X76508294Y-75938443D01*
X76533153Y-75908153D01*
X76563443Y-75883294D01*
X76598007Y-75864819D01*
X76635501Y-75853445D01*
X76680638Y-75849000D01*
X77319362Y-75849000D01*
X77364499Y-75853445D01*
X77364499Y-75853445D01*
G37*
G36*
X78764499Y-75853445D02*
X78801993Y-75864819D01*
X78836557Y-75883294D01*
X78866847Y-75908153D01*
X78891706Y-75938443D01*
X78910181Y-75973007D01*
X78921555Y-76010501D01*
X78926000Y-76055638D01*
X78926000Y-76794362D01*
X78921555Y-76839499D01*
X78910181Y-76876993D01*
X78891706Y-76911557D01*
X78866847Y-76941847D01*
X78836557Y-76966706D01*
X78801993Y-76985181D01*
X78764499Y-76996555D01*
X78719362Y-77001000D01*
X78080638Y-77001000D01*
X78035501Y-76996555D01*
X77998007Y-76985181D01*
X77963443Y-76966706D01*
X77933153Y-76941847D01*
X77908294Y-76911557D01*
X77889819Y-76876993D01*
X77878445Y-76839499D01*
X77874000Y-76794362D01*
X77874000Y-76055638D01*
X77878445Y-76010501D01*
X77889819Y-75973007D01*
X77908294Y-75938443D01*
X77933153Y-75908153D01*
X77963443Y-75883294D01*
X77998007Y-75864819D01*
X78035501Y-75853445D01*
X78080638Y-75849000D01*
X78719362Y-75849000D01*
X78764499Y-75853445D01*
X78764499Y-75853445D01*
G37*
G36*
X94145485Y-66974209D02*
X94182979Y-66985583D01*
X94217543Y-67004058D01*
X94247833Y-67028917D01*
X94272692Y-67059207D01*
X94291167Y-67093771D01*
X94302541Y-67131265D01*
X94306986Y-67176402D01*
X94306986Y-67815126D01*
X94302541Y-67860263D01*
X94291167Y-67897757D01*
X94272692Y-67932321D01*
X94247833Y-67962611D01*
X94217543Y-67987470D01*
X94182979Y-68005945D01*
X94145485Y-68017319D01*
X94094235Y-68022366D01*
X94094249Y-68022507D01*
X94077408Y-68024166D01*
X94053959Y-68031279D01*
X94032348Y-68042830D01*
X94013406Y-68058376D01*
X93997860Y-68077318D01*
X93986309Y-68098929D01*
X93979196Y-68122378D01*
X93976794Y-68146764D01*
X93979196Y-68171150D01*
X93986309Y-68194599D01*
X93997860Y-68216210D01*
X94013406Y-68235152D01*
X94032348Y-68250698D01*
X94053959Y-68262249D01*
X94077408Y-68269362D01*
X94089543Y-68271162D01*
X94120485Y-68274209D01*
X94157979Y-68285583D01*
X94192543Y-68304058D01*
X94222833Y-68328917D01*
X94247692Y-68359207D01*
X94266167Y-68393771D01*
X94277541Y-68431265D01*
X94281986Y-68476402D01*
X94281986Y-69115126D01*
X94277541Y-69160263D01*
X94266167Y-69197757D01*
X94247692Y-69232321D01*
X94222833Y-69262611D01*
X94192543Y-69287470D01*
X94157979Y-69305945D01*
X94120485Y-69317319D01*
X94079389Y-69321366D01*
X94055355Y-69326146D01*
X94032716Y-69335523D01*
X94012341Y-69349137D01*
X93995014Y-69366464D01*
X93981400Y-69386839D01*
X93972023Y-69409478D01*
X93967242Y-69433511D01*
X93967242Y-69458015D01*
X93972022Y-69482049D01*
X93981399Y-69504688D01*
X93995013Y-69525063D01*
X94012340Y-69542390D01*
X94032715Y-69556004D01*
X94055354Y-69565381D01*
X94079389Y-69570162D01*
X94120485Y-69574209D01*
X94157979Y-69585583D01*
X94192543Y-69604058D01*
X94222833Y-69628917D01*
X94247692Y-69659207D01*
X94266167Y-69693771D01*
X94277541Y-69731265D01*
X94281986Y-69776402D01*
X94281986Y-70415126D01*
X94277541Y-70460263D01*
X94266167Y-70497757D01*
X94247692Y-70532321D01*
X94222833Y-70562611D01*
X94192543Y-70587470D01*
X94157979Y-70605945D01*
X94120485Y-70617319D01*
X94079389Y-70621366D01*
X94055355Y-70626146D01*
X94032716Y-70635523D01*
X94012341Y-70649137D01*
X93995014Y-70666464D01*
X93981400Y-70686839D01*
X93972023Y-70709478D01*
X93967242Y-70733511D01*
X93967242Y-70758015D01*
X93972022Y-70782049D01*
X93981399Y-70804688D01*
X93995013Y-70825063D01*
X94012340Y-70842390D01*
X94032715Y-70856004D01*
X94055354Y-70865381D01*
X94079389Y-70870162D01*
X94120485Y-70874209D01*
X94157979Y-70885583D01*
X94192543Y-70904058D01*
X94222833Y-70928917D01*
X94247692Y-70959207D01*
X94266167Y-70993771D01*
X94277541Y-71031265D01*
X94281986Y-71076402D01*
X94281986Y-71715126D01*
X94277541Y-71760263D01*
X94266167Y-71797757D01*
X94247692Y-71832321D01*
X94222833Y-71862611D01*
X94192543Y-71887470D01*
X94157979Y-71905945D01*
X94120485Y-71917319D01*
X94075348Y-71921764D01*
X93336624Y-71921764D01*
X93291487Y-71917319D01*
X93253993Y-71905945D01*
X93219429Y-71887470D01*
X93189139Y-71862611D01*
X93164280Y-71832321D01*
X93145805Y-71797757D01*
X93134431Y-71760263D01*
X93129986Y-71715126D01*
X93129986Y-71076402D01*
X93134431Y-71031265D01*
X93145805Y-70993771D01*
X93164280Y-70959207D01*
X93189139Y-70928917D01*
X93219429Y-70904058D01*
X93253993Y-70885583D01*
X93291487Y-70874209D01*
X93332583Y-70870162D01*
X93356617Y-70865382D01*
X93379256Y-70856005D01*
X93399631Y-70842391D01*
X93416958Y-70825064D01*
X93430572Y-70804689D01*
X93439949Y-70782050D01*
X93444730Y-70758017D01*
X93444730Y-70733513D01*
X93439950Y-70709479D01*
X93430573Y-70686840D01*
X93416959Y-70666465D01*
X93399632Y-70649138D01*
X93379257Y-70635524D01*
X93356618Y-70626147D01*
X93332583Y-70621366D01*
X93291487Y-70617319D01*
X93253993Y-70605945D01*
X93219429Y-70587470D01*
X93189139Y-70562611D01*
X93164280Y-70532321D01*
X93145805Y-70497757D01*
X93134431Y-70460263D01*
X93129986Y-70415126D01*
X93129986Y-69776402D01*
X93134431Y-69731265D01*
X93145805Y-69693771D01*
X93164280Y-69659207D01*
X93189139Y-69628917D01*
X93219429Y-69604058D01*
X93253993Y-69585583D01*
X93291487Y-69574209D01*
X93332583Y-69570162D01*
X93356617Y-69565382D01*
X93379256Y-69556005D01*
X93399631Y-69542391D01*
X93416958Y-69525064D01*
X93430572Y-69504689D01*
X93439949Y-69482050D01*
X93444730Y-69458017D01*
X93444730Y-69433513D01*
X93439950Y-69409479D01*
X93430573Y-69386840D01*
X93416959Y-69366465D01*
X93399632Y-69349138D01*
X93379257Y-69335524D01*
X93356618Y-69326147D01*
X93332583Y-69321366D01*
X93291487Y-69317319D01*
X93253993Y-69305945D01*
X93219429Y-69287470D01*
X93189139Y-69262611D01*
X93164280Y-69232321D01*
X93145805Y-69197757D01*
X93134431Y-69160263D01*
X93129986Y-69115126D01*
X93129986Y-68476402D01*
X93134431Y-68431265D01*
X93145805Y-68393771D01*
X93164280Y-68359207D01*
X93189139Y-68328917D01*
X93219429Y-68304058D01*
X93253993Y-68285583D01*
X93291487Y-68274209D01*
X93342737Y-68269162D01*
X93342723Y-68269021D01*
X93359564Y-68267362D01*
X93383013Y-68260249D01*
X93404624Y-68248698D01*
X93423566Y-68233152D01*
X93439112Y-68214210D01*
X93450663Y-68192599D01*
X93457776Y-68169150D01*
X93460178Y-68144764D01*
X93457776Y-68120378D01*
X93450663Y-68096929D01*
X93439112Y-68075318D01*
X93423566Y-68056376D01*
X93404624Y-68040830D01*
X93383013Y-68029279D01*
X93359564Y-68022166D01*
X93347429Y-68020366D01*
X93316487Y-68017319D01*
X93278993Y-68005945D01*
X93244429Y-67987470D01*
X93214139Y-67962611D01*
X93189280Y-67932321D01*
X93170805Y-67897757D01*
X93159431Y-67860263D01*
X93154986Y-67815126D01*
X93154986Y-67176402D01*
X93159431Y-67131265D01*
X93170805Y-67093771D01*
X93189280Y-67059207D01*
X93214139Y-67028917D01*
X93244429Y-67004058D01*
X93278993Y-66985583D01*
X93316487Y-66974209D01*
X93361624Y-66969764D01*
X94100348Y-66969764D01*
X94145485Y-66974209D01*
X94145485Y-66974209D01*
G37*
G36*
X95895485Y-66974209D02*
X95932979Y-66985583D01*
X95967543Y-67004058D01*
X95997833Y-67028917D01*
X96022692Y-67059207D01*
X96041167Y-67093771D01*
X96052541Y-67131265D01*
X96056986Y-67176402D01*
X96056986Y-67815126D01*
X96052541Y-67860263D01*
X96041167Y-67897757D01*
X96022692Y-67932321D01*
X95997833Y-67962611D01*
X95967543Y-67987470D01*
X95932979Y-68005945D01*
X95895485Y-68017319D01*
X95844235Y-68022366D01*
X95844249Y-68022507D01*
X95827408Y-68024166D01*
X95803959Y-68031279D01*
X95782348Y-68042830D01*
X95763406Y-68058376D01*
X95747860Y-68077318D01*
X95736309Y-68098929D01*
X95729196Y-68122378D01*
X95726794Y-68146764D01*
X95729196Y-68171150D01*
X95736309Y-68194599D01*
X95747860Y-68216210D01*
X95763406Y-68235152D01*
X95782348Y-68250698D01*
X95803959Y-68262249D01*
X95827408Y-68269362D01*
X95839543Y-68271162D01*
X95870485Y-68274209D01*
X95907979Y-68285583D01*
X95942543Y-68304058D01*
X95972833Y-68328917D01*
X95997692Y-68359207D01*
X96016167Y-68393771D01*
X96027541Y-68431265D01*
X96031986Y-68476402D01*
X96031986Y-69115126D01*
X96027541Y-69160263D01*
X96016167Y-69197757D01*
X95997692Y-69232321D01*
X95972833Y-69262611D01*
X95942543Y-69287470D01*
X95907979Y-69305945D01*
X95870485Y-69317319D01*
X95829389Y-69321366D01*
X95805355Y-69326146D01*
X95782716Y-69335523D01*
X95762341Y-69349137D01*
X95745014Y-69366464D01*
X95731400Y-69386839D01*
X95722023Y-69409478D01*
X95717242Y-69433511D01*
X95717242Y-69458015D01*
X95722022Y-69482049D01*
X95731399Y-69504688D01*
X95745013Y-69525063D01*
X95762340Y-69542390D01*
X95782715Y-69556004D01*
X95805354Y-69565381D01*
X95829389Y-69570162D01*
X95870485Y-69574209D01*
X95907979Y-69585583D01*
X95942543Y-69604058D01*
X95972833Y-69628917D01*
X95997692Y-69659207D01*
X96016167Y-69693771D01*
X96027541Y-69731265D01*
X96031986Y-69776402D01*
X96031986Y-70415126D01*
X96027541Y-70460263D01*
X96016167Y-70497757D01*
X95997692Y-70532321D01*
X95972833Y-70562611D01*
X95942543Y-70587470D01*
X95907979Y-70605945D01*
X95870485Y-70617319D01*
X95829389Y-70621366D01*
X95805355Y-70626146D01*
X95782716Y-70635523D01*
X95762341Y-70649137D01*
X95745014Y-70666464D01*
X95731400Y-70686839D01*
X95722023Y-70709478D01*
X95717242Y-70733511D01*
X95717242Y-70758015D01*
X95722022Y-70782049D01*
X95731399Y-70804688D01*
X95745013Y-70825063D01*
X95762340Y-70842390D01*
X95782715Y-70856004D01*
X95805354Y-70865381D01*
X95829389Y-70870162D01*
X95870485Y-70874209D01*
X95907979Y-70885583D01*
X95942543Y-70904058D01*
X95972833Y-70928917D01*
X95997692Y-70959207D01*
X96016167Y-70993771D01*
X96027541Y-71031265D01*
X96031986Y-71076402D01*
X96031986Y-71715126D01*
X96027541Y-71760263D01*
X96016167Y-71797757D01*
X95997692Y-71832321D01*
X95972833Y-71862611D01*
X95942543Y-71887470D01*
X95907979Y-71905945D01*
X95870485Y-71917319D01*
X95825348Y-71921764D01*
X95086624Y-71921764D01*
X95041487Y-71917319D01*
X95003993Y-71905945D01*
X94969429Y-71887470D01*
X94939139Y-71862611D01*
X94914280Y-71832321D01*
X94895805Y-71797757D01*
X94884431Y-71760263D01*
X94879986Y-71715126D01*
X94879986Y-71076402D01*
X94884431Y-71031265D01*
X94895805Y-70993771D01*
X94914280Y-70959207D01*
X94939139Y-70928917D01*
X94969429Y-70904058D01*
X95003993Y-70885583D01*
X95041487Y-70874209D01*
X95082583Y-70870162D01*
X95106617Y-70865382D01*
X95129256Y-70856005D01*
X95149631Y-70842391D01*
X95166958Y-70825064D01*
X95180572Y-70804689D01*
X95189949Y-70782050D01*
X95194730Y-70758017D01*
X95194730Y-70733513D01*
X95189950Y-70709479D01*
X95180573Y-70686840D01*
X95166959Y-70666465D01*
X95149632Y-70649138D01*
X95129257Y-70635524D01*
X95106618Y-70626147D01*
X95082583Y-70621366D01*
X95041487Y-70617319D01*
X95003993Y-70605945D01*
X94969429Y-70587470D01*
X94939139Y-70562611D01*
X94914280Y-70532321D01*
X94895805Y-70497757D01*
X94884431Y-70460263D01*
X94879986Y-70415126D01*
X94879986Y-69776402D01*
X94884431Y-69731265D01*
X94895805Y-69693771D01*
X94914280Y-69659207D01*
X94939139Y-69628917D01*
X94969429Y-69604058D01*
X95003993Y-69585583D01*
X95041487Y-69574209D01*
X95082583Y-69570162D01*
X95106617Y-69565382D01*
X95129256Y-69556005D01*
X95149631Y-69542391D01*
X95166958Y-69525064D01*
X95180572Y-69504689D01*
X95189949Y-69482050D01*
X95194730Y-69458017D01*
X95194730Y-69433513D01*
X95189950Y-69409479D01*
X95180573Y-69386840D01*
X95166959Y-69366465D01*
X95149632Y-69349138D01*
X95129257Y-69335524D01*
X95106618Y-69326147D01*
X95082583Y-69321366D01*
X95041487Y-69317319D01*
X95003993Y-69305945D01*
X94969429Y-69287470D01*
X94939139Y-69262611D01*
X94914280Y-69232321D01*
X94895805Y-69197757D01*
X94884431Y-69160263D01*
X94879986Y-69115126D01*
X94879986Y-68476402D01*
X94884431Y-68431265D01*
X94895805Y-68393771D01*
X94914280Y-68359207D01*
X94939139Y-68328917D01*
X94969429Y-68304058D01*
X95003993Y-68285583D01*
X95041487Y-68274209D01*
X95092737Y-68269162D01*
X95092723Y-68269021D01*
X95109564Y-68267362D01*
X95133013Y-68260249D01*
X95154624Y-68248698D01*
X95173566Y-68233152D01*
X95189112Y-68214210D01*
X95200663Y-68192599D01*
X95207776Y-68169150D01*
X95210178Y-68144764D01*
X95207776Y-68120378D01*
X95200663Y-68096929D01*
X95189112Y-68075318D01*
X95173566Y-68056376D01*
X95154624Y-68040830D01*
X95133013Y-68029279D01*
X95109564Y-68022166D01*
X95097429Y-68020366D01*
X95066487Y-68017319D01*
X95028993Y-68005945D01*
X94994429Y-67987470D01*
X94964139Y-67962611D01*
X94939280Y-67932321D01*
X94920805Y-67897757D01*
X94909431Y-67860263D01*
X94904986Y-67815126D01*
X94904986Y-67176402D01*
X94909431Y-67131265D01*
X94920805Y-67093771D01*
X94939280Y-67059207D01*
X94964139Y-67028917D01*
X94994429Y-67004058D01*
X95028993Y-66985583D01*
X95066487Y-66974209D01*
X95111624Y-66969764D01*
X95850348Y-66969764D01*
X95895485Y-66974209D01*
X95895485Y-66974209D01*
G37*
G36*
X97520485Y-66974209D02*
X97557979Y-66985583D01*
X97592543Y-67004058D01*
X97622833Y-67028917D01*
X97647692Y-67059207D01*
X97666167Y-67093771D01*
X97677541Y-67131265D01*
X97681986Y-67176402D01*
X97681986Y-67815126D01*
X97677541Y-67860263D01*
X97666167Y-67897757D01*
X97647692Y-67932321D01*
X97622833Y-67962611D01*
X97592543Y-67987470D01*
X97557979Y-68005945D01*
X97520485Y-68017319D01*
X97479389Y-68021366D01*
X97455355Y-68026146D01*
X97432716Y-68035523D01*
X97412341Y-68049137D01*
X97395014Y-68066464D01*
X97381400Y-68086839D01*
X97372023Y-68109478D01*
X97367242Y-68133511D01*
X97367242Y-68158015D01*
X97372022Y-68182049D01*
X97381399Y-68204688D01*
X97395013Y-68225063D01*
X97412340Y-68242390D01*
X97432715Y-68256004D01*
X97455354Y-68265381D01*
X97479389Y-68270162D01*
X97520485Y-68274209D01*
X97557979Y-68285583D01*
X97592543Y-68304058D01*
X97622833Y-68328917D01*
X97647692Y-68359207D01*
X97666167Y-68393771D01*
X97677541Y-68431265D01*
X97681986Y-68476402D01*
X97681986Y-69115126D01*
X97677541Y-69160263D01*
X97666167Y-69197757D01*
X97647692Y-69232321D01*
X97622833Y-69262611D01*
X97592543Y-69287470D01*
X97557979Y-69305945D01*
X97520485Y-69317319D01*
X97479389Y-69321366D01*
X97455355Y-69326146D01*
X97432716Y-69335523D01*
X97412341Y-69349137D01*
X97395014Y-69366464D01*
X97381400Y-69386839D01*
X97372023Y-69409478D01*
X97367242Y-69433511D01*
X97367242Y-69458015D01*
X97372022Y-69482049D01*
X97381399Y-69504688D01*
X97395013Y-69525063D01*
X97412340Y-69542390D01*
X97432715Y-69556004D01*
X97455354Y-69565381D01*
X97479389Y-69570162D01*
X97520485Y-69574209D01*
X97557979Y-69585583D01*
X97592543Y-69604058D01*
X97622833Y-69628917D01*
X97647692Y-69659207D01*
X97666167Y-69693771D01*
X97677541Y-69731265D01*
X97681986Y-69776402D01*
X97681986Y-70415126D01*
X97677541Y-70460263D01*
X97666167Y-70497757D01*
X97647692Y-70532321D01*
X97622833Y-70562611D01*
X97592543Y-70587470D01*
X97557979Y-70605945D01*
X97520485Y-70617319D01*
X97479389Y-70621366D01*
X97455355Y-70626146D01*
X97432716Y-70635523D01*
X97412341Y-70649137D01*
X97395014Y-70666464D01*
X97381400Y-70686839D01*
X97372023Y-70709478D01*
X97367242Y-70733511D01*
X97367242Y-70758015D01*
X97372022Y-70782049D01*
X97381399Y-70804688D01*
X97395013Y-70825063D01*
X97412340Y-70842390D01*
X97432715Y-70856004D01*
X97455354Y-70865381D01*
X97479389Y-70870162D01*
X97520485Y-70874209D01*
X97557979Y-70885583D01*
X97592543Y-70904058D01*
X97622833Y-70928917D01*
X97647692Y-70959207D01*
X97666167Y-70993771D01*
X97677541Y-71031265D01*
X97681986Y-71076402D01*
X97681986Y-71715126D01*
X97677541Y-71760263D01*
X97666167Y-71797757D01*
X97647692Y-71832321D01*
X97622833Y-71862611D01*
X97592543Y-71887470D01*
X97557979Y-71905945D01*
X97520485Y-71917319D01*
X97475348Y-71921764D01*
X96736624Y-71921764D01*
X96691487Y-71917319D01*
X96653993Y-71905945D01*
X96619429Y-71887470D01*
X96589139Y-71862611D01*
X96564280Y-71832321D01*
X96545805Y-71797757D01*
X96534431Y-71760263D01*
X96529986Y-71715126D01*
X96529986Y-71076402D01*
X96534431Y-71031265D01*
X96545805Y-70993771D01*
X96564280Y-70959207D01*
X96589139Y-70928917D01*
X96619429Y-70904058D01*
X96653993Y-70885583D01*
X96691487Y-70874209D01*
X96732583Y-70870162D01*
X96756617Y-70865382D01*
X96779256Y-70856005D01*
X96799631Y-70842391D01*
X96816958Y-70825064D01*
X96830572Y-70804689D01*
X96839949Y-70782050D01*
X96844730Y-70758017D01*
X96844730Y-70733513D01*
X96839950Y-70709479D01*
X96830573Y-70686840D01*
X96816959Y-70666465D01*
X96799632Y-70649138D01*
X96779257Y-70635524D01*
X96756618Y-70626147D01*
X96732583Y-70621366D01*
X96691487Y-70617319D01*
X96653993Y-70605945D01*
X96619429Y-70587470D01*
X96589139Y-70562611D01*
X96564280Y-70532321D01*
X96545805Y-70497757D01*
X96534431Y-70460263D01*
X96529986Y-70415126D01*
X96529986Y-69776402D01*
X96534431Y-69731265D01*
X96545805Y-69693771D01*
X96564280Y-69659207D01*
X96589139Y-69628917D01*
X96619429Y-69604058D01*
X96653993Y-69585583D01*
X96691487Y-69574209D01*
X96732583Y-69570162D01*
X96756617Y-69565382D01*
X96779256Y-69556005D01*
X96799631Y-69542391D01*
X96816958Y-69525064D01*
X96830572Y-69504689D01*
X96839949Y-69482050D01*
X96844730Y-69458017D01*
X96844730Y-69433513D01*
X96839950Y-69409479D01*
X96830573Y-69386840D01*
X96816959Y-69366465D01*
X96799632Y-69349138D01*
X96779257Y-69335524D01*
X96756618Y-69326147D01*
X96732583Y-69321366D01*
X96691487Y-69317319D01*
X96653993Y-69305945D01*
X96619429Y-69287470D01*
X96589139Y-69262611D01*
X96564280Y-69232321D01*
X96545805Y-69197757D01*
X96534431Y-69160263D01*
X96529986Y-69115126D01*
X96529986Y-68476402D01*
X96534431Y-68431265D01*
X96545805Y-68393771D01*
X96564280Y-68359207D01*
X96589139Y-68328917D01*
X96619429Y-68304058D01*
X96653993Y-68285583D01*
X96691487Y-68274209D01*
X96732583Y-68270162D01*
X96756617Y-68265382D01*
X96779256Y-68256005D01*
X96799631Y-68242391D01*
X96816958Y-68225064D01*
X96830572Y-68204689D01*
X96839949Y-68182050D01*
X96844730Y-68158017D01*
X96844730Y-68133513D01*
X96839950Y-68109479D01*
X96830573Y-68086840D01*
X96816959Y-68066465D01*
X96799632Y-68049138D01*
X96779257Y-68035524D01*
X96756618Y-68026147D01*
X96732583Y-68021366D01*
X96691487Y-68017319D01*
X96653993Y-68005945D01*
X96619429Y-67987470D01*
X96589139Y-67962611D01*
X96564280Y-67932321D01*
X96545805Y-67897757D01*
X96534431Y-67860263D01*
X96529986Y-67815126D01*
X96529986Y-67176402D01*
X96534431Y-67131265D01*
X96545805Y-67093771D01*
X96564280Y-67059207D01*
X96589139Y-67028917D01*
X96619429Y-67004058D01*
X96653993Y-66985583D01*
X96691487Y-66974209D01*
X96736624Y-66969764D01*
X97475348Y-66969764D01*
X97520485Y-66974209D01*
X97520485Y-66974209D01*
G37*
G36*
X99270485Y-66974209D02*
X99307979Y-66985583D01*
X99342543Y-67004058D01*
X99372833Y-67028917D01*
X99397692Y-67059207D01*
X99416167Y-67093771D01*
X99427541Y-67131265D01*
X99431986Y-67176402D01*
X99431986Y-67815126D01*
X99427541Y-67860263D01*
X99416167Y-67897757D01*
X99397692Y-67932321D01*
X99372833Y-67962611D01*
X99342543Y-67987470D01*
X99307979Y-68005945D01*
X99270485Y-68017319D01*
X99229389Y-68021366D01*
X99205355Y-68026146D01*
X99182716Y-68035523D01*
X99162341Y-68049137D01*
X99145014Y-68066464D01*
X99131400Y-68086839D01*
X99122023Y-68109478D01*
X99117242Y-68133511D01*
X99117242Y-68158015D01*
X99122022Y-68182049D01*
X99131399Y-68204688D01*
X99145013Y-68225063D01*
X99162340Y-68242390D01*
X99182715Y-68256004D01*
X99205354Y-68265381D01*
X99229389Y-68270162D01*
X99270485Y-68274209D01*
X99307979Y-68285583D01*
X99342543Y-68304058D01*
X99372833Y-68328917D01*
X99397692Y-68359207D01*
X99416167Y-68393771D01*
X99427541Y-68431265D01*
X99431986Y-68476402D01*
X99431986Y-69115126D01*
X99427541Y-69160263D01*
X99416167Y-69197757D01*
X99397692Y-69232321D01*
X99372833Y-69262611D01*
X99342543Y-69287470D01*
X99307979Y-69305945D01*
X99270485Y-69317319D01*
X99229389Y-69321366D01*
X99205355Y-69326146D01*
X99182716Y-69335523D01*
X99162341Y-69349137D01*
X99145014Y-69366464D01*
X99131400Y-69386839D01*
X99122023Y-69409478D01*
X99117242Y-69433511D01*
X99117242Y-69458015D01*
X99122022Y-69482049D01*
X99131399Y-69504688D01*
X99145013Y-69525063D01*
X99162340Y-69542390D01*
X99182715Y-69556004D01*
X99205354Y-69565381D01*
X99229389Y-69570162D01*
X99270485Y-69574209D01*
X99307979Y-69585583D01*
X99342543Y-69604058D01*
X99372833Y-69628917D01*
X99397692Y-69659207D01*
X99416167Y-69693771D01*
X99427541Y-69731265D01*
X99431986Y-69776402D01*
X99431986Y-70415126D01*
X99427541Y-70460263D01*
X99416167Y-70497757D01*
X99397692Y-70532321D01*
X99372833Y-70562611D01*
X99342543Y-70587470D01*
X99307979Y-70605945D01*
X99270485Y-70617319D01*
X99229389Y-70621366D01*
X99205355Y-70626146D01*
X99182716Y-70635523D01*
X99162341Y-70649137D01*
X99145014Y-70666464D01*
X99131400Y-70686839D01*
X99122023Y-70709478D01*
X99117242Y-70733511D01*
X99117242Y-70758015D01*
X99122022Y-70782049D01*
X99131399Y-70804688D01*
X99145013Y-70825063D01*
X99162340Y-70842390D01*
X99182715Y-70856004D01*
X99205354Y-70865381D01*
X99229389Y-70870162D01*
X99270485Y-70874209D01*
X99307979Y-70885583D01*
X99342543Y-70904058D01*
X99372833Y-70928917D01*
X99397692Y-70959207D01*
X99416167Y-70993771D01*
X99427541Y-71031265D01*
X99431986Y-71076402D01*
X99431986Y-71715126D01*
X99427541Y-71760263D01*
X99416167Y-71797757D01*
X99397692Y-71832321D01*
X99372833Y-71862611D01*
X99342543Y-71887470D01*
X99307979Y-71905945D01*
X99270485Y-71917319D01*
X99225348Y-71921764D01*
X98486624Y-71921764D01*
X98441487Y-71917319D01*
X98403993Y-71905945D01*
X98369429Y-71887470D01*
X98339139Y-71862611D01*
X98314280Y-71832321D01*
X98295805Y-71797757D01*
X98284431Y-71760263D01*
X98279986Y-71715126D01*
X98279986Y-71076402D01*
X98284431Y-71031265D01*
X98295805Y-70993771D01*
X98314280Y-70959207D01*
X98339139Y-70928917D01*
X98369429Y-70904058D01*
X98403993Y-70885583D01*
X98441487Y-70874209D01*
X98482583Y-70870162D01*
X98506617Y-70865382D01*
X98529256Y-70856005D01*
X98549631Y-70842391D01*
X98566958Y-70825064D01*
X98580572Y-70804689D01*
X98589949Y-70782050D01*
X98594730Y-70758017D01*
X98594730Y-70733513D01*
X98589950Y-70709479D01*
X98580573Y-70686840D01*
X98566959Y-70666465D01*
X98549632Y-70649138D01*
X98529257Y-70635524D01*
X98506618Y-70626147D01*
X98482583Y-70621366D01*
X98441487Y-70617319D01*
X98403993Y-70605945D01*
X98369429Y-70587470D01*
X98339139Y-70562611D01*
X98314280Y-70532321D01*
X98295805Y-70497757D01*
X98284431Y-70460263D01*
X98279986Y-70415126D01*
X98279986Y-69776402D01*
X98284431Y-69731265D01*
X98295805Y-69693771D01*
X98314280Y-69659207D01*
X98339139Y-69628917D01*
X98369429Y-69604058D01*
X98403993Y-69585583D01*
X98441487Y-69574209D01*
X98482583Y-69570162D01*
X98506617Y-69565382D01*
X98529256Y-69556005D01*
X98549631Y-69542391D01*
X98566958Y-69525064D01*
X98580572Y-69504689D01*
X98589949Y-69482050D01*
X98594730Y-69458017D01*
X98594730Y-69433513D01*
X98589950Y-69409479D01*
X98580573Y-69386840D01*
X98566959Y-69366465D01*
X98549632Y-69349138D01*
X98529257Y-69335524D01*
X98506618Y-69326147D01*
X98482583Y-69321366D01*
X98441487Y-69317319D01*
X98403993Y-69305945D01*
X98369429Y-69287470D01*
X98339139Y-69262611D01*
X98314280Y-69232321D01*
X98295805Y-69197757D01*
X98284431Y-69160263D01*
X98279986Y-69115126D01*
X98279986Y-68476402D01*
X98284431Y-68431265D01*
X98295805Y-68393771D01*
X98314280Y-68359207D01*
X98339139Y-68328917D01*
X98369429Y-68304058D01*
X98403993Y-68285583D01*
X98441487Y-68274209D01*
X98482583Y-68270162D01*
X98506617Y-68265382D01*
X98529256Y-68256005D01*
X98549631Y-68242391D01*
X98566958Y-68225064D01*
X98580572Y-68204689D01*
X98589949Y-68182050D01*
X98594730Y-68158017D01*
X98594730Y-68133513D01*
X98589950Y-68109479D01*
X98580573Y-68086840D01*
X98566959Y-68066465D01*
X98549632Y-68049138D01*
X98529257Y-68035524D01*
X98506618Y-68026147D01*
X98482583Y-68021366D01*
X98441487Y-68017319D01*
X98403993Y-68005945D01*
X98369429Y-67987470D01*
X98339139Y-67962611D01*
X98314280Y-67932321D01*
X98295805Y-67897757D01*
X98284431Y-67860263D01*
X98279986Y-67815126D01*
X98279986Y-67176402D01*
X98284431Y-67131265D01*
X98295805Y-67093771D01*
X98314280Y-67059207D01*
X98339139Y-67028917D01*
X98369429Y-67004058D01*
X98403993Y-66985583D01*
X98441487Y-66974209D01*
X98486624Y-66969764D01*
X99225348Y-66969764D01*
X99270485Y-66974209D01*
X99270485Y-66974209D01*
G37*
G36*
X73764499Y-69803445D02*
X73801993Y-69814819D01*
X73836557Y-69833294D01*
X73866847Y-69858153D01*
X73891706Y-69888443D01*
X73910181Y-69923007D01*
X73921555Y-69960501D01*
X73926000Y-70005638D01*
X73926000Y-70744362D01*
X73921555Y-70789499D01*
X73910181Y-70826993D01*
X73891706Y-70861557D01*
X73866847Y-70891847D01*
X73836557Y-70916706D01*
X73801993Y-70935181D01*
X73764499Y-70946555D01*
X73719362Y-70951000D01*
X73080638Y-70951000D01*
X73035501Y-70946555D01*
X72998007Y-70935181D01*
X72963443Y-70916706D01*
X72933153Y-70891847D01*
X72908294Y-70861557D01*
X72889819Y-70826993D01*
X72878445Y-70789499D01*
X72874000Y-70744362D01*
X72874000Y-70005638D01*
X72878445Y-69960501D01*
X72889819Y-69923007D01*
X72908294Y-69888443D01*
X72933153Y-69858153D01*
X72963443Y-69833294D01*
X72998007Y-69814819D01*
X73035501Y-69803445D01*
X73080638Y-69799000D01*
X73719362Y-69799000D01*
X73764499Y-69803445D01*
X73764499Y-69803445D01*
G37*
G36*
X81764499Y-69778445D02*
X81801993Y-69789819D01*
X81836557Y-69808294D01*
X81866847Y-69833153D01*
X81891706Y-69863443D01*
X81910181Y-69898007D01*
X81921555Y-69935501D01*
X81926000Y-69980638D01*
X81926000Y-70719362D01*
X81921555Y-70764499D01*
X81910181Y-70801993D01*
X81891706Y-70836557D01*
X81866847Y-70866847D01*
X81836557Y-70891706D01*
X81801993Y-70910181D01*
X81764499Y-70921555D01*
X81719362Y-70926000D01*
X81080638Y-70926000D01*
X81035501Y-70921555D01*
X80998007Y-70910181D01*
X80963443Y-70891706D01*
X80933153Y-70866847D01*
X80908294Y-70836557D01*
X80889819Y-70801993D01*
X80878445Y-70764499D01*
X80874000Y-70719362D01*
X80874000Y-69980638D01*
X80878445Y-69935501D01*
X80889819Y-69898007D01*
X80908294Y-69863443D01*
X80933153Y-69833153D01*
X80963443Y-69808294D01*
X80998007Y-69789819D01*
X81035501Y-69778445D01*
X81080638Y-69774000D01*
X81719362Y-69774000D01*
X81764499Y-69778445D01*
X81764499Y-69778445D01*
G37*
G36*
X80364499Y-69778445D02*
X80401993Y-69789819D01*
X80436557Y-69808294D01*
X80466847Y-69833153D01*
X80491706Y-69863443D01*
X80510181Y-69898007D01*
X80521555Y-69935501D01*
X80526000Y-69980638D01*
X80526000Y-70719362D01*
X80521555Y-70764499D01*
X80510181Y-70801993D01*
X80491706Y-70836557D01*
X80466847Y-70866847D01*
X80436557Y-70891706D01*
X80401993Y-70910181D01*
X80364499Y-70921555D01*
X80319362Y-70926000D01*
X79680638Y-70926000D01*
X79635501Y-70921555D01*
X79598007Y-70910181D01*
X79563443Y-70891706D01*
X79533153Y-70866847D01*
X79508294Y-70836557D01*
X79489819Y-70801993D01*
X79478445Y-70764499D01*
X79474000Y-70719362D01*
X79474000Y-69980638D01*
X79478445Y-69935501D01*
X79489819Y-69898007D01*
X79508294Y-69863443D01*
X79533153Y-69833153D01*
X79563443Y-69808294D01*
X79598007Y-69789819D01*
X79635501Y-69778445D01*
X79680638Y-69774000D01*
X80319362Y-69774000D01*
X80364499Y-69778445D01*
X80364499Y-69778445D01*
G37*
G36*
X58627618Y-67458420D02*
X58709427Y-67483237D01*
X58750333Y-67495645D01*
X58850491Y-67549181D01*
X58863426Y-67556095D01*
X58962553Y-67637447D01*
X59043905Y-67736574D01*
X59043906Y-67736576D01*
X59104355Y-67849667D01*
X59104382Y-67849757D01*
X59113760Y-67872396D01*
X59127374Y-67892771D01*
X59144701Y-67910098D01*
X59165075Y-67923712D01*
X59187714Y-67933089D01*
X59211748Y-67937870D01*
X59236252Y-67937870D01*
X59260285Y-67933090D01*
X59282924Y-67923712D01*
X59303299Y-67910098D01*
X59320626Y-67892771D01*
X59334240Y-67872397D01*
X59343617Y-67849758D01*
X59348398Y-67825724D01*
X59349000Y-67813472D01*
X59349000Y-67449000D01*
X60651000Y-67449000D01*
X60651000Y-69351000D01*
X59349000Y-69351000D01*
X59349000Y-68986528D01*
X59346598Y-68962142D01*
X59339485Y-68938693D01*
X59327934Y-68917082D01*
X59312388Y-68898140D01*
X59293446Y-68882594D01*
X59271835Y-68871043D01*
X59248386Y-68863930D01*
X59224000Y-68861528D01*
X59199614Y-68863930D01*
X59176165Y-68871043D01*
X59154554Y-68882594D01*
X59135612Y-68898140D01*
X59120066Y-68917082D01*
X59108515Y-68938693D01*
X59104382Y-68950243D01*
X59104355Y-68950333D01*
X59070513Y-69013646D01*
X59043905Y-69063426D01*
X58962553Y-69162553D01*
X58962551Y-69162555D01*
X58896468Y-69216788D01*
X58863425Y-69243905D01*
X58810782Y-69272043D01*
X58750332Y-69304355D01*
X58709599Y-69316711D01*
X58627617Y-69341580D01*
X58500000Y-69354149D01*
X58372382Y-69341580D01*
X58290400Y-69316711D01*
X58249667Y-69304355D01*
X58136576Y-69243906D01*
X58136574Y-69243905D01*
X58037447Y-69162553D01*
X58035568Y-69160263D01*
X57956096Y-69063426D01*
X57956095Y-69063424D01*
X57916479Y-68989309D01*
X57895645Y-68950332D01*
X57869618Y-68864531D01*
X57860240Y-68841892D01*
X57846626Y-68821517D01*
X57829299Y-68804190D01*
X57808925Y-68790576D01*
X57786286Y-68781199D01*
X57762252Y-68776418D01*
X57737748Y-68776418D01*
X57713715Y-68781198D01*
X57691076Y-68790576D01*
X57670701Y-68804190D01*
X57653374Y-68821517D01*
X57639760Y-68841891D01*
X57630384Y-68864526D01*
X57628407Y-68871043D01*
X57604355Y-68950333D01*
X57570513Y-69013646D01*
X57543905Y-69063426D01*
X57462553Y-69162553D01*
X57462551Y-69162555D01*
X57396468Y-69216788D01*
X57363425Y-69243905D01*
X57310782Y-69272043D01*
X57250332Y-69304355D01*
X57209599Y-69316711D01*
X57127617Y-69341580D01*
X57000000Y-69354149D01*
X56872382Y-69341580D01*
X56790400Y-69316711D01*
X56749667Y-69304355D01*
X56636576Y-69243906D01*
X56636574Y-69243905D01*
X56537447Y-69162553D01*
X56535568Y-69160263D01*
X56456096Y-69063426D01*
X56456095Y-69063424D01*
X56416479Y-68989309D01*
X56395645Y-68950332D01*
X56369618Y-68864531D01*
X56360240Y-68841892D01*
X56346626Y-68821517D01*
X56329299Y-68804190D01*
X56308925Y-68790576D01*
X56286286Y-68781199D01*
X56262252Y-68776418D01*
X56237748Y-68776418D01*
X56213715Y-68781198D01*
X56191076Y-68790576D01*
X56170701Y-68804190D01*
X56153374Y-68821517D01*
X56139760Y-68841891D01*
X56130384Y-68864526D01*
X56128407Y-68871043D01*
X56104355Y-68950333D01*
X56070513Y-69013646D01*
X56043905Y-69063426D01*
X55962553Y-69162553D01*
X55962551Y-69162555D01*
X55896468Y-69216788D01*
X55863425Y-69243905D01*
X55810782Y-69272043D01*
X55750332Y-69304355D01*
X55709599Y-69316711D01*
X55627617Y-69341580D01*
X55500000Y-69354149D01*
X55372382Y-69341580D01*
X55290400Y-69316711D01*
X55249667Y-69304355D01*
X55136576Y-69243906D01*
X55136574Y-69243905D01*
X55037447Y-69162553D01*
X55035568Y-69160263D01*
X54956096Y-69063426D01*
X54956095Y-69063424D01*
X54916479Y-68989309D01*
X54895645Y-68950332D01*
X54869618Y-68864531D01*
X54860240Y-68841892D01*
X54846626Y-68821517D01*
X54829299Y-68804190D01*
X54808925Y-68790576D01*
X54786286Y-68781199D01*
X54762252Y-68776418D01*
X54737748Y-68776418D01*
X54713715Y-68781198D01*
X54691076Y-68790576D01*
X54670701Y-68804190D01*
X54653374Y-68821517D01*
X54639760Y-68841891D01*
X54630384Y-68864526D01*
X54628407Y-68871043D01*
X54604355Y-68950333D01*
X54570513Y-69013646D01*
X54543905Y-69063426D01*
X54462553Y-69162553D01*
X54462551Y-69162555D01*
X54396468Y-69216788D01*
X54363425Y-69243905D01*
X54310782Y-69272043D01*
X54250332Y-69304355D01*
X54209599Y-69316711D01*
X54127617Y-69341580D01*
X54000000Y-69354149D01*
X53872382Y-69341580D01*
X53790400Y-69316711D01*
X53749667Y-69304355D01*
X53636576Y-69243906D01*
X53636574Y-69243905D01*
X53537447Y-69162553D01*
X53535568Y-69160263D01*
X53456096Y-69063426D01*
X53456095Y-69063424D01*
X53416479Y-68989309D01*
X53395645Y-68950332D01*
X53369618Y-68864531D01*
X53360240Y-68841892D01*
X53346626Y-68821517D01*
X53329299Y-68804190D01*
X53308925Y-68790576D01*
X53286286Y-68781199D01*
X53262252Y-68776418D01*
X53237748Y-68776418D01*
X53213715Y-68781198D01*
X53191076Y-68790576D01*
X53170701Y-68804190D01*
X53153374Y-68821517D01*
X53139760Y-68841891D01*
X53130384Y-68864526D01*
X53128407Y-68871043D01*
X53104355Y-68950333D01*
X53070513Y-69013646D01*
X53043905Y-69063426D01*
X52962553Y-69162553D01*
X52962551Y-69162555D01*
X52896468Y-69216788D01*
X52863425Y-69243905D01*
X52810782Y-69272043D01*
X52750332Y-69304355D01*
X52709599Y-69316711D01*
X52627617Y-69341580D01*
X52500000Y-69354149D01*
X52372382Y-69341580D01*
X52290400Y-69316711D01*
X52249667Y-69304355D01*
X52136576Y-69243906D01*
X52136574Y-69243905D01*
X52037447Y-69162553D01*
X52035568Y-69160263D01*
X51956096Y-69063426D01*
X51956095Y-69063424D01*
X51916479Y-68989309D01*
X51895645Y-68950332D01*
X51869618Y-68864531D01*
X51858420Y-68827617D01*
X51849000Y-68731972D01*
X51849000Y-68068027D01*
X51849951Y-68058376D01*
X51854772Y-68009424D01*
X51858420Y-67972382D01*
X51888750Y-67872397D01*
X51895645Y-67849667D01*
X51956095Y-67736576D01*
X51956096Y-67736574D01*
X52037448Y-67637447D01*
X52136575Y-67556095D01*
X52149510Y-67549181D01*
X52249668Y-67495645D01*
X52290574Y-67483237D01*
X52372383Y-67458420D01*
X52500000Y-67445851D01*
X52627618Y-67458420D01*
X52709427Y-67483237D01*
X52750333Y-67495645D01*
X52850491Y-67549181D01*
X52863426Y-67556095D01*
X52962553Y-67637447D01*
X53043905Y-67736574D01*
X53043906Y-67736576D01*
X53104355Y-67849667D01*
X53111250Y-67872397D01*
X53130384Y-67935474D01*
X53139760Y-67958108D01*
X53153373Y-67978483D01*
X53170700Y-67995810D01*
X53191075Y-68009424D01*
X53213714Y-68018801D01*
X53237747Y-68023582D01*
X53262252Y-68023582D01*
X53286285Y-68018802D01*
X53308924Y-68009424D01*
X53329299Y-67995811D01*
X53346626Y-67978484D01*
X53360240Y-67958109D01*
X53369616Y-67935474D01*
X53388750Y-67872397D01*
X53395645Y-67849667D01*
X53456095Y-67736576D01*
X53456096Y-67736574D01*
X53537448Y-67637447D01*
X53636575Y-67556095D01*
X53649510Y-67549181D01*
X53749668Y-67495645D01*
X53790574Y-67483237D01*
X53872383Y-67458420D01*
X54000000Y-67445851D01*
X54127618Y-67458420D01*
X54209427Y-67483237D01*
X54250333Y-67495645D01*
X54350491Y-67549181D01*
X54363426Y-67556095D01*
X54462553Y-67637447D01*
X54543905Y-67736574D01*
X54543906Y-67736576D01*
X54604355Y-67849667D01*
X54611250Y-67872397D01*
X54630384Y-67935474D01*
X54639760Y-67958108D01*
X54653373Y-67978483D01*
X54670700Y-67995810D01*
X54691075Y-68009424D01*
X54713714Y-68018801D01*
X54737747Y-68023582D01*
X54762252Y-68023582D01*
X54786285Y-68018802D01*
X54808924Y-68009424D01*
X54829299Y-67995811D01*
X54846626Y-67978484D01*
X54860240Y-67958109D01*
X54869616Y-67935474D01*
X54888750Y-67872397D01*
X54895645Y-67849667D01*
X54956095Y-67736576D01*
X54956096Y-67736574D01*
X55037448Y-67637447D01*
X55136575Y-67556095D01*
X55149510Y-67549181D01*
X55249668Y-67495645D01*
X55290574Y-67483237D01*
X55372383Y-67458420D01*
X55500000Y-67445851D01*
X55627618Y-67458420D01*
X55709427Y-67483237D01*
X55750333Y-67495645D01*
X55850491Y-67549181D01*
X55863426Y-67556095D01*
X55962553Y-67637447D01*
X56043905Y-67736574D01*
X56043906Y-67736576D01*
X56104355Y-67849667D01*
X56111250Y-67872397D01*
X56130384Y-67935474D01*
X56139760Y-67958108D01*
X56153373Y-67978483D01*
X56170700Y-67995810D01*
X56191075Y-68009424D01*
X56213714Y-68018801D01*
X56237747Y-68023582D01*
X56262252Y-68023582D01*
X56286285Y-68018802D01*
X56308924Y-68009424D01*
X56329299Y-67995811D01*
X56346626Y-67978484D01*
X56360240Y-67958109D01*
X56369616Y-67935474D01*
X56388750Y-67872397D01*
X56395645Y-67849667D01*
X56456095Y-67736576D01*
X56456096Y-67736574D01*
X56537448Y-67637447D01*
X56636575Y-67556095D01*
X56649510Y-67549181D01*
X56749668Y-67495645D01*
X56790574Y-67483237D01*
X56872383Y-67458420D01*
X57000000Y-67445851D01*
X57127618Y-67458420D01*
X57209427Y-67483237D01*
X57250333Y-67495645D01*
X57350491Y-67549181D01*
X57363426Y-67556095D01*
X57462553Y-67637447D01*
X57543905Y-67736574D01*
X57543906Y-67736576D01*
X57604355Y-67849667D01*
X57611250Y-67872397D01*
X57630384Y-67935474D01*
X57639760Y-67958108D01*
X57653373Y-67978483D01*
X57670700Y-67995810D01*
X57691075Y-68009424D01*
X57713714Y-68018801D01*
X57737747Y-68023582D01*
X57762252Y-68023582D01*
X57786285Y-68018802D01*
X57808924Y-68009424D01*
X57829299Y-67995811D01*
X57846626Y-67978484D01*
X57860240Y-67958109D01*
X57869616Y-67935474D01*
X57888750Y-67872397D01*
X57895645Y-67849667D01*
X57956095Y-67736576D01*
X57956096Y-67736574D01*
X58037448Y-67637447D01*
X58136575Y-67556095D01*
X58149510Y-67549181D01*
X58249668Y-67495645D01*
X58290574Y-67483237D01*
X58372383Y-67458420D01*
X58500000Y-67445851D01*
X58627618Y-67458420D01*
X58627618Y-67458420D01*
G37*
G36*
X69427618Y-67458420D02*
X69509427Y-67483237D01*
X69550333Y-67495645D01*
X69650491Y-67549181D01*
X69663426Y-67556095D01*
X69762553Y-67637447D01*
X69843905Y-67736574D01*
X69843906Y-67736576D01*
X69904355Y-67849667D01*
X69904382Y-67849757D01*
X69913760Y-67872396D01*
X69927374Y-67892771D01*
X69944701Y-67910098D01*
X69965075Y-67923712D01*
X69987714Y-67933089D01*
X70011748Y-67937870D01*
X70036252Y-67937870D01*
X70060285Y-67933090D01*
X70082924Y-67923712D01*
X70103299Y-67910098D01*
X70120626Y-67892771D01*
X70134240Y-67872397D01*
X70143617Y-67849758D01*
X70148398Y-67825724D01*
X70149000Y-67813472D01*
X70149000Y-67449000D01*
X71451000Y-67449000D01*
X71451000Y-69351000D01*
X70149000Y-69351000D01*
X70149000Y-68986528D01*
X70146598Y-68962142D01*
X70139485Y-68938693D01*
X70127934Y-68917082D01*
X70112388Y-68898140D01*
X70093446Y-68882594D01*
X70071835Y-68871043D01*
X70048386Y-68863930D01*
X70024000Y-68861528D01*
X69999614Y-68863930D01*
X69976165Y-68871043D01*
X69954554Y-68882594D01*
X69935612Y-68898140D01*
X69920066Y-68917082D01*
X69908515Y-68938693D01*
X69904382Y-68950243D01*
X69904355Y-68950333D01*
X69870513Y-69013646D01*
X69843905Y-69063426D01*
X69762553Y-69162553D01*
X69762551Y-69162555D01*
X69696468Y-69216788D01*
X69663425Y-69243905D01*
X69610782Y-69272043D01*
X69550332Y-69304355D01*
X69509599Y-69316711D01*
X69427617Y-69341580D01*
X69300000Y-69354149D01*
X69172382Y-69341580D01*
X69090400Y-69316711D01*
X69049667Y-69304355D01*
X68936576Y-69243906D01*
X68936574Y-69243905D01*
X68837447Y-69162553D01*
X68835568Y-69160263D01*
X68756096Y-69063426D01*
X68756095Y-69063424D01*
X68716479Y-68989309D01*
X68695645Y-68950332D01*
X68669618Y-68864531D01*
X68660240Y-68841892D01*
X68646626Y-68821517D01*
X68629299Y-68804190D01*
X68608925Y-68790576D01*
X68586286Y-68781199D01*
X68562252Y-68776418D01*
X68537748Y-68776418D01*
X68513715Y-68781198D01*
X68491076Y-68790576D01*
X68470701Y-68804190D01*
X68453374Y-68821517D01*
X68439760Y-68841891D01*
X68430384Y-68864526D01*
X68428407Y-68871043D01*
X68404355Y-68950333D01*
X68370513Y-69013646D01*
X68343905Y-69063426D01*
X68262553Y-69162553D01*
X68262551Y-69162555D01*
X68196468Y-69216788D01*
X68163425Y-69243905D01*
X68110782Y-69272043D01*
X68050332Y-69304355D01*
X68009599Y-69316711D01*
X67927617Y-69341580D01*
X67800000Y-69354149D01*
X67672382Y-69341580D01*
X67590400Y-69316711D01*
X67549667Y-69304355D01*
X67436576Y-69243906D01*
X67436574Y-69243905D01*
X67337447Y-69162553D01*
X67335568Y-69160263D01*
X67256096Y-69063426D01*
X67256095Y-69063424D01*
X67216479Y-68989309D01*
X67195645Y-68950332D01*
X67169618Y-68864531D01*
X67160240Y-68841892D01*
X67146626Y-68821517D01*
X67129299Y-68804190D01*
X67108925Y-68790576D01*
X67086286Y-68781199D01*
X67062252Y-68776418D01*
X67037748Y-68776418D01*
X67013715Y-68781198D01*
X66991076Y-68790576D01*
X66970701Y-68804190D01*
X66953374Y-68821517D01*
X66939760Y-68841891D01*
X66930384Y-68864526D01*
X66928407Y-68871043D01*
X66904355Y-68950333D01*
X66870513Y-69013646D01*
X66843905Y-69063426D01*
X66762553Y-69162553D01*
X66762551Y-69162555D01*
X66696468Y-69216788D01*
X66663425Y-69243905D01*
X66610782Y-69272043D01*
X66550332Y-69304355D01*
X66509599Y-69316711D01*
X66427617Y-69341580D01*
X66300000Y-69354149D01*
X66172382Y-69341580D01*
X66090400Y-69316711D01*
X66049667Y-69304355D01*
X65936576Y-69243906D01*
X65936574Y-69243905D01*
X65837447Y-69162553D01*
X65835568Y-69160263D01*
X65756096Y-69063426D01*
X65756095Y-69063424D01*
X65716479Y-68989309D01*
X65695645Y-68950332D01*
X65669618Y-68864531D01*
X65660240Y-68841892D01*
X65646626Y-68821517D01*
X65629299Y-68804190D01*
X65608925Y-68790576D01*
X65586286Y-68781199D01*
X65562252Y-68776418D01*
X65537748Y-68776418D01*
X65513715Y-68781198D01*
X65491076Y-68790576D01*
X65470701Y-68804190D01*
X65453374Y-68821517D01*
X65439760Y-68841891D01*
X65430384Y-68864526D01*
X65428407Y-68871043D01*
X65404355Y-68950333D01*
X65370513Y-69013646D01*
X65343905Y-69063426D01*
X65262553Y-69162553D01*
X65262551Y-69162555D01*
X65196468Y-69216788D01*
X65163425Y-69243905D01*
X65110782Y-69272043D01*
X65050332Y-69304355D01*
X65009599Y-69316711D01*
X64927617Y-69341580D01*
X64800000Y-69354149D01*
X64672382Y-69341580D01*
X64590400Y-69316711D01*
X64549667Y-69304355D01*
X64436576Y-69243906D01*
X64436574Y-69243905D01*
X64337447Y-69162553D01*
X64335568Y-69160263D01*
X64256096Y-69063426D01*
X64256095Y-69063424D01*
X64216479Y-68989309D01*
X64195645Y-68950332D01*
X64169618Y-68864531D01*
X64160240Y-68841892D01*
X64146626Y-68821517D01*
X64129299Y-68804190D01*
X64108925Y-68790576D01*
X64086286Y-68781199D01*
X64062252Y-68776418D01*
X64037748Y-68776418D01*
X64013715Y-68781198D01*
X63991076Y-68790576D01*
X63970701Y-68804190D01*
X63953374Y-68821517D01*
X63939760Y-68841891D01*
X63930384Y-68864526D01*
X63928407Y-68871043D01*
X63904355Y-68950333D01*
X63870513Y-69013646D01*
X63843905Y-69063426D01*
X63762553Y-69162553D01*
X63762551Y-69162555D01*
X63696468Y-69216788D01*
X63663425Y-69243905D01*
X63610782Y-69272043D01*
X63550332Y-69304355D01*
X63509599Y-69316711D01*
X63427617Y-69341580D01*
X63300000Y-69354149D01*
X63172382Y-69341580D01*
X63090400Y-69316711D01*
X63049667Y-69304355D01*
X62936576Y-69243906D01*
X62936574Y-69243905D01*
X62837447Y-69162553D01*
X62835568Y-69160263D01*
X62756096Y-69063426D01*
X62756095Y-69063424D01*
X62716479Y-68989309D01*
X62695645Y-68950332D01*
X62669618Y-68864531D01*
X62658420Y-68827617D01*
X62649000Y-68731972D01*
X62649000Y-68068027D01*
X62649951Y-68058376D01*
X62654772Y-68009424D01*
X62658420Y-67972382D01*
X62688750Y-67872397D01*
X62695645Y-67849667D01*
X62756095Y-67736576D01*
X62756096Y-67736574D01*
X62837448Y-67637447D01*
X62936575Y-67556095D01*
X62949510Y-67549181D01*
X63049668Y-67495645D01*
X63090574Y-67483237D01*
X63172383Y-67458420D01*
X63300000Y-67445851D01*
X63427618Y-67458420D01*
X63509427Y-67483237D01*
X63550333Y-67495645D01*
X63650491Y-67549181D01*
X63663426Y-67556095D01*
X63762553Y-67637447D01*
X63843905Y-67736574D01*
X63843906Y-67736576D01*
X63904355Y-67849667D01*
X63911250Y-67872397D01*
X63930384Y-67935474D01*
X63939760Y-67958108D01*
X63953373Y-67978483D01*
X63970700Y-67995810D01*
X63991075Y-68009424D01*
X64013714Y-68018801D01*
X64037747Y-68023582D01*
X64062252Y-68023582D01*
X64086285Y-68018802D01*
X64108924Y-68009424D01*
X64129299Y-67995811D01*
X64146626Y-67978484D01*
X64160240Y-67958109D01*
X64169616Y-67935474D01*
X64188750Y-67872397D01*
X64195645Y-67849667D01*
X64256095Y-67736576D01*
X64256096Y-67736574D01*
X64337448Y-67637447D01*
X64436575Y-67556095D01*
X64449510Y-67549181D01*
X64549668Y-67495645D01*
X64590574Y-67483237D01*
X64672383Y-67458420D01*
X64800000Y-67445851D01*
X64927618Y-67458420D01*
X65009427Y-67483237D01*
X65050333Y-67495645D01*
X65150491Y-67549181D01*
X65163426Y-67556095D01*
X65262553Y-67637447D01*
X65343905Y-67736574D01*
X65343906Y-67736576D01*
X65404355Y-67849667D01*
X65411250Y-67872397D01*
X65430384Y-67935474D01*
X65439760Y-67958108D01*
X65453373Y-67978483D01*
X65470700Y-67995810D01*
X65491075Y-68009424D01*
X65513714Y-68018801D01*
X65537747Y-68023582D01*
X65562252Y-68023582D01*
X65586285Y-68018802D01*
X65608924Y-68009424D01*
X65629299Y-67995811D01*
X65646626Y-67978484D01*
X65660240Y-67958109D01*
X65669616Y-67935474D01*
X65688750Y-67872397D01*
X65695645Y-67849667D01*
X65756095Y-67736576D01*
X65756096Y-67736574D01*
X65837448Y-67637447D01*
X65936575Y-67556095D01*
X65949510Y-67549181D01*
X66049668Y-67495645D01*
X66090574Y-67483237D01*
X66172383Y-67458420D01*
X66300000Y-67445851D01*
X66427618Y-67458420D01*
X66509427Y-67483237D01*
X66550333Y-67495645D01*
X66650491Y-67549181D01*
X66663426Y-67556095D01*
X66762553Y-67637447D01*
X66843905Y-67736574D01*
X66843906Y-67736576D01*
X66904355Y-67849667D01*
X66911250Y-67872397D01*
X66930384Y-67935474D01*
X66939760Y-67958108D01*
X66953373Y-67978483D01*
X66970700Y-67995810D01*
X66991075Y-68009424D01*
X67013714Y-68018801D01*
X67037747Y-68023582D01*
X67062252Y-68023582D01*
X67086285Y-68018802D01*
X67108924Y-68009424D01*
X67129299Y-67995811D01*
X67146626Y-67978484D01*
X67160240Y-67958109D01*
X67169616Y-67935474D01*
X67188750Y-67872397D01*
X67195645Y-67849667D01*
X67256095Y-67736576D01*
X67256096Y-67736574D01*
X67337448Y-67637447D01*
X67436575Y-67556095D01*
X67449510Y-67549181D01*
X67549668Y-67495645D01*
X67590574Y-67483237D01*
X67672383Y-67458420D01*
X67800000Y-67445851D01*
X67927618Y-67458420D01*
X68009427Y-67483237D01*
X68050333Y-67495645D01*
X68150491Y-67549181D01*
X68163426Y-67556095D01*
X68262553Y-67637447D01*
X68343905Y-67736574D01*
X68343906Y-67736576D01*
X68404355Y-67849667D01*
X68411250Y-67872397D01*
X68430384Y-67935474D01*
X68439760Y-67958108D01*
X68453373Y-67978483D01*
X68470700Y-67995810D01*
X68491075Y-68009424D01*
X68513714Y-68018801D01*
X68537747Y-68023582D01*
X68562252Y-68023582D01*
X68586285Y-68018802D01*
X68608924Y-68009424D01*
X68629299Y-67995811D01*
X68646626Y-67978484D01*
X68660240Y-67958109D01*
X68669616Y-67935474D01*
X68688750Y-67872397D01*
X68695645Y-67849667D01*
X68756095Y-67736576D01*
X68756096Y-67736574D01*
X68837448Y-67637447D01*
X68936575Y-67556095D01*
X68949510Y-67549181D01*
X69049668Y-67495645D01*
X69090574Y-67483237D01*
X69172383Y-67458420D01*
X69300000Y-67445851D01*
X69427618Y-67458420D01*
X69427618Y-67458420D01*
G37*
G36*
X73764499Y-68053445D02*
X73801993Y-68064819D01*
X73836557Y-68083294D01*
X73866847Y-68108153D01*
X73891706Y-68138443D01*
X73910181Y-68173007D01*
X73921555Y-68210501D01*
X73926000Y-68255638D01*
X73926000Y-68994362D01*
X73921555Y-69039499D01*
X73910181Y-69076993D01*
X73891706Y-69111557D01*
X73866847Y-69141847D01*
X73836557Y-69166706D01*
X73801993Y-69185181D01*
X73764499Y-69196555D01*
X73719362Y-69201000D01*
X73080638Y-69201000D01*
X73035501Y-69196555D01*
X72998007Y-69185181D01*
X72963443Y-69166706D01*
X72933153Y-69141847D01*
X72908294Y-69111557D01*
X72889819Y-69076993D01*
X72878445Y-69039499D01*
X72874000Y-68994362D01*
X72874000Y-68255638D01*
X72878445Y-68210501D01*
X72889819Y-68173007D01*
X72908294Y-68138443D01*
X72933153Y-68108153D01*
X72963443Y-68083294D01*
X72998007Y-68064819D01*
X73035501Y-68053445D01*
X73080638Y-68049000D01*
X73719362Y-68049000D01*
X73764499Y-68053445D01*
X73764499Y-68053445D01*
G37*
G36*
X81764499Y-68028445D02*
X81801993Y-68039819D01*
X81836557Y-68058294D01*
X81866847Y-68083153D01*
X81891706Y-68113443D01*
X81910181Y-68148007D01*
X81921555Y-68185501D01*
X81926000Y-68230638D01*
X81926000Y-68969362D01*
X81921555Y-69014499D01*
X81910181Y-69051993D01*
X81891706Y-69086557D01*
X81866847Y-69116847D01*
X81836557Y-69141706D01*
X81801993Y-69160181D01*
X81764499Y-69171555D01*
X81719362Y-69176000D01*
X81080638Y-69176000D01*
X81035501Y-69171555D01*
X80998007Y-69160181D01*
X80963443Y-69141706D01*
X80933153Y-69116847D01*
X80908294Y-69086557D01*
X80889819Y-69051993D01*
X80878445Y-69014499D01*
X80874000Y-68969362D01*
X80874000Y-68230638D01*
X80878445Y-68185501D01*
X80889819Y-68148007D01*
X80908294Y-68113443D01*
X80933153Y-68083153D01*
X80963443Y-68058294D01*
X80998007Y-68039819D01*
X81035501Y-68028445D01*
X81080638Y-68024000D01*
X81719362Y-68024000D01*
X81764499Y-68028445D01*
X81764499Y-68028445D01*
G37*
G36*
X80364499Y-68028445D02*
X80401993Y-68039819D01*
X80436557Y-68058294D01*
X80466847Y-68083153D01*
X80491706Y-68113443D01*
X80510181Y-68148007D01*
X80521555Y-68185501D01*
X80526000Y-68230638D01*
X80526000Y-68969362D01*
X80521555Y-69014499D01*
X80510181Y-69051993D01*
X80491706Y-69086557D01*
X80466847Y-69116847D01*
X80436557Y-69141706D01*
X80401993Y-69160181D01*
X80364499Y-69171555D01*
X80319362Y-69176000D01*
X79680638Y-69176000D01*
X79635501Y-69171555D01*
X79598007Y-69160181D01*
X79563443Y-69141706D01*
X79533153Y-69116847D01*
X79508294Y-69086557D01*
X79489819Y-69051993D01*
X79478445Y-69014499D01*
X79474000Y-68969362D01*
X79474000Y-68230638D01*
X79478445Y-68185501D01*
X79489819Y-68148007D01*
X79508294Y-68113443D01*
X79533153Y-68083153D01*
X79563443Y-68058294D01*
X79598007Y-68039819D01*
X79635501Y-68028445D01*
X79680638Y-68024000D01*
X80319362Y-68024000D01*
X80364499Y-68028445D01*
X80364499Y-68028445D01*
G37*
G36*
X81726000Y-67401000D02*
X73074000Y-67401000D01*
X73074000Y-65799000D01*
X81726000Y-65799000D01*
X81726000Y-67401000D01*
X81726000Y-67401000D01*
G37*
G36*
X87950316Y-63845153D02*
X87950318Y-63845154D01*
X87950319Y-63845154D01*
X88031056Y-63878597D01*
X88168888Y-63935688D01*
X88267576Y-64001629D01*
X88365593Y-64067122D01*
X88532878Y-64234407D01*
X88598371Y-64332424D01*
X88664312Y-64431112D01*
X88754847Y-64649684D01*
X88801000Y-64881710D01*
X88801000Y-65118290D01*
X88754847Y-65350316D01*
X88664312Y-65568888D01*
X88598371Y-65667576D01*
X88532878Y-65765593D01*
X88365593Y-65932878D01*
X88267576Y-65998371D01*
X88168888Y-66064312D01*
X88031056Y-66121403D01*
X87950319Y-66154846D01*
X87950318Y-66154846D01*
X87950316Y-66154847D01*
X87718290Y-66201000D01*
X87481710Y-66201000D01*
X87249684Y-66154847D01*
X87249682Y-66154846D01*
X87249681Y-66154846D01*
X87168944Y-66121403D01*
X87031112Y-66064312D01*
X86932424Y-65998371D01*
X86834407Y-65932878D01*
X86667122Y-65765593D01*
X86601629Y-65667576D01*
X86535688Y-65568888D01*
X86445153Y-65350316D01*
X86399000Y-65118290D01*
X86399000Y-64881710D01*
X86445153Y-64649684D01*
X86535688Y-64431112D01*
X86601629Y-64332424D01*
X86667122Y-64234407D01*
X86834407Y-64067122D01*
X86932424Y-64001629D01*
X87031112Y-63935688D01*
X87168944Y-63878597D01*
X87249681Y-63845154D01*
X87249682Y-63845154D01*
X87249684Y-63845153D01*
X87481710Y-63799000D01*
X87718290Y-63799000D01*
X87950316Y-63845153D01*
X87950316Y-63845153D01*
G37*
G36*
X72501000Y-65226000D02*
X70899000Y-65226000D01*
X70899000Y-56574000D01*
X72501000Y-56574000D01*
X72501000Y-65226000D01*
X72501000Y-65226000D01*
G37*
G36*
X91564499Y-64078445D02*
X91601993Y-64089819D01*
X91636557Y-64108294D01*
X91666847Y-64133153D01*
X91691706Y-64163443D01*
X91710181Y-64198007D01*
X91721555Y-64235501D01*
X91726000Y-64280638D01*
X91726000Y-65019362D01*
X91721555Y-65064499D01*
X91710181Y-65101993D01*
X91691706Y-65136557D01*
X91666847Y-65166847D01*
X91636557Y-65191706D01*
X91601993Y-65210181D01*
X91564499Y-65221555D01*
X91519362Y-65226000D01*
X90880638Y-65226000D01*
X90835501Y-65221555D01*
X90798007Y-65210181D01*
X90763443Y-65191706D01*
X90733153Y-65166847D01*
X90708294Y-65136557D01*
X90689819Y-65101993D01*
X90678445Y-65064499D01*
X90674000Y-65019362D01*
X90674000Y-64280638D01*
X90678445Y-64235501D01*
X90689819Y-64198007D01*
X90708294Y-64163443D01*
X90733153Y-64133153D01*
X90763443Y-64108294D01*
X90798007Y-64089819D01*
X90835501Y-64078445D01*
X90880638Y-64074000D01*
X91519362Y-64074000D01*
X91564499Y-64078445D01*
X91564499Y-64078445D01*
G37*
G36*
X83901000Y-65226000D02*
X82299000Y-65226000D01*
X82299000Y-56574000D01*
X83901000Y-56574000D01*
X83901000Y-65226000D01*
X83901000Y-65226000D01*
G37*
G36*
X91564499Y-62328445D02*
X91601993Y-62339819D01*
X91636557Y-62358294D01*
X91666847Y-62383153D01*
X91691706Y-62413443D01*
X91710181Y-62448007D01*
X91721555Y-62485501D01*
X91726000Y-62530638D01*
X91726000Y-63269362D01*
X91721555Y-63314499D01*
X91710181Y-63351993D01*
X91691706Y-63386557D01*
X91666847Y-63416847D01*
X91636557Y-63441706D01*
X91601993Y-63460181D01*
X91564499Y-63471555D01*
X91519362Y-63476000D01*
X90880638Y-63476000D01*
X90835501Y-63471555D01*
X90798007Y-63460181D01*
X90763443Y-63441706D01*
X90733153Y-63416847D01*
X90708294Y-63386557D01*
X90689819Y-63351993D01*
X90678445Y-63314499D01*
X90674000Y-63269362D01*
X90674000Y-62530638D01*
X90678445Y-62485501D01*
X90689819Y-62448007D01*
X90708294Y-62413443D01*
X90733153Y-62383153D01*
X90763443Y-62358294D01*
X90798007Y-62339819D01*
X90835501Y-62328445D01*
X90880638Y-62324000D01*
X91519362Y-62324000D01*
X91564499Y-62328445D01*
X91564499Y-62328445D01*
G37*
G36*
X98308015Y-60506973D02*
X98411879Y-60538479D01*
X98507600Y-60589644D01*
X98591501Y-60658499D01*
X98660356Y-60742400D01*
X98711521Y-60838121D01*
X98743027Y-60941985D01*
X98751000Y-61022933D01*
X98751000Y-62577067D01*
X98743027Y-62658015D01*
X98711521Y-62761879D01*
X98660356Y-62857600D01*
X98591501Y-62941501D01*
X98507600Y-63010356D01*
X98411878Y-63061521D01*
X98308014Y-63093027D01*
X98200000Y-63103666D01*
X98091985Y-63093027D01*
X97988121Y-63061521D01*
X97892400Y-63010356D01*
X97808499Y-62941501D01*
X97739644Y-62857600D01*
X97688479Y-62761878D01*
X97656973Y-62658014D01*
X97649000Y-62577066D01*
X97649001Y-61022933D01*
X97656974Y-60941985D01*
X97688480Y-60838121D01*
X97739645Y-60742400D01*
X97808500Y-60658499D01*
X97892401Y-60589644D01*
X97988122Y-60538479D01*
X98091986Y-60506973D01*
X98200000Y-60496334D01*
X98308015Y-60506973D01*
X98308015Y-60506973D01*
G37*
G36*
X91564499Y-60903445D02*
X91601993Y-60914819D01*
X91636557Y-60933294D01*
X91666847Y-60958153D01*
X91691706Y-60988443D01*
X91710181Y-61023007D01*
X91721555Y-61060501D01*
X91726000Y-61105638D01*
X91726000Y-61844362D01*
X91721555Y-61889499D01*
X91710181Y-61926993D01*
X91691706Y-61961557D01*
X91666847Y-61991847D01*
X91636557Y-62016706D01*
X91601993Y-62035181D01*
X91564499Y-62046555D01*
X91519362Y-62051000D01*
X90880638Y-62051000D01*
X90835501Y-62046555D01*
X90798007Y-62035181D01*
X90763443Y-62016706D01*
X90733153Y-61991847D01*
X90708294Y-61961557D01*
X90689819Y-61926993D01*
X90678445Y-61889499D01*
X90674000Y-61844362D01*
X90674000Y-61105638D01*
X90678445Y-61060501D01*
X90689819Y-61023007D01*
X90708294Y-60988443D01*
X90733153Y-60958153D01*
X90763443Y-60933294D01*
X90798007Y-60914819D01*
X90835501Y-60903445D01*
X90880638Y-60899000D01*
X91519362Y-60899000D01*
X91564499Y-60903445D01*
X91564499Y-60903445D01*
G37*
G36*
X94008015Y-59006973D02*
X94111879Y-59038479D01*
X94207600Y-59089644D01*
X94291501Y-59158499D01*
X94360356Y-59242400D01*
X94411521Y-59338121D01*
X94443027Y-59441985D01*
X94451000Y-59522933D01*
X94451000Y-61077067D01*
X94443027Y-61158015D01*
X94411521Y-61261879D01*
X94360356Y-61357600D01*
X94291501Y-61441501D01*
X94207600Y-61510356D01*
X94111878Y-61561521D01*
X94008014Y-61593027D01*
X93900000Y-61603666D01*
X93791985Y-61593027D01*
X93688121Y-61561521D01*
X93592400Y-61510356D01*
X93508499Y-61441501D01*
X93439644Y-61357600D01*
X93388479Y-61261878D01*
X93356973Y-61158014D01*
X93349000Y-61077066D01*
X93349001Y-59522933D01*
X93356974Y-59441985D01*
X93388480Y-59338121D01*
X93439645Y-59242400D01*
X93508500Y-59158499D01*
X93592401Y-59089644D01*
X93688122Y-59038479D01*
X93791986Y-59006973D01*
X93900000Y-58996334D01*
X94008015Y-59006973D01*
X94008015Y-59006973D01*
G37*
G36*
X87950316Y-58945153D02*
X87950318Y-58945154D01*
X87950319Y-58945154D01*
X87952233Y-58945947D01*
X88168888Y-59035688D01*
X88249640Y-59089645D01*
X88365593Y-59167122D01*
X88532878Y-59334407D01*
X88547064Y-59355638D01*
X88664312Y-59531112D01*
X88754847Y-59749684D01*
X88801000Y-59981710D01*
X88801000Y-60218290D01*
X88759684Y-60426000D01*
X88754846Y-60450319D01*
X88731379Y-60506973D01*
X88664312Y-60668888D01*
X88598371Y-60767576D01*
X88532878Y-60865593D01*
X88365593Y-61032878D01*
X88299459Y-61077067D01*
X88168888Y-61164312D01*
X88031056Y-61221403D01*
X87950319Y-61254846D01*
X87950318Y-61254846D01*
X87950316Y-61254847D01*
X87718290Y-61301000D01*
X87481710Y-61301000D01*
X87249684Y-61254847D01*
X87249682Y-61254846D01*
X87249681Y-61254846D01*
X87168944Y-61221403D01*
X87031112Y-61164312D01*
X86900541Y-61077067D01*
X86834407Y-61032878D01*
X86667122Y-60865593D01*
X86601629Y-60767576D01*
X86535688Y-60668888D01*
X86468621Y-60506973D01*
X86445154Y-60450319D01*
X86440317Y-60426000D01*
X86399000Y-60218290D01*
X86399000Y-59981710D01*
X86445153Y-59749684D01*
X86535688Y-59531112D01*
X86652936Y-59355638D01*
X86667122Y-59334407D01*
X86834407Y-59167122D01*
X86950360Y-59089645D01*
X87031112Y-59035688D01*
X87247767Y-58945947D01*
X87249681Y-58945154D01*
X87249682Y-58945154D01*
X87249684Y-58945153D01*
X87481710Y-58899000D01*
X87718290Y-58899000D01*
X87950316Y-58945153D01*
X87950316Y-58945153D01*
G37*
G36*
X91564499Y-59153445D02*
X91601993Y-59164819D01*
X91636557Y-59183294D01*
X91666847Y-59208153D01*
X91691706Y-59238443D01*
X91710181Y-59273007D01*
X91721555Y-59310501D01*
X91726000Y-59355638D01*
X91726000Y-60094362D01*
X91721555Y-60139499D01*
X91710181Y-60176993D01*
X91691706Y-60211557D01*
X91666847Y-60241847D01*
X91636557Y-60266706D01*
X91601993Y-60285181D01*
X91564499Y-60296555D01*
X91519362Y-60301000D01*
X90880638Y-60301000D01*
X90835501Y-60296555D01*
X90798007Y-60285181D01*
X90763443Y-60266706D01*
X90733153Y-60241847D01*
X90708294Y-60211557D01*
X90689819Y-60176993D01*
X90678445Y-60139499D01*
X90674000Y-60094362D01*
X90674000Y-59355638D01*
X90678445Y-59310501D01*
X90689819Y-59273007D01*
X90708294Y-59238443D01*
X90733153Y-59208153D01*
X90763443Y-59183294D01*
X90798007Y-59164819D01*
X90835501Y-59153445D01*
X90880638Y-59149000D01*
X91519362Y-59149000D01*
X91564499Y-59153445D01*
X91564499Y-59153445D01*
G37*
G36*
X96289890Y-57874017D02*
X96408361Y-57923089D01*
X96408364Y-57923091D01*
X96514517Y-57994020D01*
X96514992Y-57994338D01*
X96605662Y-58085008D01*
X96605664Y-58085011D01*
X96605665Y-58085012D01*
X96621669Y-58108964D01*
X96676911Y-58191639D01*
X96725983Y-58310110D01*
X96751000Y-58435881D01*
X96751000Y-58564119D01*
X96725983Y-58689890D01*
X96676911Y-58808361D01*
X96676909Y-58808364D01*
X96641367Y-58861557D01*
X96605662Y-58914992D01*
X96514992Y-59005662D01*
X96514989Y-59005664D01*
X96514988Y-59005665D01*
X96470055Y-59035688D01*
X96408361Y-59076911D01*
X96289890Y-59125983D01*
X96164119Y-59151000D01*
X96035881Y-59151000D01*
X95910110Y-59125983D01*
X95791639Y-59076911D01*
X95729945Y-59035688D01*
X95685012Y-59005665D01*
X95685011Y-59005664D01*
X95685008Y-59005662D01*
X95594338Y-58914992D01*
X95558634Y-58861557D01*
X95523091Y-58808364D01*
X95523089Y-58808361D01*
X95474017Y-58689890D01*
X95449000Y-58564119D01*
X95449000Y-58435881D01*
X95474017Y-58310110D01*
X95523089Y-58191639D01*
X95578331Y-58108964D01*
X95594335Y-58085012D01*
X95594336Y-58085011D01*
X95594338Y-58085008D01*
X95685008Y-57994338D01*
X95685484Y-57994020D01*
X95791636Y-57923091D01*
X95791639Y-57923089D01*
X95910110Y-57874017D01*
X96035881Y-57849000D01*
X96164119Y-57849000D01*
X96289890Y-57874017D01*
X96289890Y-57874017D01*
G37*
G36*
X68314499Y-57978445D02*
X68351993Y-57989819D01*
X68386557Y-58008294D01*
X68416847Y-58033153D01*
X68441706Y-58063443D01*
X68460181Y-58098007D01*
X68471555Y-58135501D01*
X68476000Y-58180638D01*
X68476000Y-58819362D01*
X68471555Y-58864499D01*
X68460181Y-58901993D01*
X68441706Y-58936557D01*
X68416847Y-58966847D01*
X68386557Y-58991706D01*
X68351993Y-59010181D01*
X68314499Y-59021555D01*
X68269362Y-59026000D01*
X67530638Y-59026000D01*
X67485501Y-59021555D01*
X67448007Y-59010181D01*
X67413443Y-58991706D01*
X67383153Y-58966847D01*
X67358294Y-58936557D01*
X67339819Y-58901993D01*
X67328445Y-58864499D01*
X67324000Y-58819362D01*
X67324000Y-58180638D01*
X67328445Y-58135501D01*
X67339819Y-58098007D01*
X67358294Y-58063443D01*
X67383153Y-58033153D01*
X67413443Y-58008294D01*
X67448007Y-57989819D01*
X67485501Y-57978445D01*
X67530638Y-57974000D01*
X68269362Y-57974000D01*
X68314499Y-57978445D01*
X68314499Y-57978445D01*
G37*
G36*
X70064499Y-57978445D02*
X70101993Y-57989819D01*
X70136557Y-58008294D01*
X70166847Y-58033153D01*
X70191706Y-58063443D01*
X70210181Y-58098007D01*
X70221555Y-58135501D01*
X70226000Y-58180638D01*
X70226000Y-58819362D01*
X70221555Y-58864499D01*
X70210181Y-58901993D01*
X70191706Y-58936557D01*
X70166847Y-58966847D01*
X70136557Y-58991706D01*
X70101993Y-59010181D01*
X70064499Y-59021555D01*
X70019362Y-59026000D01*
X69280638Y-59026000D01*
X69235501Y-59021555D01*
X69198007Y-59010181D01*
X69163443Y-58991706D01*
X69133153Y-58966847D01*
X69108294Y-58936557D01*
X69089819Y-58901993D01*
X69078445Y-58864499D01*
X69074000Y-58819362D01*
X69074000Y-58180638D01*
X69078445Y-58135501D01*
X69089819Y-58098007D01*
X69108294Y-58063443D01*
X69133153Y-58033153D01*
X69163443Y-58008294D01*
X69198007Y-57989819D01*
X69235501Y-57978445D01*
X69280638Y-57974000D01*
X70019362Y-57974000D01*
X70064499Y-57978445D01*
X70064499Y-57978445D01*
G37*
G36*
X57864499Y-57803445D02*
X57901993Y-57814819D01*
X57936557Y-57833294D01*
X57966847Y-57858153D01*
X57991706Y-57888443D01*
X58010181Y-57923007D01*
X58021555Y-57960501D01*
X58025602Y-58001597D01*
X58030382Y-58025631D01*
X58039759Y-58048270D01*
X58053373Y-58068645D01*
X58070700Y-58085972D01*
X58091075Y-58099586D01*
X58113714Y-58108963D01*
X58137747Y-58113744D01*
X58162251Y-58113744D01*
X58186285Y-58108964D01*
X58208924Y-58099587D01*
X58229299Y-58085973D01*
X58246626Y-58068646D01*
X58260240Y-58048271D01*
X58269617Y-58025632D01*
X58274398Y-58001597D01*
X58278445Y-57960501D01*
X58289819Y-57923007D01*
X58308294Y-57888443D01*
X58333153Y-57858153D01*
X58363443Y-57833294D01*
X58398007Y-57814819D01*
X58435501Y-57803445D01*
X58480638Y-57799000D01*
X59119362Y-57799000D01*
X59164499Y-57803445D01*
X59201993Y-57814819D01*
X59236557Y-57833294D01*
X59266847Y-57858153D01*
X59291706Y-57888443D01*
X59310181Y-57923007D01*
X59321555Y-57960501D01*
X59326000Y-58005638D01*
X59326000Y-58744362D01*
X59321555Y-58789499D01*
X59310181Y-58826993D01*
X59291706Y-58861557D01*
X59266847Y-58891847D01*
X59236557Y-58916706D01*
X59201993Y-58935181D01*
X59164499Y-58946555D01*
X59119362Y-58951000D01*
X58480638Y-58951000D01*
X58435501Y-58946555D01*
X58398007Y-58935181D01*
X58363443Y-58916706D01*
X58333153Y-58891847D01*
X58308294Y-58861557D01*
X58289819Y-58826993D01*
X58278445Y-58789499D01*
X58274398Y-58748403D01*
X58269618Y-58724369D01*
X58260241Y-58701730D01*
X58246627Y-58681355D01*
X58229300Y-58664028D01*
X58208925Y-58650414D01*
X58186286Y-58641037D01*
X58162253Y-58636256D01*
X58137749Y-58636256D01*
X58113715Y-58641036D01*
X58091076Y-58650413D01*
X58070701Y-58664027D01*
X58053374Y-58681354D01*
X58039760Y-58701729D01*
X58030383Y-58724368D01*
X58025602Y-58748403D01*
X58021555Y-58789499D01*
X58010181Y-58826993D01*
X57991706Y-58861557D01*
X57966847Y-58891847D01*
X57936557Y-58916706D01*
X57901993Y-58935181D01*
X57864499Y-58946555D01*
X57819362Y-58951000D01*
X57180638Y-58951000D01*
X57135501Y-58946555D01*
X57098007Y-58935181D01*
X57063443Y-58916706D01*
X57033153Y-58891847D01*
X57008294Y-58861557D01*
X56989819Y-58826993D01*
X56978445Y-58789499D01*
X56974000Y-58744362D01*
X56974000Y-58005638D01*
X56978445Y-57960501D01*
X56989819Y-57923007D01*
X57008294Y-57888443D01*
X57033153Y-57858153D01*
X57063443Y-57833294D01*
X57098007Y-57814819D01*
X57135501Y-57803445D01*
X57180638Y-57799000D01*
X57819362Y-57799000D01*
X57864499Y-57803445D01*
X57864499Y-57803445D01*
G37*
G36*
X54114499Y-57803445D02*
X54151993Y-57814819D01*
X54186557Y-57833294D01*
X54216847Y-57858153D01*
X54244325Y-57891634D01*
X54253373Y-57905177D01*
X54270701Y-57922504D01*
X54291075Y-57936118D01*
X54313714Y-57945495D01*
X54337747Y-57950276D01*
X54362252Y-57950276D01*
X54386285Y-57945496D01*
X54408924Y-57936118D01*
X54429299Y-57922505D01*
X54446626Y-57905177D01*
X54455673Y-57891637D01*
X54483153Y-57858153D01*
X54513443Y-57833294D01*
X54548007Y-57814819D01*
X54585501Y-57803445D01*
X54630638Y-57799000D01*
X55269362Y-57799000D01*
X55314499Y-57803445D01*
X55351993Y-57814819D01*
X55386557Y-57833294D01*
X55416847Y-57858153D01*
X55444325Y-57891634D01*
X55453373Y-57905177D01*
X55470701Y-57922504D01*
X55491075Y-57936118D01*
X55513714Y-57945495D01*
X55537747Y-57950276D01*
X55562252Y-57950276D01*
X55586285Y-57945496D01*
X55608924Y-57936118D01*
X55629299Y-57922505D01*
X55646626Y-57905177D01*
X55655673Y-57891637D01*
X55683153Y-57858153D01*
X55713443Y-57833294D01*
X55748007Y-57814819D01*
X55785501Y-57803445D01*
X55830638Y-57799000D01*
X56469362Y-57799000D01*
X56514499Y-57803445D01*
X56551993Y-57814819D01*
X56586557Y-57833294D01*
X56616847Y-57858153D01*
X56641706Y-57888443D01*
X56660181Y-57923007D01*
X56671555Y-57960501D01*
X56676000Y-58005638D01*
X56676000Y-58744362D01*
X56671555Y-58789499D01*
X56660181Y-58826993D01*
X56641706Y-58861557D01*
X56616847Y-58891847D01*
X56586557Y-58916706D01*
X56551993Y-58935181D01*
X56514499Y-58946555D01*
X56469362Y-58951000D01*
X55830638Y-58951000D01*
X55785501Y-58946555D01*
X55748007Y-58935181D01*
X55713443Y-58916706D01*
X55683153Y-58891847D01*
X55655675Y-58858366D01*
X55646627Y-58844823D01*
X55629299Y-58827496D01*
X55608925Y-58813882D01*
X55586286Y-58804505D01*
X55562253Y-58799724D01*
X55537748Y-58799724D01*
X55513715Y-58804504D01*
X55491076Y-58813882D01*
X55470701Y-58827495D01*
X55453374Y-58844823D01*
X55444327Y-58858363D01*
X55416847Y-58891847D01*
X55386557Y-58916706D01*
X55351993Y-58935181D01*
X55314499Y-58946555D01*
X55269362Y-58951000D01*
X54630638Y-58951000D01*
X54585501Y-58946555D01*
X54548007Y-58935181D01*
X54513443Y-58916706D01*
X54483153Y-58891847D01*
X54455675Y-58858366D01*
X54446627Y-58844823D01*
X54429299Y-58827496D01*
X54408925Y-58813882D01*
X54386286Y-58804505D01*
X54362253Y-58799724D01*
X54337748Y-58799724D01*
X54313715Y-58804504D01*
X54291076Y-58813882D01*
X54270701Y-58827495D01*
X54253374Y-58844823D01*
X54244327Y-58858363D01*
X54216847Y-58891847D01*
X54186557Y-58916706D01*
X54151993Y-58935181D01*
X54114499Y-58946555D01*
X54069362Y-58951000D01*
X53430638Y-58951000D01*
X53385501Y-58946555D01*
X53348007Y-58935181D01*
X53313443Y-58916706D01*
X53283153Y-58891847D01*
X53258294Y-58861557D01*
X53239819Y-58826993D01*
X53228445Y-58789499D01*
X53224000Y-58744362D01*
X53224000Y-58005638D01*
X53228445Y-57960501D01*
X53239819Y-57923007D01*
X53258294Y-57888443D01*
X53283153Y-57858153D01*
X53313443Y-57833294D01*
X53348007Y-57814819D01*
X53385501Y-57803445D01*
X53430638Y-57799000D01*
X54069362Y-57799000D01*
X54114499Y-57803445D01*
X54114499Y-57803445D01*
G37*
G36*
X94008015Y-55006973D02*
X94111879Y-55038479D01*
X94207600Y-55089644D01*
X94291501Y-55158499D01*
X94360356Y-55242400D01*
X94411521Y-55338121D01*
X94443027Y-55441985D01*
X94451000Y-55522933D01*
X94451000Y-57077067D01*
X94443027Y-57158015D01*
X94411521Y-57261879D01*
X94360356Y-57357600D01*
X94291501Y-57441501D01*
X94207600Y-57510356D01*
X94111878Y-57561521D01*
X94008014Y-57593027D01*
X93900000Y-57603666D01*
X93791985Y-57593027D01*
X93688121Y-57561521D01*
X93592400Y-57510356D01*
X93508499Y-57441501D01*
X93439644Y-57357600D01*
X93388479Y-57261878D01*
X93356973Y-57158014D01*
X93349000Y-57077066D01*
X93349001Y-55522933D01*
X93356974Y-55441985D01*
X93388480Y-55338121D01*
X93439645Y-55242400D01*
X93508500Y-55158499D01*
X93592401Y-55089644D01*
X93688122Y-55038479D01*
X93791986Y-55006973D01*
X93900000Y-54996334D01*
X94008015Y-55006973D01*
X94008015Y-55006973D01*
G37*
G36*
X54114499Y-56053445D02*
X54151993Y-56064819D01*
X54186557Y-56083294D01*
X54216847Y-56108153D01*
X54244325Y-56141634D01*
X54253373Y-56155177D01*
X54270701Y-56172504D01*
X54291075Y-56186118D01*
X54313714Y-56195495D01*
X54337747Y-56200276D01*
X54362252Y-56200276D01*
X54386285Y-56195496D01*
X54408924Y-56186118D01*
X54429299Y-56172505D01*
X54446626Y-56155177D01*
X54455673Y-56141637D01*
X54483153Y-56108153D01*
X54513443Y-56083294D01*
X54548007Y-56064819D01*
X54585501Y-56053445D01*
X54630638Y-56049000D01*
X55269362Y-56049000D01*
X55314499Y-56053445D01*
X55351993Y-56064819D01*
X55386557Y-56083294D01*
X55416847Y-56108153D01*
X55444325Y-56141634D01*
X55453373Y-56155177D01*
X55470701Y-56172504D01*
X55491075Y-56186118D01*
X55513714Y-56195495D01*
X55537747Y-56200276D01*
X55562252Y-56200276D01*
X55586285Y-56195496D01*
X55608924Y-56186118D01*
X55629299Y-56172505D01*
X55646626Y-56155177D01*
X55655673Y-56141637D01*
X55683153Y-56108153D01*
X55713443Y-56083294D01*
X55748007Y-56064819D01*
X55785501Y-56053445D01*
X55830638Y-56049000D01*
X56469362Y-56049000D01*
X56514499Y-56053445D01*
X56551993Y-56064819D01*
X56586557Y-56083294D01*
X56616847Y-56108153D01*
X56641706Y-56138443D01*
X56660181Y-56173007D01*
X56671555Y-56210501D01*
X56676000Y-56255638D01*
X56676000Y-56994362D01*
X56671555Y-57039499D01*
X56660181Y-57076993D01*
X56641706Y-57111557D01*
X56616847Y-57141847D01*
X56586557Y-57166706D01*
X56551993Y-57185181D01*
X56514499Y-57196555D01*
X56469362Y-57201000D01*
X55830638Y-57201000D01*
X55785501Y-57196555D01*
X55748007Y-57185181D01*
X55713443Y-57166706D01*
X55683153Y-57141847D01*
X55655675Y-57108366D01*
X55646627Y-57094823D01*
X55629299Y-57077496D01*
X55608925Y-57063882D01*
X55586286Y-57054505D01*
X55562253Y-57049724D01*
X55537748Y-57049724D01*
X55513715Y-57054504D01*
X55491076Y-57063882D01*
X55470701Y-57077495D01*
X55453374Y-57094823D01*
X55444327Y-57108363D01*
X55416847Y-57141847D01*
X55386557Y-57166706D01*
X55351993Y-57185181D01*
X55314499Y-57196555D01*
X55269362Y-57201000D01*
X54630638Y-57201000D01*
X54585501Y-57196555D01*
X54548007Y-57185181D01*
X54513443Y-57166706D01*
X54483153Y-57141847D01*
X54455675Y-57108366D01*
X54446627Y-57094823D01*
X54429299Y-57077496D01*
X54408925Y-57063882D01*
X54386286Y-57054505D01*
X54362253Y-57049724D01*
X54337748Y-57049724D01*
X54313715Y-57054504D01*
X54291076Y-57063882D01*
X54270701Y-57077495D01*
X54253374Y-57094823D01*
X54244327Y-57108363D01*
X54216847Y-57141847D01*
X54186557Y-57166706D01*
X54151993Y-57185181D01*
X54114499Y-57196555D01*
X54069362Y-57201000D01*
X53430638Y-57201000D01*
X53385501Y-57196555D01*
X53348007Y-57185181D01*
X53313443Y-57166706D01*
X53283153Y-57141847D01*
X53258294Y-57111557D01*
X53239819Y-57076993D01*
X53228445Y-57039499D01*
X53224000Y-56994362D01*
X53224000Y-56255638D01*
X53228445Y-56210501D01*
X53239819Y-56173007D01*
X53258294Y-56138443D01*
X53283153Y-56108153D01*
X53313443Y-56083294D01*
X53348007Y-56064819D01*
X53385501Y-56053445D01*
X53430638Y-56049000D01*
X54069362Y-56049000D01*
X54114499Y-56053445D01*
X54114499Y-56053445D01*
G37*
G36*
X57864499Y-56053445D02*
X57901993Y-56064819D01*
X57936557Y-56083294D01*
X57966847Y-56108153D01*
X57991706Y-56138443D01*
X58010181Y-56173007D01*
X58021555Y-56210501D01*
X58025602Y-56251597D01*
X58030382Y-56275631D01*
X58039759Y-56298270D01*
X58053373Y-56318645D01*
X58070700Y-56335972D01*
X58091075Y-56349586D01*
X58113714Y-56358963D01*
X58137747Y-56363744D01*
X58162251Y-56363744D01*
X58186285Y-56358964D01*
X58208924Y-56349587D01*
X58229299Y-56335973D01*
X58246626Y-56318646D01*
X58260240Y-56298271D01*
X58269617Y-56275632D01*
X58274398Y-56251597D01*
X58278445Y-56210501D01*
X58289819Y-56173007D01*
X58308294Y-56138443D01*
X58333153Y-56108153D01*
X58363443Y-56083294D01*
X58398007Y-56064819D01*
X58435501Y-56053445D01*
X58480638Y-56049000D01*
X59119362Y-56049000D01*
X59164499Y-56053445D01*
X59201993Y-56064819D01*
X59236557Y-56083294D01*
X59266847Y-56108153D01*
X59291706Y-56138443D01*
X59310181Y-56173007D01*
X59321555Y-56210501D01*
X59326000Y-56255638D01*
X59326000Y-56994362D01*
X59321555Y-57039499D01*
X59310181Y-57076993D01*
X59291706Y-57111557D01*
X59266847Y-57141847D01*
X59236557Y-57166706D01*
X59201993Y-57185181D01*
X59164499Y-57196555D01*
X59119362Y-57201000D01*
X58480638Y-57201000D01*
X58435501Y-57196555D01*
X58398007Y-57185181D01*
X58363443Y-57166706D01*
X58333153Y-57141847D01*
X58308294Y-57111557D01*
X58289819Y-57076993D01*
X58278445Y-57039499D01*
X58274398Y-56998403D01*
X58269618Y-56974369D01*
X58260241Y-56951730D01*
X58246627Y-56931355D01*
X58229300Y-56914028D01*
X58208925Y-56900414D01*
X58186286Y-56891037D01*
X58162253Y-56886256D01*
X58137749Y-56886256D01*
X58113715Y-56891036D01*
X58091076Y-56900413D01*
X58070701Y-56914027D01*
X58053374Y-56931354D01*
X58039760Y-56951729D01*
X58030383Y-56974368D01*
X58025602Y-56998403D01*
X58021555Y-57039499D01*
X58010181Y-57076993D01*
X57991706Y-57111557D01*
X57966847Y-57141847D01*
X57936557Y-57166706D01*
X57901993Y-57185181D01*
X57864499Y-57196555D01*
X57819362Y-57201000D01*
X57180638Y-57201000D01*
X57135501Y-57196555D01*
X57098007Y-57185181D01*
X57063443Y-57166706D01*
X57033153Y-57141847D01*
X57008294Y-57111557D01*
X56989819Y-57076993D01*
X56978445Y-57039499D01*
X56974000Y-56994362D01*
X56974000Y-56255638D01*
X56978445Y-56210501D01*
X56989819Y-56173007D01*
X57008294Y-56138443D01*
X57033153Y-56108153D01*
X57063443Y-56083294D01*
X57098007Y-56064819D01*
X57135501Y-56053445D01*
X57180638Y-56049000D01*
X57819362Y-56049000D01*
X57864499Y-56053445D01*
X57864499Y-56053445D01*
G37*
G36*
X70264499Y-55803445D02*
X70301993Y-55814819D01*
X70336557Y-55833294D01*
X70366847Y-55858153D01*
X70391706Y-55888443D01*
X70410181Y-55923007D01*
X70421555Y-55960501D01*
X70426000Y-56005638D01*
X70426000Y-56744362D01*
X70421555Y-56789499D01*
X70410181Y-56826993D01*
X70391706Y-56861557D01*
X70366847Y-56891847D01*
X70336557Y-56916706D01*
X70301993Y-56935181D01*
X70264499Y-56946555D01*
X70219362Y-56951000D01*
X69580638Y-56951000D01*
X69535501Y-56946555D01*
X69498007Y-56935181D01*
X69463443Y-56916706D01*
X69433153Y-56891847D01*
X69408294Y-56861557D01*
X69389819Y-56826993D01*
X69378445Y-56789499D01*
X69374000Y-56744362D01*
X69374000Y-56005638D01*
X69378445Y-55960501D01*
X69389819Y-55923007D01*
X69408294Y-55888443D01*
X69433153Y-55858153D01*
X69463443Y-55833294D01*
X69498007Y-55814819D01*
X69535501Y-55803445D01*
X69580638Y-55799000D01*
X70219362Y-55799000D01*
X70264499Y-55803445D01*
X70264499Y-55803445D01*
G37*
G36*
X68664499Y-55778445D02*
X68701993Y-55789819D01*
X68736557Y-55808294D01*
X68766847Y-55833153D01*
X68791706Y-55863443D01*
X68810181Y-55898007D01*
X68821555Y-55935501D01*
X68826000Y-55980638D01*
X68826000Y-56719362D01*
X68821555Y-56764499D01*
X68810181Y-56801993D01*
X68791706Y-56836557D01*
X68766847Y-56866847D01*
X68736557Y-56891706D01*
X68701993Y-56910181D01*
X68664499Y-56921555D01*
X68619362Y-56926000D01*
X67980638Y-56926000D01*
X67935501Y-56921555D01*
X67898007Y-56910181D01*
X67863443Y-56891706D01*
X67833153Y-56866847D01*
X67808294Y-56836557D01*
X67789819Y-56801993D01*
X67778445Y-56764499D01*
X67774000Y-56719362D01*
X67774000Y-55980638D01*
X67778445Y-55935501D01*
X67789819Y-55898007D01*
X67808294Y-55863443D01*
X67833153Y-55833153D01*
X67863443Y-55808294D01*
X67898007Y-55789819D01*
X67935501Y-55778445D01*
X67980638Y-55774000D01*
X68619362Y-55774000D01*
X68664499Y-55778445D01*
X68664499Y-55778445D01*
G37*
G36*
X81726000Y-56001000D02*
X73074000Y-56001000D01*
X73074000Y-54399000D01*
X81726000Y-54399000D01*
X81726000Y-56001000D01*
X81726000Y-56001000D01*
G37*
G36*
X92001000Y-55401000D02*
X90199000Y-55401000D01*
X90199000Y-53599000D01*
X92001000Y-53599000D01*
X92001000Y-55401000D01*
X92001000Y-55401000D01*
G37*
G36*
X88670443Y-53605519D02*
X88736627Y-53612037D01*
X88849853Y-53646384D01*
X88906467Y-53663557D01*
X89005900Y-53716706D01*
X89062991Y-53747222D01*
X89067594Y-53751000D01*
X89200186Y-53859814D01*
X89283448Y-53961271D01*
X89312778Y-53997009D01*
X89312779Y-53997011D01*
X89396443Y-54153533D01*
X89403582Y-54177067D01*
X89447963Y-54323373D01*
X89465359Y-54500000D01*
X89447963Y-54676627D01*
X89413616Y-54789853D01*
X89396443Y-54846467D01*
X89360880Y-54913000D01*
X89312778Y-55002991D01*
X89283654Y-55038479D01*
X89200186Y-55140186D01*
X89098729Y-55223448D01*
X89062991Y-55252778D01*
X89062989Y-55252779D01*
X88906467Y-55336443D01*
X88849853Y-55353616D01*
X88736627Y-55387963D01*
X88670443Y-55394481D01*
X88604260Y-55401000D01*
X88515740Y-55401000D01*
X88449557Y-55394481D01*
X88383373Y-55387963D01*
X88270147Y-55353616D01*
X88213533Y-55336443D01*
X88057011Y-55252779D01*
X88057009Y-55252778D01*
X88021271Y-55223448D01*
X87919814Y-55140186D01*
X87836346Y-55038479D01*
X87807222Y-55002991D01*
X87759120Y-54913000D01*
X87723557Y-54846467D01*
X87706384Y-54789853D01*
X87672037Y-54676627D01*
X87654641Y-54500000D01*
X87672037Y-54323373D01*
X87716418Y-54177067D01*
X87723557Y-54153533D01*
X87807221Y-53997011D01*
X87807222Y-53997009D01*
X87836552Y-53961271D01*
X87919814Y-53859814D01*
X88052406Y-53751000D01*
X88057009Y-53747222D01*
X88114100Y-53716706D01*
X88213533Y-53663557D01*
X88270147Y-53646384D01*
X88383373Y-53612037D01*
X88449557Y-53605519D01*
X88515740Y-53599000D01*
X88604260Y-53599000D01*
X88670443Y-53605519D01*
X88670443Y-53605519D01*
G37*
G36*
X86130443Y-53605519D02*
X86196627Y-53612037D01*
X86309853Y-53646384D01*
X86366467Y-53663557D01*
X86465900Y-53716706D01*
X86522991Y-53747222D01*
X86527594Y-53751000D01*
X86660186Y-53859814D01*
X86743448Y-53961271D01*
X86772778Y-53997009D01*
X86772779Y-53997011D01*
X86856443Y-54153533D01*
X86863582Y-54177067D01*
X86907963Y-54323373D01*
X86925359Y-54500000D01*
X86907963Y-54676627D01*
X86873616Y-54789853D01*
X86856443Y-54846467D01*
X86820880Y-54913000D01*
X86772778Y-55002991D01*
X86743654Y-55038479D01*
X86660186Y-55140186D01*
X86558729Y-55223448D01*
X86522991Y-55252778D01*
X86522989Y-55252779D01*
X86366467Y-55336443D01*
X86309853Y-55353616D01*
X86196627Y-55387963D01*
X86130443Y-55394481D01*
X86064260Y-55401000D01*
X85975740Y-55401000D01*
X85909557Y-55394481D01*
X85843373Y-55387963D01*
X85730147Y-55353616D01*
X85673533Y-55336443D01*
X85517011Y-55252779D01*
X85517009Y-55252778D01*
X85481271Y-55223448D01*
X85379814Y-55140186D01*
X85296346Y-55038479D01*
X85267222Y-55002991D01*
X85219120Y-54913000D01*
X85183557Y-54846467D01*
X85166384Y-54789853D01*
X85132037Y-54676627D01*
X85114641Y-54500000D01*
X85132037Y-54323373D01*
X85176418Y-54177067D01*
X85183557Y-54153533D01*
X85267221Y-53997011D01*
X85267222Y-53997009D01*
X85296552Y-53961271D01*
X85379814Y-53859814D01*
X85512406Y-53751000D01*
X85517009Y-53747222D01*
X85574100Y-53716706D01*
X85673533Y-53663557D01*
X85730147Y-53646384D01*
X85843373Y-53612037D01*
X85909557Y-53605519D01*
X85975740Y-53599000D01*
X86064260Y-53599000D01*
X86130443Y-53605519D01*
X86130443Y-53605519D01*
G37*
G36*
X70264499Y-54053445D02*
X70301993Y-54064819D01*
X70336557Y-54083294D01*
X70366847Y-54108153D01*
X70391706Y-54138443D01*
X70410181Y-54173007D01*
X70421555Y-54210501D01*
X70426000Y-54255638D01*
X70426000Y-54994362D01*
X70421555Y-55039499D01*
X70410181Y-55076993D01*
X70391706Y-55111557D01*
X70366847Y-55141847D01*
X70336557Y-55166706D01*
X70301993Y-55185181D01*
X70264499Y-55196555D01*
X70219362Y-55201000D01*
X69580638Y-55201000D01*
X69535501Y-55196555D01*
X69498007Y-55185181D01*
X69463443Y-55166706D01*
X69433153Y-55141847D01*
X69408294Y-55111557D01*
X69389819Y-55076993D01*
X69378445Y-55039499D01*
X69374000Y-54994362D01*
X69374000Y-54255638D01*
X69378445Y-54210501D01*
X69389819Y-54173007D01*
X69408294Y-54138443D01*
X69433153Y-54108153D01*
X69463443Y-54083294D01*
X69498007Y-54064819D01*
X69535501Y-54053445D01*
X69580638Y-54049000D01*
X70219362Y-54049000D01*
X70264499Y-54053445D01*
X70264499Y-54053445D01*
G37*
G36*
X68664499Y-54028445D02*
X68701993Y-54039819D01*
X68736557Y-54058294D01*
X68766847Y-54083153D01*
X68791706Y-54113443D01*
X68810181Y-54148007D01*
X68821555Y-54185501D01*
X68826000Y-54230638D01*
X68826000Y-54969362D01*
X68821555Y-55014499D01*
X68810181Y-55051993D01*
X68791706Y-55086557D01*
X68766847Y-55116847D01*
X68736557Y-55141706D01*
X68701993Y-55160181D01*
X68664499Y-55171555D01*
X68619362Y-55176000D01*
X67980638Y-55176000D01*
X67935501Y-55171555D01*
X67898007Y-55160181D01*
X67863443Y-55141706D01*
X67833153Y-55116847D01*
X67808294Y-55086557D01*
X67789819Y-55051993D01*
X67778445Y-55014499D01*
X67774000Y-54969362D01*
X67774000Y-54230638D01*
X67778445Y-54185501D01*
X67789819Y-54148007D01*
X67808294Y-54113443D01*
X67833153Y-54083153D01*
X67863443Y-54058294D01*
X67898007Y-54039819D01*
X67935501Y-54028445D01*
X67980638Y-54024000D01*
X68619362Y-54024000D01*
X68664499Y-54028445D01*
X68664499Y-54028445D01*
G37*
G36*
X57736000Y-52401000D02*
X56388500Y-52401000D01*
X56364114Y-52403402D01*
X56340665Y-52410515D01*
X56319054Y-52422066D01*
X56300112Y-52437612D01*
X56284566Y-52456554D01*
X56273015Y-52478165D01*
X56265902Y-52501614D01*
X56263500Y-52526000D01*
X56263500Y-53194000D01*
X56265902Y-53218386D01*
X56273015Y-53241835D01*
X56284566Y-53263446D01*
X56300112Y-53282388D01*
X56319054Y-53297934D01*
X56340665Y-53309485D01*
X56364114Y-53316598D01*
X56388500Y-53319000D01*
X59486500Y-53319000D01*
X59510886Y-53316598D01*
X59534335Y-53309485D01*
X59555946Y-53297934D01*
X59574888Y-53282388D01*
X59590434Y-53263446D01*
X59601985Y-53241835D01*
X59609098Y-53218386D01*
X59611500Y-53194000D01*
X59611500Y-52526000D01*
X59609098Y-52501614D01*
X59601985Y-52478165D01*
X59590434Y-52456554D01*
X59574888Y-52437612D01*
X59555946Y-52422066D01*
X59534335Y-52410515D01*
X59510886Y-52403402D01*
X59486500Y-52401000D01*
X58139000Y-52401000D01*
X58139000Y-50399000D01*
X62086000Y-50399000D01*
X62086000Y-52401000D01*
X61313500Y-52401000D01*
X61289114Y-52403402D01*
X61265665Y-52410515D01*
X61244054Y-52422066D01*
X61225112Y-52437612D01*
X61209566Y-52456554D01*
X61198015Y-52478165D01*
X61190902Y-52501614D01*
X61188500Y-52526000D01*
X61188500Y-54801000D01*
X54686500Y-54801000D01*
X54686500Y-52526000D01*
X54684098Y-52501614D01*
X54676985Y-52478165D01*
X54665434Y-52456554D01*
X54649888Y-52437612D01*
X54630946Y-52422066D01*
X54609335Y-52410515D01*
X54585886Y-52403402D01*
X54561500Y-52401000D01*
X53789000Y-52401000D01*
X53789000Y-50399000D01*
X57736000Y-50399000D01*
X57736000Y-52401000D01*
X57736000Y-52401000D01*
G37*
G36*
X94008015Y-51906973D02*
X94111879Y-51938479D01*
X94207600Y-51989644D01*
X94291501Y-52058499D01*
X94360356Y-52142400D01*
X94411521Y-52238121D01*
X94443027Y-52341985D01*
X94451000Y-52422933D01*
X94451000Y-54177067D01*
X94443027Y-54258015D01*
X94411521Y-54361879D01*
X94360356Y-54457600D01*
X94291501Y-54541501D01*
X94207600Y-54610356D01*
X94111878Y-54661521D01*
X94008014Y-54693027D01*
X93900000Y-54703666D01*
X93791985Y-54693027D01*
X93688121Y-54661521D01*
X93592400Y-54610356D01*
X93508499Y-54541501D01*
X93439644Y-54457600D01*
X93388479Y-54361878D01*
X93356973Y-54258014D01*
X93349000Y-54177066D01*
X93349001Y-52422933D01*
X93356974Y-52341985D01*
X93388480Y-52238121D01*
X93439645Y-52142400D01*
X93508500Y-52058499D01*
X93592401Y-51989644D01*
X93688122Y-51938479D01*
X93791986Y-51906973D01*
X93900000Y-51896334D01*
X94008015Y-51906973D01*
X94008015Y-51906973D01*
G37*
G36*
X77364499Y-52603445D02*
X77401993Y-52614819D01*
X77436557Y-52633294D01*
X77466847Y-52658153D01*
X77491706Y-52688443D01*
X77510181Y-52723007D01*
X77521555Y-52760501D01*
X77526000Y-52805638D01*
X77526000Y-53544362D01*
X77521555Y-53589499D01*
X77510181Y-53626993D01*
X77491706Y-53661557D01*
X77466847Y-53691847D01*
X77436557Y-53716706D01*
X77401993Y-53735181D01*
X77364499Y-53746555D01*
X77319362Y-53751000D01*
X76680638Y-53751000D01*
X76635501Y-53746555D01*
X76598007Y-53735181D01*
X76563443Y-53716706D01*
X76533153Y-53691847D01*
X76508294Y-53661557D01*
X76489819Y-53626993D01*
X76478445Y-53589499D01*
X76474000Y-53544362D01*
X76474000Y-52805638D01*
X76478445Y-52760501D01*
X76489819Y-52723007D01*
X76508294Y-52688443D01*
X76533153Y-52658153D01*
X76563443Y-52633294D01*
X76598007Y-52614819D01*
X76635501Y-52603445D01*
X76680638Y-52599000D01*
X77319362Y-52599000D01*
X77364499Y-52603445D01*
X77364499Y-52603445D01*
G37*
G36*
X78764499Y-52603445D02*
X78801993Y-52614819D01*
X78836557Y-52633294D01*
X78866847Y-52658153D01*
X78891706Y-52688443D01*
X78910181Y-52723007D01*
X78921555Y-52760501D01*
X78926000Y-52805638D01*
X78926000Y-53544362D01*
X78921555Y-53589499D01*
X78910181Y-53626993D01*
X78891706Y-53661557D01*
X78866847Y-53691847D01*
X78836557Y-53716706D01*
X78801993Y-53735181D01*
X78764499Y-53746555D01*
X78719362Y-53751000D01*
X78080638Y-53751000D01*
X78035501Y-53746555D01*
X77998007Y-53735181D01*
X77963443Y-53716706D01*
X77933153Y-53691847D01*
X77908294Y-53661557D01*
X77889819Y-53626993D01*
X77878445Y-53589499D01*
X77874000Y-53544362D01*
X77874000Y-52805638D01*
X77878445Y-52760501D01*
X77889819Y-52723007D01*
X77908294Y-52688443D01*
X77933153Y-52658153D01*
X77963443Y-52633294D01*
X77998007Y-52614819D01*
X78035501Y-52603445D01*
X78080638Y-52599000D01*
X78719362Y-52599000D01*
X78764499Y-52603445D01*
X78764499Y-52603445D01*
G37*
G36*
X75031000Y-52951000D02*
X72749000Y-52951000D01*
X72749000Y-51249000D01*
X75031000Y-51249000D01*
X75031000Y-52951000D01*
X75031000Y-52951000D01*
G37*
G36*
X65851000Y-52951000D02*
X63569000Y-52951000D01*
X63569000Y-51249000D01*
X65851000Y-51249000D01*
X65851000Y-52951000D01*
X65851000Y-52951000D01*
G37*
G36*
X91210442Y-51065518D02*
X91276627Y-51072037D01*
X91389853Y-51106384D01*
X91446467Y-51123557D01*
X91585087Y-51197652D01*
X91602991Y-51207222D01*
X91638729Y-51236552D01*
X91740186Y-51319814D01*
X91823448Y-51421271D01*
X91852778Y-51457009D01*
X91852779Y-51457011D01*
X91936443Y-51613533D01*
X91936443Y-51613534D01*
X91987963Y-51783373D01*
X92005359Y-51960000D01*
X91987963Y-52136627D01*
X91957175Y-52238121D01*
X91936443Y-52306467D01*
X91885913Y-52401000D01*
X91852778Y-52462991D01*
X91840325Y-52478165D01*
X91740186Y-52600186D01*
X91647767Y-52676031D01*
X91602991Y-52712778D01*
X91602989Y-52712779D01*
X91446467Y-52796443D01*
X91399497Y-52810691D01*
X91276627Y-52847963D01*
X91210442Y-52854482D01*
X91144260Y-52861000D01*
X91055740Y-52861000D01*
X90989558Y-52854482D01*
X90923373Y-52847963D01*
X90800503Y-52810691D01*
X90753533Y-52796443D01*
X90597011Y-52712779D01*
X90597009Y-52712778D01*
X90552233Y-52676031D01*
X90459814Y-52600186D01*
X90359675Y-52478165D01*
X90347222Y-52462991D01*
X90314087Y-52401000D01*
X90263557Y-52306467D01*
X90242825Y-52238121D01*
X90212037Y-52136627D01*
X90194641Y-51960000D01*
X90212037Y-51783373D01*
X90263557Y-51613534D01*
X90263557Y-51613533D01*
X90347221Y-51457011D01*
X90347222Y-51457009D01*
X90376552Y-51421271D01*
X90459814Y-51319814D01*
X90561271Y-51236552D01*
X90597009Y-51207222D01*
X90614913Y-51197652D01*
X90753533Y-51123557D01*
X90810147Y-51106384D01*
X90923373Y-51072037D01*
X90989557Y-51065519D01*
X91055740Y-51059000D01*
X91144260Y-51059000D01*
X91210442Y-51065518D01*
X91210442Y-51065518D01*
G37*
G36*
X88670442Y-51065518D02*
X88736627Y-51072037D01*
X88849853Y-51106384D01*
X88906467Y-51123557D01*
X89045087Y-51197652D01*
X89062991Y-51207222D01*
X89098729Y-51236552D01*
X89200186Y-51319814D01*
X89283448Y-51421271D01*
X89312778Y-51457009D01*
X89312779Y-51457011D01*
X89396443Y-51613533D01*
X89396443Y-51613534D01*
X89447963Y-51783373D01*
X89465359Y-51960000D01*
X89447963Y-52136627D01*
X89417175Y-52238121D01*
X89396443Y-52306467D01*
X89345913Y-52401000D01*
X89312778Y-52462991D01*
X89300325Y-52478165D01*
X89200186Y-52600186D01*
X89107767Y-52676031D01*
X89062991Y-52712778D01*
X89062989Y-52712779D01*
X88906467Y-52796443D01*
X88859497Y-52810691D01*
X88736627Y-52847963D01*
X88670442Y-52854482D01*
X88604260Y-52861000D01*
X88515740Y-52861000D01*
X88449558Y-52854482D01*
X88383373Y-52847963D01*
X88260503Y-52810691D01*
X88213533Y-52796443D01*
X88057011Y-52712779D01*
X88057009Y-52712778D01*
X88012233Y-52676031D01*
X87919814Y-52600186D01*
X87819675Y-52478165D01*
X87807222Y-52462991D01*
X87774087Y-52401000D01*
X87723557Y-52306467D01*
X87702825Y-52238121D01*
X87672037Y-52136627D01*
X87654641Y-51960000D01*
X87672037Y-51783373D01*
X87723557Y-51613534D01*
X87723557Y-51613533D01*
X87807221Y-51457011D01*
X87807222Y-51457009D01*
X87836552Y-51421271D01*
X87919814Y-51319814D01*
X88021271Y-51236552D01*
X88057009Y-51207222D01*
X88074913Y-51197652D01*
X88213533Y-51123557D01*
X88270147Y-51106384D01*
X88383373Y-51072037D01*
X88449557Y-51065519D01*
X88515740Y-51059000D01*
X88604260Y-51059000D01*
X88670442Y-51065518D01*
X88670442Y-51065518D01*
G37*
G36*
X86130442Y-51065518D02*
X86196627Y-51072037D01*
X86309853Y-51106384D01*
X86366467Y-51123557D01*
X86505087Y-51197652D01*
X86522991Y-51207222D01*
X86558729Y-51236552D01*
X86660186Y-51319814D01*
X86743448Y-51421271D01*
X86772778Y-51457009D01*
X86772779Y-51457011D01*
X86856443Y-51613533D01*
X86856443Y-51613534D01*
X86907963Y-51783373D01*
X86925359Y-51960000D01*
X86907963Y-52136627D01*
X86877175Y-52238121D01*
X86856443Y-52306467D01*
X86805913Y-52401000D01*
X86772778Y-52462991D01*
X86760325Y-52478165D01*
X86660186Y-52600186D01*
X86567767Y-52676031D01*
X86522991Y-52712778D01*
X86522989Y-52712779D01*
X86366467Y-52796443D01*
X86319497Y-52810691D01*
X86196627Y-52847963D01*
X86130442Y-52854482D01*
X86064260Y-52861000D01*
X85975740Y-52861000D01*
X85909558Y-52854482D01*
X85843373Y-52847963D01*
X85720503Y-52810691D01*
X85673533Y-52796443D01*
X85517011Y-52712779D01*
X85517009Y-52712778D01*
X85472233Y-52676031D01*
X85379814Y-52600186D01*
X85279675Y-52478165D01*
X85267222Y-52462991D01*
X85234087Y-52401000D01*
X85183557Y-52306467D01*
X85162825Y-52238121D01*
X85132037Y-52136627D01*
X85114641Y-51960000D01*
X85132037Y-51783373D01*
X85183557Y-51613534D01*
X85183557Y-51613533D01*
X85267221Y-51457011D01*
X85267222Y-51457009D01*
X85296552Y-51421271D01*
X85379814Y-51319814D01*
X85481271Y-51236552D01*
X85517009Y-51207222D01*
X85534913Y-51197652D01*
X85673533Y-51123557D01*
X85730147Y-51106384D01*
X85843373Y-51072037D01*
X85909557Y-51065519D01*
X85975740Y-51059000D01*
X86064260Y-51059000D01*
X86130442Y-51065518D01*
X86130442Y-51065518D01*
G37*
G36*
X96289890Y-50874017D02*
X96408361Y-50923089D01*
X96408364Y-50923091D01*
X96472410Y-50965885D01*
X96514992Y-50994338D01*
X96605662Y-51085008D01*
X96676911Y-51191639D01*
X96725983Y-51310110D01*
X96751000Y-51435881D01*
X96751000Y-51564119D01*
X96725983Y-51689890D01*
X96676911Y-51808361D01*
X96676909Y-51808364D01*
X96607958Y-51911557D01*
X96605662Y-51914992D01*
X96514992Y-52005662D01*
X96408361Y-52076911D01*
X96289890Y-52125983D01*
X96164119Y-52151000D01*
X96035881Y-52151000D01*
X95910110Y-52125983D01*
X95791639Y-52076911D01*
X95685008Y-52005662D01*
X95594338Y-51914992D01*
X95592043Y-51911557D01*
X95523091Y-51808364D01*
X95523089Y-51808361D01*
X95474017Y-51689890D01*
X95449000Y-51564119D01*
X95449000Y-51435881D01*
X95474017Y-51310110D01*
X95523089Y-51191639D01*
X95594338Y-51085008D01*
X95685008Y-50994338D01*
X95727591Y-50965885D01*
X95791636Y-50923091D01*
X95791639Y-50923089D01*
X95910110Y-50874017D01*
X96035881Y-50849000D01*
X96164119Y-50849000D01*
X96289890Y-50874017D01*
X96289890Y-50874017D01*
G37*
G36*
X78764499Y-50853445D02*
X78801993Y-50864819D01*
X78836557Y-50883294D01*
X78866847Y-50908153D01*
X78891706Y-50938443D01*
X78910181Y-50973007D01*
X78921555Y-51010501D01*
X78926000Y-51055638D01*
X78926000Y-51794362D01*
X78921555Y-51839499D01*
X78910181Y-51876993D01*
X78891706Y-51911557D01*
X78866847Y-51941847D01*
X78836557Y-51966706D01*
X78801993Y-51985181D01*
X78764499Y-51996555D01*
X78719362Y-52001000D01*
X78080638Y-52001000D01*
X78035501Y-51996555D01*
X77998007Y-51985181D01*
X77963443Y-51966706D01*
X77933153Y-51941847D01*
X77908294Y-51911557D01*
X77889819Y-51876993D01*
X77878445Y-51839499D01*
X77874000Y-51794362D01*
X77874000Y-51055638D01*
X77878445Y-51010501D01*
X77889819Y-50973007D01*
X77908294Y-50938443D01*
X77933153Y-50908153D01*
X77963443Y-50883294D01*
X77998007Y-50864819D01*
X78035501Y-50853445D01*
X78080638Y-50849000D01*
X78719362Y-50849000D01*
X78764499Y-50853445D01*
X78764499Y-50853445D01*
G37*
G36*
X77364499Y-50853445D02*
X77401993Y-50864819D01*
X77436557Y-50883294D01*
X77466847Y-50908153D01*
X77491706Y-50938443D01*
X77510181Y-50973007D01*
X77521555Y-51010501D01*
X77526000Y-51055638D01*
X77526000Y-51794362D01*
X77521555Y-51839499D01*
X77510181Y-51876993D01*
X77491706Y-51911557D01*
X77466847Y-51941847D01*
X77436557Y-51966706D01*
X77401993Y-51985181D01*
X77364499Y-51996555D01*
X77319362Y-52001000D01*
X76680638Y-52001000D01*
X76635501Y-51996555D01*
X76598007Y-51985181D01*
X76563443Y-51966706D01*
X76533153Y-51941847D01*
X76508294Y-51911557D01*
X76489819Y-51876993D01*
X76478445Y-51839499D01*
X76474000Y-51794362D01*
X76474000Y-51055638D01*
X76478445Y-51010501D01*
X76489819Y-50973007D01*
X76508294Y-50938443D01*
X76533153Y-50908153D01*
X76563443Y-50883294D01*
X76598007Y-50864819D01*
X76635501Y-50853445D01*
X76680638Y-50849000D01*
X77319362Y-50849000D01*
X77364499Y-50853445D01*
X77364499Y-50853445D01*
G37*
M02*
