G04 #@! TF.GenerationSoftware,KiCad,Pcbnew,(5.0.2)-1*
G04 #@! TF.CreationDate,2020-04-15T17:47:24+09:00*
G04 #@! TF.ProjectId,controller,636f6e74-726f-46c6-9c65-722e6b696361,rev?*
G04 #@! TF.SameCoordinates,Original*
G04 #@! TF.FileFunction,Profile,NP*
%FSLAX46Y46*%
G04 Gerber Fmt 4.6, Leading zero omitted, Abs format (unit mm)*
G04 Created by KiCad (PCBNEW (5.0.2)-1) date 2020/04/15 17:47:24*
%MOMM*%
%LPD*%
G01*
G04 APERTURE LIST*
%ADD10C,0.150000*%
G04 APERTURE END LIST*
D10*
X100000000Y-75000000D02*
X100000000Y-74500000D01*
X100000000Y-73500000D02*
X100000000Y-73000000D01*
X98000000Y-74500000D02*
X100000000Y-74500000D01*
X98000000Y-74500000D02*
G75*
G02X98000000Y-73500000I0J500000D01*
G01*
X98000000Y-73500000D02*
X100000000Y-73500000D01*
X94000000Y-73500000D02*
G75*
G02X94000000Y-74500000I0J-500000D01*
G01*
X92000000Y-74500000D02*
G75*
G02X92000000Y-73500000I0J500000D01*
G01*
X92000000Y-74500000D02*
X94000000Y-74500000D01*
X86000000Y-74500000D02*
X88000000Y-74500000D01*
X88000000Y-73500000D02*
G75*
G02X88000000Y-74500000I0J-500000D01*
G01*
X92000000Y-73500000D02*
X94000000Y-73500000D01*
X86000000Y-74500000D02*
G75*
G02X86000000Y-73500000I0J500000D01*
G01*
X86000000Y-73500000D02*
X88000000Y-73500000D01*
X80000000Y-74500000D02*
G75*
G02X80000000Y-73500000I0J500000D01*
G01*
X80000000Y-73500000D02*
X82000000Y-73500000D01*
X74000000Y-74500000D02*
X76000000Y-74500000D01*
X74000000Y-74500000D02*
G75*
G02X74000000Y-73500000I0J500000D01*
G01*
X76000000Y-73500000D02*
G75*
G02X76000000Y-74500000I0J-500000D01*
G01*
X80000000Y-74500000D02*
X82000000Y-74500000D01*
X82000000Y-73500000D02*
G75*
G02X82000000Y-74500000I0J-500000D01*
G01*
X74000000Y-73500000D02*
X76000000Y-73500000D01*
X68000000Y-74500000D02*
G75*
G02X68000000Y-73500000I0J500000D01*
G01*
X62000000Y-74500000D02*
G75*
G02X62000000Y-73500000I0J500000D01*
G01*
X68000000Y-74500000D02*
X70000000Y-74500000D01*
X68000000Y-73500000D02*
X70000000Y-73500000D01*
X70000000Y-73500000D02*
G75*
G02X70000000Y-74500000I0J-500000D01*
G01*
X64000000Y-73500000D02*
G75*
G02X64000000Y-74500000I0J-500000D01*
G01*
X62000000Y-74500000D02*
X64000000Y-74500000D01*
X62000000Y-73500000D02*
X64000000Y-73500000D01*
X56000000Y-74500000D02*
G75*
G02X56000000Y-73500000I0J500000D01*
G01*
X58000000Y-73500000D02*
G75*
G02X58000000Y-74500000I0J-500000D01*
G01*
X56000000Y-74500000D02*
X58000000Y-74500000D01*
X56000000Y-73500000D02*
X58000000Y-73500000D01*
X50000000Y-74500000D02*
X50000000Y-75050000D01*
X50000000Y-73500000D02*
X50000000Y-73000000D01*
X52000000Y-73500000D02*
G75*
G02X52000000Y-74500000I0J-500000D01*
G01*
X50000000Y-74500000D02*
X52000000Y-74500000D01*
X50000000Y-73500000D02*
X52000000Y-73500000D01*
X50000000Y-98000000D02*
X100000000Y-98000000D01*
X100000000Y-98000000D02*
X100000000Y-75000000D01*
X50000000Y-75000000D02*
X50000000Y-98000000D01*
X50000000Y-50000000D02*
X50000000Y-73000000D01*
X100000000Y-50000000D02*
X50000000Y-50000000D01*
X100000000Y-73000000D02*
X100000000Y-50000000D01*
M02*
