G04 #@! TF.GenerationSoftware,KiCad,Pcbnew,(5.0.2)-1*
G04 #@! TF.CreationDate,2020-05-18T12:22:33+09:00*
G04 #@! TF.ProjectId,controller,636f6e74-726f-46c6-9c65-722e6b696361,rev?*
G04 #@! TF.SameCoordinates,Original*
G04 #@! TF.FileFunction,Legend,Top*
G04 #@! TF.FilePolarity,Positive*
%FSLAX46Y46*%
G04 Gerber Fmt 4.6, Leading zero omitted, Abs format (unit mm)*
G04 Created by KiCad (PCBNEW (5.0.2)-1) date 2020/05/18 12:22:33*
%MOMM*%
%LPD*%
G01*
G04 APERTURE LIST*
%ADD10C,0.150000*%
%ADD11C,0.200000*%
%ADD12C,0.300000*%
%ADD13C,0.400000*%
G04 APERTURE END LIST*
D10*
X50000000Y-73000000D02*
X100000000Y-73000000D01*
D11*
X52671428Y-83042857D02*
X52585714Y-83128571D01*
X52328571Y-83214285D01*
X52157142Y-83214285D01*
X51900000Y-83128571D01*
X51728571Y-82957142D01*
X51642857Y-82785714D01*
X51557142Y-82442857D01*
X51557142Y-82185714D01*
X51642857Y-81842857D01*
X51728571Y-81671428D01*
X51900000Y-81500000D01*
X52157142Y-81414285D01*
X52328571Y-81414285D01*
X52585714Y-81500000D01*
X52671428Y-81585714D01*
X53700000Y-83214285D02*
X53528571Y-83128571D01*
X53442857Y-83042857D01*
X53357142Y-82871428D01*
X53357142Y-82357142D01*
X53442857Y-82185714D01*
X53528571Y-82100000D01*
X53700000Y-82014285D01*
X53957142Y-82014285D01*
X54128571Y-82100000D01*
X54214285Y-82185714D01*
X54300000Y-82357142D01*
X54300000Y-82871428D01*
X54214285Y-83042857D01*
X54128571Y-83128571D01*
X53957142Y-83214285D01*
X53700000Y-83214285D01*
X55071428Y-82014285D02*
X55071428Y-83214285D01*
X55071428Y-82185714D02*
X55157142Y-82100000D01*
X55328571Y-82014285D01*
X55585714Y-82014285D01*
X55757142Y-82100000D01*
X55842857Y-82271428D01*
X55842857Y-83214285D01*
X56442857Y-82014285D02*
X57128571Y-82014285D01*
X56700000Y-81414285D02*
X56700000Y-82957142D01*
X56785714Y-83128571D01*
X56957142Y-83214285D01*
X57128571Y-83214285D01*
X57728571Y-83214285D02*
X57728571Y-82014285D01*
X57728571Y-82357142D02*
X57814285Y-82185714D01*
X57900000Y-82100000D01*
X58071428Y-82014285D01*
X58242857Y-82014285D01*
X59100000Y-83214285D02*
X58928571Y-83128571D01*
X58842857Y-83042857D01*
X58757142Y-82871428D01*
X58757142Y-82357142D01*
X58842857Y-82185714D01*
X58928571Y-82100000D01*
X59100000Y-82014285D01*
X59357142Y-82014285D01*
X59528571Y-82100000D01*
X59614285Y-82185714D01*
X59700000Y-82357142D01*
X59700000Y-82871428D01*
X59614285Y-83042857D01*
X59528571Y-83128571D01*
X59357142Y-83214285D01*
X59100000Y-83214285D01*
X60728571Y-83214285D02*
X60557142Y-83128571D01*
X60471428Y-82957142D01*
X60471428Y-81414285D01*
X61671428Y-83214285D02*
X61500000Y-83128571D01*
X61414285Y-82957142D01*
X61414285Y-81414285D01*
X63042857Y-83128571D02*
X62871428Y-83214285D01*
X62528571Y-83214285D01*
X62357142Y-83128571D01*
X62271428Y-82957142D01*
X62271428Y-82271428D01*
X62357142Y-82100000D01*
X62528571Y-82014285D01*
X62871428Y-82014285D01*
X63042857Y-82100000D01*
X63128571Y-82271428D01*
X63128571Y-82442857D01*
X62271428Y-82614285D01*
X63900000Y-83214285D02*
X63900000Y-82014285D01*
X63900000Y-82357142D02*
X63985714Y-82185714D01*
X64071428Y-82100000D01*
X64242857Y-82014285D01*
X64414285Y-82014285D01*
X66385714Y-83214285D02*
X66385714Y-81414285D01*
X66385714Y-82100000D02*
X66557142Y-82014285D01*
X66900000Y-82014285D01*
X67071428Y-82100000D01*
X67157142Y-82185714D01*
X67242857Y-82357142D01*
X67242857Y-82871428D01*
X67157142Y-83042857D01*
X67071428Y-83128571D01*
X66900000Y-83214285D01*
X66557142Y-83214285D01*
X66385714Y-83128571D01*
X68271428Y-83214285D02*
X68100000Y-83128571D01*
X68014285Y-83042857D01*
X67928571Y-82871428D01*
X67928571Y-82357142D01*
X68014285Y-82185714D01*
X68100000Y-82100000D01*
X68271428Y-82014285D01*
X68528571Y-82014285D01*
X68700000Y-82100000D01*
X68785714Y-82185714D01*
X68871428Y-82357142D01*
X68871428Y-82871428D01*
X68785714Y-83042857D01*
X68700000Y-83128571D01*
X68528571Y-83214285D01*
X68271428Y-83214285D01*
X70414285Y-83214285D02*
X70414285Y-82271428D01*
X70328571Y-82100000D01*
X70157142Y-82014285D01*
X69814285Y-82014285D01*
X69642857Y-82100000D01*
X70414285Y-83128571D02*
X70242857Y-83214285D01*
X69814285Y-83214285D01*
X69642857Y-83128571D01*
X69557142Y-82957142D01*
X69557142Y-82785714D01*
X69642857Y-82614285D01*
X69814285Y-82528571D01*
X70242857Y-82528571D01*
X70414285Y-82442857D01*
X71271428Y-83214285D02*
X71271428Y-82014285D01*
X71271428Y-82357142D02*
X71357142Y-82185714D01*
X71442857Y-82100000D01*
X71614285Y-82014285D01*
X71785714Y-82014285D01*
X73157142Y-83214285D02*
X73157142Y-81414285D01*
X73157142Y-83128571D02*
X72985714Y-83214285D01*
X72642857Y-83214285D01*
X72471428Y-83128571D01*
X72385714Y-83042857D01*
X72300000Y-82871428D01*
X72300000Y-82357142D01*
X72385714Y-82185714D01*
X72471428Y-82100000D01*
X72642857Y-82014285D01*
X72985714Y-82014285D01*
X73157142Y-82100000D01*
X100000000Y-75000000D02*
X50000000Y-75000000D01*
X51650000Y-96583333D02*
X51650000Y-95183333D01*
X51983333Y-95183333D01*
X52183333Y-95250000D01*
X52316666Y-95383333D01*
X52383333Y-95516666D01*
X52450000Y-95783333D01*
X52450000Y-95983333D01*
X52383333Y-96250000D01*
X52316666Y-96383333D01*
X52183333Y-96516666D01*
X51983333Y-96583333D01*
X51650000Y-96583333D01*
X53583333Y-96516666D02*
X53450000Y-96583333D01*
X53183333Y-96583333D01*
X53050000Y-96516666D01*
X52983333Y-96383333D01*
X52983333Y-95850000D01*
X53050000Y-95716666D01*
X53183333Y-95650000D01*
X53450000Y-95650000D01*
X53583333Y-95716666D01*
X53650000Y-95850000D01*
X53650000Y-95983333D01*
X52983333Y-96116666D01*
X54183333Y-96516666D02*
X54316666Y-96583333D01*
X54583333Y-96583333D01*
X54716666Y-96516666D01*
X54783333Y-96383333D01*
X54783333Y-96316666D01*
X54716666Y-96183333D01*
X54583333Y-96116666D01*
X54383333Y-96116666D01*
X54250000Y-96050000D01*
X54183333Y-95916666D01*
X54183333Y-95850000D01*
X54250000Y-95716666D01*
X54383333Y-95650000D01*
X54583333Y-95650000D01*
X54716666Y-95716666D01*
X55383333Y-96583333D02*
X55383333Y-95650000D01*
X55383333Y-95183333D02*
X55316666Y-95250000D01*
X55383333Y-95316666D01*
X55450000Y-95250000D01*
X55383333Y-95183333D01*
X55383333Y-95316666D01*
X56650000Y-95650000D02*
X56650000Y-96783333D01*
X56583333Y-96916666D01*
X56516666Y-96983333D01*
X56383333Y-97050000D01*
X56183333Y-97050000D01*
X56050000Y-96983333D01*
X56650000Y-96516666D02*
X56516666Y-96583333D01*
X56250000Y-96583333D01*
X56116666Y-96516666D01*
X56050000Y-96450000D01*
X55983333Y-96316666D01*
X55983333Y-95916666D01*
X56050000Y-95783333D01*
X56116666Y-95716666D01*
X56250000Y-95650000D01*
X56516666Y-95650000D01*
X56650000Y-95716666D01*
X57316666Y-95650000D02*
X57316666Y-96583333D01*
X57316666Y-95783333D02*
X57383333Y-95716666D01*
X57516666Y-95650000D01*
X57716666Y-95650000D01*
X57850000Y-95716666D01*
X57916666Y-95850000D01*
X57916666Y-96583333D01*
X59116666Y-96516666D02*
X58983333Y-96583333D01*
X58716666Y-96583333D01*
X58583333Y-96516666D01*
X58516666Y-96383333D01*
X58516666Y-95850000D01*
X58583333Y-95716666D01*
X58716666Y-95650000D01*
X58983333Y-95650000D01*
X59116666Y-95716666D01*
X59183333Y-95850000D01*
X59183333Y-95983333D01*
X58516666Y-96116666D01*
X60383333Y-96583333D02*
X60383333Y-95183333D01*
X60383333Y-96516666D02*
X60250000Y-96583333D01*
X59983333Y-96583333D01*
X59850000Y-96516666D01*
X59783333Y-96450000D01*
X59716666Y-96316666D01*
X59716666Y-95916666D01*
X59783333Y-95783333D01*
X59850000Y-95716666D01*
X59983333Y-95650000D01*
X60250000Y-95650000D01*
X60383333Y-95716666D01*
X62116666Y-96583333D02*
X62116666Y-95183333D01*
X62116666Y-95716666D02*
X62249999Y-95650000D01*
X62516666Y-95650000D01*
X62649999Y-95716666D01*
X62716666Y-95783333D01*
X62783333Y-95916666D01*
X62783333Y-96316666D01*
X62716666Y-96450000D01*
X62649999Y-96516666D01*
X62516666Y-96583333D01*
X62249999Y-96583333D01*
X62116666Y-96516666D01*
X63249999Y-95650000D02*
X63583333Y-96583333D01*
X63916666Y-95650000D02*
X63583333Y-96583333D01*
X63449999Y-96916666D01*
X63383333Y-96983333D01*
X63249999Y-97050000D01*
X65383333Y-95650000D02*
X65716666Y-96583333D01*
X66049999Y-95650000D02*
X65716666Y-96583333D01*
X65583333Y-96916666D01*
X65516666Y-96983333D01*
X65383333Y-97050000D01*
X67183333Y-96583333D02*
X67183333Y-95850000D01*
X67116666Y-95716666D01*
X66983333Y-95650000D01*
X66716666Y-95650000D01*
X66583333Y-95716666D01*
X67183333Y-96516666D02*
X67049999Y-96583333D01*
X66716666Y-96583333D01*
X66583333Y-96516666D01*
X66516666Y-96383333D01*
X66516666Y-96250000D01*
X66583333Y-96116666D01*
X66716666Y-96050000D01*
X67049999Y-96050000D01*
X67183333Y-95983333D01*
X67850000Y-96583333D02*
X67850000Y-95650000D01*
X67850000Y-95783333D02*
X67916666Y-95716666D01*
X68050000Y-95650000D01*
X68250000Y-95650000D01*
X68383333Y-95716666D01*
X68450000Y-95850000D01*
X68450000Y-96583333D01*
X68450000Y-95850000D02*
X68516666Y-95716666D01*
X68650000Y-95650000D01*
X68850000Y-95650000D01*
X68983333Y-95716666D01*
X69050000Y-95850000D01*
X69050000Y-96583333D01*
X70316666Y-96583333D02*
X70316666Y-95850000D01*
X70250000Y-95716666D01*
X70116666Y-95650000D01*
X69850000Y-95650000D01*
X69716666Y-95716666D01*
X70316666Y-96516666D02*
X70183333Y-96583333D01*
X69850000Y-96583333D01*
X69716666Y-96516666D01*
X69650000Y-96383333D01*
X69650000Y-96250000D01*
X69716666Y-96116666D01*
X69850000Y-96050000D01*
X70183333Y-96050000D01*
X70316666Y-95983333D01*
X70983333Y-96583333D02*
X70983333Y-95650000D01*
X70983333Y-95783333D02*
X71050000Y-95716666D01*
X71183333Y-95650000D01*
X71383333Y-95650000D01*
X71516666Y-95716666D01*
X71583333Y-95850000D01*
X71583333Y-96583333D01*
X71583333Y-95850000D02*
X71650000Y-95716666D01*
X71783333Y-95650000D01*
X71983333Y-95650000D01*
X72116666Y-95716666D01*
X72183333Y-95850000D01*
X72183333Y-96583333D01*
X73050000Y-96583333D02*
X72916666Y-96516666D01*
X72850000Y-96450000D01*
X72783333Y-96316666D01*
X72783333Y-95916666D01*
X72850000Y-95783333D01*
X72916666Y-95716666D01*
X73050000Y-95650000D01*
X73250000Y-95650000D01*
X73383333Y-95716666D01*
X73450000Y-95783333D01*
X73516666Y-95916666D01*
X73516666Y-96316666D01*
X73450000Y-96450000D01*
X73383333Y-96516666D01*
X73250000Y-96583333D01*
X73050000Y-96583333D01*
X73916666Y-95650000D02*
X74450000Y-95650000D01*
X74116666Y-95183333D02*
X74116666Y-96383333D01*
X74183333Y-96516666D01*
X74316666Y-96583333D01*
X74450000Y-96583333D01*
X74850000Y-96516666D02*
X74983333Y-96583333D01*
X75250000Y-96583333D01*
X75383333Y-96516666D01*
X75450000Y-96383333D01*
X75450000Y-96316666D01*
X75383333Y-96183333D01*
X75250000Y-96116666D01*
X75050000Y-96116666D01*
X74916666Y-96050000D01*
X74850000Y-95916666D01*
X74850000Y-95850000D01*
X74916666Y-95716666D01*
X75050000Y-95650000D01*
X75250000Y-95650000D01*
X75383333Y-95716666D01*
X76650000Y-95650000D02*
X76650000Y-96583333D01*
X76050000Y-95650000D02*
X76050000Y-96383333D01*
X76116666Y-96516666D01*
X76250000Y-96583333D01*
X76450000Y-96583333D01*
X76583333Y-96516666D01*
X76650000Y-96450000D01*
X51657142Y-87192857D02*
X51657142Y-86392857D01*
X51657142Y-86621428D02*
X51714285Y-86507142D01*
X51771428Y-86450000D01*
X51885714Y-86392857D01*
X52000000Y-86392857D01*
X52857142Y-87135714D02*
X52742857Y-87192857D01*
X52514285Y-87192857D01*
X52400000Y-87135714D01*
X52342857Y-87021428D01*
X52342857Y-86564285D01*
X52400000Y-86450000D01*
X52514285Y-86392857D01*
X52742857Y-86392857D01*
X52857142Y-86450000D01*
X52914285Y-86564285D01*
X52914285Y-86678571D01*
X52342857Y-86792857D01*
X53314285Y-86392857D02*
X53600000Y-87192857D01*
X53885714Y-86392857D01*
X55885714Y-87192857D02*
X55200000Y-87192857D01*
X55542857Y-87192857D02*
X55542857Y-85992857D01*
X55428571Y-86164285D01*
X55314285Y-86278571D01*
X55200000Y-86335714D01*
X56400000Y-87078571D02*
X56457142Y-87135714D01*
X56400000Y-87192857D01*
X56342857Y-87135714D01*
X56400000Y-87078571D01*
X56400000Y-87192857D01*
X57200000Y-85992857D02*
X57314285Y-85992857D01*
X57428571Y-86050000D01*
X57485714Y-86107142D01*
X57542857Y-86221428D01*
X57600000Y-86450000D01*
X57600000Y-86735714D01*
X57542857Y-86964285D01*
X57485714Y-87078571D01*
X57428571Y-87135714D01*
X57314285Y-87192857D01*
X57200000Y-87192857D01*
X57085714Y-87135714D01*
X57028571Y-87078571D01*
X56971428Y-86964285D01*
X56914285Y-86735714D01*
X56914285Y-86450000D01*
X56971428Y-86221428D01*
X57028571Y-86107142D01*
X57085714Y-86050000D01*
X57200000Y-85992857D01*
D12*
X51661904Y-80076190D02*
X52147619Y-80238095D01*
X52957142Y-80238095D01*
X53280952Y-80076190D01*
X53442857Y-79914285D01*
X53604761Y-79590476D01*
X53604761Y-79266666D01*
X53442857Y-78942857D01*
X53280952Y-78780952D01*
X52957142Y-78619047D01*
X52309523Y-78457142D01*
X51985714Y-78295238D01*
X51823809Y-78133333D01*
X51661904Y-77809523D01*
X51661904Y-77485714D01*
X51823809Y-77161904D01*
X51985714Y-77000000D01*
X52309523Y-76838095D01*
X53119047Y-76838095D01*
X53604761Y-77000000D01*
X55061904Y-77971428D02*
X55061904Y-81371428D01*
X55061904Y-78133333D02*
X55385714Y-77971428D01*
X56033333Y-77971428D01*
X56357142Y-78133333D01*
X56519047Y-78295238D01*
X56680952Y-78619047D01*
X56680952Y-79590476D01*
X56519047Y-79914285D01*
X56357142Y-80076190D01*
X56033333Y-80238095D01*
X55385714Y-80238095D01*
X55061904Y-80076190D01*
X58623809Y-80238095D02*
X58300000Y-80076190D01*
X58138095Y-79752380D01*
X58138095Y-76838095D01*
X59919047Y-80238095D02*
X59919047Y-77971428D01*
X59919047Y-76838095D02*
X59757142Y-77000000D01*
X59919047Y-77161904D01*
X60080952Y-77000000D01*
X59919047Y-76838095D01*
X59919047Y-77161904D01*
X61052380Y-77971428D02*
X62347619Y-77971428D01*
X61538095Y-76838095D02*
X61538095Y-79752380D01*
X61700000Y-80076190D01*
X62023809Y-80238095D01*
X62347619Y-80238095D01*
X66071428Y-80238095D02*
X66071428Y-76838095D01*
X66071428Y-78457142D02*
X68014285Y-78457142D01*
X68014285Y-80238095D02*
X68014285Y-76838095D01*
X69633333Y-80238095D02*
X69633333Y-76838095D01*
X69633333Y-78457142D02*
X71576190Y-78457142D01*
X71576190Y-80238095D02*
X71576190Y-76838095D01*
X73195238Y-80238095D02*
X73195238Y-76838095D01*
X75138095Y-80238095D02*
X73680952Y-78295238D01*
X75138095Y-76838095D02*
X73195238Y-78780952D01*
X77728571Y-78457142D02*
X78214285Y-78619047D01*
X78376190Y-78780952D01*
X78538095Y-79104761D01*
X78538095Y-79590476D01*
X78376190Y-79914285D01*
X78214285Y-80076190D01*
X77890476Y-80238095D01*
X76595238Y-80238095D01*
X76595238Y-76838095D01*
X77728571Y-76838095D01*
X78052380Y-77000000D01*
X78214285Y-77161904D01*
X78376190Y-77485714D01*
X78376190Y-77809523D01*
X78214285Y-78133333D01*
X78052380Y-78295238D01*
X77728571Y-78457142D01*
X76595238Y-78457142D01*
D11*
X52080952Y-84657142D02*
X51647619Y-84657142D01*
X51647619Y-85338095D02*
X51647619Y-84038095D01*
X52266666Y-84038095D01*
X52947619Y-85338095D02*
X52823809Y-85276190D01*
X52761904Y-85214285D01*
X52700000Y-85090476D01*
X52700000Y-84719047D01*
X52761904Y-84595238D01*
X52823809Y-84533333D01*
X52947619Y-84471428D01*
X53133333Y-84471428D01*
X53257142Y-84533333D01*
X53319047Y-84595238D01*
X53380952Y-84719047D01*
X53380952Y-85090476D01*
X53319047Y-85214285D01*
X53257142Y-85276190D01*
X53133333Y-85338095D01*
X52947619Y-85338095D01*
X53938095Y-85338095D02*
X53938095Y-84471428D01*
X53938095Y-84719047D02*
X54000000Y-84595238D01*
X54061904Y-84533333D01*
X54185714Y-84471428D01*
X54309523Y-84471428D01*
X54742857Y-85214285D02*
X54804761Y-85276190D01*
X54742857Y-85338095D01*
X54680952Y-85276190D01*
X54742857Y-85214285D01*
X54742857Y-85338095D01*
X54742857Y-84533333D02*
X54804761Y-84595238D01*
X54742857Y-84657142D01*
X54680952Y-84595238D01*
X54742857Y-84533333D01*
X54742857Y-84657142D01*
X57095238Y-85338095D02*
X56661904Y-84719047D01*
X56352380Y-85338095D02*
X56352380Y-84038095D01*
X56847619Y-84038095D01*
X56971428Y-84100000D01*
X57033333Y-84161904D01*
X57095238Y-84285714D01*
X57095238Y-84471428D01*
X57033333Y-84595238D01*
X56971428Y-84657142D01*
X56847619Y-84719047D01*
X56352380Y-84719047D01*
X57652380Y-85338095D02*
X57652380Y-84471428D01*
X57652380Y-84038095D02*
X57590476Y-84100000D01*
X57652380Y-84161904D01*
X57714285Y-84100000D01*
X57652380Y-84038095D01*
X57652380Y-84161904D01*
X58828571Y-84471428D02*
X58828571Y-85523809D01*
X58766666Y-85647619D01*
X58704761Y-85709523D01*
X58580952Y-85771428D01*
X58395238Y-85771428D01*
X58271428Y-85709523D01*
X58828571Y-85276190D02*
X58704761Y-85338095D01*
X58457142Y-85338095D01*
X58333333Y-85276190D01*
X58271428Y-85214285D01*
X58209523Y-85090476D01*
X58209523Y-84719047D01*
X58271428Y-84595238D01*
X58333333Y-84533333D01*
X58457142Y-84471428D01*
X58704761Y-84471428D01*
X58828571Y-84533333D01*
X59447619Y-85338095D02*
X59447619Y-84038095D01*
X60004761Y-85338095D02*
X60004761Y-84657142D01*
X59942857Y-84533333D01*
X59819047Y-84471428D01*
X59633333Y-84471428D01*
X59509523Y-84533333D01*
X59447619Y-84595238D01*
X60438095Y-84471428D02*
X60933333Y-84471428D01*
X60623809Y-84038095D02*
X60623809Y-85152380D01*
X60685714Y-85276190D01*
X60809523Y-85338095D01*
X60933333Y-85338095D01*
X61366666Y-85338095D02*
X61366666Y-84038095D01*
X61923809Y-85338095D02*
X61923809Y-84657142D01*
X61861904Y-84533333D01*
X61738095Y-84471428D01*
X61552380Y-84471428D01*
X61428571Y-84533333D01*
X61366666Y-84595238D01*
X63100000Y-85338095D02*
X63100000Y-84657142D01*
X63038095Y-84533333D01*
X62914285Y-84471428D01*
X62666666Y-84471428D01*
X62542857Y-84533333D01*
X63100000Y-85276190D02*
X62976190Y-85338095D01*
X62666666Y-85338095D01*
X62542857Y-85276190D01*
X62480952Y-85152380D01*
X62480952Y-85028571D01*
X62542857Y-84904761D01*
X62666666Y-84842857D01*
X62976190Y-84842857D01*
X63100000Y-84780952D01*
X63719047Y-84471428D02*
X63719047Y-85338095D01*
X63719047Y-84595238D02*
X63780952Y-84533333D01*
X63904761Y-84471428D01*
X64090476Y-84471428D01*
X64214285Y-84533333D01*
X64276190Y-84657142D01*
X64276190Y-85338095D01*
X65452380Y-85338095D02*
X65452380Y-84038095D01*
X65452380Y-85276190D02*
X65328571Y-85338095D01*
X65080952Y-85338095D01*
X64957142Y-85276190D01*
X64895238Y-85214285D01*
X64833333Y-85090476D01*
X64833333Y-84719047D01*
X64895238Y-84595238D01*
X64957142Y-84533333D01*
X65080952Y-84471428D01*
X65328571Y-84471428D01*
X65452380Y-84533333D01*
X52111904Y-59657142D02*
X51678571Y-59657142D01*
X51678571Y-60338095D02*
X51678571Y-59038095D01*
X52297619Y-59038095D01*
X52978571Y-60338095D02*
X52854761Y-60276190D01*
X52792857Y-60214285D01*
X52730952Y-60090476D01*
X52730952Y-59719047D01*
X52792857Y-59595238D01*
X52854761Y-59533333D01*
X52978571Y-59471428D01*
X53164285Y-59471428D01*
X53288095Y-59533333D01*
X53350000Y-59595238D01*
X53411904Y-59719047D01*
X53411904Y-60090476D01*
X53350000Y-60214285D01*
X53288095Y-60276190D01*
X53164285Y-60338095D01*
X52978571Y-60338095D01*
X53969047Y-60338095D02*
X53969047Y-59471428D01*
X53969047Y-59719047D02*
X54030952Y-59595238D01*
X54092857Y-59533333D01*
X54216666Y-59471428D01*
X54340476Y-59471428D01*
X54773809Y-60214285D02*
X54835714Y-60276190D01*
X54773809Y-60338095D01*
X54711904Y-60276190D01*
X54773809Y-60214285D01*
X54773809Y-60338095D01*
X54773809Y-59533333D02*
X54835714Y-59595238D01*
X54773809Y-59657142D01*
X54711904Y-59595238D01*
X54773809Y-59533333D01*
X54773809Y-59657142D01*
X57002380Y-60338095D02*
X56383333Y-60338095D01*
X56383333Y-59038095D01*
X57930952Y-60276190D02*
X57807142Y-60338095D01*
X57559523Y-60338095D01*
X57435714Y-60276190D01*
X57373809Y-60152380D01*
X57373809Y-59657142D01*
X57435714Y-59533333D01*
X57559523Y-59471428D01*
X57807142Y-59471428D01*
X57930952Y-59533333D01*
X57992857Y-59657142D01*
X57992857Y-59780952D01*
X57373809Y-59904761D01*
X58364285Y-59471428D02*
X58859523Y-59471428D01*
X58550000Y-60338095D02*
X58550000Y-59223809D01*
X58611904Y-59100000D01*
X58735714Y-59038095D01*
X58859523Y-59038095D01*
X59107142Y-59471428D02*
X59602380Y-59471428D01*
X59292857Y-59038095D02*
X59292857Y-60152380D01*
X59354761Y-60276190D01*
X59478571Y-60338095D01*
X59602380Y-60338095D01*
X60035714Y-60338095D02*
X60035714Y-59038095D01*
X60592857Y-60338095D02*
X60592857Y-59657142D01*
X60530952Y-59533333D01*
X60407142Y-59471428D01*
X60221428Y-59471428D01*
X60097619Y-59533333D01*
X60035714Y-59595238D01*
X61769047Y-60338095D02*
X61769047Y-59657142D01*
X61707142Y-59533333D01*
X61583333Y-59471428D01*
X61335714Y-59471428D01*
X61211904Y-59533333D01*
X61769047Y-60276190D02*
X61645238Y-60338095D01*
X61335714Y-60338095D01*
X61211904Y-60276190D01*
X61150000Y-60152380D01*
X61150000Y-60028571D01*
X61211904Y-59904761D01*
X61335714Y-59842857D01*
X61645238Y-59842857D01*
X61769047Y-59780952D01*
X62388095Y-59471428D02*
X62388095Y-60338095D01*
X62388095Y-59595238D02*
X62450000Y-59533333D01*
X62573809Y-59471428D01*
X62759523Y-59471428D01*
X62883333Y-59533333D01*
X62945238Y-59657142D01*
X62945238Y-60338095D01*
X64121428Y-60338095D02*
X64121428Y-59038095D01*
X64121428Y-60276190D02*
X63997619Y-60338095D01*
X63750000Y-60338095D01*
X63626190Y-60276190D01*
X63564285Y-60214285D01*
X63502380Y-60090476D01*
X63502380Y-59719047D01*
X63564285Y-59595238D01*
X63626190Y-59533333D01*
X63750000Y-59471428D01*
X63997619Y-59471428D01*
X64121428Y-59533333D01*
X51657142Y-61892857D02*
X51657142Y-61092857D01*
X51657142Y-61321428D02*
X51714285Y-61207142D01*
X51771428Y-61150000D01*
X51885714Y-61092857D01*
X52000000Y-61092857D01*
X52857142Y-61835714D02*
X52742857Y-61892857D01*
X52514285Y-61892857D01*
X52400000Y-61835714D01*
X52342857Y-61721428D01*
X52342857Y-61264285D01*
X52400000Y-61150000D01*
X52514285Y-61092857D01*
X52742857Y-61092857D01*
X52857142Y-61150000D01*
X52914285Y-61264285D01*
X52914285Y-61378571D01*
X52342857Y-61492857D01*
X53314285Y-61092857D02*
X53600000Y-61892857D01*
X53885714Y-61092857D01*
X55885714Y-61892857D02*
X55200000Y-61892857D01*
X55542857Y-61892857D02*
X55542857Y-60692857D01*
X55428571Y-60864285D01*
X55314285Y-60978571D01*
X55200000Y-61035714D01*
X56400000Y-61778571D02*
X56457142Y-61835714D01*
X56400000Y-61892857D01*
X56342857Y-61835714D01*
X56400000Y-61778571D01*
X56400000Y-61892857D01*
X57200000Y-60692857D02*
X57314285Y-60692857D01*
X57428571Y-60750000D01*
X57485714Y-60807142D01*
X57542857Y-60921428D01*
X57600000Y-61150000D01*
X57600000Y-61435714D01*
X57542857Y-61664285D01*
X57485714Y-61778571D01*
X57428571Y-61835714D01*
X57314285Y-61892857D01*
X57200000Y-61892857D01*
X57085714Y-61835714D01*
X57028571Y-61778571D01*
X56971428Y-61664285D01*
X56914285Y-61435714D01*
X56914285Y-61150000D01*
X56971428Y-60921428D01*
X57028571Y-60807142D01*
X57085714Y-60750000D01*
X57200000Y-60692857D01*
X52671428Y-58042857D02*
X52585714Y-58128571D01*
X52328571Y-58214285D01*
X52157142Y-58214285D01*
X51900000Y-58128571D01*
X51728571Y-57957142D01*
X51642857Y-57785714D01*
X51557142Y-57442857D01*
X51557142Y-57185714D01*
X51642857Y-56842857D01*
X51728571Y-56671428D01*
X51900000Y-56500000D01*
X52157142Y-56414285D01*
X52328571Y-56414285D01*
X52585714Y-56500000D01*
X52671428Y-56585714D01*
X53700000Y-58214285D02*
X53528571Y-58128571D01*
X53442857Y-58042857D01*
X53357142Y-57871428D01*
X53357142Y-57357142D01*
X53442857Y-57185714D01*
X53528571Y-57100000D01*
X53700000Y-57014285D01*
X53957142Y-57014285D01*
X54128571Y-57100000D01*
X54214285Y-57185714D01*
X54300000Y-57357142D01*
X54300000Y-57871428D01*
X54214285Y-58042857D01*
X54128571Y-58128571D01*
X53957142Y-58214285D01*
X53700000Y-58214285D01*
X55071428Y-57014285D02*
X55071428Y-58214285D01*
X55071428Y-57185714D02*
X55157142Y-57100000D01*
X55328571Y-57014285D01*
X55585714Y-57014285D01*
X55757142Y-57100000D01*
X55842857Y-57271428D01*
X55842857Y-58214285D01*
X56442857Y-57014285D02*
X57128571Y-57014285D01*
X56700000Y-56414285D02*
X56700000Y-57957142D01*
X56785714Y-58128571D01*
X56957142Y-58214285D01*
X57128571Y-58214285D01*
X57728571Y-58214285D02*
X57728571Y-57014285D01*
X57728571Y-57357142D02*
X57814285Y-57185714D01*
X57900000Y-57100000D01*
X58071428Y-57014285D01*
X58242857Y-57014285D01*
X59100000Y-58214285D02*
X58928571Y-58128571D01*
X58842857Y-58042857D01*
X58757142Y-57871428D01*
X58757142Y-57357142D01*
X58842857Y-57185714D01*
X58928571Y-57100000D01*
X59100000Y-57014285D01*
X59357142Y-57014285D01*
X59528571Y-57100000D01*
X59614285Y-57185714D01*
X59700000Y-57357142D01*
X59700000Y-57871428D01*
X59614285Y-58042857D01*
X59528571Y-58128571D01*
X59357142Y-58214285D01*
X59100000Y-58214285D01*
X60728571Y-58214285D02*
X60557142Y-58128571D01*
X60471428Y-57957142D01*
X60471428Y-56414285D01*
X61671428Y-58214285D02*
X61500000Y-58128571D01*
X61414285Y-57957142D01*
X61414285Y-56414285D01*
X63042857Y-58128571D02*
X62871428Y-58214285D01*
X62528571Y-58214285D01*
X62357142Y-58128571D01*
X62271428Y-57957142D01*
X62271428Y-57271428D01*
X62357142Y-57100000D01*
X62528571Y-57014285D01*
X62871428Y-57014285D01*
X63042857Y-57100000D01*
X63128571Y-57271428D01*
X63128571Y-57442857D01*
X62271428Y-57614285D01*
X63900000Y-58214285D02*
X63900000Y-57014285D01*
X63900000Y-57357142D02*
X63985714Y-57185714D01*
X64071428Y-57100000D01*
X64242857Y-57014285D01*
X64414285Y-57014285D01*
X66385714Y-58214285D02*
X66385714Y-56414285D01*
X66385714Y-57100000D02*
X66557142Y-57014285D01*
X66900000Y-57014285D01*
X67071428Y-57100000D01*
X67157142Y-57185714D01*
X67242857Y-57357142D01*
X67242857Y-57871428D01*
X67157142Y-58042857D01*
X67071428Y-58128571D01*
X66900000Y-58214285D01*
X66557142Y-58214285D01*
X66385714Y-58128571D01*
X68271428Y-58214285D02*
X68100000Y-58128571D01*
X68014285Y-58042857D01*
X67928571Y-57871428D01*
X67928571Y-57357142D01*
X68014285Y-57185714D01*
X68100000Y-57100000D01*
X68271428Y-57014285D01*
X68528571Y-57014285D01*
X68700000Y-57100000D01*
X68785714Y-57185714D01*
X68871428Y-57357142D01*
X68871428Y-57871428D01*
X68785714Y-58042857D01*
X68700000Y-58128571D01*
X68528571Y-58214285D01*
X68271428Y-58214285D01*
X70414285Y-58214285D02*
X70414285Y-57271428D01*
X70328571Y-57100000D01*
X70157142Y-57014285D01*
X69814285Y-57014285D01*
X69642857Y-57100000D01*
X70414285Y-58128571D02*
X70242857Y-58214285D01*
X69814285Y-58214285D01*
X69642857Y-58128571D01*
X69557142Y-57957142D01*
X69557142Y-57785714D01*
X69642857Y-57614285D01*
X69814285Y-57528571D01*
X70242857Y-57528571D01*
X70414285Y-57442857D01*
X71271428Y-58214285D02*
X71271428Y-57014285D01*
X71271428Y-57357142D02*
X71357142Y-57185714D01*
X71442857Y-57100000D01*
X71614285Y-57014285D01*
X71785714Y-57014285D01*
X73157142Y-58214285D02*
X73157142Y-56414285D01*
X73157142Y-58128571D02*
X72985714Y-58214285D01*
X72642857Y-58214285D01*
X72471428Y-58128571D01*
X72385714Y-58042857D01*
X72300000Y-57871428D01*
X72300000Y-57357142D01*
X72385714Y-57185714D01*
X72471428Y-57100000D01*
X72642857Y-57014285D01*
X72985714Y-57014285D01*
X73157142Y-57100000D01*
D12*
X51661904Y-55076190D02*
X52147619Y-55238095D01*
X52957142Y-55238095D01*
X53280952Y-55076190D01*
X53442857Y-54914285D01*
X53604761Y-54590476D01*
X53604761Y-54266666D01*
X53442857Y-53942857D01*
X53280952Y-53780952D01*
X52957142Y-53619047D01*
X52309523Y-53457142D01*
X51985714Y-53295238D01*
X51823809Y-53133333D01*
X51661904Y-52809523D01*
X51661904Y-52485714D01*
X51823809Y-52161904D01*
X51985714Y-52000000D01*
X52309523Y-51838095D01*
X53119047Y-51838095D01*
X53604761Y-52000000D01*
X55061904Y-52971428D02*
X55061904Y-56371428D01*
X55061904Y-53133333D02*
X55385714Y-52971428D01*
X56033333Y-52971428D01*
X56357142Y-53133333D01*
X56519047Y-53295238D01*
X56680952Y-53619047D01*
X56680952Y-54590476D01*
X56519047Y-54914285D01*
X56357142Y-55076190D01*
X56033333Y-55238095D01*
X55385714Y-55238095D01*
X55061904Y-55076190D01*
X58623809Y-55238095D02*
X58300000Y-55076190D01*
X58138095Y-54752380D01*
X58138095Y-51838095D01*
X59919047Y-55238095D02*
X59919047Y-52971428D01*
X59919047Y-51838095D02*
X59757142Y-52000000D01*
X59919047Y-52161904D01*
X60080952Y-52000000D01*
X59919047Y-51838095D01*
X59919047Y-52161904D01*
X61052380Y-52971428D02*
X62347619Y-52971428D01*
X61538095Y-51838095D02*
X61538095Y-54752380D01*
X61700000Y-55076190D01*
X62023809Y-55238095D01*
X62347619Y-55238095D01*
X66071428Y-55238095D02*
X66071428Y-51838095D01*
X66071428Y-53457142D02*
X68014285Y-53457142D01*
X68014285Y-55238095D02*
X68014285Y-51838095D01*
X69633333Y-55238095D02*
X69633333Y-51838095D01*
X69633333Y-53457142D02*
X71576190Y-53457142D01*
X71576190Y-55238095D02*
X71576190Y-51838095D01*
X73195238Y-55238095D02*
X73195238Y-51838095D01*
X75138095Y-55238095D02*
X73680952Y-53295238D01*
X75138095Y-51838095D02*
X73195238Y-53780952D01*
X77728571Y-53457142D02*
X78214285Y-53619047D01*
X78376190Y-53780952D01*
X78538095Y-54104761D01*
X78538095Y-54590476D01*
X78376190Y-54914285D01*
X78214285Y-55076190D01*
X77890476Y-55238095D01*
X76595238Y-55238095D01*
X76595238Y-51838095D01*
X77728571Y-51838095D01*
X78052380Y-52000000D01*
X78214285Y-52161904D01*
X78376190Y-52485714D01*
X78376190Y-52809523D01*
X78214285Y-53133333D01*
X78052380Y-53295238D01*
X77728571Y-53457142D01*
X76595238Y-53457142D01*
D11*
X51550000Y-71733333D02*
X51550000Y-70333333D01*
X51883333Y-70333333D01*
X52083333Y-70400000D01*
X52216666Y-70533333D01*
X52283333Y-70666666D01*
X52350000Y-70933333D01*
X52350000Y-71133333D01*
X52283333Y-71400000D01*
X52216666Y-71533333D01*
X52083333Y-71666666D01*
X51883333Y-71733333D01*
X51550000Y-71733333D01*
X53483333Y-71666666D02*
X53350000Y-71733333D01*
X53083333Y-71733333D01*
X52950000Y-71666666D01*
X52883333Y-71533333D01*
X52883333Y-71000000D01*
X52950000Y-70866666D01*
X53083333Y-70800000D01*
X53350000Y-70800000D01*
X53483333Y-70866666D01*
X53550000Y-71000000D01*
X53550000Y-71133333D01*
X52883333Y-71266666D01*
X54083333Y-71666666D02*
X54216666Y-71733333D01*
X54483333Y-71733333D01*
X54616666Y-71666666D01*
X54683333Y-71533333D01*
X54683333Y-71466666D01*
X54616666Y-71333333D01*
X54483333Y-71266666D01*
X54283333Y-71266666D01*
X54150000Y-71200000D01*
X54083333Y-71066666D01*
X54083333Y-71000000D01*
X54150000Y-70866666D01*
X54283333Y-70800000D01*
X54483333Y-70800000D01*
X54616666Y-70866666D01*
X55283333Y-71733333D02*
X55283333Y-70800000D01*
X55283333Y-70333333D02*
X55216666Y-70400000D01*
X55283333Y-70466666D01*
X55350000Y-70400000D01*
X55283333Y-70333333D01*
X55283333Y-70466666D01*
X56550000Y-70800000D02*
X56550000Y-71933333D01*
X56483333Y-72066666D01*
X56416666Y-72133333D01*
X56283333Y-72200000D01*
X56083333Y-72200000D01*
X55950000Y-72133333D01*
X56550000Y-71666666D02*
X56416666Y-71733333D01*
X56150000Y-71733333D01*
X56016666Y-71666666D01*
X55950000Y-71600000D01*
X55883333Y-71466666D01*
X55883333Y-71066666D01*
X55950000Y-70933333D01*
X56016666Y-70866666D01*
X56150000Y-70800000D01*
X56416666Y-70800000D01*
X56550000Y-70866666D01*
X57216666Y-70800000D02*
X57216666Y-71733333D01*
X57216666Y-70933333D02*
X57283333Y-70866666D01*
X57416666Y-70800000D01*
X57616666Y-70800000D01*
X57750000Y-70866666D01*
X57816666Y-71000000D01*
X57816666Y-71733333D01*
X59016666Y-71666666D02*
X58883333Y-71733333D01*
X58616666Y-71733333D01*
X58483333Y-71666666D01*
X58416666Y-71533333D01*
X58416666Y-71000000D01*
X58483333Y-70866666D01*
X58616666Y-70800000D01*
X58883333Y-70800000D01*
X59016666Y-70866666D01*
X59083333Y-71000000D01*
X59083333Y-71133333D01*
X58416666Y-71266666D01*
X60283333Y-71733333D02*
X60283333Y-70333333D01*
X60283333Y-71666666D02*
X60150000Y-71733333D01*
X59883333Y-71733333D01*
X59750000Y-71666666D01*
X59683333Y-71600000D01*
X59616666Y-71466666D01*
X59616666Y-71066666D01*
X59683333Y-70933333D01*
X59750000Y-70866666D01*
X59883333Y-70800000D01*
X60150000Y-70800000D01*
X60283333Y-70866666D01*
X62016666Y-71733333D02*
X62016666Y-70333333D01*
X62016666Y-70866666D02*
X62149999Y-70800000D01*
X62416666Y-70800000D01*
X62549999Y-70866666D01*
X62616666Y-70933333D01*
X62683333Y-71066666D01*
X62683333Y-71466666D01*
X62616666Y-71600000D01*
X62549999Y-71666666D01*
X62416666Y-71733333D01*
X62149999Y-71733333D01*
X62016666Y-71666666D01*
X63149999Y-70800000D02*
X63483333Y-71733333D01*
X63816666Y-70800000D02*
X63483333Y-71733333D01*
X63349999Y-72066666D01*
X63283333Y-72133333D01*
X63149999Y-72200000D01*
X65283333Y-70800000D02*
X65616666Y-71733333D01*
X65949999Y-70800000D02*
X65616666Y-71733333D01*
X65483333Y-72066666D01*
X65416666Y-72133333D01*
X65283333Y-72200000D01*
X67083333Y-71733333D02*
X67083333Y-71000000D01*
X67016666Y-70866666D01*
X66883333Y-70800000D01*
X66616666Y-70800000D01*
X66483333Y-70866666D01*
X67083333Y-71666666D02*
X66949999Y-71733333D01*
X66616666Y-71733333D01*
X66483333Y-71666666D01*
X66416666Y-71533333D01*
X66416666Y-71400000D01*
X66483333Y-71266666D01*
X66616666Y-71200000D01*
X66949999Y-71200000D01*
X67083333Y-71133333D01*
X67750000Y-71733333D02*
X67750000Y-70800000D01*
X67750000Y-70933333D02*
X67816666Y-70866666D01*
X67950000Y-70800000D01*
X68150000Y-70800000D01*
X68283333Y-70866666D01*
X68350000Y-71000000D01*
X68350000Y-71733333D01*
X68350000Y-71000000D02*
X68416666Y-70866666D01*
X68550000Y-70800000D01*
X68750000Y-70800000D01*
X68883333Y-70866666D01*
X68950000Y-71000000D01*
X68950000Y-71733333D01*
X70216666Y-71733333D02*
X70216666Y-71000000D01*
X70150000Y-70866666D01*
X70016666Y-70800000D01*
X69750000Y-70800000D01*
X69616666Y-70866666D01*
X70216666Y-71666666D02*
X70083333Y-71733333D01*
X69750000Y-71733333D01*
X69616666Y-71666666D01*
X69550000Y-71533333D01*
X69550000Y-71400000D01*
X69616666Y-71266666D01*
X69750000Y-71200000D01*
X70083333Y-71200000D01*
X70216666Y-71133333D01*
X70883333Y-71733333D02*
X70883333Y-70800000D01*
X70883333Y-70933333D02*
X70950000Y-70866666D01*
X71083333Y-70800000D01*
X71283333Y-70800000D01*
X71416666Y-70866666D01*
X71483333Y-71000000D01*
X71483333Y-71733333D01*
X71483333Y-71000000D02*
X71550000Y-70866666D01*
X71683333Y-70800000D01*
X71883333Y-70800000D01*
X72016666Y-70866666D01*
X72083333Y-71000000D01*
X72083333Y-71733333D01*
X72950000Y-71733333D02*
X72816666Y-71666666D01*
X72750000Y-71600000D01*
X72683333Y-71466666D01*
X72683333Y-71066666D01*
X72750000Y-70933333D01*
X72816666Y-70866666D01*
X72950000Y-70800000D01*
X73150000Y-70800000D01*
X73283333Y-70866666D01*
X73350000Y-70933333D01*
X73416666Y-71066666D01*
X73416666Y-71466666D01*
X73350000Y-71600000D01*
X73283333Y-71666666D01*
X73150000Y-71733333D01*
X72950000Y-71733333D01*
X73816666Y-70800000D02*
X74350000Y-70800000D01*
X74016666Y-70333333D02*
X74016666Y-71533333D01*
X74083333Y-71666666D01*
X74216666Y-71733333D01*
X74350000Y-71733333D01*
X74750000Y-71666666D02*
X74883333Y-71733333D01*
X75150000Y-71733333D01*
X75283333Y-71666666D01*
X75350000Y-71533333D01*
X75350000Y-71466666D01*
X75283333Y-71333333D01*
X75150000Y-71266666D01*
X74950000Y-71266666D01*
X74816666Y-71200000D01*
X74750000Y-71066666D01*
X74750000Y-71000000D01*
X74816666Y-70866666D01*
X74950000Y-70800000D01*
X75150000Y-70800000D01*
X75283333Y-70866666D01*
X76550000Y-70800000D02*
X76550000Y-71733333D01*
X75950000Y-70800000D02*
X75950000Y-71533333D01*
X76016666Y-71666666D01*
X76150000Y-71733333D01*
X76350000Y-71733333D01*
X76483333Y-71666666D01*
X76550000Y-71600000D01*
D13*
G04 #@! TO.C,REF\002A\002A*
X80094845Y-76996419D02*
X83803581Y-78494845D01*
X83803581Y-78494845D02*
X82305155Y-82203581D01*
X82305155Y-82203581D02*
X78596419Y-80705155D01*
X78596419Y-80705155D02*
X80094845Y-76996419D01*
D11*
X80558436Y-77183722D02*
X80839392Y-76488335D01*
X81253825Y-77464677D02*
X81534780Y-76769289D01*
X81949213Y-77745632D02*
X82230168Y-77050244D01*
X82644601Y-78026587D02*
X82925556Y-77331199D01*
X83339989Y-78307542D02*
X83620944Y-77612154D01*
X82492458Y-81739989D02*
X83187846Y-82020944D01*
X83335323Y-79653825D02*
X84030711Y-79934780D01*
X83054368Y-80349213D02*
X83749756Y-80630168D01*
X82773413Y-81044601D02*
X83468801Y-81325556D01*
X83616278Y-78958436D02*
X84311665Y-79239392D01*
X79755399Y-81173413D02*
X79474444Y-81868801D01*
X81146175Y-81735323D02*
X80865220Y-82430711D01*
X81841564Y-82016278D02*
X81560608Y-82711665D01*
X79060011Y-80892458D02*
X78779056Y-81587846D01*
X80450787Y-81454368D02*
X80169832Y-82149756D01*
X79345632Y-78850787D02*
X78650244Y-78569832D01*
X79626587Y-78155399D02*
X78931199Y-77874444D01*
X79064677Y-79546175D02*
X78369289Y-79265220D01*
X78783722Y-80241564D02*
X78088335Y-79960608D01*
X79907542Y-77460011D02*
X79212154Y-77179056D01*
D10*
X80786907Y-78037851D02*
G75*
G03X80786907Y-78037851I-250000J0D01*
G01*
X81749685Y-78858253D02*
G75*
G03X81749685Y-78858253I-250000J0D01*
G01*
X81749685Y-53858253D02*
G75*
G03X81749685Y-53858253I-250000J0D01*
G01*
X80786907Y-53037851D02*
G75*
G03X80786907Y-53037851I-250000J0D01*
G01*
D11*
X79907542Y-52460011D02*
X79212154Y-52179056D01*
X78783722Y-55241564D02*
X78088335Y-54960608D01*
X79064677Y-54546175D02*
X78369289Y-54265220D01*
X79626587Y-53155399D02*
X78931199Y-52874444D01*
X79345632Y-53850787D02*
X78650244Y-53569832D01*
X80450787Y-56454368D02*
X80169832Y-57149756D01*
X79060011Y-55892458D02*
X78779056Y-56587846D01*
X81841564Y-57016278D02*
X81560608Y-57711665D01*
X81146175Y-56735323D02*
X80865220Y-57430711D01*
X79755399Y-56173413D02*
X79474444Y-56868801D01*
X83616278Y-53958436D02*
X84311665Y-54239392D01*
X82773413Y-56044601D02*
X83468801Y-56325556D01*
X83054368Y-55349213D02*
X83749756Y-55630168D01*
X83335323Y-54653825D02*
X84030711Y-54934780D01*
X82492458Y-56739989D02*
X83187846Y-57020944D01*
X83339989Y-53307542D02*
X83620944Y-52612154D01*
X82644601Y-53026587D02*
X82925556Y-52331199D01*
X81949213Y-52745632D02*
X82230168Y-52050244D01*
X81253825Y-52464677D02*
X81534780Y-51769289D01*
X80558436Y-52183722D02*
X80839392Y-51488335D01*
D13*
X78596419Y-55705155D02*
X80094845Y-51996419D01*
X82305155Y-57203581D02*
X78596419Y-55705155D01*
X83803581Y-53494845D02*
X82305155Y-57203581D01*
X80094845Y-51996419D02*
X83803581Y-53494845D01*
G04 #@! TD*
M02*
