M48
;DRILL file {KiCad (5.0.2)-1} date 2020/05/18 12:22:36
;FORMAT={-:-/ absolute / inch / decimal}
FMAT,2
INCH,TZ
T1C0.0157
T2C0.0236
T3C0.0276
T4C0.0394
T5C0.0472
T6C0.0591
%
G90
G05
T1
X2.3583Y-2.2756
X2.3583Y-3.2598
X2.378Y-2.311
X2.378Y-3.2953
X2.5709Y-2.3622
X2.5709Y-3.3465
X2.8268Y-2.0984
X2.8268Y-3.0827
X2.937Y-2.689
X2.937Y-3.6732
X2.9547Y-2.2408
X2.9547Y-3.225
X2.9724Y-2.5059
X2.9724Y-3.4902
X2.9898Y-2.2586
X2.9898Y-3.2428
X3.0118Y-2.5256
X3.0118Y-3.5098
X3.0591Y-2.5551
X3.0591Y-3.5394
X3.1122Y-2.2776
X3.1122Y-3.2619
X3.1181Y-2.2362
X3.1181Y-3.2205
X3.3377Y-2.2629
X3.3377Y-3.2472
X3.3425Y-2.437
X3.3425Y-3.4213
X3.4094Y-2.2913
X3.4094Y-3.2756
X3.4094Y-2.622
X3.4094Y-3.6063
X3.5462Y-2.622
X3.5462Y-3.6063
X3.5512Y-2.2913
X3.5512Y-3.2756
X3.5906Y-2.7677
X3.5906Y-3.752
X3.6309Y-2.3184
X3.6309Y-2.437
X3.6309Y-3.3026
X3.6309Y-3.4213
X3.6339Y-2.7756
X3.6339Y-3.7598
T3
X2.0669Y-2.6929
X2.126Y-2.6929
X2.185Y-2.6929
X2.2441Y-2.6929
X2.3031Y-2.6929
X2.3622Y-2.6929
X2.4921Y-3.6772
X2.5512Y-3.6772
X2.6102Y-3.6772
X2.6693Y-3.6772
X2.7283Y-3.6772
X2.7874Y-3.6772
X2.4921Y-2.6929
X2.5512Y-2.6929
X2.6102Y-2.6929
X2.6693Y-2.6929
X2.7283Y-2.6929
X2.7874Y-2.6929
X2.0669Y-3.6772
X2.126Y-3.6772
X2.185Y-3.6772
X2.2441Y-3.6772
X2.3031Y-3.6772
X2.3622Y-3.6772
T4
X3.3866Y-2.0457
X3.3866Y-2.1457
X3.4866Y-2.0457
X3.4866Y-2.1457
X3.5866Y-2.0457
X3.5866Y-2.1457
X3.3866Y-3.0299
X3.3866Y-3.1299
X3.4866Y-3.0299
X3.4866Y-3.1299
X3.5866Y-3.0299
X3.5866Y-3.1299
T5
X3.7972Y-3.0118
X3.7972Y-3.2874
X3.7835Y-2.0276
X3.7835Y-2.3031
T6
X3.4488Y-3.3504
X3.4488Y-3.5433
X3.4488Y-2.3661
X3.4488Y-2.5591
T2
X3.7106Y-3.065G85X3.7106Y-3.1004
G05
X3.7106Y-3.1831G85X3.7106Y-3.2185
G05
X3.7106Y-3.3406G85X3.7106Y-3.376
G05
X3.8799Y-3.3996G85X3.8799Y-3.435
G05
X3.6969Y-2.0807G85X3.6969Y-2.1161
G05
X3.6969Y-2.1988G85X3.6969Y-2.2343
G05
X3.6969Y-2.3563G85X3.6969Y-2.3917
G05
X3.8661Y-2.4154G85X3.8661Y-2.4508
G05
T0
M30
