G04 #@! TF.GenerationSoftware,KiCad,Pcbnew,(5.0.2)-1*
G04 #@! TF.CreationDate,2020-04-01T19:52:44+09:00*
G04 #@! TF.ProjectId,controller,636f6e74-726f-46c6-9c65-722e6b696361,rev?*
G04 #@! TF.SameCoordinates,Original*
G04 #@! TF.FileFunction,Legend,Top*
G04 #@! TF.FilePolarity,Positive*
%FSLAX46Y46*%
G04 Gerber Fmt 4.6, Leading zero omitted, Abs format (unit mm)*
G04 Created by KiCad (PCBNEW (5.0.2)-1) date 2020/04/01 19:52:44*
%MOMM*%
%LPD*%
G01*
G04 APERTURE LIST*
%ADD10C,0.200000*%
%ADD11C,0.300000*%
%ADD12C,0.150000*%
%ADD13C,0.400000*%
G04 APERTURE END LIST*
D10*
X51657142Y-60642857D02*
X51657142Y-59842857D01*
X51657142Y-60071428D02*
X51714285Y-59957142D01*
X51771428Y-59900000D01*
X51885714Y-59842857D01*
X52000000Y-59842857D01*
X52857142Y-60585714D02*
X52742857Y-60642857D01*
X52514285Y-60642857D01*
X52400000Y-60585714D01*
X52342857Y-60471428D01*
X52342857Y-60014285D01*
X52400000Y-59900000D01*
X52514285Y-59842857D01*
X52742857Y-59842857D01*
X52857142Y-59900000D01*
X52914285Y-60014285D01*
X52914285Y-60128571D01*
X52342857Y-60242857D01*
X53314285Y-59842857D02*
X53600000Y-60642857D01*
X53885714Y-59842857D01*
X55885714Y-60642857D02*
X55200000Y-60642857D01*
X55542857Y-60642857D02*
X55542857Y-59442857D01*
X55428571Y-59614285D01*
X55314285Y-59728571D01*
X55200000Y-59785714D01*
X56400000Y-60528571D02*
X56457142Y-60585714D01*
X56400000Y-60642857D01*
X56342857Y-60585714D01*
X56400000Y-60528571D01*
X56400000Y-60642857D01*
X57200000Y-59442857D02*
X57314285Y-59442857D01*
X57428571Y-59500000D01*
X57485714Y-59557142D01*
X57542857Y-59671428D01*
X57600000Y-59900000D01*
X57600000Y-60185714D01*
X57542857Y-60414285D01*
X57485714Y-60528571D01*
X57428571Y-60585714D01*
X57314285Y-60642857D01*
X57200000Y-60642857D01*
X57085714Y-60585714D01*
X57028571Y-60528571D01*
X56971428Y-60414285D01*
X56914285Y-60185714D01*
X56914285Y-59900000D01*
X56971428Y-59671428D01*
X57028571Y-59557142D01*
X57085714Y-59500000D01*
X57200000Y-59442857D01*
X52671428Y-58042857D02*
X52585714Y-58128571D01*
X52328571Y-58214285D01*
X52157142Y-58214285D01*
X51900000Y-58128571D01*
X51728571Y-57957142D01*
X51642857Y-57785714D01*
X51557142Y-57442857D01*
X51557142Y-57185714D01*
X51642857Y-56842857D01*
X51728571Y-56671428D01*
X51900000Y-56500000D01*
X52157142Y-56414285D01*
X52328571Y-56414285D01*
X52585714Y-56500000D01*
X52671428Y-56585714D01*
X53700000Y-58214285D02*
X53528571Y-58128571D01*
X53442857Y-58042857D01*
X53357142Y-57871428D01*
X53357142Y-57357142D01*
X53442857Y-57185714D01*
X53528571Y-57100000D01*
X53700000Y-57014285D01*
X53957142Y-57014285D01*
X54128571Y-57100000D01*
X54214285Y-57185714D01*
X54300000Y-57357142D01*
X54300000Y-57871428D01*
X54214285Y-58042857D01*
X54128571Y-58128571D01*
X53957142Y-58214285D01*
X53700000Y-58214285D01*
X55071428Y-57014285D02*
X55071428Y-58214285D01*
X55071428Y-57185714D02*
X55157142Y-57100000D01*
X55328571Y-57014285D01*
X55585714Y-57014285D01*
X55757142Y-57100000D01*
X55842857Y-57271428D01*
X55842857Y-58214285D01*
X56442857Y-57014285D02*
X57128571Y-57014285D01*
X56700000Y-56414285D02*
X56700000Y-57957142D01*
X56785714Y-58128571D01*
X56957142Y-58214285D01*
X57128571Y-58214285D01*
X57728571Y-58214285D02*
X57728571Y-57014285D01*
X57728571Y-57357142D02*
X57814285Y-57185714D01*
X57900000Y-57100000D01*
X58071428Y-57014285D01*
X58242857Y-57014285D01*
X59100000Y-58214285D02*
X58928571Y-58128571D01*
X58842857Y-58042857D01*
X58757142Y-57871428D01*
X58757142Y-57357142D01*
X58842857Y-57185714D01*
X58928571Y-57100000D01*
X59100000Y-57014285D01*
X59357142Y-57014285D01*
X59528571Y-57100000D01*
X59614285Y-57185714D01*
X59700000Y-57357142D01*
X59700000Y-57871428D01*
X59614285Y-58042857D01*
X59528571Y-58128571D01*
X59357142Y-58214285D01*
X59100000Y-58214285D01*
X60728571Y-58214285D02*
X60557142Y-58128571D01*
X60471428Y-57957142D01*
X60471428Y-56414285D01*
X61671428Y-58214285D02*
X61500000Y-58128571D01*
X61414285Y-57957142D01*
X61414285Y-56414285D01*
X63042857Y-58128571D02*
X62871428Y-58214285D01*
X62528571Y-58214285D01*
X62357142Y-58128571D01*
X62271428Y-57957142D01*
X62271428Y-57271428D01*
X62357142Y-57100000D01*
X62528571Y-57014285D01*
X62871428Y-57014285D01*
X63042857Y-57100000D01*
X63128571Y-57271428D01*
X63128571Y-57442857D01*
X62271428Y-57614285D01*
X63900000Y-58214285D02*
X63900000Y-57014285D01*
X63900000Y-57357142D02*
X63985714Y-57185714D01*
X64071428Y-57100000D01*
X64242857Y-57014285D01*
X64414285Y-57014285D01*
X66385714Y-58214285D02*
X66385714Y-56414285D01*
X66385714Y-57100000D02*
X66557142Y-57014285D01*
X66900000Y-57014285D01*
X67071428Y-57100000D01*
X67157142Y-57185714D01*
X67242857Y-57357142D01*
X67242857Y-57871428D01*
X67157142Y-58042857D01*
X67071428Y-58128571D01*
X66900000Y-58214285D01*
X66557142Y-58214285D01*
X66385714Y-58128571D01*
X68271428Y-58214285D02*
X68100000Y-58128571D01*
X68014285Y-58042857D01*
X67928571Y-57871428D01*
X67928571Y-57357142D01*
X68014285Y-57185714D01*
X68100000Y-57100000D01*
X68271428Y-57014285D01*
X68528571Y-57014285D01*
X68700000Y-57100000D01*
X68785714Y-57185714D01*
X68871428Y-57357142D01*
X68871428Y-57871428D01*
X68785714Y-58042857D01*
X68700000Y-58128571D01*
X68528571Y-58214285D01*
X68271428Y-58214285D01*
X70414285Y-58214285D02*
X70414285Y-57271428D01*
X70328571Y-57100000D01*
X70157142Y-57014285D01*
X69814285Y-57014285D01*
X69642857Y-57100000D01*
X70414285Y-58128571D02*
X70242857Y-58214285D01*
X69814285Y-58214285D01*
X69642857Y-58128571D01*
X69557142Y-57957142D01*
X69557142Y-57785714D01*
X69642857Y-57614285D01*
X69814285Y-57528571D01*
X70242857Y-57528571D01*
X70414285Y-57442857D01*
X71271428Y-58214285D02*
X71271428Y-57014285D01*
X71271428Y-57357142D02*
X71357142Y-57185714D01*
X71442857Y-57100000D01*
X71614285Y-57014285D01*
X71785714Y-57014285D01*
X73157142Y-58214285D02*
X73157142Y-56414285D01*
X73157142Y-58128571D02*
X72985714Y-58214285D01*
X72642857Y-58214285D01*
X72471428Y-58128571D01*
X72385714Y-58042857D01*
X72300000Y-57871428D01*
X72300000Y-57357142D01*
X72385714Y-57185714D01*
X72471428Y-57100000D01*
X72642857Y-57014285D01*
X72985714Y-57014285D01*
X73157142Y-57100000D01*
D11*
X51661904Y-55076190D02*
X52147619Y-55238095D01*
X52957142Y-55238095D01*
X53280952Y-55076190D01*
X53442857Y-54914285D01*
X53604761Y-54590476D01*
X53604761Y-54266666D01*
X53442857Y-53942857D01*
X53280952Y-53780952D01*
X52957142Y-53619047D01*
X52309523Y-53457142D01*
X51985714Y-53295238D01*
X51823809Y-53133333D01*
X51661904Y-52809523D01*
X51661904Y-52485714D01*
X51823809Y-52161904D01*
X51985714Y-52000000D01*
X52309523Y-51838095D01*
X53119047Y-51838095D01*
X53604761Y-52000000D01*
X55061904Y-52971428D02*
X55061904Y-56371428D01*
X55061904Y-53133333D02*
X55385714Y-52971428D01*
X56033333Y-52971428D01*
X56357142Y-53133333D01*
X56519047Y-53295238D01*
X56680952Y-53619047D01*
X56680952Y-54590476D01*
X56519047Y-54914285D01*
X56357142Y-55076190D01*
X56033333Y-55238095D01*
X55385714Y-55238095D01*
X55061904Y-55076190D01*
X58623809Y-55238095D02*
X58300000Y-55076190D01*
X58138095Y-54752380D01*
X58138095Y-51838095D01*
X59919047Y-55238095D02*
X59919047Y-52971428D01*
X59919047Y-51838095D02*
X59757142Y-52000000D01*
X59919047Y-52161904D01*
X60080952Y-52000000D01*
X59919047Y-51838095D01*
X59919047Y-52161904D01*
X61052380Y-52971428D02*
X62347619Y-52971428D01*
X61538095Y-51838095D02*
X61538095Y-54752380D01*
X61700000Y-55076190D01*
X62023809Y-55238095D01*
X62347619Y-55238095D01*
X66071428Y-55238095D02*
X66071428Y-51838095D01*
X66071428Y-53457142D02*
X68014285Y-53457142D01*
X68014285Y-55238095D02*
X68014285Y-51838095D01*
X69633333Y-55238095D02*
X69633333Y-51838095D01*
X69633333Y-53457142D02*
X71576190Y-53457142D01*
X71576190Y-55238095D02*
X71576190Y-51838095D01*
X73195238Y-55238095D02*
X73195238Y-51838095D01*
X75138095Y-55238095D02*
X73680952Y-53295238D01*
X75138095Y-51838095D02*
X73195238Y-53780952D01*
X77728571Y-53457142D02*
X78214285Y-53619047D01*
X78376190Y-53780952D01*
X78538095Y-54104761D01*
X78538095Y-54590476D01*
X78376190Y-54914285D01*
X78214285Y-55076190D01*
X77890476Y-55238095D01*
X76595238Y-55238095D01*
X76595238Y-51838095D01*
X77728571Y-51838095D01*
X78052380Y-52000000D01*
X78214285Y-52161904D01*
X78376190Y-52485714D01*
X78376190Y-52809523D01*
X78214285Y-53133333D01*
X78052380Y-53295238D01*
X77728571Y-53457142D01*
X76595238Y-53457142D01*
D10*
X52100000Y-71600000D02*
X52033333Y-71666666D01*
X51833333Y-71733333D01*
X51700000Y-71733333D01*
X51500000Y-71666666D01*
X51366666Y-71533333D01*
X51300000Y-71400000D01*
X51233333Y-71133333D01*
X51233333Y-70933333D01*
X51300000Y-70666666D01*
X51366666Y-70533333D01*
X51500000Y-70400000D01*
X51700000Y-70333333D01*
X51833333Y-70333333D01*
X52033333Y-70400000D01*
X52100000Y-70466666D01*
X52700000Y-71733333D02*
X52700000Y-70800000D01*
X52700000Y-71066666D02*
X52766666Y-70933333D01*
X52833333Y-70866666D01*
X52966666Y-70800000D01*
X53100000Y-70800000D01*
X54100000Y-71666666D02*
X53966666Y-71733333D01*
X53700000Y-71733333D01*
X53566666Y-71666666D01*
X53500000Y-71533333D01*
X53500000Y-71000000D01*
X53566666Y-70866666D01*
X53700000Y-70800000D01*
X53966666Y-70800000D01*
X54100000Y-70866666D01*
X54166666Y-71000000D01*
X54166666Y-71133333D01*
X53500000Y-71266666D01*
X55366666Y-71733333D02*
X55366666Y-71000000D01*
X55300000Y-70866666D01*
X55166666Y-70800000D01*
X54900000Y-70800000D01*
X54766666Y-70866666D01*
X55366666Y-71666666D02*
X55233333Y-71733333D01*
X54900000Y-71733333D01*
X54766666Y-71666666D01*
X54700000Y-71533333D01*
X54700000Y-71400000D01*
X54766666Y-71266666D01*
X54900000Y-71200000D01*
X55233333Y-71200000D01*
X55366666Y-71133333D01*
X55833333Y-70800000D02*
X56366666Y-70800000D01*
X56033333Y-70333333D02*
X56033333Y-71533333D01*
X56100000Y-71666666D01*
X56233333Y-71733333D01*
X56366666Y-71733333D01*
X57366666Y-71666666D02*
X57233333Y-71733333D01*
X56966666Y-71733333D01*
X56833333Y-71666666D01*
X56766666Y-71533333D01*
X56766666Y-71000000D01*
X56833333Y-70866666D01*
X56966666Y-70800000D01*
X57233333Y-70800000D01*
X57366666Y-70866666D01*
X57433333Y-71000000D01*
X57433333Y-71133333D01*
X56766666Y-71266666D01*
X58633333Y-71733333D02*
X58633333Y-70333333D01*
X58633333Y-71666666D02*
X58500000Y-71733333D01*
X58233333Y-71733333D01*
X58100000Y-71666666D01*
X58033333Y-71600000D01*
X57966666Y-71466666D01*
X57966666Y-71066666D01*
X58033333Y-70933333D01*
X58100000Y-70866666D01*
X58233333Y-70800000D01*
X58500000Y-70800000D01*
X58633333Y-70866666D01*
X60366666Y-71733333D02*
X60366666Y-70333333D01*
X60366666Y-70866666D02*
X60500000Y-70800000D01*
X60766666Y-70800000D01*
X60900000Y-70866666D01*
X60966666Y-70933333D01*
X61033333Y-71066666D01*
X61033333Y-71466666D01*
X60966666Y-71600000D01*
X60900000Y-71666666D01*
X60766666Y-71733333D01*
X60500000Y-71733333D01*
X60366666Y-71666666D01*
X61500000Y-70800000D02*
X61833333Y-71733333D01*
X62166666Y-70800000D02*
X61833333Y-71733333D01*
X61700000Y-72066666D01*
X61633333Y-72133333D01*
X61500000Y-72200000D01*
X63633333Y-70800000D02*
X63966666Y-71733333D01*
X64299999Y-70800000D02*
X63966666Y-71733333D01*
X63833333Y-72066666D01*
X63766666Y-72133333D01*
X63633333Y-72200000D01*
X65433333Y-71733333D02*
X65433333Y-71000000D01*
X65366666Y-70866666D01*
X65233333Y-70800000D01*
X64966666Y-70800000D01*
X64833333Y-70866666D01*
X65433333Y-71666666D02*
X65299999Y-71733333D01*
X64966666Y-71733333D01*
X64833333Y-71666666D01*
X64766666Y-71533333D01*
X64766666Y-71400000D01*
X64833333Y-71266666D01*
X64966666Y-71200000D01*
X65299999Y-71200000D01*
X65433333Y-71133333D01*
X66099999Y-71733333D02*
X66099999Y-70800000D01*
X66099999Y-70933333D02*
X66166666Y-70866666D01*
X66299999Y-70800000D01*
X66499999Y-70800000D01*
X66633333Y-70866666D01*
X66699999Y-71000000D01*
X66699999Y-71733333D01*
X66699999Y-71000000D02*
X66766666Y-70866666D01*
X66899999Y-70800000D01*
X67099999Y-70800000D01*
X67233333Y-70866666D01*
X67300000Y-71000000D01*
X67300000Y-71733333D01*
X68566666Y-71733333D02*
X68566666Y-71000000D01*
X68500000Y-70866666D01*
X68366666Y-70800000D01*
X68100000Y-70800000D01*
X67966666Y-70866666D01*
X68566666Y-71666666D02*
X68433333Y-71733333D01*
X68100000Y-71733333D01*
X67966666Y-71666666D01*
X67900000Y-71533333D01*
X67900000Y-71400000D01*
X67966666Y-71266666D01*
X68100000Y-71200000D01*
X68433333Y-71200000D01*
X68566666Y-71133333D01*
X69233333Y-71733333D02*
X69233333Y-70800000D01*
X69233333Y-70933333D02*
X69300000Y-70866666D01*
X69433333Y-70800000D01*
X69633333Y-70800000D01*
X69766666Y-70866666D01*
X69833333Y-71000000D01*
X69833333Y-71733333D01*
X69833333Y-71000000D02*
X69900000Y-70866666D01*
X70033333Y-70800000D01*
X70233333Y-70800000D01*
X70366666Y-70866666D01*
X70433333Y-71000000D01*
X70433333Y-71733333D01*
X71300000Y-71733333D02*
X71166666Y-71666666D01*
X71100000Y-71600000D01*
X71033333Y-71466666D01*
X71033333Y-71066666D01*
X71100000Y-70933333D01*
X71166666Y-70866666D01*
X71300000Y-70800000D01*
X71500000Y-70800000D01*
X71633333Y-70866666D01*
X71700000Y-70933333D01*
X71766666Y-71066666D01*
X71766666Y-71466666D01*
X71700000Y-71600000D01*
X71633333Y-71666666D01*
X71500000Y-71733333D01*
X71300000Y-71733333D01*
X72166666Y-70800000D02*
X72700000Y-70800000D01*
X72366666Y-70333333D02*
X72366666Y-71533333D01*
X72433333Y-71666666D01*
X72566666Y-71733333D01*
X72700000Y-71733333D01*
X73100000Y-71666666D02*
X73233333Y-71733333D01*
X73500000Y-71733333D01*
X73633333Y-71666666D01*
X73700000Y-71533333D01*
X73700000Y-71466666D01*
X73633333Y-71333333D01*
X73500000Y-71266666D01*
X73300000Y-71266666D01*
X73166666Y-71200000D01*
X73100000Y-71066666D01*
X73100000Y-71000000D01*
X73166666Y-70866666D01*
X73300000Y-70800000D01*
X73500000Y-70800000D01*
X73633333Y-70866666D01*
X74900000Y-70800000D02*
X74900000Y-71733333D01*
X74300000Y-70800000D02*
X74300000Y-71533333D01*
X74366666Y-71666666D01*
X74500000Y-71733333D01*
X74700000Y-71733333D01*
X74833333Y-71666666D01*
X74900000Y-71600000D01*
D12*
G04 #@! TO.C,REF\002A\002A*
X81749685Y-53858253D02*
G75*
G03X81749685Y-53858253I-250000J0D01*
G01*
X80786907Y-53037851D02*
G75*
G03X80786907Y-53037851I-250000J0D01*
G01*
D10*
X79907542Y-52460011D02*
X79212154Y-52179056D01*
X78783722Y-55241564D02*
X78088335Y-54960608D01*
X79064677Y-54546175D02*
X78369289Y-54265220D01*
X79626587Y-53155399D02*
X78931199Y-52874444D01*
X79345632Y-53850787D02*
X78650244Y-53569832D01*
X80450787Y-56454368D02*
X80169832Y-57149756D01*
X79060011Y-55892458D02*
X78779056Y-56587846D01*
X81841564Y-57016278D02*
X81560608Y-57711665D01*
X81146175Y-56735323D02*
X80865220Y-57430711D01*
X79755399Y-56173413D02*
X79474444Y-56868801D01*
X83616278Y-53958436D02*
X84311665Y-54239392D01*
X82773413Y-56044601D02*
X83468801Y-56325556D01*
X83054368Y-55349213D02*
X83749756Y-55630168D01*
X83335323Y-54653825D02*
X84030711Y-54934780D01*
X82492458Y-56739989D02*
X83187846Y-57020944D01*
X83339989Y-53307542D02*
X83620944Y-52612154D01*
X82644601Y-53026587D02*
X82925556Y-52331199D01*
X81949213Y-52745632D02*
X82230168Y-52050244D01*
X81253825Y-52464677D02*
X81534780Y-51769289D01*
X80558436Y-52183722D02*
X80839392Y-51488335D01*
D13*
X78596419Y-55705155D02*
X80094845Y-51996419D01*
X82305155Y-57203581D02*
X78596419Y-55705155D01*
X83803581Y-53494845D02*
X82305155Y-57203581D01*
X80094845Y-51996419D02*
X83803581Y-53494845D01*
G04 #@! TD*
M02*
