G04 #@! TF.GenerationSoftware,KiCad,Pcbnew,(5.0.2)-1*
G04 #@! TF.CreationDate,2020-06-20T19:19:36+09:00*
G04 #@! TF.ProjectId,controller,636f6e74-726f-46c6-9c65-722e6b696361,rev?*
G04 #@! TF.SameCoordinates,Original*
G04 #@! TF.FileFunction,Legend,Top*
G04 #@! TF.FilePolarity,Positive*
%FSLAX46Y46*%
G04 Gerber Fmt 4.6, Leading zero omitted, Abs format (unit mm)*
G04 Created by KiCad (PCBNEW (5.0.2)-1) date 2020/06/20 19:19:36*
%MOMM*%
%LPD*%
G01*
G04 APERTURE LIST*
%ADD10C,0.150000*%
%ADD11C,0.200000*%
%ADD12C,0.300000*%
%ADD13C,0.400000*%
G04 APERTURE END LIST*
D10*
X93450000Y-65483333D02*
X93550000Y-65516666D01*
X93716666Y-65516666D01*
X93783333Y-65483333D01*
X93816666Y-65450000D01*
X93850000Y-65383333D01*
X93850000Y-65316666D01*
X93816666Y-65250000D01*
X93783333Y-65216666D01*
X93716666Y-65183333D01*
X93583333Y-65150000D01*
X93516666Y-65116666D01*
X93483333Y-65083333D01*
X93450000Y-65016666D01*
X93450000Y-64950000D01*
X93483333Y-64883333D01*
X93516666Y-64850000D01*
X93583333Y-64816666D01*
X93750000Y-64816666D01*
X93850000Y-64850000D01*
X94150000Y-65516666D02*
X94150000Y-64816666D01*
X94450000Y-65516666D02*
X94450000Y-65150000D01*
X94416666Y-65083333D01*
X94350000Y-65050000D01*
X94250000Y-65050000D01*
X94183333Y-65083333D01*
X94150000Y-65116666D01*
X94883333Y-65516666D02*
X94816666Y-65483333D01*
X94783333Y-65450000D01*
X94750000Y-65383333D01*
X94750000Y-65183333D01*
X94783333Y-65116666D01*
X94816666Y-65083333D01*
X94883333Y-65050000D01*
X94983333Y-65050000D01*
X95050000Y-65083333D01*
X95083333Y-65116666D01*
X95116666Y-65183333D01*
X95116666Y-65383333D01*
X95083333Y-65450000D01*
X95050000Y-65483333D01*
X94983333Y-65516666D01*
X94883333Y-65516666D01*
X95416666Y-65516666D02*
X95416666Y-65050000D01*
X95416666Y-65183333D02*
X95450000Y-65116666D01*
X95483333Y-65083333D01*
X95550000Y-65050000D01*
X95616666Y-65050000D01*
X95750000Y-65050000D02*
X96016666Y-65050000D01*
X95850000Y-64816666D02*
X95850000Y-65416666D01*
X95883333Y-65483333D01*
X95950000Y-65516666D01*
X96016666Y-65516666D01*
X96783333Y-65516666D02*
X96783333Y-64816666D01*
X97083333Y-65516666D02*
X97083333Y-65150000D01*
X97050000Y-65083333D01*
X96983333Y-65050000D01*
X96883333Y-65050000D01*
X96816666Y-65083333D01*
X96783333Y-65116666D01*
X97683333Y-65483333D02*
X97616666Y-65516666D01*
X97483333Y-65516666D01*
X97416666Y-65483333D01*
X97383333Y-65416666D01*
X97383333Y-65150000D01*
X97416666Y-65083333D01*
X97483333Y-65050000D01*
X97616666Y-65050000D01*
X97683333Y-65083333D01*
X97716666Y-65150000D01*
X97716666Y-65216666D01*
X97383333Y-65283333D01*
X98016666Y-65516666D02*
X98016666Y-65050000D01*
X98016666Y-65183333D02*
X98050000Y-65116666D01*
X98083333Y-65083333D01*
X98150000Y-65050000D01*
X98216666Y-65050000D01*
X98716666Y-65483333D02*
X98650000Y-65516666D01*
X98516666Y-65516666D01*
X98450000Y-65483333D01*
X98416666Y-65416666D01*
X98416666Y-65150000D01*
X98450000Y-65083333D01*
X98516666Y-65050000D01*
X98650000Y-65050000D01*
X98716666Y-65083333D01*
X98750000Y-65150000D01*
X98750000Y-65216666D01*
X98416666Y-65283333D01*
X92550000Y-66250000D02*
X92816666Y-66250000D01*
X92650000Y-66716666D02*
X92650000Y-66116666D01*
X92683333Y-66050000D01*
X92750000Y-66016666D01*
X92816666Y-66016666D01*
X93150000Y-66716666D02*
X93083333Y-66683333D01*
X93050000Y-66650000D01*
X93016666Y-66583333D01*
X93016666Y-66383333D01*
X93050000Y-66316666D01*
X93083333Y-66283333D01*
X93150000Y-66250000D01*
X93250000Y-66250000D01*
X93316666Y-66283333D01*
X93350000Y-66316666D01*
X93383333Y-66383333D01*
X93383333Y-66583333D01*
X93350000Y-66650000D01*
X93316666Y-66683333D01*
X93250000Y-66716666D01*
X93150000Y-66716666D01*
X93683333Y-66716666D02*
X93683333Y-66250000D01*
X93683333Y-66383333D02*
X93716666Y-66316666D01*
X93750000Y-66283333D01*
X93816666Y-66250000D01*
X93883333Y-66250000D01*
X95050000Y-66716666D02*
X94816666Y-66383333D01*
X94650000Y-66716666D02*
X94650000Y-66016666D01*
X94916666Y-66016666D01*
X94983333Y-66050000D01*
X95016666Y-66083333D01*
X95050000Y-66150000D01*
X95050000Y-66250000D01*
X95016666Y-66316666D01*
X94983333Y-66350000D01*
X94916666Y-66383333D01*
X94650000Y-66383333D01*
X95350000Y-66716666D02*
X95350000Y-66250000D01*
X95350000Y-66016666D02*
X95316666Y-66050000D01*
X95350000Y-66083333D01*
X95383333Y-66050000D01*
X95350000Y-66016666D01*
X95350000Y-66083333D01*
X95983333Y-66250000D02*
X95983333Y-66816666D01*
X95950000Y-66883333D01*
X95916666Y-66916666D01*
X95850000Y-66950000D01*
X95750000Y-66950000D01*
X95683333Y-66916666D01*
X95983333Y-66683333D02*
X95916666Y-66716666D01*
X95783333Y-66716666D01*
X95716666Y-66683333D01*
X95683333Y-66650000D01*
X95650000Y-66583333D01*
X95650000Y-66383333D01*
X95683333Y-66316666D01*
X95716666Y-66283333D01*
X95783333Y-66250000D01*
X95916666Y-66250000D01*
X95983333Y-66283333D01*
X96316666Y-66716666D02*
X96316666Y-66016666D01*
X96616666Y-66716666D02*
X96616666Y-66350000D01*
X96583333Y-66283333D01*
X96516666Y-66250000D01*
X96416666Y-66250000D01*
X96350000Y-66283333D01*
X96316666Y-66316666D01*
X96850000Y-66250000D02*
X97116666Y-66250000D01*
X96950000Y-66016666D02*
X96950000Y-66616666D01*
X96983333Y-66683333D01*
X97050000Y-66716666D01*
X97116666Y-66716666D01*
X97350000Y-66716666D02*
X97350000Y-66016666D01*
X97650000Y-66716666D02*
X97650000Y-66350000D01*
X97616666Y-66283333D01*
X97550000Y-66250000D01*
X97450000Y-66250000D01*
X97383333Y-66283333D01*
X97350000Y-66316666D01*
X98283333Y-66716666D02*
X98283333Y-66350000D01*
X98250000Y-66283333D01*
X98183333Y-66250000D01*
X98050000Y-66250000D01*
X97983333Y-66283333D01*
X98283333Y-66683333D02*
X98216666Y-66716666D01*
X98050000Y-66716666D01*
X97983333Y-66683333D01*
X97950000Y-66616666D01*
X97950000Y-66550000D01*
X97983333Y-66483333D01*
X98050000Y-66450000D01*
X98216666Y-66450000D01*
X98283333Y-66416666D01*
X98616666Y-66250000D02*
X98616666Y-66716666D01*
X98616666Y-66316666D02*
X98650000Y-66283333D01*
X98716666Y-66250000D01*
X98816666Y-66250000D01*
X98883333Y-66283333D01*
X98916666Y-66350000D01*
X98916666Y-66716666D01*
X99550000Y-66716666D02*
X99550000Y-66016666D01*
X99550000Y-66683333D02*
X99483333Y-66716666D01*
X99350000Y-66716666D01*
X99283333Y-66683333D01*
X99250000Y-66650000D01*
X99216666Y-66583333D01*
X99216666Y-66383333D01*
X99250000Y-66316666D01*
X99283333Y-66283333D01*
X99350000Y-66250000D01*
X99483333Y-66250000D01*
X99550000Y-66283333D01*
X50000000Y-73000000D02*
X100000000Y-73000000D01*
D11*
X51657142Y-60242857D02*
X51657142Y-59442857D01*
X51657142Y-59671428D02*
X51714285Y-59557142D01*
X51771428Y-59500000D01*
X51885714Y-59442857D01*
X52000000Y-59442857D01*
X52857142Y-60185714D02*
X52742857Y-60242857D01*
X52514285Y-60242857D01*
X52400000Y-60185714D01*
X52342857Y-60071428D01*
X52342857Y-59614285D01*
X52400000Y-59500000D01*
X52514285Y-59442857D01*
X52742857Y-59442857D01*
X52857142Y-59500000D01*
X52914285Y-59614285D01*
X52914285Y-59728571D01*
X52342857Y-59842857D01*
X53314285Y-59442857D02*
X53600000Y-60242857D01*
X53885714Y-59442857D01*
X55142857Y-59042857D02*
X55885714Y-59042857D01*
X55485714Y-59500000D01*
X55657142Y-59500000D01*
X55771428Y-59557142D01*
X55828571Y-59614285D01*
X55885714Y-59728571D01*
X55885714Y-60014285D01*
X55828571Y-60128571D01*
X55771428Y-60185714D01*
X55657142Y-60242857D01*
X55314285Y-60242857D01*
X55200000Y-60185714D01*
X55142857Y-60128571D01*
X56400000Y-60128571D02*
X56457142Y-60185714D01*
X56400000Y-60242857D01*
X56342857Y-60185714D01*
X56400000Y-60128571D01*
X56400000Y-60242857D01*
X57200000Y-59042857D02*
X57314285Y-59042857D01*
X57428571Y-59100000D01*
X57485714Y-59157142D01*
X57542857Y-59271428D01*
X57600000Y-59500000D01*
X57600000Y-59785714D01*
X57542857Y-60014285D01*
X57485714Y-60128571D01*
X57428571Y-60185714D01*
X57314285Y-60242857D01*
X57200000Y-60242857D01*
X57085714Y-60185714D01*
X57028571Y-60128571D01*
X56971428Y-60014285D01*
X56914285Y-59785714D01*
X56914285Y-59500000D01*
X56971428Y-59271428D01*
X57028571Y-59157142D01*
X57085714Y-59100000D01*
X57200000Y-59042857D01*
X52671428Y-58042857D02*
X52585714Y-58128571D01*
X52328571Y-58214285D01*
X52157142Y-58214285D01*
X51900000Y-58128571D01*
X51728571Y-57957142D01*
X51642857Y-57785714D01*
X51557142Y-57442857D01*
X51557142Y-57185714D01*
X51642857Y-56842857D01*
X51728571Y-56671428D01*
X51900000Y-56500000D01*
X52157142Y-56414285D01*
X52328571Y-56414285D01*
X52585714Y-56500000D01*
X52671428Y-56585714D01*
X53700000Y-58214285D02*
X53528571Y-58128571D01*
X53442857Y-58042857D01*
X53357142Y-57871428D01*
X53357142Y-57357142D01*
X53442857Y-57185714D01*
X53528571Y-57100000D01*
X53700000Y-57014285D01*
X53957142Y-57014285D01*
X54128571Y-57100000D01*
X54214285Y-57185714D01*
X54300000Y-57357142D01*
X54300000Y-57871428D01*
X54214285Y-58042857D01*
X54128571Y-58128571D01*
X53957142Y-58214285D01*
X53700000Y-58214285D01*
X55071428Y-57014285D02*
X55071428Y-58214285D01*
X55071428Y-57185714D02*
X55157142Y-57100000D01*
X55328571Y-57014285D01*
X55585714Y-57014285D01*
X55757142Y-57100000D01*
X55842857Y-57271428D01*
X55842857Y-58214285D01*
X56442857Y-57014285D02*
X57128571Y-57014285D01*
X56700000Y-56414285D02*
X56700000Y-57957142D01*
X56785714Y-58128571D01*
X56957142Y-58214285D01*
X57128571Y-58214285D01*
X57728571Y-58214285D02*
X57728571Y-57014285D01*
X57728571Y-57357142D02*
X57814285Y-57185714D01*
X57900000Y-57100000D01*
X58071428Y-57014285D01*
X58242857Y-57014285D01*
X59100000Y-58214285D02*
X58928571Y-58128571D01*
X58842857Y-58042857D01*
X58757142Y-57871428D01*
X58757142Y-57357142D01*
X58842857Y-57185714D01*
X58928571Y-57100000D01*
X59100000Y-57014285D01*
X59357142Y-57014285D01*
X59528571Y-57100000D01*
X59614285Y-57185714D01*
X59700000Y-57357142D01*
X59700000Y-57871428D01*
X59614285Y-58042857D01*
X59528571Y-58128571D01*
X59357142Y-58214285D01*
X59100000Y-58214285D01*
X60728571Y-58214285D02*
X60557142Y-58128571D01*
X60471428Y-57957142D01*
X60471428Y-56414285D01*
X61671428Y-58214285D02*
X61500000Y-58128571D01*
X61414285Y-57957142D01*
X61414285Y-56414285D01*
X63042857Y-58128571D02*
X62871428Y-58214285D01*
X62528571Y-58214285D01*
X62357142Y-58128571D01*
X62271428Y-57957142D01*
X62271428Y-57271428D01*
X62357142Y-57100000D01*
X62528571Y-57014285D01*
X62871428Y-57014285D01*
X63042857Y-57100000D01*
X63128571Y-57271428D01*
X63128571Y-57442857D01*
X62271428Y-57614285D01*
X63900000Y-58214285D02*
X63900000Y-57014285D01*
X63900000Y-57357142D02*
X63985714Y-57185714D01*
X64071428Y-57100000D01*
X64242857Y-57014285D01*
X64414285Y-57014285D01*
X66385714Y-58214285D02*
X66385714Y-56414285D01*
X66385714Y-57100000D02*
X66557142Y-57014285D01*
X66900000Y-57014285D01*
X67071428Y-57100000D01*
X67157142Y-57185714D01*
X67242857Y-57357142D01*
X67242857Y-57871428D01*
X67157142Y-58042857D01*
X67071428Y-58128571D01*
X66900000Y-58214285D01*
X66557142Y-58214285D01*
X66385714Y-58128571D01*
X68271428Y-58214285D02*
X68100000Y-58128571D01*
X68014285Y-58042857D01*
X67928571Y-57871428D01*
X67928571Y-57357142D01*
X68014285Y-57185714D01*
X68100000Y-57100000D01*
X68271428Y-57014285D01*
X68528571Y-57014285D01*
X68700000Y-57100000D01*
X68785714Y-57185714D01*
X68871428Y-57357142D01*
X68871428Y-57871428D01*
X68785714Y-58042857D01*
X68700000Y-58128571D01*
X68528571Y-58214285D01*
X68271428Y-58214285D01*
X70414285Y-58214285D02*
X70414285Y-57271428D01*
X70328571Y-57100000D01*
X70157142Y-57014285D01*
X69814285Y-57014285D01*
X69642857Y-57100000D01*
X70414285Y-58128571D02*
X70242857Y-58214285D01*
X69814285Y-58214285D01*
X69642857Y-58128571D01*
X69557142Y-57957142D01*
X69557142Y-57785714D01*
X69642857Y-57614285D01*
X69814285Y-57528571D01*
X70242857Y-57528571D01*
X70414285Y-57442857D01*
X71271428Y-58214285D02*
X71271428Y-57014285D01*
X71271428Y-57357142D02*
X71357142Y-57185714D01*
X71442857Y-57100000D01*
X71614285Y-57014285D01*
X71785714Y-57014285D01*
X73157142Y-58214285D02*
X73157142Y-56414285D01*
X73157142Y-58128571D02*
X72985714Y-58214285D01*
X72642857Y-58214285D01*
X72471428Y-58128571D01*
X72385714Y-58042857D01*
X72300000Y-57871428D01*
X72300000Y-57357142D01*
X72385714Y-57185714D01*
X72471428Y-57100000D01*
X72642857Y-57014285D01*
X72985714Y-57014285D01*
X73157142Y-57100000D01*
D12*
X51592857Y-55026190D02*
X52078571Y-55188095D01*
X52888095Y-55188095D01*
X53211904Y-55026190D01*
X53373809Y-54864285D01*
X53535714Y-54540476D01*
X53535714Y-54216666D01*
X53373809Y-53892857D01*
X53211904Y-53730952D01*
X52888095Y-53569047D01*
X52240476Y-53407142D01*
X51916666Y-53245238D01*
X51754761Y-53083333D01*
X51592857Y-52759523D01*
X51592857Y-52435714D01*
X51754761Y-52111904D01*
X51916666Y-51950000D01*
X52240476Y-51788095D01*
X53050000Y-51788095D01*
X53535714Y-51950000D01*
X54992857Y-52921428D02*
X54992857Y-56321428D01*
X54992857Y-53083333D02*
X55316666Y-52921428D01*
X55964285Y-52921428D01*
X56288095Y-53083333D01*
X56450000Y-53245238D01*
X56611904Y-53569047D01*
X56611904Y-54540476D01*
X56450000Y-54864285D01*
X56288095Y-55026190D01*
X55964285Y-55188095D01*
X55316666Y-55188095D01*
X54992857Y-55026190D01*
X58554761Y-55188095D02*
X58230952Y-55026190D01*
X58069047Y-54702380D01*
X58069047Y-51788095D01*
X59850000Y-55188095D02*
X59850000Y-52921428D01*
X59850000Y-51788095D02*
X59688095Y-51950000D01*
X59850000Y-52111904D01*
X60011904Y-51950000D01*
X59850000Y-51788095D01*
X59850000Y-52111904D01*
X60983333Y-52921428D02*
X62278571Y-52921428D01*
X61469047Y-51788095D02*
X61469047Y-54702380D01*
X61630952Y-55026190D01*
X61954761Y-55188095D01*
X62278571Y-55188095D01*
X63411904Y-55188095D02*
X63411904Y-52921428D01*
X63411904Y-51788095D02*
X63250000Y-51950000D01*
X63411904Y-52111904D01*
X63573809Y-51950000D01*
X63411904Y-51788095D01*
X63411904Y-52111904D01*
X64545238Y-52921428D02*
X65840476Y-52921428D01*
X65030952Y-55188095D02*
X65030952Y-52273809D01*
X65192857Y-51950000D01*
X65516666Y-51788095D01*
X65840476Y-51788095D01*
X66650000Y-52921428D02*
X67459523Y-55188095D01*
X68269047Y-52921428D02*
X67459523Y-55188095D01*
X67135714Y-55997619D01*
X66973809Y-56159523D01*
X66650000Y-56321428D01*
D11*
X51550000Y-71733333D02*
X51550000Y-70333333D01*
X51883333Y-70333333D01*
X52083333Y-70400000D01*
X52216666Y-70533333D01*
X52283333Y-70666666D01*
X52350000Y-70933333D01*
X52350000Y-71133333D01*
X52283333Y-71400000D01*
X52216666Y-71533333D01*
X52083333Y-71666666D01*
X51883333Y-71733333D01*
X51550000Y-71733333D01*
X53483333Y-71666666D02*
X53350000Y-71733333D01*
X53083333Y-71733333D01*
X52950000Y-71666666D01*
X52883333Y-71533333D01*
X52883333Y-71000000D01*
X52950000Y-70866666D01*
X53083333Y-70800000D01*
X53350000Y-70800000D01*
X53483333Y-70866666D01*
X53550000Y-71000000D01*
X53550000Y-71133333D01*
X52883333Y-71266666D01*
X54083333Y-71666666D02*
X54216666Y-71733333D01*
X54483333Y-71733333D01*
X54616666Y-71666666D01*
X54683333Y-71533333D01*
X54683333Y-71466666D01*
X54616666Y-71333333D01*
X54483333Y-71266666D01*
X54283333Y-71266666D01*
X54150000Y-71200000D01*
X54083333Y-71066666D01*
X54083333Y-71000000D01*
X54150000Y-70866666D01*
X54283333Y-70800000D01*
X54483333Y-70800000D01*
X54616666Y-70866666D01*
X55283333Y-71733333D02*
X55283333Y-70800000D01*
X55283333Y-70333333D02*
X55216666Y-70400000D01*
X55283333Y-70466666D01*
X55350000Y-70400000D01*
X55283333Y-70333333D01*
X55283333Y-70466666D01*
X56550000Y-70800000D02*
X56550000Y-71933333D01*
X56483333Y-72066666D01*
X56416666Y-72133333D01*
X56283333Y-72200000D01*
X56083333Y-72200000D01*
X55950000Y-72133333D01*
X56550000Y-71666666D02*
X56416666Y-71733333D01*
X56150000Y-71733333D01*
X56016666Y-71666666D01*
X55950000Y-71600000D01*
X55883333Y-71466666D01*
X55883333Y-71066666D01*
X55950000Y-70933333D01*
X56016666Y-70866666D01*
X56150000Y-70800000D01*
X56416666Y-70800000D01*
X56550000Y-70866666D01*
X57216666Y-70800000D02*
X57216666Y-71733333D01*
X57216666Y-70933333D02*
X57283333Y-70866666D01*
X57416666Y-70800000D01*
X57616666Y-70800000D01*
X57750000Y-70866666D01*
X57816666Y-71000000D01*
X57816666Y-71733333D01*
X59016666Y-71666666D02*
X58883333Y-71733333D01*
X58616666Y-71733333D01*
X58483333Y-71666666D01*
X58416666Y-71533333D01*
X58416666Y-71000000D01*
X58483333Y-70866666D01*
X58616666Y-70800000D01*
X58883333Y-70800000D01*
X59016666Y-70866666D01*
X59083333Y-71000000D01*
X59083333Y-71133333D01*
X58416666Y-71266666D01*
X60283333Y-71733333D02*
X60283333Y-70333333D01*
X60283333Y-71666666D02*
X60150000Y-71733333D01*
X59883333Y-71733333D01*
X59750000Y-71666666D01*
X59683333Y-71600000D01*
X59616666Y-71466666D01*
X59616666Y-71066666D01*
X59683333Y-70933333D01*
X59750000Y-70866666D01*
X59883333Y-70800000D01*
X60150000Y-70800000D01*
X60283333Y-70866666D01*
X62016666Y-71733333D02*
X62016666Y-70333333D01*
X62016666Y-70866666D02*
X62149999Y-70800000D01*
X62416666Y-70800000D01*
X62549999Y-70866666D01*
X62616666Y-70933333D01*
X62683333Y-71066666D01*
X62683333Y-71466666D01*
X62616666Y-71600000D01*
X62549999Y-71666666D01*
X62416666Y-71733333D01*
X62149999Y-71733333D01*
X62016666Y-71666666D01*
X63149999Y-70800000D02*
X63483333Y-71733333D01*
X63816666Y-70800000D02*
X63483333Y-71733333D01*
X63349999Y-72066666D01*
X63283333Y-72133333D01*
X63149999Y-72200000D01*
X65283333Y-70800000D02*
X65616666Y-71733333D01*
X65949999Y-70800000D02*
X65616666Y-71733333D01*
X65483333Y-72066666D01*
X65416666Y-72133333D01*
X65283333Y-72200000D01*
X67083333Y-71733333D02*
X67083333Y-71000000D01*
X67016666Y-70866666D01*
X66883333Y-70800000D01*
X66616666Y-70800000D01*
X66483333Y-70866666D01*
X67083333Y-71666666D02*
X66949999Y-71733333D01*
X66616666Y-71733333D01*
X66483333Y-71666666D01*
X66416666Y-71533333D01*
X66416666Y-71400000D01*
X66483333Y-71266666D01*
X66616666Y-71200000D01*
X66949999Y-71200000D01*
X67083333Y-71133333D01*
X67750000Y-71733333D02*
X67750000Y-70800000D01*
X67750000Y-70933333D02*
X67816666Y-70866666D01*
X67950000Y-70800000D01*
X68150000Y-70800000D01*
X68283333Y-70866666D01*
X68350000Y-71000000D01*
X68350000Y-71733333D01*
X68350000Y-71000000D02*
X68416666Y-70866666D01*
X68550000Y-70800000D01*
X68750000Y-70800000D01*
X68883333Y-70866666D01*
X68950000Y-71000000D01*
X68950000Y-71733333D01*
X70216666Y-71733333D02*
X70216666Y-71000000D01*
X70150000Y-70866666D01*
X70016666Y-70800000D01*
X69750000Y-70800000D01*
X69616666Y-70866666D01*
X70216666Y-71666666D02*
X70083333Y-71733333D01*
X69750000Y-71733333D01*
X69616666Y-71666666D01*
X69550000Y-71533333D01*
X69550000Y-71400000D01*
X69616666Y-71266666D01*
X69750000Y-71200000D01*
X70083333Y-71200000D01*
X70216666Y-71133333D01*
X70883333Y-71733333D02*
X70883333Y-70800000D01*
X70883333Y-70933333D02*
X70950000Y-70866666D01*
X71083333Y-70800000D01*
X71283333Y-70800000D01*
X71416666Y-70866666D01*
X71483333Y-71000000D01*
X71483333Y-71733333D01*
X71483333Y-71000000D02*
X71550000Y-70866666D01*
X71683333Y-70800000D01*
X71883333Y-70800000D01*
X72016666Y-70866666D01*
X72083333Y-71000000D01*
X72083333Y-71733333D01*
X72950000Y-71733333D02*
X72816666Y-71666666D01*
X72750000Y-71600000D01*
X72683333Y-71466666D01*
X72683333Y-71066666D01*
X72750000Y-70933333D01*
X72816666Y-70866666D01*
X72950000Y-70800000D01*
X73150000Y-70800000D01*
X73283333Y-70866666D01*
X73350000Y-70933333D01*
X73416666Y-71066666D01*
X73416666Y-71466666D01*
X73350000Y-71600000D01*
X73283333Y-71666666D01*
X73150000Y-71733333D01*
X72950000Y-71733333D01*
X73816666Y-70800000D02*
X74350000Y-70800000D01*
X74016666Y-70333333D02*
X74016666Y-71533333D01*
X74083333Y-71666666D01*
X74216666Y-71733333D01*
X74350000Y-71733333D01*
X74750000Y-71666666D02*
X74883333Y-71733333D01*
X75150000Y-71733333D01*
X75283333Y-71666666D01*
X75350000Y-71533333D01*
X75350000Y-71466666D01*
X75283333Y-71333333D01*
X75150000Y-71266666D01*
X74950000Y-71266666D01*
X74816666Y-71200000D01*
X74750000Y-71066666D01*
X74750000Y-71000000D01*
X74816666Y-70866666D01*
X74950000Y-70800000D01*
X75150000Y-70800000D01*
X75283333Y-70866666D01*
X76550000Y-70800000D02*
X76550000Y-71733333D01*
X75950000Y-70800000D02*
X75950000Y-71533333D01*
X76016666Y-71666666D01*
X76150000Y-71733333D01*
X76350000Y-71733333D01*
X76483333Y-71666666D01*
X76550000Y-71600000D01*
D10*
G04 #@! TO.C,REF\002A\002A*
X73549685Y-53108253D02*
G75*
G03X73549685Y-53108253I-250000J0D01*
G01*
X72586907Y-52287851D02*
G75*
G03X72586907Y-52287851I-250000J0D01*
G01*
D11*
X71707542Y-51710011D02*
X71012154Y-51429056D01*
X70583722Y-54491564D02*
X69888335Y-54210608D01*
X70864677Y-53796175D02*
X70169289Y-53515220D01*
X71426587Y-52405399D02*
X70731199Y-52124444D01*
X71145632Y-53100787D02*
X70450244Y-52819832D01*
X72250787Y-55704368D02*
X71969832Y-56399756D01*
X70860011Y-55142458D02*
X70579056Y-55837846D01*
X73641564Y-56266278D02*
X73360608Y-56961665D01*
X72946175Y-55985323D02*
X72665220Y-56680711D01*
X71555399Y-55423413D02*
X71274444Y-56118801D01*
X75416278Y-53208436D02*
X76111665Y-53489392D01*
X74573413Y-55294601D02*
X75268801Y-55575556D01*
X74854368Y-54599213D02*
X75549756Y-54880168D01*
X75135323Y-53903825D02*
X75830711Y-54184780D01*
X74292458Y-55989989D02*
X74987846Y-56270944D01*
X75139989Y-52557542D02*
X75420944Y-51862154D01*
X74444601Y-52276587D02*
X74725556Y-51581199D01*
X73749213Y-51995632D02*
X74030168Y-51300244D01*
X73053825Y-51714677D02*
X73334780Y-51019289D01*
X72358436Y-51433722D02*
X72639392Y-50738335D01*
D13*
X70396419Y-54955155D02*
X71894845Y-51246419D01*
X74105155Y-56453581D02*
X70396419Y-54955155D01*
X75603581Y-52744845D02*
X74105155Y-56453581D01*
X71894845Y-51246419D02*
X75603581Y-52744845D01*
G04 #@! TD*
M02*
