G04 #@! TF.GenerationSoftware,KiCad,Pcbnew,(5.0.2)-1*
G04 #@! TF.CreationDate,2020-06-20T19:19:36+09:00*
G04 #@! TF.ProjectId,controller,636f6e74-726f-46c6-9c65-722e6b696361,rev?*
G04 #@! TF.SameCoordinates,Original*
G04 #@! TF.FileFunction,Copper,L1,Top*
G04 #@! TF.FilePolarity,Positive*
%FSLAX46Y46*%
G04 Gerber Fmt 4.6, Leading zero omitted, Abs format (unit mm)*
G04 Created by KiCad (PCBNEW (5.0.2)-1) date 2020/06/20 19:19:36*
%MOMM*%
%LPD*%
G01*
G04 APERTURE LIST*
G04 #@! TA.AperFunction,ComponentPad*
%ADD10R,1.700000X1.700000*%
G04 #@! TD*
G04 #@! TA.AperFunction,ComponentPad*
%ADD11O,1.700000X1.700000*%
G04 #@! TD*
G04 #@! TA.AperFunction,ComponentPad*
%ADD12C,2.300000*%
G04 #@! TD*
G04 #@! TA.AperFunction,ComponentPad*
%ADD13O,1.000000X2.500000*%
G04 #@! TD*
G04 #@! TA.AperFunction,ComponentPad*
%ADD14O,1.000000X2.700000*%
G04 #@! TD*
G04 #@! TA.AperFunction,ComponentPad*
%ADD15C,1.200000*%
G04 #@! TD*
G04 #@! TA.AperFunction,ComponentPad*
%ADD16O,1.200000X1.800000*%
G04 #@! TD*
G04 #@! TA.AperFunction,ComponentPad*
%ADD17R,1.200000X1.800000*%
G04 #@! TD*
G04 #@! TA.AperFunction,SMDPad,CuDef*
%ADD18C,0.800000*%
G04 #@! TD*
G04 #@! TA.AperFunction,Conductor*
%ADD19C,0.100000*%
G04 #@! TD*
G04 #@! TA.AperFunction,ViaPad*
%ADD20C,0.800000*%
G04 #@! TD*
G04 #@! TA.AperFunction,Conductor*
%ADD21C,0.500000*%
G04 #@! TD*
G04 #@! TA.AperFunction,Conductor*
%ADD22C,0.300000*%
G04 #@! TD*
G04 #@! TA.AperFunction,Conductor*
%ADD23C,0.254000*%
G04 #@! TD*
G04 APERTURE END LIST*
D10*
G04 #@! TO.P,J1,1*
G04 #@! TO.N,/MISO*
X91100000Y-54500000D03*
D11*
G04 #@! TO.P,J1,2*
G04 #@! TO.N,+5V*
X91100000Y-51960000D03*
G04 #@! TO.P,J1,3*
G04 #@! TO.N,/SCK*
X88560000Y-54500000D03*
G04 #@! TO.P,J1,4*
G04 #@! TO.N,/MOSI*
X88560000Y-51960000D03*
G04 #@! TO.P,J1,5*
G04 #@! TO.N,/RESET*
X86020000Y-54500000D03*
G04 #@! TO.P,J1,6*
G04 #@! TO.N,GND*
X86020000Y-51960000D03*
G04 #@! TD*
D12*
G04 #@! TO.P,Y1,1*
G04 #@! TO.N,Net-(C8-Pad1)*
X87600000Y-65000000D03*
G04 #@! TO.P,Y1,2*
G04 #@! TO.N,Net-(C9-Pad1)*
X87600000Y-60100000D03*
G04 #@! TD*
D13*
G04 #@! TO.P,J3,S*
G04 #@! TO.N,GND*
X98200000Y-61800000D03*
G04 #@! TO.P,J3,T*
G04 #@! TO.N,+5V*
X93900000Y-60300000D03*
G04 #@! TO.P,J3,R1*
G04 #@! TO.N,Net-(J3-PadR1)*
X93900000Y-56300000D03*
D14*
G04 #@! TO.P,J3,R2*
G04 #@! TO.N,Net-(J3-PadR2)*
X93900000Y-53300000D03*
D15*
G04 #@! TO.P,J3,*
G04 #@! TO.N,*
X96100000Y-51500000D03*
X96100000Y-58500000D03*
G04 #@! TD*
D16*
G04 #@! TO.P,J4,6*
G04 #@! TO.N,/DRAIN*
X52500000Y-68400000D03*
G04 #@! TO.P,J4,5*
G04 #@! TO.N,/MUX_EN*
X54000000Y-68400000D03*
G04 #@! TO.P,J4,4*
G04 #@! TO.N,/MUX_C*
X55500000Y-68400000D03*
G04 #@! TO.P,J4,3*
G04 #@! TO.N,/MUX_B*
X57000000Y-68400000D03*
G04 #@! TO.P,J4,2*
G04 #@! TO.N,/MUX_A*
X58500000Y-68400000D03*
D17*
G04 #@! TO.P,J4,1*
G04 #@! TO.N,+5V*
X60000000Y-68400000D03*
G04 #@! TD*
G04 #@! TO.P,J5,1*
G04 #@! TO.N,/COL_A*
X70800000Y-68400000D03*
D16*
G04 #@! TO.P,J5,2*
G04 #@! TO.N,/COL_B*
X69300000Y-68400000D03*
G04 #@! TO.P,J5,3*
G04 #@! TO.N,/COL_C*
X67800000Y-68400000D03*
G04 #@! TO.P,J5,4*
G04 #@! TO.N,/COL_EN*
X66300000Y-68400000D03*
G04 #@! TO.P,J5,5*
G04 #@! TO.N,/READ*
X64800000Y-68400000D03*
G04 #@! TO.P,J5,6*
G04 #@! TO.N,GND*
X63300000Y-68400000D03*
G04 #@! TD*
D18*
G04 #@! TO.P,JP1,2*
G04 #@! TO.N,Net-(J3-PadR2)*
X95750000Y-62900000D03*
D19*
G04 #@! TD*
G04 #@! TO.N,Net-(J3-PadR2)*
G04 #@! TO.C,JP1*
G36*
X96150000Y-62500000D02*
X96150000Y-63700000D01*
X95750000Y-63300000D01*
X95350000Y-63700000D01*
X95350000Y-62500000D01*
X96150000Y-62500000D01*
X96150000Y-62500000D01*
G37*
D18*
G04 #@! TO.P,JP1,1*
G04 #@! TO.N,/Rx*
X95750000Y-64400000D03*
D19*
G04 #@! TD*
G04 #@! TO.N,/Rx*
G04 #@! TO.C,JP1*
G36*
X95750000Y-63600000D02*
X96150000Y-64000000D01*
X96150000Y-64800000D01*
X95350000Y-64800000D01*
X95350000Y-64000000D01*
X95750000Y-63600000D01*
X95750000Y-63600000D01*
G37*
D18*
G04 #@! TO.P,JP2,2*
G04 #@! TO.N,Net-(J3-PadR1)*
X94600000Y-62900000D03*
D19*
G04 #@! TD*
G04 #@! TO.N,Net-(J3-PadR1)*
G04 #@! TO.C,JP2*
G36*
X95000000Y-62500000D02*
X95000000Y-63700000D01*
X94600000Y-63300000D01*
X94200000Y-63700000D01*
X94200000Y-62500000D01*
X95000000Y-62500000D01*
X95000000Y-62500000D01*
G37*
D18*
G04 #@! TO.P,JP2,1*
G04 #@! TO.N,/Tx*
X94600000Y-64400000D03*
D19*
G04 #@! TD*
G04 #@! TO.N,/Tx*
G04 #@! TO.C,JP2*
G36*
X94600000Y-63600000D02*
X95000000Y-64000000D01*
X95000000Y-64800000D01*
X94200000Y-64800000D01*
X94200000Y-64000000D01*
X94600000Y-63600000D01*
X94600000Y-63600000D01*
G37*
D20*
G04 #@! TO.N,GND*
X84900000Y-61900000D03*
X86600000Y-58200000D03*
X86600001Y-66600001D03*
X90072287Y-66600001D03*
X90200000Y-58200000D03*
X92225010Y-61900000D03*
X92225010Y-58887037D03*
G04 #@! TO.N,/READ*
X65300000Y-60000000D03*
G04 #@! TO.N,/COL_EN*
X79048952Y-57851048D03*
G04 #@! TO.N,/COL_C*
X75500000Y-63649979D03*
G04 #@! TO.N,/COL_B*
X76500000Y-64149990D03*
G04 #@! TO.N,/COL_A*
X77700000Y-64900000D03*
G04 #@! TO.N,/RESET*
X84777952Y-57477951D03*
X71800000Y-53300000D03*
G04 #@! TO.N,/Rx*
X95750000Y-64400000D03*
G04 #@! TO.N,/Tx*
X94600000Y-66400000D03*
G04 #@! TO.N,/CLKLED*
X74600000Y-68300000D03*
X92300000Y-70500000D03*
G04 #@! TO.N,/RXLED*
X91200000Y-70300000D03*
X79200000Y-56800000D03*
G04 #@! TO.N,/D+*
X60350000Y-57750000D03*
X75050333Y-57952430D03*
G04 #@! TO.N,/D-*
X60650000Y-59000000D03*
X75100000Y-56800000D03*
G04 #@! TD*
D21*
G04 #@! TO.N,GND*
X84900000Y-61900000D02*
X84900000Y-59900000D01*
X84900000Y-59900000D02*
X86600000Y-58200000D01*
G04 #@! TO.N,/READ*
X64800000Y-60500000D02*
X64800000Y-68400000D01*
X65300000Y-60000000D02*
X64800000Y-60500000D01*
G04 #@! TO.N,/COL_EN*
X76600000Y-60300000D02*
X78648953Y-58251047D01*
X66300000Y-67000000D02*
X73000000Y-60300000D01*
X66300000Y-68400000D02*
X66300000Y-67000000D01*
X78648953Y-58251047D02*
X79048952Y-57851048D01*
X73000000Y-60300000D02*
X76600000Y-60300000D01*
D22*
G04 #@! TO.N,/COL_C*
X67800000Y-67200000D02*
X71350021Y-63649979D01*
X71350021Y-63649979D02*
X74934315Y-63649979D01*
X74934315Y-63649979D02*
X75500000Y-63649979D01*
X67800000Y-68400000D02*
X67800000Y-67200000D01*
G04 #@! TO.N,/COL_B*
X71492889Y-64399989D02*
X76250001Y-64399989D01*
X76250001Y-64399989D02*
X76500000Y-64149990D01*
X69300000Y-66592878D02*
X71492889Y-64399989D01*
X69300000Y-68400000D02*
X69300000Y-66592878D01*
G04 #@! TO.N,/COL_A*
X70800000Y-68400000D02*
X70800000Y-65800000D01*
X71700000Y-64900000D02*
X77700000Y-64900000D01*
X70800000Y-65800000D02*
X71700000Y-64900000D01*
D21*
G04 #@! TO.N,/RESET*
X86020000Y-55702081D02*
X86000000Y-55722081D01*
X86020000Y-54500000D02*
X86020000Y-55702081D01*
X86000000Y-55722081D02*
X86000000Y-56900000D01*
X85422049Y-57477951D02*
X84777952Y-57477951D01*
X86000000Y-56900000D02*
X85422049Y-57477951D01*
X86000000Y-56900000D02*
X86000000Y-56500000D01*
X86000000Y-56500000D02*
X85000000Y-55500000D01*
X85000000Y-55500000D02*
X72800000Y-55500000D01*
X72800000Y-55500000D02*
X71800000Y-54500000D01*
X71800000Y-54500000D02*
X71800000Y-53300000D01*
G04 #@! TO.N,/Tx*
X94600000Y-64400000D02*
X94600000Y-66400000D01*
G04 #@! TO.N,/CLKLED*
X74600000Y-68865685D02*
X77734315Y-72000000D01*
X74600000Y-68300000D02*
X74600000Y-68865685D01*
X77734315Y-72000000D02*
X90800000Y-72000000D01*
X90800000Y-72000000D02*
X92300000Y-70500000D01*
G04 #@! TO.N,/RXLED*
X91200000Y-70300000D02*
X90634315Y-70300000D01*
X90634315Y-70300000D02*
X80600000Y-70300000D01*
X80600000Y-70300000D02*
X80100000Y-69800000D01*
X80100000Y-57700000D02*
X79200000Y-56800000D01*
X80100000Y-69800000D02*
X80100000Y-57700000D01*
G04 #@! TO.N,/D+*
X74847903Y-57750000D02*
X75050333Y-57952430D01*
X60350000Y-57750000D02*
X74847903Y-57750000D01*
G04 #@! TO.N,/D-*
X76300000Y-57600000D02*
X75900000Y-57600000D01*
X75900000Y-57600000D02*
X75100000Y-56800000D01*
X60650000Y-59000000D02*
X75215154Y-59000000D01*
X76300000Y-57915154D02*
X76300000Y-57600000D01*
X75215154Y-59000000D02*
X76300000Y-57915154D01*
G04 #@! TO.N,Net-(J3-PadR1)*
X93900000Y-57050000D02*
X93900000Y-56300000D01*
X94950000Y-58100000D02*
X93900000Y-57050000D01*
X95000000Y-58100000D02*
X94950000Y-58100000D01*
X95000000Y-61750000D02*
X95000000Y-58100000D01*
X94600000Y-62150000D02*
X94600000Y-62900000D01*
X95000000Y-61750000D02*
X94600000Y-62150000D01*
G04 #@! TO.N,Net-(J3-PadR2)*
X95750000Y-62900000D02*
X95750000Y-60850000D01*
X97150001Y-59449999D02*
X97150001Y-57300001D01*
X95750000Y-60850000D02*
X97150001Y-59449999D01*
X93900000Y-54150000D02*
X93900000Y-53300000D01*
X97050001Y-57300001D02*
X93900000Y-54150000D01*
X97150001Y-57300001D02*
X97050001Y-57300001D01*
G04 #@! TD*
D23*
G04 #@! TO.N,GND*
G36*
X95053018Y-50800429D02*
X94865000Y-51254343D01*
X94865000Y-51745657D01*
X95053018Y-52199571D01*
X95400429Y-52546982D01*
X95854343Y-52735000D01*
X96345657Y-52735000D01*
X96799571Y-52546982D01*
X97146982Y-52199571D01*
X97335000Y-51745657D01*
X97335000Y-51254343D01*
X97146982Y-50800429D01*
X97056553Y-50710000D01*
X99290001Y-50710000D01*
X99290001Y-60781440D01*
X99200002Y-60498322D01*
X98912763Y-60157632D01*
X98501874Y-59955881D01*
X98327000Y-60082046D01*
X98327000Y-61673000D01*
X98347000Y-61673000D01*
X98347000Y-61927000D01*
X98327000Y-61927000D01*
X98327000Y-63517954D01*
X98501874Y-63644119D01*
X98912763Y-63442368D01*
X99200002Y-63101678D01*
X99290000Y-62818560D01*
X99290000Y-72290000D01*
X91761578Y-72290000D01*
X92524148Y-71527431D01*
X92886280Y-71377431D01*
X93177431Y-71086280D01*
X93335000Y-70705874D01*
X93335000Y-70294126D01*
X93177431Y-69913720D01*
X92886280Y-69622569D01*
X92505874Y-69465000D01*
X92094126Y-69465000D01*
X91906449Y-69542738D01*
X91786280Y-69422569D01*
X91405874Y-69265000D01*
X90994126Y-69265000D01*
X90631993Y-69415000D01*
X80985000Y-69415000D01*
X80985000Y-64644941D01*
X85815000Y-64644941D01*
X85815000Y-65355059D01*
X86086750Y-66011121D01*
X86588879Y-66513250D01*
X87244941Y-66785000D01*
X87955059Y-66785000D01*
X88611121Y-66513250D01*
X89113250Y-66011121D01*
X89385000Y-65355059D01*
X89385000Y-64644941D01*
X89113250Y-63988879D01*
X88611121Y-63486750D01*
X87955059Y-63215000D01*
X87244941Y-63215000D01*
X86588879Y-63486750D01*
X86086750Y-63988879D01*
X85815000Y-64644941D01*
X80985000Y-64644941D01*
X80985000Y-59744941D01*
X85815000Y-59744941D01*
X85815000Y-60455059D01*
X86086750Y-61111121D01*
X86588879Y-61613250D01*
X87244941Y-61885000D01*
X87955059Y-61885000D01*
X88611121Y-61613250D01*
X89113250Y-61111121D01*
X89385000Y-60455059D01*
X89385000Y-59744941D01*
X89113250Y-59088879D01*
X88611121Y-58586750D01*
X87955059Y-58315000D01*
X87244941Y-58315000D01*
X86588879Y-58586750D01*
X86086750Y-59088879D01*
X85815000Y-59744941D01*
X80985000Y-59744941D01*
X80985000Y-57787159D01*
X81002337Y-57699999D01*
X80985000Y-57612839D01*
X80985000Y-57612835D01*
X80933652Y-57354690D01*
X80804755Y-57161783D01*
X80787424Y-57135845D01*
X80787423Y-57135844D01*
X80738049Y-57061951D01*
X80664156Y-57012577D01*
X80227431Y-56575852D01*
X80148377Y-56385000D01*
X84633422Y-56385000D01*
X84691373Y-56442951D01*
X84572078Y-56442951D01*
X84191672Y-56600520D01*
X83900521Y-56891671D01*
X83742952Y-57272077D01*
X83742952Y-57683825D01*
X83900521Y-58064231D01*
X84191672Y-58355382D01*
X84572078Y-58512951D01*
X84983826Y-58512951D01*
X85342367Y-58364439D01*
X85422049Y-58380288D01*
X85509210Y-58362951D01*
X85509214Y-58362951D01*
X85767359Y-58311603D01*
X86060098Y-58116000D01*
X86109474Y-58042105D01*
X86564156Y-57587423D01*
X86638049Y-57538049D01*
X86688897Y-57461951D01*
X86820495Y-57265000D01*
X86833652Y-57245310D01*
X86885000Y-56987165D01*
X86885000Y-56987161D01*
X86902337Y-56900001D01*
X86885000Y-56812841D01*
X86885000Y-56587161D01*
X86902337Y-56500000D01*
X86885000Y-56412839D01*
X86885000Y-55889793D01*
X86905000Y-55789246D01*
X86905000Y-55789241D01*
X86922337Y-55702082D01*
X86918999Y-55685302D01*
X87090625Y-55570625D01*
X87290000Y-55272239D01*
X87489375Y-55570625D01*
X87980582Y-55898839D01*
X88413744Y-55985000D01*
X88706256Y-55985000D01*
X89139418Y-55898839D01*
X89630625Y-55570625D01*
X89642816Y-55552381D01*
X89651843Y-55597765D01*
X89792191Y-55807809D01*
X90002235Y-55948157D01*
X90250000Y-55997440D01*
X91950000Y-55997440D01*
X92197765Y-55948157D01*
X92407809Y-55807809D01*
X92548157Y-55597765D01*
X92597440Y-55350000D01*
X92597440Y-53650000D01*
X92548157Y-53402235D01*
X92407809Y-53192191D01*
X92197765Y-53051843D01*
X92152381Y-53042816D01*
X92170625Y-53030625D01*
X92498839Y-52539418D01*
X92538860Y-52338217D01*
X92765000Y-52338217D01*
X92765000Y-54261782D01*
X92830854Y-54592854D01*
X93002673Y-54850001D01*
X92830855Y-55107145D01*
X92765000Y-55438217D01*
X92765000Y-57161782D01*
X92830854Y-57492854D01*
X93081711Y-57868289D01*
X93457145Y-58119146D01*
X93782231Y-58183809D01*
X94013828Y-58415407D01*
X93900000Y-58392765D01*
X93457146Y-58480854D01*
X93081712Y-58731711D01*
X92830855Y-59107145D01*
X92765000Y-59438217D01*
X92765000Y-61161782D01*
X92830854Y-61492854D01*
X93081711Y-61868289D01*
X93457145Y-62119146D01*
X93663363Y-62160165D01*
X93601843Y-62252235D01*
X93552560Y-62500000D01*
X93552560Y-63700000D01*
X93582397Y-63850000D01*
X93552560Y-64000000D01*
X93552560Y-64800000D01*
X93601843Y-65047765D01*
X93715000Y-65217116D01*
X93715001Y-65831992D01*
X93565000Y-66194126D01*
X93565000Y-66605874D01*
X93722569Y-66986280D01*
X94013720Y-67277431D01*
X94394126Y-67435000D01*
X94805874Y-67435000D01*
X95186280Y-67277431D01*
X95477431Y-66986280D01*
X95635000Y-66605874D01*
X95635000Y-66194126D01*
X95485000Y-65831993D01*
X95485000Y-65447440D01*
X96150000Y-65447440D01*
X96397765Y-65398157D01*
X96607809Y-65257809D01*
X96748157Y-65047765D01*
X96797440Y-64800000D01*
X96797440Y-64000000D01*
X96767603Y-63850000D01*
X96797440Y-63700000D01*
X96797440Y-62500000D01*
X96748157Y-62252235D01*
X96635000Y-62082885D01*
X96635000Y-61927000D01*
X97065000Y-61927000D01*
X97065000Y-62677000D01*
X97199998Y-63101678D01*
X97487237Y-63442368D01*
X97898126Y-63644119D01*
X98073000Y-63517954D01*
X98073000Y-61927000D01*
X97065000Y-61927000D01*
X96635000Y-61927000D01*
X96635000Y-61216578D01*
X97128576Y-60723003D01*
X97065000Y-60923000D01*
X97065000Y-61673000D01*
X98073000Y-61673000D01*
X98073000Y-60082046D01*
X97898126Y-59955881D01*
X97865734Y-59971786D01*
X97877158Y-59954690D01*
X97923723Y-59885000D01*
X97983653Y-59795309D01*
X98035001Y-59537164D01*
X98035001Y-59537160D01*
X98052338Y-59450000D01*
X98035001Y-59362840D01*
X98035001Y-57387166D01*
X98052339Y-57300001D01*
X97983653Y-56954691D01*
X97788050Y-56661952D01*
X97495311Y-56466349D01*
X97461129Y-56459550D01*
X95035000Y-54033422D01*
X95035000Y-52338217D01*
X94969146Y-52007145D01*
X94718289Y-51631711D01*
X94342855Y-51380854D01*
X93900000Y-51292765D01*
X93457146Y-51380854D01*
X93081712Y-51631711D01*
X92830855Y-52007145D01*
X92765000Y-52338217D01*
X92538860Y-52338217D01*
X92614092Y-51960000D01*
X92498839Y-51380582D01*
X92170625Y-50889375D01*
X91902171Y-50710000D01*
X95143447Y-50710000D01*
X95053018Y-50800429D01*
X95053018Y-50800429D01*
G37*
X95053018Y-50800429D02*
X94865000Y-51254343D01*
X94865000Y-51745657D01*
X95053018Y-52199571D01*
X95400429Y-52546982D01*
X95854343Y-52735000D01*
X96345657Y-52735000D01*
X96799571Y-52546982D01*
X97146982Y-52199571D01*
X97335000Y-51745657D01*
X97335000Y-51254343D01*
X97146982Y-50800429D01*
X97056553Y-50710000D01*
X99290001Y-50710000D01*
X99290001Y-60781440D01*
X99200002Y-60498322D01*
X98912763Y-60157632D01*
X98501874Y-59955881D01*
X98327000Y-60082046D01*
X98327000Y-61673000D01*
X98347000Y-61673000D01*
X98347000Y-61927000D01*
X98327000Y-61927000D01*
X98327000Y-63517954D01*
X98501874Y-63644119D01*
X98912763Y-63442368D01*
X99200002Y-63101678D01*
X99290000Y-62818560D01*
X99290000Y-72290000D01*
X91761578Y-72290000D01*
X92524148Y-71527431D01*
X92886280Y-71377431D01*
X93177431Y-71086280D01*
X93335000Y-70705874D01*
X93335000Y-70294126D01*
X93177431Y-69913720D01*
X92886280Y-69622569D01*
X92505874Y-69465000D01*
X92094126Y-69465000D01*
X91906449Y-69542738D01*
X91786280Y-69422569D01*
X91405874Y-69265000D01*
X90994126Y-69265000D01*
X90631993Y-69415000D01*
X80985000Y-69415000D01*
X80985000Y-64644941D01*
X85815000Y-64644941D01*
X85815000Y-65355059D01*
X86086750Y-66011121D01*
X86588879Y-66513250D01*
X87244941Y-66785000D01*
X87955059Y-66785000D01*
X88611121Y-66513250D01*
X89113250Y-66011121D01*
X89385000Y-65355059D01*
X89385000Y-64644941D01*
X89113250Y-63988879D01*
X88611121Y-63486750D01*
X87955059Y-63215000D01*
X87244941Y-63215000D01*
X86588879Y-63486750D01*
X86086750Y-63988879D01*
X85815000Y-64644941D01*
X80985000Y-64644941D01*
X80985000Y-59744941D01*
X85815000Y-59744941D01*
X85815000Y-60455059D01*
X86086750Y-61111121D01*
X86588879Y-61613250D01*
X87244941Y-61885000D01*
X87955059Y-61885000D01*
X88611121Y-61613250D01*
X89113250Y-61111121D01*
X89385000Y-60455059D01*
X89385000Y-59744941D01*
X89113250Y-59088879D01*
X88611121Y-58586750D01*
X87955059Y-58315000D01*
X87244941Y-58315000D01*
X86588879Y-58586750D01*
X86086750Y-59088879D01*
X85815000Y-59744941D01*
X80985000Y-59744941D01*
X80985000Y-57787159D01*
X81002337Y-57699999D01*
X80985000Y-57612839D01*
X80985000Y-57612835D01*
X80933652Y-57354690D01*
X80804755Y-57161783D01*
X80787424Y-57135845D01*
X80787423Y-57135844D01*
X80738049Y-57061951D01*
X80664156Y-57012577D01*
X80227431Y-56575852D01*
X80148377Y-56385000D01*
X84633422Y-56385000D01*
X84691373Y-56442951D01*
X84572078Y-56442951D01*
X84191672Y-56600520D01*
X83900521Y-56891671D01*
X83742952Y-57272077D01*
X83742952Y-57683825D01*
X83900521Y-58064231D01*
X84191672Y-58355382D01*
X84572078Y-58512951D01*
X84983826Y-58512951D01*
X85342367Y-58364439D01*
X85422049Y-58380288D01*
X85509210Y-58362951D01*
X85509214Y-58362951D01*
X85767359Y-58311603D01*
X86060098Y-58116000D01*
X86109474Y-58042105D01*
X86564156Y-57587423D01*
X86638049Y-57538049D01*
X86688897Y-57461951D01*
X86820495Y-57265000D01*
X86833652Y-57245310D01*
X86885000Y-56987165D01*
X86885000Y-56987161D01*
X86902337Y-56900001D01*
X86885000Y-56812841D01*
X86885000Y-56587161D01*
X86902337Y-56500000D01*
X86885000Y-56412839D01*
X86885000Y-55889793D01*
X86905000Y-55789246D01*
X86905000Y-55789241D01*
X86922337Y-55702082D01*
X86918999Y-55685302D01*
X87090625Y-55570625D01*
X87290000Y-55272239D01*
X87489375Y-55570625D01*
X87980582Y-55898839D01*
X88413744Y-55985000D01*
X88706256Y-55985000D01*
X89139418Y-55898839D01*
X89630625Y-55570625D01*
X89642816Y-55552381D01*
X89651843Y-55597765D01*
X89792191Y-55807809D01*
X90002235Y-55948157D01*
X90250000Y-55997440D01*
X91950000Y-55997440D01*
X92197765Y-55948157D01*
X92407809Y-55807809D01*
X92548157Y-55597765D01*
X92597440Y-55350000D01*
X92597440Y-53650000D01*
X92548157Y-53402235D01*
X92407809Y-53192191D01*
X92197765Y-53051843D01*
X92152381Y-53042816D01*
X92170625Y-53030625D01*
X92498839Y-52539418D01*
X92538860Y-52338217D01*
X92765000Y-52338217D01*
X92765000Y-54261782D01*
X92830854Y-54592854D01*
X93002673Y-54850001D01*
X92830855Y-55107145D01*
X92765000Y-55438217D01*
X92765000Y-57161782D01*
X92830854Y-57492854D01*
X93081711Y-57868289D01*
X93457145Y-58119146D01*
X93782231Y-58183809D01*
X94013828Y-58415407D01*
X93900000Y-58392765D01*
X93457146Y-58480854D01*
X93081712Y-58731711D01*
X92830855Y-59107145D01*
X92765000Y-59438217D01*
X92765000Y-61161782D01*
X92830854Y-61492854D01*
X93081711Y-61868289D01*
X93457145Y-62119146D01*
X93663363Y-62160165D01*
X93601843Y-62252235D01*
X93552560Y-62500000D01*
X93552560Y-63700000D01*
X93582397Y-63850000D01*
X93552560Y-64000000D01*
X93552560Y-64800000D01*
X93601843Y-65047765D01*
X93715000Y-65217116D01*
X93715001Y-65831992D01*
X93565000Y-66194126D01*
X93565000Y-66605874D01*
X93722569Y-66986280D01*
X94013720Y-67277431D01*
X94394126Y-67435000D01*
X94805874Y-67435000D01*
X95186280Y-67277431D01*
X95477431Y-66986280D01*
X95635000Y-66605874D01*
X95635000Y-66194126D01*
X95485000Y-65831993D01*
X95485000Y-65447440D01*
X96150000Y-65447440D01*
X96397765Y-65398157D01*
X96607809Y-65257809D01*
X96748157Y-65047765D01*
X96797440Y-64800000D01*
X96797440Y-64000000D01*
X96767603Y-63850000D01*
X96797440Y-63700000D01*
X96797440Y-62500000D01*
X96748157Y-62252235D01*
X96635000Y-62082885D01*
X96635000Y-61927000D01*
X97065000Y-61927000D01*
X97065000Y-62677000D01*
X97199998Y-63101678D01*
X97487237Y-63442368D01*
X97898126Y-63644119D01*
X98073000Y-63517954D01*
X98073000Y-61927000D01*
X97065000Y-61927000D01*
X96635000Y-61927000D01*
X96635000Y-61216578D01*
X97128576Y-60723003D01*
X97065000Y-60923000D01*
X97065000Y-61673000D01*
X98073000Y-61673000D01*
X98073000Y-60082046D01*
X97898126Y-59955881D01*
X97865734Y-59971786D01*
X97877158Y-59954690D01*
X97923723Y-59885000D01*
X97983653Y-59795309D01*
X98035001Y-59537164D01*
X98035001Y-59537160D01*
X98052338Y-59450000D01*
X98035001Y-59362840D01*
X98035001Y-57387166D01*
X98052339Y-57300001D01*
X97983653Y-56954691D01*
X97788050Y-56661952D01*
X97495311Y-56466349D01*
X97461129Y-56459550D01*
X95035000Y-54033422D01*
X95035000Y-52338217D01*
X94969146Y-52007145D01*
X94718289Y-51631711D01*
X94342855Y-51380854D01*
X93900000Y-51292765D01*
X93457146Y-51380854D01*
X93081712Y-51631711D01*
X92830855Y-52007145D01*
X92765000Y-52338217D01*
X92538860Y-52338217D01*
X92614092Y-51960000D01*
X92498839Y-51380582D01*
X92170625Y-50889375D01*
X91902171Y-50710000D01*
X95143447Y-50710000D01*
X95053018Y-50800429D01*
G36*
X84824817Y-51078642D02*
X84578514Y-51603108D01*
X84699181Y-51833000D01*
X85893000Y-51833000D01*
X85893000Y-51813000D01*
X86147000Y-51813000D01*
X86147000Y-51833000D01*
X86167000Y-51833000D01*
X86167000Y-52087000D01*
X86147000Y-52087000D01*
X86147000Y-52107000D01*
X85893000Y-52107000D01*
X85893000Y-52087000D01*
X84699181Y-52087000D01*
X84578514Y-52316892D01*
X84824817Y-52841358D01*
X85249786Y-53228647D01*
X84949375Y-53429375D01*
X84621161Y-53920582D01*
X84505908Y-54500000D01*
X84528783Y-54615000D01*
X73166579Y-54615000D01*
X72685000Y-54133422D01*
X72685000Y-53868007D01*
X72835000Y-53505874D01*
X72835000Y-53094126D01*
X72677431Y-52713720D01*
X72386280Y-52422569D01*
X72005874Y-52265000D01*
X71594126Y-52265000D01*
X71213720Y-52422569D01*
X70922569Y-52713720D01*
X70765000Y-53094126D01*
X70765000Y-53505874D01*
X70915001Y-53868008D01*
X70915000Y-54412839D01*
X70897663Y-54500000D01*
X70915000Y-54587161D01*
X70915000Y-54587164D01*
X70966348Y-54845309D01*
X71161951Y-55138049D01*
X71235847Y-55187425D01*
X72112577Y-56064156D01*
X72161951Y-56138049D01*
X72235844Y-56187423D01*
X72235845Y-56187424D01*
X72275200Y-56213720D01*
X72454690Y-56333652D01*
X72712835Y-56385000D01*
X72712839Y-56385000D01*
X72800000Y-56402337D01*
X72887161Y-56385000D01*
X74151623Y-56385000D01*
X74065000Y-56594126D01*
X74065000Y-56865000D01*
X60918007Y-56865000D01*
X60555874Y-56715000D01*
X60144126Y-56715000D01*
X59763720Y-56872569D01*
X59472569Y-57163720D01*
X59315000Y-57544126D01*
X59315000Y-57955874D01*
X59472569Y-58336280D01*
X59707383Y-58571094D01*
X59615000Y-58794126D01*
X59615000Y-59205874D01*
X59772569Y-59586280D01*
X60063720Y-59877431D01*
X60444126Y-60035000D01*
X60855874Y-60035000D01*
X61218007Y-59885000D01*
X64146550Y-59885000D01*
X63966348Y-60154691D01*
X63915000Y-60412836D01*
X63915000Y-60412839D01*
X63897663Y-60500000D01*
X63915000Y-60587161D01*
X63915001Y-67047799D01*
X63655281Y-66910408D01*
X63617609Y-66906538D01*
X63427000Y-67031269D01*
X63427000Y-68273000D01*
X63447000Y-68273000D01*
X63447000Y-68527000D01*
X63427000Y-68527000D01*
X63427000Y-69768731D01*
X63617609Y-69893462D01*
X63655281Y-69889592D01*
X64047160Y-69682290D01*
X64318127Y-69863344D01*
X64800000Y-69959195D01*
X65281872Y-69863344D01*
X65550000Y-69684187D01*
X65818127Y-69863344D01*
X66300000Y-69959195D01*
X66781872Y-69863344D01*
X67050000Y-69684187D01*
X67318127Y-69863344D01*
X67800000Y-69959195D01*
X68281872Y-69863344D01*
X68550000Y-69684187D01*
X68818127Y-69863344D01*
X69300000Y-69959195D01*
X69781872Y-69863344D01*
X69841003Y-69823834D01*
X69952235Y-69898157D01*
X70200000Y-69947440D01*
X71400000Y-69947440D01*
X71647765Y-69898157D01*
X71857809Y-69757809D01*
X71998157Y-69547765D01*
X72047440Y-69300000D01*
X72047440Y-67500000D01*
X71998157Y-67252235D01*
X71857809Y-67042191D01*
X71647765Y-66901843D01*
X71585000Y-66889358D01*
X71585000Y-66125157D01*
X72025158Y-65685000D01*
X77021289Y-65685000D01*
X77113720Y-65777431D01*
X77494126Y-65935000D01*
X77905874Y-65935000D01*
X78286280Y-65777431D01*
X78577431Y-65486280D01*
X78735000Y-65105874D01*
X78735000Y-64694126D01*
X78577431Y-64313720D01*
X78286280Y-64022569D01*
X77905874Y-63865000D01*
X77502229Y-63865000D01*
X77377431Y-63563710D01*
X77086280Y-63272559D01*
X76705874Y-63114990D01*
X76398676Y-63114990D01*
X76377431Y-63063699D01*
X76086280Y-62772548D01*
X75705874Y-62614979D01*
X75294126Y-62614979D01*
X74913720Y-62772548D01*
X74821289Y-62864979D01*
X71686600Y-62864979D01*
X73366579Y-61185000D01*
X76512839Y-61185000D01*
X76600000Y-61202337D01*
X76687161Y-61185000D01*
X76687165Y-61185000D01*
X76945310Y-61133652D01*
X77238049Y-60938049D01*
X77287425Y-60864153D01*
X79215001Y-58936578D01*
X79215000Y-69712839D01*
X79197663Y-69800000D01*
X79215000Y-69887161D01*
X79215000Y-69887164D01*
X79266348Y-70145309D01*
X79461951Y-70438049D01*
X79535847Y-70487425D01*
X79912575Y-70864153D01*
X79961951Y-70938049D01*
X80226775Y-71115000D01*
X78100894Y-71115000D01*
X75593048Y-68607155D01*
X75635000Y-68505874D01*
X75635000Y-68094126D01*
X75477431Y-67713720D01*
X75186280Y-67422569D01*
X74805874Y-67265000D01*
X74394126Y-67265000D01*
X74013720Y-67422569D01*
X73722569Y-67713720D01*
X73565000Y-68094126D01*
X73565000Y-68505874D01*
X73702975Y-68838977D01*
X73697663Y-68865685D01*
X73715000Y-68952846D01*
X73715000Y-68952850D01*
X73766348Y-69210995D01*
X73819103Y-69289947D01*
X73907719Y-69422569D01*
X73961952Y-69503734D01*
X74035845Y-69553108D01*
X76772736Y-72290000D01*
X50710000Y-72290000D01*
X50710000Y-67978364D01*
X51265000Y-67978364D01*
X51265000Y-68821635D01*
X51336656Y-69181872D01*
X51609615Y-69590385D01*
X52018127Y-69863344D01*
X52500000Y-69959195D01*
X52981872Y-69863344D01*
X53250000Y-69684187D01*
X53518127Y-69863344D01*
X54000000Y-69959195D01*
X54481872Y-69863344D01*
X54750000Y-69684187D01*
X55018127Y-69863344D01*
X55500000Y-69959195D01*
X55981872Y-69863344D01*
X56250000Y-69684187D01*
X56518127Y-69863344D01*
X57000000Y-69959195D01*
X57481872Y-69863344D01*
X57750000Y-69684187D01*
X58018127Y-69863344D01*
X58500000Y-69959195D01*
X58981872Y-69863344D01*
X59041003Y-69823834D01*
X59152235Y-69898157D01*
X59400000Y-69947440D01*
X60600000Y-69947440D01*
X60847765Y-69898157D01*
X61057809Y-69757809D01*
X61198157Y-69547765D01*
X61247440Y-69300000D01*
X61247440Y-68527000D01*
X62065000Y-68527000D01*
X62065000Y-68827000D01*
X62207610Y-69289947D01*
X62516526Y-69663080D01*
X62944719Y-69889592D01*
X62982391Y-69893462D01*
X63173000Y-69768731D01*
X63173000Y-68527000D01*
X62065000Y-68527000D01*
X61247440Y-68527000D01*
X61247440Y-67973000D01*
X62065000Y-67973000D01*
X62065000Y-68273000D01*
X63173000Y-68273000D01*
X63173000Y-67031269D01*
X62982391Y-66906538D01*
X62944719Y-66910408D01*
X62516526Y-67136920D01*
X62207610Y-67510053D01*
X62065000Y-67973000D01*
X61247440Y-67973000D01*
X61247440Y-67500000D01*
X61198157Y-67252235D01*
X61057809Y-67042191D01*
X60847765Y-66901843D01*
X60600000Y-66852560D01*
X59400000Y-66852560D01*
X59152235Y-66901843D01*
X59041004Y-66976166D01*
X58981873Y-66936656D01*
X58500000Y-66840805D01*
X58018128Y-66936656D01*
X57750001Y-67115813D01*
X57481873Y-66936656D01*
X57000000Y-66840805D01*
X56518128Y-66936656D01*
X56250001Y-67115813D01*
X55981873Y-66936656D01*
X55500000Y-66840805D01*
X55018128Y-66936656D01*
X54750001Y-67115813D01*
X54481873Y-66936656D01*
X54000000Y-66840805D01*
X53518128Y-66936656D01*
X53250001Y-67115813D01*
X52981873Y-66936656D01*
X52500000Y-66840805D01*
X52018128Y-66936656D01*
X51609616Y-67209615D01*
X51336656Y-67618127D01*
X51265000Y-67978364D01*
X50710000Y-67978364D01*
X50710000Y-50710000D01*
X85229325Y-50710000D01*
X84824817Y-51078642D01*
X84824817Y-51078642D01*
G37*
X84824817Y-51078642D02*
X84578514Y-51603108D01*
X84699181Y-51833000D01*
X85893000Y-51833000D01*
X85893000Y-51813000D01*
X86147000Y-51813000D01*
X86147000Y-51833000D01*
X86167000Y-51833000D01*
X86167000Y-52087000D01*
X86147000Y-52087000D01*
X86147000Y-52107000D01*
X85893000Y-52107000D01*
X85893000Y-52087000D01*
X84699181Y-52087000D01*
X84578514Y-52316892D01*
X84824817Y-52841358D01*
X85249786Y-53228647D01*
X84949375Y-53429375D01*
X84621161Y-53920582D01*
X84505908Y-54500000D01*
X84528783Y-54615000D01*
X73166579Y-54615000D01*
X72685000Y-54133422D01*
X72685000Y-53868007D01*
X72835000Y-53505874D01*
X72835000Y-53094126D01*
X72677431Y-52713720D01*
X72386280Y-52422569D01*
X72005874Y-52265000D01*
X71594126Y-52265000D01*
X71213720Y-52422569D01*
X70922569Y-52713720D01*
X70765000Y-53094126D01*
X70765000Y-53505874D01*
X70915001Y-53868008D01*
X70915000Y-54412839D01*
X70897663Y-54500000D01*
X70915000Y-54587161D01*
X70915000Y-54587164D01*
X70966348Y-54845309D01*
X71161951Y-55138049D01*
X71235847Y-55187425D01*
X72112577Y-56064156D01*
X72161951Y-56138049D01*
X72235844Y-56187423D01*
X72235845Y-56187424D01*
X72275200Y-56213720D01*
X72454690Y-56333652D01*
X72712835Y-56385000D01*
X72712839Y-56385000D01*
X72800000Y-56402337D01*
X72887161Y-56385000D01*
X74151623Y-56385000D01*
X74065000Y-56594126D01*
X74065000Y-56865000D01*
X60918007Y-56865000D01*
X60555874Y-56715000D01*
X60144126Y-56715000D01*
X59763720Y-56872569D01*
X59472569Y-57163720D01*
X59315000Y-57544126D01*
X59315000Y-57955874D01*
X59472569Y-58336280D01*
X59707383Y-58571094D01*
X59615000Y-58794126D01*
X59615000Y-59205874D01*
X59772569Y-59586280D01*
X60063720Y-59877431D01*
X60444126Y-60035000D01*
X60855874Y-60035000D01*
X61218007Y-59885000D01*
X64146550Y-59885000D01*
X63966348Y-60154691D01*
X63915000Y-60412836D01*
X63915000Y-60412839D01*
X63897663Y-60500000D01*
X63915000Y-60587161D01*
X63915001Y-67047799D01*
X63655281Y-66910408D01*
X63617609Y-66906538D01*
X63427000Y-67031269D01*
X63427000Y-68273000D01*
X63447000Y-68273000D01*
X63447000Y-68527000D01*
X63427000Y-68527000D01*
X63427000Y-69768731D01*
X63617609Y-69893462D01*
X63655281Y-69889592D01*
X64047160Y-69682290D01*
X64318127Y-69863344D01*
X64800000Y-69959195D01*
X65281872Y-69863344D01*
X65550000Y-69684187D01*
X65818127Y-69863344D01*
X66300000Y-69959195D01*
X66781872Y-69863344D01*
X67050000Y-69684187D01*
X67318127Y-69863344D01*
X67800000Y-69959195D01*
X68281872Y-69863344D01*
X68550000Y-69684187D01*
X68818127Y-69863344D01*
X69300000Y-69959195D01*
X69781872Y-69863344D01*
X69841003Y-69823834D01*
X69952235Y-69898157D01*
X70200000Y-69947440D01*
X71400000Y-69947440D01*
X71647765Y-69898157D01*
X71857809Y-69757809D01*
X71998157Y-69547765D01*
X72047440Y-69300000D01*
X72047440Y-67500000D01*
X71998157Y-67252235D01*
X71857809Y-67042191D01*
X71647765Y-66901843D01*
X71585000Y-66889358D01*
X71585000Y-66125157D01*
X72025158Y-65685000D01*
X77021289Y-65685000D01*
X77113720Y-65777431D01*
X77494126Y-65935000D01*
X77905874Y-65935000D01*
X78286280Y-65777431D01*
X78577431Y-65486280D01*
X78735000Y-65105874D01*
X78735000Y-64694126D01*
X78577431Y-64313720D01*
X78286280Y-64022569D01*
X77905874Y-63865000D01*
X77502229Y-63865000D01*
X77377431Y-63563710D01*
X77086280Y-63272559D01*
X76705874Y-63114990D01*
X76398676Y-63114990D01*
X76377431Y-63063699D01*
X76086280Y-62772548D01*
X75705874Y-62614979D01*
X75294126Y-62614979D01*
X74913720Y-62772548D01*
X74821289Y-62864979D01*
X71686600Y-62864979D01*
X73366579Y-61185000D01*
X76512839Y-61185000D01*
X76600000Y-61202337D01*
X76687161Y-61185000D01*
X76687165Y-61185000D01*
X76945310Y-61133652D01*
X77238049Y-60938049D01*
X77287425Y-60864153D01*
X79215001Y-58936578D01*
X79215000Y-69712839D01*
X79197663Y-69800000D01*
X79215000Y-69887161D01*
X79215000Y-69887164D01*
X79266348Y-70145309D01*
X79461951Y-70438049D01*
X79535847Y-70487425D01*
X79912575Y-70864153D01*
X79961951Y-70938049D01*
X80226775Y-71115000D01*
X78100894Y-71115000D01*
X75593048Y-68607155D01*
X75635000Y-68505874D01*
X75635000Y-68094126D01*
X75477431Y-67713720D01*
X75186280Y-67422569D01*
X74805874Y-67265000D01*
X74394126Y-67265000D01*
X74013720Y-67422569D01*
X73722569Y-67713720D01*
X73565000Y-68094126D01*
X73565000Y-68505874D01*
X73702975Y-68838977D01*
X73697663Y-68865685D01*
X73715000Y-68952846D01*
X73715000Y-68952850D01*
X73766348Y-69210995D01*
X73819103Y-69289947D01*
X73907719Y-69422569D01*
X73961952Y-69503734D01*
X74035845Y-69553108D01*
X76772736Y-72290000D01*
X50710000Y-72290000D01*
X50710000Y-67978364D01*
X51265000Y-67978364D01*
X51265000Y-68821635D01*
X51336656Y-69181872D01*
X51609615Y-69590385D01*
X52018127Y-69863344D01*
X52500000Y-69959195D01*
X52981872Y-69863344D01*
X53250000Y-69684187D01*
X53518127Y-69863344D01*
X54000000Y-69959195D01*
X54481872Y-69863344D01*
X54750000Y-69684187D01*
X55018127Y-69863344D01*
X55500000Y-69959195D01*
X55981872Y-69863344D01*
X56250000Y-69684187D01*
X56518127Y-69863344D01*
X57000000Y-69959195D01*
X57481872Y-69863344D01*
X57750000Y-69684187D01*
X58018127Y-69863344D01*
X58500000Y-69959195D01*
X58981872Y-69863344D01*
X59041003Y-69823834D01*
X59152235Y-69898157D01*
X59400000Y-69947440D01*
X60600000Y-69947440D01*
X60847765Y-69898157D01*
X61057809Y-69757809D01*
X61198157Y-69547765D01*
X61247440Y-69300000D01*
X61247440Y-68527000D01*
X62065000Y-68527000D01*
X62065000Y-68827000D01*
X62207610Y-69289947D01*
X62516526Y-69663080D01*
X62944719Y-69889592D01*
X62982391Y-69893462D01*
X63173000Y-69768731D01*
X63173000Y-68527000D01*
X62065000Y-68527000D01*
X61247440Y-68527000D01*
X61247440Y-67973000D01*
X62065000Y-67973000D01*
X62065000Y-68273000D01*
X63173000Y-68273000D01*
X63173000Y-67031269D01*
X62982391Y-66906538D01*
X62944719Y-66910408D01*
X62516526Y-67136920D01*
X62207610Y-67510053D01*
X62065000Y-67973000D01*
X61247440Y-67973000D01*
X61247440Y-67500000D01*
X61198157Y-67252235D01*
X61057809Y-67042191D01*
X60847765Y-66901843D01*
X60600000Y-66852560D01*
X59400000Y-66852560D01*
X59152235Y-66901843D01*
X59041004Y-66976166D01*
X58981873Y-66936656D01*
X58500000Y-66840805D01*
X58018128Y-66936656D01*
X57750001Y-67115813D01*
X57481873Y-66936656D01*
X57000000Y-66840805D01*
X56518128Y-66936656D01*
X56250001Y-67115813D01*
X55981873Y-66936656D01*
X55500000Y-66840805D01*
X55018128Y-66936656D01*
X54750001Y-67115813D01*
X54481873Y-66936656D01*
X54000000Y-66840805D01*
X53518128Y-66936656D01*
X53250001Y-67115813D01*
X52981873Y-66936656D01*
X52500000Y-66840805D01*
X52018128Y-66936656D01*
X51609616Y-67209615D01*
X51336656Y-67618127D01*
X51265000Y-67978364D01*
X50710000Y-67978364D01*
X50710000Y-50710000D01*
X85229325Y-50710000D01*
X84824817Y-51078642D01*
G04 #@! TD*
M02*
