M48
;DRILL file {KiCad (5.0.2)-1} date 2020/05/18 11:18:04
;FORMAT={-:-/ absolute / inch / decimal}
FMAT,2
INCH,TZ
T1C0.0157
T2C0.0236
T3C0.0276
T4C0.0315
T5C0.0709
%
G90
G05
T1
X3.3583Y-2.3012
X3.5177Y-2.9173
X3.5768Y-2.2736
X3.7067Y-3.0295
X3.7126Y-3.3091
X3.8012Y-3.7382
X3.8996Y-3.0295
X3.9134Y-3.7362
X4.0591Y-3.874
X4.061Y-2.2717
X4.0768Y-3.7618
X4.0866Y-3.9646
X4.1201Y-5.2874
X4.2146Y-3.7303
X4.3071Y-2.2736
X4.4449Y-3.0374
X4.5709Y-3.7657
X4.7402Y-3.9626
X4.7421Y-3.0374
X4.8307Y-2.2736
X4.9843Y-5.2854
X5.0866Y-3.7638
X5.1004Y-2.2717
X5.185Y-3.0374
X5.3701Y-5.2795
X5.3996Y-3.0335
X5.4016Y-4.8189
X5.4508Y-5.061
X5.5354Y-3.9567
X5.6004Y-2.2717
X5.687Y-3.7579
X5.6909Y-5.0413
X5.7303Y-5.313
X5.8406Y-5.2736
X5.8957Y-2.2717
X5.9567Y-3.0335
X5.9843Y-4.6063
X5.9961Y-4.6476
X6.0866Y-4.6831
X6.1732Y-4.9193
X6.2242Y-5.0268
X6.2382Y-3.0335
X6.2835Y-4.689
X6.2992Y-3.9567
X6.3107Y-5.3169
X6.3268Y-2.2717
X6.498Y-3.7657
X6.5984Y-2.2717
X6.6378Y-3.0315
X6.7559Y-5.2854
X6.9488Y-3.0315
X7.0591Y-2.2697
X7.0669Y-3.9567
X7.3287Y-3.7618
X7.376Y-3.0354
X7.3839Y-2.2717
X7.3858Y-5.2894
X7.6929Y-3.0374
X8.0039Y-3.9665
X8.0531Y-3.7657
X8.1457Y-3.0394
X8.3327Y-4.8543
X8.3327Y-5.1437
X8.3497Y-4.7067
X8.4902Y-3.0079
X8.5669Y-2.2598
X8.7343Y-2.3189
X8.9449Y-3.9705
X9.0827Y-3.7736
X9.1358Y-3.0335
X9.1496Y-1.9587
X9.1831Y-2.1004
X9.3543Y-3.0276
T2
X5.8163Y-4.2185
X5.8169Y-4.2185
X5.8957Y-4.2185
X5.8957Y-4.2185
X6.21Y-3.4685
X6.2106Y-3.4685
X6.2894Y-3.4685
X6.2894Y-3.4685
X6.4285Y-1.9685
X6.4291Y-1.9685
X6.5079Y-1.9685
X6.5079Y-1.9685
X8.2828Y-2.7185
X8.2835Y-2.7185
X8.3622Y-2.7185
X8.3622Y-2.7185
X6.0328Y-2.7185
X6.0335Y-2.7185
X6.1122Y-2.7185
X6.1122Y-2.7185
X5.0663Y-4.2185
X5.0669Y-4.2185
X5.1457Y-4.2185
X5.1457Y-4.2185
X7.1785Y-1.9685
X7.1791Y-1.9685
X7.2579Y-1.9685
X7.2579Y-1.9685
X6.7828Y-2.7185
X6.7835Y-2.7185
X6.8622Y-2.7185
X6.8622Y-2.7185
X8.3754Y-4.2185
X8.376Y-4.2185
X8.4547Y-4.2185
X8.4547Y-4.2185
X7.9285Y-1.9685
X7.9291Y-1.9685
X8.0079Y-1.9685
X8.0079Y-1.9685
X6.96Y-3.4685
X6.9606Y-3.4685
X7.0394Y-3.4685
X7.0394Y-3.4685
X3.96Y-3.4685
X3.9606Y-3.4685
X4.0394Y-3.4685
X4.0394Y-3.4685
X3.4285Y-1.9685
X3.4291Y-1.9685
X3.5079Y-1.9685
X3.5079Y-1.9685
X7.5328Y-2.7185
X7.5335Y-2.7185
X7.6122Y-2.7185
X7.6122Y-2.7185
X5.46Y-3.4685
X5.4606Y-3.4685
X5.5394Y-3.4685
X5.5394Y-3.4685
X7.3163Y-4.2185
X7.3169Y-4.2185
X7.3957Y-4.2185
X7.3957Y-4.2185
X3.7828Y-2.7185
X3.7835Y-2.7185
X3.8622Y-2.7185
X3.8622Y-2.7185
X9.2238Y-2.7185
X9.2244Y-2.7185
X9.3031Y-2.7185
X9.3031Y-2.7185
X7.5328Y-4.9685
X7.5335Y-4.9685
X7.6122Y-4.9685
X7.6122Y-4.9685
X7.71Y-3.4685
X7.7106Y-3.4685
X7.7894Y-3.4685
X7.7894Y-3.4685
X5.1391Y-4.9685
X5.1398Y-4.9685
X5.2185Y-4.9685
X5.2185Y-4.9685
X6.5663Y-4.2185
X6.5669Y-4.2185
X6.6457Y-4.2185
X6.6457Y-4.2185
X4.5328Y-2.7185
X4.5335Y-2.7185
X4.6122Y-2.7185
X4.6122Y-2.7185
X3.897Y-4.9685
X3.8976Y-4.9685
X3.9764Y-4.9685
X3.9764Y-4.9685
X5.2828Y-2.7185
X5.2835Y-2.7185
X5.3622Y-2.7185
X5.3622Y-2.7185
X4.1785Y-1.9685
X4.1791Y-1.9685
X4.2579Y-1.9685
X4.2579Y-1.9685
X9.4285Y-1.9685
X9.4291Y-1.9685
X9.5079Y-1.9685
X9.5079Y-1.9685
X5.6785Y-1.9685
X5.6791Y-1.9685
X5.7579Y-1.9685
X5.7579Y-1.9685
X4.71Y-3.4685
X4.7106Y-3.4685
X4.7894Y-3.4685
X4.7894Y-3.4685
X8.6785Y-1.9685
X8.6791Y-1.9685
X8.7579Y-1.9685
X8.7579Y-1.9685
X9.4285Y-4.2185
X9.4291Y-4.2185
X9.5079Y-4.2185
X9.5079Y-4.2185
X6.5663Y-4.9685
X6.5669Y-4.9685
X6.6457Y-4.9685
X6.6457Y-4.9685
X4.3163Y-4.2185
X4.3169Y-4.2185
X4.3957Y-4.2185
X4.3957Y-4.2185
X8.9443Y-3.4685
X8.9449Y-3.4685
X9.0236Y-3.4685
X9.0236Y-3.4685
X4.9285Y-1.9685
X4.9291Y-1.9685
X5.0079Y-1.9685
X5.0079Y-1.9685
T3
X9.052Y-4.6314
X9.1111Y-4.6314
X9.1702Y-4.6314
X9.2292Y-4.6314
X9.2883Y-4.6314
X9.3473Y-4.6314
X8.6229Y-4.6354
X8.682Y-4.6354
X8.741Y-4.6354
X8.8001Y-4.6354
X8.8591Y-4.6354
X8.9182Y-4.6354
T4
X8.6299Y-4.8484
X8.6299Y-5.1484
X8.7299Y-4.8484
X8.7299Y-5.1484
X8.8299Y-4.8484
X8.8299Y-5.1484
X8.9299Y-4.8484
X8.9299Y-5.1484
X9.0299Y-4.8484
X9.0299Y-5.1484
X9.1299Y-4.8484
X9.1299Y-5.1484
X9.2299Y-4.8484
X9.2299Y-5.1484
X9.3299Y-4.8484
X9.3299Y-5.1484
T5
X4.9035Y-4.6929
X5.4547Y-5.2441
X6.3307Y-4.4941
X6.8819Y-3.9429
X4.2972Y-2.9941
X4.8484Y-2.4429
X3.6614Y-4.6929
X4.2126Y-5.2441
X5.0472Y-2.9941
X5.5984Y-2.4429
X3.9429Y-2.2441
X4.4941Y-1.6929
X9.1929Y-2.2441
X9.7441Y-1.6929
X5.4429Y-2.2441
X5.9941Y-1.6929
X4.4744Y-3.7441
X5.0256Y-3.1929
X8.4429Y-2.2441
X8.9941Y-1.6929
X9.1929Y-3.9429
X9.7441Y-4.4941
X6.3307Y-5.2441
X6.8819Y-4.6929
X4.0807Y-4.4941
X4.6319Y-3.9429
X8.7087Y-3.1929
X9.2598Y-3.7441
X4.6929Y-2.2441
X5.2441Y-1.6929
X5.5807Y-4.4941
X6.1319Y-3.9429
X5.9744Y-3.7441
X6.5256Y-3.1929
X6.1929Y-2.2441
X6.7441Y-1.6929
X8.0472Y-2.9941
X8.5984Y-2.4429
X5.7972Y-2.9941
X6.3484Y-2.4429
X4.8307Y-4.4941
X5.3819Y-3.9429
X6.9429Y-2.2441
X7.4941Y-1.6929
X6.5472Y-2.9941
X7.0984Y-2.4429
X8.1398Y-4.4941
X8.6909Y-3.9429
X7.6929Y-2.2441
X8.2441Y-1.6929
X6.7244Y-3.7441
X7.2756Y-3.1929
X3.7244Y-3.7441
X4.2756Y-3.1929
X3.1929Y-2.2441
X3.7441Y-1.6929
X7.2972Y-2.9941
X7.8484Y-2.4429
X5.2244Y-3.7441
X5.7756Y-3.1929
X7.0807Y-4.4941
X7.6319Y-3.9429
X3.5472Y-2.9941
X4.0984Y-2.4429
X8.9882Y-2.9941
X9.5394Y-2.4429
X7.2972Y-5.2441
X7.8484Y-4.6929
X7.4744Y-3.7441
X8.0256Y-3.1929
T0
M30
