G04 #@! TF.GenerationSoftware,KiCad,Pcbnew,(5.0.2)-1*
G04 #@! TF.CreationDate,2020-05-18T11:18:00+09:00*
G04 #@! TF.ProjectId,eckeyboard,65636b65-7962-46f6-9172-642e6b696361,rev?*
G04 #@! TF.SameCoordinates,Original*
G04 #@! TF.FileFunction,Legend,Top*
G04 #@! TF.FilePolarity,Positive*
%FSLAX46Y46*%
G04 Gerber Fmt 4.6, Leading zero omitted, Abs format (unit mm)*
G04 Created by KiCad (PCBNEW (5.0.2)-1) date 2020/05/18 11:18:00*
%MOMM*%
%LPD*%
G01*
G04 APERTURE LIST*
%ADD10C,0.300000*%
%ADD11C,0.200000*%
%ADD12C,1.000000*%
%ADD13C,0.120000*%
%ADD14C,0.150000*%
G04 APERTURE END LIST*
D10*
X246383333Y-136200000D02*
X246516666Y-135800000D01*
X246516666Y-135133333D01*
X246383333Y-134866666D01*
X246250000Y-134733333D01*
X245983333Y-134600000D01*
X245716666Y-134600000D01*
X245450000Y-134733333D01*
X245316666Y-134866666D01*
X245183333Y-135133333D01*
X245050000Y-135666666D01*
X244916666Y-135933333D01*
X244783333Y-136066666D01*
X244516666Y-136200000D01*
X244250000Y-136200000D01*
X243983333Y-136066666D01*
X243850000Y-135933333D01*
X243716666Y-135666666D01*
X243716666Y-135000000D01*
X243850000Y-134600000D01*
X244650000Y-133400000D02*
X247450000Y-133400000D01*
X244783333Y-133400000D02*
X244650000Y-133133333D01*
X244650000Y-132600000D01*
X244783333Y-132333333D01*
X244916666Y-132200000D01*
X245183333Y-132066666D01*
X245983333Y-132066666D01*
X246250000Y-132200000D01*
X246383333Y-132333333D01*
X246516666Y-132600000D01*
X246516666Y-133133333D01*
X246383333Y-133400000D01*
X246516666Y-130466666D02*
X246383333Y-130733333D01*
X246116666Y-130866666D01*
X243716666Y-130866666D01*
X246516666Y-129400000D02*
X244650000Y-129400000D01*
X243716666Y-129400000D02*
X243850000Y-129533333D01*
X243983333Y-129400000D01*
X243850000Y-129266666D01*
X243716666Y-129400000D01*
X243983333Y-129400000D01*
X244650000Y-128466666D02*
X244650000Y-127400000D01*
X243716666Y-128066666D02*
X246116666Y-128066666D01*
X246383333Y-127933333D01*
X246516666Y-127666666D01*
X246516666Y-127400000D01*
X246516666Y-126466666D02*
X243716666Y-126466666D01*
X245050000Y-126466666D02*
X245050000Y-124866666D01*
X246516666Y-124866666D02*
X243716666Y-124866666D01*
X246516666Y-123533333D02*
X243716666Y-123533333D01*
X245050000Y-123533333D02*
X245050000Y-121933333D01*
X246516666Y-121933333D02*
X243716666Y-121933333D01*
X246516666Y-120600000D02*
X243716666Y-120600000D01*
X246516666Y-119000000D02*
X244916666Y-120200000D01*
X243716666Y-119000000D02*
X245316666Y-120600000D01*
X245050000Y-116866666D02*
X245183333Y-116466666D01*
X245316666Y-116333333D01*
X245583333Y-116200000D01*
X245983333Y-116200000D01*
X246250000Y-116333333D01*
X246383333Y-116466666D01*
X246516666Y-116733333D01*
X246516666Y-117800000D01*
X243716666Y-117800000D01*
X243716666Y-116866666D01*
X243850000Y-116600000D01*
X243983333Y-116466666D01*
X244250000Y-116333333D01*
X244516666Y-116333333D01*
X244783333Y-116466666D01*
X244916666Y-116600000D01*
X245050000Y-116866666D01*
X245050000Y-117800000D01*
D11*
X247750000Y-128100000D02*
X248683333Y-127766666D01*
X247750000Y-127433333D02*
X248683333Y-127766666D01*
X249016666Y-127900000D01*
X249083333Y-127966666D01*
X249150000Y-128100000D01*
X248683333Y-126300000D02*
X247950000Y-126300000D01*
X247816666Y-126366666D01*
X247750000Y-126500000D01*
X247750000Y-126766666D01*
X247816666Y-126900000D01*
X248616666Y-126300000D02*
X248683333Y-126433333D01*
X248683333Y-126766666D01*
X248616666Y-126900000D01*
X248483333Y-126966666D01*
X248350000Y-126966666D01*
X248216666Y-126900000D01*
X248150000Y-126766666D01*
X248150000Y-126433333D01*
X248083333Y-126300000D01*
X248683333Y-125633333D02*
X247750000Y-125633333D01*
X247883333Y-125633333D02*
X247816666Y-125566666D01*
X247750000Y-125433333D01*
X247750000Y-125233333D01*
X247816666Y-125100000D01*
X247950000Y-125033333D01*
X248683333Y-125033333D01*
X247950000Y-125033333D02*
X247816666Y-124966666D01*
X247750000Y-124833333D01*
X247750000Y-124633333D01*
X247816666Y-124500000D01*
X247950000Y-124433333D01*
X248683333Y-124433333D01*
X248683333Y-123166666D02*
X247950000Y-123166666D01*
X247816666Y-123233333D01*
X247750000Y-123366666D01*
X247750000Y-123633333D01*
X247816666Y-123766666D01*
X248616666Y-123166666D02*
X248683333Y-123300000D01*
X248683333Y-123633333D01*
X248616666Y-123766666D01*
X248483333Y-123833333D01*
X248350000Y-123833333D01*
X248216666Y-123766666D01*
X248150000Y-123633333D01*
X248150000Y-123300000D01*
X248083333Y-123166666D01*
X248683333Y-122500000D02*
X247750000Y-122500000D01*
X247883333Y-122500000D02*
X247816666Y-122433333D01*
X247750000Y-122300000D01*
X247750000Y-122100000D01*
X247816666Y-121966666D01*
X247950000Y-121900000D01*
X248683333Y-121900000D01*
X247950000Y-121900000D02*
X247816666Y-121833333D01*
X247750000Y-121700000D01*
X247750000Y-121500000D01*
X247816666Y-121366666D01*
X247950000Y-121300000D01*
X248683333Y-121300000D01*
X248683333Y-120433333D02*
X248616666Y-120566666D01*
X248550000Y-120633333D01*
X248416666Y-120700000D01*
X248016666Y-120700000D01*
X247883333Y-120633333D01*
X247816666Y-120566666D01*
X247750000Y-120433333D01*
X247750000Y-120233333D01*
X247816666Y-120100000D01*
X247883333Y-120033333D01*
X248016666Y-119966666D01*
X248416666Y-119966666D01*
X248550000Y-120033333D01*
X248616666Y-120100000D01*
X248683333Y-120233333D01*
X248683333Y-120433333D01*
X247750000Y-119566666D02*
X247750000Y-119033333D01*
X247283333Y-119366666D02*
X248483333Y-119366666D01*
X248616666Y-119300000D01*
X248683333Y-119166666D01*
X248683333Y-119033333D01*
X248616666Y-118633333D02*
X248683333Y-118500000D01*
X248683333Y-118233333D01*
X248616666Y-118100000D01*
X248483333Y-118033333D01*
X248416666Y-118033333D01*
X248283333Y-118100000D01*
X248216666Y-118233333D01*
X248216666Y-118433333D01*
X248150000Y-118566666D01*
X248016666Y-118633333D01*
X247950000Y-118633333D01*
X247816666Y-118566666D01*
X247750000Y-118433333D01*
X247750000Y-118233333D01*
X247816666Y-118100000D01*
X247750000Y-116833333D02*
X248683333Y-116833333D01*
X247750000Y-117433333D02*
X248483333Y-117433333D01*
X248616666Y-117366666D01*
X248683333Y-117233333D01*
X248683333Y-117033333D01*
X248616666Y-116900000D01*
X248550000Y-116833333D01*
X248692857Y-135842857D02*
X247892857Y-135842857D01*
X248121428Y-135842857D02*
X248007142Y-135785714D01*
X247950000Y-135728571D01*
X247892857Y-135614285D01*
X247892857Y-135500000D01*
X248635714Y-134642857D02*
X248692857Y-134757142D01*
X248692857Y-134985714D01*
X248635714Y-135100000D01*
X248521428Y-135157142D01*
X248064285Y-135157142D01*
X247950000Y-135100000D01*
X247892857Y-134985714D01*
X247892857Y-134757142D01*
X247950000Y-134642857D01*
X248064285Y-134585714D01*
X248178571Y-134585714D01*
X248292857Y-135157142D01*
X247892857Y-134185714D02*
X248692857Y-133900000D01*
X247892857Y-133614285D01*
X247607142Y-132300000D02*
X247550000Y-132242857D01*
X247492857Y-132128571D01*
X247492857Y-131842857D01*
X247550000Y-131728571D01*
X247607142Y-131671428D01*
X247721428Y-131614285D01*
X247835714Y-131614285D01*
X248007142Y-131671428D01*
X248692857Y-132357142D01*
X248692857Y-131614285D01*
X248578571Y-131100000D02*
X248635714Y-131042857D01*
X248692857Y-131100000D01*
X248635714Y-131157142D01*
X248578571Y-131100000D01*
X248692857Y-131100000D01*
X247492857Y-130300000D02*
X247492857Y-130185714D01*
X247550000Y-130071428D01*
X247607142Y-130014285D01*
X247721428Y-129957142D01*
X247950000Y-129900000D01*
X248235714Y-129900000D01*
X248464285Y-129957142D01*
X248578571Y-130014285D01*
X248635714Y-130071428D01*
X248692857Y-130185714D01*
X248692857Y-130300000D01*
X248635714Y-130414285D01*
X248578571Y-130471428D01*
X248464285Y-130528571D01*
X248235714Y-130585714D01*
X247950000Y-130585714D01*
X247721428Y-130528571D01*
X247607142Y-130471428D01*
X247550000Y-130414285D01*
X247492857Y-130300000D01*
G04 #@! TO.C,TP31*
X222500000Y-81100000D02*
G75*
G03X222500000Y-81100000I-1300000J0D01*
G01*
X236500000Y-95100000D02*
G75*
G03X236500000Y-95100000I-1300000J0D01*
G01*
D12*
X234700000Y-88100000D02*
G75*
G03X234700000Y-88100000I-6500000J0D01*
G01*
D11*
G04 #@! TO.C,TP32*
X234800000Y-100150000D02*
G75*
G03X234800000Y-100150000I-1300000J0D01*
G01*
X248800000Y-114150000D02*
G75*
G03X248800000Y-114150000I-1300000J0D01*
G01*
D12*
X247000000Y-107150000D02*
G75*
G03X247000000Y-107150000I-6500000J0D01*
G01*
D11*
G04 #@! TO.C,TP13*
X125850000Y-119200000D02*
G75*
G03X125850000Y-119200000I-1300000J0D01*
G01*
X139850000Y-133200000D02*
G75*
G03X139850000Y-133200000I-1300000J0D01*
G01*
D12*
X138050000Y-126200000D02*
G75*
G03X138050000Y-126200000I-6500000J0D01*
G01*
D11*
G04 #@! TO.C,TP11*
X94300000Y-119200000D02*
G75*
G03X94300000Y-119200000I-1300000J0D01*
G01*
X108300000Y-133200000D02*
G75*
G03X108300000Y-133200000I-1300000J0D01*
G01*
D12*
X106500000Y-126200000D02*
G75*
G03X106500000Y-126200000I-6500000J0D01*
G01*
D11*
G04 #@! TO.C,TP16*
X148550000Y-76050000D02*
G75*
G03X148550000Y-76050000I-1300000J0D01*
G01*
X162550000Y-62050000D02*
G75*
G03X162550000Y-62050000I-1300000J0D01*
G01*
D12*
X160750000Y-69050000D02*
G75*
G03X160750000Y-69050000I-6500000J0D01*
G01*
D11*
G04 #@! TO.C,TP23*
X181150000Y-114150000D02*
G75*
G03X181150000Y-114150000I-1300000J0D01*
G01*
X195150000Y-100150000D02*
G75*
G03X195150000Y-100150000I-1300000J0D01*
G01*
D12*
X193350000Y-107150000D02*
G75*
G03X193350000Y-107150000I-6500000J0D01*
G01*
D11*
G04 #@! TO.C,TP22*
X172100000Y-95100000D02*
G75*
G03X172100000Y-95100000I-1300000J0D01*
G01*
X186100000Y-81100000D02*
G75*
G03X186100000Y-81100000I-1300000J0D01*
G01*
D12*
X184300000Y-88100000D02*
G75*
G03X184300000Y-88100000I-6500000J0D01*
G01*
D11*
G04 #@! TO.C,TP21*
X167600000Y-76050000D02*
G75*
G03X167600000Y-76050000I-1300000J0D01*
G01*
X181600000Y-62050000D02*
G75*
G03X181600000Y-62050000I-1300000J0D01*
G01*
D12*
X179800000Y-69050000D02*
G75*
G03X179800000Y-69050000I-6500000J0D01*
G01*
D11*
G04 #@! TO.C,TP20*
X158600000Y-57000000D02*
G75*
G03X158600000Y-57000000I-1300000J0D01*
G01*
X172600000Y-43000000D02*
G75*
G03X172600000Y-43000000I-1300000J0D01*
G01*
D12*
X170800000Y-50000000D02*
G75*
G03X170800000Y-50000000I-6500000J0D01*
G01*
D11*
G04 #@! TO.C,TP19*
X162100000Y-133200000D02*
G75*
G03X162100000Y-133200000I-1300000J0D01*
G01*
X176100000Y-119200000D02*
G75*
G03X176100000Y-119200000I-1300000J0D01*
G01*
D12*
X174300000Y-126200000D02*
G75*
G03X174300000Y-126200000I-6500000J0D01*
G01*
D11*
G04 #@! TO.C,TP18*
X162100000Y-114150000D02*
G75*
G03X162100000Y-114150000I-1300000J0D01*
G01*
X176100000Y-100150000D02*
G75*
G03X176100000Y-100150000I-1300000J0D01*
G01*
D12*
X174300000Y-107150000D02*
G75*
G03X174300000Y-107150000I-6500000J0D01*
G01*
D11*
G04 #@! TO.C,TP17*
X153050000Y-95100000D02*
G75*
G03X153050000Y-95100000I-1300000J0D01*
G01*
X167050000Y-81100000D02*
G75*
G03X167050000Y-81100000I-1300000J0D01*
G01*
D12*
X165250000Y-88100000D02*
G75*
G03X165250000Y-88100000I-6500000J0D01*
G01*
D11*
G04 #@! TO.C,TP15*
X139550000Y-57000000D02*
G75*
G03X139550000Y-57000000I-1300000J0D01*
G01*
X153550000Y-43000000D02*
G75*
G03X153550000Y-43000000I-1300000J0D01*
G01*
D12*
X151750000Y-50000000D02*
G75*
G03X151750000Y-50000000I-6500000J0D01*
G01*
D11*
G04 #@! TO.C,TP35*
X229600000Y-76050000D02*
G75*
G03X229600000Y-76050000I-1300000J0D01*
G01*
X243600000Y-62050000D02*
G75*
G03X243600000Y-62050000I-1300000J0D01*
G01*
D12*
X241800000Y-69050000D02*
G75*
G03X241800000Y-69050000I-6500000J0D01*
G01*
D11*
G04 #@! TO.C,TP34*
X234800000Y-57000000D02*
G75*
G03X234800000Y-57000000I-1300000J0D01*
G01*
X248800000Y-43000000D02*
G75*
G03X248800000Y-43000000I-1300000J0D01*
G01*
D12*
X247000000Y-50000000D02*
G75*
G03X247000000Y-50000000I-6500000J0D01*
G01*
D11*
G04 #@! TO.C,TP33*
X215750000Y-57000000D02*
G75*
G03X215750000Y-57000000I-1300000J0D01*
G01*
X229750000Y-43000000D02*
G75*
G03X229750000Y-43000000I-1300000J0D01*
G01*
D12*
X227950000Y-50000000D02*
G75*
G03X227950000Y-50000000I-6500000J0D01*
G01*
D11*
G04 #@! TO.C,TP30*
X205700000Y-76050000D02*
G75*
G03X205700000Y-76050000I-1300000J0D01*
G01*
X219700000Y-62050000D02*
G75*
G03X219700000Y-62050000I-1300000J0D01*
G01*
D12*
X217900000Y-69050000D02*
G75*
G03X217900000Y-69050000I-6500000J0D01*
G01*
D11*
G04 #@! TO.C,TP29*
X196700000Y-57000000D02*
G75*
G03X196700000Y-57000000I-1300000J0D01*
G01*
X210700000Y-43000000D02*
G75*
G03X210700000Y-43000000I-1300000J0D01*
G01*
D12*
X208900000Y-50000000D02*
G75*
G03X208900000Y-50000000I-6500000J0D01*
G01*
D11*
G04 #@! TO.C,TP28*
X186650000Y-133200000D02*
G75*
G03X186650000Y-133200000I-1300000J0D01*
G01*
X200650000Y-119200000D02*
G75*
G03X200650000Y-119200000I-1300000J0D01*
G01*
D12*
X198850000Y-126200000D02*
G75*
G03X198850000Y-126200000I-6500000J0D01*
G01*
D11*
G04 #@! TO.C,TP12*
X124000000Y-114150000D02*
G75*
G03X124000000Y-114150000I-1300000J0D01*
G01*
X138000000Y-100150000D02*
G75*
G03X138000000Y-100150000I-1300000J0D01*
G01*
D12*
X136200000Y-107150000D02*
G75*
G03X136200000Y-107150000I-6500000J0D01*
G01*
D11*
G04 #@! TO.C,TP10*
X104950000Y-114150000D02*
G75*
G03X104950000Y-114150000I-1300000J0D01*
G01*
X118950000Y-100150000D02*
G75*
G03X118950000Y-100150000I-1300000J0D01*
G01*
D12*
X117150000Y-107150000D02*
G75*
G03X117150000Y-107150000I-6500000J0D01*
G01*
D11*
G04 #@! TO.C,TP6*
X114950000Y-95100000D02*
G75*
G03X114950000Y-95100000I-1300000J0D01*
G01*
X128950000Y-81100000D02*
G75*
G03X128950000Y-81100000I-1300000J0D01*
G01*
D12*
X127150000Y-88100000D02*
G75*
G03X127150000Y-88100000I-6500000J0D01*
G01*
D11*
G04 #@! TO.C,TP5*
X110450000Y-76050000D02*
G75*
G03X110450000Y-76050000I-1300000J0D01*
G01*
X124450000Y-62050000D02*
G75*
G03X124450000Y-62050000I-1300000J0D01*
G01*
D12*
X122650000Y-69050000D02*
G75*
G03X122650000Y-69050000I-6500000J0D01*
G01*
D11*
G04 #@! TO.C,TP4*
X101450000Y-57000000D02*
G75*
G03X101450000Y-57000000I-1300000J0D01*
G01*
X115450000Y-43000000D02*
G75*
G03X115450000Y-43000000I-1300000J0D01*
G01*
D12*
X113650000Y-50000000D02*
G75*
G03X113650000Y-50000000I-6500000J0D01*
G01*
D11*
G04 #@! TO.C,TP3*
X95900000Y-95100000D02*
G75*
G03X95900000Y-95100000I-1300000J0D01*
G01*
X109900000Y-81100000D02*
G75*
G03X109900000Y-81100000I-1300000J0D01*
G01*
D12*
X108100000Y-88100000D02*
G75*
G03X108100000Y-88100000I-6500000J0D01*
G01*
D11*
G04 #@! TO.C,TP2*
X91400000Y-76050000D02*
G75*
G03X91400000Y-76050000I-1300000J0D01*
G01*
X105400000Y-62050000D02*
G75*
G03X105400000Y-62050000I-1300000J0D01*
G01*
D12*
X103600000Y-69050000D02*
G75*
G03X103600000Y-69050000I-6500000J0D01*
G01*
D11*
G04 #@! TO.C,TP1*
X82400000Y-57000000D02*
G75*
G03X82400000Y-57000000I-1300000J0D01*
G01*
X96400000Y-43000000D02*
G75*
G03X96400000Y-43000000I-1300000J0D01*
G01*
D12*
X94600000Y-50000000D02*
G75*
G03X94600000Y-50000000I-6500000J0D01*
G01*
D11*
G04 #@! TO.C,TP27*
X208050000Y-114150000D02*
G75*
G03X208050000Y-114150000I-1300000J0D01*
G01*
X222050000Y-100150000D02*
G75*
G03X222050000Y-100150000I-1300000J0D01*
G01*
D12*
X220250000Y-107150000D02*
G75*
G03X220250000Y-107150000I-6500000J0D01*
G01*
D11*
G04 #@! TO.C,TP24*
X177650000Y-57000000D02*
G75*
G03X177650000Y-57000000I-1300000J0D01*
G01*
X191650000Y-43000000D02*
G75*
G03X191650000Y-43000000I-1300000J0D01*
G01*
D12*
X189850000Y-50000000D02*
G75*
G03X189850000Y-50000000I-6500000J0D01*
G01*
D11*
G04 #@! TO.C,TP26*
X191150000Y-95100000D02*
G75*
G03X191150000Y-95100000I-1300000J0D01*
G01*
X205150000Y-81100000D02*
G75*
G03X205150000Y-81100000I-1300000J0D01*
G01*
D12*
X203350000Y-88100000D02*
G75*
G03X203350000Y-88100000I-6500000J0D01*
G01*
D11*
G04 #@! TO.C,TP25*
X186650000Y-76050000D02*
G75*
G03X186650000Y-76050000I-1300000J0D01*
G01*
X200650000Y-62050000D02*
G75*
G03X200650000Y-62050000I-1300000J0D01*
G01*
D12*
X198850000Y-69050000D02*
G75*
G03X198850000Y-69050000I-6500000J0D01*
G01*
D11*
G04 #@! TO.C,TP7*
X120500000Y-57000000D02*
G75*
G03X120500000Y-57000000I-1300000J0D01*
G01*
X134500000Y-43000000D02*
G75*
G03X134500000Y-43000000I-1300000J0D01*
G01*
D12*
X132700000Y-50000000D02*
G75*
G03X132700000Y-50000000I-6500000J0D01*
G01*
D11*
G04 #@! TO.C,TP8*
X129500000Y-76050000D02*
G75*
G03X129500000Y-76050000I-1300000J0D01*
G01*
X143500000Y-62050000D02*
G75*
G03X143500000Y-62050000I-1300000J0D01*
G01*
D12*
X141700000Y-69050000D02*
G75*
G03X141700000Y-69050000I-6500000J0D01*
G01*
D11*
G04 #@! TO.C,TP9*
X134000000Y-95100000D02*
G75*
G03X134000000Y-95100000I-1300000J0D01*
G01*
X148000000Y-81100000D02*
G75*
G03X148000000Y-81100000I-1300000J0D01*
G01*
D12*
X146200000Y-88100000D02*
G75*
G03X146200000Y-88100000I-6500000J0D01*
G01*
D11*
G04 #@! TO.C,TP14*
X143050000Y-114150000D02*
G75*
G03X143050000Y-114150000I-1300000J0D01*
G01*
X157050000Y-100150000D02*
G75*
G03X157050000Y-100150000I-1300000J0D01*
G01*
D12*
X155250000Y-107150000D02*
G75*
G03X155250000Y-107150000I-6500000J0D01*
G01*
D13*
G04 #@! TO.C,C19*
X208240000Y-129410000D02*
X210590000Y-129410000D01*
X215060000Y-129410000D02*
X212710000Y-129410000D01*
X215060000Y-123654437D02*
X215060000Y-129410000D01*
X208240000Y-123654437D02*
X208240000Y-129410000D01*
X209304437Y-122590000D02*
X210590000Y-122590000D01*
X213995563Y-122590000D02*
X212710000Y-122590000D01*
X213995563Y-122590000D02*
X215060000Y-123654437D01*
X209304437Y-122590000D02*
X208240000Y-123654437D01*
X213497500Y-121562500D02*
X213497500Y-122350000D01*
X213891250Y-121956250D02*
X213103750Y-121956250D01*
G04 #@! TO.C,C2*
X219408593Y-133986378D02*
X219408593Y-134328912D01*
X220428593Y-133986378D02*
X220428593Y-134328912D01*
G04 #@! TO.C,C3*
X222442730Y-134024383D02*
X222442730Y-134366917D01*
X223462730Y-134024383D02*
X223462730Y-134366917D01*
G04 #@! TO.C,C4*
X227263004Y-133997156D02*
X227263004Y-134339690D01*
X228283004Y-133997156D02*
X228283004Y-134339690D01*
G04 #@! TO.C,C5*
X229868246Y-133997097D02*
X229868246Y-134339631D01*
X228848246Y-133997097D02*
X228848246Y-134339631D01*
G04 #@! TO.C,C6*
X232009440Y-134003917D02*
X232009440Y-134346451D01*
X233029440Y-134003917D02*
X233029440Y-134346451D01*
G04 #@! TO.C,C7*
X236097263Y-134007750D02*
X236097263Y-134350284D01*
X235077263Y-134007750D02*
X235077263Y-134350284D01*
G04 #@! TO.C,C20*
X227978733Y-115190000D02*
X228321267Y-115190000D01*
X227978733Y-116210000D02*
X228321267Y-116210000D01*
G04 #@! TO.C,C21*
X217790000Y-133978733D02*
X217790000Y-134321267D01*
X218810000Y-133978733D02*
X218810000Y-134321267D01*
G04 #@! TO.C,R9*
X221928593Y-133986378D02*
X221928593Y-134328912D01*
X220908593Y-133986378D02*
X220908593Y-134328912D01*
G04 #@! TO.C,R11*
X224006338Y-134024383D02*
X224006338Y-134366917D01*
X225026338Y-134024383D02*
X225026338Y-134366917D01*
G04 #@! TO.C,R12*
X226583004Y-133997156D02*
X226583004Y-134339690D01*
X225563004Y-133997156D02*
X225563004Y-134339690D01*
G04 #@! TO.C,R13*
X230448246Y-133997097D02*
X230448246Y-134339631D01*
X231468246Y-133997097D02*
X231468246Y-134339631D01*
G04 #@! TO.C,R14*
X234529440Y-134003917D02*
X234529440Y-134346451D01*
X233509440Y-134003917D02*
X233509440Y-134346451D01*
G04 #@! TO.C,R15*
X236679714Y-134007750D02*
X236679714Y-134350284D01*
X237699714Y-134007750D02*
X237699714Y-134350284D01*
G04 #@! TO.C,C8*
X240866999Y-134041734D02*
X240866999Y-134384268D01*
X239846999Y-134041734D02*
X239846999Y-134384268D01*
G04 #@! TO.C,C9*
X240378733Y-124310000D02*
X240721267Y-124310000D01*
X240378733Y-123290000D02*
X240721267Y-123290000D01*
G04 #@! TO.C,R16*
X238240000Y-134028733D02*
X238240000Y-134371267D01*
X239260000Y-134028733D02*
X239260000Y-134371267D01*
G04 #@! TO.C,R17*
X240378733Y-121740000D02*
X240721267Y-121740000D01*
X240378733Y-122760000D02*
X240721267Y-122760000D01*
G04 #@! TO.C,C19*
D14*
X216357142Y-126642857D02*
X216404761Y-126690476D01*
X216452380Y-126833333D01*
X216452380Y-126928571D01*
X216404761Y-127071428D01*
X216309523Y-127166666D01*
X216214285Y-127214285D01*
X216023809Y-127261904D01*
X215880952Y-127261904D01*
X215690476Y-127214285D01*
X215595238Y-127166666D01*
X215500000Y-127071428D01*
X215452380Y-126928571D01*
X215452380Y-126833333D01*
X215500000Y-126690476D01*
X215547619Y-126642857D01*
X216452380Y-125690476D02*
X216452380Y-126261904D01*
X216452380Y-125976190D02*
X215452380Y-125976190D01*
X215595238Y-126071428D01*
X215690476Y-126166666D01*
X215738095Y-126261904D01*
X216452380Y-125214285D02*
X216452380Y-125023809D01*
X216404761Y-124928571D01*
X216357142Y-124880952D01*
X216214285Y-124785714D01*
X216023809Y-124738095D01*
X215642857Y-124738095D01*
X215547619Y-124785714D01*
X215500000Y-124833333D01*
X215452380Y-124928571D01*
X215452380Y-125119047D01*
X215500000Y-125214285D01*
X215547619Y-125261904D01*
X215642857Y-125309523D01*
X215880952Y-125309523D01*
X215976190Y-125261904D01*
X216023809Y-125214285D01*
X216071428Y-125119047D01*
X216071428Y-124928571D01*
X216023809Y-124833333D01*
X215976190Y-124785714D01*
X215880952Y-124738095D01*
G04 #@! TO.C,C2*
X221705735Y-134324311D02*
X221753354Y-134371930D01*
X221800973Y-134514787D01*
X221800973Y-134610025D01*
X221753354Y-134752883D01*
X221658116Y-134848121D01*
X221562878Y-134895740D01*
X221372402Y-134943359D01*
X221229545Y-134943359D01*
X221039069Y-134895740D01*
X220943831Y-134848121D01*
X220848593Y-134752883D01*
X220800973Y-134610025D01*
X220800973Y-134514787D01*
X220848593Y-134371930D01*
X220896212Y-134324311D01*
X220896212Y-133943359D02*
X220848593Y-133895740D01*
X220800973Y-133800502D01*
X220800973Y-133562406D01*
X220848593Y-133467168D01*
X220896212Y-133419549D01*
X220991450Y-133371930D01*
X221086688Y-133371930D01*
X221229545Y-133419549D01*
X221800973Y-133990978D01*
X221800973Y-133371930D01*
G04 #@! TO.C,C3*
X224739872Y-134362316D02*
X224787491Y-134409935D01*
X224835110Y-134552792D01*
X224835110Y-134648030D01*
X224787491Y-134790888D01*
X224692253Y-134886126D01*
X224597015Y-134933745D01*
X224406539Y-134981364D01*
X224263682Y-134981364D01*
X224073206Y-134933745D01*
X223977968Y-134886126D01*
X223882730Y-134790888D01*
X223835110Y-134648030D01*
X223835110Y-134552792D01*
X223882730Y-134409935D01*
X223930349Y-134362316D01*
X223835110Y-134028983D02*
X223835110Y-133409935D01*
X224216063Y-133743269D01*
X224216063Y-133600411D01*
X224263682Y-133505173D01*
X224311301Y-133457554D01*
X224406539Y-133409935D01*
X224644634Y-133409935D01*
X224739872Y-133457554D01*
X224787491Y-133505173D01*
X224835110Y-133600411D01*
X224835110Y-133886126D01*
X224787491Y-133981364D01*
X224739872Y-134028983D01*
G04 #@! TO.C,C4*
X229560146Y-134335089D02*
X229607765Y-134382708D01*
X229655384Y-134525565D01*
X229655384Y-134620803D01*
X229607765Y-134763661D01*
X229512527Y-134858899D01*
X229417289Y-134906518D01*
X229226813Y-134954137D01*
X229083956Y-134954137D01*
X228893480Y-134906518D01*
X228798242Y-134858899D01*
X228703004Y-134763661D01*
X228655384Y-134620803D01*
X228655384Y-134525565D01*
X228703004Y-134382708D01*
X228750623Y-134335089D01*
X228988718Y-133477946D02*
X229655384Y-133477946D01*
X228607765Y-133716042D02*
X229322051Y-133954137D01*
X229322051Y-133335089D01*
G04 #@! TO.C,C5*
X231145388Y-134335030D02*
X231193007Y-134382649D01*
X231240626Y-134525506D01*
X231240626Y-134620744D01*
X231193007Y-134763602D01*
X231097769Y-134858840D01*
X231002531Y-134906459D01*
X230812055Y-134954078D01*
X230669198Y-134954078D01*
X230478722Y-134906459D01*
X230383484Y-134858840D01*
X230288246Y-134763602D01*
X230240626Y-134620744D01*
X230240626Y-134525506D01*
X230288246Y-134382649D01*
X230335865Y-134335030D01*
X230240626Y-133430268D02*
X230240626Y-133906459D01*
X230716817Y-133954078D01*
X230669198Y-133906459D01*
X230621579Y-133811221D01*
X230621579Y-133573125D01*
X230669198Y-133477887D01*
X230716817Y-133430268D01*
X230812055Y-133382649D01*
X231050150Y-133382649D01*
X231145388Y-133430268D01*
X231193007Y-133477887D01*
X231240626Y-133573125D01*
X231240626Y-133811221D01*
X231193007Y-133906459D01*
X231145388Y-133954078D01*
G04 #@! TO.C,C6*
X234306582Y-134341850D02*
X234354201Y-134389469D01*
X234401820Y-134532326D01*
X234401820Y-134627564D01*
X234354201Y-134770422D01*
X234258963Y-134865660D01*
X234163725Y-134913279D01*
X233973249Y-134960898D01*
X233830392Y-134960898D01*
X233639916Y-134913279D01*
X233544678Y-134865660D01*
X233449440Y-134770422D01*
X233401820Y-134627564D01*
X233401820Y-134532326D01*
X233449440Y-134389469D01*
X233497059Y-134341850D01*
X233401820Y-133484707D02*
X233401820Y-133675184D01*
X233449440Y-133770422D01*
X233497059Y-133818041D01*
X233639916Y-133913279D01*
X233830392Y-133960898D01*
X234211344Y-133960898D01*
X234306582Y-133913279D01*
X234354201Y-133865660D01*
X234401820Y-133770422D01*
X234401820Y-133579945D01*
X234354201Y-133484707D01*
X234306582Y-133437088D01*
X234211344Y-133389469D01*
X233973249Y-133389469D01*
X233878011Y-133437088D01*
X233830392Y-133484707D01*
X233782773Y-133579945D01*
X233782773Y-133770422D01*
X233830392Y-133865660D01*
X233878011Y-133913279D01*
X233973249Y-133960898D01*
G04 #@! TO.C,C7*
X237374405Y-134345683D02*
X237422024Y-134393302D01*
X237469643Y-134536159D01*
X237469643Y-134631397D01*
X237422024Y-134774255D01*
X237326786Y-134869493D01*
X237231548Y-134917112D01*
X237041072Y-134964731D01*
X236898215Y-134964731D01*
X236707739Y-134917112D01*
X236612501Y-134869493D01*
X236517263Y-134774255D01*
X236469643Y-134631397D01*
X236469643Y-134536159D01*
X236517263Y-134393302D01*
X236564882Y-134345683D01*
X236469643Y-134012350D02*
X236469643Y-133345683D01*
X237469643Y-133774255D01*
G04 #@! TO.C,C20*
X227507142Y-114627142D02*
X227459523Y-114674761D01*
X227316666Y-114722380D01*
X227221428Y-114722380D01*
X227078571Y-114674761D01*
X226983333Y-114579523D01*
X226935714Y-114484285D01*
X226888095Y-114293809D01*
X226888095Y-114150952D01*
X226935714Y-113960476D01*
X226983333Y-113865238D01*
X227078571Y-113770000D01*
X227221428Y-113722380D01*
X227316666Y-113722380D01*
X227459523Y-113770000D01*
X227507142Y-113817619D01*
X227888095Y-113817619D02*
X227935714Y-113770000D01*
X228030952Y-113722380D01*
X228269047Y-113722380D01*
X228364285Y-113770000D01*
X228411904Y-113817619D01*
X228459523Y-113912857D01*
X228459523Y-114008095D01*
X228411904Y-114150952D01*
X227840476Y-114722380D01*
X228459523Y-114722380D01*
X229078571Y-113722380D02*
X229173809Y-113722380D01*
X229269047Y-113770000D01*
X229316666Y-113817619D01*
X229364285Y-113912857D01*
X229411904Y-114103333D01*
X229411904Y-114341428D01*
X229364285Y-114531904D01*
X229316666Y-114627142D01*
X229269047Y-114674761D01*
X229173809Y-114722380D01*
X229078571Y-114722380D01*
X228983333Y-114674761D01*
X228935714Y-114627142D01*
X228888095Y-114531904D01*
X228840476Y-114341428D01*
X228840476Y-114103333D01*
X228888095Y-113912857D01*
X228935714Y-113817619D01*
X228983333Y-113770000D01*
X229078571Y-113722380D01*
G04 #@! TO.C,C21*
X220087142Y-134792857D02*
X220134761Y-134840476D01*
X220182380Y-134983333D01*
X220182380Y-135078571D01*
X220134761Y-135221428D01*
X220039523Y-135316666D01*
X219944285Y-135364285D01*
X219753809Y-135411904D01*
X219610952Y-135411904D01*
X219420476Y-135364285D01*
X219325238Y-135316666D01*
X219230000Y-135221428D01*
X219182380Y-135078571D01*
X219182380Y-134983333D01*
X219230000Y-134840476D01*
X219277619Y-134792857D01*
X219277619Y-134411904D02*
X219230000Y-134364285D01*
X219182380Y-134269047D01*
X219182380Y-134030952D01*
X219230000Y-133935714D01*
X219277619Y-133888095D01*
X219372857Y-133840476D01*
X219468095Y-133840476D01*
X219610952Y-133888095D01*
X220182380Y-134459523D01*
X220182380Y-133840476D01*
X220182380Y-132888095D02*
X220182380Y-133459523D01*
X220182380Y-133173809D02*
X219182380Y-133173809D01*
X219325238Y-133269047D01*
X219420476Y-133364285D01*
X219468095Y-133459523D01*
G04 #@! TO.C,R9*
X223300973Y-134324311D02*
X222824783Y-134657645D01*
X223300973Y-134895740D02*
X222300973Y-134895740D01*
X222300973Y-134514787D01*
X222348593Y-134419549D01*
X222396212Y-134371930D01*
X222491450Y-134324311D01*
X222634307Y-134324311D01*
X222729545Y-134371930D01*
X222777164Y-134419549D01*
X222824783Y-134514787D01*
X222824783Y-134895740D01*
X223300973Y-133848121D02*
X223300973Y-133657645D01*
X223253354Y-133562406D01*
X223205735Y-133514787D01*
X223062878Y-133419549D01*
X222872402Y-133371930D01*
X222491450Y-133371930D01*
X222396212Y-133419549D01*
X222348593Y-133467168D01*
X222300973Y-133562406D01*
X222300973Y-133752883D01*
X222348593Y-133848121D01*
X222396212Y-133895740D01*
X222491450Y-133943359D01*
X222729545Y-133943359D01*
X222824783Y-133895740D01*
X222872402Y-133848121D01*
X222920021Y-133752883D01*
X222920021Y-133562406D01*
X222872402Y-133467168D01*
X222824783Y-133419549D01*
X222729545Y-133371930D01*
G04 #@! TO.C,R11*
X226398718Y-134838507D02*
X225922528Y-135171840D01*
X226398718Y-135409935D02*
X225398718Y-135409935D01*
X225398718Y-135028983D01*
X225446338Y-134933745D01*
X225493957Y-134886126D01*
X225589195Y-134838507D01*
X225732052Y-134838507D01*
X225827290Y-134886126D01*
X225874909Y-134933745D01*
X225922528Y-135028983D01*
X225922528Y-135409935D01*
X226398718Y-133886126D02*
X226398718Y-134457554D01*
X226398718Y-134171840D02*
X225398718Y-134171840D01*
X225541576Y-134267078D01*
X225636814Y-134362316D01*
X225684433Y-134457554D01*
X226398718Y-132933745D02*
X226398718Y-133505173D01*
X226398718Y-133219459D02*
X225398718Y-133219459D01*
X225541576Y-133314697D01*
X225636814Y-133409935D01*
X225684433Y-133505173D01*
G04 #@! TO.C,R12*
X228563486Y-134583878D02*
X228087296Y-134917211D01*
X228563486Y-135155306D02*
X227563486Y-135155306D01*
X227563486Y-134774354D01*
X227611106Y-134679116D01*
X227658725Y-134631497D01*
X227753963Y-134583878D01*
X227896820Y-134583878D01*
X227992058Y-134631497D01*
X228039677Y-134679116D01*
X228087296Y-134774354D01*
X228087296Y-135155306D01*
X228563486Y-133631497D02*
X228563486Y-134202925D01*
X228563486Y-133917211D02*
X227563486Y-133917211D01*
X227706344Y-134012449D01*
X227801582Y-134107687D01*
X227849201Y-134202925D01*
X227658725Y-133250544D02*
X227611106Y-133202925D01*
X227563486Y-133107687D01*
X227563486Y-132869592D01*
X227611106Y-132774354D01*
X227658725Y-132726735D01*
X227753963Y-132679116D01*
X227849201Y-132679116D01*
X227992058Y-132726735D01*
X228563486Y-133298163D01*
X228563486Y-132679116D01*
G04 #@! TO.C,R13*
X232840626Y-134811221D02*
X232364436Y-135144554D01*
X232840626Y-135382649D02*
X231840626Y-135382649D01*
X231840626Y-135001697D01*
X231888246Y-134906459D01*
X231935865Y-134858840D01*
X232031103Y-134811221D01*
X232173960Y-134811221D01*
X232269198Y-134858840D01*
X232316817Y-134906459D01*
X232364436Y-135001697D01*
X232364436Y-135382649D01*
X232840626Y-133858840D02*
X232840626Y-134430268D01*
X232840626Y-134144554D02*
X231840626Y-134144554D01*
X231983484Y-134239792D01*
X232078722Y-134335030D01*
X232126341Y-134430268D01*
X231840626Y-133525506D02*
X231840626Y-132906459D01*
X232221579Y-133239792D01*
X232221579Y-133096935D01*
X232269198Y-133001697D01*
X232316817Y-132954078D01*
X232412055Y-132906459D01*
X232650150Y-132906459D01*
X232745388Y-132954078D01*
X232793007Y-133001697D01*
X232840626Y-133096935D01*
X232840626Y-133382649D01*
X232793007Y-133477887D01*
X232745388Y-133525506D01*
G04 #@! TO.C,R14*
X235901820Y-134818041D02*
X235425630Y-135151374D01*
X235901820Y-135389469D02*
X234901820Y-135389469D01*
X234901820Y-135008517D01*
X234949440Y-134913279D01*
X234997059Y-134865660D01*
X235092297Y-134818041D01*
X235235154Y-134818041D01*
X235330392Y-134865660D01*
X235378011Y-134913279D01*
X235425630Y-135008517D01*
X235425630Y-135389469D01*
X235901820Y-133865660D02*
X235901820Y-134437088D01*
X235901820Y-134151374D02*
X234901820Y-134151374D01*
X235044678Y-134246612D01*
X235139916Y-134341850D01*
X235187535Y-134437088D01*
X235235154Y-133008517D02*
X235901820Y-133008517D01*
X234854201Y-133246612D02*
X235568487Y-133484707D01*
X235568487Y-132865660D01*
G04 #@! TO.C,R15*
X239072094Y-134821874D02*
X238595904Y-135155207D01*
X239072094Y-135393302D02*
X238072094Y-135393302D01*
X238072094Y-135012350D01*
X238119714Y-134917112D01*
X238167333Y-134869493D01*
X238262571Y-134821874D01*
X238405428Y-134821874D01*
X238500666Y-134869493D01*
X238548285Y-134917112D01*
X238595904Y-135012350D01*
X238595904Y-135393302D01*
X239072094Y-133869493D02*
X239072094Y-134440921D01*
X239072094Y-134155207D02*
X238072094Y-134155207D01*
X238214952Y-134250445D01*
X238310190Y-134345683D01*
X238357809Y-134440921D01*
X238072094Y-132964731D02*
X238072094Y-133440921D01*
X238548285Y-133488540D01*
X238500666Y-133440921D01*
X238453047Y-133345683D01*
X238453047Y-133107588D01*
X238500666Y-133012350D01*
X238548285Y-132964731D01*
X238643523Y-132917112D01*
X238881618Y-132917112D01*
X238976856Y-132964731D01*
X239024475Y-133012350D01*
X239072094Y-133107588D01*
X239072094Y-133345683D01*
X239024475Y-133440921D01*
X238976856Y-133488540D01*
G04 #@! TO.C,C8*
X242144141Y-134379667D02*
X242191760Y-134427286D01*
X242239379Y-134570143D01*
X242239379Y-134665381D01*
X242191760Y-134808239D01*
X242096522Y-134903477D01*
X242001284Y-134951096D01*
X241810808Y-134998715D01*
X241667951Y-134998715D01*
X241477475Y-134951096D01*
X241382237Y-134903477D01*
X241286999Y-134808239D01*
X241239379Y-134665381D01*
X241239379Y-134570143D01*
X241286999Y-134427286D01*
X241334618Y-134379667D01*
X241667951Y-133808239D02*
X241620332Y-133903477D01*
X241572713Y-133951096D01*
X241477475Y-133998715D01*
X241429856Y-133998715D01*
X241334618Y-133951096D01*
X241286999Y-133903477D01*
X241239379Y-133808239D01*
X241239379Y-133617762D01*
X241286999Y-133522524D01*
X241334618Y-133474905D01*
X241429856Y-133427286D01*
X241477475Y-133427286D01*
X241572713Y-133474905D01*
X241620332Y-133522524D01*
X241667951Y-133617762D01*
X241667951Y-133808239D01*
X241715570Y-133903477D01*
X241763189Y-133951096D01*
X241858427Y-133998715D01*
X242048903Y-133998715D01*
X242144141Y-133951096D01*
X242191760Y-133903477D01*
X242239379Y-133808239D01*
X242239379Y-133617762D01*
X242191760Y-133522524D01*
X242144141Y-133474905D01*
X242048903Y-133427286D01*
X241858427Y-133427286D01*
X241763189Y-133474905D01*
X241715570Y-133522524D01*
X241667951Y-133617762D01*
G04 #@! TO.C,C9*
X240383333Y-122727142D02*
X240335714Y-122774761D01*
X240192857Y-122822380D01*
X240097619Y-122822380D01*
X239954761Y-122774761D01*
X239859523Y-122679523D01*
X239811904Y-122584285D01*
X239764285Y-122393809D01*
X239764285Y-122250952D01*
X239811904Y-122060476D01*
X239859523Y-121965238D01*
X239954761Y-121870000D01*
X240097619Y-121822380D01*
X240192857Y-121822380D01*
X240335714Y-121870000D01*
X240383333Y-121917619D01*
X240859523Y-122822380D02*
X241050000Y-122822380D01*
X241145238Y-122774761D01*
X241192857Y-122727142D01*
X241288095Y-122584285D01*
X241335714Y-122393809D01*
X241335714Y-122012857D01*
X241288095Y-121917619D01*
X241240476Y-121870000D01*
X241145238Y-121822380D01*
X240954761Y-121822380D01*
X240859523Y-121870000D01*
X240811904Y-121917619D01*
X240764285Y-122012857D01*
X240764285Y-122250952D01*
X240811904Y-122346190D01*
X240859523Y-122393809D01*
X240954761Y-122441428D01*
X241145238Y-122441428D01*
X241240476Y-122393809D01*
X241288095Y-122346190D01*
X241335714Y-122250952D01*
G04 #@! TO.C,R16*
X240632380Y-134842857D02*
X240156190Y-135176190D01*
X240632380Y-135414285D02*
X239632380Y-135414285D01*
X239632380Y-135033333D01*
X239680000Y-134938095D01*
X239727619Y-134890476D01*
X239822857Y-134842857D01*
X239965714Y-134842857D01*
X240060952Y-134890476D01*
X240108571Y-134938095D01*
X240156190Y-135033333D01*
X240156190Y-135414285D01*
X240632380Y-133890476D02*
X240632380Y-134461904D01*
X240632380Y-134176190D02*
X239632380Y-134176190D01*
X239775238Y-134271428D01*
X239870476Y-134366666D01*
X239918095Y-134461904D01*
X239632380Y-133033333D02*
X239632380Y-133223809D01*
X239680000Y-133319047D01*
X239727619Y-133366666D01*
X239870476Y-133461904D01*
X240060952Y-133509523D01*
X240441904Y-133509523D01*
X240537142Y-133461904D01*
X240584761Y-133414285D01*
X240632380Y-133319047D01*
X240632380Y-133128571D01*
X240584761Y-133033333D01*
X240537142Y-132985714D01*
X240441904Y-132938095D01*
X240203809Y-132938095D01*
X240108571Y-132985714D01*
X240060952Y-133033333D01*
X240013333Y-133128571D01*
X240013333Y-133319047D01*
X240060952Y-133414285D01*
X240108571Y-133461904D01*
X240203809Y-133509523D01*
G04 #@! TO.C,R17*
X239907142Y-121272380D02*
X239573809Y-120796190D01*
X239335714Y-121272380D02*
X239335714Y-120272380D01*
X239716666Y-120272380D01*
X239811904Y-120320000D01*
X239859523Y-120367619D01*
X239907142Y-120462857D01*
X239907142Y-120605714D01*
X239859523Y-120700952D01*
X239811904Y-120748571D01*
X239716666Y-120796190D01*
X239335714Y-120796190D01*
X240859523Y-121272380D02*
X240288095Y-121272380D01*
X240573809Y-121272380D02*
X240573809Y-120272380D01*
X240478571Y-120415238D01*
X240383333Y-120510476D01*
X240288095Y-120558095D01*
X241192857Y-120272380D02*
X241859523Y-120272380D01*
X241430952Y-121272380D01*
G04 #@! TD*
M02*
