G04 #@! TF.GenerationSoftware,KiCad,Pcbnew,(5.0.2)-1*
G04 #@! TF.CreationDate,2020-04-15T18:40:52+09:00*
G04 #@! TF.ProjectId,eckeyboard,65636b65-7962-46f6-9172-642e6b696361,rev?*
G04 #@! TF.SameCoordinates,Original*
G04 #@! TF.FileFunction,Soldermask,Bot*
G04 #@! TF.FilePolarity,Negative*
%FSLAX46Y46*%
G04 Gerber Fmt 4.6, Leading zero omitted, Abs format (unit mm)*
G04 Created by KiCad (PCBNEW (5.0.2)-1) date 2020/04/15 18:40:52*
%MOMM*%
%LPD*%
G01*
G04 APERTURE LIST*
%ADD10C,0.100000*%
G04 APERTURE END LIST*
D10*
G36*
X62064499Y-132403445D02*
X62101993Y-132414819D01*
X62136557Y-132433294D01*
X62166847Y-132458153D01*
X62191706Y-132488443D01*
X62210181Y-132523007D01*
X62221555Y-132560501D01*
X62226000Y-132605638D01*
X62226000Y-133344362D01*
X62221555Y-133389499D01*
X62210181Y-133426993D01*
X62191706Y-133461557D01*
X62166847Y-133491847D01*
X62136557Y-133516706D01*
X62101993Y-133535181D01*
X62064499Y-133546555D01*
X62019362Y-133551000D01*
X61380638Y-133551000D01*
X61335501Y-133546555D01*
X61298007Y-133535181D01*
X61263443Y-133516706D01*
X61233153Y-133491847D01*
X61208294Y-133461557D01*
X61189819Y-133426993D01*
X61178445Y-133389499D01*
X61174000Y-133344362D01*
X61174000Y-132605638D01*
X61178445Y-132560501D01*
X61189819Y-132523007D01*
X61208294Y-132488443D01*
X61233153Y-132458153D01*
X61263443Y-132433294D01*
X61298007Y-132414819D01*
X61335501Y-132403445D01*
X61380638Y-132399000D01*
X62019362Y-132399000D01*
X62064499Y-132403445D01*
X62064499Y-132403445D01*
G37*
G36*
X58164499Y-132403445D02*
X58201993Y-132414819D01*
X58236557Y-132433294D01*
X58266847Y-132458153D01*
X58291706Y-132488443D01*
X58310181Y-132523007D01*
X58321555Y-132560501D01*
X58326000Y-132605638D01*
X58326000Y-133344362D01*
X58321555Y-133389499D01*
X58310181Y-133426993D01*
X58291706Y-133461557D01*
X58266847Y-133491847D01*
X58236557Y-133516706D01*
X58201993Y-133535181D01*
X58164499Y-133546555D01*
X58119362Y-133551000D01*
X57480638Y-133551000D01*
X57435501Y-133546555D01*
X57398007Y-133535181D01*
X57363443Y-133516706D01*
X57333153Y-133491847D01*
X57308294Y-133461557D01*
X57289819Y-133426993D01*
X57278445Y-133389499D01*
X57274000Y-133344362D01*
X57274000Y-132605638D01*
X57278445Y-132560501D01*
X57289819Y-132523007D01*
X57308294Y-132488443D01*
X57333153Y-132458153D01*
X57363443Y-132433294D01*
X57398007Y-132414819D01*
X57435501Y-132403445D01*
X57480638Y-132399000D01*
X58119362Y-132399000D01*
X58164499Y-132403445D01*
X58164499Y-132403445D01*
G37*
G36*
X51264499Y-131503445D02*
X51301993Y-131514819D01*
X51336557Y-131533294D01*
X51366847Y-131558153D01*
X51391706Y-131588443D01*
X51410181Y-131623007D01*
X51421555Y-131660501D01*
X51426000Y-131705638D01*
X51426000Y-132444362D01*
X51421555Y-132489499D01*
X51410181Y-132526993D01*
X51391706Y-132561557D01*
X51366847Y-132591847D01*
X51336557Y-132616706D01*
X51301993Y-132635181D01*
X51264499Y-132646555D01*
X51219362Y-132651000D01*
X50580638Y-132651000D01*
X50535501Y-132646555D01*
X50498007Y-132635181D01*
X50463443Y-132616706D01*
X50433153Y-132591847D01*
X50408294Y-132561557D01*
X50389819Y-132526993D01*
X50378445Y-132489499D01*
X50374000Y-132444362D01*
X50374000Y-131705638D01*
X50378445Y-131660501D01*
X50389819Y-131623007D01*
X50408294Y-131588443D01*
X50433153Y-131558153D01*
X50463443Y-131533294D01*
X50498007Y-131514819D01*
X50535501Y-131503445D01*
X50580638Y-131499000D01*
X51219362Y-131499000D01*
X51264499Y-131503445D01*
X51264499Y-131503445D01*
G37*
G36*
X53864499Y-131503445D02*
X53901993Y-131514819D01*
X53936557Y-131533294D01*
X53966847Y-131558153D01*
X53991706Y-131588443D01*
X54010181Y-131623007D01*
X54021555Y-131660501D01*
X54026000Y-131705638D01*
X54026000Y-132444362D01*
X54021555Y-132489499D01*
X54010181Y-132526993D01*
X53991706Y-132561557D01*
X53966847Y-132591847D01*
X53936557Y-132616706D01*
X53901993Y-132635181D01*
X53864499Y-132646555D01*
X53819362Y-132651000D01*
X53180638Y-132651000D01*
X53135501Y-132646555D01*
X53098007Y-132635181D01*
X53063443Y-132616706D01*
X53033153Y-132591847D01*
X53008294Y-132561557D01*
X52989819Y-132526993D01*
X52978445Y-132489499D01*
X52974000Y-132444362D01*
X52974000Y-131705638D01*
X52978445Y-131660501D01*
X52989819Y-131623007D01*
X53008294Y-131588443D01*
X53033153Y-131558153D01*
X53063443Y-131533294D01*
X53098007Y-131514819D01*
X53135501Y-131503445D01*
X53180638Y-131499000D01*
X53819362Y-131499000D01*
X53864499Y-131503445D01*
X53864499Y-131503445D01*
G37*
G36*
X134651902Y-131278445D02*
X134689396Y-131289819D01*
X134723960Y-131308294D01*
X134754250Y-131333153D01*
X134779109Y-131363443D01*
X134797584Y-131398007D01*
X134808958Y-131435501D01*
X134813403Y-131480638D01*
X134813403Y-132119362D01*
X134808958Y-132164499D01*
X134797584Y-132201993D01*
X134779109Y-132236557D01*
X134754250Y-132266847D01*
X134723960Y-132291706D01*
X134689396Y-132310181D01*
X134651902Y-132321555D01*
X134606765Y-132326000D01*
X133868041Y-132326000D01*
X133822904Y-132321555D01*
X133785410Y-132310181D01*
X133750846Y-132291706D01*
X133720556Y-132266847D01*
X133695697Y-132236557D01*
X133677222Y-132201993D01*
X133665848Y-132164499D01*
X133661403Y-132119362D01*
X133661403Y-131480638D01*
X133665848Y-131435501D01*
X133677222Y-131398007D01*
X133695697Y-131363443D01*
X133720556Y-131333153D01*
X133750846Y-131308294D01*
X133785410Y-131289819D01*
X133822904Y-131278445D01*
X133868041Y-131274000D01*
X134606765Y-131274000D01*
X134651902Y-131278445D01*
X134651902Y-131278445D01*
G37*
G36*
X110089499Y-131278445D02*
X110126993Y-131289819D01*
X110161557Y-131308294D01*
X110191847Y-131333153D01*
X110216706Y-131363443D01*
X110235181Y-131398007D01*
X110246555Y-131435501D01*
X110251000Y-131480638D01*
X110251000Y-132119362D01*
X110246555Y-132164499D01*
X110235181Y-132201993D01*
X110216706Y-132236557D01*
X110191847Y-132266847D01*
X110161557Y-132291706D01*
X110126993Y-132310181D01*
X110089499Y-132321555D01*
X110044362Y-132326000D01*
X109305638Y-132326000D01*
X109260501Y-132321555D01*
X109223007Y-132310181D01*
X109188443Y-132291706D01*
X109158153Y-132266847D01*
X109133294Y-132236557D01*
X109114819Y-132201993D01*
X109103445Y-132164499D01*
X109099000Y-132119362D01*
X109099000Y-131480638D01*
X109103445Y-131435501D01*
X109114819Y-131398007D01*
X109133294Y-131363443D01*
X109158153Y-131333153D01*
X109188443Y-131308294D01*
X109223007Y-131289819D01*
X109260501Y-131278445D01*
X109305638Y-131274000D01*
X110044362Y-131274000D01*
X110089499Y-131278445D01*
X110089499Y-131278445D01*
G37*
G36*
X108339499Y-131278445D02*
X108376993Y-131289819D01*
X108411557Y-131308294D01*
X108441847Y-131333153D01*
X108466706Y-131363443D01*
X108485181Y-131398007D01*
X108496555Y-131435501D01*
X108501000Y-131480638D01*
X108501000Y-132119362D01*
X108496555Y-132164499D01*
X108485181Y-132201993D01*
X108466706Y-132236557D01*
X108441847Y-132266847D01*
X108411557Y-132291706D01*
X108376993Y-132310181D01*
X108339499Y-132321555D01*
X108294362Y-132326000D01*
X107555638Y-132326000D01*
X107510501Y-132321555D01*
X107473007Y-132310181D01*
X107438443Y-132291706D01*
X107408153Y-132266847D01*
X107383294Y-132236557D01*
X107364819Y-132201993D01*
X107353445Y-132164499D01*
X107349000Y-132119362D01*
X107349000Y-131480638D01*
X107353445Y-131435501D01*
X107364819Y-131398007D01*
X107383294Y-131363443D01*
X107408153Y-131333153D01*
X107438443Y-131308294D01*
X107473007Y-131289819D01*
X107510501Y-131278445D01*
X107555638Y-131274000D01*
X108294362Y-131274000D01*
X108339499Y-131278445D01*
X108339499Y-131278445D01*
G37*
G36*
X132901902Y-131278445D02*
X132939396Y-131289819D01*
X132973960Y-131308294D01*
X133004250Y-131333153D01*
X133029109Y-131363443D01*
X133047584Y-131398007D01*
X133058958Y-131435501D01*
X133063403Y-131480638D01*
X133063403Y-132119362D01*
X133058958Y-132164499D01*
X133047584Y-132201993D01*
X133029109Y-132236557D01*
X133004250Y-132266847D01*
X132973960Y-132291706D01*
X132939396Y-132310181D01*
X132901902Y-132321555D01*
X132856765Y-132326000D01*
X132118041Y-132326000D01*
X132072904Y-132321555D01*
X132035410Y-132310181D01*
X132000846Y-132291706D01*
X131970556Y-132266847D01*
X131945697Y-132236557D01*
X131927222Y-132201993D01*
X131915848Y-132164499D01*
X131911403Y-132119362D01*
X131911403Y-131480638D01*
X131915848Y-131435501D01*
X131927222Y-131398007D01*
X131945697Y-131363443D01*
X131970556Y-131333153D01*
X132000846Y-131308294D01*
X132035410Y-131289819D01*
X132072904Y-131278445D01*
X132118041Y-131274000D01*
X132856765Y-131274000D01*
X132901902Y-131278445D01*
X132901902Y-131278445D01*
G37*
G36*
X62064499Y-130653445D02*
X62101993Y-130664819D01*
X62136557Y-130683294D01*
X62166847Y-130708153D01*
X62191706Y-130738443D01*
X62210181Y-130773007D01*
X62221555Y-130810501D01*
X62226000Y-130855638D01*
X62226000Y-131594362D01*
X62221555Y-131639499D01*
X62210181Y-131676993D01*
X62191706Y-131711557D01*
X62166847Y-131741847D01*
X62136557Y-131766706D01*
X62101993Y-131785181D01*
X62064499Y-131796555D01*
X62019362Y-131801000D01*
X61380638Y-131801000D01*
X61335501Y-131796555D01*
X61298007Y-131785181D01*
X61263443Y-131766706D01*
X61233153Y-131741847D01*
X61208294Y-131711557D01*
X61189819Y-131676993D01*
X61178445Y-131639499D01*
X61174000Y-131594362D01*
X61174000Y-130855638D01*
X61178445Y-130810501D01*
X61189819Y-130773007D01*
X61208294Y-130738443D01*
X61233153Y-130708153D01*
X61263443Y-130683294D01*
X61298007Y-130664819D01*
X61335501Y-130653445D01*
X61380638Y-130649000D01*
X62019362Y-130649000D01*
X62064499Y-130653445D01*
X62064499Y-130653445D01*
G37*
G36*
X58164499Y-130653445D02*
X58201993Y-130664819D01*
X58236557Y-130683294D01*
X58266847Y-130708153D01*
X58291706Y-130738443D01*
X58310181Y-130773007D01*
X58321555Y-130810501D01*
X58326000Y-130855638D01*
X58326000Y-131594362D01*
X58321555Y-131639499D01*
X58310181Y-131676993D01*
X58291706Y-131711557D01*
X58266847Y-131741847D01*
X58236557Y-131766706D01*
X58201993Y-131785181D01*
X58164499Y-131796555D01*
X58119362Y-131801000D01*
X57480638Y-131801000D01*
X57435501Y-131796555D01*
X57398007Y-131785181D01*
X57363443Y-131766706D01*
X57333153Y-131741847D01*
X57308294Y-131711557D01*
X57289819Y-131676993D01*
X57278445Y-131639499D01*
X57274000Y-131594362D01*
X57274000Y-130855638D01*
X57278445Y-130810501D01*
X57289819Y-130773007D01*
X57308294Y-130738443D01*
X57333153Y-130708153D01*
X57363443Y-130683294D01*
X57398007Y-130664819D01*
X57435501Y-130653445D01*
X57480638Y-130649000D01*
X58119362Y-130649000D01*
X58164499Y-130653445D01*
X58164499Y-130653445D01*
G37*
G36*
X86204910Y-130163034D02*
X86242404Y-130174408D01*
X86276968Y-130192883D01*
X86307258Y-130217742D01*
X86332117Y-130248032D01*
X86350592Y-130282596D01*
X86361966Y-130320090D01*
X86366411Y-130365227D01*
X86366411Y-131003951D01*
X86361966Y-131049088D01*
X86350592Y-131086582D01*
X86332117Y-131121146D01*
X86307258Y-131151436D01*
X86276968Y-131176295D01*
X86242404Y-131194770D01*
X86204910Y-131206144D01*
X86159773Y-131210589D01*
X85421049Y-131210589D01*
X85375912Y-131206144D01*
X85338418Y-131194770D01*
X85303854Y-131176295D01*
X85273564Y-131151436D01*
X85248705Y-131121146D01*
X85230230Y-131086582D01*
X85218856Y-131049088D01*
X85214411Y-131003951D01*
X85214411Y-130365227D01*
X85218856Y-130320090D01*
X85230230Y-130282596D01*
X85248705Y-130248032D01*
X85273564Y-130217742D01*
X85303854Y-130192883D01*
X85338418Y-130174408D01*
X85375912Y-130163034D01*
X85421049Y-130158589D01*
X86159773Y-130158589D01*
X86204910Y-130163034D01*
X86204910Y-130163034D01*
G37*
G36*
X84454910Y-130163034D02*
X84492404Y-130174408D01*
X84526968Y-130192883D01*
X84557258Y-130217742D01*
X84582117Y-130248032D01*
X84600592Y-130282596D01*
X84611966Y-130320090D01*
X84616411Y-130365227D01*
X84616411Y-131003951D01*
X84611966Y-131049088D01*
X84600592Y-131086582D01*
X84582117Y-131121146D01*
X84557258Y-131151436D01*
X84526968Y-131176295D01*
X84492404Y-131194770D01*
X84454910Y-131206144D01*
X84409773Y-131210589D01*
X83671049Y-131210589D01*
X83625912Y-131206144D01*
X83588418Y-131194770D01*
X83553854Y-131176295D01*
X83523564Y-131151436D01*
X83498705Y-131121146D01*
X83480230Y-131086582D01*
X83468856Y-131049088D01*
X83464411Y-131003951D01*
X83464411Y-130365227D01*
X83468856Y-130320090D01*
X83480230Y-130282596D01*
X83498705Y-130248032D01*
X83523564Y-130217742D01*
X83553854Y-130192883D01*
X83588418Y-130174408D01*
X83625912Y-130163034D01*
X83671049Y-130158589D01*
X84409773Y-130158589D01*
X84454910Y-130163034D01*
X84454910Y-130163034D01*
G37*
G36*
X53864499Y-129753445D02*
X53901993Y-129764819D01*
X53936557Y-129783294D01*
X53966847Y-129808153D01*
X53991706Y-129838443D01*
X54010181Y-129873007D01*
X54021555Y-129910501D01*
X54026000Y-129955638D01*
X54026000Y-130694362D01*
X54021555Y-130739499D01*
X54010181Y-130776993D01*
X53991706Y-130811557D01*
X53966847Y-130841847D01*
X53936557Y-130866706D01*
X53901993Y-130885181D01*
X53864499Y-130896555D01*
X53819362Y-130901000D01*
X53180638Y-130901000D01*
X53135501Y-130896555D01*
X53098007Y-130885181D01*
X53063443Y-130866706D01*
X53033153Y-130841847D01*
X53008294Y-130811557D01*
X52989819Y-130776993D01*
X52978445Y-130739499D01*
X52974000Y-130694362D01*
X52974000Y-129955638D01*
X52978445Y-129910501D01*
X52989819Y-129873007D01*
X53008294Y-129838443D01*
X53033153Y-129808153D01*
X53063443Y-129783294D01*
X53098007Y-129764819D01*
X53135501Y-129753445D01*
X53180638Y-129749000D01*
X53819362Y-129749000D01*
X53864499Y-129753445D01*
X53864499Y-129753445D01*
G37*
G36*
X51264499Y-129753445D02*
X51301993Y-129764819D01*
X51336557Y-129783294D01*
X51366847Y-129808153D01*
X51391706Y-129838443D01*
X51410181Y-129873007D01*
X51421555Y-129910501D01*
X51426000Y-129955638D01*
X51426000Y-130694362D01*
X51421555Y-130739499D01*
X51410181Y-130776993D01*
X51391706Y-130811557D01*
X51366847Y-130841847D01*
X51336557Y-130866706D01*
X51301993Y-130885181D01*
X51264499Y-130896555D01*
X51219362Y-130901000D01*
X50580638Y-130901000D01*
X50535501Y-130896555D01*
X50498007Y-130885181D01*
X50463443Y-130866706D01*
X50433153Y-130841847D01*
X50408294Y-130811557D01*
X50389819Y-130776993D01*
X50378445Y-130739499D01*
X50374000Y-130694362D01*
X50374000Y-129955638D01*
X50378445Y-129910501D01*
X50389819Y-129873007D01*
X50408294Y-129838443D01*
X50433153Y-129808153D01*
X50463443Y-129783294D01*
X50498007Y-129764819D01*
X50535501Y-129753445D01*
X50580638Y-129749000D01*
X51219362Y-129749000D01*
X51264499Y-129753445D01*
X51264499Y-129753445D01*
G37*
G36*
X112466821Y-128381313D02*
X112466824Y-128381314D01*
X112466825Y-128381314D01*
X112627239Y-128429975D01*
X112627241Y-128429976D01*
X112627244Y-128429977D01*
X112775078Y-128508995D01*
X112904659Y-128615341D01*
X113011005Y-128744922D01*
X113090023Y-128892756D01*
X113090024Y-128892759D01*
X113090025Y-128892761D01*
X113138686Y-129053175D01*
X113138686Y-129053178D01*
X113138687Y-129053180D01*
X113151000Y-129178197D01*
X113151000Y-130061804D01*
X113138687Y-130186821D01*
X113138686Y-130186824D01*
X113138686Y-130186825D01*
X113098002Y-130320943D01*
X113090023Y-130347244D01*
X113011005Y-130495078D01*
X112904659Y-130624659D01*
X112775078Y-130731005D01*
X112627243Y-130810023D01*
X112627240Y-130810024D01*
X112627238Y-130810025D01*
X112466824Y-130858686D01*
X112466823Y-130858686D01*
X112466820Y-130858687D01*
X112300000Y-130875117D01*
X112133179Y-130858687D01*
X112133176Y-130858686D01*
X112133175Y-130858686D01*
X111972761Y-130810025D01*
X111972759Y-130810024D01*
X111972756Y-130810023D01*
X111824922Y-130731005D01*
X111695341Y-130624659D01*
X111588995Y-130495078D01*
X111509977Y-130347243D01*
X111479882Y-130248032D01*
X111461314Y-130186824D01*
X111461314Y-130186823D01*
X111461313Y-130186820D01*
X111449000Y-130061803D01*
X111449000Y-129178197D01*
X111461314Y-129053179D01*
X111466356Y-129036557D01*
X111509976Y-128892761D01*
X111509977Y-128892759D01*
X111509978Y-128892756D01*
X111588996Y-128744922D01*
X111695342Y-128615341D01*
X111824923Y-128508995D01*
X111972757Y-128429977D01*
X111972760Y-128429976D01*
X111972762Y-128429975D01*
X112133176Y-128381314D01*
X112133177Y-128381314D01*
X112133180Y-128381313D01*
X112300000Y-128364883D01*
X112466821Y-128381313D01*
X112466821Y-128381313D01*
G37*
G36*
X115006821Y-128381313D02*
X115006824Y-128381314D01*
X115006825Y-128381314D01*
X115167239Y-128429975D01*
X115167241Y-128429976D01*
X115167244Y-128429977D01*
X115315078Y-128508995D01*
X115444659Y-128615341D01*
X115551005Y-128744922D01*
X115630023Y-128892756D01*
X115630024Y-128892759D01*
X115630025Y-128892761D01*
X115678686Y-129053175D01*
X115678686Y-129053178D01*
X115678687Y-129053180D01*
X115691000Y-129178197D01*
X115691000Y-130061804D01*
X115678687Y-130186821D01*
X115678686Y-130186824D01*
X115678686Y-130186825D01*
X115638002Y-130320943D01*
X115630023Y-130347244D01*
X115551005Y-130495078D01*
X115444659Y-130624659D01*
X115315078Y-130731005D01*
X115167243Y-130810023D01*
X115167240Y-130810024D01*
X115167238Y-130810025D01*
X115006824Y-130858686D01*
X115006823Y-130858686D01*
X115006820Y-130858687D01*
X114840000Y-130875117D01*
X114673179Y-130858687D01*
X114673176Y-130858686D01*
X114673175Y-130858686D01*
X114512761Y-130810025D01*
X114512759Y-130810024D01*
X114512756Y-130810023D01*
X114364922Y-130731005D01*
X114235341Y-130624659D01*
X114128995Y-130495078D01*
X114049977Y-130347243D01*
X114019882Y-130248032D01*
X114001314Y-130186824D01*
X114001314Y-130186823D01*
X114001313Y-130186820D01*
X113989000Y-130061803D01*
X113989000Y-129178197D01*
X114001314Y-129053179D01*
X114006356Y-129036557D01*
X114049976Y-128892761D01*
X114049977Y-128892759D01*
X114049978Y-128892756D01*
X114128996Y-128744922D01*
X114235342Y-128615341D01*
X114364923Y-128508995D01*
X114512757Y-128429977D01*
X114512760Y-128429976D01*
X114512762Y-128429975D01*
X114673176Y-128381314D01*
X114673177Y-128381314D01*
X114673180Y-128381313D01*
X114840000Y-128364883D01*
X115006821Y-128381313D01*
X115006821Y-128381313D01*
G37*
G36*
X117546821Y-128381313D02*
X117546824Y-128381314D01*
X117546825Y-128381314D01*
X117707239Y-128429975D01*
X117707241Y-128429976D01*
X117707244Y-128429977D01*
X117855078Y-128508995D01*
X117984659Y-128615341D01*
X118091005Y-128744922D01*
X118170023Y-128892756D01*
X118170024Y-128892759D01*
X118170025Y-128892761D01*
X118218686Y-129053175D01*
X118218686Y-129053178D01*
X118218687Y-129053180D01*
X118231000Y-129178197D01*
X118231000Y-130061804D01*
X118218687Y-130186821D01*
X118218686Y-130186824D01*
X118218686Y-130186825D01*
X118178002Y-130320943D01*
X118170023Y-130347244D01*
X118091005Y-130495078D01*
X117984659Y-130624659D01*
X117855078Y-130731005D01*
X117707243Y-130810023D01*
X117707240Y-130810024D01*
X117707238Y-130810025D01*
X117546824Y-130858686D01*
X117546823Y-130858686D01*
X117546820Y-130858687D01*
X117380000Y-130875117D01*
X117213179Y-130858687D01*
X117213176Y-130858686D01*
X117213175Y-130858686D01*
X117052761Y-130810025D01*
X117052759Y-130810024D01*
X117052756Y-130810023D01*
X116904922Y-130731005D01*
X116775341Y-130624659D01*
X116668995Y-130495078D01*
X116589977Y-130347243D01*
X116559882Y-130248032D01*
X116541314Y-130186824D01*
X116541314Y-130186823D01*
X116541313Y-130186820D01*
X116529000Y-130061803D01*
X116529000Y-129178197D01*
X116541314Y-129053179D01*
X116546356Y-129036557D01*
X116589976Y-128892761D01*
X116589977Y-128892759D01*
X116589978Y-128892756D01*
X116668996Y-128744922D01*
X116775342Y-128615341D01*
X116904923Y-128508995D01*
X117052757Y-128429977D01*
X117052760Y-128429976D01*
X117052762Y-128429975D01*
X117213176Y-128381314D01*
X117213177Y-128381314D01*
X117213180Y-128381313D01*
X117380000Y-128364883D01*
X117546821Y-128381313D01*
X117546821Y-128381313D01*
G37*
G36*
X120086821Y-128381313D02*
X120086824Y-128381314D01*
X120086825Y-128381314D01*
X120247239Y-128429975D01*
X120247241Y-128429976D01*
X120247244Y-128429977D01*
X120395078Y-128508995D01*
X120524659Y-128615341D01*
X120631005Y-128744922D01*
X120710023Y-128892756D01*
X120710024Y-128892759D01*
X120710025Y-128892761D01*
X120758686Y-129053175D01*
X120758686Y-129053178D01*
X120758687Y-129053180D01*
X120771000Y-129178197D01*
X120771000Y-130061804D01*
X120758687Y-130186821D01*
X120758686Y-130186824D01*
X120758686Y-130186825D01*
X120718002Y-130320943D01*
X120710023Y-130347244D01*
X120631005Y-130495078D01*
X120524659Y-130624659D01*
X120395078Y-130731005D01*
X120247243Y-130810023D01*
X120247240Y-130810024D01*
X120247238Y-130810025D01*
X120086824Y-130858686D01*
X120086823Y-130858686D01*
X120086820Y-130858687D01*
X119920000Y-130875117D01*
X119753179Y-130858687D01*
X119753176Y-130858686D01*
X119753175Y-130858686D01*
X119592761Y-130810025D01*
X119592759Y-130810024D01*
X119592756Y-130810023D01*
X119444922Y-130731005D01*
X119315341Y-130624659D01*
X119208995Y-130495078D01*
X119129977Y-130347243D01*
X119099882Y-130248032D01*
X119081314Y-130186824D01*
X119081314Y-130186823D01*
X119081313Y-130186820D01*
X119069000Y-130061803D01*
X119069000Y-129178197D01*
X119081314Y-129053179D01*
X119086356Y-129036557D01*
X119129976Y-128892761D01*
X119129977Y-128892759D01*
X119129978Y-128892756D01*
X119208996Y-128744922D01*
X119315342Y-128615341D01*
X119444923Y-128508995D01*
X119592757Y-128429977D01*
X119592760Y-128429976D01*
X119592762Y-128429975D01*
X119753176Y-128381314D01*
X119753177Y-128381314D01*
X119753180Y-128381313D01*
X119920000Y-128364883D01*
X120086821Y-128381313D01*
X120086821Y-128381313D01*
G37*
G36*
X122626821Y-128381313D02*
X122626824Y-128381314D01*
X122626825Y-128381314D01*
X122787239Y-128429975D01*
X122787241Y-128429976D01*
X122787244Y-128429977D01*
X122935078Y-128508995D01*
X123064659Y-128615341D01*
X123171005Y-128744922D01*
X123250023Y-128892756D01*
X123250024Y-128892759D01*
X123250025Y-128892761D01*
X123298686Y-129053175D01*
X123298686Y-129053178D01*
X123298687Y-129053180D01*
X123311000Y-129178197D01*
X123311000Y-130061804D01*
X123298687Y-130186821D01*
X123298686Y-130186824D01*
X123298686Y-130186825D01*
X123258002Y-130320943D01*
X123250023Y-130347244D01*
X123171005Y-130495078D01*
X123064659Y-130624659D01*
X122935078Y-130731005D01*
X122787243Y-130810023D01*
X122787240Y-130810024D01*
X122787238Y-130810025D01*
X122626824Y-130858686D01*
X122626823Y-130858686D01*
X122626820Y-130858687D01*
X122460000Y-130875117D01*
X122293179Y-130858687D01*
X122293176Y-130858686D01*
X122293175Y-130858686D01*
X122132761Y-130810025D01*
X122132759Y-130810024D01*
X122132756Y-130810023D01*
X121984922Y-130731005D01*
X121855341Y-130624659D01*
X121748995Y-130495078D01*
X121669977Y-130347243D01*
X121639882Y-130248032D01*
X121621314Y-130186824D01*
X121621314Y-130186823D01*
X121621313Y-130186820D01*
X121609000Y-130061803D01*
X121609000Y-129178197D01*
X121621314Y-129053179D01*
X121626356Y-129036557D01*
X121669976Y-128892761D01*
X121669977Y-128892759D01*
X121669978Y-128892756D01*
X121748996Y-128744922D01*
X121855342Y-128615341D01*
X121984923Y-128508995D01*
X122132757Y-128429977D01*
X122132760Y-128429976D01*
X122132762Y-128429975D01*
X122293176Y-128381314D01*
X122293177Y-128381314D01*
X122293180Y-128381313D01*
X122460000Y-128364883D01*
X122626821Y-128381313D01*
X122626821Y-128381313D01*
G37*
G36*
X125166821Y-128381313D02*
X125166824Y-128381314D01*
X125166825Y-128381314D01*
X125327239Y-128429975D01*
X125327241Y-128429976D01*
X125327244Y-128429977D01*
X125475078Y-128508995D01*
X125604659Y-128615341D01*
X125711005Y-128744922D01*
X125790023Y-128892756D01*
X125790024Y-128892759D01*
X125790025Y-128892761D01*
X125838686Y-129053175D01*
X125838686Y-129053178D01*
X125838687Y-129053180D01*
X125851000Y-129178197D01*
X125851000Y-130061804D01*
X125838687Y-130186821D01*
X125838686Y-130186824D01*
X125838686Y-130186825D01*
X125798002Y-130320943D01*
X125790023Y-130347244D01*
X125711005Y-130495078D01*
X125604659Y-130624659D01*
X125475078Y-130731005D01*
X125327243Y-130810023D01*
X125327240Y-130810024D01*
X125327238Y-130810025D01*
X125166824Y-130858686D01*
X125166823Y-130858686D01*
X125166820Y-130858687D01*
X125000000Y-130875117D01*
X124833179Y-130858687D01*
X124833176Y-130858686D01*
X124833175Y-130858686D01*
X124672761Y-130810025D01*
X124672759Y-130810024D01*
X124672756Y-130810023D01*
X124524922Y-130731005D01*
X124395341Y-130624659D01*
X124288995Y-130495078D01*
X124209977Y-130347243D01*
X124179882Y-130248032D01*
X124161314Y-130186824D01*
X124161314Y-130186823D01*
X124161313Y-130186820D01*
X124149000Y-130061803D01*
X124149000Y-129178197D01*
X124161314Y-129053179D01*
X124166356Y-129036557D01*
X124209976Y-128892761D01*
X124209977Y-128892759D01*
X124209978Y-128892756D01*
X124288996Y-128744922D01*
X124395342Y-128615341D01*
X124524923Y-128508995D01*
X124672757Y-128429977D01*
X124672760Y-128429976D01*
X124672762Y-128429975D01*
X124833176Y-128381314D01*
X124833177Y-128381314D01*
X124833180Y-128381313D01*
X125000000Y-128364883D01*
X125166821Y-128381313D01*
X125166821Y-128381313D01*
G37*
G36*
X130246821Y-128381313D02*
X130246824Y-128381314D01*
X130246825Y-128381314D01*
X130407239Y-128429975D01*
X130407241Y-128429976D01*
X130407244Y-128429977D01*
X130555078Y-128508995D01*
X130684659Y-128615341D01*
X130791005Y-128744922D01*
X130870023Y-128892756D01*
X130870024Y-128892759D01*
X130870025Y-128892761D01*
X130918686Y-129053175D01*
X130918686Y-129053178D01*
X130918687Y-129053180D01*
X130931000Y-129178197D01*
X130931000Y-130061804D01*
X130918687Y-130186821D01*
X130918686Y-130186824D01*
X130918686Y-130186825D01*
X130878002Y-130320943D01*
X130870023Y-130347244D01*
X130791005Y-130495078D01*
X130684659Y-130624659D01*
X130555078Y-130731005D01*
X130407243Y-130810023D01*
X130407240Y-130810024D01*
X130407238Y-130810025D01*
X130246824Y-130858686D01*
X130246823Y-130858686D01*
X130246820Y-130858687D01*
X130080000Y-130875117D01*
X129913179Y-130858687D01*
X129913176Y-130858686D01*
X129913175Y-130858686D01*
X129752761Y-130810025D01*
X129752759Y-130810024D01*
X129752756Y-130810023D01*
X129604922Y-130731005D01*
X129475341Y-130624659D01*
X129368995Y-130495078D01*
X129289977Y-130347243D01*
X129259882Y-130248032D01*
X129241314Y-130186824D01*
X129241314Y-130186823D01*
X129241313Y-130186820D01*
X129229000Y-130061803D01*
X129229000Y-129178197D01*
X129241314Y-129053179D01*
X129246356Y-129036557D01*
X129289976Y-128892761D01*
X129289977Y-128892759D01*
X129289978Y-128892756D01*
X129368996Y-128744922D01*
X129475342Y-128615341D01*
X129604923Y-128508995D01*
X129752757Y-128429977D01*
X129752760Y-128429976D01*
X129752762Y-128429975D01*
X129913176Y-128381314D01*
X129913177Y-128381314D01*
X129913180Y-128381313D01*
X130080000Y-128364883D01*
X130246821Y-128381313D01*
X130246821Y-128381313D01*
G37*
G36*
X127706821Y-128381313D02*
X127706824Y-128381314D01*
X127706825Y-128381314D01*
X127867239Y-128429975D01*
X127867241Y-128429976D01*
X127867244Y-128429977D01*
X128015078Y-128508995D01*
X128144659Y-128615341D01*
X128251005Y-128744922D01*
X128330023Y-128892756D01*
X128330024Y-128892759D01*
X128330025Y-128892761D01*
X128378686Y-129053175D01*
X128378686Y-129053178D01*
X128378687Y-129053180D01*
X128391000Y-129178197D01*
X128391000Y-130061804D01*
X128378687Y-130186821D01*
X128378686Y-130186824D01*
X128378686Y-130186825D01*
X128338002Y-130320943D01*
X128330023Y-130347244D01*
X128251005Y-130495078D01*
X128144659Y-130624659D01*
X128015078Y-130731005D01*
X127867243Y-130810023D01*
X127867240Y-130810024D01*
X127867238Y-130810025D01*
X127706824Y-130858686D01*
X127706823Y-130858686D01*
X127706820Y-130858687D01*
X127540000Y-130875117D01*
X127373179Y-130858687D01*
X127373176Y-130858686D01*
X127373175Y-130858686D01*
X127212761Y-130810025D01*
X127212759Y-130810024D01*
X127212756Y-130810023D01*
X127064922Y-130731005D01*
X126935341Y-130624659D01*
X126828995Y-130495078D01*
X126749977Y-130347243D01*
X126719882Y-130248032D01*
X126701314Y-130186824D01*
X126701314Y-130186823D01*
X126701313Y-130186820D01*
X126689000Y-130061803D01*
X126689000Y-129178197D01*
X126701314Y-129053179D01*
X126706356Y-129036557D01*
X126749976Y-128892761D01*
X126749977Y-128892759D01*
X126749978Y-128892756D01*
X126828996Y-128744922D01*
X126935342Y-128615341D01*
X127064923Y-128508995D01*
X127212757Y-128429977D01*
X127212760Y-128429976D01*
X127212762Y-128429975D01*
X127373176Y-128381314D01*
X127373177Y-128381314D01*
X127373180Y-128381313D01*
X127540000Y-128364883D01*
X127706821Y-128381313D01*
X127706821Y-128381313D01*
G37*
G36*
X132901902Y-129675994D02*
X132939396Y-129687368D01*
X132973960Y-129705843D01*
X133004250Y-129730702D01*
X133029109Y-129760992D01*
X133047584Y-129795556D01*
X133058958Y-129833050D01*
X133063403Y-129878187D01*
X133063403Y-130516911D01*
X133058958Y-130562048D01*
X133047584Y-130599542D01*
X133029109Y-130634106D01*
X133004250Y-130664396D01*
X132973960Y-130689255D01*
X132939396Y-130707730D01*
X132901902Y-130719104D01*
X132856765Y-130723549D01*
X132118041Y-130723549D01*
X132072904Y-130719104D01*
X132035410Y-130707730D01*
X132000846Y-130689255D01*
X131970556Y-130664396D01*
X131945697Y-130634106D01*
X131927222Y-130599542D01*
X131915848Y-130562048D01*
X131911403Y-130516911D01*
X131911403Y-129878187D01*
X131915848Y-129833050D01*
X131927222Y-129795556D01*
X131945697Y-129760992D01*
X131970556Y-129730702D01*
X132000846Y-129705843D01*
X132035410Y-129687368D01*
X132072904Y-129675994D01*
X132118041Y-129671549D01*
X132856765Y-129671549D01*
X132901902Y-129675994D01*
X132901902Y-129675994D01*
G37*
G36*
X134651902Y-129675994D02*
X134689396Y-129687368D01*
X134723960Y-129705843D01*
X134754250Y-129730702D01*
X134779109Y-129760992D01*
X134797584Y-129795556D01*
X134808958Y-129833050D01*
X134813403Y-129878187D01*
X134813403Y-130516911D01*
X134808958Y-130562048D01*
X134797584Y-130599542D01*
X134779109Y-130634106D01*
X134754250Y-130664396D01*
X134723960Y-130689255D01*
X134689396Y-130707730D01*
X134651902Y-130719104D01*
X134606765Y-130723549D01*
X133868041Y-130723549D01*
X133822904Y-130719104D01*
X133785410Y-130707730D01*
X133750846Y-130689255D01*
X133720556Y-130664396D01*
X133695697Y-130634106D01*
X133677222Y-130599542D01*
X133665848Y-130562048D01*
X133661403Y-130516911D01*
X133661403Y-129878187D01*
X133665848Y-129833050D01*
X133677222Y-129795556D01*
X133695697Y-129760992D01*
X133720556Y-129730702D01*
X133750846Y-129705843D01*
X133785410Y-129687368D01*
X133822904Y-129675994D01*
X133868041Y-129671549D01*
X134606765Y-129671549D01*
X134651902Y-129675994D01*
X134651902Y-129675994D01*
G37*
G36*
X108339499Y-129578445D02*
X108376993Y-129589819D01*
X108411557Y-129608294D01*
X108441847Y-129633153D01*
X108466706Y-129663443D01*
X108485181Y-129698007D01*
X108496555Y-129735501D01*
X108501000Y-129780638D01*
X108501000Y-130419362D01*
X108496555Y-130464499D01*
X108485181Y-130501993D01*
X108466706Y-130536557D01*
X108441847Y-130566847D01*
X108411557Y-130591706D01*
X108376993Y-130610181D01*
X108339499Y-130621555D01*
X108294362Y-130626000D01*
X107555638Y-130626000D01*
X107510501Y-130621555D01*
X107473007Y-130610181D01*
X107438443Y-130591706D01*
X107408153Y-130566847D01*
X107383294Y-130536557D01*
X107364819Y-130501993D01*
X107353445Y-130464499D01*
X107349000Y-130419362D01*
X107349000Y-129780638D01*
X107353445Y-129735501D01*
X107364819Y-129698007D01*
X107383294Y-129663443D01*
X107408153Y-129633153D01*
X107438443Y-129608294D01*
X107473007Y-129589819D01*
X107510501Y-129578445D01*
X107555638Y-129574000D01*
X108294362Y-129574000D01*
X108339499Y-129578445D01*
X108339499Y-129578445D01*
G37*
G36*
X110089499Y-129578445D02*
X110126993Y-129589819D01*
X110161557Y-129608294D01*
X110191847Y-129633153D01*
X110216706Y-129663443D01*
X110235181Y-129698007D01*
X110246555Y-129735501D01*
X110251000Y-129780638D01*
X110251000Y-130419362D01*
X110246555Y-130464499D01*
X110235181Y-130501993D01*
X110216706Y-130536557D01*
X110191847Y-130566847D01*
X110161557Y-130591706D01*
X110126993Y-130610181D01*
X110089499Y-130621555D01*
X110044362Y-130626000D01*
X109305638Y-130626000D01*
X109260501Y-130621555D01*
X109223007Y-130610181D01*
X109188443Y-130591706D01*
X109158153Y-130566847D01*
X109133294Y-130536557D01*
X109114819Y-130501993D01*
X109103445Y-130464499D01*
X109099000Y-130419362D01*
X109099000Y-129780638D01*
X109103445Y-129735501D01*
X109114819Y-129698007D01*
X109133294Y-129663443D01*
X109158153Y-129633153D01*
X109188443Y-129608294D01*
X109223007Y-129589819D01*
X109260501Y-129578445D01*
X109305638Y-129574000D01*
X110044362Y-129574000D01*
X110089499Y-129578445D01*
X110089499Y-129578445D01*
G37*
G36*
X61965514Y-130018137D02*
X61313514Y-130018137D01*
X61313514Y-128166137D01*
X61965514Y-128166137D01*
X61965514Y-130018137D01*
X61965514Y-130018137D01*
G37*
G36*
X59425514Y-130018137D02*
X58773514Y-130018137D01*
X58773514Y-128166137D01*
X59425514Y-128166137D01*
X59425514Y-130018137D01*
X59425514Y-130018137D01*
G37*
G36*
X58155514Y-130018137D02*
X57503514Y-130018137D01*
X57503514Y-128166137D01*
X58155514Y-128166137D01*
X58155514Y-130018137D01*
X58155514Y-130018137D01*
G37*
G36*
X60695514Y-130018137D02*
X60043514Y-130018137D01*
X60043514Y-128166137D01*
X60695514Y-128166137D01*
X60695514Y-130018137D01*
X60695514Y-130018137D01*
G37*
G36*
X86204910Y-128663034D02*
X86242404Y-128674408D01*
X86276968Y-128692883D01*
X86307258Y-128717742D01*
X86332117Y-128748032D01*
X86350592Y-128782596D01*
X86361966Y-128820090D01*
X86366411Y-128865227D01*
X86366411Y-129503951D01*
X86361966Y-129549088D01*
X86350592Y-129586582D01*
X86332117Y-129621146D01*
X86307258Y-129651436D01*
X86276968Y-129676295D01*
X86242404Y-129694770D01*
X86204910Y-129706144D01*
X86159773Y-129710589D01*
X85421049Y-129710589D01*
X85375912Y-129706144D01*
X85338418Y-129694770D01*
X85303854Y-129676295D01*
X85273564Y-129651436D01*
X85248705Y-129621146D01*
X85230230Y-129586582D01*
X85218856Y-129549088D01*
X85214411Y-129503951D01*
X85214411Y-128865227D01*
X85218856Y-128820090D01*
X85230230Y-128782596D01*
X85248705Y-128748032D01*
X85273564Y-128717742D01*
X85303854Y-128692883D01*
X85338418Y-128674408D01*
X85375912Y-128663034D01*
X85421049Y-128658589D01*
X86159773Y-128658589D01*
X86204910Y-128663034D01*
X86204910Y-128663034D01*
G37*
G36*
X84454910Y-128663034D02*
X84492404Y-128674408D01*
X84526968Y-128692883D01*
X84557258Y-128717742D01*
X84582117Y-128748032D01*
X84600592Y-128782596D01*
X84611966Y-128820090D01*
X84616411Y-128865227D01*
X84616411Y-129503951D01*
X84611966Y-129549088D01*
X84600592Y-129586582D01*
X84582117Y-129621146D01*
X84557258Y-129651436D01*
X84526968Y-129676295D01*
X84492404Y-129694770D01*
X84454910Y-129706144D01*
X84409773Y-129710589D01*
X83671049Y-129710589D01*
X83625912Y-129706144D01*
X83588418Y-129694770D01*
X83553854Y-129676295D01*
X83523564Y-129651436D01*
X83498705Y-129621146D01*
X83480230Y-129586582D01*
X83468856Y-129549088D01*
X83464411Y-129503951D01*
X83464411Y-128865227D01*
X83468856Y-128820090D01*
X83480230Y-128782596D01*
X83498705Y-128748032D01*
X83523564Y-128717742D01*
X83553854Y-128692883D01*
X83588418Y-128674408D01*
X83625912Y-128663034D01*
X83671049Y-128658589D01*
X84409773Y-128658589D01*
X84454910Y-128663034D01*
X84454910Y-128663034D01*
G37*
G36*
X46295677Y-129160650D02*
X45393677Y-129160650D01*
X45393677Y-127758650D01*
X46295677Y-127758650D01*
X46295677Y-129160650D01*
X46295677Y-129160650D01*
G37*
G36*
X53915677Y-129160650D02*
X53013677Y-129160650D01*
X53013677Y-127758650D01*
X53915677Y-127758650D01*
X53915677Y-129160650D01*
X53915677Y-129160650D01*
G37*
G36*
X52635677Y-129160650D02*
X51733677Y-129160650D01*
X51733677Y-127758650D01*
X52635677Y-127758650D01*
X52635677Y-129160650D01*
X52635677Y-129160650D01*
G37*
G36*
X51375677Y-129160650D02*
X50473677Y-129160650D01*
X50473677Y-127758650D01*
X51375677Y-127758650D01*
X51375677Y-129160650D01*
X51375677Y-129160650D01*
G37*
G36*
X50105677Y-129160650D02*
X49203677Y-129160650D01*
X49203677Y-127758650D01*
X50105677Y-127758650D01*
X50105677Y-129160650D01*
X50105677Y-129160650D01*
G37*
G36*
X48825677Y-129160650D02*
X47923677Y-129160650D01*
X47923677Y-127758650D01*
X48825677Y-127758650D01*
X48825677Y-129160650D01*
X48825677Y-129160650D01*
G37*
G36*
X47555677Y-129160650D02*
X46653677Y-129160650D01*
X46653677Y-127758650D01*
X47555677Y-127758650D01*
X47555677Y-129160650D01*
X47555677Y-129160650D01*
G37*
G36*
X45015677Y-129160650D02*
X44113677Y-129160650D01*
X44113677Y-127758650D01*
X45015677Y-127758650D01*
X45015677Y-129160650D01*
X45015677Y-129160650D01*
G37*
G36*
X134689499Y-128078445D02*
X134726993Y-128089819D01*
X134761557Y-128108294D01*
X134791847Y-128133153D01*
X134816706Y-128163443D01*
X134835181Y-128198007D01*
X134846555Y-128235501D01*
X134851000Y-128280638D01*
X134851000Y-128919362D01*
X134846555Y-128964499D01*
X134835181Y-129001993D01*
X134816706Y-129036557D01*
X134791847Y-129066847D01*
X134761557Y-129091706D01*
X134726993Y-129110181D01*
X134689499Y-129121555D01*
X134644362Y-129126000D01*
X133905638Y-129126000D01*
X133860501Y-129121555D01*
X133823007Y-129110181D01*
X133788443Y-129091706D01*
X133758153Y-129066847D01*
X133733294Y-129036557D01*
X133714819Y-129001993D01*
X133703445Y-128964499D01*
X133699000Y-128919362D01*
X133699000Y-128280638D01*
X133703445Y-128235501D01*
X133714819Y-128198007D01*
X133733294Y-128163443D01*
X133758153Y-128133153D01*
X133788443Y-128108294D01*
X133823007Y-128089819D01*
X133860501Y-128078445D01*
X133905638Y-128074000D01*
X134644362Y-128074000D01*
X134689499Y-128078445D01*
X134689499Y-128078445D01*
G37*
G36*
X132939499Y-128078445D02*
X132976993Y-128089819D01*
X133011557Y-128108294D01*
X133041847Y-128133153D01*
X133066706Y-128163443D01*
X133085181Y-128198007D01*
X133096555Y-128235501D01*
X133101000Y-128280638D01*
X133101000Y-128919362D01*
X133096555Y-128964499D01*
X133085181Y-129001993D01*
X133066706Y-129036557D01*
X133041847Y-129066847D01*
X133011557Y-129091706D01*
X132976993Y-129110181D01*
X132939499Y-129121555D01*
X132894362Y-129126000D01*
X132155638Y-129126000D01*
X132110501Y-129121555D01*
X132073007Y-129110181D01*
X132038443Y-129091706D01*
X132008153Y-129066847D01*
X131983294Y-129036557D01*
X131964819Y-129001993D01*
X131953445Y-128964499D01*
X131949000Y-128919362D01*
X131949000Y-128280638D01*
X131953445Y-128235501D01*
X131964819Y-128198007D01*
X131983294Y-128163443D01*
X132008153Y-128133153D01*
X132038443Y-128108294D01*
X132073007Y-128089819D01*
X132110501Y-128078445D01*
X132155638Y-128074000D01*
X132894362Y-128074000D01*
X132939499Y-128078445D01*
X132939499Y-128078445D01*
G37*
G36*
X55964499Y-127603445D02*
X56001993Y-127614819D01*
X56036557Y-127633294D01*
X56066847Y-127658153D01*
X56091706Y-127688443D01*
X56110181Y-127723007D01*
X56121555Y-127760501D01*
X56126000Y-127805638D01*
X56126000Y-128544362D01*
X56121555Y-128589499D01*
X56110181Y-128626993D01*
X56091706Y-128661557D01*
X56066847Y-128691847D01*
X56036557Y-128716706D01*
X56001993Y-128735181D01*
X55964499Y-128746555D01*
X55919362Y-128751000D01*
X55280638Y-128751000D01*
X55235501Y-128746555D01*
X55198007Y-128735181D01*
X55163443Y-128716706D01*
X55133153Y-128691847D01*
X55108294Y-128661557D01*
X55089819Y-128626993D01*
X55078445Y-128589499D01*
X55074000Y-128544362D01*
X55074000Y-127805638D01*
X55078445Y-127760501D01*
X55089819Y-127723007D01*
X55108294Y-127688443D01*
X55133153Y-127658153D01*
X55163443Y-127633294D01*
X55198007Y-127614819D01*
X55235501Y-127603445D01*
X55280638Y-127599000D01*
X55919362Y-127599000D01*
X55964499Y-127603445D01*
X55964499Y-127603445D01*
G37*
G36*
X132939499Y-126578445D02*
X132976993Y-126589819D01*
X133011557Y-126608294D01*
X133041847Y-126633153D01*
X133066706Y-126663443D01*
X133085181Y-126698007D01*
X133096555Y-126735501D01*
X133101000Y-126780638D01*
X133101000Y-127419362D01*
X133096555Y-127464499D01*
X133085181Y-127501993D01*
X133066706Y-127536557D01*
X133041847Y-127566847D01*
X133011557Y-127591706D01*
X132976993Y-127610181D01*
X132939499Y-127621555D01*
X132894362Y-127626000D01*
X132155638Y-127626000D01*
X132110501Y-127621555D01*
X132073007Y-127610181D01*
X132038443Y-127591706D01*
X132008153Y-127566847D01*
X131983294Y-127536557D01*
X131964819Y-127501993D01*
X131953445Y-127464499D01*
X131949000Y-127419362D01*
X131949000Y-126780638D01*
X131953445Y-126735501D01*
X131964819Y-126698007D01*
X131983294Y-126663443D01*
X132008153Y-126633153D01*
X132038443Y-126608294D01*
X132073007Y-126589819D01*
X132110501Y-126578445D01*
X132155638Y-126574000D01*
X132894362Y-126574000D01*
X132939499Y-126578445D01*
X132939499Y-126578445D01*
G37*
G36*
X134689499Y-126578445D02*
X134726993Y-126589819D01*
X134761557Y-126608294D01*
X134791847Y-126633153D01*
X134816706Y-126663443D01*
X134835181Y-126698007D01*
X134846555Y-126735501D01*
X134851000Y-126780638D01*
X134851000Y-127419362D01*
X134846555Y-127464499D01*
X134835181Y-127501993D01*
X134816706Y-127536557D01*
X134791847Y-127566847D01*
X134761557Y-127591706D01*
X134726993Y-127610181D01*
X134689499Y-127621555D01*
X134644362Y-127626000D01*
X133905638Y-127626000D01*
X133860501Y-127621555D01*
X133823007Y-127610181D01*
X133788443Y-127591706D01*
X133758153Y-127566847D01*
X133733294Y-127536557D01*
X133714819Y-127501993D01*
X133703445Y-127464499D01*
X133699000Y-127419362D01*
X133699000Y-126780638D01*
X133703445Y-126735501D01*
X133714819Y-126698007D01*
X133733294Y-126663443D01*
X133758153Y-126633153D01*
X133788443Y-126608294D01*
X133823007Y-126589819D01*
X133860501Y-126578445D01*
X133905638Y-126574000D01*
X134644362Y-126574000D01*
X134689499Y-126578445D01*
X134689499Y-126578445D01*
G37*
G36*
X55964499Y-125853445D02*
X56001993Y-125864819D01*
X56036557Y-125883294D01*
X56066847Y-125908153D01*
X56091706Y-125938443D01*
X56110181Y-125973007D01*
X56121555Y-126010501D01*
X56126000Y-126055638D01*
X56126000Y-126794362D01*
X56121555Y-126839499D01*
X56110181Y-126876993D01*
X56091706Y-126911557D01*
X56066847Y-126941847D01*
X56036557Y-126966706D01*
X56001993Y-126985181D01*
X55964499Y-126996555D01*
X55919362Y-127001000D01*
X55280638Y-127001000D01*
X55235501Y-126996555D01*
X55198007Y-126985181D01*
X55163443Y-126966706D01*
X55133153Y-126941847D01*
X55108294Y-126911557D01*
X55089819Y-126876993D01*
X55078445Y-126839499D01*
X55074000Y-126794362D01*
X55074000Y-126055638D01*
X55078445Y-126010501D01*
X55089819Y-125973007D01*
X55108294Y-125938443D01*
X55133153Y-125908153D01*
X55163443Y-125883294D01*
X55198007Y-125864819D01*
X55235501Y-125853445D01*
X55280638Y-125849000D01*
X55919362Y-125849000D01*
X55964499Y-125853445D01*
X55964499Y-125853445D01*
G37*
G36*
X142144721Y-125670174D02*
X142244995Y-125711709D01*
X142335245Y-125772012D01*
X142411988Y-125848755D01*
X142472291Y-125939005D01*
X142513826Y-126039279D01*
X142535000Y-126145730D01*
X142535000Y-126254270D01*
X142513826Y-126360721D01*
X142472291Y-126460995D01*
X142411988Y-126551245D01*
X142335245Y-126627988D01*
X142244995Y-126688291D01*
X142144721Y-126729826D01*
X142038270Y-126751000D01*
X141929730Y-126751000D01*
X141823279Y-126729826D01*
X141723005Y-126688291D01*
X141632755Y-126627988D01*
X141556012Y-126551245D01*
X141495709Y-126460995D01*
X141454174Y-126360721D01*
X141433000Y-126254270D01*
X141433000Y-126145730D01*
X141454174Y-126039279D01*
X141495709Y-125939005D01*
X141556012Y-125848755D01*
X141632755Y-125772012D01*
X141723005Y-125711709D01*
X141823279Y-125670174D01*
X141929730Y-125649000D01*
X142038270Y-125649000D01*
X142144721Y-125670174D01*
X142144721Y-125670174D01*
G37*
G36*
X75460721Y-125670174D02*
X75560995Y-125711709D01*
X75651245Y-125772012D01*
X75727988Y-125848755D01*
X75788291Y-125939005D01*
X75829826Y-126039279D01*
X75851000Y-126145730D01*
X75851000Y-126254270D01*
X75829826Y-126360721D01*
X75788291Y-126460995D01*
X75727988Y-126551245D01*
X75651245Y-126627988D01*
X75560995Y-126688291D01*
X75460721Y-126729826D01*
X75354270Y-126751000D01*
X75245730Y-126751000D01*
X75139279Y-126729826D01*
X75039005Y-126688291D01*
X74948755Y-126627988D01*
X74872012Y-126551245D01*
X74811709Y-126460995D01*
X74770174Y-126360721D01*
X74749000Y-126254270D01*
X74749000Y-126145730D01*
X74770174Y-126039279D01*
X74811709Y-125939005D01*
X74872012Y-125848755D01*
X74948755Y-125772012D01*
X75039005Y-125711709D01*
X75139279Y-125670174D01*
X75245730Y-125649000D01*
X75354270Y-125649000D01*
X75460721Y-125670174D01*
X75460721Y-125670174D01*
G37*
G36*
X73444721Y-125670174D02*
X73544995Y-125711709D01*
X73635245Y-125772012D01*
X73711988Y-125848755D01*
X73772291Y-125939005D01*
X73813826Y-126039279D01*
X73835000Y-126145730D01*
X73835000Y-126254270D01*
X73813826Y-126360721D01*
X73772291Y-126460995D01*
X73711988Y-126551245D01*
X73635245Y-126627988D01*
X73544995Y-126688291D01*
X73444721Y-126729826D01*
X73338270Y-126751000D01*
X73229730Y-126751000D01*
X73123279Y-126729826D01*
X73023005Y-126688291D01*
X72932755Y-126627988D01*
X72856012Y-126551245D01*
X72795709Y-126460995D01*
X72754174Y-126360721D01*
X72733000Y-126254270D01*
X72733000Y-126145730D01*
X72754174Y-126039279D01*
X72795709Y-125939005D01*
X72856012Y-125848755D01*
X72932755Y-125772012D01*
X73023005Y-125711709D01*
X73123279Y-125670174D01*
X73229730Y-125649000D01*
X73338270Y-125649000D01*
X73444721Y-125670174D01*
X73444721Y-125670174D01*
G37*
G36*
X101160721Y-125670174D02*
X101260995Y-125711709D01*
X101351245Y-125772012D01*
X101427988Y-125848755D01*
X101488291Y-125939005D01*
X101529826Y-126039279D01*
X101551000Y-126145730D01*
X101551000Y-126254270D01*
X101529826Y-126360721D01*
X101488291Y-126460995D01*
X101427988Y-126551245D01*
X101351245Y-126627988D01*
X101260995Y-126688291D01*
X101160721Y-126729826D01*
X101054270Y-126751000D01*
X100945730Y-126751000D01*
X100839279Y-126729826D01*
X100739005Y-126688291D01*
X100648755Y-126627988D01*
X100572012Y-126551245D01*
X100511709Y-126460995D01*
X100470174Y-126360721D01*
X100449000Y-126254270D01*
X100449000Y-126145730D01*
X100470174Y-126039279D01*
X100511709Y-125939005D01*
X100572012Y-125848755D01*
X100648755Y-125772012D01*
X100739005Y-125711709D01*
X100839279Y-125670174D01*
X100945730Y-125649000D01*
X101054270Y-125649000D01*
X101160721Y-125670174D01*
X101160721Y-125670174D01*
G37*
G36*
X99144721Y-125670174D02*
X99244995Y-125711709D01*
X99335245Y-125772012D01*
X99411988Y-125848755D01*
X99472291Y-125939005D01*
X99513826Y-126039279D01*
X99535000Y-126145730D01*
X99535000Y-126254270D01*
X99513826Y-126360721D01*
X99472291Y-126460995D01*
X99411988Y-126551245D01*
X99335245Y-126627988D01*
X99244995Y-126688291D01*
X99144721Y-126729826D01*
X99038270Y-126751000D01*
X98929730Y-126751000D01*
X98823279Y-126729826D01*
X98723005Y-126688291D01*
X98632755Y-126627988D01*
X98556012Y-126551245D01*
X98495709Y-126460995D01*
X98454174Y-126360721D01*
X98433000Y-126254270D01*
X98433000Y-126145730D01*
X98454174Y-126039279D01*
X98495709Y-125939005D01*
X98556012Y-125848755D01*
X98632755Y-125772012D01*
X98723005Y-125711709D01*
X98823279Y-125670174D01*
X98929730Y-125649000D01*
X99038270Y-125649000D01*
X99144721Y-125670174D01*
X99144721Y-125670174D01*
G37*
G36*
X144160721Y-125670174D02*
X144260995Y-125711709D01*
X144351245Y-125772012D01*
X144427988Y-125848755D01*
X144488291Y-125939005D01*
X144529826Y-126039279D01*
X144551000Y-126145730D01*
X144551000Y-126254270D01*
X144529826Y-126360721D01*
X144488291Y-126460995D01*
X144427988Y-126551245D01*
X144351245Y-126627988D01*
X144260995Y-126688291D01*
X144160721Y-126729826D01*
X144054270Y-126751000D01*
X143945730Y-126751000D01*
X143839279Y-126729826D01*
X143739005Y-126688291D01*
X143648755Y-126627988D01*
X143572012Y-126551245D01*
X143511709Y-126460995D01*
X143470174Y-126360721D01*
X143449000Y-126254270D01*
X143449000Y-126145730D01*
X143470174Y-126039279D01*
X143511709Y-125939005D01*
X143572012Y-125848755D01*
X143648755Y-125772012D01*
X143739005Y-125711709D01*
X143839279Y-125670174D01*
X143945730Y-125649000D01*
X144054270Y-125649000D01*
X144160721Y-125670174D01*
X144160721Y-125670174D01*
G37*
G36*
X55964499Y-124103445D02*
X56001993Y-124114819D01*
X56036557Y-124133294D01*
X56066847Y-124158153D01*
X56091706Y-124188443D01*
X56110181Y-124223007D01*
X56121555Y-124260501D01*
X56126000Y-124305638D01*
X56126000Y-125044362D01*
X56121555Y-125089499D01*
X56110181Y-125126993D01*
X56091706Y-125161557D01*
X56066847Y-125191847D01*
X56036557Y-125216706D01*
X56001993Y-125235181D01*
X55964499Y-125246555D01*
X55919362Y-125251000D01*
X55280638Y-125251000D01*
X55235501Y-125246555D01*
X55198007Y-125235181D01*
X55163443Y-125216706D01*
X55133153Y-125191847D01*
X55108294Y-125161557D01*
X55089819Y-125126993D01*
X55078445Y-125089499D01*
X55074000Y-125044362D01*
X55074000Y-124305638D01*
X55078445Y-124260501D01*
X55089819Y-124223007D01*
X55108294Y-124188443D01*
X55133153Y-124158153D01*
X55163443Y-124133294D01*
X55198007Y-124114819D01*
X55235501Y-124103445D01*
X55280638Y-124099000D01*
X55919362Y-124099000D01*
X55964499Y-124103445D01*
X55964499Y-124103445D01*
G37*
G36*
X55964499Y-122353445D02*
X56001993Y-122364819D01*
X56036557Y-122383294D01*
X56066847Y-122408153D01*
X56091706Y-122438443D01*
X56110181Y-122473007D01*
X56121555Y-122510501D01*
X56126000Y-122555638D01*
X56126000Y-123294362D01*
X56121555Y-123339499D01*
X56110181Y-123376993D01*
X56091706Y-123411557D01*
X56066847Y-123441847D01*
X56036557Y-123466706D01*
X56001993Y-123485181D01*
X55964499Y-123496555D01*
X55919362Y-123501000D01*
X55280638Y-123501000D01*
X55235501Y-123496555D01*
X55198007Y-123485181D01*
X55163443Y-123466706D01*
X55133153Y-123441847D01*
X55108294Y-123411557D01*
X55089819Y-123376993D01*
X55078445Y-123339499D01*
X55074000Y-123294362D01*
X55074000Y-122555638D01*
X55078445Y-122510501D01*
X55089819Y-122473007D01*
X55108294Y-122438443D01*
X55133153Y-122408153D01*
X55163443Y-122383294D01*
X55198007Y-122364819D01*
X55235501Y-122353445D01*
X55280638Y-122349000D01*
X55919362Y-122349000D01*
X55964499Y-122353445D01*
X55964499Y-122353445D01*
G37*
G36*
X130246821Y-120761313D02*
X130246824Y-120761314D01*
X130246825Y-120761314D01*
X130407239Y-120809975D01*
X130407241Y-120809976D01*
X130407244Y-120809977D01*
X130555078Y-120888995D01*
X130684659Y-120995341D01*
X130791005Y-121124922D01*
X130870023Y-121272756D01*
X130870024Y-121272759D01*
X130870025Y-121272761D01*
X130918686Y-121433175D01*
X130918686Y-121433178D01*
X130918687Y-121433180D01*
X130931000Y-121558197D01*
X130931000Y-122441804D01*
X130918687Y-122566821D01*
X130918686Y-122566824D01*
X130918686Y-122566825D01*
X130879670Y-122695445D01*
X130870023Y-122727244D01*
X130791005Y-122875078D01*
X130684659Y-123004659D01*
X130555078Y-123111005D01*
X130407243Y-123190023D01*
X130407240Y-123190024D01*
X130407238Y-123190025D01*
X130246824Y-123238686D01*
X130246823Y-123238686D01*
X130246820Y-123238687D01*
X130080000Y-123255117D01*
X129913179Y-123238687D01*
X129913176Y-123238686D01*
X129913175Y-123238686D01*
X129752761Y-123190025D01*
X129752759Y-123190024D01*
X129752756Y-123190023D01*
X129604922Y-123111005D01*
X129475341Y-123004659D01*
X129368995Y-122875078D01*
X129289977Y-122727243D01*
X129241315Y-122566825D01*
X129241314Y-122566824D01*
X129241314Y-122566823D01*
X129241313Y-122566820D01*
X129229000Y-122441803D01*
X129229000Y-121558197D01*
X129241314Y-121433179D01*
X129250149Y-121404053D01*
X129289976Y-121272761D01*
X129289977Y-121272759D01*
X129289978Y-121272756D01*
X129368996Y-121124922D01*
X129475342Y-120995341D01*
X129604923Y-120888995D01*
X129752757Y-120809977D01*
X129752760Y-120809976D01*
X129752762Y-120809975D01*
X129913176Y-120761314D01*
X129913177Y-120761314D01*
X129913180Y-120761313D01*
X130080000Y-120744883D01*
X130246821Y-120761313D01*
X130246821Y-120761313D01*
G37*
G36*
X115006821Y-120761313D02*
X115006824Y-120761314D01*
X115006825Y-120761314D01*
X115167239Y-120809975D01*
X115167241Y-120809976D01*
X115167244Y-120809977D01*
X115315078Y-120888995D01*
X115444659Y-120995341D01*
X115551005Y-121124922D01*
X115630023Y-121272756D01*
X115630024Y-121272759D01*
X115630025Y-121272761D01*
X115678686Y-121433175D01*
X115678686Y-121433178D01*
X115678687Y-121433180D01*
X115691000Y-121558197D01*
X115691000Y-122441804D01*
X115678687Y-122566821D01*
X115678686Y-122566824D01*
X115678686Y-122566825D01*
X115639670Y-122695445D01*
X115630023Y-122727244D01*
X115551005Y-122875078D01*
X115444659Y-123004659D01*
X115315078Y-123111005D01*
X115167243Y-123190023D01*
X115167240Y-123190024D01*
X115167238Y-123190025D01*
X115006824Y-123238686D01*
X115006823Y-123238686D01*
X115006820Y-123238687D01*
X114840000Y-123255117D01*
X114673179Y-123238687D01*
X114673176Y-123238686D01*
X114673175Y-123238686D01*
X114512761Y-123190025D01*
X114512759Y-123190024D01*
X114512756Y-123190023D01*
X114364922Y-123111005D01*
X114235341Y-123004659D01*
X114128995Y-122875078D01*
X114049977Y-122727243D01*
X114001315Y-122566825D01*
X114001314Y-122566824D01*
X114001314Y-122566823D01*
X114001313Y-122566820D01*
X113989000Y-122441803D01*
X113989000Y-121558197D01*
X114001314Y-121433179D01*
X114010149Y-121404053D01*
X114049976Y-121272761D01*
X114049977Y-121272759D01*
X114049978Y-121272756D01*
X114128996Y-121124922D01*
X114235342Y-120995341D01*
X114364923Y-120888995D01*
X114512757Y-120809977D01*
X114512760Y-120809976D01*
X114512762Y-120809975D01*
X114673176Y-120761314D01*
X114673177Y-120761314D01*
X114673180Y-120761313D01*
X114840000Y-120744883D01*
X115006821Y-120761313D01*
X115006821Y-120761313D01*
G37*
G36*
X120086821Y-120761313D02*
X120086824Y-120761314D01*
X120086825Y-120761314D01*
X120247239Y-120809975D01*
X120247241Y-120809976D01*
X120247244Y-120809977D01*
X120395078Y-120888995D01*
X120524659Y-120995341D01*
X120631005Y-121124922D01*
X120710023Y-121272756D01*
X120710024Y-121272759D01*
X120710025Y-121272761D01*
X120758686Y-121433175D01*
X120758686Y-121433178D01*
X120758687Y-121433180D01*
X120771000Y-121558197D01*
X120771000Y-122441804D01*
X120758687Y-122566821D01*
X120758686Y-122566824D01*
X120758686Y-122566825D01*
X120719670Y-122695445D01*
X120710023Y-122727244D01*
X120631005Y-122875078D01*
X120524659Y-123004659D01*
X120395078Y-123111005D01*
X120247243Y-123190023D01*
X120247240Y-123190024D01*
X120247238Y-123190025D01*
X120086824Y-123238686D01*
X120086823Y-123238686D01*
X120086820Y-123238687D01*
X119920000Y-123255117D01*
X119753179Y-123238687D01*
X119753176Y-123238686D01*
X119753175Y-123238686D01*
X119592761Y-123190025D01*
X119592759Y-123190024D01*
X119592756Y-123190023D01*
X119444922Y-123111005D01*
X119315341Y-123004659D01*
X119208995Y-122875078D01*
X119129977Y-122727243D01*
X119081315Y-122566825D01*
X119081314Y-122566824D01*
X119081314Y-122566823D01*
X119081313Y-122566820D01*
X119069000Y-122441803D01*
X119069000Y-121558197D01*
X119081314Y-121433179D01*
X119090149Y-121404053D01*
X119129976Y-121272761D01*
X119129977Y-121272759D01*
X119129978Y-121272756D01*
X119208996Y-121124922D01*
X119315342Y-120995341D01*
X119444923Y-120888995D01*
X119592757Y-120809977D01*
X119592760Y-120809976D01*
X119592762Y-120809975D01*
X119753176Y-120761314D01*
X119753177Y-120761314D01*
X119753180Y-120761313D01*
X119920000Y-120744883D01*
X120086821Y-120761313D01*
X120086821Y-120761313D01*
G37*
G36*
X122626821Y-120761313D02*
X122626824Y-120761314D01*
X122626825Y-120761314D01*
X122787239Y-120809975D01*
X122787241Y-120809976D01*
X122787244Y-120809977D01*
X122935078Y-120888995D01*
X123064659Y-120995341D01*
X123171005Y-121124922D01*
X123250023Y-121272756D01*
X123250024Y-121272759D01*
X123250025Y-121272761D01*
X123298686Y-121433175D01*
X123298686Y-121433178D01*
X123298687Y-121433180D01*
X123311000Y-121558197D01*
X123311000Y-122441804D01*
X123298687Y-122566821D01*
X123298686Y-122566824D01*
X123298686Y-122566825D01*
X123259670Y-122695445D01*
X123250023Y-122727244D01*
X123171005Y-122875078D01*
X123064659Y-123004659D01*
X122935078Y-123111005D01*
X122787243Y-123190023D01*
X122787240Y-123190024D01*
X122787238Y-123190025D01*
X122626824Y-123238686D01*
X122626823Y-123238686D01*
X122626820Y-123238687D01*
X122460000Y-123255117D01*
X122293179Y-123238687D01*
X122293176Y-123238686D01*
X122293175Y-123238686D01*
X122132761Y-123190025D01*
X122132759Y-123190024D01*
X122132756Y-123190023D01*
X121984922Y-123111005D01*
X121855341Y-123004659D01*
X121748995Y-122875078D01*
X121669977Y-122727243D01*
X121621315Y-122566825D01*
X121621314Y-122566824D01*
X121621314Y-122566823D01*
X121621313Y-122566820D01*
X121609000Y-122441803D01*
X121609000Y-121558197D01*
X121621314Y-121433179D01*
X121630149Y-121404053D01*
X121669976Y-121272761D01*
X121669977Y-121272759D01*
X121669978Y-121272756D01*
X121748996Y-121124922D01*
X121855342Y-120995341D01*
X121984923Y-120888995D01*
X122132757Y-120809977D01*
X122132760Y-120809976D01*
X122132762Y-120809975D01*
X122293176Y-120761314D01*
X122293177Y-120761314D01*
X122293180Y-120761313D01*
X122460000Y-120744883D01*
X122626821Y-120761313D01*
X122626821Y-120761313D01*
G37*
G36*
X125166821Y-120761313D02*
X125166824Y-120761314D01*
X125166825Y-120761314D01*
X125327239Y-120809975D01*
X125327241Y-120809976D01*
X125327244Y-120809977D01*
X125475078Y-120888995D01*
X125604659Y-120995341D01*
X125711005Y-121124922D01*
X125790023Y-121272756D01*
X125790024Y-121272759D01*
X125790025Y-121272761D01*
X125838686Y-121433175D01*
X125838686Y-121433178D01*
X125838687Y-121433180D01*
X125851000Y-121558197D01*
X125851000Y-122441804D01*
X125838687Y-122566821D01*
X125838686Y-122566824D01*
X125838686Y-122566825D01*
X125799670Y-122695445D01*
X125790023Y-122727244D01*
X125711005Y-122875078D01*
X125604659Y-123004659D01*
X125475078Y-123111005D01*
X125327243Y-123190023D01*
X125327240Y-123190024D01*
X125327238Y-123190025D01*
X125166824Y-123238686D01*
X125166823Y-123238686D01*
X125166820Y-123238687D01*
X125000000Y-123255117D01*
X124833179Y-123238687D01*
X124833176Y-123238686D01*
X124833175Y-123238686D01*
X124672761Y-123190025D01*
X124672759Y-123190024D01*
X124672756Y-123190023D01*
X124524922Y-123111005D01*
X124395341Y-123004659D01*
X124288995Y-122875078D01*
X124209977Y-122727243D01*
X124161315Y-122566825D01*
X124161314Y-122566824D01*
X124161314Y-122566823D01*
X124161313Y-122566820D01*
X124149000Y-122441803D01*
X124149000Y-121558197D01*
X124161314Y-121433179D01*
X124170149Y-121404053D01*
X124209976Y-121272761D01*
X124209977Y-121272759D01*
X124209978Y-121272756D01*
X124288996Y-121124922D01*
X124395342Y-120995341D01*
X124524923Y-120888995D01*
X124672757Y-120809977D01*
X124672760Y-120809976D01*
X124672762Y-120809975D01*
X124833176Y-120761314D01*
X124833177Y-120761314D01*
X124833180Y-120761313D01*
X125000000Y-120744883D01*
X125166821Y-120761313D01*
X125166821Y-120761313D01*
G37*
G36*
X117546821Y-120761313D02*
X117546824Y-120761314D01*
X117546825Y-120761314D01*
X117707239Y-120809975D01*
X117707241Y-120809976D01*
X117707244Y-120809977D01*
X117855078Y-120888995D01*
X117984659Y-120995341D01*
X118091005Y-121124922D01*
X118170023Y-121272756D01*
X118170024Y-121272759D01*
X118170025Y-121272761D01*
X118218686Y-121433175D01*
X118218686Y-121433178D01*
X118218687Y-121433180D01*
X118231000Y-121558197D01*
X118231000Y-122441804D01*
X118218687Y-122566821D01*
X118218686Y-122566824D01*
X118218686Y-122566825D01*
X118179670Y-122695445D01*
X118170023Y-122727244D01*
X118091005Y-122875078D01*
X117984659Y-123004659D01*
X117855078Y-123111005D01*
X117707243Y-123190023D01*
X117707240Y-123190024D01*
X117707238Y-123190025D01*
X117546824Y-123238686D01*
X117546823Y-123238686D01*
X117546820Y-123238687D01*
X117380000Y-123255117D01*
X117213179Y-123238687D01*
X117213176Y-123238686D01*
X117213175Y-123238686D01*
X117052761Y-123190025D01*
X117052759Y-123190024D01*
X117052756Y-123190023D01*
X116904922Y-123111005D01*
X116775341Y-123004659D01*
X116668995Y-122875078D01*
X116589977Y-122727243D01*
X116541315Y-122566825D01*
X116541314Y-122566824D01*
X116541314Y-122566823D01*
X116541313Y-122566820D01*
X116529000Y-122441803D01*
X116529000Y-121558197D01*
X116541314Y-121433179D01*
X116550149Y-121404053D01*
X116589976Y-121272761D01*
X116589977Y-121272759D01*
X116589978Y-121272756D01*
X116668996Y-121124922D01*
X116775342Y-120995341D01*
X116904923Y-120888995D01*
X117052757Y-120809977D01*
X117052760Y-120809976D01*
X117052762Y-120809975D01*
X117213176Y-120761314D01*
X117213177Y-120761314D01*
X117213180Y-120761313D01*
X117380000Y-120744883D01*
X117546821Y-120761313D01*
X117546821Y-120761313D01*
G37*
G36*
X127706821Y-120761313D02*
X127706824Y-120761314D01*
X127706825Y-120761314D01*
X127867239Y-120809975D01*
X127867241Y-120809976D01*
X127867244Y-120809977D01*
X128015078Y-120888995D01*
X128144659Y-120995341D01*
X128251005Y-121124922D01*
X128330023Y-121272756D01*
X128330024Y-121272759D01*
X128330025Y-121272761D01*
X128378686Y-121433175D01*
X128378686Y-121433178D01*
X128378687Y-121433180D01*
X128391000Y-121558197D01*
X128391000Y-122441804D01*
X128378687Y-122566821D01*
X128378686Y-122566824D01*
X128378686Y-122566825D01*
X128339670Y-122695445D01*
X128330023Y-122727244D01*
X128251005Y-122875078D01*
X128144659Y-123004659D01*
X128015078Y-123111005D01*
X127867243Y-123190023D01*
X127867240Y-123190024D01*
X127867238Y-123190025D01*
X127706824Y-123238686D01*
X127706823Y-123238686D01*
X127706820Y-123238687D01*
X127540000Y-123255117D01*
X127373179Y-123238687D01*
X127373176Y-123238686D01*
X127373175Y-123238686D01*
X127212761Y-123190025D01*
X127212759Y-123190024D01*
X127212756Y-123190023D01*
X127064922Y-123111005D01*
X126935341Y-123004659D01*
X126828995Y-122875078D01*
X126749977Y-122727243D01*
X126701315Y-122566825D01*
X126701314Y-122566824D01*
X126701314Y-122566823D01*
X126701313Y-122566820D01*
X126689000Y-122441803D01*
X126689000Y-121558197D01*
X126701314Y-121433179D01*
X126710149Y-121404053D01*
X126749976Y-121272761D01*
X126749977Y-121272759D01*
X126749978Y-121272756D01*
X126828996Y-121124922D01*
X126935342Y-120995341D01*
X127064923Y-120888995D01*
X127212757Y-120809977D01*
X127212760Y-120809976D01*
X127212762Y-120809975D01*
X127373176Y-120761314D01*
X127373177Y-120761314D01*
X127373180Y-120761313D01*
X127540000Y-120744883D01*
X127706821Y-120761313D01*
X127706821Y-120761313D01*
G37*
G36*
X113151000Y-123251000D02*
X111449000Y-123251000D01*
X111449000Y-120749000D01*
X113151000Y-120749000D01*
X113151000Y-123251000D01*
X113151000Y-123251000D01*
G37*
G36*
X136389499Y-121854528D02*
X136426993Y-121865902D01*
X136461557Y-121884377D01*
X136491847Y-121909236D01*
X136516706Y-121939526D01*
X136535181Y-121974090D01*
X136546555Y-122011584D01*
X136551000Y-122056721D01*
X136551000Y-122695445D01*
X136546555Y-122740582D01*
X136535181Y-122778076D01*
X136516706Y-122812640D01*
X136491847Y-122842930D01*
X136461557Y-122867789D01*
X136426993Y-122886264D01*
X136389499Y-122897638D01*
X136344362Y-122902083D01*
X135605638Y-122902083D01*
X135560501Y-122897638D01*
X135523007Y-122886264D01*
X135488443Y-122867789D01*
X135458153Y-122842930D01*
X135433294Y-122812640D01*
X135414819Y-122778076D01*
X135403445Y-122740582D01*
X135399000Y-122695445D01*
X135399000Y-122056721D01*
X135403445Y-122011584D01*
X135414819Y-121974090D01*
X135433294Y-121939526D01*
X135458153Y-121909236D01*
X135488443Y-121884377D01*
X135523007Y-121865902D01*
X135560501Y-121854528D01*
X135605638Y-121850083D01*
X136344362Y-121850083D01*
X136389499Y-121854528D01*
X136389499Y-121854528D01*
G37*
G36*
X134639499Y-121854528D02*
X134676993Y-121865902D01*
X134711557Y-121884377D01*
X134741847Y-121909236D01*
X134766706Y-121939526D01*
X134785181Y-121974090D01*
X134796555Y-122011584D01*
X134801000Y-122056721D01*
X134801000Y-122695445D01*
X134796555Y-122740582D01*
X134785181Y-122778076D01*
X134766706Y-122812640D01*
X134741847Y-122842930D01*
X134711557Y-122867789D01*
X134676993Y-122886264D01*
X134639499Y-122897638D01*
X134594362Y-122902083D01*
X133855638Y-122902083D01*
X133810501Y-122897638D01*
X133773007Y-122886264D01*
X133738443Y-122867789D01*
X133708153Y-122842930D01*
X133683294Y-122812640D01*
X133664819Y-122778076D01*
X133653445Y-122740582D01*
X133649000Y-122695445D01*
X133649000Y-122056721D01*
X133653445Y-122011584D01*
X133664819Y-121974090D01*
X133683294Y-121939526D01*
X133708153Y-121909236D01*
X133738443Y-121884377D01*
X133773007Y-121865902D01*
X133810501Y-121854528D01*
X133855638Y-121850083D01*
X134594362Y-121850083D01*
X134639499Y-121854528D01*
X134639499Y-121854528D01*
G37*
G36*
X53915677Y-122860650D02*
X53013677Y-122860650D01*
X53013677Y-121458650D01*
X53915677Y-121458650D01*
X53915677Y-122860650D01*
X53915677Y-122860650D01*
G37*
G36*
X45015677Y-122860650D02*
X44113677Y-122860650D01*
X44113677Y-121458650D01*
X45015677Y-121458650D01*
X45015677Y-122860650D01*
X45015677Y-122860650D01*
G37*
G36*
X46295677Y-122860650D02*
X45393677Y-122860650D01*
X45393677Y-121458650D01*
X46295677Y-121458650D01*
X46295677Y-122860650D01*
X46295677Y-122860650D01*
G37*
G36*
X47555677Y-122860650D02*
X46653677Y-122860650D01*
X46653677Y-121458650D01*
X47555677Y-121458650D01*
X47555677Y-122860650D01*
X47555677Y-122860650D01*
G37*
G36*
X51375677Y-122860650D02*
X50473677Y-122860650D01*
X50473677Y-121458650D01*
X51375677Y-121458650D01*
X51375677Y-122860650D01*
X51375677Y-122860650D01*
G37*
G36*
X52635677Y-122860650D02*
X51733677Y-122860650D01*
X51733677Y-121458650D01*
X52635677Y-121458650D01*
X52635677Y-122860650D01*
X52635677Y-122860650D01*
G37*
G36*
X48825677Y-122860650D02*
X47923677Y-122860650D01*
X47923677Y-121458650D01*
X48825677Y-121458650D01*
X48825677Y-122860650D01*
X48825677Y-122860650D01*
G37*
G36*
X50105677Y-122860650D02*
X49203677Y-122860650D01*
X49203677Y-121458650D01*
X50105677Y-121458650D01*
X50105677Y-122860650D01*
X50105677Y-122860650D01*
G37*
G36*
X60695514Y-122618137D02*
X60043514Y-122618137D01*
X60043514Y-120766137D01*
X60695514Y-120766137D01*
X60695514Y-122618137D01*
X60695514Y-122618137D01*
G37*
G36*
X61965514Y-122618137D02*
X61313514Y-122618137D01*
X61313514Y-120766137D01*
X61965514Y-120766137D01*
X61965514Y-122618137D01*
X61965514Y-122618137D01*
G37*
G36*
X59425514Y-122618137D02*
X58773514Y-122618137D01*
X58773514Y-120766137D01*
X59425514Y-120766137D01*
X59425514Y-122618137D01*
X59425514Y-122618137D01*
G37*
G36*
X58155514Y-122618137D02*
X57503514Y-122618137D01*
X57503514Y-120766137D01*
X58155514Y-120766137D01*
X58155514Y-122618137D01*
X58155514Y-122618137D01*
G37*
G36*
X64464499Y-121403445D02*
X64501993Y-121414819D01*
X64536557Y-121433294D01*
X64566847Y-121458153D01*
X64591706Y-121488443D01*
X64610181Y-121523007D01*
X64621555Y-121560501D01*
X64626000Y-121605638D01*
X64626000Y-122344362D01*
X64621555Y-122389499D01*
X64610181Y-122426993D01*
X64591706Y-122461557D01*
X64566847Y-122491847D01*
X64536557Y-122516706D01*
X64501993Y-122535181D01*
X64464499Y-122546555D01*
X64419362Y-122551000D01*
X63780638Y-122551000D01*
X63735501Y-122546555D01*
X63698007Y-122535181D01*
X63663443Y-122516706D01*
X63633153Y-122491847D01*
X63608294Y-122461557D01*
X63589819Y-122426993D01*
X63578445Y-122389499D01*
X63574000Y-122344362D01*
X63574000Y-121605638D01*
X63578445Y-121560501D01*
X63589819Y-121523007D01*
X63608294Y-121488443D01*
X63633153Y-121458153D01*
X63663443Y-121433294D01*
X63698007Y-121414819D01*
X63735501Y-121403445D01*
X63780638Y-121399000D01*
X64419362Y-121399000D01*
X64464499Y-121403445D01*
X64464499Y-121403445D01*
G37*
G36*
X136389499Y-120254528D02*
X136426993Y-120265902D01*
X136461557Y-120284377D01*
X136491847Y-120309236D01*
X136516706Y-120339526D01*
X136535181Y-120374090D01*
X136546555Y-120411584D01*
X136551000Y-120456721D01*
X136551000Y-121095445D01*
X136546555Y-121140582D01*
X136535181Y-121178076D01*
X136516706Y-121212640D01*
X136491847Y-121242930D01*
X136461557Y-121267789D01*
X136426993Y-121286264D01*
X136389499Y-121297638D01*
X136344362Y-121302083D01*
X135605638Y-121302083D01*
X135560501Y-121297638D01*
X135523007Y-121286264D01*
X135488443Y-121267789D01*
X135458153Y-121242930D01*
X135433294Y-121212640D01*
X135414819Y-121178076D01*
X135403445Y-121140582D01*
X135399000Y-121095445D01*
X135399000Y-120456721D01*
X135403445Y-120411584D01*
X135414819Y-120374090D01*
X135433294Y-120339526D01*
X135458153Y-120309236D01*
X135488443Y-120284377D01*
X135523007Y-120265902D01*
X135560501Y-120254528D01*
X135605638Y-120250083D01*
X136344362Y-120250083D01*
X136389499Y-120254528D01*
X136389499Y-120254528D01*
G37*
G36*
X134639499Y-120254528D02*
X134676993Y-120265902D01*
X134711557Y-120284377D01*
X134741847Y-120309236D01*
X134766706Y-120339526D01*
X134785181Y-120374090D01*
X134796555Y-120411584D01*
X134801000Y-120456721D01*
X134801000Y-121095445D01*
X134796555Y-121140582D01*
X134785181Y-121178076D01*
X134766706Y-121212640D01*
X134741847Y-121242930D01*
X134711557Y-121267789D01*
X134676993Y-121286264D01*
X134639499Y-121297638D01*
X134594362Y-121302083D01*
X133855638Y-121302083D01*
X133810501Y-121297638D01*
X133773007Y-121286264D01*
X133738443Y-121267789D01*
X133708153Y-121242930D01*
X133683294Y-121212640D01*
X133664819Y-121178076D01*
X133653445Y-121140582D01*
X133649000Y-121095445D01*
X133649000Y-120456721D01*
X133653445Y-120411584D01*
X133664819Y-120374090D01*
X133683294Y-120339526D01*
X133708153Y-120309236D01*
X133738443Y-120284377D01*
X133773007Y-120265902D01*
X133810501Y-120254528D01*
X133855638Y-120250083D01*
X134594362Y-120250083D01*
X134639499Y-120254528D01*
X134639499Y-120254528D01*
G37*
G36*
X48664499Y-119903445D02*
X48701993Y-119914819D01*
X48736557Y-119933294D01*
X48766847Y-119958153D01*
X48791706Y-119988443D01*
X48810181Y-120023007D01*
X48821555Y-120060501D01*
X48825602Y-120101597D01*
X48830382Y-120125631D01*
X48839759Y-120148270D01*
X48853373Y-120168645D01*
X48870700Y-120185972D01*
X48891075Y-120199586D01*
X48913714Y-120208963D01*
X48937747Y-120213744D01*
X48962251Y-120213744D01*
X48986285Y-120208964D01*
X49008924Y-120199587D01*
X49029299Y-120185973D01*
X49046626Y-120168646D01*
X49060240Y-120148271D01*
X49069617Y-120125632D01*
X49074398Y-120101597D01*
X49078445Y-120060501D01*
X49089819Y-120023007D01*
X49108294Y-119988443D01*
X49133153Y-119958153D01*
X49163443Y-119933294D01*
X49198007Y-119914819D01*
X49235501Y-119903445D01*
X49280638Y-119899000D01*
X49919362Y-119899000D01*
X49964499Y-119903445D01*
X50001993Y-119914819D01*
X50036557Y-119933294D01*
X50066847Y-119958153D01*
X50091706Y-119988443D01*
X50110181Y-120023007D01*
X50121555Y-120060501D01*
X50125602Y-120101597D01*
X50130382Y-120125631D01*
X50139759Y-120148270D01*
X50153373Y-120168645D01*
X50170700Y-120185972D01*
X50191075Y-120199586D01*
X50213714Y-120208963D01*
X50237747Y-120213744D01*
X50262251Y-120213744D01*
X50286285Y-120208964D01*
X50308924Y-120199587D01*
X50329299Y-120185973D01*
X50346626Y-120168646D01*
X50360240Y-120148271D01*
X50369617Y-120125632D01*
X50374398Y-120101597D01*
X50378445Y-120060501D01*
X50389819Y-120023007D01*
X50408294Y-119988443D01*
X50433153Y-119958153D01*
X50463443Y-119933294D01*
X50498007Y-119914819D01*
X50535501Y-119903445D01*
X50580638Y-119899000D01*
X51219362Y-119899000D01*
X51264499Y-119903445D01*
X51301993Y-119914819D01*
X51336557Y-119933294D01*
X51366847Y-119958153D01*
X51391706Y-119988443D01*
X51410181Y-120023007D01*
X51421555Y-120060501D01*
X51425602Y-120101597D01*
X51430382Y-120125631D01*
X51439759Y-120148270D01*
X51453373Y-120168645D01*
X51470700Y-120185972D01*
X51491075Y-120199586D01*
X51513714Y-120208963D01*
X51537747Y-120213744D01*
X51562251Y-120213744D01*
X51586285Y-120208964D01*
X51608924Y-120199587D01*
X51629299Y-120185973D01*
X51646626Y-120168646D01*
X51660240Y-120148271D01*
X51669617Y-120125632D01*
X51674398Y-120101597D01*
X51678445Y-120060501D01*
X51689819Y-120023007D01*
X51708294Y-119988443D01*
X51733153Y-119958153D01*
X51763443Y-119933294D01*
X51798007Y-119914819D01*
X51835501Y-119903445D01*
X51880638Y-119899000D01*
X52519362Y-119899000D01*
X52564499Y-119903445D01*
X52601993Y-119914819D01*
X52636557Y-119933294D01*
X52666847Y-119958153D01*
X52691706Y-119988443D01*
X52710181Y-120023007D01*
X52721555Y-120060501D01*
X52725602Y-120101597D01*
X52730382Y-120125631D01*
X52739759Y-120148270D01*
X52753373Y-120168645D01*
X52770700Y-120185972D01*
X52791075Y-120199586D01*
X52813714Y-120208963D01*
X52837747Y-120213744D01*
X52862251Y-120213744D01*
X52886285Y-120208964D01*
X52908924Y-120199587D01*
X52929299Y-120185973D01*
X52946626Y-120168646D01*
X52960240Y-120148271D01*
X52969617Y-120125632D01*
X52974398Y-120101597D01*
X52978445Y-120060501D01*
X52989819Y-120023007D01*
X53008294Y-119988443D01*
X53033153Y-119958153D01*
X53063443Y-119933294D01*
X53098007Y-119914819D01*
X53135501Y-119903445D01*
X53180638Y-119899000D01*
X53819362Y-119899000D01*
X53864499Y-119903445D01*
X53901993Y-119914819D01*
X53936557Y-119933294D01*
X53966847Y-119958153D01*
X53991706Y-119988443D01*
X54010181Y-120023007D01*
X54021555Y-120060501D01*
X54026000Y-120105638D01*
X54026000Y-120844362D01*
X54021555Y-120889499D01*
X54010181Y-120926993D01*
X53991706Y-120961557D01*
X53966847Y-120991847D01*
X53936557Y-121016706D01*
X53901993Y-121035181D01*
X53864499Y-121046555D01*
X53819362Y-121051000D01*
X53180638Y-121051000D01*
X53135501Y-121046555D01*
X53098007Y-121035181D01*
X53063443Y-121016706D01*
X53033153Y-120991847D01*
X53008294Y-120961557D01*
X52989819Y-120926993D01*
X52978445Y-120889499D01*
X52974398Y-120848403D01*
X52969618Y-120824369D01*
X52960241Y-120801730D01*
X52946627Y-120781355D01*
X52929300Y-120764028D01*
X52908925Y-120750414D01*
X52886286Y-120741037D01*
X52862253Y-120736256D01*
X52837749Y-120736256D01*
X52813715Y-120741036D01*
X52791076Y-120750413D01*
X52770701Y-120764027D01*
X52753374Y-120781354D01*
X52739760Y-120801729D01*
X52730383Y-120824368D01*
X52725602Y-120848403D01*
X52721555Y-120889499D01*
X52710181Y-120926993D01*
X52691706Y-120961557D01*
X52666847Y-120991847D01*
X52636557Y-121016706D01*
X52601993Y-121035181D01*
X52564499Y-121046555D01*
X52519362Y-121051000D01*
X51880638Y-121051000D01*
X51835501Y-121046555D01*
X51798007Y-121035181D01*
X51763443Y-121016706D01*
X51733153Y-120991847D01*
X51708294Y-120961557D01*
X51689819Y-120926993D01*
X51678445Y-120889499D01*
X51674398Y-120848403D01*
X51669618Y-120824369D01*
X51660241Y-120801730D01*
X51646627Y-120781355D01*
X51629300Y-120764028D01*
X51608925Y-120750414D01*
X51586286Y-120741037D01*
X51562253Y-120736256D01*
X51537749Y-120736256D01*
X51513715Y-120741036D01*
X51491076Y-120750413D01*
X51470701Y-120764027D01*
X51453374Y-120781354D01*
X51439760Y-120801729D01*
X51430383Y-120824368D01*
X51425602Y-120848403D01*
X51421555Y-120889499D01*
X51410181Y-120926993D01*
X51391706Y-120961557D01*
X51366847Y-120991847D01*
X51336557Y-121016706D01*
X51301993Y-121035181D01*
X51264499Y-121046555D01*
X51219362Y-121051000D01*
X50580638Y-121051000D01*
X50535501Y-121046555D01*
X50498007Y-121035181D01*
X50463443Y-121016706D01*
X50433153Y-120991847D01*
X50408294Y-120961557D01*
X50389819Y-120926993D01*
X50378445Y-120889499D01*
X50374398Y-120848403D01*
X50369618Y-120824369D01*
X50360241Y-120801730D01*
X50346627Y-120781355D01*
X50329300Y-120764028D01*
X50308925Y-120750414D01*
X50286286Y-120741037D01*
X50262253Y-120736256D01*
X50237749Y-120736256D01*
X50213715Y-120741036D01*
X50191076Y-120750413D01*
X50170701Y-120764027D01*
X50153374Y-120781354D01*
X50139760Y-120801729D01*
X50130383Y-120824368D01*
X50125602Y-120848403D01*
X50121555Y-120889499D01*
X50110181Y-120926993D01*
X50091706Y-120961557D01*
X50066847Y-120991847D01*
X50036557Y-121016706D01*
X50001993Y-121035181D01*
X49964499Y-121046555D01*
X49919362Y-121051000D01*
X49280638Y-121051000D01*
X49235501Y-121046555D01*
X49198007Y-121035181D01*
X49163443Y-121016706D01*
X49133153Y-120991847D01*
X49108294Y-120961557D01*
X49089819Y-120926993D01*
X49078445Y-120889499D01*
X49074398Y-120848403D01*
X49069618Y-120824369D01*
X49060241Y-120801730D01*
X49046627Y-120781355D01*
X49029300Y-120764028D01*
X49008925Y-120750414D01*
X48986286Y-120741037D01*
X48962253Y-120736256D01*
X48937749Y-120736256D01*
X48913715Y-120741036D01*
X48891076Y-120750413D01*
X48870701Y-120764027D01*
X48853374Y-120781354D01*
X48839760Y-120801729D01*
X48830383Y-120824368D01*
X48825602Y-120848403D01*
X48821555Y-120889499D01*
X48810181Y-120926993D01*
X48791706Y-120961557D01*
X48766847Y-120991847D01*
X48736557Y-121016706D01*
X48701993Y-121035181D01*
X48664499Y-121046555D01*
X48619362Y-121051000D01*
X47980638Y-121051000D01*
X47935501Y-121046555D01*
X47898007Y-121035181D01*
X47863443Y-121016706D01*
X47833153Y-120991847D01*
X47808294Y-120961557D01*
X47789819Y-120926993D01*
X47778445Y-120889499D01*
X47774000Y-120844362D01*
X47774000Y-120105638D01*
X47778445Y-120060501D01*
X47789819Y-120023007D01*
X47808294Y-119988443D01*
X47833153Y-119958153D01*
X47863443Y-119933294D01*
X47898007Y-119914819D01*
X47935501Y-119903445D01*
X47980638Y-119899000D01*
X48619362Y-119899000D01*
X48664499Y-119903445D01*
X48664499Y-119903445D01*
G37*
G36*
X64464499Y-119653445D02*
X64501993Y-119664819D01*
X64536557Y-119683294D01*
X64566847Y-119708153D01*
X64591706Y-119738443D01*
X64610181Y-119773007D01*
X64621555Y-119810501D01*
X64626000Y-119855638D01*
X64626000Y-120594362D01*
X64621555Y-120639499D01*
X64610181Y-120676993D01*
X64591706Y-120711557D01*
X64566847Y-120741847D01*
X64536557Y-120766706D01*
X64501993Y-120785181D01*
X64464499Y-120796555D01*
X64419362Y-120801000D01*
X63780638Y-120801000D01*
X63735501Y-120796555D01*
X63698007Y-120785181D01*
X63663443Y-120766706D01*
X63633153Y-120741847D01*
X63608294Y-120711557D01*
X63589819Y-120676993D01*
X63578445Y-120639499D01*
X63574000Y-120594362D01*
X63574000Y-119855638D01*
X63578445Y-119810501D01*
X63589819Y-119773007D01*
X63608294Y-119738443D01*
X63633153Y-119708153D01*
X63663443Y-119683294D01*
X63698007Y-119664819D01*
X63735501Y-119653445D01*
X63780638Y-119649000D01*
X64419362Y-119649000D01*
X64464499Y-119653445D01*
X64464499Y-119653445D01*
G37*
G36*
X48664499Y-118153445D02*
X48701993Y-118164819D01*
X48736557Y-118183294D01*
X48766847Y-118208153D01*
X48791706Y-118238443D01*
X48810181Y-118273007D01*
X48821555Y-118310501D01*
X48825602Y-118351597D01*
X48830382Y-118375631D01*
X48839759Y-118398270D01*
X48853373Y-118418645D01*
X48870700Y-118435972D01*
X48891075Y-118449586D01*
X48913714Y-118458963D01*
X48937747Y-118463744D01*
X48962251Y-118463744D01*
X48986285Y-118458964D01*
X49008924Y-118449587D01*
X49029299Y-118435973D01*
X49046626Y-118418646D01*
X49060240Y-118398271D01*
X49069617Y-118375632D01*
X49074398Y-118351597D01*
X49078445Y-118310501D01*
X49089819Y-118273007D01*
X49108294Y-118238443D01*
X49133153Y-118208153D01*
X49163443Y-118183294D01*
X49198007Y-118164819D01*
X49235501Y-118153445D01*
X49280638Y-118149000D01*
X49919362Y-118149000D01*
X49964499Y-118153445D01*
X50001993Y-118164819D01*
X50036557Y-118183294D01*
X50066847Y-118208153D01*
X50091706Y-118238443D01*
X50110181Y-118273007D01*
X50121555Y-118310501D01*
X50125602Y-118351597D01*
X50130382Y-118375631D01*
X50139759Y-118398270D01*
X50153373Y-118418645D01*
X50170700Y-118435972D01*
X50191075Y-118449586D01*
X50213714Y-118458963D01*
X50237747Y-118463744D01*
X50262251Y-118463744D01*
X50286285Y-118458964D01*
X50308924Y-118449587D01*
X50329299Y-118435973D01*
X50346626Y-118418646D01*
X50360240Y-118398271D01*
X50369617Y-118375632D01*
X50374398Y-118351597D01*
X50378445Y-118310501D01*
X50389819Y-118273007D01*
X50408294Y-118238443D01*
X50433153Y-118208153D01*
X50463443Y-118183294D01*
X50498007Y-118164819D01*
X50535501Y-118153445D01*
X50580638Y-118149000D01*
X51219362Y-118149000D01*
X51264499Y-118153445D01*
X51301993Y-118164819D01*
X51336557Y-118183294D01*
X51366847Y-118208153D01*
X51391706Y-118238443D01*
X51410181Y-118273007D01*
X51421555Y-118310501D01*
X51425602Y-118351597D01*
X51430382Y-118375631D01*
X51439759Y-118398270D01*
X51453373Y-118418645D01*
X51470700Y-118435972D01*
X51491075Y-118449586D01*
X51513714Y-118458963D01*
X51537747Y-118463744D01*
X51562251Y-118463744D01*
X51586285Y-118458964D01*
X51608924Y-118449587D01*
X51629299Y-118435973D01*
X51646626Y-118418646D01*
X51660240Y-118398271D01*
X51669617Y-118375632D01*
X51674398Y-118351597D01*
X51678445Y-118310501D01*
X51689819Y-118273007D01*
X51708294Y-118238443D01*
X51733153Y-118208153D01*
X51763443Y-118183294D01*
X51798007Y-118164819D01*
X51835501Y-118153445D01*
X51880638Y-118149000D01*
X52519362Y-118149000D01*
X52564499Y-118153445D01*
X52601993Y-118164819D01*
X52636557Y-118183294D01*
X52666847Y-118208153D01*
X52691706Y-118238443D01*
X52710181Y-118273007D01*
X52721555Y-118310501D01*
X52725602Y-118351597D01*
X52730382Y-118375631D01*
X52739759Y-118398270D01*
X52753373Y-118418645D01*
X52770700Y-118435972D01*
X52791075Y-118449586D01*
X52813714Y-118458963D01*
X52837747Y-118463744D01*
X52862251Y-118463744D01*
X52886285Y-118458964D01*
X52908924Y-118449587D01*
X52929299Y-118435973D01*
X52946626Y-118418646D01*
X52960240Y-118398271D01*
X52969617Y-118375632D01*
X52974398Y-118351597D01*
X52978445Y-118310501D01*
X52989819Y-118273007D01*
X53008294Y-118238443D01*
X53033153Y-118208153D01*
X53063443Y-118183294D01*
X53098007Y-118164819D01*
X53135501Y-118153445D01*
X53180638Y-118149000D01*
X53819362Y-118149000D01*
X53864499Y-118153445D01*
X53901993Y-118164819D01*
X53936557Y-118183294D01*
X53966847Y-118208153D01*
X53991706Y-118238443D01*
X54010181Y-118273007D01*
X54021555Y-118310501D01*
X54026000Y-118355638D01*
X54026000Y-119094362D01*
X54021555Y-119139499D01*
X54010181Y-119176993D01*
X53991706Y-119211557D01*
X53966847Y-119241847D01*
X53936557Y-119266706D01*
X53901993Y-119285181D01*
X53864499Y-119296555D01*
X53819362Y-119301000D01*
X53180638Y-119301000D01*
X53135501Y-119296555D01*
X53098007Y-119285181D01*
X53063443Y-119266706D01*
X53033153Y-119241847D01*
X53008294Y-119211557D01*
X52989819Y-119176993D01*
X52978445Y-119139499D01*
X52974398Y-119098403D01*
X52969618Y-119074369D01*
X52960241Y-119051730D01*
X52946627Y-119031355D01*
X52929300Y-119014028D01*
X52908925Y-119000414D01*
X52886286Y-118991037D01*
X52862253Y-118986256D01*
X52837749Y-118986256D01*
X52813715Y-118991036D01*
X52791076Y-119000413D01*
X52770701Y-119014027D01*
X52753374Y-119031354D01*
X52739760Y-119051729D01*
X52730383Y-119074368D01*
X52725602Y-119098403D01*
X52721555Y-119139499D01*
X52710181Y-119176993D01*
X52691706Y-119211557D01*
X52666847Y-119241847D01*
X52636557Y-119266706D01*
X52601993Y-119285181D01*
X52564499Y-119296555D01*
X52519362Y-119301000D01*
X51880638Y-119301000D01*
X51835501Y-119296555D01*
X51798007Y-119285181D01*
X51763443Y-119266706D01*
X51733153Y-119241847D01*
X51708294Y-119211557D01*
X51689819Y-119176993D01*
X51678445Y-119139499D01*
X51674398Y-119098403D01*
X51669618Y-119074369D01*
X51660241Y-119051730D01*
X51646627Y-119031355D01*
X51629300Y-119014028D01*
X51608925Y-119000414D01*
X51586286Y-118991037D01*
X51562253Y-118986256D01*
X51537749Y-118986256D01*
X51513715Y-118991036D01*
X51491076Y-119000413D01*
X51470701Y-119014027D01*
X51453374Y-119031354D01*
X51439760Y-119051729D01*
X51430383Y-119074368D01*
X51425602Y-119098403D01*
X51421555Y-119139499D01*
X51410181Y-119176993D01*
X51391706Y-119211557D01*
X51366847Y-119241847D01*
X51336557Y-119266706D01*
X51301993Y-119285181D01*
X51264499Y-119296555D01*
X51219362Y-119301000D01*
X50580638Y-119301000D01*
X50535501Y-119296555D01*
X50498007Y-119285181D01*
X50463443Y-119266706D01*
X50433153Y-119241847D01*
X50408294Y-119211557D01*
X50389819Y-119176993D01*
X50378445Y-119139499D01*
X50374398Y-119098403D01*
X50369618Y-119074369D01*
X50360241Y-119051730D01*
X50346627Y-119031355D01*
X50329300Y-119014028D01*
X50308925Y-119000414D01*
X50286286Y-118991037D01*
X50262253Y-118986256D01*
X50237749Y-118986256D01*
X50213715Y-118991036D01*
X50191076Y-119000413D01*
X50170701Y-119014027D01*
X50153374Y-119031354D01*
X50139760Y-119051729D01*
X50130383Y-119074368D01*
X50125602Y-119098403D01*
X50121555Y-119139499D01*
X50110181Y-119176993D01*
X50091706Y-119211557D01*
X50066847Y-119241847D01*
X50036557Y-119266706D01*
X50001993Y-119285181D01*
X49964499Y-119296555D01*
X49919362Y-119301000D01*
X49280638Y-119301000D01*
X49235501Y-119296555D01*
X49198007Y-119285181D01*
X49163443Y-119266706D01*
X49133153Y-119241847D01*
X49108294Y-119211557D01*
X49089819Y-119176993D01*
X49078445Y-119139499D01*
X49074398Y-119098403D01*
X49069618Y-119074369D01*
X49060241Y-119051730D01*
X49046627Y-119031355D01*
X49029300Y-119014028D01*
X49008925Y-119000414D01*
X48986286Y-118991037D01*
X48962253Y-118986256D01*
X48937749Y-118986256D01*
X48913715Y-118991036D01*
X48891076Y-119000413D01*
X48870701Y-119014027D01*
X48853374Y-119031354D01*
X48839760Y-119051729D01*
X48830383Y-119074368D01*
X48825602Y-119098403D01*
X48821555Y-119139499D01*
X48810181Y-119176993D01*
X48791706Y-119211557D01*
X48766847Y-119241847D01*
X48736557Y-119266706D01*
X48701993Y-119285181D01*
X48664499Y-119296555D01*
X48619362Y-119301000D01*
X47980638Y-119301000D01*
X47935501Y-119296555D01*
X47898007Y-119285181D01*
X47863443Y-119266706D01*
X47833153Y-119241847D01*
X47808294Y-119211557D01*
X47789819Y-119176993D01*
X47778445Y-119139499D01*
X47774000Y-119094362D01*
X47774000Y-118355638D01*
X47778445Y-118310501D01*
X47789819Y-118273007D01*
X47808294Y-118238443D01*
X47833153Y-118208153D01*
X47863443Y-118183294D01*
X47898007Y-118164819D01*
X47935501Y-118153445D01*
X47980638Y-118149000D01*
X48619362Y-118149000D01*
X48664499Y-118153445D01*
X48664499Y-118153445D01*
G37*
G36*
X119827617Y-116958420D02*
X119909426Y-116983237D01*
X119950332Y-116995645D01*
X120010782Y-117027957D01*
X120063425Y-117056095D01*
X120063427Y-117056096D01*
X120063426Y-117056096D01*
X120161491Y-117136575D01*
X120162553Y-117137447D01*
X120243905Y-117236574D01*
X120243906Y-117236576D01*
X120304355Y-117349667D01*
X120306915Y-117358108D01*
X120341580Y-117472382D01*
X120351000Y-117568027D01*
X120351000Y-118231973D01*
X120341580Y-118327618D01*
X120317430Y-118407229D01*
X120304355Y-118450333D01*
X120291557Y-118474276D01*
X120243905Y-118563426D01*
X120162553Y-118662553D01*
X120063426Y-118743905D01*
X120063424Y-118743906D01*
X119950333Y-118804355D01*
X119909427Y-118816763D01*
X119827618Y-118841580D01*
X119700000Y-118854149D01*
X119572383Y-118841580D01*
X119490574Y-118816763D01*
X119449668Y-118804355D01*
X119336577Y-118743906D01*
X119336575Y-118743905D01*
X119237448Y-118662553D01*
X119156096Y-118563426D01*
X119114992Y-118486528D01*
X119095645Y-118450333D01*
X119082570Y-118407229D01*
X119069616Y-118364526D01*
X119060240Y-118341892D01*
X119046627Y-118321517D01*
X119029300Y-118304190D01*
X119008925Y-118290576D01*
X118986286Y-118281199D01*
X118962253Y-118276418D01*
X118937748Y-118276418D01*
X118913715Y-118281198D01*
X118891076Y-118290576D01*
X118870701Y-118304189D01*
X118853374Y-118321516D01*
X118839760Y-118341891D01*
X118830384Y-118364526D01*
X118817430Y-118407229D01*
X118804355Y-118450333D01*
X118791557Y-118474276D01*
X118743905Y-118563426D01*
X118662553Y-118662553D01*
X118563426Y-118743905D01*
X118563424Y-118743906D01*
X118450333Y-118804355D01*
X118409427Y-118816763D01*
X118327618Y-118841580D01*
X118200000Y-118854149D01*
X118072383Y-118841580D01*
X117990574Y-118816763D01*
X117949668Y-118804355D01*
X117836577Y-118743906D01*
X117836575Y-118743905D01*
X117737448Y-118662553D01*
X117656096Y-118563426D01*
X117614992Y-118486528D01*
X117595645Y-118450333D01*
X117582570Y-118407229D01*
X117569616Y-118364526D01*
X117560240Y-118341892D01*
X117546627Y-118321517D01*
X117529300Y-118304190D01*
X117508925Y-118290576D01*
X117486286Y-118281199D01*
X117462253Y-118276418D01*
X117437748Y-118276418D01*
X117413715Y-118281198D01*
X117391076Y-118290576D01*
X117370701Y-118304189D01*
X117353374Y-118321516D01*
X117339760Y-118341891D01*
X117330384Y-118364526D01*
X117317430Y-118407229D01*
X117304355Y-118450333D01*
X117291557Y-118474276D01*
X117243905Y-118563426D01*
X117162553Y-118662553D01*
X117063426Y-118743905D01*
X117063424Y-118743906D01*
X116950333Y-118804355D01*
X116909427Y-118816763D01*
X116827618Y-118841580D01*
X116700000Y-118854149D01*
X116572383Y-118841580D01*
X116490574Y-118816763D01*
X116449668Y-118804355D01*
X116336577Y-118743906D01*
X116336575Y-118743905D01*
X116237448Y-118662553D01*
X116156096Y-118563426D01*
X116114992Y-118486528D01*
X116095645Y-118450333D01*
X116082570Y-118407229D01*
X116069616Y-118364526D01*
X116060240Y-118341892D01*
X116046627Y-118321517D01*
X116029300Y-118304190D01*
X116008925Y-118290576D01*
X115986286Y-118281199D01*
X115962253Y-118276418D01*
X115937748Y-118276418D01*
X115913715Y-118281198D01*
X115891076Y-118290576D01*
X115870701Y-118304189D01*
X115853374Y-118321516D01*
X115839760Y-118341891D01*
X115830384Y-118364526D01*
X115817430Y-118407229D01*
X115804355Y-118450333D01*
X115791557Y-118474276D01*
X115743905Y-118563426D01*
X115662553Y-118662553D01*
X115563426Y-118743905D01*
X115563424Y-118743906D01*
X115450333Y-118804355D01*
X115409427Y-118816763D01*
X115327618Y-118841580D01*
X115200000Y-118854149D01*
X115072383Y-118841580D01*
X114990574Y-118816763D01*
X114949668Y-118804355D01*
X114836577Y-118743906D01*
X114836575Y-118743905D01*
X114737448Y-118662553D01*
X114656096Y-118563426D01*
X114614992Y-118486528D01*
X114595645Y-118450333D01*
X114582570Y-118407229D01*
X114569616Y-118364526D01*
X114560240Y-118341892D01*
X114546627Y-118321517D01*
X114529300Y-118304190D01*
X114508925Y-118290576D01*
X114486286Y-118281199D01*
X114462253Y-118276418D01*
X114437748Y-118276418D01*
X114413715Y-118281198D01*
X114391076Y-118290576D01*
X114370701Y-118304189D01*
X114353374Y-118321516D01*
X114339760Y-118341891D01*
X114330384Y-118364526D01*
X114317430Y-118407229D01*
X114304355Y-118450333D01*
X114291557Y-118474276D01*
X114243905Y-118563426D01*
X114162553Y-118662553D01*
X114063426Y-118743905D01*
X114063424Y-118743906D01*
X113950333Y-118804355D01*
X113909427Y-118816763D01*
X113827618Y-118841580D01*
X113700000Y-118854149D01*
X113572383Y-118841580D01*
X113490574Y-118816763D01*
X113449668Y-118804355D01*
X113336577Y-118743906D01*
X113336575Y-118743905D01*
X113237448Y-118662553D01*
X113156096Y-118563426D01*
X113114992Y-118486528D01*
X113095645Y-118450333D01*
X113095618Y-118450243D01*
X113086240Y-118427604D01*
X113072626Y-118407229D01*
X113055299Y-118389902D01*
X113034925Y-118376288D01*
X113012286Y-118366911D01*
X112988252Y-118362130D01*
X112963748Y-118362130D01*
X112939715Y-118366910D01*
X112917076Y-118376288D01*
X112896701Y-118389902D01*
X112879374Y-118407229D01*
X112865760Y-118427603D01*
X112856383Y-118450242D01*
X112851602Y-118474276D01*
X112851000Y-118486528D01*
X112851000Y-118851000D01*
X111549000Y-118851000D01*
X111549000Y-116949000D01*
X112851000Y-116949000D01*
X112851000Y-117313473D01*
X112853402Y-117337859D01*
X112860515Y-117361308D01*
X112872066Y-117382919D01*
X112887612Y-117401861D01*
X112906554Y-117417407D01*
X112928165Y-117428958D01*
X112951614Y-117436071D01*
X112976000Y-117438473D01*
X113000386Y-117436071D01*
X113023835Y-117428958D01*
X113045446Y-117417407D01*
X113064388Y-117401861D01*
X113079934Y-117382919D01*
X113091485Y-117361308D01*
X113095618Y-117349758D01*
X113095645Y-117349668D01*
X113149097Y-117249668D01*
X113156095Y-117236575D01*
X113237447Y-117137447D01*
X113336574Y-117056095D01*
X113371462Y-117037447D01*
X113449667Y-116995645D01*
X113490573Y-116983237D01*
X113572382Y-116958420D01*
X113700000Y-116945851D01*
X113827617Y-116958420D01*
X113909426Y-116983237D01*
X113950332Y-116995645D01*
X114010782Y-117027957D01*
X114063425Y-117056095D01*
X114063427Y-117056096D01*
X114063426Y-117056096D01*
X114161491Y-117136575D01*
X114162553Y-117137447D01*
X114243905Y-117236574D01*
X114243906Y-117236576D01*
X114304355Y-117349667D01*
X114306915Y-117358108D01*
X114330384Y-117435474D01*
X114339760Y-117458108D01*
X114353373Y-117478483D01*
X114370700Y-117495810D01*
X114391075Y-117509424D01*
X114413714Y-117518801D01*
X114437747Y-117523582D01*
X114462252Y-117523582D01*
X114486285Y-117518802D01*
X114508924Y-117509424D01*
X114529299Y-117495811D01*
X114546626Y-117478484D01*
X114560240Y-117458109D01*
X114569618Y-117435469D01*
X114577519Y-117409424D01*
X114592114Y-117361308D01*
X114595645Y-117349668D01*
X114649097Y-117249668D01*
X114656095Y-117236575D01*
X114737447Y-117137447D01*
X114836574Y-117056095D01*
X114871462Y-117037447D01*
X114949667Y-116995645D01*
X114990573Y-116983237D01*
X115072382Y-116958420D01*
X115200000Y-116945851D01*
X115327617Y-116958420D01*
X115409426Y-116983237D01*
X115450332Y-116995645D01*
X115510782Y-117027957D01*
X115563425Y-117056095D01*
X115563427Y-117056096D01*
X115563426Y-117056096D01*
X115661491Y-117136575D01*
X115662553Y-117137447D01*
X115743905Y-117236574D01*
X115743906Y-117236576D01*
X115804355Y-117349667D01*
X115806915Y-117358108D01*
X115830384Y-117435474D01*
X115839760Y-117458108D01*
X115853373Y-117478483D01*
X115870700Y-117495810D01*
X115891075Y-117509424D01*
X115913714Y-117518801D01*
X115937747Y-117523582D01*
X115962252Y-117523582D01*
X115986285Y-117518802D01*
X116008924Y-117509424D01*
X116029299Y-117495811D01*
X116046626Y-117478484D01*
X116060240Y-117458109D01*
X116069618Y-117435469D01*
X116077519Y-117409424D01*
X116092114Y-117361308D01*
X116095645Y-117349668D01*
X116149097Y-117249668D01*
X116156095Y-117236575D01*
X116237447Y-117137447D01*
X116336574Y-117056095D01*
X116371462Y-117037447D01*
X116449667Y-116995645D01*
X116490573Y-116983237D01*
X116572382Y-116958420D01*
X116700000Y-116945851D01*
X116827617Y-116958420D01*
X116909426Y-116983237D01*
X116950332Y-116995645D01*
X117010782Y-117027957D01*
X117063425Y-117056095D01*
X117063427Y-117056096D01*
X117063426Y-117056096D01*
X117161491Y-117136575D01*
X117162553Y-117137447D01*
X117243905Y-117236574D01*
X117243906Y-117236576D01*
X117304355Y-117349667D01*
X117306915Y-117358108D01*
X117330384Y-117435474D01*
X117339760Y-117458108D01*
X117353373Y-117478483D01*
X117370700Y-117495810D01*
X117391075Y-117509424D01*
X117413714Y-117518801D01*
X117437747Y-117523582D01*
X117462252Y-117523582D01*
X117486285Y-117518802D01*
X117508924Y-117509424D01*
X117529299Y-117495811D01*
X117546626Y-117478484D01*
X117560240Y-117458109D01*
X117569618Y-117435469D01*
X117577519Y-117409424D01*
X117592114Y-117361308D01*
X117595645Y-117349668D01*
X117649097Y-117249668D01*
X117656095Y-117236575D01*
X117737447Y-117137447D01*
X117836574Y-117056095D01*
X117871462Y-117037447D01*
X117949667Y-116995645D01*
X117990573Y-116983237D01*
X118072382Y-116958420D01*
X118200000Y-116945851D01*
X118327617Y-116958420D01*
X118409426Y-116983237D01*
X118450332Y-116995645D01*
X118510782Y-117027957D01*
X118563425Y-117056095D01*
X118563427Y-117056096D01*
X118563426Y-117056096D01*
X118661491Y-117136575D01*
X118662553Y-117137447D01*
X118743905Y-117236574D01*
X118743906Y-117236576D01*
X118804355Y-117349667D01*
X118806915Y-117358108D01*
X118830384Y-117435474D01*
X118839760Y-117458108D01*
X118853373Y-117478483D01*
X118870700Y-117495810D01*
X118891075Y-117509424D01*
X118913714Y-117518801D01*
X118937747Y-117523582D01*
X118962252Y-117523582D01*
X118986285Y-117518802D01*
X119008924Y-117509424D01*
X119029299Y-117495811D01*
X119046626Y-117478484D01*
X119060240Y-117458109D01*
X119069618Y-117435469D01*
X119077519Y-117409424D01*
X119092114Y-117361308D01*
X119095645Y-117349668D01*
X119149097Y-117249668D01*
X119156095Y-117236575D01*
X119237447Y-117137447D01*
X119336574Y-117056095D01*
X119371462Y-117037447D01*
X119449667Y-116995645D01*
X119490573Y-116983237D01*
X119572382Y-116958420D01*
X119700000Y-116945851D01*
X119827617Y-116958420D01*
X119827617Y-116958420D01*
G37*
G36*
X130727617Y-116858420D02*
X130809426Y-116883237D01*
X130850332Y-116895645D01*
X130910782Y-116927957D01*
X130963425Y-116956095D01*
X131062553Y-117037447D01*
X131143905Y-117136574D01*
X131144372Y-117137447D01*
X131204355Y-117249667D01*
X131207886Y-117261308D01*
X131241580Y-117372382D01*
X131251000Y-117468027D01*
X131251000Y-118131973D01*
X131241580Y-118227618D01*
X131225326Y-118281199D01*
X131204355Y-118350333D01*
X131158579Y-118435973D01*
X131143905Y-118463426D01*
X131062553Y-118562553D01*
X130963426Y-118643905D01*
X130963424Y-118643906D01*
X130850333Y-118704355D01*
X130809427Y-118716763D01*
X130727618Y-118741580D01*
X130600000Y-118754149D01*
X130472383Y-118741580D01*
X130390574Y-118716763D01*
X130349668Y-118704355D01*
X130236577Y-118643906D01*
X130236575Y-118643905D01*
X130137448Y-118562553D01*
X130056096Y-118463426D01*
X130032160Y-118418646D01*
X129995645Y-118350333D01*
X129974674Y-118281199D01*
X129969616Y-118264526D01*
X129960240Y-118241892D01*
X129946627Y-118221517D01*
X129929300Y-118204190D01*
X129908925Y-118190576D01*
X129886286Y-118181199D01*
X129862253Y-118176418D01*
X129837748Y-118176418D01*
X129813715Y-118181198D01*
X129791076Y-118190576D01*
X129770701Y-118204189D01*
X129753374Y-118221516D01*
X129739760Y-118241891D01*
X129730384Y-118264526D01*
X129725326Y-118281199D01*
X129704355Y-118350333D01*
X129658579Y-118435973D01*
X129643905Y-118463426D01*
X129562553Y-118562553D01*
X129463426Y-118643905D01*
X129463424Y-118643906D01*
X129350333Y-118704355D01*
X129309427Y-118716763D01*
X129227618Y-118741580D01*
X129100000Y-118754149D01*
X128972383Y-118741580D01*
X128890574Y-118716763D01*
X128849668Y-118704355D01*
X128736577Y-118643906D01*
X128736575Y-118643905D01*
X128637448Y-118562553D01*
X128556096Y-118463426D01*
X128532160Y-118418646D01*
X128495645Y-118350333D01*
X128474674Y-118281199D01*
X128469616Y-118264526D01*
X128460240Y-118241892D01*
X128446627Y-118221517D01*
X128429300Y-118204190D01*
X128408925Y-118190576D01*
X128386286Y-118181199D01*
X128362253Y-118176418D01*
X128337748Y-118176418D01*
X128313715Y-118181198D01*
X128291076Y-118190576D01*
X128270701Y-118204189D01*
X128253374Y-118221516D01*
X128239760Y-118241891D01*
X128230384Y-118264526D01*
X128225326Y-118281199D01*
X128204355Y-118350333D01*
X128158579Y-118435973D01*
X128143905Y-118463426D01*
X128062553Y-118562553D01*
X127963426Y-118643905D01*
X127963424Y-118643906D01*
X127850333Y-118704355D01*
X127809427Y-118716763D01*
X127727618Y-118741580D01*
X127600000Y-118754149D01*
X127472383Y-118741580D01*
X127390574Y-118716763D01*
X127349668Y-118704355D01*
X127236577Y-118643906D01*
X127236575Y-118643905D01*
X127137448Y-118562553D01*
X127056096Y-118463426D01*
X127032160Y-118418646D01*
X126995645Y-118350333D01*
X126974674Y-118281199D01*
X126969616Y-118264526D01*
X126960240Y-118241892D01*
X126946627Y-118221517D01*
X126929300Y-118204190D01*
X126908925Y-118190576D01*
X126886286Y-118181199D01*
X126862253Y-118176418D01*
X126837748Y-118176418D01*
X126813715Y-118181198D01*
X126791076Y-118190576D01*
X126770701Y-118204189D01*
X126753374Y-118221516D01*
X126739760Y-118241891D01*
X126730384Y-118264526D01*
X126725326Y-118281199D01*
X126704355Y-118350333D01*
X126658579Y-118435973D01*
X126643905Y-118463426D01*
X126562553Y-118562553D01*
X126463426Y-118643905D01*
X126463424Y-118643906D01*
X126350333Y-118704355D01*
X126309427Y-118716763D01*
X126227618Y-118741580D01*
X126100000Y-118754149D01*
X125972383Y-118741580D01*
X125890574Y-118716763D01*
X125849668Y-118704355D01*
X125736577Y-118643906D01*
X125736575Y-118643905D01*
X125637448Y-118562553D01*
X125556096Y-118463426D01*
X125532160Y-118418646D01*
X125495645Y-118350333D01*
X125474674Y-118281199D01*
X125469616Y-118264526D01*
X125460240Y-118241892D01*
X125446627Y-118221517D01*
X125429300Y-118204190D01*
X125408925Y-118190576D01*
X125386286Y-118181199D01*
X125362253Y-118176418D01*
X125337748Y-118176418D01*
X125313715Y-118181198D01*
X125291076Y-118190576D01*
X125270701Y-118204189D01*
X125253374Y-118221516D01*
X125239760Y-118241891D01*
X125230384Y-118264526D01*
X125225326Y-118281199D01*
X125204355Y-118350333D01*
X125158579Y-118435973D01*
X125143905Y-118463426D01*
X125062553Y-118562553D01*
X124963426Y-118643905D01*
X124963424Y-118643906D01*
X124850333Y-118704355D01*
X124809427Y-118716763D01*
X124727618Y-118741580D01*
X124600000Y-118754149D01*
X124472383Y-118741580D01*
X124390574Y-118716763D01*
X124349668Y-118704355D01*
X124236577Y-118643906D01*
X124236575Y-118643905D01*
X124137448Y-118562553D01*
X124056096Y-118463426D01*
X124032160Y-118418646D01*
X123995645Y-118350333D01*
X123995618Y-118350243D01*
X123986240Y-118327604D01*
X123972626Y-118307229D01*
X123955299Y-118289902D01*
X123934925Y-118276288D01*
X123912286Y-118266911D01*
X123888252Y-118262130D01*
X123863748Y-118262130D01*
X123839715Y-118266910D01*
X123817076Y-118276288D01*
X123796701Y-118289902D01*
X123779374Y-118307229D01*
X123765760Y-118327603D01*
X123756383Y-118350242D01*
X123751602Y-118374276D01*
X123751000Y-118386528D01*
X123751000Y-118751000D01*
X122449000Y-118751000D01*
X122449000Y-116849000D01*
X123751000Y-116849000D01*
X123751000Y-117213473D01*
X123753402Y-117237859D01*
X123760515Y-117261308D01*
X123772066Y-117282919D01*
X123787612Y-117301861D01*
X123806554Y-117317407D01*
X123828165Y-117328958D01*
X123851614Y-117336071D01*
X123876000Y-117338473D01*
X123900386Y-117336071D01*
X123923835Y-117328958D01*
X123945446Y-117317407D01*
X123964388Y-117301861D01*
X123979934Y-117282919D01*
X123991485Y-117261308D01*
X123995618Y-117249758D01*
X123995645Y-117249668D01*
X124055630Y-117137445D01*
X124056095Y-117136575D01*
X124137447Y-117037447D01*
X124236574Y-116956095D01*
X124255739Y-116945851D01*
X124349667Y-116895645D01*
X124390573Y-116883237D01*
X124472382Y-116858420D01*
X124600000Y-116845851D01*
X124727617Y-116858420D01*
X124809426Y-116883237D01*
X124850332Y-116895645D01*
X124910782Y-116927957D01*
X124963425Y-116956095D01*
X125062553Y-117037447D01*
X125143905Y-117136574D01*
X125144372Y-117137447D01*
X125204355Y-117249667D01*
X125207886Y-117261308D01*
X125230384Y-117335474D01*
X125239760Y-117358108D01*
X125253373Y-117378483D01*
X125270700Y-117395810D01*
X125291075Y-117409424D01*
X125313714Y-117418801D01*
X125337747Y-117423582D01*
X125362252Y-117423582D01*
X125386285Y-117418802D01*
X125408924Y-117409424D01*
X125429299Y-117395811D01*
X125446626Y-117378484D01*
X125460240Y-117358109D01*
X125469618Y-117335469D01*
X125495645Y-117249668D01*
X125555630Y-117137445D01*
X125556095Y-117136575D01*
X125637447Y-117037447D01*
X125736574Y-116956095D01*
X125755739Y-116945851D01*
X125849667Y-116895645D01*
X125890573Y-116883237D01*
X125972382Y-116858420D01*
X126100000Y-116845851D01*
X126227617Y-116858420D01*
X126309426Y-116883237D01*
X126350332Y-116895645D01*
X126410782Y-116927957D01*
X126463425Y-116956095D01*
X126562553Y-117037447D01*
X126643905Y-117136574D01*
X126644372Y-117137447D01*
X126704355Y-117249667D01*
X126707886Y-117261308D01*
X126730384Y-117335474D01*
X126739760Y-117358108D01*
X126753373Y-117378483D01*
X126770700Y-117395810D01*
X126791075Y-117409424D01*
X126813714Y-117418801D01*
X126837747Y-117423582D01*
X126862252Y-117423582D01*
X126886285Y-117418802D01*
X126908924Y-117409424D01*
X126929299Y-117395811D01*
X126946626Y-117378484D01*
X126960240Y-117358109D01*
X126969618Y-117335469D01*
X126995645Y-117249668D01*
X127055630Y-117137445D01*
X127056095Y-117136575D01*
X127137447Y-117037447D01*
X127236574Y-116956095D01*
X127255739Y-116945851D01*
X127349667Y-116895645D01*
X127390573Y-116883237D01*
X127472382Y-116858420D01*
X127600000Y-116845851D01*
X127727617Y-116858420D01*
X127809426Y-116883237D01*
X127850332Y-116895645D01*
X127910782Y-116927957D01*
X127963425Y-116956095D01*
X128062553Y-117037447D01*
X128143905Y-117136574D01*
X128144372Y-117137447D01*
X128204355Y-117249667D01*
X128207886Y-117261308D01*
X128230384Y-117335474D01*
X128239760Y-117358108D01*
X128253373Y-117378483D01*
X128270700Y-117395810D01*
X128291075Y-117409424D01*
X128313714Y-117418801D01*
X128337747Y-117423582D01*
X128362252Y-117423582D01*
X128386285Y-117418802D01*
X128408924Y-117409424D01*
X128429299Y-117395811D01*
X128446626Y-117378484D01*
X128460240Y-117358109D01*
X128469618Y-117335469D01*
X128495645Y-117249668D01*
X128555630Y-117137445D01*
X128556095Y-117136575D01*
X128637447Y-117037447D01*
X128736574Y-116956095D01*
X128755739Y-116945851D01*
X128849667Y-116895645D01*
X128890573Y-116883237D01*
X128972382Y-116858420D01*
X129100000Y-116845851D01*
X129227617Y-116858420D01*
X129309426Y-116883237D01*
X129350332Y-116895645D01*
X129410782Y-116927957D01*
X129463425Y-116956095D01*
X129562553Y-117037447D01*
X129643905Y-117136574D01*
X129644372Y-117137447D01*
X129704355Y-117249667D01*
X129707886Y-117261308D01*
X129730384Y-117335474D01*
X129739760Y-117358108D01*
X129753373Y-117378483D01*
X129770700Y-117395810D01*
X129791075Y-117409424D01*
X129813714Y-117418801D01*
X129837747Y-117423582D01*
X129862252Y-117423582D01*
X129886285Y-117418802D01*
X129908924Y-117409424D01*
X129929299Y-117395811D01*
X129946626Y-117378484D01*
X129960240Y-117358109D01*
X129969618Y-117335469D01*
X129995645Y-117249668D01*
X130055630Y-117137445D01*
X130056095Y-117136575D01*
X130137447Y-117037447D01*
X130236574Y-116956095D01*
X130255739Y-116945851D01*
X130349667Y-116895645D01*
X130390573Y-116883237D01*
X130472382Y-116858420D01*
X130600000Y-116845851D01*
X130727617Y-116858420D01*
X130727617Y-116858420D01*
G37*
G36*
X166944721Y-106620174D02*
X167044995Y-106661709D01*
X167135245Y-106722012D01*
X167211988Y-106798755D01*
X167272291Y-106889005D01*
X167313826Y-106989279D01*
X167335000Y-107095730D01*
X167335000Y-107204270D01*
X167313826Y-107310721D01*
X167272291Y-107410995D01*
X167211988Y-107501245D01*
X167135245Y-107577988D01*
X167044995Y-107638291D01*
X166944721Y-107679826D01*
X166838270Y-107701000D01*
X166729730Y-107701000D01*
X166623279Y-107679826D01*
X166523005Y-107638291D01*
X166432755Y-107577988D01*
X166356012Y-107501245D01*
X166295709Y-107410995D01*
X166254174Y-107310721D01*
X166233000Y-107204270D01*
X166233000Y-107095730D01*
X166254174Y-106989279D01*
X166295709Y-106889005D01*
X166356012Y-106798755D01*
X166432755Y-106722012D01*
X166523005Y-106661709D01*
X166623279Y-106620174D01*
X166729730Y-106599000D01*
X166838270Y-106599000D01*
X166944721Y-106620174D01*
X166944721Y-106620174D01*
G37*
G36*
X92760721Y-106620174D02*
X92860995Y-106661709D01*
X92951245Y-106722012D01*
X93027988Y-106798755D01*
X93088291Y-106889005D01*
X93129826Y-106989279D01*
X93151000Y-107095730D01*
X93151000Y-107204270D01*
X93129826Y-107310721D01*
X93088291Y-107410995D01*
X93027988Y-107501245D01*
X92951245Y-107577988D01*
X92860995Y-107638291D01*
X92760721Y-107679826D01*
X92654270Y-107701000D01*
X92545730Y-107701000D01*
X92439279Y-107679826D01*
X92339005Y-107638291D01*
X92248755Y-107577988D01*
X92172012Y-107501245D01*
X92111709Y-107410995D01*
X92070174Y-107310721D01*
X92049000Y-107204270D01*
X92049000Y-107095730D01*
X92070174Y-106989279D01*
X92111709Y-106889005D01*
X92172012Y-106798755D01*
X92248755Y-106722012D01*
X92339005Y-106661709D01*
X92439279Y-106620174D01*
X92545730Y-106599000D01*
X92654270Y-106599000D01*
X92760721Y-106620174D01*
X92760721Y-106620174D01*
G37*
G36*
X90744721Y-106620174D02*
X90844995Y-106661709D01*
X90935245Y-106722012D01*
X91011988Y-106798755D01*
X91072291Y-106889005D01*
X91113826Y-106989279D01*
X91135000Y-107095730D01*
X91135000Y-107204270D01*
X91113826Y-107310721D01*
X91072291Y-107410995D01*
X91011988Y-107501245D01*
X90935245Y-107577988D01*
X90844995Y-107638291D01*
X90744721Y-107679826D01*
X90638270Y-107701000D01*
X90529730Y-107701000D01*
X90423279Y-107679826D01*
X90323005Y-107638291D01*
X90232755Y-107577988D01*
X90156012Y-107501245D01*
X90095709Y-107410995D01*
X90054174Y-107310721D01*
X90033000Y-107204270D01*
X90033000Y-107095730D01*
X90054174Y-106989279D01*
X90095709Y-106889005D01*
X90156012Y-106798755D01*
X90232755Y-106722012D01*
X90323005Y-106661709D01*
X90423279Y-106620174D01*
X90529730Y-106599000D01*
X90638270Y-106599000D01*
X90744721Y-106620174D01*
X90744721Y-106620174D01*
G37*
G36*
X62410721Y-106620174D02*
X62510995Y-106661709D01*
X62601245Y-106722012D01*
X62677988Y-106798755D01*
X62738291Y-106889005D01*
X62779826Y-106989279D01*
X62801000Y-107095730D01*
X62801000Y-107204270D01*
X62779826Y-107310721D01*
X62738291Y-107410995D01*
X62677988Y-107501245D01*
X62601245Y-107577988D01*
X62510995Y-107638291D01*
X62410721Y-107679826D01*
X62304270Y-107701000D01*
X62195730Y-107701000D01*
X62089279Y-107679826D01*
X61989005Y-107638291D01*
X61898755Y-107577988D01*
X61822012Y-107501245D01*
X61761709Y-107410995D01*
X61720174Y-107310721D01*
X61699000Y-107204270D01*
X61699000Y-107095730D01*
X61720174Y-106989279D01*
X61761709Y-106889005D01*
X61822012Y-106798755D01*
X61898755Y-106722012D01*
X61989005Y-106661709D01*
X62089279Y-106620174D01*
X62195730Y-106599000D01*
X62304270Y-106599000D01*
X62410721Y-106620174D01*
X62410721Y-106620174D01*
G37*
G36*
X60394721Y-106620174D02*
X60494995Y-106661709D01*
X60585245Y-106722012D01*
X60661988Y-106798755D01*
X60722291Y-106889005D01*
X60763826Y-106989279D01*
X60785000Y-107095730D01*
X60785000Y-107204270D01*
X60763826Y-107310721D01*
X60722291Y-107410995D01*
X60661988Y-107501245D01*
X60585245Y-107577988D01*
X60494995Y-107638291D01*
X60394721Y-107679826D01*
X60288270Y-107701000D01*
X60179730Y-107701000D01*
X60073279Y-107679826D01*
X59973005Y-107638291D01*
X59882755Y-107577988D01*
X59806012Y-107501245D01*
X59745709Y-107410995D01*
X59704174Y-107310721D01*
X59683000Y-107204270D01*
X59683000Y-107095730D01*
X59704174Y-106989279D01*
X59745709Y-106889005D01*
X59806012Y-106798755D01*
X59882755Y-106722012D01*
X59973005Y-106661709D01*
X60073279Y-106620174D01*
X60179730Y-106599000D01*
X60288270Y-106599000D01*
X60394721Y-106620174D01*
X60394721Y-106620174D01*
G37*
G36*
X147894721Y-106620174D02*
X147994995Y-106661709D01*
X148085245Y-106722012D01*
X148161988Y-106798755D01*
X148222291Y-106889005D01*
X148263826Y-106989279D01*
X148285000Y-107095730D01*
X148285000Y-107204270D01*
X148263826Y-107310721D01*
X148222291Y-107410995D01*
X148161988Y-107501245D01*
X148085245Y-107577988D01*
X147994995Y-107638291D01*
X147894721Y-107679826D01*
X147788270Y-107701000D01*
X147679730Y-107701000D01*
X147573279Y-107679826D01*
X147473005Y-107638291D01*
X147382755Y-107577988D01*
X147306012Y-107501245D01*
X147245709Y-107410995D01*
X147204174Y-107310721D01*
X147183000Y-107204270D01*
X147183000Y-107095730D01*
X147204174Y-106989279D01*
X147245709Y-106889005D01*
X147306012Y-106798755D01*
X147382755Y-106722012D01*
X147473005Y-106661709D01*
X147573279Y-106620174D01*
X147679730Y-106599000D01*
X147788270Y-106599000D01*
X147894721Y-106620174D01*
X147894721Y-106620174D01*
G37*
G36*
X111810721Y-106620174D02*
X111910995Y-106661709D01*
X112001245Y-106722012D01*
X112077988Y-106798755D01*
X112138291Y-106889005D01*
X112179826Y-106989279D01*
X112201000Y-107095730D01*
X112201000Y-107204270D01*
X112179826Y-107310721D01*
X112138291Y-107410995D01*
X112077988Y-107501245D01*
X112001245Y-107577988D01*
X111910995Y-107638291D01*
X111810721Y-107679826D01*
X111704270Y-107701000D01*
X111595730Y-107701000D01*
X111489279Y-107679826D01*
X111389005Y-107638291D01*
X111298755Y-107577988D01*
X111222012Y-107501245D01*
X111161709Y-107410995D01*
X111120174Y-107310721D01*
X111099000Y-107204270D01*
X111099000Y-107095730D01*
X111120174Y-106989279D01*
X111161709Y-106889005D01*
X111222012Y-106798755D01*
X111298755Y-106722012D01*
X111389005Y-106661709D01*
X111489279Y-106620174D01*
X111595730Y-106599000D01*
X111704270Y-106599000D01*
X111810721Y-106620174D01*
X111810721Y-106620174D01*
G37*
G36*
X109794721Y-106620174D02*
X109894995Y-106661709D01*
X109985245Y-106722012D01*
X110061988Y-106798755D01*
X110122291Y-106889005D01*
X110163826Y-106989279D01*
X110185000Y-107095730D01*
X110185000Y-107204270D01*
X110163826Y-107310721D01*
X110122291Y-107410995D01*
X110061988Y-107501245D01*
X109985245Y-107577988D01*
X109894995Y-107638291D01*
X109794721Y-107679826D01*
X109688270Y-107701000D01*
X109579730Y-107701000D01*
X109473279Y-107679826D01*
X109373005Y-107638291D01*
X109282755Y-107577988D01*
X109206012Y-107501245D01*
X109145709Y-107410995D01*
X109104174Y-107310721D01*
X109083000Y-107204270D01*
X109083000Y-107095730D01*
X109104174Y-106989279D01*
X109145709Y-106889005D01*
X109206012Y-106798755D01*
X109282755Y-106722012D01*
X109373005Y-106661709D01*
X109473279Y-106620174D01*
X109579730Y-106599000D01*
X109688270Y-106599000D01*
X109794721Y-106620174D01*
X109794721Y-106620174D01*
G37*
G36*
X149910721Y-106620174D02*
X150010995Y-106661709D01*
X150101245Y-106722012D01*
X150177988Y-106798755D01*
X150238291Y-106889005D01*
X150279826Y-106989279D01*
X150301000Y-107095730D01*
X150301000Y-107204270D01*
X150279826Y-107310721D01*
X150238291Y-107410995D01*
X150177988Y-107501245D01*
X150101245Y-107577988D01*
X150010995Y-107638291D01*
X149910721Y-107679826D01*
X149804270Y-107701000D01*
X149695730Y-107701000D01*
X149589279Y-107679826D01*
X149489005Y-107638291D01*
X149398755Y-107577988D01*
X149322012Y-107501245D01*
X149261709Y-107410995D01*
X149220174Y-107310721D01*
X149199000Y-107204270D01*
X149199000Y-107095730D01*
X149220174Y-106989279D01*
X149261709Y-106889005D01*
X149322012Y-106798755D01*
X149398755Y-106722012D01*
X149489005Y-106661709D01*
X149589279Y-106620174D01*
X149695730Y-106599000D01*
X149804270Y-106599000D01*
X149910721Y-106620174D01*
X149910721Y-106620174D01*
G37*
G36*
X130860721Y-106620174D02*
X130960995Y-106661709D01*
X131051245Y-106722012D01*
X131127988Y-106798755D01*
X131188291Y-106889005D01*
X131229826Y-106989279D01*
X131251000Y-107095730D01*
X131251000Y-107204270D01*
X131229826Y-107310721D01*
X131188291Y-107410995D01*
X131127988Y-107501245D01*
X131051245Y-107577988D01*
X130960995Y-107638291D01*
X130860721Y-107679826D01*
X130754270Y-107701000D01*
X130645730Y-107701000D01*
X130539279Y-107679826D01*
X130439005Y-107638291D01*
X130348755Y-107577988D01*
X130272012Y-107501245D01*
X130211709Y-107410995D01*
X130170174Y-107310721D01*
X130149000Y-107204270D01*
X130149000Y-107095730D01*
X130170174Y-106989279D01*
X130211709Y-106889005D01*
X130272012Y-106798755D01*
X130348755Y-106722012D01*
X130439005Y-106661709D01*
X130539279Y-106620174D01*
X130645730Y-106599000D01*
X130754270Y-106599000D01*
X130860721Y-106620174D01*
X130860721Y-106620174D01*
G37*
G36*
X128844721Y-106620174D02*
X128944995Y-106661709D01*
X129035245Y-106722012D01*
X129111988Y-106798755D01*
X129172291Y-106889005D01*
X129213826Y-106989279D01*
X129235000Y-107095730D01*
X129235000Y-107204270D01*
X129213826Y-107310721D01*
X129172291Y-107410995D01*
X129111988Y-107501245D01*
X129035245Y-107577988D01*
X128944995Y-107638291D01*
X128844721Y-107679826D01*
X128738270Y-107701000D01*
X128629730Y-107701000D01*
X128523279Y-107679826D01*
X128423005Y-107638291D01*
X128332755Y-107577988D01*
X128256012Y-107501245D01*
X128195709Y-107410995D01*
X128154174Y-107310721D01*
X128133000Y-107204270D01*
X128133000Y-107095730D01*
X128154174Y-106989279D01*
X128195709Y-106889005D01*
X128256012Y-106798755D01*
X128332755Y-106722012D01*
X128423005Y-106661709D01*
X128523279Y-106620174D01*
X128629730Y-106599000D01*
X128738270Y-106599000D01*
X128844721Y-106620174D01*
X128844721Y-106620174D01*
G37*
G36*
X168960721Y-106620174D02*
X169060995Y-106661709D01*
X169151245Y-106722012D01*
X169227988Y-106798755D01*
X169288291Y-106889005D01*
X169329826Y-106989279D01*
X169351000Y-107095730D01*
X169351000Y-107204270D01*
X169329826Y-107310721D01*
X169288291Y-107410995D01*
X169227988Y-107501245D01*
X169151245Y-107577988D01*
X169060995Y-107638291D01*
X168960721Y-107679826D01*
X168854270Y-107701000D01*
X168745730Y-107701000D01*
X168639279Y-107679826D01*
X168539005Y-107638291D01*
X168448755Y-107577988D01*
X168372012Y-107501245D01*
X168311709Y-107410995D01*
X168270174Y-107310721D01*
X168249000Y-107204270D01*
X168249000Y-107095730D01*
X168270174Y-106989279D01*
X168311709Y-106889005D01*
X168372012Y-106798755D01*
X168448755Y-106722012D01*
X168539005Y-106661709D01*
X168639279Y-106620174D01*
X168745730Y-106599000D01*
X168854270Y-106599000D01*
X168960721Y-106620174D01*
X168960721Y-106620174D01*
G37*
G36*
X157894721Y-87570174D02*
X157994995Y-87611709D01*
X158085245Y-87672012D01*
X158161988Y-87748755D01*
X158222291Y-87839005D01*
X158263826Y-87939279D01*
X158285000Y-88045730D01*
X158285000Y-88154270D01*
X158263826Y-88260721D01*
X158222291Y-88360995D01*
X158161988Y-88451245D01*
X158085245Y-88527988D01*
X157994995Y-88588291D01*
X157894721Y-88629826D01*
X157788270Y-88651000D01*
X157679730Y-88651000D01*
X157573279Y-88629826D01*
X157473005Y-88588291D01*
X157382755Y-88527988D01*
X157306012Y-88451245D01*
X157245709Y-88360995D01*
X157204174Y-88260721D01*
X157183000Y-88154270D01*
X157183000Y-88045730D01*
X157204174Y-87939279D01*
X157245709Y-87839005D01*
X157306012Y-87748755D01*
X157382755Y-87672012D01*
X157473005Y-87611709D01*
X157573279Y-87570174D01*
X157679730Y-87549000D01*
X157788270Y-87549000D01*
X157894721Y-87570174D01*
X157894721Y-87570174D01*
G37*
G36*
X121810721Y-87570174D02*
X121910995Y-87611709D01*
X122001245Y-87672012D01*
X122077988Y-87748755D01*
X122138291Y-87839005D01*
X122179826Y-87939279D01*
X122201000Y-88045730D01*
X122201000Y-88154270D01*
X122179826Y-88260721D01*
X122138291Y-88360995D01*
X122077988Y-88451245D01*
X122001245Y-88527988D01*
X121910995Y-88588291D01*
X121810721Y-88629826D01*
X121704270Y-88651000D01*
X121595730Y-88651000D01*
X121489279Y-88629826D01*
X121389005Y-88588291D01*
X121298755Y-88527988D01*
X121222012Y-88451245D01*
X121161709Y-88360995D01*
X121120174Y-88260721D01*
X121099000Y-88154270D01*
X121099000Y-88045730D01*
X121120174Y-87939279D01*
X121161709Y-87839005D01*
X121222012Y-87748755D01*
X121298755Y-87672012D01*
X121389005Y-87611709D01*
X121489279Y-87570174D01*
X121595730Y-87549000D01*
X121704270Y-87549000D01*
X121810721Y-87570174D01*
X121810721Y-87570174D01*
G37*
G36*
X119794721Y-87570174D02*
X119894995Y-87611709D01*
X119985245Y-87672012D01*
X120061988Y-87748755D01*
X120122291Y-87839005D01*
X120163826Y-87939279D01*
X120185000Y-88045730D01*
X120185000Y-88154270D01*
X120163826Y-88260721D01*
X120122291Y-88360995D01*
X120061988Y-88451245D01*
X119985245Y-88527988D01*
X119894995Y-88588291D01*
X119794721Y-88629826D01*
X119688270Y-88651000D01*
X119579730Y-88651000D01*
X119473279Y-88629826D01*
X119373005Y-88588291D01*
X119282755Y-88527988D01*
X119206012Y-88451245D01*
X119145709Y-88360995D01*
X119104174Y-88260721D01*
X119083000Y-88154270D01*
X119083000Y-88045730D01*
X119104174Y-87939279D01*
X119145709Y-87839005D01*
X119206012Y-87748755D01*
X119282755Y-87672012D01*
X119373005Y-87611709D01*
X119473279Y-87570174D01*
X119579730Y-87549000D01*
X119688270Y-87549000D01*
X119794721Y-87570174D01*
X119794721Y-87570174D01*
G37*
G36*
X100744721Y-87570174D02*
X100844995Y-87611709D01*
X100935245Y-87672012D01*
X101011988Y-87748755D01*
X101072291Y-87839005D01*
X101113826Y-87939279D01*
X101135000Y-88045730D01*
X101135000Y-88154270D01*
X101113826Y-88260721D01*
X101072291Y-88360995D01*
X101011988Y-88451245D01*
X100935245Y-88527988D01*
X100844995Y-88588291D01*
X100744721Y-88629826D01*
X100638270Y-88651000D01*
X100529730Y-88651000D01*
X100423279Y-88629826D01*
X100323005Y-88588291D01*
X100232755Y-88527988D01*
X100156012Y-88451245D01*
X100095709Y-88360995D01*
X100054174Y-88260721D01*
X100033000Y-88154270D01*
X100033000Y-88045730D01*
X100054174Y-87939279D01*
X100095709Y-87839005D01*
X100156012Y-87748755D01*
X100232755Y-87672012D01*
X100323005Y-87611709D01*
X100423279Y-87570174D01*
X100529730Y-87549000D01*
X100638270Y-87549000D01*
X100744721Y-87570174D01*
X100744721Y-87570174D01*
G37*
G36*
X159910721Y-87570174D02*
X160010995Y-87611709D01*
X160101245Y-87672012D01*
X160177988Y-87748755D01*
X160238291Y-87839005D01*
X160279826Y-87939279D01*
X160301000Y-88045730D01*
X160301000Y-88154270D01*
X160279826Y-88260721D01*
X160238291Y-88360995D01*
X160177988Y-88451245D01*
X160101245Y-88527988D01*
X160010995Y-88588291D01*
X159910721Y-88629826D01*
X159804270Y-88651000D01*
X159695730Y-88651000D01*
X159589279Y-88629826D01*
X159489005Y-88588291D01*
X159398755Y-88527988D01*
X159322012Y-88451245D01*
X159261709Y-88360995D01*
X159220174Y-88260721D01*
X159199000Y-88154270D01*
X159199000Y-88045730D01*
X159220174Y-87939279D01*
X159261709Y-87839005D01*
X159322012Y-87748755D01*
X159398755Y-87672012D01*
X159489005Y-87611709D01*
X159589279Y-87570174D01*
X159695730Y-87549000D01*
X159804270Y-87549000D01*
X159910721Y-87570174D01*
X159910721Y-87570174D01*
G37*
G36*
X102760721Y-87570174D02*
X102860995Y-87611709D01*
X102951245Y-87672012D01*
X103027988Y-87748755D01*
X103088291Y-87839005D01*
X103129826Y-87939279D01*
X103151000Y-88045730D01*
X103151000Y-88154270D01*
X103129826Y-88260721D01*
X103088291Y-88360995D01*
X103027988Y-88451245D01*
X102951245Y-88527988D01*
X102860995Y-88588291D01*
X102760721Y-88629826D01*
X102654270Y-88651000D01*
X102545730Y-88651000D01*
X102439279Y-88629826D01*
X102339005Y-88588291D01*
X102248755Y-88527988D01*
X102172012Y-88451245D01*
X102111709Y-88360995D01*
X102070174Y-88260721D01*
X102049000Y-88154270D01*
X102049000Y-88045730D01*
X102070174Y-87939279D01*
X102111709Y-87839005D01*
X102172012Y-87748755D01*
X102248755Y-87672012D01*
X102339005Y-87611709D01*
X102439279Y-87570174D01*
X102545730Y-87549000D01*
X102654270Y-87549000D01*
X102760721Y-87570174D01*
X102760721Y-87570174D01*
G37*
G36*
X81694721Y-87570174D02*
X81794995Y-87611709D01*
X81885245Y-87672012D01*
X81961988Y-87748755D01*
X82022291Y-87839005D01*
X82063826Y-87939279D01*
X82085000Y-88045730D01*
X82085000Y-88154270D01*
X82063826Y-88260721D01*
X82022291Y-88360995D01*
X81961988Y-88451245D01*
X81885245Y-88527988D01*
X81794995Y-88588291D01*
X81694721Y-88629826D01*
X81588270Y-88651000D01*
X81479730Y-88651000D01*
X81373279Y-88629826D01*
X81273005Y-88588291D01*
X81182755Y-88527988D01*
X81106012Y-88451245D01*
X81045709Y-88360995D01*
X81004174Y-88260721D01*
X80983000Y-88154270D01*
X80983000Y-88045730D01*
X81004174Y-87939279D01*
X81045709Y-87839005D01*
X81106012Y-87748755D01*
X81182755Y-87672012D01*
X81273005Y-87611709D01*
X81373279Y-87570174D01*
X81479730Y-87549000D01*
X81588270Y-87549000D01*
X81694721Y-87570174D01*
X81694721Y-87570174D01*
G37*
G36*
X55894721Y-87570174D02*
X55994995Y-87611709D01*
X56085245Y-87672012D01*
X56161988Y-87748755D01*
X56222291Y-87839005D01*
X56263826Y-87939279D01*
X56285000Y-88045730D01*
X56285000Y-88154270D01*
X56263826Y-88260721D01*
X56222291Y-88360995D01*
X56161988Y-88451245D01*
X56085245Y-88527988D01*
X55994995Y-88588291D01*
X55894721Y-88629826D01*
X55788270Y-88651000D01*
X55679730Y-88651000D01*
X55573279Y-88629826D01*
X55473005Y-88588291D01*
X55382755Y-88527988D01*
X55306012Y-88451245D01*
X55245709Y-88360995D01*
X55204174Y-88260721D01*
X55183000Y-88154270D01*
X55183000Y-88045730D01*
X55204174Y-87939279D01*
X55245709Y-87839005D01*
X55306012Y-87748755D01*
X55382755Y-87672012D01*
X55473005Y-87611709D01*
X55573279Y-87570174D01*
X55679730Y-87549000D01*
X55788270Y-87549000D01*
X55894721Y-87570174D01*
X55894721Y-87570174D01*
G37*
G36*
X83710721Y-87570174D02*
X83810995Y-87611709D01*
X83901245Y-87672012D01*
X83977988Y-87748755D01*
X84038291Y-87839005D01*
X84079826Y-87939279D01*
X84101000Y-88045730D01*
X84101000Y-88154270D01*
X84079826Y-88260721D01*
X84038291Y-88360995D01*
X83977988Y-88451245D01*
X83901245Y-88527988D01*
X83810995Y-88588291D01*
X83710721Y-88629826D01*
X83604270Y-88651000D01*
X83495730Y-88651000D01*
X83389279Y-88629826D01*
X83289005Y-88588291D01*
X83198755Y-88527988D01*
X83122012Y-88451245D01*
X83061709Y-88360995D01*
X83020174Y-88260721D01*
X82999000Y-88154270D01*
X82999000Y-88045730D01*
X83020174Y-87939279D01*
X83061709Y-87839005D01*
X83122012Y-87748755D01*
X83198755Y-87672012D01*
X83289005Y-87611709D01*
X83389279Y-87570174D01*
X83495730Y-87549000D01*
X83604270Y-87549000D01*
X83710721Y-87570174D01*
X83710721Y-87570174D01*
G37*
G36*
X140860721Y-87570174D02*
X140960995Y-87611709D01*
X141051245Y-87672012D01*
X141127988Y-87748755D01*
X141188291Y-87839005D01*
X141229826Y-87939279D01*
X141251000Y-88045730D01*
X141251000Y-88154270D01*
X141229826Y-88260721D01*
X141188291Y-88360995D01*
X141127988Y-88451245D01*
X141051245Y-88527988D01*
X140960995Y-88588291D01*
X140860721Y-88629826D01*
X140754270Y-88651000D01*
X140645730Y-88651000D01*
X140539279Y-88629826D01*
X140439005Y-88588291D01*
X140348755Y-88527988D01*
X140272012Y-88451245D01*
X140211709Y-88360995D01*
X140170174Y-88260721D01*
X140149000Y-88154270D01*
X140149000Y-88045730D01*
X140170174Y-87939279D01*
X140211709Y-87839005D01*
X140272012Y-87748755D01*
X140348755Y-87672012D01*
X140439005Y-87611709D01*
X140539279Y-87570174D01*
X140645730Y-87549000D01*
X140754270Y-87549000D01*
X140860721Y-87570174D01*
X140860721Y-87570174D01*
G37*
G36*
X138844721Y-87570174D02*
X138944995Y-87611709D01*
X139035245Y-87672012D01*
X139111988Y-87748755D01*
X139172291Y-87839005D01*
X139213826Y-87939279D01*
X139235000Y-88045730D01*
X139235000Y-88154270D01*
X139213826Y-88260721D01*
X139172291Y-88360995D01*
X139111988Y-88451245D01*
X139035245Y-88527988D01*
X138944995Y-88588291D01*
X138844721Y-88629826D01*
X138738270Y-88651000D01*
X138629730Y-88651000D01*
X138523279Y-88629826D01*
X138423005Y-88588291D01*
X138332755Y-88527988D01*
X138256012Y-88451245D01*
X138195709Y-88360995D01*
X138154174Y-88260721D01*
X138133000Y-88154270D01*
X138133000Y-88045730D01*
X138154174Y-87939279D01*
X138195709Y-87839005D01*
X138256012Y-87748755D01*
X138332755Y-87672012D01*
X138423005Y-87611709D01*
X138523279Y-87570174D01*
X138629730Y-87549000D01*
X138738270Y-87549000D01*
X138844721Y-87570174D01*
X138844721Y-87570174D01*
G37*
G36*
X57910721Y-87570174D02*
X58010995Y-87611709D01*
X58101245Y-87672012D01*
X58177988Y-87748755D01*
X58238291Y-87839005D01*
X58279826Y-87939279D01*
X58301000Y-88045730D01*
X58301000Y-88154270D01*
X58279826Y-88260721D01*
X58238291Y-88360995D01*
X58177988Y-88451245D01*
X58101245Y-88527988D01*
X58010995Y-88588291D01*
X57910721Y-88629826D01*
X57804270Y-88651000D01*
X57695730Y-88651000D01*
X57589279Y-88629826D01*
X57489005Y-88588291D01*
X57398755Y-88527988D01*
X57322012Y-88451245D01*
X57261709Y-88360995D01*
X57220174Y-88260721D01*
X57199000Y-88154270D01*
X57199000Y-88045730D01*
X57220174Y-87939279D01*
X57261709Y-87839005D01*
X57322012Y-87748755D01*
X57398755Y-87672012D01*
X57489005Y-87611709D01*
X57589279Y-87570174D01*
X57695730Y-87549000D01*
X57804270Y-87549000D01*
X57910721Y-87570174D01*
X57910721Y-87570174D01*
G37*
G36*
X96244721Y-68520174D02*
X96344995Y-68561709D01*
X96435245Y-68622012D01*
X96511988Y-68698755D01*
X96572291Y-68789005D01*
X96613826Y-68889279D01*
X96635000Y-68995730D01*
X96635000Y-69104270D01*
X96613826Y-69210721D01*
X96572291Y-69310995D01*
X96511988Y-69401245D01*
X96435245Y-69477988D01*
X96344995Y-69538291D01*
X96244721Y-69579826D01*
X96138270Y-69601000D01*
X96029730Y-69601000D01*
X95923279Y-69579826D01*
X95823005Y-69538291D01*
X95732755Y-69477988D01*
X95656012Y-69401245D01*
X95595709Y-69310995D01*
X95554174Y-69210721D01*
X95533000Y-69104270D01*
X95533000Y-68995730D01*
X95554174Y-68889279D01*
X95595709Y-68789005D01*
X95656012Y-68698755D01*
X95732755Y-68622012D01*
X95823005Y-68561709D01*
X95923279Y-68520174D01*
X96029730Y-68499000D01*
X96138270Y-68499000D01*
X96244721Y-68520174D01*
X96244721Y-68520174D01*
G37*
G36*
X55660721Y-68520174D02*
X55760995Y-68561709D01*
X55851245Y-68622012D01*
X55927988Y-68698755D01*
X55988291Y-68789005D01*
X56029826Y-68889279D01*
X56051000Y-68995730D01*
X56051000Y-69104270D01*
X56029826Y-69210721D01*
X55988291Y-69310995D01*
X55927988Y-69401245D01*
X55851245Y-69477988D01*
X55760995Y-69538291D01*
X55660721Y-69579826D01*
X55554270Y-69601000D01*
X55445730Y-69601000D01*
X55339279Y-69579826D01*
X55239005Y-69538291D01*
X55148755Y-69477988D01*
X55072012Y-69401245D01*
X55011709Y-69310995D01*
X54970174Y-69210721D01*
X54949000Y-69104270D01*
X54949000Y-68995730D01*
X54970174Y-68889279D01*
X55011709Y-68789005D01*
X55072012Y-68698755D01*
X55148755Y-68622012D01*
X55239005Y-68561709D01*
X55339279Y-68520174D01*
X55445730Y-68499000D01*
X55554270Y-68499000D01*
X55660721Y-68520174D01*
X55660721Y-68520174D01*
G37*
G36*
X155410721Y-68520174D02*
X155510995Y-68561709D01*
X155601245Y-68622012D01*
X155677988Y-68698755D01*
X155738291Y-68789005D01*
X155779826Y-68889279D01*
X155801000Y-68995730D01*
X155801000Y-69104270D01*
X155779826Y-69210721D01*
X155738291Y-69310995D01*
X155677988Y-69401245D01*
X155601245Y-69477988D01*
X155510995Y-69538291D01*
X155410721Y-69579826D01*
X155304270Y-69601000D01*
X155195730Y-69601000D01*
X155089279Y-69579826D01*
X154989005Y-69538291D01*
X154898755Y-69477988D01*
X154822012Y-69401245D01*
X154761709Y-69310995D01*
X154720174Y-69210721D01*
X154699000Y-69104270D01*
X154699000Y-68995730D01*
X154720174Y-68889279D01*
X154761709Y-68789005D01*
X154822012Y-68698755D01*
X154898755Y-68622012D01*
X154989005Y-68561709D01*
X155089279Y-68520174D01*
X155195730Y-68499000D01*
X155304270Y-68499000D01*
X155410721Y-68520174D01*
X155410721Y-68520174D01*
G37*
G36*
X53644721Y-68520174D02*
X53744995Y-68561709D01*
X53835245Y-68622012D01*
X53911988Y-68698755D01*
X53972291Y-68789005D01*
X54013826Y-68889279D01*
X54035000Y-68995730D01*
X54035000Y-69104270D01*
X54013826Y-69210721D01*
X53972291Y-69310995D01*
X53911988Y-69401245D01*
X53835245Y-69477988D01*
X53744995Y-69538291D01*
X53644721Y-69579826D01*
X53538270Y-69601000D01*
X53429730Y-69601000D01*
X53323279Y-69579826D01*
X53223005Y-69538291D01*
X53132755Y-69477988D01*
X53056012Y-69401245D01*
X52995709Y-69310995D01*
X52954174Y-69210721D01*
X52933000Y-69104270D01*
X52933000Y-68995730D01*
X52954174Y-68889279D01*
X52995709Y-68789005D01*
X53056012Y-68698755D01*
X53132755Y-68622012D01*
X53223005Y-68561709D01*
X53323279Y-68520174D01*
X53429730Y-68499000D01*
X53538270Y-68499000D01*
X53644721Y-68520174D01*
X53644721Y-68520174D01*
G37*
G36*
X136360721Y-68520174D02*
X136460995Y-68561709D01*
X136551245Y-68622012D01*
X136627988Y-68698755D01*
X136688291Y-68789005D01*
X136729826Y-68889279D01*
X136751000Y-68995730D01*
X136751000Y-69104270D01*
X136729826Y-69210721D01*
X136688291Y-69310995D01*
X136627988Y-69401245D01*
X136551245Y-69477988D01*
X136460995Y-69538291D01*
X136360721Y-69579826D01*
X136254270Y-69601000D01*
X136145730Y-69601000D01*
X136039279Y-69579826D01*
X135939005Y-69538291D01*
X135848755Y-69477988D01*
X135772012Y-69401245D01*
X135711709Y-69310995D01*
X135670174Y-69210721D01*
X135649000Y-69104270D01*
X135649000Y-68995730D01*
X135670174Y-68889279D01*
X135711709Y-68789005D01*
X135772012Y-68698755D01*
X135848755Y-68622012D01*
X135939005Y-68561709D01*
X136039279Y-68520174D01*
X136145730Y-68499000D01*
X136254270Y-68499000D01*
X136360721Y-68520174D01*
X136360721Y-68520174D01*
G37*
G36*
X134344721Y-68520174D02*
X134444995Y-68561709D01*
X134535245Y-68622012D01*
X134611988Y-68698755D01*
X134672291Y-68789005D01*
X134713826Y-68889279D01*
X134735000Y-68995730D01*
X134735000Y-69104270D01*
X134713826Y-69210721D01*
X134672291Y-69310995D01*
X134611988Y-69401245D01*
X134535245Y-69477988D01*
X134444995Y-69538291D01*
X134344721Y-69579826D01*
X134238270Y-69601000D01*
X134129730Y-69601000D01*
X134023279Y-69579826D01*
X133923005Y-69538291D01*
X133832755Y-69477988D01*
X133756012Y-69401245D01*
X133695709Y-69310995D01*
X133654174Y-69210721D01*
X133633000Y-69104270D01*
X133633000Y-68995730D01*
X133654174Y-68889279D01*
X133695709Y-68789005D01*
X133756012Y-68698755D01*
X133832755Y-68622012D01*
X133923005Y-68561709D01*
X134023279Y-68520174D01*
X134129730Y-68499000D01*
X134238270Y-68499000D01*
X134344721Y-68520174D01*
X134344721Y-68520174D01*
G37*
G36*
X115294721Y-68520174D02*
X115394995Y-68561709D01*
X115485245Y-68622012D01*
X115561988Y-68698755D01*
X115622291Y-68789005D01*
X115663826Y-68889279D01*
X115685000Y-68995730D01*
X115685000Y-69104270D01*
X115663826Y-69210721D01*
X115622291Y-69310995D01*
X115561988Y-69401245D01*
X115485245Y-69477988D01*
X115394995Y-69538291D01*
X115294721Y-69579826D01*
X115188270Y-69601000D01*
X115079730Y-69601000D01*
X114973279Y-69579826D01*
X114873005Y-69538291D01*
X114782755Y-69477988D01*
X114706012Y-69401245D01*
X114645709Y-69310995D01*
X114604174Y-69210721D01*
X114583000Y-69104270D01*
X114583000Y-68995730D01*
X114604174Y-68889279D01*
X114645709Y-68789005D01*
X114706012Y-68698755D01*
X114782755Y-68622012D01*
X114873005Y-68561709D01*
X114973279Y-68520174D01*
X115079730Y-68499000D01*
X115188270Y-68499000D01*
X115294721Y-68520174D01*
X115294721Y-68520174D01*
G37*
G36*
X98260721Y-68520174D02*
X98360995Y-68561709D01*
X98451245Y-68622012D01*
X98527988Y-68698755D01*
X98588291Y-68789005D01*
X98629826Y-68889279D01*
X98651000Y-68995730D01*
X98651000Y-69104270D01*
X98629826Y-69210721D01*
X98588291Y-69310995D01*
X98527988Y-69401245D01*
X98451245Y-69477988D01*
X98360995Y-69538291D01*
X98260721Y-69579826D01*
X98154270Y-69601000D01*
X98045730Y-69601000D01*
X97939279Y-69579826D01*
X97839005Y-69538291D01*
X97748755Y-69477988D01*
X97672012Y-69401245D01*
X97611709Y-69310995D01*
X97570174Y-69210721D01*
X97549000Y-69104270D01*
X97549000Y-68995730D01*
X97570174Y-68889279D01*
X97611709Y-68789005D01*
X97672012Y-68698755D01*
X97748755Y-68622012D01*
X97839005Y-68561709D01*
X97939279Y-68520174D01*
X98045730Y-68499000D01*
X98154270Y-68499000D01*
X98260721Y-68520174D01*
X98260721Y-68520174D01*
G37*
G36*
X79210721Y-68520174D02*
X79310995Y-68561709D01*
X79401245Y-68622012D01*
X79477988Y-68698755D01*
X79538291Y-68789005D01*
X79579826Y-68889279D01*
X79601000Y-68995730D01*
X79601000Y-69104270D01*
X79579826Y-69210721D01*
X79538291Y-69310995D01*
X79477988Y-69401245D01*
X79401245Y-69477988D01*
X79310995Y-69538291D01*
X79210721Y-69579826D01*
X79104270Y-69601000D01*
X78995730Y-69601000D01*
X78889279Y-69579826D01*
X78789005Y-69538291D01*
X78698755Y-69477988D01*
X78622012Y-69401245D01*
X78561709Y-69310995D01*
X78520174Y-69210721D01*
X78499000Y-69104270D01*
X78499000Y-68995730D01*
X78520174Y-68889279D01*
X78561709Y-68789005D01*
X78622012Y-68698755D01*
X78698755Y-68622012D01*
X78789005Y-68561709D01*
X78889279Y-68520174D01*
X78995730Y-68499000D01*
X79104270Y-68499000D01*
X79210721Y-68520174D01*
X79210721Y-68520174D01*
G37*
G36*
X77194721Y-68520174D02*
X77294995Y-68561709D01*
X77385245Y-68622012D01*
X77461988Y-68698755D01*
X77522291Y-68789005D01*
X77563826Y-68889279D01*
X77585000Y-68995730D01*
X77585000Y-69104270D01*
X77563826Y-69210721D01*
X77522291Y-69310995D01*
X77461988Y-69401245D01*
X77385245Y-69477988D01*
X77294995Y-69538291D01*
X77194721Y-69579826D01*
X77088270Y-69601000D01*
X76979730Y-69601000D01*
X76873279Y-69579826D01*
X76773005Y-69538291D01*
X76682755Y-69477988D01*
X76606012Y-69401245D01*
X76545709Y-69310995D01*
X76504174Y-69210721D01*
X76483000Y-69104270D01*
X76483000Y-68995730D01*
X76504174Y-68889279D01*
X76545709Y-68789005D01*
X76606012Y-68698755D01*
X76682755Y-68622012D01*
X76773005Y-68561709D01*
X76873279Y-68520174D01*
X76979730Y-68499000D01*
X77088270Y-68499000D01*
X77194721Y-68520174D01*
X77194721Y-68520174D01*
G37*
G36*
X153394721Y-68520174D02*
X153494995Y-68561709D01*
X153585245Y-68622012D01*
X153661988Y-68698755D01*
X153722291Y-68789005D01*
X153763826Y-68889279D01*
X153785000Y-68995730D01*
X153785000Y-69104270D01*
X153763826Y-69210721D01*
X153722291Y-69310995D01*
X153661988Y-69401245D01*
X153585245Y-69477988D01*
X153494995Y-69538291D01*
X153394721Y-69579826D01*
X153288270Y-69601000D01*
X153179730Y-69601000D01*
X153073279Y-69579826D01*
X152973005Y-69538291D01*
X152882755Y-69477988D01*
X152806012Y-69401245D01*
X152745709Y-69310995D01*
X152704174Y-69210721D01*
X152683000Y-69104270D01*
X152683000Y-68995730D01*
X152704174Y-68889279D01*
X152745709Y-68789005D01*
X152806012Y-68698755D01*
X152882755Y-68622012D01*
X152973005Y-68561709D01*
X153073279Y-68520174D01*
X153179730Y-68499000D01*
X153288270Y-68499000D01*
X153394721Y-68520174D01*
X153394721Y-68520174D01*
G37*
G36*
X117310721Y-68520174D02*
X117410995Y-68561709D01*
X117501245Y-68622012D01*
X117577988Y-68698755D01*
X117638291Y-68789005D01*
X117679826Y-68889279D01*
X117701000Y-68995730D01*
X117701000Y-69104270D01*
X117679826Y-69210721D01*
X117638291Y-69310995D01*
X117577988Y-69401245D01*
X117501245Y-69477988D01*
X117410995Y-69538291D01*
X117310721Y-69579826D01*
X117204270Y-69601000D01*
X117095730Y-69601000D01*
X116989279Y-69579826D01*
X116889005Y-69538291D01*
X116798755Y-69477988D01*
X116722012Y-69401245D01*
X116661709Y-69310995D01*
X116620174Y-69210721D01*
X116599000Y-69104270D01*
X116599000Y-68995730D01*
X116620174Y-68889279D01*
X116661709Y-68789005D01*
X116722012Y-68698755D01*
X116798755Y-68622012D01*
X116889005Y-68561709D01*
X116989279Y-68520174D01*
X117095730Y-68499000D01*
X117204270Y-68499000D01*
X117310721Y-68520174D01*
X117310721Y-68520174D01*
G37*
G36*
X89260721Y-49470174D02*
X89360995Y-49511709D01*
X89451245Y-49572012D01*
X89527988Y-49648755D01*
X89588291Y-49739005D01*
X89629826Y-49839279D01*
X89651000Y-49945730D01*
X89651000Y-50054270D01*
X89629826Y-50160721D01*
X89588291Y-50260995D01*
X89527988Y-50351245D01*
X89451245Y-50427988D01*
X89360995Y-50488291D01*
X89260721Y-50529826D01*
X89154270Y-50551000D01*
X89045730Y-50551000D01*
X88939279Y-50529826D01*
X88839005Y-50488291D01*
X88748755Y-50427988D01*
X88672012Y-50351245D01*
X88611709Y-50260995D01*
X88570174Y-50160721D01*
X88549000Y-50054270D01*
X88549000Y-49945730D01*
X88570174Y-49839279D01*
X88611709Y-49739005D01*
X88672012Y-49648755D01*
X88748755Y-49572012D01*
X88839005Y-49511709D01*
X88939279Y-49470174D01*
X89045730Y-49449000D01*
X89154270Y-49449000D01*
X89260721Y-49470174D01*
X89260721Y-49470174D01*
G37*
G36*
X87244721Y-49470174D02*
X87344995Y-49511709D01*
X87435245Y-49572012D01*
X87511988Y-49648755D01*
X87572291Y-49739005D01*
X87613826Y-49839279D01*
X87635000Y-49945730D01*
X87635000Y-50054270D01*
X87613826Y-50160721D01*
X87572291Y-50260995D01*
X87511988Y-50351245D01*
X87435245Y-50427988D01*
X87344995Y-50488291D01*
X87244721Y-50529826D01*
X87138270Y-50551000D01*
X87029730Y-50551000D01*
X86923279Y-50529826D01*
X86823005Y-50488291D01*
X86732755Y-50427988D01*
X86656012Y-50351245D01*
X86595709Y-50260995D01*
X86554174Y-50160721D01*
X86533000Y-50054270D01*
X86533000Y-49945730D01*
X86554174Y-49839279D01*
X86595709Y-49739005D01*
X86656012Y-49648755D01*
X86732755Y-49572012D01*
X86823005Y-49511709D01*
X86923279Y-49470174D01*
X87029730Y-49449000D01*
X87138270Y-49449000D01*
X87244721Y-49470174D01*
X87244721Y-49470174D01*
G37*
G36*
X144394721Y-49470174D02*
X144494995Y-49511709D01*
X144585245Y-49572012D01*
X144661988Y-49648755D01*
X144722291Y-49739005D01*
X144763826Y-49839279D01*
X144785000Y-49945730D01*
X144785000Y-50054270D01*
X144763826Y-50160721D01*
X144722291Y-50260995D01*
X144661988Y-50351245D01*
X144585245Y-50427988D01*
X144494995Y-50488291D01*
X144394721Y-50529826D01*
X144288270Y-50551000D01*
X144179730Y-50551000D01*
X144073279Y-50529826D01*
X143973005Y-50488291D01*
X143882755Y-50427988D01*
X143806012Y-50351245D01*
X143745709Y-50260995D01*
X143704174Y-50160721D01*
X143683000Y-50054270D01*
X143683000Y-49945730D01*
X143704174Y-49839279D01*
X143745709Y-49739005D01*
X143806012Y-49648755D01*
X143882755Y-49572012D01*
X143973005Y-49511709D01*
X144073279Y-49470174D01*
X144179730Y-49449000D01*
X144288270Y-49449000D01*
X144394721Y-49470174D01*
X144394721Y-49470174D01*
G37*
G36*
X51160721Y-49470174D02*
X51260995Y-49511709D01*
X51351245Y-49572012D01*
X51427988Y-49648755D01*
X51488291Y-49739005D01*
X51529826Y-49839279D01*
X51551000Y-49945730D01*
X51551000Y-50054270D01*
X51529826Y-50160721D01*
X51488291Y-50260995D01*
X51427988Y-50351245D01*
X51351245Y-50427988D01*
X51260995Y-50488291D01*
X51160721Y-50529826D01*
X51054270Y-50551000D01*
X50945730Y-50551000D01*
X50839279Y-50529826D01*
X50739005Y-50488291D01*
X50648755Y-50427988D01*
X50572012Y-50351245D01*
X50511709Y-50260995D01*
X50470174Y-50160721D01*
X50449000Y-50054270D01*
X50449000Y-49945730D01*
X50470174Y-49839279D01*
X50511709Y-49739005D01*
X50572012Y-49648755D01*
X50648755Y-49572012D01*
X50739005Y-49511709D01*
X50839279Y-49470174D01*
X50945730Y-49449000D01*
X51054270Y-49449000D01*
X51160721Y-49470174D01*
X51160721Y-49470174D01*
G37*
G36*
X49144721Y-49470174D02*
X49244995Y-49511709D01*
X49335245Y-49572012D01*
X49411988Y-49648755D01*
X49472291Y-49739005D01*
X49513826Y-49839279D01*
X49535000Y-49945730D01*
X49535000Y-50054270D01*
X49513826Y-50160721D01*
X49472291Y-50260995D01*
X49411988Y-50351245D01*
X49335245Y-50427988D01*
X49244995Y-50488291D01*
X49144721Y-50529826D01*
X49038270Y-50551000D01*
X48929730Y-50551000D01*
X48823279Y-50529826D01*
X48723005Y-50488291D01*
X48632755Y-50427988D01*
X48556012Y-50351245D01*
X48495709Y-50260995D01*
X48454174Y-50160721D01*
X48433000Y-50054270D01*
X48433000Y-49945730D01*
X48454174Y-49839279D01*
X48495709Y-49739005D01*
X48556012Y-49648755D01*
X48632755Y-49572012D01*
X48723005Y-49511709D01*
X48823279Y-49470174D01*
X48929730Y-49449000D01*
X49038270Y-49449000D01*
X49144721Y-49470174D01*
X49144721Y-49470174D01*
G37*
G36*
X127360721Y-49470174D02*
X127460995Y-49511709D01*
X127551245Y-49572012D01*
X127627988Y-49648755D01*
X127688291Y-49739005D01*
X127729826Y-49839279D01*
X127751000Y-49945730D01*
X127751000Y-50054270D01*
X127729826Y-50160721D01*
X127688291Y-50260995D01*
X127627988Y-50351245D01*
X127551245Y-50427988D01*
X127460995Y-50488291D01*
X127360721Y-50529826D01*
X127254270Y-50551000D01*
X127145730Y-50551000D01*
X127039279Y-50529826D01*
X126939005Y-50488291D01*
X126848755Y-50427988D01*
X126772012Y-50351245D01*
X126711709Y-50260995D01*
X126670174Y-50160721D01*
X126649000Y-50054270D01*
X126649000Y-49945730D01*
X126670174Y-49839279D01*
X126711709Y-49739005D01*
X126772012Y-49648755D01*
X126848755Y-49572012D01*
X126939005Y-49511709D01*
X127039279Y-49470174D01*
X127145730Y-49449000D01*
X127254270Y-49449000D01*
X127360721Y-49470174D01*
X127360721Y-49470174D01*
G37*
G36*
X146410721Y-49470174D02*
X146510995Y-49511709D01*
X146601245Y-49572012D01*
X146677988Y-49648755D01*
X146738291Y-49739005D01*
X146779826Y-49839279D01*
X146801000Y-49945730D01*
X146801000Y-50054270D01*
X146779826Y-50160721D01*
X146738291Y-50260995D01*
X146677988Y-50351245D01*
X146601245Y-50427988D01*
X146510995Y-50488291D01*
X146410721Y-50529826D01*
X146304270Y-50551000D01*
X146195730Y-50551000D01*
X146089279Y-50529826D01*
X145989005Y-50488291D01*
X145898755Y-50427988D01*
X145822012Y-50351245D01*
X145761709Y-50260995D01*
X145720174Y-50160721D01*
X145699000Y-50054270D01*
X145699000Y-49945730D01*
X145720174Y-49839279D01*
X145761709Y-49739005D01*
X145822012Y-49648755D01*
X145898755Y-49572012D01*
X145989005Y-49511709D01*
X146089279Y-49470174D01*
X146195730Y-49449000D01*
X146304270Y-49449000D01*
X146410721Y-49470174D01*
X146410721Y-49470174D01*
G37*
G36*
X70210721Y-49470174D02*
X70310995Y-49511709D01*
X70401245Y-49572012D01*
X70477988Y-49648755D01*
X70538291Y-49739005D01*
X70579826Y-49839279D01*
X70601000Y-49945730D01*
X70601000Y-50054270D01*
X70579826Y-50160721D01*
X70538291Y-50260995D01*
X70477988Y-50351245D01*
X70401245Y-50427988D01*
X70310995Y-50488291D01*
X70210721Y-50529826D01*
X70104270Y-50551000D01*
X69995730Y-50551000D01*
X69889279Y-50529826D01*
X69789005Y-50488291D01*
X69698755Y-50427988D01*
X69622012Y-50351245D01*
X69561709Y-50260995D01*
X69520174Y-50160721D01*
X69499000Y-50054270D01*
X69499000Y-49945730D01*
X69520174Y-49839279D01*
X69561709Y-49739005D01*
X69622012Y-49648755D01*
X69698755Y-49572012D01*
X69789005Y-49511709D01*
X69889279Y-49470174D01*
X69995730Y-49449000D01*
X70104270Y-49449000D01*
X70210721Y-49470174D01*
X70210721Y-49470174D01*
G37*
G36*
X68194721Y-49470174D02*
X68294995Y-49511709D01*
X68385245Y-49572012D01*
X68461988Y-49648755D01*
X68522291Y-49739005D01*
X68563826Y-49839279D01*
X68585000Y-49945730D01*
X68585000Y-50054270D01*
X68563826Y-50160721D01*
X68522291Y-50260995D01*
X68461988Y-50351245D01*
X68385245Y-50427988D01*
X68294995Y-50488291D01*
X68194721Y-50529826D01*
X68088270Y-50551000D01*
X67979730Y-50551000D01*
X67873279Y-50529826D01*
X67773005Y-50488291D01*
X67682755Y-50427988D01*
X67606012Y-50351245D01*
X67545709Y-50260995D01*
X67504174Y-50160721D01*
X67483000Y-50054270D01*
X67483000Y-49945730D01*
X67504174Y-49839279D01*
X67545709Y-49739005D01*
X67606012Y-49648755D01*
X67682755Y-49572012D01*
X67773005Y-49511709D01*
X67873279Y-49470174D01*
X67979730Y-49449000D01*
X68088270Y-49449000D01*
X68194721Y-49470174D01*
X68194721Y-49470174D01*
G37*
G36*
X106294721Y-49470174D02*
X106394995Y-49511709D01*
X106485245Y-49572012D01*
X106561988Y-49648755D01*
X106622291Y-49739005D01*
X106663826Y-49839279D01*
X106685000Y-49945730D01*
X106685000Y-50054270D01*
X106663826Y-50160721D01*
X106622291Y-50260995D01*
X106561988Y-50351245D01*
X106485245Y-50427988D01*
X106394995Y-50488291D01*
X106294721Y-50529826D01*
X106188270Y-50551000D01*
X106079730Y-50551000D01*
X105973279Y-50529826D01*
X105873005Y-50488291D01*
X105782755Y-50427988D01*
X105706012Y-50351245D01*
X105645709Y-50260995D01*
X105604174Y-50160721D01*
X105583000Y-50054270D01*
X105583000Y-49945730D01*
X105604174Y-49839279D01*
X105645709Y-49739005D01*
X105706012Y-49648755D01*
X105782755Y-49572012D01*
X105873005Y-49511709D01*
X105973279Y-49470174D01*
X106079730Y-49449000D01*
X106188270Y-49449000D01*
X106294721Y-49470174D01*
X106294721Y-49470174D01*
G37*
G36*
X108310721Y-49470174D02*
X108410995Y-49511709D01*
X108501245Y-49572012D01*
X108577988Y-49648755D01*
X108638291Y-49739005D01*
X108679826Y-49839279D01*
X108701000Y-49945730D01*
X108701000Y-50054270D01*
X108679826Y-50160721D01*
X108638291Y-50260995D01*
X108577988Y-50351245D01*
X108501245Y-50427988D01*
X108410995Y-50488291D01*
X108310721Y-50529826D01*
X108204270Y-50551000D01*
X108095730Y-50551000D01*
X107989279Y-50529826D01*
X107889005Y-50488291D01*
X107798755Y-50427988D01*
X107722012Y-50351245D01*
X107661709Y-50260995D01*
X107620174Y-50160721D01*
X107599000Y-50054270D01*
X107599000Y-49945730D01*
X107620174Y-49839279D01*
X107661709Y-49739005D01*
X107722012Y-49648755D01*
X107798755Y-49572012D01*
X107889005Y-49511709D01*
X107989279Y-49470174D01*
X108095730Y-49449000D01*
X108204270Y-49449000D01*
X108310721Y-49470174D01*
X108310721Y-49470174D01*
G37*
G36*
X125344721Y-49470174D02*
X125444995Y-49511709D01*
X125535245Y-49572012D01*
X125611988Y-49648755D01*
X125672291Y-49739005D01*
X125713826Y-49839279D01*
X125735000Y-49945730D01*
X125735000Y-50054270D01*
X125713826Y-50160721D01*
X125672291Y-50260995D01*
X125611988Y-50351245D01*
X125535245Y-50427988D01*
X125444995Y-50488291D01*
X125344721Y-50529826D01*
X125238270Y-50551000D01*
X125129730Y-50551000D01*
X125023279Y-50529826D01*
X124923005Y-50488291D01*
X124832755Y-50427988D01*
X124756012Y-50351245D01*
X124695709Y-50260995D01*
X124654174Y-50160721D01*
X124633000Y-50054270D01*
X124633000Y-49945730D01*
X124654174Y-49839279D01*
X124695709Y-49739005D01*
X124756012Y-49648755D01*
X124832755Y-49572012D01*
X124923005Y-49511709D01*
X125023279Y-49470174D01*
X125129730Y-49449000D01*
X125238270Y-49449000D01*
X125344721Y-49470174D01*
X125344721Y-49470174D01*
G37*
M02*
