G04 #@! TF.GenerationSoftware,KiCad,Pcbnew,(5.0.2)-1*
G04 #@! TF.CreationDate,2020-04-15T18:40:52+09:00*
G04 #@! TF.ProjectId,eckeyboard,65636b65-7962-46f6-9172-642e6b696361,rev?*
G04 #@! TF.SameCoordinates,Original*
G04 #@! TF.FileFunction,Copper,L2,Bot*
G04 #@! TF.FilePolarity,Positive*
%FSLAX46Y46*%
G04 Gerber Fmt 4.6, Leading zero omitted, Abs format (unit mm)*
G04 Created by KiCad (PCBNEW (5.0.2)-1) date 2020/04/15 18:40:52*
%MOMM*%
%LPD*%
G01*
G04 APERTURE LIST*
G04 #@! TA.AperFunction,ComponentPad*
%ADD10C,1.000000*%
G04 #@! TD*
G04 #@! TA.AperFunction,SMDPad,CuDef*
%ADD11R,0.800000X1.300000*%
G04 #@! TD*
G04 #@! TA.AperFunction,SMDPad,CuDef*
%ADD12R,0.550000X1.750000*%
G04 #@! TD*
G04 #@! TA.AperFunction,ComponentPad*
%ADD13O,1.200000X1.800000*%
G04 #@! TD*
G04 #@! TA.AperFunction,ComponentPad*
%ADD14R,1.200000X1.800000*%
G04 #@! TD*
G04 #@! TA.AperFunction,ComponentPad*
%ADD15R,1.600000X2.400000*%
G04 #@! TD*
G04 #@! TA.AperFunction,ComponentPad*
%ADD16O,1.600000X2.400000*%
G04 #@! TD*
G04 #@! TA.AperFunction,Conductor*
%ADD17C,0.100000*%
G04 #@! TD*
G04 #@! TA.AperFunction,SMDPad,CuDef*
%ADD18C,0.950000*%
G04 #@! TD*
G04 #@! TA.AperFunction,ViaPad*
%ADD19C,0.800000*%
G04 #@! TD*
G04 #@! TA.AperFunction,Conductor*
%ADD20C,0.500000*%
G04 #@! TD*
G04 #@! TA.AperFunction,Conductor*
%ADD21C,0.700000*%
G04 #@! TD*
G04 #@! TA.AperFunction,Conductor*
%ADD22C,0.300000*%
G04 #@! TD*
G04 APERTURE END LIST*
D10*
G04 #@! TO.P,TP27,2*
G04 #@! TO.N,/ROW3*
X166784000Y-107150000D03*
G04 #@! TO.P,TP27,1*
G04 #@! TO.N,/COL5*
X168800000Y-107150000D03*
G04 #@! TD*
G04 #@! TO.P,TP26,2*
G04 #@! TO.N,/ROW2*
X157734000Y-88100000D03*
G04 #@! TO.P,TP26,1*
G04 #@! TO.N,/COL5*
X159750000Y-88100000D03*
G04 #@! TD*
G04 #@! TO.P,TP25,2*
G04 #@! TO.N,/ROW1*
X153234000Y-69050000D03*
G04 #@! TO.P,TP25,1*
G04 #@! TO.N,/COL5*
X155250000Y-69050000D03*
G04 #@! TD*
G04 #@! TO.P,TP24,2*
G04 #@! TO.N,/ROW0*
X144234000Y-50000000D03*
G04 #@! TO.P,TP24,1*
G04 #@! TO.N,/COL5*
X146250000Y-50000000D03*
G04 #@! TD*
G04 #@! TO.P,TP23,2*
G04 #@! TO.N,/ROW3*
X147734000Y-107150000D03*
G04 #@! TO.P,TP23,1*
G04 #@! TO.N,/COL4*
X149750000Y-107150000D03*
G04 #@! TD*
G04 #@! TO.P,TP21,2*
G04 #@! TO.N,/ROW1*
X134184000Y-69050000D03*
G04 #@! TO.P,TP21,1*
G04 #@! TO.N,/COL4*
X136200000Y-69050000D03*
G04 #@! TD*
G04 #@! TO.P,TP20,2*
G04 #@! TO.N,/ROW0*
X125184000Y-50000000D03*
G04 #@! TO.P,TP20,1*
G04 #@! TO.N,/COL4*
X127200000Y-50000000D03*
G04 #@! TD*
G04 #@! TO.P,TP19,2*
G04 #@! TO.N,/ROW4*
X141984000Y-126200000D03*
G04 #@! TO.P,TP19,1*
G04 #@! TO.N,/COL3*
X144000000Y-126200000D03*
G04 #@! TD*
G04 #@! TO.P,TP18,2*
G04 #@! TO.N,/ROW3*
X128684000Y-107150000D03*
G04 #@! TO.P,TP18,1*
G04 #@! TO.N,/COL3*
X130700000Y-107150000D03*
G04 #@! TD*
G04 #@! TO.P,TP17,2*
G04 #@! TO.N,/ROW2*
X119634000Y-88100000D03*
G04 #@! TO.P,TP17,1*
G04 #@! TO.N,/COL3*
X121650000Y-88100000D03*
G04 #@! TD*
G04 #@! TO.P,TP16,2*
G04 #@! TO.N,/ROW1*
X115134000Y-69050000D03*
G04 #@! TO.P,TP16,1*
G04 #@! TO.N,/COL3*
X117150000Y-69050000D03*
G04 #@! TD*
G04 #@! TO.P,TP15,2*
G04 #@! TO.N,/ROW0*
X106134000Y-50000000D03*
G04 #@! TO.P,TP15,1*
G04 #@! TO.N,/COL3*
X108150000Y-50000000D03*
G04 #@! TD*
G04 #@! TO.P,TP14,2*
G04 #@! TO.N,/ROW3*
X109634000Y-107150000D03*
G04 #@! TO.P,TP14,1*
G04 #@! TO.N,/COL2*
X111650000Y-107150000D03*
G04 #@! TD*
G04 #@! TO.P,TP13,2*
G04 #@! TO.N,/ROW4*
X98984000Y-126200000D03*
G04 #@! TO.P,TP13,1*
G04 #@! TO.N,/COL1*
X101000000Y-126200000D03*
G04 #@! TD*
G04 #@! TO.P,TP12,2*
G04 #@! TO.N,/ROW3*
X90584000Y-107150000D03*
G04 #@! TO.P,TP12,1*
G04 #@! TO.N,/COL1*
X92600000Y-107150000D03*
G04 #@! TD*
G04 #@! TO.P,TP10,2*
G04 #@! TO.N,/ROW3*
X60234000Y-107150000D03*
G04 #@! TO.P,TP10,1*
G04 #@! TO.N,/COL0*
X62250000Y-107150000D03*
G04 #@! TD*
G04 #@! TO.P,TP9,2*
G04 #@! TO.N,/ROW2*
X100584000Y-88100000D03*
G04 #@! TO.P,TP9,1*
G04 #@! TO.N,/COL2*
X102600000Y-88100000D03*
G04 #@! TD*
G04 #@! TO.P,TP8,2*
G04 #@! TO.N,/ROW1*
X96084000Y-69050000D03*
G04 #@! TO.P,TP8,1*
G04 #@! TO.N,/COL2*
X98100000Y-69050000D03*
G04 #@! TD*
G04 #@! TO.P,TP7,2*
G04 #@! TO.N,/ROW0*
X87084000Y-50000000D03*
G04 #@! TO.P,TP7,1*
G04 #@! TO.N,/COL2*
X89100000Y-50000000D03*
G04 #@! TD*
G04 #@! TO.P,TP6,2*
G04 #@! TO.N,/ROW2*
X81534000Y-88100000D03*
G04 #@! TO.P,TP6,1*
G04 #@! TO.N,/COL1*
X83550000Y-88100000D03*
G04 #@! TD*
G04 #@! TO.P,TP5,2*
G04 #@! TO.N,/ROW1*
X77034000Y-69050000D03*
G04 #@! TO.P,TP5,1*
G04 #@! TO.N,/COL1*
X79050000Y-69050000D03*
G04 #@! TD*
G04 #@! TO.P,TP4,2*
G04 #@! TO.N,/ROW0*
X68034000Y-50000000D03*
G04 #@! TO.P,TP4,1*
G04 #@! TO.N,/COL1*
X70050000Y-50000000D03*
G04 #@! TD*
G04 #@! TO.P,TP3,2*
G04 #@! TO.N,/ROW2*
X55734000Y-88100000D03*
G04 #@! TO.P,TP3,1*
G04 #@! TO.N,/COL0*
X57750000Y-88100000D03*
G04 #@! TD*
G04 #@! TO.P,TP2,2*
G04 #@! TO.N,/ROW1*
X53484000Y-69050000D03*
G04 #@! TO.P,TP2,1*
G04 #@! TO.N,/COL0*
X55500000Y-69050000D03*
G04 #@! TD*
G04 #@! TO.P,TP1,2*
G04 #@! TO.N,/ROW0*
X48984000Y-50000000D03*
G04 #@! TO.P,TP1,1*
G04 #@! TO.N,/COL0*
X51000000Y-50000000D03*
G04 #@! TD*
G04 #@! TO.P,TP11,2*
G04 #@! TO.N,/ROW4*
X73284000Y-126200000D03*
G04 #@! TO.P,TP11,1*
G04 #@! TO.N,/COL0*
X75300000Y-126200000D03*
G04 #@! TD*
G04 #@! TO.P,TP22,2*
G04 #@! TO.N,/ROW2*
X138684000Y-88100000D03*
G04 #@! TO.P,TP22,1*
G04 #@! TO.N,/COL4*
X140700000Y-88100000D03*
G04 #@! TD*
D11*
G04 #@! TO.P,U1,1*
G04 #@! TO.N,/ROW4*
X53464677Y-128459650D03*
G04 #@! TO.P,U1,2*
G04 #@! TO.N,GND*
X52184677Y-128459650D03*
G04 #@! TO.P,U1,3*
G04 #@! TO.N,Net-(C1-Pad1)*
X50924677Y-128459650D03*
G04 #@! TO.P,U1,4*
G04 #@! TO.N,GND*
X49654677Y-128459650D03*
G04 #@! TO.P,U1,5*
X48374677Y-128459650D03*
G04 #@! TO.P,U1,6*
G04 #@! TO.N,/MUX_EN*
X47104677Y-128459650D03*
G04 #@! TO.P,U1,7*
G04 #@! TO.N,GND*
X45844677Y-128459650D03*
G04 #@! TO.P,U1,8*
X44564677Y-128459650D03*
G04 #@! TO.P,U1,9*
G04 #@! TO.N,/MUX_A*
X44564677Y-122159650D03*
G04 #@! TO.P,U1,10*
G04 #@! TO.N,/MUX_B*
X45844677Y-122159650D03*
G04 #@! TO.P,U1,11*
G04 #@! TO.N,/MUX_C*
X47104677Y-122159650D03*
G04 #@! TO.P,U1,12*
G04 #@! TO.N,/ROW3*
X48374677Y-122159650D03*
G04 #@! TO.P,U1,13*
G04 #@! TO.N,/ROW2*
X49654677Y-122159650D03*
G04 #@! TO.P,U1,14*
G04 #@! TO.N,/ROW1*
X50924677Y-122159650D03*
G04 #@! TO.P,U1,15*
G04 #@! TO.N,/ROW0*
X52184677Y-122159650D03*
G04 #@! TO.P,U1,16*
G04 #@! TO.N,+5V*
X53464677Y-122159650D03*
G04 #@! TD*
D12*
G04 #@! TO.P,U2,1*
G04 #@! TO.N,/READ*
X61639514Y-129092137D03*
G04 #@! TO.P,U2,2*
G04 #@! TO.N,Net-(R7-Pad1)*
X60369514Y-129092137D03*
G04 #@! TO.P,U2,3*
G04 #@! TO.N,Net-(R10-Pad2)*
X59099514Y-129092137D03*
G04 #@! TO.P,U2,4*
G04 #@! TO.N,GND*
X57829514Y-129092137D03*
G04 #@! TO.P,U2,5*
X57829514Y-121692137D03*
G04 #@! TO.P,U2,6*
X59099514Y-121692137D03*
G04 #@! TO.P,U2,7*
G04 #@! TO.N,Net-(U2-Pad7)*
X60369514Y-121692137D03*
G04 #@! TO.P,U2,8*
G04 #@! TO.N,+5V*
X61639514Y-121692137D03*
G04 #@! TD*
D13*
G04 #@! TO.P,J4,6*
G04 #@! TO.N,+5V*
X119700000Y-117900000D03*
G04 #@! TO.P,J4,5*
G04 #@! TO.N,/MUX_A*
X118200000Y-117900000D03*
G04 #@! TO.P,J4,4*
G04 #@! TO.N,/MUX_B*
X116700000Y-117900000D03*
G04 #@! TO.P,J4,3*
G04 #@! TO.N,/MUX_C*
X115200000Y-117900000D03*
G04 #@! TO.P,J4,2*
G04 #@! TO.N,/MUX_EN*
X113700000Y-117900000D03*
D14*
G04 #@! TO.P,J4,1*
G04 #@! TO.N,/DRAIN*
X112200000Y-117900000D03*
G04 #@! TD*
G04 #@! TO.P,J5,1*
G04 #@! TO.N,GND*
X123100000Y-117800000D03*
D13*
G04 #@! TO.P,J5,2*
G04 #@! TO.N,/READ*
X124600000Y-117800000D03*
G04 #@! TO.P,J5,3*
G04 #@! TO.N,/COL_EN*
X126100000Y-117800000D03*
G04 #@! TO.P,J5,4*
G04 #@! TO.N,/COL_C*
X127600000Y-117800000D03*
G04 #@! TO.P,J5,5*
G04 #@! TO.N,/COL_B*
X129100000Y-117800000D03*
G04 #@! TO.P,J5,6*
G04 #@! TO.N,/COL_A*
X130600000Y-117800000D03*
G04 #@! TD*
D15*
G04 #@! TO.P,U4,1*
G04 #@! TO.N,/COL_A*
X112300000Y-122000000D03*
D16*
G04 #@! TO.P,U4,9*
G04 #@! TO.N,Net-(U4-Pad9)*
X130080000Y-129620000D03*
G04 #@! TO.P,U4,2*
G04 #@! TO.N,/COL_B*
X114840000Y-122000000D03*
G04 #@! TO.P,U4,10*
G04 #@! TO.N,/COL5*
X127540000Y-129620000D03*
G04 #@! TO.P,U4,3*
G04 #@! TO.N,/COL_C*
X117380000Y-122000000D03*
G04 #@! TO.P,U4,11*
G04 #@! TO.N,/COL4*
X125000000Y-129620000D03*
G04 #@! TO.P,U4,4*
G04 #@! TO.N,GND*
X119920000Y-122000000D03*
G04 #@! TO.P,U4,12*
G04 #@! TO.N,/COL3*
X122460000Y-129620000D03*
G04 #@! TO.P,U4,5*
G04 #@! TO.N,GND*
X122460000Y-122000000D03*
G04 #@! TO.P,U4,13*
G04 #@! TO.N,/COL2*
X119920000Y-129620000D03*
G04 #@! TO.P,U4,6*
G04 #@! TO.N,/COL_EN*
X125000000Y-122000000D03*
G04 #@! TO.P,U4,14*
G04 #@! TO.N,/COL1*
X117380000Y-129620000D03*
G04 #@! TO.P,U4,7*
G04 #@! TO.N,Net-(U4-Pad7)*
X127540000Y-122000000D03*
G04 #@! TO.P,U4,15*
G04 #@! TO.N,/COL0*
X114840000Y-129620000D03*
G04 #@! TO.P,U4,8*
G04 #@! TO.N,GND*
X130080000Y-122000000D03*
G04 #@! TO.P,U4,16*
G04 #@! TO.N,+5V*
X112300000Y-129620000D03*
G04 #@! TD*
D17*
G04 #@! TO.N,Net-(C1-Pad1)*
G04 #@! TO.C,C1*
G36*
X55860779Y-124151144D02*
X55883834Y-124154563D01*
X55906443Y-124160227D01*
X55928387Y-124168079D01*
X55949457Y-124178044D01*
X55969448Y-124190026D01*
X55988168Y-124203910D01*
X56005438Y-124219562D01*
X56021090Y-124236832D01*
X56034974Y-124255552D01*
X56046956Y-124275543D01*
X56056921Y-124296613D01*
X56064773Y-124318557D01*
X56070437Y-124341166D01*
X56073856Y-124364221D01*
X56075000Y-124387500D01*
X56075000Y-124962500D01*
X56073856Y-124985779D01*
X56070437Y-125008834D01*
X56064773Y-125031443D01*
X56056921Y-125053387D01*
X56046956Y-125074457D01*
X56034974Y-125094448D01*
X56021090Y-125113168D01*
X56005438Y-125130438D01*
X55988168Y-125146090D01*
X55969448Y-125159974D01*
X55949457Y-125171956D01*
X55928387Y-125181921D01*
X55906443Y-125189773D01*
X55883834Y-125195437D01*
X55860779Y-125198856D01*
X55837500Y-125200000D01*
X55362500Y-125200000D01*
X55339221Y-125198856D01*
X55316166Y-125195437D01*
X55293557Y-125189773D01*
X55271613Y-125181921D01*
X55250543Y-125171956D01*
X55230552Y-125159974D01*
X55211832Y-125146090D01*
X55194562Y-125130438D01*
X55178910Y-125113168D01*
X55165026Y-125094448D01*
X55153044Y-125074457D01*
X55143079Y-125053387D01*
X55135227Y-125031443D01*
X55129563Y-125008834D01*
X55126144Y-124985779D01*
X55125000Y-124962500D01*
X55125000Y-124387500D01*
X55126144Y-124364221D01*
X55129563Y-124341166D01*
X55135227Y-124318557D01*
X55143079Y-124296613D01*
X55153044Y-124275543D01*
X55165026Y-124255552D01*
X55178910Y-124236832D01*
X55194562Y-124219562D01*
X55211832Y-124203910D01*
X55230552Y-124190026D01*
X55250543Y-124178044D01*
X55271613Y-124168079D01*
X55293557Y-124160227D01*
X55316166Y-124154563D01*
X55339221Y-124151144D01*
X55362500Y-124150000D01*
X55837500Y-124150000D01*
X55860779Y-124151144D01*
X55860779Y-124151144D01*
G37*
D18*
G04 #@! TD*
G04 #@! TO.P,C1,1*
G04 #@! TO.N,Net-(C1-Pad1)*
X55600000Y-124675000D03*
D17*
G04 #@! TO.N,GND*
G04 #@! TO.C,C1*
G36*
X55860779Y-122401144D02*
X55883834Y-122404563D01*
X55906443Y-122410227D01*
X55928387Y-122418079D01*
X55949457Y-122428044D01*
X55969448Y-122440026D01*
X55988168Y-122453910D01*
X56005438Y-122469562D01*
X56021090Y-122486832D01*
X56034974Y-122505552D01*
X56046956Y-122525543D01*
X56056921Y-122546613D01*
X56064773Y-122568557D01*
X56070437Y-122591166D01*
X56073856Y-122614221D01*
X56075000Y-122637500D01*
X56075000Y-123212500D01*
X56073856Y-123235779D01*
X56070437Y-123258834D01*
X56064773Y-123281443D01*
X56056921Y-123303387D01*
X56046956Y-123324457D01*
X56034974Y-123344448D01*
X56021090Y-123363168D01*
X56005438Y-123380438D01*
X55988168Y-123396090D01*
X55969448Y-123409974D01*
X55949457Y-123421956D01*
X55928387Y-123431921D01*
X55906443Y-123439773D01*
X55883834Y-123445437D01*
X55860779Y-123448856D01*
X55837500Y-123450000D01*
X55362500Y-123450000D01*
X55339221Y-123448856D01*
X55316166Y-123445437D01*
X55293557Y-123439773D01*
X55271613Y-123431921D01*
X55250543Y-123421956D01*
X55230552Y-123409974D01*
X55211832Y-123396090D01*
X55194562Y-123380438D01*
X55178910Y-123363168D01*
X55165026Y-123344448D01*
X55153044Y-123324457D01*
X55143079Y-123303387D01*
X55135227Y-123281443D01*
X55129563Y-123258834D01*
X55126144Y-123235779D01*
X55125000Y-123212500D01*
X55125000Y-122637500D01*
X55126144Y-122614221D01*
X55129563Y-122591166D01*
X55135227Y-122568557D01*
X55143079Y-122546613D01*
X55153044Y-122525543D01*
X55165026Y-122505552D01*
X55178910Y-122486832D01*
X55194562Y-122469562D01*
X55211832Y-122453910D01*
X55230552Y-122440026D01*
X55250543Y-122428044D01*
X55271613Y-122418079D01*
X55293557Y-122410227D01*
X55316166Y-122404563D01*
X55339221Y-122401144D01*
X55362500Y-122400000D01*
X55837500Y-122400000D01*
X55860779Y-122401144D01*
X55860779Y-122401144D01*
G37*
D18*
G04 #@! TD*
G04 #@! TO.P,C1,2*
G04 #@! TO.N,GND*
X55600000Y-122925000D03*
D17*
G04 #@! TO.N,GND*
G04 #@! TO.C,C2*
G36*
X86101190Y-128710733D02*
X86124245Y-128714152D01*
X86146854Y-128719816D01*
X86168798Y-128727668D01*
X86189868Y-128737633D01*
X86209859Y-128749615D01*
X86228579Y-128763499D01*
X86245849Y-128779151D01*
X86261501Y-128796421D01*
X86275385Y-128815141D01*
X86287367Y-128835132D01*
X86297332Y-128856202D01*
X86305184Y-128878146D01*
X86310848Y-128900755D01*
X86314267Y-128923810D01*
X86315411Y-128947089D01*
X86315411Y-129422089D01*
X86314267Y-129445368D01*
X86310848Y-129468423D01*
X86305184Y-129491032D01*
X86297332Y-129512976D01*
X86287367Y-129534046D01*
X86275385Y-129554037D01*
X86261501Y-129572757D01*
X86245849Y-129590027D01*
X86228579Y-129605679D01*
X86209859Y-129619563D01*
X86189868Y-129631545D01*
X86168798Y-129641510D01*
X86146854Y-129649362D01*
X86124245Y-129655026D01*
X86101190Y-129658445D01*
X86077911Y-129659589D01*
X85502911Y-129659589D01*
X85479632Y-129658445D01*
X85456577Y-129655026D01*
X85433968Y-129649362D01*
X85412024Y-129641510D01*
X85390954Y-129631545D01*
X85370963Y-129619563D01*
X85352243Y-129605679D01*
X85334973Y-129590027D01*
X85319321Y-129572757D01*
X85305437Y-129554037D01*
X85293455Y-129534046D01*
X85283490Y-129512976D01*
X85275638Y-129491032D01*
X85269974Y-129468423D01*
X85266555Y-129445368D01*
X85265411Y-129422089D01*
X85265411Y-128947089D01*
X85266555Y-128923810D01*
X85269974Y-128900755D01*
X85275638Y-128878146D01*
X85283490Y-128856202D01*
X85293455Y-128835132D01*
X85305437Y-128815141D01*
X85319321Y-128796421D01*
X85334973Y-128779151D01*
X85352243Y-128763499D01*
X85370963Y-128749615D01*
X85390954Y-128737633D01*
X85412024Y-128727668D01*
X85433968Y-128719816D01*
X85456577Y-128714152D01*
X85479632Y-128710733D01*
X85502911Y-128709589D01*
X86077911Y-128709589D01*
X86101190Y-128710733D01*
X86101190Y-128710733D01*
G37*
D18*
G04 #@! TD*
G04 #@! TO.P,C2,2*
G04 #@! TO.N,GND*
X85790411Y-129184589D03*
D17*
G04 #@! TO.N,/COL0*
G04 #@! TO.C,C2*
G36*
X84351190Y-128710733D02*
X84374245Y-128714152D01*
X84396854Y-128719816D01*
X84418798Y-128727668D01*
X84439868Y-128737633D01*
X84459859Y-128749615D01*
X84478579Y-128763499D01*
X84495849Y-128779151D01*
X84511501Y-128796421D01*
X84525385Y-128815141D01*
X84537367Y-128835132D01*
X84547332Y-128856202D01*
X84555184Y-128878146D01*
X84560848Y-128900755D01*
X84564267Y-128923810D01*
X84565411Y-128947089D01*
X84565411Y-129422089D01*
X84564267Y-129445368D01*
X84560848Y-129468423D01*
X84555184Y-129491032D01*
X84547332Y-129512976D01*
X84537367Y-129534046D01*
X84525385Y-129554037D01*
X84511501Y-129572757D01*
X84495849Y-129590027D01*
X84478579Y-129605679D01*
X84459859Y-129619563D01*
X84439868Y-129631545D01*
X84418798Y-129641510D01*
X84396854Y-129649362D01*
X84374245Y-129655026D01*
X84351190Y-129658445D01*
X84327911Y-129659589D01*
X83752911Y-129659589D01*
X83729632Y-129658445D01*
X83706577Y-129655026D01*
X83683968Y-129649362D01*
X83662024Y-129641510D01*
X83640954Y-129631545D01*
X83620963Y-129619563D01*
X83602243Y-129605679D01*
X83584973Y-129590027D01*
X83569321Y-129572757D01*
X83555437Y-129554037D01*
X83543455Y-129534046D01*
X83533490Y-129512976D01*
X83525638Y-129491032D01*
X83519974Y-129468423D01*
X83516555Y-129445368D01*
X83515411Y-129422089D01*
X83515411Y-128947089D01*
X83516555Y-128923810D01*
X83519974Y-128900755D01*
X83525638Y-128878146D01*
X83533490Y-128856202D01*
X83543455Y-128835132D01*
X83555437Y-128815141D01*
X83569321Y-128796421D01*
X83584973Y-128779151D01*
X83602243Y-128763499D01*
X83620963Y-128749615D01*
X83640954Y-128737633D01*
X83662024Y-128727668D01*
X83683968Y-128719816D01*
X83706577Y-128714152D01*
X83729632Y-128710733D01*
X83752911Y-128709589D01*
X84327911Y-128709589D01*
X84351190Y-128710733D01*
X84351190Y-128710733D01*
G37*
D18*
G04 #@! TD*
G04 #@! TO.P,C2,1*
G04 #@! TO.N,/COL0*
X84040411Y-129184589D03*
D17*
G04 #@! TO.N,GND*
G04 #@! TO.C,C3*
G36*
X108235779Y-131326144D02*
X108258834Y-131329563D01*
X108281443Y-131335227D01*
X108303387Y-131343079D01*
X108324457Y-131353044D01*
X108344448Y-131365026D01*
X108363168Y-131378910D01*
X108380438Y-131394562D01*
X108396090Y-131411832D01*
X108409974Y-131430552D01*
X108421956Y-131450543D01*
X108431921Y-131471613D01*
X108439773Y-131493557D01*
X108445437Y-131516166D01*
X108448856Y-131539221D01*
X108450000Y-131562500D01*
X108450000Y-132037500D01*
X108448856Y-132060779D01*
X108445437Y-132083834D01*
X108439773Y-132106443D01*
X108431921Y-132128387D01*
X108421956Y-132149457D01*
X108409974Y-132169448D01*
X108396090Y-132188168D01*
X108380438Y-132205438D01*
X108363168Y-132221090D01*
X108344448Y-132234974D01*
X108324457Y-132246956D01*
X108303387Y-132256921D01*
X108281443Y-132264773D01*
X108258834Y-132270437D01*
X108235779Y-132273856D01*
X108212500Y-132275000D01*
X107637500Y-132275000D01*
X107614221Y-132273856D01*
X107591166Y-132270437D01*
X107568557Y-132264773D01*
X107546613Y-132256921D01*
X107525543Y-132246956D01*
X107505552Y-132234974D01*
X107486832Y-132221090D01*
X107469562Y-132205438D01*
X107453910Y-132188168D01*
X107440026Y-132169448D01*
X107428044Y-132149457D01*
X107418079Y-132128387D01*
X107410227Y-132106443D01*
X107404563Y-132083834D01*
X107401144Y-132060779D01*
X107400000Y-132037500D01*
X107400000Y-131562500D01*
X107401144Y-131539221D01*
X107404563Y-131516166D01*
X107410227Y-131493557D01*
X107418079Y-131471613D01*
X107428044Y-131450543D01*
X107440026Y-131430552D01*
X107453910Y-131411832D01*
X107469562Y-131394562D01*
X107486832Y-131378910D01*
X107505552Y-131365026D01*
X107525543Y-131353044D01*
X107546613Y-131343079D01*
X107568557Y-131335227D01*
X107591166Y-131329563D01*
X107614221Y-131326144D01*
X107637500Y-131325000D01*
X108212500Y-131325000D01*
X108235779Y-131326144D01*
X108235779Y-131326144D01*
G37*
D18*
G04 #@! TD*
G04 #@! TO.P,C3,2*
G04 #@! TO.N,GND*
X107925000Y-131800000D03*
D17*
G04 #@! TO.N,/COL1*
G04 #@! TO.C,C3*
G36*
X109985779Y-131326144D02*
X110008834Y-131329563D01*
X110031443Y-131335227D01*
X110053387Y-131343079D01*
X110074457Y-131353044D01*
X110094448Y-131365026D01*
X110113168Y-131378910D01*
X110130438Y-131394562D01*
X110146090Y-131411832D01*
X110159974Y-131430552D01*
X110171956Y-131450543D01*
X110181921Y-131471613D01*
X110189773Y-131493557D01*
X110195437Y-131516166D01*
X110198856Y-131539221D01*
X110200000Y-131562500D01*
X110200000Y-132037500D01*
X110198856Y-132060779D01*
X110195437Y-132083834D01*
X110189773Y-132106443D01*
X110181921Y-132128387D01*
X110171956Y-132149457D01*
X110159974Y-132169448D01*
X110146090Y-132188168D01*
X110130438Y-132205438D01*
X110113168Y-132221090D01*
X110094448Y-132234974D01*
X110074457Y-132246956D01*
X110053387Y-132256921D01*
X110031443Y-132264773D01*
X110008834Y-132270437D01*
X109985779Y-132273856D01*
X109962500Y-132275000D01*
X109387500Y-132275000D01*
X109364221Y-132273856D01*
X109341166Y-132270437D01*
X109318557Y-132264773D01*
X109296613Y-132256921D01*
X109275543Y-132246956D01*
X109255552Y-132234974D01*
X109236832Y-132221090D01*
X109219562Y-132205438D01*
X109203910Y-132188168D01*
X109190026Y-132169448D01*
X109178044Y-132149457D01*
X109168079Y-132128387D01*
X109160227Y-132106443D01*
X109154563Y-132083834D01*
X109151144Y-132060779D01*
X109150000Y-132037500D01*
X109150000Y-131562500D01*
X109151144Y-131539221D01*
X109154563Y-131516166D01*
X109160227Y-131493557D01*
X109168079Y-131471613D01*
X109178044Y-131450543D01*
X109190026Y-131430552D01*
X109203910Y-131411832D01*
X109219562Y-131394562D01*
X109236832Y-131378910D01*
X109255552Y-131365026D01*
X109275543Y-131353044D01*
X109296613Y-131343079D01*
X109318557Y-131335227D01*
X109341166Y-131329563D01*
X109364221Y-131326144D01*
X109387500Y-131325000D01*
X109962500Y-131325000D01*
X109985779Y-131326144D01*
X109985779Y-131326144D01*
G37*
D18*
G04 #@! TD*
G04 #@! TO.P,C3,1*
G04 #@! TO.N,/COL1*
X109675000Y-131800000D03*
D17*
G04 #@! TO.N,/COL3*
G04 #@! TO.C,C5*
G36*
X136285779Y-121902227D02*
X136308834Y-121905646D01*
X136331443Y-121911310D01*
X136353387Y-121919162D01*
X136374457Y-121929127D01*
X136394448Y-121941109D01*
X136413168Y-121954993D01*
X136430438Y-121970645D01*
X136446090Y-121987915D01*
X136459974Y-122006635D01*
X136471956Y-122026626D01*
X136481921Y-122047696D01*
X136489773Y-122069640D01*
X136495437Y-122092249D01*
X136498856Y-122115304D01*
X136500000Y-122138583D01*
X136500000Y-122613583D01*
X136498856Y-122636862D01*
X136495437Y-122659917D01*
X136489773Y-122682526D01*
X136481921Y-122704470D01*
X136471956Y-122725540D01*
X136459974Y-122745531D01*
X136446090Y-122764251D01*
X136430438Y-122781521D01*
X136413168Y-122797173D01*
X136394448Y-122811057D01*
X136374457Y-122823039D01*
X136353387Y-122833004D01*
X136331443Y-122840856D01*
X136308834Y-122846520D01*
X136285779Y-122849939D01*
X136262500Y-122851083D01*
X135687500Y-122851083D01*
X135664221Y-122849939D01*
X135641166Y-122846520D01*
X135618557Y-122840856D01*
X135596613Y-122833004D01*
X135575543Y-122823039D01*
X135555552Y-122811057D01*
X135536832Y-122797173D01*
X135519562Y-122781521D01*
X135503910Y-122764251D01*
X135490026Y-122745531D01*
X135478044Y-122725540D01*
X135468079Y-122704470D01*
X135460227Y-122682526D01*
X135454563Y-122659917D01*
X135451144Y-122636862D01*
X135450000Y-122613583D01*
X135450000Y-122138583D01*
X135451144Y-122115304D01*
X135454563Y-122092249D01*
X135460227Y-122069640D01*
X135468079Y-122047696D01*
X135478044Y-122026626D01*
X135490026Y-122006635D01*
X135503910Y-121987915D01*
X135519562Y-121970645D01*
X135536832Y-121954993D01*
X135555552Y-121941109D01*
X135575543Y-121929127D01*
X135596613Y-121919162D01*
X135618557Y-121911310D01*
X135641166Y-121905646D01*
X135664221Y-121902227D01*
X135687500Y-121901083D01*
X136262500Y-121901083D01*
X136285779Y-121902227D01*
X136285779Y-121902227D01*
G37*
D18*
G04 #@! TD*
G04 #@! TO.P,C5,1*
G04 #@! TO.N,/COL3*
X135975000Y-122376083D03*
D17*
G04 #@! TO.N,GND*
G04 #@! TO.C,C5*
G36*
X134535779Y-121902227D02*
X134558834Y-121905646D01*
X134581443Y-121911310D01*
X134603387Y-121919162D01*
X134624457Y-121929127D01*
X134644448Y-121941109D01*
X134663168Y-121954993D01*
X134680438Y-121970645D01*
X134696090Y-121987915D01*
X134709974Y-122006635D01*
X134721956Y-122026626D01*
X134731921Y-122047696D01*
X134739773Y-122069640D01*
X134745437Y-122092249D01*
X134748856Y-122115304D01*
X134750000Y-122138583D01*
X134750000Y-122613583D01*
X134748856Y-122636862D01*
X134745437Y-122659917D01*
X134739773Y-122682526D01*
X134731921Y-122704470D01*
X134721956Y-122725540D01*
X134709974Y-122745531D01*
X134696090Y-122764251D01*
X134680438Y-122781521D01*
X134663168Y-122797173D01*
X134644448Y-122811057D01*
X134624457Y-122823039D01*
X134603387Y-122833004D01*
X134581443Y-122840856D01*
X134558834Y-122846520D01*
X134535779Y-122849939D01*
X134512500Y-122851083D01*
X133937500Y-122851083D01*
X133914221Y-122849939D01*
X133891166Y-122846520D01*
X133868557Y-122840856D01*
X133846613Y-122833004D01*
X133825543Y-122823039D01*
X133805552Y-122811057D01*
X133786832Y-122797173D01*
X133769562Y-122781521D01*
X133753910Y-122764251D01*
X133740026Y-122745531D01*
X133728044Y-122725540D01*
X133718079Y-122704470D01*
X133710227Y-122682526D01*
X133704563Y-122659917D01*
X133701144Y-122636862D01*
X133700000Y-122613583D01*
X133700000Y-122138583D01*
X133701144Y-122115304D01*
X133704563Y-122092249D01*
X133710227Y-122069640D01*
X133718079Y-122047696D01*
X133728044Y-122026626D01*
X133740026Y-122006635D01*
X133753910Y-121987915D01*
X133769562Y-121970645D01*
X133786832Y-121954993D01*
X133805552Y-121941109D01*
X133825543Y-121929127D01*
X133846613Y-121919162D01*
X133868557Y-121911310D01*
X133891166Y-121905646D01*
X133914221Y-121902227D01*
X133937500Y-121901083D01*
X134512500Y-121901083D01*
X134535779Y-121902227D01*
X134535779Y-121902227D01*
G37*
D18*
G04 #@! TD*
G04 #@! TO.P,C5,2*
G04 #@! TO.N,GND*
X134225000Y-122376083D03*
D17*
G04 #@! TO.N,GND*
G04 #@! TO.C,C6*
G36*
X134585779Y-126626144D02*
X134608834Y-126629563D01*
X134631443Y-126635227D01*
X134653387Y-126643079D01*
X134674457Y-126653044D01*
X134694448Y-126665026D01*
X134713168Y-126678910D01*
X134730438Y-126694562D01*
X134746090Y-126711832D01*
X134759974Y-126730552D01*
X134771956Y-126750543D01*
X134781921Y-126771613D01*
X134789773Y-126793557D01*
X134795437Y-126816166D01*
X134798856Y-126839221D01*
X134800000Y-126862500D01*
X134800000Y-127337500D01*
X134798856Y-127360779D01*
X134795437Y-127383834D01*
X134789773Y-127406443D01*
X134781921Y-127428387D01*
X134771956Y-127449457D01*
X134759974Y-127469448D01*
X134746090Y-127488168D01*
X134730438Y-127505438D01*
X134713168Y-127521090D01*
X134694448Y-127534974D01*
X134674457Y-127546956D01*
X134653387Y-127556921D01*
X134631443Y-127564773D01*
X134608834Y-127570437D01*
X134585779Y-127573856D01*
X134562500Y-127575000D01*
X133987500Y-127575000D01*
X133964221Y-127573856D01*
X133941166Y-127570437D01*
X133918557Y-127564773D01*
X133896613Y-127556921D01*
X133875543Y-127546956D01*
X133855552Y-127534974D01*
X133836832Y-127521090D01*
X133819562Y-127505438D01*
X133803910Y-127488168D01*
X133790026Y-127469448D01*
X133778044Y-127449457D01*
X133768079Y-127428387D01*
X133760227Y-127406443D01*
X133754563Y-127383834D01*
X133751144Y-127360779D01*
X133750000Y-127337500D01*
X133750000Y-126862500D01*
X133751144Y-126839221D01*
X133754563Y-126816166D01*
X133760227Y-126793557D01*
X133768079Y-126771613D01*
X133778044Y-126750543D01*
X133790026Y-126730552D01*
X133803910Y-126711832D01*
X133819562Y-126694562D01*
X133836832Y-126678910D01*
X133855552Y-126665026D01*
X133875543Y-126653044D01*
X133896613Y-126643079D01*
X133918557Y-126635227D01*
X133941166Y-126629563D01*
X133964221Y-126626144D01*
X133987500Y-126625000D01*
X134562500Y-126625000D01*
X134585779Y-126626144D01*
X134585779Y-126626144D01*
G37*
D18*
G04 #@! TD*
G04 #@! TO.P,C6,2*
G04 #@! TO.N,GND*
X134275000Y-127100000D03*
D17*
G04 #@! TO.N,/COL4*
G04 #@! TO.C,C6*
G36*
X132835779Y-126626144D02*
X132858834Y-126629563D01*
X132881443Y-126635227D01*
X132903387Y-126643079D01*
X132924457Y-126653044D01*
X132944448Y-126665026D01*
X132963168Y-126678910D01*
X132980438Y-126694562D01*
X132996090Y-126711832D01*
X133009974Y-126730552D01*
X133021956Y-126750543D01*
X133031921Y-126771613D01*
X133039773Y-126793557D01*
X133045437Y-126816166D01*
X133048856Y-126839221D01*
X133050000Y-126862500D01*
X133050000Y-127337500D01*
X133048856Y-127360779D01*
X133045437Y-127383834D01*
X133039773Y-127406443D01*
X133031921Y-127428387D01*
X133021956Y-127449457D01*
X133009974Y-127469448D01*
X132996090Y-127488168D01*
X132980438Y-127505438D01*
X132963168Y-127521090D01*
X132944448Y-127534974D01*
X132924457Y-127546956D01*
X132903387Y-127556921D01*
X132881443Y-127564773D01*
X132858834Y-127570437D01*
X132835779Y-127573856D01*
X132812500Y-127575000D01*
X132237500Y-127575000D01*
X132214221Y-127573856D01*
X132191166Y-127570437D01*
X132168557Y-127564773D01*
X132146613Y-127556921D01*
X132125543Y-127546956D01*
X132105552Y-127534974D01*
X132086832Y-127521090D01*
X132069562Y-127505438D01*
X132053910Y-127488168D01*
X132040026Y-127469448D01*
X132028044Y-127449457D01*
X132018079Y-127428387D01*
X132010227Y-127406443D01*
X132004563Y-127383834D01*
X132001144Y-127360779D01*
X132000000Y-127337500D01*
X132000000Y-126862500D01*
X132001144Y-126839221D01*
X132004563Y-126816166D01*
X132010227Y-126793557D01*
X132018079Y-126771613D01*
X132028044Y-126750543D01*
X132040026Y-126730552D01*
X132053910Y-126711832D01*
X132069562Y-126694562D01*
X132086832Y-126678910D01*
X132105552Y-126665026D01*
X132125543Y-126653044D01*
X132146613Y-126643079D01*
X132168557Y-126635227D01*
X132191166Y-126629563D01*
X132214221Y-126626144D01*
X132237500Y-126625000D01*
X132812500Y-126625000D01*
X132835779Y-126626144D01*
X132835779Y-126626144D01*
G37*
D18*
G04 #@! TD*
G04 #@! TO.P,C6,1*
G04 #@! TO.N,/COL4*
X132525000Y-127100000D03*
D17*
G04 #@! TO.N,/COL5*
G04 #@! TO.C,C7*
G36*
X132798182Y-129723693D02*
X132821237Y-129727112D01*
X132843846Y-129732776D01*
X132865790Y-129740628D01*
X132886860Y-129750593D01*
X132906851Y-129762575D01*
X132925571Y-129776459D01*
X132942841Y-129792111D01*
X132958493Y-129809381D01*
X132972377Y-129828101D01*
X132984359Y-129848092D01*
X132994324Y-129869162D01*
X133002176Y-129891106D01*
X133007840Y-129913715D01*
X133011259Y-129936770D01*
X133012403Y-129960049D01*
X133012403Y-130435049D01*
X133011259Y-130458328D01*
X133007840Y-130481383D01*
X133002176Y-130503992D01*
X132994324Y-130525936D01*
X132984359Y-130547006D01*
X132972377Y-130566997D01*
X132958493Y-130585717D01*
X132942841Y-130602987D01*
X132925571Y-130618639D01*
X132906851Y-130632523D01*
X132886860Y-130644505D01*
X132865790Y-130654470D01*
X132843846Y-130662322D01*
X132821237Y-130667986D01*
X132798182Y-130671405D01*
X132774903Y-130672549D01*
X132199903Y-130672549D01*
X132176624Y-130671405D01*
X132153569Y-130667986D01*
X132130960Y-130662322D01*
X132109016Y-130654470D01*
X132087946Y-130644505D01*
X132067955Y-130632523D01*
X132049235Y-130618639D01*
X132031965Y-130602987D01*
X132016313Y-130585717D01*
X132002429Y-130566997D01*
X131990447Y-130547006D01*
X131980482Y-130525936D01*
X131972630Y-130503992D01*
X131966966Y-130481383D01*
X131963547Y-130458328D01*
X131962403Y-130435049D01*
X131962403Y-129960049D01*
X131963547Y-129936770D01*
X131966966Y-129913715D01*
X131972630Y-129891106D01*
X131980482Y-129869162D01*
X131990447Y-129848092D01*
X132002429Y-129828101D01*
X132016313Y-129809381D01*
X132031965Y-129792111D01*
X132049235Y-129776459D01*
X132067955Y-129762575D01*
X132087946Y-129750593D01*
X132109016Y-129740628D01*
X132130960Y-129732776D01*
X132153569Y-129727112D01*
X132176624Y-129723693D01*
X132199903Y-129722549D01*
X132774903Y-129722549D01*
X132798182Y-129723693D01*
X132798182Y-129723693D01*
G37*
D18*
G04 #@! TD*
G04 #@! TO.P,C7,1*
G04 #@! TO.N,/COL5*
X132487403Y-130197549D03*
D17*
G04 #@! TO.N,GND*
G04 #@! TO.C,C7*
G36*
X134548182Y-129723693D02*
X134571237Y-129727112D01*
X134593846Y-129732776D01*
X134615790Y-129740628D01*
X134636860Y-129750593D01*
X134656851Y-129762575D01*
X134675571Y-129776459D01*
X134692841Y-129792111D01*
X134708493Y-129809381D01*
X134722377Y-129828101D01*
X134734359Y-129848092D01*
X134744324Y-129869162D01*
X134752176Y-129891106D01*
X134757840Y-129913715D01*
X134761259Y-129936770D01*
X134762403Y-129960049D01*
X134762403Y-130435049D01*
X134761259Y-130458328D01*
X134757840Y-130481383D01*
X134752176Y-130503992D01*
X134744324Y-130525936D01*
X134734359Y-130547006D01*
X134722377Y-130566997D01*
X134708493Y-130585717D01*
X134692841Y-130602987D01*
X134675571Y-130618639D01*
X134656851Y-130632523D01*
X134636860Y-130644505D01*
X134615790Y-130654470D01*
X134593846Y-130662322D01*
X134571237Y-130667986D01*
X134548182Y-130671405D01*
X134524903Y-130672549D01*
X133949903Y-130672549D01*
X133926624Y-130671405D01*
X133903569Y-130667986D01*
X133880960Y-130662322D01*
X133859016Y-130654470D01*
X133837946Y-130644505D01*
X133817955Y-130632523D01*
X133799235Y-130618639D01*
X133781965Y-130602987D01*
X133766313Y-130585717D01*
X133752429Y-130566997D01*
X133740447Y-130547006D01*
X133730482Y-130525936D01*
X133722630Y-130503992D01*
X133716966Y-130481383D01*
X133713547Y-130458328D01*
X133712403Y-130435049D01*
X133712403Y-129960049D01*
X133713547Y-129936770D01*
X133716966Y-129913715D01*
X133722630Y-129891106D01*
X133730482Y-129869162D01*
X133740447Y-129848092D01*
X133752429Y-129828101D01*
X133766313Y-129809381D01*
X133781965Y-129792111D01*
X133799235Y-129776459D01*
X133817955Y-129762575D01*
X133837946Y-129750593D01*
X133859016Y-129740628D01*
X133880960Y-129732776D01*
X133903569Y-129727112D01*
X133926624Y-129723693D01*
X133949903Y-129722549D01*
X134524903Y-129722549D01*
X134548182Y-129723693D01*
X134548182Y-129723693D01*
G37*
D18*
G04 #@! TD*
G04 #@! TO.P,C7,2*
G04 #@! TO.N,GND*
X134237403Y-130197549D03*
D17*
G04 #@! TO.N,+5V*
G04 #@! TO.C,C17*
G36*
X53760779Y-119951144D02*
X53783834Y-119954563D01*
X53806443Y-119960227D01*
X53828387Y-119968079D01*
X53849457Y-119978044D01*
X53869448Y-119990026D01*
X53888168Y-120003910D01*
X53905438Y-120019562D01*
X53921090Y-120036832D01*
X53934974Y-120055552D01*
X53946956Y-120075543D01*
X53956921Y-120096613D01*
X53964773Y-120118557D01*
X53970437Y-120141166D01*
X53973856Y-120164221D01*
X53975000Y-120187500D01*
X53975000Y-120762500D01*
X53973856Y-120785779D01*
X53970437Y-120808834D01*
X53964773Y-120831443D01*
X53956921Y-120853387D01*
X53946956Y-120874457D01*
X53934974Y-120894448D01*
X53921090Y-120913168D01*
X53905438Y-120930438D01*
X53888168Y-120946090D01*
X53869448Y-120959974D01*
X53849457Y-120971956D01*
X53828387Y-120981921D01*
X53806443Y-120989773D01*
X53783834Y-120995437D01*
X53760779Y-120998856D01*
X53737500Y-121000000D01*
X53262500Y-121000000D01*
X53239221Y-120998856D01*
X53216166Y-120995437D01*
X53193557Y-120989773D01*
X53171613Y-120981921D01*
X53150543Y-120971956D01*
X53130552Y-120959974D01*
X53111832Y-120946090D01*
X53094562Y-120930438D01*
X53078910Y-120913168D01*
X53065026Y-120894448D01*
X53053044Y-120874457D01*
X53043079Y-120853387D01*
X53035227Y-120831443D01*
X53029563Y-120808834D01*
X53026144Y-120785779D01*
X53025000Y-120762500D01*
X53025000Y-120187500D01*
X53026144Y-120164221D01*
X53029563Y-120141166D01*
X53035227Y-120118557D01*
X53043079Y-120096613D01*
X53053044Y-120075543D01*
X53065026Y-120055552D01*
X53078910Y-120036832D01*
X53094562Y-120019562D01*
X53111832Y-120003910D01*
X53130552Y-119990026D01*
X53150543Y-119978044D01*
X53171613Y-119968079D01*
X53193557Y-119960227D01*
X53216166Y-119954563D01*
X53239221Y-119951144D01*
X53262500Y-119950000D01*
X53737500Y-119950000D01*
X53760779Y-119951144D01*
X53760779Y-119951144D01*
G37*
D18*
G04 #@! TD*
G04 #@! TO.P,C17,1*
G04 #@! TO.N,+5V*
X53500000Y-120475000D03*
D17*
G04 #@! TO.N,GND*
G04 #@! TO.C,C17*
G36*
X53760779Y-118201144D02*
X53783834Y-118204563D01*
X53806443Y-118210227D01*
X53828387Y-118218079D01*
X53849457Y-118228044D01*
X53869448Y-118240026D01*
X53888168Y-118253910D01*
X53905438Y-118269562D01*
X53921090Y-118286832D01*
X53934974Y-118305552D01*
X53946956Y-118325543D01*
X53956921Y-118346613D01*
X53964773Y-118368557D01*
X53970437Y-118391166D01*
X53973856Y-118414221D01*
X53975000Y-118437500D01*
X53975000Y-119012500D01*
X53973856Y-119035779D01*
X53970437Y-119058834D01*
X53964773Y-119081443D01*
X53956921Y-119103387D01*
X53946956Y-119124457D01*
X53934974Y-119144448D01*
X53921090Y-119163168D01*
X53905438Y-119180438D01*
X53888168Y-119196090D01*
X53869448Y-119209974D01*
X53849457Y-119221956D01*
X53828387Y-119231921D01*
X53806443Y-119239773D01*
X53783834Y-119245437D01*
X53760779Y-119248856D01*
X53737500Y-119250000D01*
X53262500Y-119250000D01*
X53239221Y-119248856D01*
X53216166Y-119245437D01*
X53193557Y-119239773D01*
X53171613Y-119231921D01*
X53150543Y-119221956D01*
X53130552Y-119209974D01*
X53111832Y-119196090D01*
X53094562Y-119180438D01*
X53078910Y-119163168D01*
X53065026Y-119144448D01*
X53053044Y-119124457D01*
X53043079Y-119103387D01*
X53035227Y-119081443D01*
X53029563Y-119058834D01*
X53026144Y-119035779D01*
X53025000Y-119012500D01*
X53025000Y-118437500D01*
X53026144Y-118414221D01*
X53029563Y-118391166D01*
X53035227Y-118368557D01*
X53043079Y-118346613D01*
X53053044Y-118325543D01*
X53065026Y-118305552D01*
X53078910Y-118286832D01*
X53094562Y-118269562D01*
X53111832Y-118253910D01*
X53130552Y-118240026D01*
X53150543Y-118228044D01*
X53171613Y-118218079D01*
X53193557Y-118210227D01*
X53216166Y-118204563D01*
X53239221Y-118201144D01*
X53262500Y-118200000D01*
X53737500Y-118200000D01*
X53760779Y-118201144D01*
X53760779Y-118201144D01*
G37*
D18*
G04 #@! TD*
G04 #@! TO.P,C17,2*
G04 #@! TO.N,GND*
X53500000Y-118725000D03*
D17*
G04 #@! TO.N,+5V*
G04 #@! TO.C,C18*
G36*
X64360779Y-119701144D02*
X64383834Y-119704563D01*
X64406443Y-119710227D01*
X64428387Y-119718079D01*
X64449457Y-119728044D01*
X64469448Y-119740026D01*
X64488168Y-119753910D01*
X64505438Y-119769562D01*
X64521090Y-119786832D01*
X64534974Y-119805552D01*
X64546956Y-119825543D01*
X64556921Y-119846613D01*
X64564773Y-119868557D01*
X64570437Y-119891166D01*
X64573856Y-119914221D01*
X64575000Y-119937500D01*
X64575000Y-120512500D01*
X64573856Y-120535779D01*
X64570437Y-120558834D01*
X64564773Y-120581443D01*
X64556921Y-120603387D01*
X64546956Y-120624457D01*
X64534974Y-120644448D01*
X64521090Y-120663168D01*
X64505438Y-120680438D01*
X64488168Y-120696090D01*
X64469448Y-120709974D01*
X64449457Y-120721956D01*
X64428387Y-120731921D01*
X64406443Y-120739773D01*
X64383834Y-120745437D01*
X64360779Y-120748856D01*
X64337500Y-120750000D01*
X63862500Y-120750000D01*
X63839221Y-120748856D01*
X63816166Y-120745437D01*
X63793557Y-120739773D01*
X63771613Y-120731921D01*
X63750543Y-120721956D01*
X63730552Y-120709974D01*
X63711832Y-120696090D01*
X63694562Y-120680438D01*
X63678910Y-120663168D01*
X63665026Y-120644448D01*
X63653044Y-120624457D01*
X63643079Y-120603387D01*
X63635227Y-120581443D01*
X63629563Y-120558834D01*
X63626144Y-120535779D01*
X63625000Y-120512500D01*
X63625000Y-119937500D01*
X63626144Y-119914221D01*
X63629563Y-119891166D01*
X63635227Y-119868557D01*
X63643079Y-119846613D01*
X63653044Y-119825543D01*
X63665026Y-119805552D01*
X63678910Y-119786832D01*
X63694562Y-119769562D01*
X63711832Y-119753910D01*
X63730552Y-119740026D01*
X63750543Y-119728044D01*
X63771613Y-119718079D01*
X63793557Y-119710227D01*
X63816166Y-119704563D01*
X63839221Y-119701144D01*
X63862500Y-119700000D01*
X64337500Y-119700000D01*
X64360779Y-119701144D01*
X64360779Y-119701144D01*
G37*
D18*
G04 #@! TD*
G04 #@! TO.P,C18,1*
G04 #@! TO.N,+5V*
X64100000Y-120225000D03*
D17*
G04 #@! TO.N,GND*
G04 #@! TO.C,C18*
G36*
X64360779Y-121451144D02*
X64383834Y-121454563D01*
X64406443Y-121460227D01*
X64428387Y-121468079D01*
X64449457Y-121478044D01*
X64469448Y-121490026D01*
X64488168Y-121503910D01*
X64505438Y-121519562D01*
X64521090Y-121536832D01*
X64534974Y-121555552D01*
X64546956Y-121575543D01*
X64556921Y-121596613D01*
X64564773Y-121618557D01*
X64570437Y-121641166D01*
X64573856Y-121664221D01*
X64575000Y-121687500D01*
X64575000Y-122262500D01*
X64573856Y-122285779D01*
X64570437Y-122308834D01*
X64564773Y-122331443D01*
X64556921Y-122353387D01*
X64546956Y-122374457D01*
X64534974Y-122394448D01*
X64521090Y-122413168D01*
X64505438Y-122430438D01*
X64488168Y-122446090D01*
X64469448Y-122459974D01*
X64449457Y-122471956D01*
X64428387Y-122481921D01*
X64406443Y-122489773D01*
X64383834Y-122495437D01*
X64360779Y-122498856D01*
X64337500Y-122500000D01*
X63862500Y-122500000D01*
X63839221Y-122498856D01*
X63816166Y-122495437D01*
X63793557Y-122489773D01*
X63771613Y-122481921D01*
X63750543Y-122471956D01*
X63730552Y-122459974D01*
X63711832Y-122446090D01*
X63694562Y-122430438D01*
X63678910Y-122413168D01*
X63665026Y-122394448D01*
X63653044Y-122374457D01*
X63643079Y-122353387D01*
X63635227Y-122331443D01*
X63629563Y-122308834D01*
X63626144Y-122285779D01*
X63625000Y-122262500D01*
X63625000Y-121687500D01*
X63626144Y-121664221D01*
X63629563Y-121641166D01*
X63635227Y-121618557D01*
X63643079Y-121596613D01*
X63653044Y-121575543D01*
X63665026Y-121555552D01*
X63678910Y-121536832D01*
X63694562Y-121519562D01*
X63711832Y-121503910D01*
X63730552Y-121490026D01*
X63750543Y-121478044D01*
X63771613Y-121468079D01*
X63793557Y-121460227D01*
X63816166Y-121454563D01*
X63839221Y-121451144D01*
X63862500Y-121450000D01*
X64337500Y-121450000D01*
X64360779Y-121451144D01*
X64360779Y-121451144D01*
G37*
D18*
G04 #@! TD*
G04 #@! TO.P,C18,2*
G04 #@! TO.N,GND*
X64100000Y-121975000D03*
D17*
G04 #@! TO.N,/ROW2*
G04 #@! TO.C,R1*
G36*
X49860779Y-119951144D02*
X49883834Y-119954563D01*
X49906443Y-119960227D01*
X49928387Y-119968079D01*
X49949457Y-119978044D01*
X49969448Y-119990026D01*
X49988168Y-120003910D01*
X50005438Y-120019562D01*
X50021090Y-120036832D01*
X50034974Y-120055552D01*
X50046956Y-120075543D01*
X50056921Y-120096613D01*
X50064773Y-120118557D01*
X50070437Y-120141166D01*
X50073856Y-120164221D01*
X50075000Y-120187500D01*
X50075000Y-120762500D01*
X50073856Y-120785779D01*
X50070437Y-120808834D01*
X50064773Y-120831443D01*
X50056921Y-120853387D01*
X50046956Y-120874457D01*
X50034974Y-120894448D01*
X50021090Y-120913168D01*
X50005438Y-120930438D01*
X49988168Y-120946090D01*
X49969448Y-120959974D01*
X49949457Y-120971956D01*
X49928387Y-120981921D01*
X49906443Y-120989773D01*
X49883834Y-120995437D01*
X49860779Y-120998856D01*
X49837500Y-121000000D01*
X49362500Y-121000000D01*
X49339221Y-120998856D01*
X49316166Y-120995437D01*
X49293557Y-120989773D01*
X49271613Y-120981921D01*
X49250543Y-120971956D01*
X49230552Y-120959974D01*
X49211832Y-120946090D01*
X49194562Y-120930438D01*
X49178910Y-120913168D01*
X49165026Y-120894448D01*
X49153044Y-120874457D01*
X49143079Y-120853387D01*
X49135227Y-120831443D01*
X49129563Y-120808834D01*
X49126144Y-120785779D01*
X49125000Y-120762500D01*
X49125000Y-120187500D01*
X49126144Y-120164221D01*
X49129563Y-120141166D01*
X49135227Y-120118557D01*
X49143079Y-120096613D01*
X49153044Y-120075543D01*
X49165026Y-120055552D01*
X49178910Y-120036832D01*
X49194562Y-120019562D01*
X49211832Y-120003910D01*
X49230552Y-119990026D01*
X49250543Y-119978044D01*
X49271613Y-119968079D01*
X49293557Y-119960227D01*
X49316166Y-119954563D01*
X49339221Y-119951144D01*
X49362500Y-119950000D01*
X49837500Y-119950000D01*
X49860779Y-119951144D01*
X49860779Y-119951144D01*
G37*
D18*
G04 #@! TD*
G04 #@! TO.P,R1,1*
G04 #@! TO.N,/ROW2*
X49600000Y-120475000D03*
D17*
G04 #@! TO.N,GND*
G04 #@! TO.C,R1*
G36*
X49860779Y-118201144D02*
X49883834Y-118204563D01*
X49906443Y-118210227D01*
X49928387Y-118218079D01*
X49949457Y-118228044D01*
X49969448Y-118240026D01*
X49988168Y-118253910D01*
X50005438Y-118269562D01*
X50021090Y-118286832D01*
X50034974Y-118305552D01*
X50046956Y-118325543D01*
X50056921Y-118346613D01*
X50064773Y-118368557D01*
X50070437Y-118391166D01*
X50073856Y-118414221D01*
X50075000Y-118437500D01*
X50075000Y-119012500D01*
X50073856Y-119035779D01*
X50070437Y-119058834D01*
X50064773Y-119081443D01*
X50056921Y-119103387D01*
X50046956Y-119124457D01*
X50034974Y-119144448D01*
X50021090Y-119163168D01*
X50005438Y-119180438D01*
X49988168Y-119196090D01*
X49969448Y-119209974D01*
X49949457Y-119221956D01*
X49928387Y-119231921D01*
X49906443Y-119239773D01*
X49883834Y-119245437D01*
X49860779Y-119248856D01*
X49837500Y-119250000D01*
X49362500Y-119250000D01*
X49339221Y-119248856D01*
X49316166Y-119245437D01*
X49293557Y-119239773D01*
X49271613Y-119231921D01*
X49250543Y-119221956D01*
X49230552Y-119209974D01*
X49211832Y-119196090D01*
X49194562Y-119180438D01*
X49178910Y-119163168D01*
X49165026Y-119144448D01*
X49153044Y-119124457D01*
X49143079Y-119103387D01*
X49135227Y-119081443D01*
X49129563Y-119058834D01*
X49126144Y-119035779D01*
X49125000Y-119012500D01*
X49125000Y-118437500D01*
X49126144Y-118414221D01*
X49129563Y-118391166D01*
X49135227Y-118368557D01*
X49143079Y-118346613D01*
X49153044Y-118325543D01*
X49165026Y-118305552D01*
X49178910Y-118286832D01*
X49194562Y-118269562D01*
X49211832Y-118253910D01*
X49230552Y-118240026D01*
X49250543Y-118228044D01*
X49271613Y-118218079D01*
X49293557Y-118210227D01*
X49316166Y-118204563D01*
X49339221Y-118201144D01*
X49362500Y-118200000D01*
X49837500Y-118200000D01*
X49860779Y-118201144D01*
X49860779Y-118201144D01*
G37*
D18*
G04 #@! TD*
G04 #@! TO.P,R1,2*
G04 #@! TO.N,GND*
X49600000Y-118725000D03*
D17*
G04 #@! TO.N,GND*
G04 #@! TO.C,R2*
G36*
X51160779Y-118201144D02*
X51183834Y-118204563D01*
X51206443Y-118210227D01*
X51228387Y-118218079D01*
X51249457Y-118228044D01*
X51269448Y-118240026D01*
X51288168Y-118253910D01*
X51305438Y-118269562D01*
X51321090Y-118286832D01*
X51334974Y-118305552D01*
X51346956Y-118325543D01*
X51356921Y-118346613D01*
X51364773Y-118368557D01*
X51370437Y-118391166D01*
X51373856Y-118414221D01*
X51375000Y-118437500D01*
X51375000Y-119012500D01*
X51373856Y-119035779D01*
X51370437Y-119058834D01*
X51364773Y-119081443D01*
X51356921Y-119103387D01*
X51346956Y-119124457D01*
X51334974Y-119144448D01*
X51321090Y-119163168D01*
X51305438Y-119180438D01*
X51288168Y-119196090D01*
X51269448Y-119209974D01*
X51249457Y-119221956D01*
X51228387Y-119231921D01*
X51206443Y-119239773D01*
X51183834Y-119245437D01*
X51160779Y-119248856D01*
X51137500Y-119250000D01*
X50662500Y-119250000D01*
X50639221Y-119248856D01*
X50616166Y-119245437D01*
X50593557Y-119239773D01*
X50571613Y-119231921D01*
X50550543Y-119221956D01*
X50530552Y-119209974D01*
X50511832Y-119196090D01*
X50494562Y-119180438D01*
X50478910Y-119163168D01*
X50465026Y-119144448D01*
X50453044Y-119124457D01*
X50443079Y-119103387D01*
X50435227Y-119081443D01*
X50429563Y-119058834D01*
X50426144Y-119035779D01*
X50425000Y-119012500D01*
X50425000Y-118437500D01*
X50426144Y-118414221D01*
X50429563Y-118391166D01*
X50435227Y-118368557D01*
X50443079Y-118346613D01*
X50453044Y-118325543D01*
X50465026Y-118305552D01*
X50478910Y-118286832D01*
X50494562Y-118269562D01*
X50511832Y-118253910D01*
X50530552Y-118240026D01*
X50550543Y-118228044D01*
X50571613Y-118218079D01*
X50593557Y-118210227D01*
X50616166Y-118204563D01*
X50639221Y-118201144D01*
X50662500Y-118200000D01*
X51137500Y-118200000D01*
X51160779Y-118201144D01*
X51160779Y-118201144D01*
G37*
D18*
G04 #@! TD*
G04 #@! TO.P,R2,2*
G04 #@! TO.N,GND*
X50900000Y-118725000D03*
D17*
G04 #@! TO.N,/ROW1*
G04 #@! TO.C,R2*
G36*
X51160779Y-119951144D02*
X51183834Y-119954563D01*
X51206443Y-119960227D01*
X51228387Y-119968079D01*
X51249457Y-119978044D01*
X51269448Y-119990026D01*
X51288168Y-120003910D01*
X51305438Y-120019562D01*
X51321090Y-120036832D01*
X51334974Y-120055552D01*
X51346956Y-120075543D01*
X51356921Y-120096613D01*
X51364773Y-120118557D01*
X51370437Y-120141166D01*
X51373856Y-120164221D01*
X51375000Y-120187500D01*
X51375000Y-120762500D01*
X51373856Y-120785779D01*
X51370437Y-120808834D01*
X51364773Y-120831443D01*
X51356921Y-120853387D01*
X51346956Y-120874457D01*
X51334974Y-120894448D01*
X51321090Y-120913168D01*
X51305438Y-120930438D01*
X51288168Y-120946090D01*
X51269448Y-120959974D01*
X51249457Y-120971956D01*
X51228387Y-120981921D01*
X51206443Y-120989773D01*
X51183834Y-120995437D01*
X51160779Y-120998856D01*
X51137500Y-121000000D01*
X50662500Y-121000000D01*
X50639221Y-120998856D01*
X50616166Y-120995437D01*
X50593557Y-120989773D01*
X50571613Y-120981921D01*
X50550543Y-120971956D01*
X50530552Y-120959974D01*
X50511832Y-120946090D01*
X50494562Y-120930438D01*
X50478910Y-120913168D01*
X50465026Y-120894448D01*
X50453044Y-120874457D01*
X50443079Y-120853387D01*
X50435227Y-120831443D01*
X50429563Y-120808834D01*
X50426144Y-120785779D01*
X50425000Y-120762500D01*
X50425000Y-120187500D01*
X50426144Y-120164221D01*
X50429563Y-120141166D01*
X50435227Y-120118557D01*
X50443079Y-120096613D01*
X50453044Y-120075543D01*
X50465026Y-120055552D01*
X50478910Y-120036832D01*
X50494562Y-120019562D01*
X50511832Y-120003910D01*
X50530552Y-119990026D01*
X50550543Y-119978044D01*
X50571613Y-119968079D01*
X50593557Y-119960227D01*
X50616166Y-119954563D01*
X50639221Y-119951144D01*
X50662500Y-119950000D01*
X51137500Y-119950000D01*
X51160779Y-119951144D01*
X51160779Y-119951144D01*
G37*
D18*
G04 #@! TD*
G04 #@! TO.P,R2,1*
G04 #@! TO.N,/ROW1*
X50900000Y-120475000D03*
D17*
G04 #@! TO.N,GND*
G04 #@! TO.C,R3*
G36*
X52460779Y-118201144D02*
X52483834Y-118204563D01*
X52506443Y-118210227D01*
X52528387Y-118218079D01*
X52549457Y-118228044D01*
X52569448Y-118240026D01*
X52588168Y-118253910D01*
X52605438Y-118269562D01*
X52621090Y-118286832D01*
X52634974Y-118305552D01*
X52646956Y-118325543D01*
X52656921Y-118346613D01*
X52664773Y-118368557D01*
X52670437Y-118391166D01*
X52673856Y-118414221D01*
X52675000Y-118437500D01*
X52675000Y-119012500D01*
X52673856Y-119035779D01*
X52670437Y-119058834D01*
X52664773Y-119081443D01*
X52656921Y-119103387D01*
X52646956Y-119124457D01*
X52634974Y-119144448D01*
X52621090Y-119163168D01*
X52605438Y-119180438D01*
X52588168Y-119196090D01*
X52569448Y-119209974D01*
X52549457Y-119221956D01*
X52528387Y-119231921D01*
X52506443Y-119239773D01*
X52483834Y-119245437D01*
X52460779Y-119248856D01*
X52437500Y-119250000D01*
X51962500Y-119250000D01*
X51939221Y-119248856D01*
X51916166Y-119245437D01*
X51893557Y-119239773D01*
X51871613Y-119231921D01*
X51850543Y-119221956D01*
X51830552Y-119209974D01*
X51811832Y-119196090D01*
X51794562Y-119180438D01*
X51778910Y-119163168D01*
X51765026Y-119144448D01*
X51753044Y-119124457D01*
X51743079Y-119103387D01*
X51735227Y-119081443D01*
X51729563Y-119058834D01*
X51726144Y-119035779D01*
X51725000Y-119012500D01*
X51725000Y-118437500D01*
X51726144Y-118414221D01*
X51729563Y-118391166D01*
X51735227Y-118368557D01*
X51743079Y-118346613D01*
X51753044Y-118325543D01*
X51765026Y-118305552D01*
X51778910Y-118286832D01*
X51794562Y-118269562D01*
X51811832Y-118253910D01*
X51830552Y-118240026D01*
X51850543Y-118228044D01*
X51871613Y-118218079D01*
X51893557Y-118210227D01*
X51916166Y-118204563D01*
X51939221Y-118201144D01*
X51962500Y-118200000D01*
X52437500Y-118200000D01*
X52460779Y-118201144D01*
X52460779Y-118201144D01*
G37*
D18*
G04 #@! TD*
G04 #@! TO.P,R3,2*
G04 #@! TO.N,GND*
X52200000Y-118725000D03*
D17*
G04 #@! TO.N,/ROW0*
G04 #@! TO.C,R3*
G36*
X52460779Y-119951144D02*
X52483834Y-119954563D01*
X52506443Y-119960227D01*
X52528387Y-119968079D01*
X52549457Y-119978044D01*
X52569448Y-119990026D01*
X52588168Y-120003910D01*
X52605438Y-120019562D01*
X52621090Y-120036832D01*
X52634974Y-120055552D01*
X52646956Y-120075543D01*
X52656921Y-120096613D01*
X52664773Y-120118557D01*
X52670437Y-120141166D01*
X52673856Y-120164221D01*
X52675000Y-120187500D01*
X52675000Y-120762500D01*
X52673856Y-120785779D01*
X52670437Y-120808834D01*
X52664773Y-120831443D01*
X52656921Y-120853387D01*
X52646956Y-120874457D01*
X52634974Y-120894448D01*
X52621090Y-120913168D01*
X52605438Y-120930438D01*
X52588168Y-120946090D01*
X52569448Y-120959974D01*
X52549457Y-120971956D01*
X52528387Y-120981921D01*
X52506443Y-120989773D01*
X52483834Y-120995437D01*
X52460779Y-120998856D01*
X52437500Y-121000000D01*
X51962500Y-121000000D01*
X51939221Y-120998856D01*
X51916166Y-120995437D01*
X51893557Y-120989773D01*
X51871613Y-120981921D01*
X51850543Y-120971956D01*
X51830552Y-120959974D01*
X51811832Y-120946090D01*
X51794562Y-120930438D01*
X51778910Y-120913168D01*
X51765026Y-120894448D01*
X51753044Y-120874457D01*
X51743079Y-120853387D01*
X51735227Y-120831443D01*
X51729563Y-120808834D01*
X51726144Y-120785779D01*
X51725000Y-120762500D01*
X51725000Y-120187500D01*
X51726144Y-120164221D01*
X51729563Y-120141166D01*
X51735227Y-120118557D01*
X51743079Y-120096613D01*
X51753044Y-120075543D01*
X51765026Y-120055552D01*
X51778910Y-120036832D01*
X51794562Y-120019562D01*
X51811832Y-120003910D01*
X51830552Y-119990026D01*
X51850543Y-119978044D01*
X51871613Y-119968079D01*
X51893557Y-119960227D01*
X51916166Y-119954563D01*
X51939221Y-119951144D01*
X51962500Y-119950000D01*
X52437500Y-119950000D01*
X52460779Y-119951144D01*
X52460779Y-119951144D01*
G37*
D18*
G04 #@! TD*
G04 #@! TO.P,R3,1*
G04 #@! TO.N,/ROW0*
X52200000Y-120475000D03*
D17*
G04 #@! TO.N,/ROW3*
G04 #@! TO.C,R4*
G36*
X48560779Y-119951144D02*
X48583834Y-119954563D01*
X48606443Y-119960227D01*
X48628387Y-119968079D01*
X48649457Y-119978044D01*
X48669448Y-119990026D01*
X48688168Y-120003910D01*
X48705438Y-120019562D01*
X48721090Y-120036832D01*
X48734974Y-120055552D01*
X48746956Y-120075543D01*
X48756921Y-120096613D01*
X48764773Y-120118557D01*
X48770437Y-120141166D01*
X48773856Y-120164221D01*
X48775000Y-120187500D01*
X48775000Y-120762500D01*
X48773856Y-120785779D01*
X48770437Y-120808834D01*
X48764773Y-120831443D01*
X48756921Y-120853387D01*
X48746956Y-120874457D01*
X48734974Y-120894448D01*
X48721090Y-120913168D01*
X48705438Y-120930438D01*
X48688168Y-120946090D01*
X48669448Y-120959974D01*
X48649457Y-120971956D01*
X48628387Y-120981921D01*
X48606443Y-120989773D01*
X48583834Y-120995437D01*
X48560779Y-120998856D01*
X48537500Y-121000000D01*
X48062500Y-121000000D01*
X48039221Y-120998856D01*
X48016166Y-120995437D01*
X47993557Y-120989773D01*
X47971613Y-120981921D01*
X47950543Y-120971956D01*
X47930552Y-120959974D01*
X47911832Y-120946090D01*
X47894562Y-120930438D01*
X47878910Y-120913168D01*
X47865026Y-120894448D01*
X47853044Y-120874457D01*
X47843079Y-120853387D01*
X47835227Y-120831443D01*
X47829563Y-120808834D01*
X47826144Y-120785779D01*
X47825000Y-120762500D01*
X47825000Y-120187500D01*
X47826144Y-120164221D01*
X47829563Y-120141166D01*
X47835227Y-120118557D01*
X47843079Y-120096613D01*
X47853044Y-120075543D01*
X47865026Y-120055552D01*
X47878910Y-120036832D01*
X47894562Y-120019562D01*
X47911832Y-120003910D01*
X47930552Y-119990026D01*
X47950543Y-119978044D01*
X47971613Y-119968079D01*
X47993557Y-119960227D01*
X48016166Y-119954563D01*
X48039221Y-119951144D01*
X48062500Y-119950000D01*
X48537500Y-119950000D01*
X48560779Y-119951144D01*
X48560779Y-119951144D01*
G37*
D18*
G04 #@! TD*
G04 #@! TO.P,R4,1*
G04 #@! TO.N,/ROW3*
X48300000Y-120475000D03*
D17*
G04 #@! TO.N,GND*
G04 #@! TO.C,R4*
G36*
X48560779Y-118201144D02*
X48583834Y-118204563D01*
X48606443Y-118210227D01*
X48628387Y-118218079D01*
X48649457Y-118228044D01*
X48669448Y-118240026D01*
X48688168Y-118253910D01*
X48705438Y-118269562D01*
X48721090Y-118286832D01*
X48734974Y-118305552D01*
X48746956Y-118325543D01*
X48756921Y-118346613D01*
X48764773Y-118368557D01*
X48770437Y-118391166D01*
X48773856Y-118414221D01*
X48775000Y-118437500D01*
X48775000Y-119012500D01*
X48773856Y-119035779D01*
X48770437Y-119058834D01*
X48764773Y-119081443D01*
X48756921Y-119103387D01*
X48746956Y-119124457D01*
X48734974Y-119144448D01*
X48721090Y-119163168D01*
X48705438Y-119180438D01*
X48688168Y-119196090D01*
X48669448Y-119209974D01*
X48649457Y-119221956D01*
X48628387Y-119231921D01*
X48606443Y-119239773D01*
X48583834Y-119245437D01*
X48560779Y-119248856D01*
X48537500Y-119250000D01*
X48062500Y-119250000D01*
X48039221Y-119248856D01*
X48016166Y-119245437D01*
X47993557Y-119239773D01*
X47971613Y-119231921D01*
X47950543Y-119221956D01*
X47930552Y-119209974D01*
X47911832Y-119196090D01*
X47894562Y-119180438D01*
X47878910Y-119163168D01*
X47865026Y-119144448D01*
X47853044Y-119124457D01*
X47843079Y-119103387D01*
X47835227Y-119081443D01*
X47829563Y-119058834D01*
X47826144Y-119035779D01*
X47825000Y-119012500D01*
X47825000Y-118437500D01*
X47826144Y-118414221D01*
X47829563Y-118391166D01*
X47835227Y-118368557D01*
X47843079Y-118346613D01*
X47853044Y-118325543D01*
X47865026Y-118305552D01*
X47878910Y-118286832D01*
X47894562Y-118269562D01*
X47911832Y-118253910D01*
X47930552Y-118240026D01*
X47950543Y-118228044D01*
X47971613Y-118218079D01*
X47993557Y-118210227D01*
X48016166Y-118204563D01*
X48039221Y-118201144D01*
X48062500Y-118200000D01*
X48537500Y-118200000D01*
X48560779Y-118201144D01*
X48560779Y-118201144D01*
G37*
D18*
G04 #@! TD*
G04 #@! TO.P,R4,2*
G04 #@! TO.N,GND*
X48300000Y-118725000D03*
D17*
G04 #@! TO.N,/ROW4*
G04 #@! TO.C,R5*
G36*
X53760779Y-129801144D02*
X53783834Y-129804563D01*
X53806443Y-129810227D01*
X53828387Y-129818079D01*
X53849457Y-129828044D01*
X53869448Y-129840026D01*
X53888168Y-129853910D01*
X53905438Y-129869562D01*
X53921090Y-129886832D01*
X53934974Y-129905552D01*
X53946956Y-129925543D01*
X53956921Y-129946613D01*
X53964773Y-129968557D01*
X53970437Y-129991166D01*
X53973856Y-130014221D01*
X53975000Y-130037500D01*
X53975000Y-130612500D01*
X53973856Y-130635779D01*
X53970437Y-130658834D01*
X53964773Y-130681443D01*
X53956921Y-130703387D01*
X53946956Y-130724457D01*
X53934974Y-130744448D01*
X53921090Y-130763168D01*
X53905438Y-130780438D01*
X53888168Y-130796090D01*
X53869448Y-130809974D01*
X53849457Y-130821956D01*
X53828387Y-130831921D01*
X53806443Y-130839773D01*
X53783834Y-130845437D01*
X53760779Y-130848856D01*
X53737500Y-130850000D01*
X53262500Y-130850000D01*
X53239221Y-130848856D01*
X53216166Y-130845437D01*
X53193557Y-130839773D01*
X53171613Y-130831921D01*
X53150543Y-130821956D01*
X53130552Y-130809974D01*
X53111832Y-130796090D01*
X53094562Y-130780438D01*
X53078910Y-130763168D01*
X53065026Y-130744448D01*
X53053044Y-130724457D01*
X53043079Y-130703387D01*
X53035227Y-130681443D01*
X53029563Y-130658834D01*
X53026144Y-130635779D01*
X53025000Y-130612500D01*
X53025000Y-130037500D01*
X53026144Y-130014221D01*
X53029563Y-129991166D01*
X53035227Y-129968557D01*
X53043079Y-129946613D01*
X53053044Y-129925543D01*
X53065026Y-129905552D01*
X53078910Y-129886832D01*
X53094562Y-129869562D01*
X53111832Y-129853910D01*
X53130552Y-129840026D01*
X53150543Y-129828044D01*
X53171613Y-129818079D01*
X53193557Y-129810227D01*
X53216166Y-129804563D01*
X53239221Y-129801144D01*
X53262500Y-129800000D01*
X53737500Y-129800000D01*
X53760779Y-129801144D01*
X53760779Y-129801144D01*
G37*
D18*
G04 #@! TD*
G04 #@! TO.P,R5,1*
G04 #@! TO.N,/ROW4*
X53500000Y-130325000D03*
D17*
G04 #@! TO.N,GND*
G04 #@! TO.C,R5*
G36*
X53760779Y-131551144D02*
X53783834Y-131554563D01*
X53806443Y-131560227D01*
X53828387Y-131568079D01*
X53849457Y-131578044D01*
X53869448Y-131590026D01*
X53888168Y-131603910D01*
X53905438Y-131619562D01*
X53921090Y-131636832D01*
X53934974Y-131655552D01*
X53946956Y-131675543D01*
X53956921Y-131696613D01*
X53964773Y-131718557D01*
X53970437Y-131741166D01*
X53973856Y-131764221D01*
X53975000Y-131787500D01*
X53975000Y-132362500D01*
X53973856Y-132385779D01*
X53970437Y-132408834D01*
X53964773Y-132431443D01*
X53956921Y-132453387D01*
X53946956Y-132474457D01*
X53934974Y-132494448D01*
X53921090Y-132513168D01*
X53905438Y-132530438D01*
X53888168Y-132546090D01*
X53869448Y-132559974D01*
X53849457Y-132571956D01*
X53828387Y-132581921D01*
X53806443Y-132589773D01*
X53783834Y-132595437D01*
X53760779Y-132598856D01*
X53737500Y-132600000D01*
X53262500Y-132600000D01*
X53239221Y-132598856D01*
X53216166Y-132595437D01*
X53193557Y-132589773D01*
X53171613Y-132581921D01*
X53150543Y-132571956D01*
X53130552Y-132559974D01*
X53111832Y-132546090D01*
X53094562Y-132530438D01*
X53078910Y-132513168D01*
X53065026Y-132494448D01*
X53053044Y-132474457D01*
X53043079Y-132453387D01*
X53035227Y-132431443D01*
X53029563Y-132408834D01*
X53026144Y-132385779D01*
X53025000Y-132362500D01*
X53025000Y-131787500D01*
X53026144Y-131764221D01*
X53029563Y-131741166D01*
X53035227Y-131718557D01*
X53043079Y-131696613D01*
X53053044Y-131675543D01*
X53065026Y-131655552D01*
X53078910Y-131636832D01*
X53094562Y-131619562D01*
X53111832Y-131603910D01*
X53130552Y-131590026D01*
X53150543Y-131578044D01*
X53171613Y-131568079D01*
X53193557Y-131560227D01*
X53216166Y-131554563D01*
X53239221Y-131551144D01*
X53262500Y-131550000D01*
X53737500Y-131550000D01*
X53760779Y-131551144D01*
X53760779Y-131551144D01*
G37*
D18*
G04 #@! TD*
G04 #@! TO.P,R5,2*
G04 #@! TO.N,GND*
X53500000Y-132075000D03*
D17*
G04 #@! TO.N,Net-(C1-Pad1)*
G04 #@! TO.C,R6*
G36*
X51160779Y-129801144D02*
X51183834Y-129804563D01*
X51206443Y-129810227D01*
X51228387Y-129818079D01*
X51249457Y-129828044D01*
X51269448Y-129840026D01*
X51288168Y-129853910D01*
X51305438Y-129869562D01*
X51321090Y-129886832D01*
X51334974Y-129905552D01*
X51346956Y-129925543D01*
X51356921Y-129946613D01*
X51364773Y-129968557D01*
X51370437Y-129991166D01*
X51373856Y-130014221D01*
X51375000Y-130037500D01*
X51375000Y-130612500D01*
X51373856Y-130635779D01*
X51370437Y-130658834D01*
X51364773Y-130681443D01*
X51356921Y-130703387D01*
X51346956Y-130724457D01*
X51334974Y-130744448D01*
X51321090Y-130763168D01*
X51305438Y-130780438D01*
X51288168Y-130796090D01*
X51269448Y-130809974D01*
X51249457Y-130821956D01*
X51228387Y-130831921D01*
X51206443Y-130839773D01*
X51183834Y-130845437D01*
X51160779Y-130848856D01*
X51137500Y-130850000D01*
X50662500Y-130850000D01*
X50639221Y-130848856D01*
X50616166Y-130845437D01*
X50593557Y-130839773D01*
X50571613Y-130831921D01*
X50550543Y-130821956D01*
X50530552Y-130809974D01*
X50511832Y-130796090D01*
X50494562Y-130780438D01*
X50478910Y-130763168D01*
X50465026Y-130744448D01*
X50453044Y-130724457D01*
X50443079Y-130703387D01*
X50435227Y-130681443D01*
X50429563Y-130658834D01*
X50426144Y-130635779D01*
X50425000Y-130612500D01*
X50425000Y-130037500D01*
X50426144Y-130014221D01*
X50429563Y-129991166D01*
X50435227Y-129968557D01*
X50443079Y-129946613D01*
X50453044Y-129925543D01*
X50465026Y-129905552D01*
X50478910Y-129886832D01*
X50494562Y-129869562D01*
X50511832Y-129853910D01*
X50530552Y-129840026D01*
X50550543Y-129828044D01*
X50571613Y-129818079D01*
X50593557Y-129810227D01*
X50616166Y-129804563D01*
X50639221Y-129801144D01*
X50662500Y-129800000D01*
X51137500Y-129800000D01*
X51160779Y-129801144D01*
X51160779Y-129801144D01*
G37*
D18*
G04 #@! TD*
G04 #@! TO.P,R6,2*
G04 #@! TO.N,Net-(C1-Pad1)*
X50900000Y-130325000D03*
D17*
G04 #@! TO.N,/DRAIN*
G04 #@! TO.C,R6*
G36*
X51160779Y-131551144D02*
X51183834Y-131554563D01*
X51206443Y-131560227D01*
X51228387Y-131568079D01*
X51249457Y-131578044D01*
X51269448Y-131590026D01*
X51288168Y-131603910D01*
X51305438Y-131619562D01*
X51321090Y-131636832D01*
X51334974Y-131655552D01*
X51346956Y-131675543D01*
X51356921Y-131696613D01*
X51364773Y-131718557D01*
X51370437Y-131741166D01*
X51373856Y-131764221D01*
X51375000Y-131787500D01*
X51375000Y-132362500D01*
X51373856Y-132385779D01*
X51370437Y-132408834D01*
X51364773Y-132431443D01*
X51356921Y-132453387D01*
X51346956Y-132474457D01*
X51334974Y-132494448D01*
X51321090Y-132513168D01*
X51305438Y-132530438D01*
X51288168Y-132546090D01*
X51269448Y-132559974D01*
X51249457Y-132571956D01*
X51228387Y-132581921D01*
X51206443Y-132589773D01*
X51183834Y-132595437D01*
X51160779Y-132598856D01*
X51137500Y-132600000D01*
X50662500Y-132600000D01*
X50639221Y-132598856D01*
X50616166Y-132595437D01*
X50593557Y-132589773D01*
X50571613Y-132581921D01*
X50550543Y-132571956D01*
X50530552Y-132559974D01*
X50511832Y-132546090D01*
X50494562Y-132530438D01*
X50478910Y-132513168D01*
X50465026Y-132494448D01*
X50453044Y-132474457D01*
X50443079Y-132453387D01*
X50435227Y-132431443D01*
X50429563Y-132408834D01*
X50426144Y-132385779D01*
X50425000Y-132362500D01*
X50425000Y-131787500D01*
X50426144Y-131764221D01*
X50429563Y-131741166D01*
X50435227Y-131718557D01*
X50443079Y-131696613D01*
X50453044Y-131675543D01*
X50465026Y-131655552D01*
X50478910Y-131636832D01*
X50494562Y-131619562D01*
X50511832Y-131603910D01*
X50530552Y-131590026D01*
X50550543Y-131578044D01*
X50571613Y-131568079D01*
X50593557Y-131560227D01*
X50616166Y-131554563D01*
X50639221Y-131551144D01*
X50662500Y-131550000D01*
X51137500Y-131550000D01*
X51160779Y-131551144D01*
X51160779Y-131551144D01*
G37*
D18*
G04 #@! TD*
G04 #@! TO.P,R6,1*
G04 #@! TO.N,/DRAIN*
X50900000Y-132075000D03*
D17*
G04 #@! TO.N,Net-(R7-Pad1)*
G04 #@! TO.C,R7*
G36*
X55860779Y-127651144D02*
X55883834Y-127654563D01*
X55906443Y-127660227D01*
X55928387Y-127668079D01*
X55949457Y-127678044D01*
X55969448Y-127690026D01*
X55988168Y-127703910D01*
X56005438Y-127719562D01*
X56021090Y-127736832D01*
X56034974Y-127755552D01*
X56046956Y-127775543D01*
X56056921Y-127796613D01*
X56064773Y-127818557D01*
X56070437Y-127841166D01*
X56073856Y-127864221D01*
X56075000Y-127887500D01*
X56075000Y-128462500D01*
X56073856Y-128485779D01*
X56070437Y-128508834D01*
X56064773Y-128531443D01*
X56056921Y-128553387D01*
X56046956Y-128574457D01*
X56034974Y-128594448D01*
X56021090Y-128613168D01*
X56005438Y-128630438D01*
X55988168Y-128646090D01*
X55969448Y-128659974D01*
X55949457Y-128671956D01*
X55928387Y-128681921D01*
X55906443Y-128689773D01*
X55883834Y-128695437D01*
X55860779Y-128698856D01*
X55837500Y-128700000D01*
X55362500Y-128700000D01*
X55339221Y-128698856D01*
X55316166Y-128695437D01*
X55293557Y-128689773D01*
X55271613Y-128681921D01*
X55250543Y-128671956D01*
X55230552Y-128659974D01*
X55211832Y-128646090D01*
X55194562Y-128630438D01*
X55178910Y-128613168D01*
X55165026Y-128594448D01*
X55153044Y-128574457D01*
X55143079Y-128553387D01*
X55135227Y-128531443D01*
X55129563Y-128508834D01*
X55126144Y-128485779D01*
X55125000Y-128462500D01*
X55125000Y-127887500D01*
X55126144Y-127864221D01*
X55129563Y-127841166D01*
X55135227Y-127818557D01*
X55143079Y-127796613D01*
X55153044Y-127775543D01*
X55165026Y-127755552D01*
X55178910Y-127736832D01*
X55194562Y-127719562D01*
X55211832Y-127703910D01*
X55230552Y-127690026D01*
X55250543Y-127678044D01*
X55271613Y-127668079D01*
X55293557Y-127660227D01*
X55316166Y-127654563D01*
X55339221Y-127651144D01*
X55362500Y-127650000D01*
X55837500Y-127650000D01*
X55860779Y-127651144D01*
X55860779Y-127651144D01*
G37*
D18*
G04 #@! TD*
G04 #@! TO.P,R7,1*
G04 #@! TO.N,Net-(R7-Pad1)*
X55600000Y-128175000D03*
D17*
G04 #@! TO.N,Net-(C1-Pad1)*
G04 #@! TO.C,R7*
G36*
X55860779Y-125901144D02*
X55883834Y-125904563D01*
X55906443Y-125910227D01*
X55928387Y-125918079D01*
X55949457Y-125928044D01*
X55969448Y-125940026D01*
X55988168Y-125953910D01*
X56005438Y-125969562D01*
X56021090Y-125986832D01*
X56034974Y-126005552D01*
X56046956Y-126025543D01*
X56056921Y-126046613D01*
X56064773Y-126068557D01*
X56070437Y-126091166D01*
X56073856Y-126114221D01*
X56075000Y-126137500D01*
X56075000Y-126712500D01*
X56073856Y-126735779D01*
X56070437Y-126758834D01*
X56064773Y-126781443D01*
X56056921Y-126803387D01*
X56046956Y-126824457D01*
X56034974Y-126844448D01*
X56021090Y-126863168D01*
X56005438Y-126880438D01*
X55988168Y-126896090D01*
X55969448Y-126909974D01*
X55949457Y-126921956D01*
X55928387Y-126931921D01*
X55906443Y-126939773D01*
X55883834Y-126945437D01*
X55860779Y-126948856D01*
X55837500Y-126950000D01*
X55362500Y-126950000D01*
X55339221Y-126948856D01*
X55316166Y-126945437D01*
X55293557Y-126939773D01*
X55271613Y-126931921D01*
X55250543Y-126921956D01*
X55230552Y-126909974D01*
X55211832Y-126896090D01*
X55194562Y-126880438D01*
X55178910Y-126863168D01*
X55165026Y-126844448D01*
X55153044Y-126824457D01*
X55143079Y-126803387D01*
X55135227Y-126781443D01*
X55129563Y-126758834D01*
X55126144Y-126735779D01*
X55125000Y-126712500D01*
X55125000Y-126137500D01*
X55126144Y-126114221D01*
X55129563Y-126091166D01*
X55135227Y-126068557D01*
X55143079Y-126046613D01*
X55153044Y-126025543D01*
X55165026Y-126005552D01*
X55178910Y-125986832D01*
X55194562Y-125969562D01*
X55211832Y-125953910D01*
X55230552Y-125940026D01*
X55250543Y-125928044D01*
X55271613Y-125918079D01*
X55293557Y-125910227D01*
X55316166Y-125904563D01*
X55339221Y-125901144D01*
X55362500Y-125900000D01*
X55837500Y-125900000D01*
X55860779Y-125901144D01*
X55860779Y-125901144D01*
G37*
D18*
G04 #@! TD*
G04 #@! TO.P,R7,2*
G04 #@! TO.N,Net-(C1-Pad1)*
X55600000Y-126425000D03*
D17*
G04 #@! TO.N,Net-(R10-Pad2)*
G04 #@! TO.C,R8*
G36*
X58060779Y-132451144D02*
X58083834Y-132454563D01*
X58106443Y-132460227D01*
X58128387Y-132468079D01*
X58149457Y-132478044D01*
X58169448Y-132490026D01*
X58188168Y-132503910D01*
X58205438Y-132519562D01*
X58221090Y-132536832D01*
X58234974Y-132555552D01*
X58246956Y-132575543D01*
X58256921Y-132596613D01*
X58264773Y-132618557D01*
X58270437Y-132641166D01*
X58273856Y-132664221D01*
X58275000Y-132687500D01*
X58275000Y-133262500D01*
X58273856Y-133285779D01*
X58270437Y-133308834D01*
X58264773Y-133331443D01*
X58256921Y-133353387D01*
X58246956Y-133374457D01*
X58234974Y-133394448D01*
X58221090Y-133413168D01*
X58205438Y-133430438D01*
X58188168Y-133446090D01*
X58169448Y-133459974D01*
X58149457Y-133471956D01*
X58128387Y-133481921D01*
X58106443Y-133489773D01*
X58083834Y-133495437D01*
X58060779Y-133498856D01*
X58037500Y-133500000D01*
X57562500Y-133500000D01*
X57539221Y-133498856D01*
X57516166Y-133495437D01*
X57493557Y-133489773D01*
X57471613Y-133481921D01*
X57450543Y-133471956D01*
X57430552Y-133459974D01*
X57411832Y-133446090D01*
X57394562Y-133430438D01*
X57378910Y-133413168D01*
X57365026Y-133394448D01*
X57353044Y-133374457D01*
X57343079Y-133353387D01*
X57335227Y-133331443D01*
X57329563Y-133308834D01*
X57326144Y-133285779D01*
X57325000Y-133262500D01*
X57325000Y-132687500D01*
X57326144Y-132664221D01*
X57329563Y-132641166D01*
X57335227Y-132618557D01*
X57343079Y-132596613D01*
X57353044Y-132575543D01*
X57365026Y-132555552D01*
X57378910Y-132536832D01*
X57394562Y-132519562D01*
X57411832Y-132503910D01*
X57430552Y-132490026D01*
X57450543Y-132478044D01*
X57471613Y-132468079D01*
X57493557Y-132460227D01*
X57516166Y-132454563D01*
X57539221Y-132451144D01*
X57562500Y-132450000D01*
X58037500Y-132450000D01*
X58060779Y-132451144D01*
X58060779Y-132451144D01*
G37*
D18*
G04 #@! TD*
G04 #@! TO.P,R8,2*
G04 #@! TO.N,Net-(R10-Pad2)*
X57800000Y-132975000D03*
D17*
G04 #@! TO.N,GND*
G04 #@! TO.C,R8*
G36*
X58060779Y-130701144D02*
X58083834Y-130704563D01*
X58106443Y-130710227D01*
X58128387Y-130718079D01*
X58149457Y-130728044D01*
X58169448Y-130740026D01*
X58188168Y-130753910D01*
X58205438Y-130769562D01*
X58221090Y-130786832D01*
X58234974Y-130805552D01*
X58246956Y-130825543D01*
X58256921Y-130846613D01*
X58264773Y-130868557D01*
X58270437Y-130891166D01*
X58273856Y-130914221D01*
X58275000Y-130937500D01*
X58275000Y-131512500D01*
X58273856Y-131535779D01*
X58270437Y-131558834D01*
X58264773Y-131581443D01*
X58256921Y-131603387D01*
X58246956Y-131624457D01*
X58234974Y-131644448D01*
X58221090Y-131663168D01*
X58205438Y-131680438D01*
X58188168Y-131696090D01*
X58169448Y-131709974D01*
X58149457Y-131721956D01*
X58128387Y-131731921D01*
X58106443Y-131739773D01*
X58083834Y-131745437D01*
X58060779Y-131748856D01*
X58037500Y-131750000D01*
X57562500Y-131750000D01*
X57539221Y-131748856D01*
X57516166Y-131745437D01*
X57493557Y-131739773D01*
X57471613Y-131731921D01*
X57450543Y-131721956D01*
X57430552Y-131709974D01*
X57411832Y-131696090D01*
X57394562Y-131680438D01*
X57378910Y-131663168D01*
X57365026Y-131644448D01*
X57353044Y-131624457D01*
X57343079Y-131603387D01*
X57335227Y-131581443D01*
X57329563Y-131558834D01*
X57326144Y-131535779D01*
X57325000Y-131512500D01*
X57325000Y-130937500D01*
X57326144Y-130914221D01*
X57329563Y-130891166D01*
X57335227Y-130868557D01*
X57343079Y-130846613D01*
X57353044Y-130825543D01*
X57365026Y-130805552D01*
X57378910Y-130786832D01*
X57394562Y-130769562D01*
X57411832Y-130753910D01*
X57430552Y-130740026D01*
X57450543Y-130728044D01*
X57471613Y-130718079D01*
X57493557Y-130710227D01*
X57516166Y-130704563D01*
X57539221Y-130701144D01*
X57562500Y-130700000D01*
X58037500Y-130700000D01*
X58060779Y-130701144D01*
X58060779Y-130701144D01*
G37*
D18*
G04 #@! TD*
G04 #@! TO.P,R8,1*
G04 #@! TO.N,GND*
X57800000Y-131225000D03*
D17*
G04 #@! TO.N,/COL0*
G04 #@! TO.C,R9*
G36*
X84351190Y-130210733D02*
X84374245Y-130214152D01*
X84396854Y-130219816D01*
X84418798Y-130227668D01*
X84439868Y-130237633D01*
X84459859Y-130249615D01*
X84478579Y-130263499D01*
X84495849Y-130279151D01*
X84511501Y-130296421D01*
X84525385Y-130315141D01*
X84537367Y-130335132D01*
X84547332Y-130356202D01*
X84555184Y-130378146D01*
X84560848Y-130400755D01*
X84564267Y-130423810D01*
X84565411Y-130447089D01*
X84565411Y-130922089D01*
X84564267Y-130945368D01*
X84560848Y-130968423D01*
X84555184Y-130991032D01*
X84547332Y-131012976D01*
X84537367Y-131034046D01*
X84525385Y-131054037D01*
X84511501Y-131072757D01*
X84495849Y-131090027D01*
X84478579Y-131105679D01*
X84459859Y-131119563D01*
X84439868Y-131131545D01*
X84418798Y-131141510D01*
X84396854Y-131149362D01*
X84374245Y-131155026D01*
X84351190Y-131158445D01*
X84327911Y-131159589D01*
X83752911Y-131159589D01*
X83729632Y-131158445D01*
X83706577Y-131155026D01*
X83683968Y-131149362D01*
X83662024Y-131141510D01*
X83640954Y-131131545D01*
X83620963Y-131119563D01*
X83602243Y-131105679D01*
X83584973Y-131090027D01*
X83569321Y-131072757D01*
X83555437Y-131054037D01*
X83543455Y-131034046D01*
X83533490Y-131012976D01*
X83525638Y-130991032D01*
X83519974Y-130968423D01*
X83516555Y-130945368D01*
X83515411Y-130922089D01*
X83515411Y-130447089D01*
X83516555Y-130423810D01*
X83519974Y-130400755D01*
X83525638Y-130378146D01*
X83533490Y-130356202D01*
X83543455Y-130335132D01*
X83555437Y-130315141D01*
X83569321Y-130296421D01*
X83584973Y-130279151D01*
X83602243Y-130263499D01*
X83620963Y-130249615D01*
X83640954Y-130237633D01*
X83662024Y-130227668D01*
X83683968Y-130219816D01*
X83706577Y-130214152D01*
X83729632Y-130210733D01*
X83752911Y-130209589D01*
X84327911Y-130209589D01*
X84351190Y-130210733D01*
X84351190Y-130210733D01*
G37*
D18*
G04 #@! TD*
G04 #@! TO.P,R9,1*
G04 #@! TO.N,/COL0*
X84040411Y-130684589D03*
D17*
G04 #@! TO.N,GND*
G04 #@! TO.C,R9*
G36*
X86101190Y-130210733D02*
X86124245Y-130214152D01*
X86146854Y-130219816D01*
X86168798Y-130227668D01*
X86189868Y-130237633D01*
X86209859Y-130249615D01*
X86228579Y-130263499D01*
X86245849Y-130279151D01*
X86261501Y-130296421D01*
X86275385Y-130315141D01*
X86287367Y-130335132D01*
X86297332Y-130356202D01*
X86305184Y-130378146D01*
X86310848Y-130400755D01*
X86314267Y-130423810D01*
X86315411Y-130447089D01*
X86315411Y-130922089D01*
X86314267Y-130945368D01*
X86310848Y-130968423D01*
X86305184Y-130991032D01*
X86297332Y-131012976D01*
X86287367Y-131034046D01*
X86275385Y-131054037D01*
X86261501Y-131072757D01*
X86245849Y-131090027D01*
X86228579Y-131105679D01*
X86209859Y-131119563D01*
X86189868Y-131131545D01*
X86168798Y-131141510D01*
X86146854Y-131149362D01*
X86124245Y-131155026D01*
X86101190Y-131158445D01*
X86077911Y-131159589D01*
X85502911Y-131159589D01*
X85479632Y-131158445D01*
X85456577Y-131155026D01*
X85433968Y-131149362D01*
X85412024Y-131141510D01*
X85390954Y-131131545D01*
X85370963Y-131119563D01*
X85352243Y-131105679D01*
X85334973Y-131090027D01*
X85319321Y-131072757D01*
X85305437Y-131054037D01*
X85293455Y-131034046D01*
X85283490Y-131012976D01*
X85275638Y-130991032D01*
X85269974Y-130968423D01*
X85266555Y-130945368D01*
X85265411Y-130922089D01*
X85265411Y-130447089D01*
X85266555Y-130423810D01*
X85269974Y-130400755D01*
X85275638Y-130378146D01*
X85283490Y-130356202D01*
X85293455Y-130335132D01*
X85305437Y-130315141D01*
X85319321Y-130296421D01*
X85334973Y-130279151D01*
X85352243Y-130263499D01*
X85370963Y-130249615D01*
X85390954Y-130237633D01*
X85412024Y-130227668D01*
X85433968Y-130219816D01*
X85456577Y-130214152D01*
X85479632Y-130210733D01*
X85502911Y-130209589D01*
X86077911Y-130209589D01*
X86101190Y-130210733D01*
X86101190Y-130210733D01*
G37*
D18*
G04 #@! TD*
G04 #@! TO.P,R9,2*
G04 #@! TO.N,GND*
X85790411Y-130684589D03*
D17*
G04 #@! TO.N,/READ*
G04 #@! TO.C,R10*
G36*
X61960779Y-130701144D02*
X61983834Y-130704563D01*
X62006443Y-130710227D01*
X62028387Y-130718079D01*
X62049457Y-130728044D01*
X62069448Y-130740026D01*
X62088168Y-130753910D01*
X62105438Y-130769562D01*
X62121090Y-130786832D01*
X62134974Y-130805552D01*
X62146956Y-130825543D01*
X62156921Y-130846613D01*
X62164773Y-130868557D01*
X62170437Y-130891166D01*
X62173856Y-130914221D01*
X62175000Y-130937500D01*
X62175000Y-131512500D01*
X62173856Y-131535779D01*
X62170437Y-131558834D01*
X62164773Y-131581443D01*
X62156921Y-131603387D01*
X62146956Y-131624457D01*
X62134974Y-131644448D01*
X62121090Y-131663168D01*
X62105438Y-131680438D01*
X62088168Y-131696090D01*
X62069448Y-131709974D01*
X62049457Y-131721956D01*
X62028387Y-131731921D01*
X62006443Y-131739773D01*
X61983834Y-131745437D01*
X61960779Y-131748856D01*
X61937500Y-131750000D01*
X61462500Y-131750000D01*
X61439221Y-131748856D01*
X61416166Y-131745437D01*
X61393557Y-131739773D01*
X61371613Y-131731921D01*
X61350543Y-131721956D01*
X61330552Y-131709974D01*
X61311832Y-131696090D01*
X61294562Y-131680438D01*
X61278910Y-131663168D01*
X61265026Y-131644448D01*
X61253044Y-131624457D01*
X61243079Y-131603387D01*
X61235227Y-131581443D01*
X61229563Y-131558834D01*
X61226144Y-131535779D01*
X61225000Y-131512500D01*
X61225000Y-130937500D01*
X61226144Y-130914221D01*
X61229563Y-130891166D01*
X61235227Y-130868557D01*
X61243079Y-130846613D01*
X61253044Y-130825543D01*
X61265026Y-130805552D01*
X61278910Y-130786832D01*
X61294562Y-130769562D01*
X61311832Y-130753910D01*
X61330552Y-130740026D01*
X61350543Y-130728044D01*
X61371613Y-130718079D01*
X61393557Y-130710227D01*
X61416166Y-130704563D01*
X61439221Y-130701144D01*
X61462500Y-130700000D01*
X61937500Y-130700000D01*
X61960779Y-130701144D01*
X61960779Y-130701144D01*
G37*
D18*
G04 #@! TD*
G04 #@! TO.P,R10,1*
G04 #@! TO.N,/READ*
X61700000Y-131225000D03*
D17*
G04 #@! TO.N,Net-(R10-Pad2)*
G04 #@! TO.C,R10*
G36*
X61960779Y-132451144D02*
X61983834Y-132454563D01*
X62006443Y-132460227D01*
X62028387Y-132468079D01*
X62049457Y-132478044D01*
X62069448Y-132490026D01*
X62088168Y-132503910D01*
X62105438Y-132519562D01*
X62121090Y-132536832D01*
X62134974Y-132555552D01*
X62146956Y-132575543D01*
X62156921Y-132596613D01*
X62164773Y-132618557D01*
X62170437Y-132641166D01*
X62173856Y-132664221D01*
X62175000Y-132687500D01*
X62175000Y-133262500D01*
X62173856Y-133285779D01*
X62170437Y-133308834D01*
X62164773Y-133331443D01*
X62156921Y-133353387D01*
X62146956Y-133374457D01*
X62134974Y-133394448D01*
X62121090Y-133413168D01*
X62105438Y-133430438D01*
X62088168Y-133446090D01*
X62069448Y-133459974D01*
X62049457Y-133471956D01*
X62028387Y-133481921D01*
X62006443Y-133489773D01*
X61983834Y-133495437D01*
X61960779Y-133498856D01*
X61937500Y-133500000D01*
X61462500Y-133500000D01*
X61439221Y-133498856D01*
X61416166Y-133495437D01*
X61393557Y-133489773D01*
X61371613Y-133481921D01*
X61350543Y-133471956D01*
X61330552Y-133459974D01*
X61311832Y-133446090D01*
X61294562Y-133430438D01*
X61278910Y-133413168D01*
X61265026Y-133394448D01*
X61253044Y-133374457D01*
X61243079Y-133353387D01*
X61235227Y-133331443D01*
X61229563Y-133308834D01*
X61226144Y-133285779D01*
X61225000Y-133262500D01*
X61225000Y-132687500D01*
X61226144Y-132664221D01*
X61229563Y-132641166D01*
X61235227Y-132618557D01*
X61243079Y-132596613D01*
X61253044Y-132575543D01*
X61265026Y-132555552D01*
X61278910Y-132536832D01*
X61294562Y-132519562D01*
X61311832Y-132503910D01*
X61330552Y-132490026D01*
X61350543Y-132478044D01*
X61371613Y-132468079D01*
X61393557Y-132460227D01*
X61416166Y-132454563D01*
X61439221Y-132451144D01*
X61462500Y-132450000D01*
X61937500Y-132450000D01*
X61960779Y-132451144D01*
X61960779Y-132451144D01*
G37*
D18*
G04 #@! TD*
G04 #@! TO.P,R10,2*
G04 #@! TO.N,Net-(R10-Pad2)*
X61700000Y-132975000D03*
D17*
G04 #@! TO.N,GND*
G04 #@! TO.C,R11*
G36*
X108235779Y-129626144D02*
X108258834Y-129629563D01*
X108281443Y-129635227D01*
X108303387Y-129643079D01*
X108324457Y-129653044D01*
X108344448Y-129665026D01*
X108363168Y-129678910D01*
X108380438Y-129694562D01*
X108396090Y-129711832D01*
X108409974Y-129730552D01*
X108421956Y-129750543D01*
X108431921Y-129771613D01*
X108439773Y-129793557D01*
X108445437Y-129816166D01*
X108448856Y-129839221D01*
X108450000Y-129862500D01*
X108450000Y-130337500D01*
X108448856Y-130360779D01*
X108445437Y-130383834D01*
X108439773Y-130406443D01*
X108431921Y-130428387D01*
X108421956Y-130449457D01*
X108409974Y-130469448D01*
X108396090Y-130488168D01*
X108380438Y-130505438D01*
X108363168Y-130521090D01*
X108344448Y-130534974D01*
X108324457Y-130546956D01*
X108303387Y-130556921D01*
X108281443Y-130564773D01*
X108258834Y-130570437D01*
X108235779Y-130573856D01*
X108212500Y-130575000D01*
X107637500Y-130575000D01*
X107614221Y-130573856D01*
X107591166Y-130570437D01*
X107568557Y-130564773D01*
X107546613Y-130556921D01*
X107525543Y-130546956D01*
X107505552Y-130534974D01*
X107486832Y-130521090D01*
X107469562Y-130505438D01*
X107453910Y-130488168D01*
X107440026Y-130469448D01*
X107428044Y-130449457D01*
X107418079Y-130428387D01*
X107410227Y-130406443D01*
X107404563Y-130383834D01*
X107401144Y-130360779D01*
X107400000Y-130337500D01*
X107400000Y-129862500D01*
X107401144Y-129839221D01*
X107404563Y-129816166D01*
X107410227Y-129793557D01*
X107418079Y-129771613D01*
X107428044Y-129750543D01*
X107440026Y-129730552D01*
X107453910Y-129711832D01*
X107469562Y-129694562D01*
X107486832Y-129678910D01*
X107505552Y-129665026D01*
X107525543Y-129653044D01*
X107546613Y-129643079D01*
X107568557Y-129635227D01*
X107591166Y-129629563D01*
X107614221Y-129626144D01*
X107637500Y-129625000D01*
X108212500Y-129625000D01*
X108235779Y-129626144D01*
X108235779Y-129626144D01*
G37*
D18*
G04 #@! TD*
G04 #@! TO.P,R11,2*
G04 #@! TO.N,GND*
X107925000Y-130100000D03*
D17*
G04 #@! TO.N,/COL1*
G04 #@! TO.C,R11*
G36*
X109985779Y-129626144D02*
X110008834Y-129629563D01*
X110031443Y-129635227D01*
X110053387Y-129643079D01*
X110074457Y-129653044D01*
X110094448Y-129665026D01*
X110113168Y-129678910D01*
X110130438Y-129694562D01*
X110146090Y-129711832D01*
X110159974Y-129730552D01*
X110171956Y-129750543D01*
X110181921Y-129771613D01*
X110189773Y-129793557D01*
X110195437Y-129816166D01*
X110198856Y-129839221D01*
X110200000Y-129862500D01*
X110200000Y-130337500D01*
X110198856Y-130360779D01*
X110195437Y-130383834D01*
X110189773Y-130406443D01*
X110181921Y-130428387D01*
X110171956Y-130449457D01*
X110159974Y-130469448D01*
X110146090Y-130488168D01*
X110130438Y-130505438D01*
X110113168Y-130521090D01*
X110094448Y-130534974D01*
X110074457Y-130546956D01*
X110053387Y-130556921D01*
X110031443Y-130564773D01*
X110008834Y-130570437D01*
X109985779Y-130573856D01*
X109962500Y-130575000D01*
X109387500Y-130575000D01*
X109364221Y-130573856D01*
X109341166Y-130570437D01*
X109318557Y-130564773D01*
X109296613Y-130556921D01*
X109275543Y-130546956D01*
X109255552Y-130534974D01*
X109236832Y-130521090D01*
X109219562Y-130505438D01*
X109203910Y-130488168D01*
X109190026Y-130469448D01*
X109178044Y-130449457D01*
X109168079Y-130428387D01*
X109160227Y-130406443D01*
X109154563Y-130383834D01*
X109151144Y-130360779D01*
X109150000Y-130337500D01*
X109150000Y-129862500D01*
X109151144Y-129839221D01*
X109154563Y-129816166D01*
X109160227Y-129793557D01*
X109168079Y-129771613D01*
X109178044Y-129750543D01*
X109190026Y-129730552D01*
X109203910Y-129711832D01*
X109219562Y-129694562D01*
X109236832Y-129678910D01*
X109255552Y-129665026D01*
X109275543Y-129653044D01*
X109296613Y-129643079D01*
X109318557Y-129635227D01*
X109341166Y-129629563D01*
X109364221Y-129626144D01*
X109387500Y-129625000D01*
X109962500Y-129625000D01*
X109985779Y-129626144D01*
X109985779Y-129626144D01*
G37*
D18*
G04 #@! TD*
G04 #@! TO.P,R11,1*
G04 #@! TO.N,/COL1*
X109675000Y-130100000D03*
D17*
G04 #@! TO.N,GND*
G04 #@! TO.C,R13*
G36*
X134535779Y-120302227D02*
X134558834Y-120305646D01*
X134581443Y-120311310D01*
X134603387Y-120319162D01*
X134624457Y-120329127D01*
X134644448Y-120341109D01*
X134663168Y-120354993D01*
X134680438Y-120370645D01*
X134696090Y-120387915D01*
X134709974Y-120406635D01*
X134721956Y-120426626D01*
X134731921Y-120447696D01*
X134739773Y-120469640D01*
X134745437Y-120492249D01*
X134748856Y-120515304D01*
X134750000Y-120538583D01*
X134750000Y-121013583D01*
X134748856Y-121036862D01*
X134745437Y-121059917D01*
X134739773Y-121082526D01*
X134731921Y-121104470D01*
X134721956Y-121125540D01*
X134709974Y-121145531D01*
X134696090Y-121164251D01*
X134680438Y-121181521D01*
X134663168Y-121197173D01*
X134644448Y-121211057D01*
X134624457Y-121223039D01*
X134603387Y-121233004D01*
X134581443Y-121240856D01*
X134558834Y-121246520D01*
X134535779Y-121249939D01*
X134512500Y-121251083D01*
X133937500Y-121251083D01*
X133914221Y-121249939D01*
X133891166Y-121246520D01*
X133868557Y-121240856D01*
X133846613Y-121233004D01*
X133825543Y-121223039D01*
X133805552Y-121211057D01*
X133786832Y-121197173D01*
X133769562Y-121181521D01*
X133753910Y-121164251D01*
X133740026Y-121145531D01*
X133728044Y-121125540D01*
X133718079Y-121104470D01*
X133710227Y-121082526D01*
X133704563Y-121059917D01*
X133701144Y-121036862D01*
X133700000Y-121013583D01*
X133700000Y-120538583D01*
X133701144Y-120515304D01*
X133704563Y-120492249D01*
X133710227Y-120469640D01*
X133718079Y-120447696D01*
X133728044Y-120426626D01*
X133740026Y-120406635D01*
X133753910Y-120387915D01*
X133769562Y-120370645D01*
X133786832Y-120354993D01*
X133805552Y-120341109D01*
X133825543Y-120329127D01*
X133846613Y-120319162D01*
X133868557Y-120311310D01*
X133891166Y-120305646D01*
X133914221Y-120302227D01*
X133937500Y-120301083D01*
X134512500Y-120301083D01*
X134535779Y-120302227D01*
X134535779Y-120302227D01*
G37*
D18*
G04 #@! TD*
G04 #@! TO.P,R13,2*
G04 #@! TO.N,GND*
X134225000Y-120776083D03*
D17*
G04 #@! TO.N,/COL3*
G04 #@! TO.C,R13*
G36*
X136285779Y-120302227D02*
X136308834Y-120305646D01*
X136331443Y-120311310D01*
X136353387Y-120319162D01*
X136374457Y-120329127D01*
X136394448Y-120341109D01*
X136413168Y-120354993D01*
X136430438Y-120370645D01*
X136446090Y-120387915D01*
X136459974Y-120406635D01*
X136471956Y-120426626D01*
X136481921Y-120447696D01*
X136489773Y-120469640D01*
X136495437Y-120492249D01*
X136498856Y-120515304D01*
X136500000Y-120538583D01*
X136500000Y-121013583D01*
X136498856Y-121036862D01*
X136495437Y-121059917D01*
X136489773Y-121082526D01*
X136481921Y-121104470D01*
X136471956Y-121125540D01*
X136459974Y-121145531D01*
X136446090Y-121164251D01*
X136430438Y-121181521D01*
X136413168Y-121197173D01*
X136394448Y-121211057D01*
X136374457Y-121223039D01*
X136353387Y-121233004D01*
X136331443Y-121240856D01*
X136308834Y-121246520D01*
X136285779Y-121249939D01*
X136262500Y-121251083D01*
X135687500Y-121251083D01*
X135664221Y-121249939D01*
X135641166Y-121246520D01*
X135618557Y-121240856D01*
X135596613Y-121233004D01*
X135575543Y-121223039D01*
X135555552Y-121211057D01*
X135536832Y-121197173D01*
X135519562Y-121181521D01*
X135503910Y-121164251D01*
X135490026Y-121145531D01*
X135478044Y-121125540D01*
X135468079Y-121104470D01*
X135460227Y-121082526D01*
X135454563Y-121059917D01*
X135451144Y-121036862D01*
X135450000Y-121013583D01*
X135450000Y-120538583D01*
X135451144Y-120515304D01*
X135454563Y-120492249D01*
X135460227Y-120469640D01*
X135468079Y-120447696D01*
X135478044Y-120426626D01*
X135490026Y-120406635D01*
X135503910Y-120387915D01*
X135519562Y-120370645D01*
X135536832Y-120354993D01*
X135555552Y-120341109D01*
X135575543Y-120329127D01*
X135596613Y-120319162D01*
X135618557Y-120311310D01*
X135641166Y-120305646D01*
X135664221Y-120302227D01*
X135687500Y-120301083D01*
X136262500Y-120301083D01*
X136285779Y-120302227D01*
X136285779Y-120302227D01*
G37*
D18*
G04 #@! TD*
G04 #@! TO.P,R13,1*
G04 #@! TO.N,/COL3*
X135975000Y-120776083D03*
D17*
G04 #@! TO.N,/COL4*
G04 #@! TO.C,R14*
G36*
X132835779Y-128126144D02*
X132858834Y-128129563D01*
X132881443Y-128135227D01*
X132903387Y-128143079D01*
X132924457Y-128153044D01*
X132944448Y-128165026D01*
X132963168Y-128178910D01*
X132980438Y-128194562D01*
X132996090Y-128211832D01*
X133009974Y-128230552D01*
X133021956Y-128250543D01*
X133031921Y-128271613D01*
X133039773Y-128293557D01*
X133045437Y-128316166D01*
X133048856Y-128339221D01*
X133050000Y-128362500D01*
X133050000Y-128837500D01*
X133048856Y-128860779D01*
X133045437Y-128883834D01*
X133039773Y-128906443D01*
X133031921Y-128928387D01*
X133021956Y-128949457D01*
X133009974Y-128969448D01*
X132996090Y-128988168D01*
X132980438Y-129005438D01*
X132963168Y-129021090D01*
X132944448Y-129034974D01*
X132924457Y-129046956D01*
X132903387Y-129056921D01*
X132881443Y-129064773D01*
X132858834Y-129070437D01*
X132835779Y-129073856D01*
X132812500Y-129075000D01*
X132237500Y-129075000D01*
X132214221Y-129073856D01*
X132191166Y-129070437D01*
X132168557Y-129064773D01*
X132146613Y-129056921D01*
X132125543Y-129046956D01*
X132105552Y-129034974D01*
X132086832Y-129021090D01*
X132069562Y-129005438D01*
X132053910Y-128988168D01*
X132040026Y-128969448D01*
X132028044Y-128949457D01*
X132018079Y-128928387D01*
X132010227Y-128906443D01*
X132004563Y-128883834D01*
X132001144Y-128860779D01*
X132000000Y-128837500D01*
X132000000Y-128362500D01*
X132001144Y-128339221D01*
X132004563Y-128316166D01*
X132010227Y-128293557D01*
X132018079Y-128271613D01*
X132028044Y-128250543D01*
X132040026Y-128230552D01*
X132053910Y-128211832D01*
X132069562Y-128194562D01*
X132086832Y-128178910D01*
X132105552Y-128165026D01*
X132125543Y-128153044D01*
X132146613Y-128143079D01*
X132168557Y-128135227D01*
X132191166Y-128129563D01*
X132214221Y-128126144D01*
X132237500Y-128125000D01*
X132812500Y-128125000D01*
X132835779Y-128126144D01*
X132835779Y-128126144D01*
G37*
D18*
G04 #@! TD*
G04 #@! TO.P,R14,1*
G04 #@! TO.N,/COL4*
X132525000Y-128600000D03*
D17*
G04 #@! TO.N,GND*
G04 #@! TO.C,R14*
G36*
X134585779Y-128126144D02*
X134608834Y-128129563D01*
X134631443Y-128135227D01*
X134653387Y-128143079D01*
X134674457Y-128153044D01*
X134694448Y-128165026D01*
X134713168Y-128178910D01*
X134730438Y-128194562D01*
X134746090Y-128211832D01*
X134759974Y-128230552D01*
X134771956Y-128250543D01*
X134781921Y-128271613D01*
X134789773Y-128293557D01*
X134795437Y-128316166D01*
X134798856Y-128339221D01*
X134800000Y-128362500D01*
X134800000Y-128837500D01*
X134798856Y-128860779D01*
X134795437Y-128883834D01*
X134789773Y-128906443D01*
X134781921Y-128928387D01*
X134771956Y-128949457D01*
X134759974Y-128969448D01*
X134746090Y-128988168D01*
X134730438Y-129005438D01*
X134713168Y-129021090D01*
X134694448Y-129034974D01*
X134674457Y-129046956D01*
X134653387Y-129056921D01*
X134631443Y-129064773D01*
X134608834Y-129070437D01*
X134585779Y-129073856D01*
X134562500Y-129075000D01*
X133987500Y-129075000D01*
X133964221Y-129073856D01*
X133941166Y-129070437D01*
X133918557Y-129064773D01*
X133896613Y-129056921D01*
X133875543Y-129046956D01*
X133855552Y-129034974D01*
X133836832Y-129021090D01*
X133819562Y-129005438D01*
X133803910Y-128988168D01*
X133790026Y-128969448D01*
X133778044Y-128949457D01*
X133768079Y-128928387D01*
X133760227Y-128906443D01*
X133754563Y-128883834D01*
X133751144Y-128860779D01*
X133750000Y-128837500D01*
X133750000Y-128362500D01*
X133751144Y-128339221D01*
X133754563Y-128316166D01*
X133760227Y-128293557D01*
X133768079Y-128271613D01*
X133778044Y-128250543D01*
X133790026Y-128230552D01*
X133803910Y-128211832D01*
X133819562Y-128194562D01*
X133836832Y-128178910D01*
X133855552Y-128165026D01*
X133875543Y-128153044D01*
X133896613Y-128143079D01*
X133918557Y-128135227D01*
X133941166Y-128129563D01*
X133964221Y-128126144D01*
X133987500Y-128125000D01*
X134562500Y-128125000D01*
X134585779Y-128126144D01*
X134585779Y-128126144D01*
G37*
D18*
G04 #@! TD*
G04 #@! TO.P,R14,2*
G04 #@! TO.N,GND*
X134275000Y-128600000D03*
D17*
G04 #@! TO.N,GND*
G04 #@! TO.C,R15*
G36*
X134548182Y-131326144D02*
X134571237Y-131329563D01*
X134593846Y-131335227D01*
X134615790Y-131343079D01*
X134636860Y-131353044D01*
X134656851Y-131365026D01*
X134675571Y-131378910D01*
X134692841Y-131394562D01*
X134708493Y-131411832D01*
X134722377Y-131430552D01*
X134734359Y-131450543D01*
X134744324Y-131471613D01*
X134752176Y-131493557D01*
X134757840Y-131516166D01*
X134761259Y-131539221D01*
X134762403Y-131562500D01*
X134762403Y-132037500D01*
X134761259Y-132060779D01*
X134757840Y-132083834D01*
X134752176Y-132106443D01*
X134744324Y-132128387D01*
X134734359Y-132149457D01*
X134722377Y-132169448D01*
X134708493Y-132188168D01*
X134692841Y-132205438D01*
X134675571Y-132221090D01*
X134656851Y-132234974D01*
X134636860Y-132246956D01*
X134615790Y-132256921D01*
X134593846Y-132264773D01*
X134571237Y-132270437D01*
X134548182Y-132273856D01*
X134524903Y-132275000D01*
X133949903Y-132275000D01*
X133926624Y-132273856D01*
X133903569Y-132270437D01*
X133880960Y-132264773D01*
X133859016Y-132256921D01*
X133837946Y-132246956D01*
X133817955Y-132234974D01*
X133799235Y-132221090D01*
X133781965Y-132205438D01*
X133766313Y-132188168D01*
X133752429Y-132169448D01*
X133740447Y-132149457D01*
X133730482Y-132128387D01*
X133722630Y-132106443D01*
X133716966Y-132083834D01*
X133713547Y-132060779D01*
X133712403Y-132037500D01*
X133712403Y-131562500D01*
X133713547Y-131539221D01*
X133716966Y-131516166D01*
X133722630Y-131493557D01*
X133730482Y-131471613D01*
X133740447Y-131450543D01*
X133752429Y-131430552D01*
X133766313Y-131411832D01*
X133781965Y-131394562D01*
X133799235Y-131378910D01*
X133817955Y-131365026D01*
X133837946Y-131353044D01*
X133859016Y-131343079D01*
X133880960Y-131335227D01*
X133903569Y-131329563D01*
X133926624Y-131326144D01*
X133949903Y-131325000D01*
X134524903Y-131325000D01*
X134548182Y-131326144D01*
X134548182Y-131326144D01*
G37*
D18*
G04 #@! TD*
G04 #@! TO.P,R15,2*
G04 #@! TO.N,GND*
X134237403Y-131800000D03*
D17*
G04 #@! TO.N,/COL5*
G04 #@! TO.C,R15*
G36*
X132798182Y-131326144D02*
X132821237Y-131329563D01*
X132843846Y-131335227D01*
X132865790Y-131343079D01*
X132886860Y-131353044D01*
X132906851Y-131365026D01*
X132925571Y-131378910D01*
X132942841Y-131394562D01*
X132958493Y-131411832D01*
X132972377Y-131430552D01*
X132984359Y-131450543D01*
X132994324Y-131471613D01*
X133002176Y-131493557D01*
X133007840Y-131516166D01*
X133011259Y-131539221D01*
X133012403Y-131562500D01*
X133012403Y-132037500D01*
X133011259Y-132060779D01*
X133007840Y-132083834D01*
X133002176Y-132106443D01*
X132994324Y-132128387D01*
X132984359Y-132149457D01*
X132972377Y-132169448D01*
X132958493Y-132188168D01*
X132942841Y-132205438D01*
X132925571Y-132221090D01*
X132906851Y-132234974D01*
X132886860Y-132246956D01*
X132865790Y-132256921D01*
X132843846Y-132264773D01*
X132821237Y-132270437D01*
X132798182Y-132273856D01*
X132774903Y-132275000D01*
X132199903Y-132275000D01*
X132176624Y-132273856D01*
X132153569Y-132270437D01*
X132130960Y-132264773D01*
X132109016Y-132256921D01*
X132087946Y-132246956D01*
X132067955Y-132234974D01*
X132049235Y-132221090D01*
X132031965Y-132205438D01*
X132016313Y-132188168D01*
X132002429Y-132169448D01*
X131990447Y-132149457D01*
X131980482Y-132128387D01*
X131972630Y-132106443D01*
X131966966Y-132083834D01*
X131963547Y-132060779D01*
X131962403Y-132037500D01*
X131962403Y-131562500D01*
X131963547Y-131539221D01*
X131966966Y-131516166D01*
X131972630Y-131493557D01*
X131980482Y-131471613D01*
X131990447Y-131450543D01*
X132002429Y-131430552D01*
X132016313Y-131411832D01*
X132031965Y-131394562D01*
X132049235Y-131378910D01*
X132067955Y-131365026D01*
X132087946Y-131353044D01*
X132109016Y-131343079D01*
X132130960Y-131335227D01*
X132153569Y-131329563D01*
X132176624Y-131326144D01*
X132199903Y-131325000D01*
X132774903Y-131325000D01*
X132798182Y-131326144D01*
X132798182Y-131326144D01*
G37*
D18*
G04 #@! TD*
G04 #@! TO.P,R15,1*
G04 #@! TO.N,/COL5*
X132487403Y-131800000D03*
D19*
G04 #@! TO.N,GND*
X108700001Y-122500000D03*
X53300000Y-117900000D03*
X51400000Y-112800000D03*
X49200000Y-111300000D03*
X51150021Y-110300000D03*
X46200000Y-112300000D03*
X43800000Y-112400000D03*
X55700000Y-120500000D03*
X53500000Y-125000000D03*
G04 #@! TO.N,+5V*
X54749990Y-119838192D03*
G04 #@! TO.N,/COL0*
X84100000Y-133700000D03*
G04 #@! TO.N,/DRAIN*
X64100000Y-118400000D03*
X52200000Y-132200000D03*
G04 #@! TO.N,/MUX_EN*
X47600000Y-126800000D03*
X63100000Y-118100000D03*
G04 #@! TD*
D20*
G04 #@! TO.N,Net-(C1-Pad1)*
X50934514Y-128469487D02*
X50924677Y-128459650D01*
X50934514Y-130242137D02*
X50934514Y-128469487D01*
X50924677Y-128459650D02*
X50924677Y-127275323D01*
X50924677Y-127275323D02*
X51775000Y-126425000D01*
X55600000Y-126425000D02*
X55600000Y-124675000D01*
X51775000Y-126425000D02*
X55600000Y-126425000D01*
G04 #@! TO.N,GND*
X57834514Y-129097137D02*
X57829514Y-129092137D01*
X57834514Y-131192137D02*
X57834514Y-129097137D01*
X52184677Y-130962137D02*
X52184677Y-128459650D01*
X53464677Y-132242137D02*
X52184677Y-130962137D01*
X49654677Y-132954677D02*
X50500000Y-133800000D01*
X50500000Y-133800000D02*
X53100000Y-133800000D01*
X53464677Y-133435323D02*
X53464677Y-132242137D01*
X53100000Y-133800000D02*
X53464677Y-133435323D01*
X48374677Y-128459650D02*
X49654677Y-128459650D01*
X45844677Y-129609650D02*
X46335027Y-130100000D01*
X45844677Y-128459650D02*
X45844677Y-129609650D01*
X49254677Y-130100000D02*
X49654677Y-130500000D01*
X46335027Y-130100000D02*
X49254677Y-130100000D01*
X49654677Y-128459650D02*
X49654677Y-130500000D01*
X49654677Y-130500000D02*
X49654677Y-132954677D01*
X44564677Y-129609650D02*
X44900000Y-129944973D01*
X44564677Y-128459650D02*
X44564677Y-129609650D01*
X46180000Y-129944973D02*
X46335027Y-130100000D01*
X44900000Y-129944973D02*
X46180000Y-129944973D01*
X57829514Y-123129514D02*
X57829514Y-121692137D01*
X58200000Y-123500000D02*
X57829514Y-123129514D01*
X59099514Y-123499514D02*
X59099514Y-121692137D01*
X59100000Y-123500000D02*
X59099514Y-123499514D01*
X59100000Y-123500000D02*
X58200000Y-123500000D01*
X52164677Y-118309650D02*
X52610387Y-117863940D01*
X51360387Y-117863940D02*
X50914677Y-118309650D01*
X52610387Y-117863940D02*
X51360387Y-117863940D01*
X50110387Y-117863940D02*
X49664677Y-118309650D01*
X51360387Y-117863940D02*
X50110387Y-117863940D01*
X48860387Y-117863940D02*
X48414677Y-118309650D01*
X50110387Y-117863940D02*
X48860387Y-117863940D01*
X122000000Y-117800000D02*
X123100000Y-117800000D01*
X119920000Y-120020042D02*
X119920000Y-122000000D01*
X119849979Y-119950021D02*
X119920000Y-120020042D01*
X122460000Y-121600000D02*
X122460000Y-122000000D01*
X120880042Y-120020042D02*
X122460000Y-121600000D01*
X120600000Y-119200000D02*
X120900000Y-118900000D01*
X120600000Y-120020042D02*
X120600000Y-119200000D01*
X120900000Y-118900000D02*
X122000000Y-117800000D01*
X119849979Y-119950021D02*
X120900000Y-118900000D01*
X119920000Y-120020042D02*
X120600000Y-120020042D01*
X120600000Y-120020042D02*
X120880042Y-120020042D01*
X57829514Y-129092137D02*
X57829514Y-128500000D01*
X126429059Y-125850050D02*
X126479109Y-125800000D01*
X126479109Y-125800000D02*
X132300000Y-125800000D01*
X132300000Y-125800000D02*
X133600000Y-124500000D01*
X108700001Y-122500000D02*
X112050061Y-125850060D01*
X49654677Y-128459650D02*
X49654677Y-127045323D01*
X57300928Y-131724072D02*
X57800000Y-131225000D01*
X56874990Y-132150010D02*
X57300928Y-131724072D01*
X58200000Y-123500000D02*
X56175000Y-123500000D01*
X52704676Y-127359649D02*
X54359649Y-127359649D01*
X52184677Y-128459650D02*
X52184677Y-127879648D01*
X52184677Y-127879648D02*
X52704676Y-127359649D01*
X56874990Y-130947278D02*
X56874990Y-132150010D01*
X54359649Y-128431937D02*
X56874990Y-130947278D01*
X54359649Y-127359649D02*
X54359649Y-128431937D01*
X49654677Y-127045323D02*
X49754677Y-127045323D01*
X52610387Y-117863940D02*
X53263940Y-117863940D01*
X53263940Y-117863940D02*
X53300000Y-117900000D01*
X60100000Y-123500000D02*
X64420070Y-123500000D01*
X133723917Y-122376083D02*
X133600000Y-122500000D01*
X134066717Y-122376083D02*
X133723917Y-122376083D01*
X133600000Y-124500000D02*
X133600000Y-122500000D01*
X134066717Y-120776083D02*
X133723917Y-120776083D01*
X133600000Y-125850000D02*
X133600000Y-124500000D01*
X134275000Y-126525000D02*
X133600000Y-125850000D01*
X134275000Y-127100000D02*
X134275000Y-126525000D01*
X134275000Y-128600000D02*
X134275000Y-127100000D01*
X134237403Y-131800000D02*
X134237403Y-130197549D01*
X134237403Y-128637597D02*
X134275000Y-128600000D01*
X134237403Y-130197549D02*
X134237403Y-128637597D01*
X107925000Y-131800000D02*
X107925000Y-130100000D01*
X111599940Y-125850060D02*
X112300000Y-125850060D01*
X107925000Y-129525000D02*
X111599940Y-125850060D01*
X107925000Y-130100000D02*
X107925000Y-129525000D01*
X112050061Y-125850060D02*
X112300000Y-125850060D01*
X112300000Y-125850060D02*
X126429059Y-125850050D01*
X85790411Y-129184589D02*
X85790411Y-120009686D01*
X85790411Y-130684589D02*
X85790411Y-129184589D01*
X53500000Y-118100000D02*
X53300000Y-117900000D01*
X53500000Y-118725000D02*
X53500000Y-118100000D01*
X64825000Y-122700000D02*
X65220070Y-122700000D01*
X64100000Y-121975000D02*
X64825000Y-122700000D01*
X64825000Y-123095070D02*
X64700000Y-123220070D01*
X64825000Y-122700000D02*
X64825000Y-123095070D01*
X64420070Y-123500000D02*
X64700000Y-123220070D01*
X64700000Y-123220070D02*
X65220070Y-122700000D01*
D21*
X51400000Y-112800000D02*
X52900000Y-111300000D01*
X52900000Y-111300000D02*
X52900000Y-102600000D01*
X52900000Y-102600000D02*
X54800000Y-100700000D01*
X54800000Y-100700000D02*
X58100000Y-100700000D01*
X58100000Y-100700000D02*
X56100000Y-102700000D01*
X56100000Y-102700000D02*
X54400000Y-104400000D01*
X54400000Y-104400000D02*
X54400000Y-110000000D01*
X54400000Y-110000000D02*
X54571229Y-110000000D01*
X54571229Y-110000000D02*
X58371229Y-113800000D01*
X58371229Y-113800000D02*
X64200000Y-113800000D01*
D20*
X46200000Y-112300000D02*
X46200000Y-105300000D01*
D21*
X123100000Y-117373641D02*
X124873641Y-115600000D01*
X123100000Y-117800000D02*
X123100000Y-117373641D01*
X124873641Y-115600000D02*
X131316324Y-115600000D01*
X131316324Y-115600000D02*
X133416324Y-117700000D01*
X133416324Y-120468490D02*
X133723917Y-120776083D01*
X133416324Y-117700000D02*
X133416324Y-120468490D01*
X133600000Y-121751083D02*
X133600000Y-122500000D01*
X133416324Y-121567407D02*
X133600000Y-121751083D01*
X133416324Y-120468490D02*
X133416324Y-121567407D01*
X55700000Y-121000000D02*
X55700000Y-120500000D01*
X55700000Y-121000000D02*
X55600000Y-121100000D01*
X55600000Y-121100000D02*
X55600000Y-121800000D01*
X55600000Y-121800000D02*
X55600000Y-122925000D01*
X55100928Y-123424072D02*
X55600000Y-122925000D01*
X58124072Y-123424072D02*
X58200000Y-123500000D01*
X55100928Y-123424072D02*
X58124072Y-123424072D01*
X56175000Y-123500000D02*
X55600000Y-122925000D01*
X64344142Y-123424072D02*
X64420070Y-123500000D01*
X58124072Y-123424072D02*
X64344142Y-123424072D01*
X64495998Y-123424072D02*
X65520070Y-122400000D01*
X64344142Y-123424072D02*
X64495998Y-123424072D01*
D20*
X65220070Y-122700000D02*
X65520070Y-122400000D01*
D21*
X70119996Y-117800074D02*
X70119998Y-117800074D01*
X65520070Y-122400000D02*
X70119996Y-117800074D01*
D20*
X64200000Y-113800000D02*
X64400071Y-113599929D01*
D21*
X70319994Y-117600076D02*
X70119996Y-117800074D01*
X87400073Y-117700075D02*
X87300074Y-117600076D01*
X87300074Y-117600076D02*
X70319994Y-117600076D01*
X49754677Y-127045323D02*
X53375928Y-123424072D01*
X54700000Y-123800000D02*
X53500000Y-125000000D01*
X54700000Y-123424072D02*
X54700000Y-123800000D01*
X53375928Y-123424072D02*
X54700000Y-123424072D01*
X54700000Y-123424072D02*
X55100928Y-123424072D01*
D20*
X84050097Y-121750000D02*
X85790411Y-120009686D01*
X79750000Y-121750000D02*
X84050097Y-121750000D01*
X77100097Y-119100097D02*
X79750000Y-121750000D01*
X70941324Y-119100097D02*
X77100097Y-119100097D01*
X56874990Y-133574990D02*
X57250010Y-133950010D01*
X56874990Y-132150010D02*
X56874990Y-133574990D01*
X57250010Y-133950010D02*
X62249990Y-133950010D01*
X62249990Y-133950010D02*
X62900000Y-133300000D01*
X62900000Y-133300000D02*
X62900000Y-127141421D01*
X62900000Y-127141421D02*
X70941324Y-119100097D01*
X85790411Y-120009686D02*
X86700000Y-119100097D01*
X86700000Y-119100097D02*
X86899924Y-119300021D01*
X105860035Y-122500000D02*
X108700001Y-122500000D01*
X102660056Y-119300021D02*
X105860035Y-122500000D01*
X86899924Y-119300021D02*
X102660056Y-119300021D01*
X87399998Y-117700000D02*
X87300074Y-117600076D01*
X119849979Y-119950021D02*
X109449979Y-119950021D01*
X109449979Y-119950021D02*
X108700000Y-120700000D01*
D21*
X87506971Y-117700070D02*
X88100076Y-117700074D01*
X87405896Y-117700067D02*
X87506971Y-117700070D01*
X87305907Y-117600076D02*
X87405896Y-117700067D01*
X87300074Y-117600076D02*
X87305907Y-117600076D01*
D20*
X68950000Y-101500000D02*
X70350000Y-100100000D01*
X94600005Y-113699995D02*
X98300000Y-110000000D01*
X136500000Y-110500000D02*
X136500000Y-103900000D01*
X65400010Y-99199990D02*
X54100010Y-99199990D01*
X155400000Y-104400000D02*
X155251998Y-104251998D01*
X84700000Y-104300000D02*
X84700000Y-109700000D01*
X114800000Y-99650000D02*
X116650001Y-101500001D01*
X155829908Y-98050022D02*
X151270092Y-98050022D01*
X122900000Y-104100000D02*
X122900000Y-110000000D01*
X169307524Y-99400000D02*
X167957524Y-98050000D01*
X98300000Y-104400000D02*
X94500005Y-100600005D01*
X94500005Y-100600005D02*
X91500005Y-100600005D01*
X174437576Y-103837576D02*
X170000000Y-99400000D01*
X91500005Y-100600005D02*
X90750000Y-99850000D01*
X100551998Y-100198002D02*
X101150000Y-99600000D01*
X106950000Y-99600000D02*
X107400000Y-100050000D01*
X84700000Y-109700000D02*
X88599928Y-113599928D01*
X116650001Y-101500001D02*
X118349999Y-101500001D01*
X151270070Y-98050000D02*
X132879930Y-98050000D01*
X97951999Y-101500001D02*
X99248001Y-101500001D01*
X139300000Y-99650000D02*
X145450000Y-99650000D01*
X103900000Y-104400000D02*
X103900000Y-109800000D01*
X145912651Y-113700000D02*
X151600000Y-113700000D01*
X70350000Y-100100000D02*
X88300000Y-100100000D01*
X125250000Y-99850000D02*
X126200000Y-100800000D01*
X136051998Y-103451998D02*
X136051998Y-102898002D01*
X88300000Y-100100000D02*
X88900000Y-100700000D01*
X145500000Y-99700000D02*
X145500000Y-100800000D01*
X142100000Y-109887349D02*
X145912651Y-113700000D01*
X75570070Y-98050000D02*
X66550000Y-98050000D01*
X118349999Y-101500001D02*
X120000000Y-99850000D01*
X164399995Y-113699995D02*
X170900005Y-113699995D01*
X117287576Y-109912424D02*
X117287576Y-104087576D01*
X164250000Y-100050000D02*
X161100000Y-103200000D01*
X79529908Y-98050022D02*
X75570092Y-98050022D01*
X89799928Y-113599928D02*
X89899995Y-113699995D01*
X107400000Y-100700000D02*
X107100000Y-101000000D01*
X64200000Y-113800000D02*
X64500000Y-113800000D01*
X100550000Y-100198002D02*
X100551998Y-100198002D01*
X126200000Y-100800000D02*
X122900000Y-104100000D01*
X64500000Y-113800000D02*
X68000000Y-110300000D01*
X101150000Y-99600000D02*
X106950000Y-99600000D01*
X167957524Y-98050000D02*
X155829930Y-98050000D01*
X54100010Y-99199990D02*
X51150021Y-102149979D01*
X107100000Y-101200000D02*
X103900000Y-104400000D01*
X113800005Y-100600005D02*
X110800005Y-100600005D01*
X145500000Y-100800000D02*
X142100000Y-104200000D01*
X88000000Y-101000000D02*
X84700000Y-104300000D01*
X155400000Y-109900000D02*
X155400000Y-104400000D01*
X174437576Y-110162424D02*
X174437576Y-103837576D01*
X65200000Y-101500000D02*
X68950000Y-101500000D01*
X107799995Y-113699995D02*
X113500005Y-113699995D01*
X132879908Y-98050022D02*
X120770092Y-98050022D01*
X155251998Y-104251998D02*
X155251998Y-102998002D01*
X122900000Y-110000000D02*
X126599995Y-113699995D01*
X170000000Y-99400000D02*
X169307524Y-99400000D01*
X89899995Y-113699995D02*
X94600005Y-113699995D01*
X132879930Y-98050000D02*
X132879908Y-98050022D01*
X161100000Y-103200000D02*
X161100000Y-110400000D01*
X120000000Y-99850000D02*
X125250000Y-99850000D01*
X51150021Y-102149979D02*
X51150021Y-110300000D01*
X75570092Y-98050022D02*
X75570070Y-98050000D01*
X133300005Y-113699995D02*
X136500000Y-110500000D01*
X107100000Y-101000000D02*
X107100000Y-101200000D01*
X68000000Y-110300000D02*
X68000000Y-104300000D01*
X66550000Y-98050000D02*
X65400010Y-99199990D01*
X158500000Y-99750000D02*
X164050000Y-99750000D01*
X155829930Y-98050000D02*
X155829908Y-98050022D01*
X99248001Y-101500001D02*
X100550000Y-100198002D01*
X107400000Y-100050000D02*
X107400000Y-100700000D01*
X142100000Y-104200000D02*
X142100000Y-109887349D01*
X170900005Y-113699995D02*
X174437576Y-110162424D01*
X155251998Y-102998002D02*
X158500000Y-99750000D01*
X96301998Y-99850000D02*
X97951999Y-101500001D01*
X151270092Y-98050022D02*
X151270070Y-98050000D01*
X98300000Y-110000000D02*
X98300000Y-104400000D01*
X126599995Y-113699995D02*
X133300005Y-113699995D01*
X88900000Y-100700000D02*
X88900000Y-101000000D01*
X120770070Y-98050000D02*
X79529930Y-98050000D01*
X117287576Y-104087576D02*
X113800005Y-100600005D01*
X136500000Y-103900000D02*
X136051998Y-103451998D01*
X90750000Y-99850000D02*
X96301998Y-99850000D01*
X164050000Y-99750000D02*
X164350000Y-100050000D01*
X103900000Y-109800000D02*
X107799995Y-113699995D01*
X136051998Y-102898002D02*
X139300000Y-99650000D01*
X79529930Y-98050000D02*
X79529908Y-98050022D01*
X88599928Y-113599928D02*
X89799928Y-113599928D01*
X109850000Y-99650000D02*
X114800000Y-99650000D01*
X68000000Y-104300000D02*
X65200000Y-101500000D01*
X120770092Y-98050022D02*
X120770070Y-98050000D01*
X110800005Y-100600005D02*
X109850000Y-99650000D01*
X88900000Y-101000000D02*
X88000000Y-101000000D01*
X145450000Y-99650000D02*
X145500000Y-99700000D01*
X151600000Y-113700000D02*
X155400000Y-109900000D01*
X113500005Y-113699995D02*
X117287576Y-109912424D01*
X161100000Y-110400000D02*
X164399995Y-113699995D01*
X164350000Y-100050000D02*
X164250000Y-100050000D01*
X49600000Y-110900000D02*
X49200000Y-111300000D01*
X49600000Y-100700000D02*
X49600000Y-110900000D01*
X54800000Y-95500000D02*
X49600000Y-100700000D01*
X54800000Y-94700000D02*
X54800000Y-95500000D01*
X53800000Y-94700000D02*
X54800000Y-94700000D01*
X50100000Y-91000000D02*
X53800000Y-94700000D01*
X50100000Y-85200000D02*
X50100000Y-91000000D01*
X53749995Y-81550005D02*
X50100000Y-85200000D01*
X58650005Y-81550005D02*
X53749995Y-81550005D01*
X58700000Y-81600000D02*
X58650005Y-81550005D01*
X59700000Y-81600000D02*
X58700000Y-81600000D01*
X63387576Y-85287576D02*
X59700000Y-81600000D01*
X63387576Y-91012424D02*
X63387576Y-85287576D01*
X59700000Y-94700000D02*
X63387576Y-91012424D01*
X58300000Y-94700000D02*
X59700000Y-94700000D01*
X58300000Y-95200000D02*
X58300000Y-94700000D01*
X59600000Y-96500000D02*
X58300000Y-95200000D01*
X79100000Y-96500000D02*
X59600000Y-96500000D01*
X80500000Y-95100000D02*
X79100000Y-96500000D01*
X80500000Y-94700000D02*
X80500000Y-95100000D01*
X79600000Y-94700000D02*
X80500000Y-94700000D01*
X75900000Y-91000000D02*
X79600000Y-94700000D01*
X75900000Y-85363029D02*
X75900000Y-91000000D01*
X79763029Y-81500000D02*
X75900000Y-85363029D01*
X85337349Y-81500000D02*
X79763029Y-81500000D01*
X138000000Y-95200000D02*
X136749999Y-96450001D01*
X138000000Y-94900000D02*
X138000000Y-95200000D01*
X155700000Y-81500000D02*
X152100000Y-85100000D01*
X133062424Y-85375152D02*
X133000000Y-85375152D01*
X137000000Y-81400000D02*
X133062424Y-85337576D01*
X161336971Y-94900000D02*
X165387576Y-90849395D01*
X146400000Y-85400000D02*
X142400000Y-81400000D01*
X133062424Y-85437576D02*
X133062424Y-90862424D01*
X159700000Y-94900000D02*
X161336971Y-94900000D01*
X146400000Y-90900000D02*
X146400000Y-85400000D01*
X140550000Y-94900000D02*
X142400000Y-94900000D01*
X139350000Y-96100000D02*
X140550000Y-94900000D01*
X139350000Y-96300000D02*
X139350000Y-96100000D01*
X152112424Y-90912424D02*
X156100000Y-94900000D01*
X139550000Y-96500000D02*
X139350000Y-96300000D01*
X133062424Y-90862424D02*
X137100000Y-94900000D01*
X155300000Y-96500000D02*
X139550000Y-96500000D01*
X155350000Y-96550000D02*
X155300000Y-96500000D01*
X165387576Y-90849395D02*
X165387576Y-85187576D01*
X99500000Y-95650000D02*
X98650000Y-96500000D01*
X133062424Y-85337576D02*
X133062424Y-85375152D01*
X165387576Y-85187576D02*
X161700000Y-81500000D01*
X118350000Y-95600000D02*
X117550000Y-96400000D01*
X142400000Y-94900000D02*
X146400000Y-90900000D01*
X84486971Y-95550000D02*
X89187576Y-90849395D01*
X156100000Y-94900000D02*
X156700000Y-94900000D01*
X89187576Y-90849395D02*
X89187576Y-85350227D01*
X133000000Y-85375152D02*
X133062424Y-85437576D01*
X118400000Y-95600000D02*
X118350000Y-95600000D01*
X142400000Y-81400000D02*
X137000000Y-81400000D01*
X161700000Y-81500000D02*
X155700000Y-81500000D01*
X123300000Y-95100000D02*
X127287576Y-91112424D01*
X137100000Y-94900000D02*
X138000000Y-94900000D01*
X152100000Y-85100000D02*
X152100000Y-85500000D01*
X117550000Y-96400000D02*
X114348002Y-96400000D01*
X152100000Y-85500000D02*
X152112424Y-85512424D01*
X101350001Y-96450001D02*
X101900000Y-95900002D01*
X156700000Y-95200000D02*
X155350000Y-96550000D01*
X136749999Y-96450001D02*
X121150001Y-96450001D01*
X152112424Y-85512424D02*
X152112424Y-90912424D01*
X104450005Y-81550005D02*
X98749995Y-81550005D01*
X156700000Y-94900000D02*
X156700000Y-95200000D01*
X121150001Y-96450001D02*
X120550000Y-95850000D01*
X120550000Y-95850000D02*
X120550000Y-95300000D01*
X120550000Y-95300000D02*
X120750000Y-95100000D01*
X120750000Y-95100000D02*
X123300000Y-95100000D01*
X127287576Y-91112424D02*
X127287576Y-85287576D01*
X127287576Y-85287576D02*
X123400000Y-81400000D01*
X123400000Y-81400000D02*
X117800000Y-81400000D01*
X117800000Y-81400000D02*
X114000000Y-85200000D01*
X114000000Y-85200000D02*
X114000000Y-91000000D01*
X114000000Y-91000000D02*
X118000000Y-95000000D01*
X118000000Y-95000000D02*
X118900000Y-95000000D01*
X118900000Y-95000000D02*
X118900000Y-95100000D01*
X118900000Y-95100000D02*
X118400000Y-95600000D01*
X114348002Y-96400000D02*
X114298001Y-96450001D01*
X114298001Y-96450001D02*
X101350001Y-96450001D01*
X101900000Y-95900002D02*
X101900000Y-95450000D01*
X101900000Y-95450000D02*
X102550000Y-94800000D01*
X102550000Y-94800000D02*
X104500000Y-94800000D01*
X104500000Y-94800000D02*
X108237576Y-91062424D01*
X108237576Y-91062424D02*
X108237576Y-85337576D01*
X108237576Y-85337576D02*
X104450005Y-81550005D01*
X98749995Y-81550005D02*
X94900000Y-85400000D01*
X94900000Y-85400000D02*
X94900000Y-90800000D01*
X94900000Y-90800000D02*
X99000000Y-94900000D01*
X99000000Y-94900000D02*
X99800000Y-94900000D01*
X99800000Y-94900000D02*
X99800000Y-95300000D01*
X99800000Y-95300000D02*
X99500000Y-95600000D01*
X99500000Y-95600000D02*
X99500000Y-95650000D01*
X98650000Y-96500000D02*
X82400000Y-96500000D01*
X82400000Y-96500000D02*
X82950000Y-95950000D01*
X82950000Y-95950000D02*
X82950000Y-95550000D01*
X82950000Y-95550000D02*
X84486971Y-95550000D01*
X89187576Y-85350227D02*
X85337349Y-81500000D01*
X46200000Y-105300000D02*
X46200000Y-79400000D01*
X47050000Y-78550000D02*
X46200000Y-79400000D01*
X49600000Y-78550000D02*
X47050000Y-78550000D01*
X52300000Y-75850000D02*
X49600000Y-78550000D01*
X52300000Y-75500000D02*
X52300000Y-75850000D01*
X51500000Y-75500000D02*
X52300000Y-75500000D01*
X47800000Y-71800000D02*
X51500000Y-75500000D01*
X47800000Y-66100000D02*
X47800000Y-71800000D01*
X51500000Y-62400000D02*
X47800000Y-66100000D01*
X57300000Y-62400000D02*
X51500000Y-62400000D01*
X61200000Y-66300000D02*
X57300000Y-62400000D01*
X61200000Y-71900000D02*
X61200000Y-66300000D01*
X57400000Y-75700000D02*
X61200000Y-71900000D01*
X54850000Y-75700000D02*
X57400000Y-75700000D01*
X53150000Y-77400000D02*
X54850000Y-75700000D01*
X53150000Y-77600000D02*
X53150000Y-77400000D01*
X53350000Y-77800000D02*
X53150000Y-77600000D01*
X74500000Y-77800000D02*
X53350000Y-77800000D01*
X76100000Y-76200000D02*
X74500000Y-77800000D01*
X76100000Y-75800000D02*
X76100000Y-76200000D01*
X75412651Y-75800000D02*
X76100000Y-75800000D01*
X71400000Y-71787349D02*
X75412651Y-75800000D01*
X71400000Y-66300000D02*
X71400000Y-71787349D01*
X75200000Y-62500000D02*
X71400000Y-66300000D01*
X80900000Y-62500000D02*
X75200000Y-62500000D01*
X84700000Y-66300000D02*
X80900000Y-62500000D01*
X84700000Y-71800000D02*
X84700000Y-66300000D01*
X80700000Y-75800000D02*
X84700000Y-71800000D01*
X78200000Y-75800000D02*
X80700000Y-75800000D01*
X78000000Y-76000000D02*
X78200000Y-75800000D01*
X78000000Y-76200000D02*
X78000000Y-76000000D01*
X77450000Y-76750000D02*
X78000000Y-76200000D01*
X77450000Y-77700000D02*
X77450000Y-76750000D01*
X141900000Y-71800000D02*
X141900000Y-66362651D01*
X138000000Y-75700000D02*
X141900000Y-71800000D01*
X95300000Y-75500000D02*
X95300000Y-76200000D01*
X135500000Y-75700000D02*
X138000000Y-75700000D01*
X134100000Y-77300000D02*
X135200000Y-76200000D01*
X77500000Y-77750000D02*
X77450000Y-77700000D01*
X150200000Y-77750000D02*
X134250000Y-77750000D01*
X151550000Y-76400000D02*
X150200000Y-77750000D01*
X151600000Y-76400000D02*
X151550000Y-76400000D01*
X152300000Y-75700000D02*
X151600000Y-76400000D01*
X100300000Y-75600000D02*
X103900000Y-72000000D01*
X151512651Y-75700000D02*
X152300000Y-75700000D01*
X135200000Y-76200000D02*
X135200000Y-76000000D01*
X103900000Y-66462651D02*
X99937349Y-62500000D01*
X147712651Y-71900000D02*
X151512651Y-75700000D01*
X134250000Y-77750000D02*
X134100000Y-77600000D01*
X90400000Y-71800000D02*
X94100000Y-75500000D01*
X147500000Y-66300000D02*
X147500000Y-71700000D01*
X157100005Y-62500005D02*
X151299995Y-62500005D01*
X160900000Y-66300000D02*
X157100005Y-62500005D01*
X112700000Y-77700000D02*
X96650000Y-77700000D01*
X114400000Y-75700000D02*
X114400000Y-76000000D01*
X147500000Y-71700000D02*
X147700000Y-71900000D01*
X49200000Y-111300000D02*
X47800000Y-111300000D01*
X97000000Y-76400000D02*
X96900000Y-76300000D01*
X113100000Y-75400000D02*
X114100000Y-75400000D01*
X47699999Y-80300001D02*
X48000000Y-80000000D01*
X134100000Y-77600000D02*
X134100000Y-77300000D01*
X96900000Y-75800000D02*
X97100000Y-75600000D01*
X47800000Y-111300000D02*
X47699999Y-111199999D01*
X94100000Y-75500000D02*
X95300000Y-75500000D01*
X135200000Y-76000000D02*
X135500000Y-75700000D01*
X47699999Y-111199999D02*
X47699999Y-80300001D01*
X151299995Y-62500005D02*
X147500000Y-66300000D01*
X50500000Y-80000000D02*
X51150000Y-79350000D01*
X156986971Y-75700000D02*
X160900000Y-71786971D01*
X109500000Y-71800000D02*
X113100000Y-75400000D01*
X147700000Y-71900000D02*
X147712651Y-71900000D01*
X97000000Y-77350000D02*
X97000000Y-76400000D01*
X51150000Y-79350000D02*
X150749999Y-79350000D01*
X48000000Y-80000000D02*
X50500000Y-80000000D01*
X150749999Y-79350000D02*
X154400000Y-75700000D01*
X154400000Y-75700000D02*
X156986971Y-75700000D01*
X160900000Y-71786971D02*
X160900000Y-66300000D01*
X96650000Y-77700000D02*
X97000000Y-77350000D01*
X141900000Y-66362651D02*
X138037349Y-62500000D01*
X138037349Y-62500000D02*
X132100000Y-62500000D01*
X132100000Y-62500000D02*
X128562424Y-66037576D01*
X128562424Y-66037576D02*
X128562424Y-72062424D01*
X97100000Y-75600000D02*
X100300000Y-75600000D01*
X128562424Y-72062424D02*
X132200000Y-75700000D01*
X132200000Y-75700000D02*
X133400000Y-75700000D01*
X93750000Y-77750000D02*
X77500000Y-77750000D01*
X133400000Y-75700000D02*
X131350000Y-77750000D01*
X131350000Y-77750000D02*
X115750000Y-77750000D01*
X115750000Y-77750000D02*
X115450000Y-77450000D01*
X115450000Y-77450000D02*
X115550000Y-77450000D01*
X114400000Y-76000000D02*
X112700000Y-77700000D01*
X115550000Y-77450000D02*
X117400005Y-75599995D01*
X117400005Y-75599995D02*
X118986976Y-75599995D01*
X118986976Y-75599995D02*
X122787576Y-71799395D01*
X122787576Y-71799395D02*
X122787576Y-66087576D01*
X122787576Y-66087576D02*
X119200005Y-62500005D01*
X119200005Y-62500005D02*
X112899995Y-62500005D01*
X112899995Y-62500005D02*
X109500000Y-65900000D01*
X109500000Y-65900000D02*
X109500000Y-71800000D01*
X114100000Y-75400000D02*
X114400000Y-75700000D01*
X96900000Y-76300000D02*
X96900000Y-75800000D01*
X103900000Y-72000000D02*
X103900000Y-66462651D01*
X99937349Y-62500000D02*
X94263029Y-62500000D01*
X94263029Y-62500000D02*
X90400000Y-66363029D01*
X90400000Y-66363029D02*
X90400000Y-71800000D01*
X95300000Y-76200000D02*
X93750000Y-77750000D01*
X46149999Y-79349999D02*
X46200000Y-79400000D01*
X46149999Y-60350001D02*
X46149999Y-79349999D01*
X46300000Y-60200000D02*
X46149999Y-60350001D01*
X143250000Y-60200000D02*
X46300000Y-60200000D01*
X145349995Y-58100005D02*
X143250000Y-60200000D01*
X145349995Y-56549995D02*
X145349995Y-58100005D01*
X148086976Y-56549995D02*
X145349995Y-56549995D01*
X151887576Y-52749395D02*
X148086976Y-56549995D01*
X151887576Y-47187576D02*
X151887576Y-52749395D01*
X148150005Y-43450005D02*
X151887576Y-47187576D01*
X142413024Y-43450005D02*
X148150005Y-43450005D01*
X138500000Y-47363029D02*
X142413024Y-43450005D01*
X138500000Y-52700000D02*
X138500000Y-47363029D01*
X142200000Y-56400000D02*
X138500000Y-52700000D01*
X143400000Y-56400000D02*
X142200000Y-56400000D01*
X68750005Y-58000005D02*
X69400000Y-58650000D01*
X68750005Y-56549995D02*
X68750005Y-58000005D01*
X86050005Y-56549995D02*
X85262646Y-56549995D01*
X47100000Y-56600000D02*
X43300000Y-52800000D01*
X71950005Y-56549995D02*
X68750005Y-56549995D01*
X85263024Y-43450005D02*
X90950005Y-43450005D01*
X75700000Y-52800000D02*
X71950005Y-56549995D01*
X106150000Y-58450000D02*
X106300000Y-58600000D01*
X75700000Y-47262651D02*
X75700000Y-52800000D01*
X94800000Y-47300000D02*
X94800000Y-52686971D01*
X71837349Y-43400000D02*
X75700000Y-47262651D01*
X113900000Y-52636971D02*
X109736971Y-56800000D01*
X66263029Y-43400000D02*
X71837349Y-43400000D01*
X132837576Y-52749395D02*
X128886971Y-56700000D01*
X85262646Y-56549995D02*
X81400000Y-52687349D01*
X62400000Y-47263029D02*
X66263029Y-43400000D01*
X86450000Y-58300000D02*
X86450000Y-58550000D01*
X65900000Y-56400000D02*
X62400000Y-52900000D01*
X107700000Y-56800000D02*
X106150000Y-58350000D01*
X66600000Y-56400000D02*
X65900000Y-56400000D01*
X132837576Y-47250227D02*
X132837576Y-52749395D01*
X83950000Y-58650000D02*
X86050005Y-56549995D01*
X67250000Y-57050000D02*
X66600000Y-56400000D01*
X67250000Y-57500000D02*
X67250000Y-57050000D01*
X123413029Y-43400000D02*
X128987349Y-43400000D01*
X66050000Y-58700000D02*
X67250000Y-57500000D01*
X86450000Y-58550000D02*
X86550000Y-58650000D01*
X69400000Y-58650000D02*
X83950000Y-58650000D01*
X50400000Y-58700000D02*
X66050000Y-58700000D01*
X106300000Y-58600000D02*
X122200000Y-58600000D01*
X49850000Y-58150000D02*
X50400000Y-58700000D01*
X119500000Y-52687349D02*
X119500000Y-47313029D01*
X48300000Y-56600000D02*
X47100000Y-56600000D01*
X104363029Y-43400000D02*
X110100000Y-43400000D01*
X48300000Y-58000000D02*
X48300000Y-56600000D01*
X119500000Y-47313029D02*
X123413029Y-43400000D01*
X52950005Y-56549995D02*
X50250005Y-56549995D01*
X106150000Y-58350000D02*
X106150000Y-58450000D01*
X56687349Y-52812651D02*
X52950005Y-56549995D01*
X44950000Y-58700000D02*
X47600000Y-58700000D01*
X62400000Y-52900000D02*
X62400000Y-47263029D01*
X110100000Y-43400000D02*
X113900000Y-47200000D01*
X56687349Y-47300000D02*
X56687349Y-52812651D01*
X43800000Y-112400000D02*
X43800000Y-59850000D01*
X122200000Y-58600000D02*
X124250005Y-56549995D01*
X43800000Y-59850000D02*
X44950000Y-58700000D01*
X128987349Y-43400000D02*
X132837576Y-47250227D01*
X43300000Y-52800000D02*
X43300000Y-47313029D01*
X90786971Y-56700000D02*
X88000000Y-56700000D01*
X50250005Y-56549995D02*
X49850000Y-56950000D01*
X43300000Y-47313029D02*
X47213029Y-43400000D01*
X47600000Y-58700000D02*
X48300000Y-58000000D01*
X105300000Y-56700000D02*
X104400000Y-56700000D01*
X47213029Y-43400000D02*
X52787349Y-43400000D01*
X52787349Y-43400000D02*
X56687349Y-47300000D01*
X49850000Y-56950000D02*
X49850000Y-58150000D01*
X90950005Y-43450005D02*
X94800000Y-47300000D01*
X81400000Y-52687349D02*
X81400000Y-47313029D01*
X81400000Y-47313029D02*
X85263024Y-43450005D01*
X94800000Y-52686971D02*
X90786971Y-56700000D01*
X88000000Y-56700000D02*
X88000000Y-56750000D01*
X88000000Y-56750000D02*
X86450000Y-58300000D01*
X86550000Y-58650000D02*
X103350000Y-58650000D01*
X103350000Y-58650000D02*
X105300000Y-56700000D01*
X104400000Y-56700000D02*
X100500000Y-52800000D01*
X100500000Y-52800000D02*
X100500000Y-47263029D01*
X100500000Y-47263029D02*
X104363029Y-43400000D01*
X113900000Y-47200000D02*
X113900000Y-52636971D01*
X109736971Y-56800000D02*
X107700000Y-56800000D01*
X124250005Y-56549995D02*
X123362646Y-56549995D01*
X123362646Y-56549995D02*
X119500000Y-52687349D01*
X128886971Y-56700000D02*
X126600000Y-56700000D01*
X126600000Y-56700000D02*
X125100000Y-58200000D01*
X125100000Y-58200000D02*
X125100000Y-58350000D01*
X125100000Y-58350000D02*
X125450000Y-58700000D01*
X125450000Y-58700000D02*
X142150000Y-58700000D01*
X142150000Y-58700000D02*
X143400000Y-57450000D01*
X143400000Y-57450000D02*
X143400000Y-56400000D01*
X108700000Y-120700000D02*
X106501998Y-120700000D01*
D21*
X101658337Y-117700074D02*
X88100076Y-117700074D01*
X101658411Y-117700000D02*
X101658337Y-117700074D01*
X103501998Y-117700000D02*
X101658411Y-117700000D01*
X106353998Y-120700000D02*
X106501998Y-120700000D01*
X103501998Y-117848000D02*
X106353998Y-120700000D01*
X103501998Y-117700000D02*
X103501998Y-117848000D01*
D20*
G04 #@! TO.N,+5V*
X112300000Y-129620000D02*
X112300000Y-129220000D01*
X112300000Y-129620000D02*
X112300000Y-129600000D01*
X61599979Y-121652602D02*
X61639514Y-121692137D01*
X53464677Y-121009650D02*
X53500000Y-120974327D01*
X53464677Y-122159650D02*
X53464677Y-121009650D01*
X61639514Y-120239514D02*
X61639514Y-121692137D01*
X60900000Y-119500000D02*
X61639514Y-120239514D01*
X61639514Y-120160486D02*
X62300000Y-119500000D01*
X61639514Y-120239514D02*
X61639514Y-120160486D01*
X61639514Y-119539514D02*
X61600000Y-119500000D01*
X61639514Y-120239514D02*
X61639514Y-119539514D01*
X60900000Y-119500000D02*
X61600000Y-119500000D01*
X61600000Y-119500000D02*
X62300000Y-119500000D01*
X64100000Y-120225000D02*
X64100000Y-119600000D01*
X62300000Y-119500000D02*
X64400000Y-119500000D01*
X64200000Y-119500000D02*
X64100000Y-119600000D01*
D21*
X60900000Y-119500000D02*
X62300000Y-119500000D01*
X62300000Y-119500000D02*
X64200000Y-119500000D01*
D20*
X64400000Y-119500000D02*
X64200000Y-119500000D01*
X54349991Y-120238191D02*
X54749990Y-119838192D01*
X53500000Y-120475000D02*
X54113182Y-120475000D01*
D21*
X55149989Y-119438193D02*
X54749990Y-119838192D01*
X60838193Y-119438193D02*
X55149989Y-119438193D01*
X60900000Y-119500000D02*
X60838193Y-119438193D01*
D20*
X54113182Y-120475000D02*
X54349991Y-120238191D01*
X87637207Y-116799993D02*
X87737276Y-116900061D01*
X64400000Y-119500000D02*
X67100007Y-116799993D01*
X111239974Y-119250010D02*
X118649990Y-119250010D01*
X119700000Y-118200000D02*
X119700000Y-117900000D01*
X107161313Y-117849999D02*
X109839963Y-117849999D01*
X118649990Y-119250010D02*
X119700000Y-118200000D01*
X109839963Y-117849999D02*
X111239974Y-119250010D01*
X101326962Y-116900063D02*
X101327036Y-116899989D01*
X88134898Y-116900063D02*
X101326962Y-116900063D01*
X87737276Y-116900061D02*
X88134898Y-116900063D01*
X67100007Y-116799993D02*
X87637207Y-116799993D01*
X106211303Y-116899989D02*
X107161313Y-117849999D01*
X101327036Y-116899989D02*
X106211303Y-116899989D01*
G04 #@! TO.N,/ROW0*
X106150000Y-57100000D02*
X106150000Y-50000000D01*
X68050000Y-56199603D02*
X68050000Y-50000000D01*
X52184677Y-120329650D02*
X52164677Y-120309650D01*
X52184677Y-122159650D02*
X52184677Y-120329650D01*
X52184677Y-123309650D02*
X52184677Y-122159650D01*
X49894294Y-125600033D02*
X52184677Y-123309650D01*
X43100033Y-125600033D02*
X49894294Y-125600033D01*
X41614643Y-124114643D02*
X43100033Y-125600033D01*
X41614643Y-118085357D02*
X41614643Y-124114643D01*
X49000000Y-58500000D02*
X48050000Y-59450000D01*
X49000000Y-50000000D02*
X49000000Y-58500000D01*
X48050000Y-59450000D02*
X45400000Y-59450000D01*
X45400000Y-59450000D02*
X44800000Y-60050000D01*
X44800000Y-60050000D02*
X44800000Y-114900000D01*
X44800000Y-114900000D02*
X41614643Y-118085357D01*
X48050000Y-59450000D02*
X66350000Y-59450000D01*
X68050000Y-57750000D02*
X68050000Y-56199603D01*
X66350000Y-59450000D02*
X68050000Y-57750000D01*
X87084000Y-50707106D02*
X87084000Y-50000000D01*
X87084000Y-56666000D02*
X87084000Y-50707106D01*
X66350000Y-59450000D02*
X84300000Y-59450000D01*
X84300000Y-59450000D02*
X87084000Y-56666000D01*
X103800000Y-59450000D02*
X106150000Y-57100000D01*
X84300000Y-59450000D02*
X103800000Y-59450000D01*
X125200000Y-56750000D02*
X125200000Y-50000000D01*
X103800000Y-59450000D02*
X122500000Y-59450000D01*
X122500000Y-59450000D02*
X125200000Y-56750000D01*
X144250000Y-56199603D02*
X144250000Y-50000000D01*
X144250000Y-57900000D02*
X144250000Y-56199603D01*
X122500000Y-59450000D02*
X142700000Y-59450000D01*
X142700000Y-59450000D02*
X144250000Y-57900000D01*
G04 #@! TO.N,/ROW1*
X50924677Y-120319650D02*
X50914677Y-120309650D01*
X50924677Y-122159650D02*
X50924677Y-120319650D01*
X49334305Y-124900022D02*
X50924677Y-123309650D01*
X43400022Y-124900022D02*
X49334305Y-124900022D01*
X42314654Y-123814654D02*
X43400022Y-124900022D01*
X42314654Y-118556873D02*
X42314654Y-123814654D01*
X47099989Y-113771538D02*
X42314654Y-118556873D01*
X47099989Y-112089954D02*
X47099989Y-113771538D01*
X53500000Y-69050000D02*
X53500000Y-75950000D01*
X50150000Y-79300000D02*
X47550000Y-79300000D01*
X50924677Y-123309650D02*
X50924677Y-122159650D01*
X47550000Y-79300000D02*
X46999989Y-79850011D01*
X46999989Y-79850011D02*
X46999989Y-111989954D01*
X46999989Y-111989954D02*
X47099989Y-112089954D01*
X50950000Y-78500000D02*
X74950000Y-78500000D01*
X53500000Y-75950000D02*
X50950000Y-78500000D01*
X50950000Y-78500000D02*
X50150000Y-79300000D01*
X96100000Y-76450000D02*
X96100000Y-69050000D01*
X74950000Y-78500000D02*
X94050000Y-78500000D01*
X94050000Y-78500000D02*
X96100000Y-76450000D01*
X115150000Y-76550000D02*
X115150000Y-69050000D01*
X94050000Y-78500000D02*
X113200000Y-78500000D01*
X113200000Y-78500000D02*
X115150000Y-76550000D01*
X113200000Y-78500000D02*
X132000000Y-78500000D01*
X153250000Y-75249603D02*
X153250000Y-69050000D01*
X153250000Y-75860036D02*
X153250000Y-75249603D01*
X132000000Y-78500000D02*
X150610036Y-78500000D01*
X150610036Y-78500000D02*
X153250000Y-75860036D01*
X132000000Y-78500000D02*
X132000000Y-78410036D01*
X132000000Y-78410036D02*
X134200000Y-76210036D01*
X134200000Y-75249603D02*
X134200000Y-69050000D01*
X134200000Y-76210036D02*
X134200000Y-75249603D01*
X74950000Y-78500000D02*
X76749989Y-76700011D01*
X77050000Y-75249603D02*
X77050000Y-69050000D01*
X77050000Y-76160035D02*
X77050000Y-75249603D01*
X76749989Y-76700011D02*
X76749989Y-76460046D01*
X76749989Y-76460046D02*
X77050000Y-76160035D01*
G04 #@! TO.N,/ROW2*
X49654677Y-120319650D02*
X49664677Y-120309650D01*
X49654677Y-122159650D02*
X49654677Y-120319650D01*
X138700000Y-95800000D02*
X138700000Y-88100000D01*
X138100000Y-96400000D02*
X138700000Y-95800000D01*
X55000000Y-96400000D02*
X55750000Y-95650000D01*
X55750000Y-95650000D02*
X55750000Y-88100000D01*
X138100000Y-96400000D02*
X138200011Y-96299989D01*
X43800011Y-124200011D02*
X48764316Y-124200011D01*
X50300011Y-101099989D02*
X50300011Y-111561482D01*
X50300011Y-111561482D02*
X43014665Y-118846828D01*
X43014665Y-118846828D02*
X43014665Y-123414665D01*
X43014665Y-123414665D02*
X43800011Y-124200011D01*
X48764316Y-124200011D02*
X49654677Y-123309650D01*
X49654677Y-123309650D02*
X49654677Y-122159650D01*
X81550000Y-95650000D02*
X81550000Y-88100000D01*
X80100000Y-97100000D02*
X81550000Y-95650000D01*
X55000000Y-96400000D02*
X54300000Y-97100000D01*
X54300000Y-97100000D02*
X50300011Y-101099989D01*
X100600000Y-95650000D02*
X100600000Y-88100000D01*
X99150000Y-97100000D02*
X100600000Y-95650000D01*
X119650000Y-95750000D02*
X119650000Y-88100000D01*
X118300000Y-97100000D02*
X119650000Y-95750000D01*
X137400000Y-97100000D02*
X138100000Y-96400000D01*
X137400000Y-97100000D02*
X137550011Y-97250011D01*
X137550011Y-97250011D02*
X155639954Y-97250011D01*
X155639954Y-97250011D02*
X157750000Y-95139964D01*
X157750000Y-94299603D02*
X157750000Y-88100000D01*
X157750000Y-95139964D02*
X157750000Y-94299603D01*
X118350012Y-97150012D02*
X137349988Y-97150012D01*
X118300000Y-97100000D02*
X118350012Y-97150012D01*
X137349988Y-97150012D02*
X137400000Y-97100000D01*
X118249989Y-97150011D02*
X118300000Y-97100000D01*
X99200011Y-97150011D02*
X118249989Y-97150011D01*
X99150000Y-97100000D02*
X99200011Y-97150011D01*
X80100000Y-97100000D02*
X80250010Y-97250010D01*
X98999990Y-97250010D02*
X99150000Y-97100000D01*
X80250010Y-97250010D02*
X98999990Y-97250010D01*
X54300000Y-97100000D02*
X54500011Y-97300011D01*
X79899989Y-97300011D02*
X80100000Y-97100000D01*
X54500011Y-97300011D02*
X79899989Y-97300011D01*
G04 #@! TO.N,/ROW3*
X48374677Y-120349650D02*
X48414677Y-120309650D01*
X48374677Y-122159650D02*
X48374677Y-120349650D01*
X60250000Y-100650000D02*
X60250000Y-107150000D01*
X59500000Y-99900000D02*
X60250000Y-100650000D01*
X90600000Y-100950397D02*
X90600000Y-107150000D01*
X89549603Y-99900000D02*
X90600000Y-100950397D01*
X109650000Y-100950397D02*
X109650000Y-107150000D01*
X108599603Y-99900000D02*
X109650000Y-100950397D01*
X52099989Y-102200011D02*
X54400000Y-99900000D01*
X54400000Y-99900000D02*
X59500000Y-99900000D01*
X43714676Y-123114676D02*
X43714676Y-119136782D01*
X52099989Y-110751469D02*
X52099989Y-102200011D01*
X48374677Y-122159650D02*
X48374677Y-123309650D01*
X48374677Y-123309650D02*
X48184327Y-123500000D01*
X48184327Y-123500000D02*
X44100000Y-123500000D01*
X44100000Y-123500000D02*
X43714676Y-123114676D01*
X43714676Y-119136782D02*
X52099989Y-110751469D01*
X59500000Y-99900000D02*
X66250000Y-99900000D01*
X67350001Y-98799999D02*
X69599999Y-98799999D01*
X66250000Y-99900000D02*
X67350001Y-98799999D01*
X69599999Y-98799999D02*
X69800000Y-99000000D01*
X88649603Y-99000000D02*
X89549603Y-99900000D01*
X69800000Y-99000000D02*
X88649603Y-99000000D01*
X107499602Y-98799999D02*
X108599603Y-99900000D01*
X88849604Y-98799999D02*
X107499602Y-98799999D01*
X88649603Y-99000000D02*
X88849604Y-98799999D01*
X128700000Y-100700000D02*
X128700000Y-107150000D01*
X126799999Y-98799999D02*
X127250000Y-99250000D01*
X107499602Y-98799999D02*
X126799999Y-98799999D01*
X127000000Y-99000000D02*
X127250000Y-99250000D01*
X127250000Y-99250000D02*
X128700000Y-100700000D01*
X147750000Y-100850000D02*
X147750000Y-107150000D01*
X126799999Y-98799999D02*
X145699999Y-98799999D01*
X145699999Y-98799999D02*
X147750000Y-100850000D01*
X166800000Y-100950397D02*
X166800000Y-107150000D01*
X145699999Y-98799999D02*
X164649602Y-98799999D01*
X164649602Y-98799999D02*
X166800000Y-100950397D01*
G04 #@! TO.N,/ROW4*
X53464677Y-130242137D02*
X53464677Y-128459650D01*
X99000000Y-132500000D02*
X99000000Y-126200000D01*
X53464677Y-128459650D02*
X53464677Y-129609650D01*
X73300000Y-132399603D02*
X73300000Y-126200000D01*
X73300000Y-133900000D02*
X73300000Y-132399603D01*
X72549979Y-134650021D02*
X73300000Y-133900000D01*
X72549979Y-134650021D02*
X97949979Y-134650021D01*
X99000000Y-133600000D02*
X99000000Y-132500000D01*
X97949979Y-134650021D02*
X99000000Y-133600000D01*
X54600000Y-131425000D02*
X53500000Y-130325000D01*
X54600000Y-133400000D02*
X54600000Y-131425000D01*
X72549979Y-134650021D02*
X55850021Y-134650021D01*
X55850021Y-134650021D02*
X54600000Y-133400000D01*
X97949979Y-134650021D02*
X124560057Y-134650021D01*
X124560057Y-134650021D02*
X125710047Y-135800011D01*
X125710047Y-135800011D02*
X138599592Y-135800011D01*
X142000000Y-132399603D02*
X142000000Y-126200000D01*
X138599592Y-135800011D02*
X142000000Y-132399603D01*
G04 #@! TO.N,Net-(R7-Pad1)*
X60369514Y-128369514D02*
X60369514Y-129092137D01*
X59500000Y-127500000D02*
X60369514Y-128369514D01*
X56850000Y-127500000D02*
X59500000Y-127500000D01*
X56175000Y-128175000D02*
X56850000Y-127500000D01*
X55600000Y-128175000D02*
X56175000Y-128175000D01*
G04 #@! TO.N,Net-(R10-Pad2)*
X61092377Y-132600000D02*
X61634514Y-133142137D01*
X59099514Y-129092137D02*
X59099514Y-131927137D01*
X59099514Y-131999514D02*
X59700000Y-132600000D01*
X59099514Y-131927137D02*
X59099514Y-131999514D01*
X59700000Y-132600000D02*
X61092377Y-132600000D01*
X59099514Y-132599514D02*
X59100000Y-132600000D01*
X59100000Y-132600000D02*
X59700000Y-132600000D01*
X58750000Y-132600000D02*
X59100000Y-132600000D01*
X58375000Y-132975000D02*
X58750000Y-132600000D01*
X57800000Y-132975000D02*
X58375000Y-132975000D01*
X58799514Y-132600000D02*
X59099514Y-132300000D01*
X58750000Y-132600000D02*
X58799514Y-132600000D01*
X59099514Y-131927137D02*
X59099514Y-132300000D01*
X59099514Y-132300000D02*
X59099514Y-132599514D01*
G04 #@! TO.N,/COL0*
X84100000Y-130744178D02*
X84040411Y-130684589D01*
X84040411Y-130684589D02*
X84040411Y-129184589D01*
X83725000Y-131225000D02*
X84100000Y-131600000D01*
X83500000Y-131225000D02*
X83725000Y-131225000D01*
X84100000Y-131600000D02*
X84100000Y-130744178D01*
X84100000Y-133700000D02*
X84100000Y-131600000D01*
X84040411Y-130684589D02*
X83500000Y-131225000D01*
X82425000Y-132300000D02*
X83500000Y-131225000D01*
X82025000Y-132700000D02*
X82425000Y-132300000D01*
X75600397Y-132700000D02*
X82025000Y-132700000D01*
X75300000Y-126200000D02*
X75300000Y-132399603D01*
X75300000Y-132399603D02*
X75600397Y-132700000D01*
G04 #@! TO.N,/COL1*
X117380000Y-129220000D02*
X117380000Y-129620000D01*
X116060000Y-127900000D02*
X117380000Y-129220000D01*
X116060000Y-127900000D02*
X110900000Y-127900000D01*
X109675000Y-129125000D02*
X109675000Y-130100000D01*
X110900000Y-127900000D02*
X109675000Y-129125000D01*
X109675000Y-130100000D02*
X109675000Y-131800000D01*
X109675000Y-132375000D02*
X109675000Y-131800000D01*
X108950000Y-133100000D02*
X109675000Y-132375000D01*
X101900000Y-133100000D02*
X108950000Y-133100000D01*
X101000000Y-126200000D02*
X101000000Y-132200000D01*
X101000000Y-132200000D02*
X101900000Y-133100000D01*
G04 #@! TO.N,/COL3*
X136176083Y-122376083D02*
X136300000Y-122500000D01*
X135816717Y-122376083D02*
X136176083Y-122376083D01*
X135975000Y-119325000D02*
X135975000Y-120776083D01*
X136600000Y-118700000D02*
X135975000Y-119325000D01*
X143200000Y-118700000D02*
X136600000Y-118700000D01*
X144000000Y-126200000D02*
X144000000Y-119500000D01*
X144000000Y-119500000D02*
X143200000Y-118700000D01*
X135975000Y-120776083D02*
X135975000Y-122376083D01*
X135975000Y-122951083D02*
X136000000Y-122976083D01*
X135975000Y-122376083D02*
X135975000Y-122951083D01*
X135975000Y-130375000D02*
X135975000Y-122951083D01*
X122460000Y-129620000D02*
X122460000Y-131560000D01*
X122460000Y-131560000D02*
X125850000Y-134950000D01*
X125850000Y-134950000D02*
X136900000Y-134950000D01*
X136900000Y-134950000D02*
X138000000Y-133850000D01*
X138000000Y-133850000D02*
X138000000Y-132400000D01*
X138000000Y-132400000D02*
X135975000Y-130375000D01*
G04 #@! TO.N,/COL4*
X125000000Y-129220000D02*
X126520000Y-127700000D01*
X125000000Y-129620000D02*
X125000000Y-129220000D01*
X131925000Y-127700000D02*
X132525000Y-127100000D01*
X126520000Y-127700000D02*
X131925000Y-127700000D01*
X131925000Y-128000000D02*
X132525000Y-128600000D01*
X131925000Y-127700000D02*
X131925000Y-128000000D01*
G04 #@! TO.N,/COL5*
X131862403Y-131800000D02*
X132487403Y-131800000D01*
X127540000Y-130020000D02*
X129320000Y-131800000D01*
X127540000Y-129620000D02*
X127540000Y-130020000D01*
X129320000Y-131800000D02*
X131862403Y-131800000D01*
X131887403Y-131800000D02*
X132487403Y-131200000D01*
X131862403Y-131800000D02*
X131887403Y-131800000D01*
X132487403Y-131800000D02*
X132487403Y-131200000D01*
X132487403Y-131200000D02*
X132487403Y-130197549D01*
G04 #@! TO.N,/READ*
X61700000Y-129152623D02*
X61639514Y-129092137D01*
X61700000Y-131225000D02*
X61700000Y-129152623D01*
X61639514Y-127411942D02*
X70651370Y-118400086D01*
X118730844Y-125099989D02*
X118780895Y-125150040D01*
X125700000Y-116400000D02*
X124600000Y-117500000D01*
X132199990Y-117615052D02*
X130984938Y-116400000D01*
X126189156Y-125099989D02*
X131900011Y-125099989D01*
X112589987Y-125099989D02*
X118730844Y-125099989D01*
X126139105Y-125150040D02*
X126189156Y-125099989D01*
X131900011Y-125099989D02*
X132199990Y-124800010D01*
X87068700Y-118500086D02*
X102868700Y-118500086D01*
X130984938Y-116400000D02*
X125700000Y-116400000D01*
X102868700Y-118500086D02*
X103868657Y-119500043D01*
X86968700Y-118400086D02*
X87068700Y-118500086D01*
X61639514Y-129092137D02*
X61639514Y-127411942D01*
X132199990Y-124800010D02*
X132199990Y-117615052D01*
X118780895Y-125150040D02*
X126139105Y-125150040D01*
X124600000Y-117500000D02*
X124600000Y-117800000D01*
X70651370Y-118400086D02*
X77500086Y-118400086D01*
X77500086Y-118400086D02*
X80050000Y-120950000D01*
X80050000Y-120950000D02*
X83700000Y-120950000D01*
X86249914Y-118400086D02*
X86968700Y-118400086D01*
X83700000Y-120950000D02*
X86249914Y-118400086D01*
X103868657Y-119500043D02*
X103868657Y-119518657D01*
X103868657Y-119518657D02*
X105900000Y-121550000D01*
X109039998Y-121550000D02*
X112589987Y-125099989D01*
X105900000Y-121550000D02*
X109039998Y-121550000D01*
D22*
G04 #@! TO.N,/COL_EN*
X126100000Y-119000000D02*
X126100000Y-117800000D01*
X126100000Y-119400000D02*
X126100000Y-119000000D01*
X125000000Y-120500000D02*
X126100000Y-119400000D01*
X125000000Y-122000000D02*
X125000000Y-120500000D01*
G04 #@! TO.N,/COL_C*
X127600000Y-117800000D02*
X127600000Y-119913641D01*
X126389990Y-121123651D02*
X126389990Y-122636369D01*
X126389990Y-122636369D02*
X125476349Y-123550010D01*
X125476349Y-123550010D02*
X119443651Y-123550010D01*
X119443651Y-123550010D02*
X117893641Y-122000000D01*
X117893641Y-122000000D02*
X117380000Y-122000000D01*
X127600000Y-119913641D02*
X126389990Y-121123651D01*
G04 #@! TO.N,/COL_B*
X127566392Y-123999967D02*
X128800000Y-122766359D01*
X114840000Y-122400000D02*
X116439967Y-123999967D01*
X116439967Y-123999967D02*
X119186486Y-123999967D01*
X119186486Y-123999967D02*
X119236540Y-124050021D01*
X119236540Y-124050021D02*
X125683460Y-124050021D01*
X125683460Y-124050021D02*
X125733514Y-123999967D01*
X114840000Y-122000000D02*
X114840000Y-122400000D01*
X128800000Y-122766359D02*
X128800000Y-119300000D01*
X128800000Y-119300000D02*
X129100000Y-119000000D01*
X129100000Y-119000000D02*
X129100000Y-117800000D01*
X125733514Y-123999967D02*
X127566392Y-123999967D01*
G04 #@! TO.N,/COL_A*
X125940625Y-124499978D02*
X130200022Y-124499978D01*
X119029428Y-124550031D02*
X125890572Y-124550031D01*
X130600000Y-119000000D02*
X130600000Y-117800000D01*
X131230010Y-119630010D02*
X130600000Y-119000000D01*
X118979375Y-124499978D02*
X119029428Y-124550031D01*
X131230010Y-123469990D02*
X131230010Y-119630010D01*
X112300000Y-122400000D02*
X114399978Y-124499978D01*
X130200022Y-124499978D02*
X131230010Y-123469990D01*
X114399978Y-124499978D02*
X118979375Y-124499978D01*
X125890572Y-124550031D02*
X125940625Y-124499978D01*
X112300000Y-122000000D02*
X112300000Y-122400000D01*
G04 #@! TO.N,/DRAIN*
X52200000Y-132200000D02*
X51800000Y-132600000D01*
X51425000Y-132600000D02*
X50900000Y-132075000D01*
X51800000Y-132600000D02*
X51425000Y-132600000D01*
X87985808Y-116300051D02*
X87885739Y-116199982D01*
X64499999Y-118000001D02*
X64100000Y-118400000D01*
X101078430Y-116300052D02*
X87985808Y-116300051D01*
X66300018Y-116199982D02*
X64499999Y-118000001D01*
X87885739Y-116199982D02*
X66300018Y-116199982D01*
X101078504Y-116299978D02*
X101078430Y-116300052D01*
X106459835Y-116299978D02*
X101078504Y-116299978D01*
X107359868Y-117200011D02*
X106459835Y-116299978D01*
X110600011Y-117200011D02*
X107359868Y-117200011D01*
X111300000Y-117900000D02*
X110600011Y-117200011D01*
X112200000Y-117900000D02*
X111300000Y-117900000D01*
D20*
G04 #@! TO.N,/MUX_EN*
X47104677Y-128459650D02*
X47104677Y-127295323D01*
X47104677Y-127295323D02*
X47600000Y-126800000D01*
D22*
X113700000Y-117089998D02*
X113110002Y-116500000D01*
X88192920Y-115800041D02*
X88092850Y-115699971D01*
X113110002Y-116500000D02*
X107366979Y-116500000D01*
X113700000Y-117900000D02*
X113700000Y-117089998D01*
X106666946Y-115799967D02*
X100871392Y-115799968D01*
X63657121Y-117700001D02*
X63499999Y-117700001D01*
X63499999Y-117700001D02*
X63100000Y-118100000D01*
X100871392Y-115799968D02*
X100871318Y-115800041D01*
X88092850Y-115699971D02*
X65657151Y-115699971D01*
X100871318Y-115800041D02*
X88192920Y-115800041D01*
X107366979Y-116500000D02*
X106666946Y-115799967D01*
X65657151Y-115699971D02*
X63657121Y-117700001D01*
G04 #@! TO.N,/MUX_C*
X48364244Y-116950000D02*
X47104677Y-118209567D01*
X56249984Y-116950000D02*
X48364244Y-116950000D01*
X56249992Y-116950008D02*
X56249984Y-116950000D01*
X56357112Y-116950008D02*
X56249992Y-116950008D01*
X57807087Y-115500033D02*
X56357112Y-116950008D01*
X103150000Y-112850000D02*
X100699969Y-115300031D01*
X104424101Y-112850000D02*
X103150000Y-112850000D01*
X107374090Y-115799989D02*
X104424101Y-112850000D01*
X47104677Y-118209567D02*
X47104677Y-122159650D01*
X113399989Y-115799989D02*
X107374090Y-115799989D01*
X115200000Y-117600000D02*
X113399989Y-115799989D01*
X85200001Y-112899999D02*
X85199992Y-112900008D01*
X115200000Y-117900000D02*
X115200000Y-117600000D01*
X88299959Y-115199961D02*
X87499963Y-115199961D01*
X100699969Y-115300031D02*
X88400029Y-115300031D01*
X87499963Y-115199961D02*
X85200001Y-112899999D01*
X88400029Y-115300031D02*
X88299959Y-115199961D01*
X85199992Y-112900008D02*
X84785768Y-112900008D01*
X84785768Y-112900008D02*
X84785759Y-112899999D01*
X84785759Y-112899999D02*
X67750001Y-112899999D01*
X67750001Y-112899999D02*
X65149967Y-115500033D01*
X65149967Y-115500033D02*
X57807087Y-115500033D01*
G04 #@! TO.N,/MUX_B*
X84992889Y-112399991D02*
X84992880Y-112400000D01*
X56150000Y-116450000D02*
X48157122Y-116450000D01*
X84992889Y-112399991D02*
X67542889Y-112399991D01*
X45844677Y-118762445D02*
X45844677Y-121209650D01*
X45844677Y-121209650D02*
X45844677Y-122159650D01*
X48157122Y-116450000D02*
X45844677Y-118762445D01*
X57599978Y-115000022D02*
X56150000Y-116450000D01*
X64942858Y-115000022D02*
X57599978Y-115000022D01*
X67542889Y-112399991D02*
X64942858Y-115000022D01*
X88750000Y-114700000D02*
X88850020Y-114800020D01*
X87707073Y-114699951D02*
X88507069Y-114699951D01*
X88507069Y-114699951D02*
X88507118Y-114700000D01*
X88507118Y-114700000D02*
X88750000Y-114700000D01*
X84992889Y-112399991D02*
X85407113Y-112399991D01*
X88850020Y-114800020D02*
X100457102Y-114800020D01*
X114399978Y-115299978D02*
X116700000Y-117600000D01*
X116700000Y-117600000D02*
X116700000Y-117900000D01*
X85407113Y-112399991D02*
X87707073Y-114699951D01*
X107581201Y-115299978D02*
X114399978Y-115299978D01*
X104581223Y-112300000D02*
X107581201Y-115299978D01*
X102957122Y-112300000D02*
X104581223Y-112300000D01*
X100457102Y-114800020D02*
X102957122Y-112300000D01*
G04 #@! TO.N,/MUX_A*
X118200000Y-117600000D02*
X118200000Y-117900000D01*
X115399967Y-114799967D02*
X118200000Y-117600000D01*
X107851424Y-114799967D02*
X115399967Y-114799967D01*
X64648532Y-114500011D02*
X66248544Y-112899999D01*
X55942878Y-115950000D02*
X57392866Y-114500012D01*
X44564677Y-119135323D02*
X47750000Y-115950000D01*
X87999940Y-114199940D02*
X89408353Y-114199940D01*
X47750000Y-115950000D02*
X55942878Y-115950000D01*
X44564677Y-122159650D02*
X44564677Y-119135323D01*
X89408353Y-114199940D02*
X89508422Y-114300009D01*
X66248544Y-112899999D02*
X66335759Y-112899999D01*
X66335759Y-112899999D02*
X67385758Y-111850000D01*
X67385758Y-111850000D02*
X85650000Y-111850000D01*
X57392866Y-114500012D02*
X64648532Y-114500011D01*
X85650000Y-111850000D02*
X87999940Y-114199940D01*
X105951456Y-112899999D02*
X107851424Y-114799967D01*
X105951456Y-112899999D02*
X105949999Y-112899999D01*
X105949999Y-112899999D02*
X104800000Y-111750000D01*
X104800000Y-111750000D02*
X102800000Y-111750000D01*
X100249991Y-114300009D02*
X89508422Y-114300009D01*
X102800000Y-111750000D02*
X100249991Y-114300009D01*
G04 #@! TD*
M02*
