  0
SECTION
  2
HEADER
  9
$ANGBASE
  50
0.0
  9
$ANGDIR
  70
  1
  9
$MEASUREMENT
  70
0
  0
ENDSEC
  0
SECTION
  2
TABLES
  0
TABLE
  2
LTYPE
  70
4
  0
LTYPE
  5
40F
  2
CONTINUOUS
  70
0
  3
Solid line
  72
65
  73
0
  40
0.0
  0
LTYPE
  5
410
  2
DASHDOT
 70
0
  3
Dash Dot ____ _ ____ _
 72
65
 73
4
 40
2.0
 49
1.25
 49
-0.25
 49
0.25
 49
-0.25
  0
LTYPE
  5
411
  2
DASHED
 70
0
  3
Dashed __ __ __ __ __
 72
65
 73
2
 40
0.75
 49
0.5
 49
-0.25
  0
LTYPE
  5
43B
  2
DOTTED
 70
0
  3
Dotted .  .  .  .
 72
65
 73
2
 40
0.2
 49
0.0
 49
-0.2
  0
ENDTAB
  0
TABLE
  2
STYLE
  70
4
  0
STYLE
  2
KICAD
  70
0
  40
0
  41
1
  42
1
  50
0
  71
0
  3
isocp.shx
  0
STYLE
  2
KICADB
  70
0
  40
0
  41
1
  42
1
  50
0
  71
0
  3
isocp.shx
  0
STYLE
  2
KICADI
  70
0
  40
0
  41
1
  42
1
  50
15
  71
0
  3
isocp.shx
  0
STYLE
  2
KICADBI
  70
0
  40
0
  41
1
  42
1
  50
15
  71
0
  3
isocp.shx
  0
ENDTAB
  0
TABLE
  2
LAYER
  70
30
  0
LAYER
  2
BLACK
  70
0
  62
7
  6
CONTINUOUS
  0
LAYER
  2
GRAY1
  70
0
  62
251
  6
CONTINUOUS
  0
LAYER
  2
GRAY2
  70
0
  62
8
  6
CONTINUOUS
  0
LAYER
  2
GRAY3
  70
0
  62
9
  6
CONTINUOUS
  0
LAYER
  2
WHITE
  70
0
  62
7
  6
CONTINUOUS
  0
LAYER
  2
LYELLOW
  70
0
  62
51
  6
CONTINUOUS
  0
LAYER
  2
BLUE1
  70
0
  62
178
  6
CONTINUOUS
  0
LAYER
  2
GREEN1
  70
0
  62
98
  6
CONTINUOUS
  0
LAYER
  2
CYAN1
  70
0
  62
138
  6
CONTINUOUS
  0
LAYER
  2
RED1
  70
0
  62
18
  6
CONTINUOUS
  0
LAYER
  2
MAGENTA1
  70
0
  62
228
  6
CONTINUOUS
  0
LAYER
  2
BROWN1
  70
0
  62
58
  6
CONTINUOUS
  0
LAYER
  2
BLUE2
  70
0
  62
5
  6
CONTINUOUS
  0
LAYER
  2
GREEN2
  70
0
  62
3
  6
CONTINUOUS
  0
LAYER
  2
CYAN2
  70
0
  62
4
  6
CONTINUOUS
  0
LAYER
  2
RED2
  70
0
  62
1
  6
CONTINUOUS
  0
LAYER
  2
MAGENTA2
  70
0
  62
6
  6
CONTINUOUS
  0
LAYER
  2
BROWN2
  70
0
  62
54
  6
CONTINUOUS
  0
LAYER
  2
BLUE3
  70
0
  62
171
  6
CONTINUOUS
  0
LAYER
  2
GREEN3
  70
0
  62
91
  6
CONTINUOUS
  0
LAYER
  2
CYAN3
  70
0
  62
131
  6
CONTINUOUS
  0
LAYER
  2
RED3
  70
0
  62
11
  6
CONTINUOUS
  0
LAYER
  2
MAGENTA3
  70
0
  62
221
  6
CONTINUOUS
  0
LAYER
  2
YELLOW3
  70
0
  62
2
  6
CONTINUOUS
  0
LAYER
  2
BLUE4
  70
0
  62
5
  6
CONTINUOUS
  0
LAYER
  2
GREEN4
  70
0
  62
3
  6
CONTINUOUS
  0
LAYER
  2
CYAN4
  70
0
  62
4
  6
CONTINUOUS
  0
LAYER
  2
RED4
  70
0
  62
1
  6
CONTINUOUS
  0
LAYER
  2
MAGENTA4
  70
0
  62
6
  6
CONTINUOUS
  0
LAYER
  2
YELLOW4
  70
0
  62
2
  6
CONTINUOUS
  0
ENDTAB
  0
ENDSEC
  0
SECTION
  2
ENTITIES
0
LINE
8
BLACK
6
CONTINUOUS
10
163.257
20
-59.425
11
163.257
21
-59.425
0
LINE
8
BLACK
6
CONTINUOUS
10
163.257
20
-59.425
11
163.263
21
-59.425
0
LINE
8
BLACK
6
CONTINUOUS
10
163.263
20
-59.425
11
163.269
21
-59.4273
0
LINE
8
BLACK
6
CONTINUOUS
10
163.269
20
-59.4273
11
163.276
21
-59.4284
0
LINE
8
BLACK
6
CONTINUOUS
10
163.276
20
-59.4284
11
163.282
21
-59.4318
0
LINE
8
BLACK
6
CONTINUOUS
10
163.282
20
-59.4318
11
163.288
21
-59.434
0
LINE
8
BLACK
6
CONTINUOUS
10
163.288
20
-59.434
11
163.293
21
-59.4383
0
LINE
8
BLACK
6
CONTINUOUS
10
163.293
20
-59.4383
11
163.299
21
-59.4417
0
LINE
8
BLACK
6
CONTINUOUS
10
163.299
20
-59.4417
11
163.303
21
-59.4468
0
LINE
8
BLACK
6
CONTINUOUS
10
163.303
20
-59.4468
11
163.308
21
-59.451
0
LINE
8
BLACK
6
CONTINUOUS
10
163.308
20
-59.451
11
163.312
21
-59.4568
0
LINE
8
BLACK
6
CONTINUOUS
10
163.312
20
-59.4568
11
163.316
21
-59.4619
0
LINE
8
BLACK
6
CONTINUOUS
10
163.316
20
-59.4619
11
163.318
21
-59.4682
0
LINE
8
BLACK
6
CONTINUOUS
10
163.318
20
-59.4682
11
163.322
21
-59.474
0
LINE
8
BLACK
6
CONTINUOUS
10
163.322
20
-59.474
11
163.323
21
-59.4805
0
LINE
8
BLACK
6
CONTINUOUS
10
163.323
20
-59.4805
11
163.325
21
-59.4868
0
LINE
8
BLACK
6
CONTINUOUS
10
163.325
20
-59.4868
11
163.325
21
-59.4934
0
LINE
8
BLACK
6
CONTINUOUS
10
163.325
20
-59.4934
11
163.325
21
-59.4934
0
LINE
8
BLACK
6
CONTINUOUS
10
163.325
20
-59.4934
11
163.325
21
-78.475
0
LINE
8
BLACK
6
CONTINUOUS
10
163.325
20
-78.475
11
167.757
21
-78.475
0
LINE
8
BLACK
6
CONTINUOUS
10
167.757
20
-78.475
11
167.757
21
-78.475
0
LINE
8
BLACK
6
CONTINUOUS
10
167.757
20
-78.475
11
167.763
21
-78.475
0
LINE
8
BLACK
6
CONTINUOUS
10
167.763
20
-78.475
11
167.769
21
-78.4773
0
LINE
8
BLACK
6
CONTINUOUS
10
167.769
20
-78.4773
11
167.776
21
-78.4784
0
LINE
8
BLACK
6
CONTINUOUS
10
167.776
20
-78.4784
11
167.782
21
-78.4818
0
LINE
8
BLACK
6
CONTINUOUS
10
167.782
20
-78.4818
11
167.788
21
-78.484
0
LINE
8
BLACK
6
CONTINUOUS
10
167.788
20
-78.484
11
167.793
21
-78.4883
0
LINE
8
BLACK
6
CONTINUOUS
10
167.793
20
-78.4883
11
167.799
21
-78.4917
0
LINE
8
BLACK
6
CONTINUOUS
10
167.799
20
-78.4917
11
167.803
21
-78.4968
0
LINE
8
BLACK
6
CONTINUOUS
10
167.803
20
-78.4968
11
167.808
21
-78.501
0
LINE
8
BLACK
6
CONTINUOUS
10
167.808
20
-78.501
11
167.812
21
-78.5068
0
LINE
8
BLACK
6
CONTINUOUS
10
167.812
20
-78.5068
11
167.816
21
-78.5119
0
LINE
8
BLACK
6
CONTINUOUS
10
167.816
20
-78.5119
11
167.818
21
-78.5182
0
LINE
8
BLACK
6
CONTINUOUS
10
167.818
20
-78.5182
11
167.822
21
-78.524
0
LINE
8
BLACK
6
CONTINUOUS
10
167.822
20
-78.524
11
167.823
21
-78.5305
0
LINE
8
BLACK
6
CONTINUOUS
10
167.823
20
-78.5305
11
167.825
21
-78.5368
0
LINE
8
BLACK
6
CONTINUOUS
10
167.825
20
-78.5368
11
167.825
21
-78.5434
0
LINE
8
BLACK
6
CONTINUOUS
10
167.825
20
-78.5434
11
167.825
21
-78.5434
0
LINE
8
BLACK
6
CONTINUOUS
10
167.825
20
-78.5434
11
167.825
21
-97.425
0
LINE
8
BLACK
6
CONTINUOUS
10
167.825
20
-97.425
11
176.807
21
-97.425
0
LINE
8
BLACK
6
CONTINUOUS
10
176.807
20
-97.425
11
176.807
21
-97.425
0
LINE
8
BLACK
6
CONTINUOUS
10
176.807
20
-97.425
11
176.813
21
-97.425
0
LINE
8
BLACK
6
CONTINUOUS
10
176.813
20
-97.425
11
176.819
21
-97.4273
0
LINE
8
BLACK
6
CONTINUOUS
10
176.819
20
-97.4273
11
176.826
21
-97.4284
0
LINE
8
BLACK
6
CONTINUOUS
10
176.826
20
-97.4284
11
176.832
21
-97.4318
0
LINE
8
BLACK
6
CONTINUOUS
10
176.832
20
-97.4318
11
176.838
21
-97.434
0
LINE
8
BLACK
6
CONTINUOUS
10
176.838
20
-97.434
11
176.843
21
-97.4383
0
LINE
8
BLACK
6
CONTINUOUS
10
176.843
20
-97.4383
11
176.849
21
-97.4417
0
LINE
8
BLACK
6
CONTINUOUS
10
176.849
20
-97.4417
11
176.853
21
-97.4468
0
LINE
8
BLACK
6
CONTINUOUS
10
176.853
20
-97.4468
11
176.858
21
-97.451
0
LINE
8
BLACK
6
CONTINUOUS
10
176.858
20
-97.451
11
176.862
21
-97.4568
0
LINE
8
BLACK
6
CONTINUOUS
10
176.862
20
-97.4568
11
176.866
21
-97.4619
0
LINE
8
BLACK
6
CONTINUOUS
10
176.866
20
-97.4619
11
176.868
21
-97.4682
0
LINE
8
BLACK
6
CONTINUOUS
10
176.868
20
-97.4682
11
176.872
21
-97.474
0
LINE
8
BLACK
6
CONTINUOUS
10
176.872
20
-97.474
11
176.873
21
-97.4805
0
LINE
8
BLACK
6
CONTINUOUS
10
176.873
20
-97.4805
11
176.875
21
-97.4868
0
LINE
8
BLACK
6
CONTINUOUS
10
176.875
20
-97.4868
11
176.875
21
-97.4934
0
LINE
8
BLACK
6
CONTINUOUS
10
176.875
20
-97.4934
11
176.875
21
-97.4934
0
LINE
8
BLACK
6
CONTINUOUS
10
176.875
20
-97.4934
11
176.875
21
-116.657
0
LINE
8
BLACK
6
CONTINUOUS
10
176.875
20
-116.657
11
176.875
21
-116.657
0
LINE
8
BLACK
6
CONTINUOUS
10
176.875
20
-116.657
11
176.875
21
-116.663
0
LINE
8
BLACK
6
CONTINUOUS
10
176.875
20
-116.663
11
176.873
21
-116.669
0
LINE
8
BLACK
6
CONTINUOUS
10
176.873
20
-116.669
11
176.872
21
-116.676
0
LINE
8
BLACK
6
CONTINUOUS
10
176.872
20
-116.676
11
176.868
21
-116.682
0
LINE
8
BLACK
6
CONTINUOUS
10
176.868
20
-116.682
11
176.866
21
-116.688
0
LINE
8
BLACK
6
CONTINUOUS
10
176.866
20
-116.688
11
176.862
21
-116.693
0
LINE
8
BLACK
6
CONTINUOUS
10
176.862
20
-116.693
11
176.858
21
-116.699
0
LINE
8
BLACK
6
CONTINUOUS
10
176.858
20
-116.699
11
176.853
21
-116.703
0
LINE
8
BLACK
6
CONTINUOUS
10
176.853
20
-116.703
11
176.849
21
-116.708
0
LINE
8
BLACK
6
CONTINUOUS
10
176.849
20
-116.708
11
176.843
21
-116.712
0
LINE
8
BLACK
6
CONTINUOUS
10
176.843
20
-116.712
11
176.838
21
-116.716
0
LINE
8
BLACK
6
CONTINUOUS
10
176.838
20
-116.716
11
176.832
21
-116.718
0
LINE
8
BLACK
6
CONTINUOUS
10
176.832
20
-116.718
11
176.826
21
-116.722
0
LINE
8
BLACK
6
CONTINUOUS
10
176.826
20
-116.722
11
176.819
21
-116.723
0
LINE
8
BLACK
6
CONTINUOUS
10
176.819
20
-116.723
11
176.813
21
-116.725
0
LINE
8
BLACK
6
CONTINUOUS
10
176.813
20
-116.725
11
176.807
21
-116.725
0
LINE
8
BLACK
6
CONTINUOUS
10
176.807
20
-116.725
11
176.807
21
-116.725
0
LINE
8
BLACK
6
CONTINUOUS
10
176.807
20
-116.725
11
167.875
21
-116.725
0
LINE
8
BLACK
6
CONTINUOUS
10
167.875
20
-116.725
11
167.875
21
-137.257
0
LINE
8
BLACK
6
CONTINUOUS
10
167.875
20
-137.257
11
167.875
21
-137.257
0
LINE
8
BLACK
6
CONTINUOUS
10
167.875
20
-137.257
11
167.875
21
-137.263
0
LINE
8
BLACK
6
CONTINUOUS
10
167.875
20
-137.263
11
167.873
21
-137.269
0
LINE
8
BLACK
6
CONTINUOUS
10
167.873
20
-137.269
11
167.872
21
-137.276
0
LINE
8
BLACK
6
CONTINUOUS
10
167.872
20
-137.276
11
167.868
21
-137.282
0
LINE
8
BLACK
6
CONTINUOUS
10
167.868
20
-137.282
11
167.866
21
-137.288
0
LINE
8
BLACK
6
CONTINUOUS
10
167.866
20
-137.288
11
167.862
21
-137.293
0
LINE
8
BLACK
6
CONTINUOUS
10
167.862
20
-137.293
11
167.858
21
-137.299
0
LINE
8
BLACK
6
CONTINUOUS
10
167.858
20
-137.299
11
167.853
21
-137.303
0
LINE
8
BLACK
6
CONTINUOUS
10
167.853
20
-137.303
11
167.849
21
-137.308
0
LINE
8
BLACK
6
CONTINUOUS
10
167.849
20
-137.308
11
167.843
21
-137.312
0
LINE
8
BLACK
6
CONTINUOUS
10
167.843
20
-137.312
11
167.838
21
-137.316
0
LINE
8
BLACK
6
CONTINUOUS
10
167.838
20
-137.316
11
167.832
21
-137.318
0
LINE
8
BLACK
6
CONTINUOUS
10
167.832
20
-137.318
11
167.826
21
-137.322
0
LINE
8
BLACK
6
CONTINUOUS
10
167.826
20
-137.322
11
167.819
21
-137.323
0
LINE
8
BLACK
6
CONTINUOUS
10
167.819
20
-137.323
11
167.813
21
-137.325
0
LINE
8
BLACK
6
CONTINUOUS
10
167.813
20
-137.325
11
167.807
21
-137.325
0
LINE
8
BLACK
6
CONTINUOUS
10
167.807
20
-137.325
11
167.807
21
-137.325
0
LINE
8
BLACK
6
CONTINUOUS
10
167.807
20
-137.325
11
38.9934
21
-137.325
0
LINE
8
BLACK
6
CONTINUOUS
10
38.9934
20
-137.325
11
38.9934
21
-137.325
0
LINE
8
BLACK
6
CONTINUOUS
10
38.9934
20
-137.325
11
38.9868
21
-137.325
0
LINE
8
BLACK
6
CONTINUOUS
10
38.9868
20
-137.325
11
38.9805
21
-137.323
0
LINE
8
BLACK
6
CONTINUOUS
10
38.9805
20
-137.323
11
38.974
21
-137.322
0
LINE
8
BLACK
6
CONTINUOUS
10
38.974
20
-137.322
11
38.9682
21
-137.318
0
LINE
8
BLACK
6
CONTINUOUS
10
38.9682
20
-137.318
11
38.9619
21
-137.316
0
LINE
8
BLACK
6
CONTINUOUS
10
38.9619
20
-137.316
11
38.9568
21
-137.312
0
LINE
8
BLACK
6
CONTINUOUS
10
38.9568
20
-137.312
11
38.951
21
-137.308
0
LINE
8
BLACK
6
CONTINUOUS
10
38.951
20
-137.308
11
38.9468
21
-137.303
0
LINE
8
BLACK
6
CONTINUOUS
10
38.9468
20
-137.303
11
38.9417
21
-137.299
0
LINE
8
BLACK
6
CONTINUOUS
10
38.9417
20
-137.299
11
38.9383
21
-137.293
0
LINE
8
BLACK
6
CONTINUOUS
10
38.9383
20
-137.293
11
38.934
21
-137.288
0
LINE
8
BLACK
6
CONTINUOUS
10
38.934
20
-137.288
11
38.9318
21
-137.282
0
LINE
8
BLACK
6
CONTINUOUS
10
38.9318
20
-137.282
11
38.9284
21
-137.276
0
LINE
8
BLACK
6
CONTINUOUS
10
38.9284
20
-137.276
11
38.9273
21
-137.269
0
LINE
8
BLACK
6
CONTINUOUS
10
38.9273
20
-137.269
11
38.925
21
-137.263
0
LINE
8
BLACK
6
CONTINUOUS
10
38.925
20
-137.263
11
38.925
21
-137.237
0
LINE
8
BLACK
6
CONTINUOUS
10
38.925
20
-137.237
11
38.925
21
-38.9434
0
LINE
8
BLACK
6
CONTINUOUS
10
38.925
20
-38.9434
11
38.925
21
-38.9434
0
LINE
8
BLACK
6
CONTINUOUS
10
38.925
20
-38.9434
11
38.925
21
-38.9368
0
LINE
8
BLACK
6
CONTINUOUS
10
38.925
20
-38.9368
11
38.9273
21
-38.9305
0
LINE
8
BLACK
6
CONTINUOUS
10
38.9273
20
-38.9305
11
38.9284
21
-38.924
0
LINE
8
BLACK
6
CONTINUOUS
10
38.9284
20
-38.924
11
38.9318
21
-38.9182
0
LINE
8
BLACK
6
CONTINUOUS
10
38.9318
20
-38.9182
11
38.934
21
-38.9119
0
LINE
8
BLACK
6
CONTINUOUS
10
38.934
20
-38.9119
11
38.9383
21
-38.9068
0
LINE
8
BLACK
6
CONTINUOUS
10
38.9383
20
-38.9068
11
38.9417
21
-38.901
0
LINE
8
BLACK
6
CONTINUOUS
10
38.9417
20
-38.901
11
38.9468
21
-38.8968
0
LINE
8
BLACK
6
CONTINUOUS
10
38.9468
20
-38.8968
11
38.951
21
-38.8917
0
LINE
8
BLACK
6
CONTINUOUS
10
38.951
20
-38.8917
11
38.9568
21
-38.8883
0
LINE
8
BLACK
6
CONTINUOUS
10
38.9568
20
-38.8883
11
38.9619
21
-38.884
0
LINE
8
BLACK
6
CONTINUOUS
10
38.9619
20
-38.884
11
38.9682
21
-38.8818
0
LINE
8
BLACK
6
CONTINUOUS
10
38.9682
20
-38.8818
11
38.974
21
-38.8784
0
LINE
8
BLACK
6
CONTINUOUS
10
38.974
20
-38.8784
11
38.9805
21
-38.8773
0
LINE
8
BLACK
6
CONTINUOUS
10
38.9805
20
-38.8773
11
38.9868
21
-38.875
0
LINE
8
BLACK
6
CONTINUOUS
10
38.9868
20
-38.875
11
38.9934
21
-38.875
0
LINE
8
BLACK
6
CONTINUOUS
10
38.9934
20
-38.875
11
38.9934
21
-38.875
0
LINE
8
BLACK
6
CONTINUOUS
10
38.9934
20
-38.875
11
154.257
21
-38.875
0
LINE
8
BLACK
6
CONTINUOUS
10
154.257
20
-38.875
11
154.257
21
-38.875
0
LINE
8
BLACK
6
CONTINUOUS
10
154.257
20
-38.875
11
154.263
21
-38.875
0
LINE
8
BLACK
6
CONTINUOUS
10
154.263
20
-38.875
11
154.269
21
-38.8773
0
LINE
8
BLACK
6
CONTINUOUS
10
154.269
20
-38.8773
11
154.276
21
-38.8784
0
LINE
8
BLACK
6
CONTINUOUS
10
154.276
20
-38.8784
11
154.282
21
-38.8818
0
LINE
8
BLACK
6
CONTINUOUS
10
154.282
20
-38.8818
11
154.288
21
-38.884
0
LINE
8
BLACK
6
CONTINUOUS
10
154.288
20
-38.884
11
154.293
21
-38.8883
0
LINE
8
BLACK
6
CONTINUOUS
10
154.293
20
-38.8883
11
154.299
21
-38.8917
0
LINE
8
BLACK
6
CONTINUOUS
10
154.299
20
-38.8917
11
154.303
21
-38.8968
0
LINE
8
BLACK
6
CONTINUOUS
10
154.303
20
-38.8968
11
154.308
21
-38.901
0
LINE
8
BLACK
6
CONTINUOUS
10
154.308
20
-38.901
11
154.312
21
-38.9068
0
LINE
8
BLACK
6
CONTINUOUS
10
154.312
20
-38.9068
11
154.316
21
-38.9119
0
LINE
8
BLACK
6
CONTINUOUS
10
154.316
20
-38.9119
11
154.318
21
-38.9182
0
LINE
8
BLACK
6
CONTINUOUS
10
154.318
20
-38.9182
11
154.322
21
-38.924
0
LINE
8
BLACK
6
CONTINUOUS
10
154.322
20
-38.924
11
154.323
21
-38.9305
0
LINE
8
BLACK
6
CONTINUOUS
10
154.323
20
-38.9305
11
154.325
21
-38.9368
0
LINE
8
BLACK
6
CONTINUOUS
10
154.325
20
-38.9368
11
154.325
21
-38.9434
0
LINE
8
BLACK
6
CONTINUOUS
10
154.325
20
-38.9434
11
154.325
21
-38.9434
0
LINE
8
BLACK
6
CONTINUOUS
10
154.325
20
-38.9434
11
154.325
21
-59.425
0
LINE
8
BLACK
6
CONTINUOUS
10
154.325
20
-59.425
11
163.257
21
-59.425
0
LINE
8
BLACK
6
CONTINUOUS
10
39.075
20
-137.175
11
167.725
21
-137.175
0
LINE
8
BLACK
6
CONTINUOUS
10
167.725
20
-137.175
11
167.725
21
-135.257
0
LINE
8
BLACK
6
CONTINUOUS
10
167.725
20
-135.257
11
167.725
21
-135.257
0
LINE
8
BLACK
6
CONTINUOUS
10
167.725
20
-135.257
11
167.725
21
-135.193
0
LINE
8
BLACK
6
CONTINUOUS
10
167.725
20
-135.193
11
167.725
21
-135.193
0
LINE
8
BLACK
6
CONTINUOUS
10
167.725
20
-135.193
11
167.725
21
-116.643
0
LINE
8
BLACK
6
CONTINUOUS
10
167.725
20
-116.643
11
167.725
21
-116.643
0
LINE
8
BLACK
6
CONTINUOUS
10
167.725
20
-116.643
11
167.725
21
-116.637
0
LINE
8
BLACK
6
CONTINUOUS
10
167.725
20
-116.637
11
167.727
21
-116.631
0
LINE
8
BLACK
6
CONTINUOUS
10
167.727
20
-116.631
11
167.728
21
-116.624
0
LINE
8
BLACK
6
CONTINUOUS
10
167.728
20
-116.624
11
167.732
21
-116.618
0
LINE
8
BLACK
6
CONTINUOUS
10
167.732
20
-116.618
11
167.734
21
-116.612
0
LINE
8
BLACK
6
CONTINUOUS
10
167.734
20
-116.612
11
167.738
21
-116.607
0
LINE
8
BLACK
6
CONTINUOUS
10
167.738
20
-116.607
11
167.742
21
-116.601
0
LINE
8
BLACK
6
CONTINUOUS
10
167.742
20
-116.601
11
167.747
21
-116.597
0
LINE
8
BLACK
6
CONTINUOUS
10
167.747
20
-116.597
11
167.751
21
-116.592
0
LINE
8
BLACK
6
CONTINUOUS
10
167.751
20
-116.592
11
167.757
21
-116.588
0
LINE
8
BLACK
6
CONTINUOUS
10
167.757
20
-116.588
11
167.762
21
-116.584
0
LINE
8
BLACK
6
CONTINUOUS
10
167.762
20
-116.584
11
167.768
21
-116.582
0
LINE
8
BLACK
6
CONTINUOUS
10
167.768
20
-116.582
11
167.774
21
-116.578
0
LINE
8
BLACK
6
CONTINUOUS
10
167.774
20
-116.578
11
167.781
21
-116.577
0
LINE
8
BLACK
6
CONTINUOUS
10
167.781
20
-116.577
11
167.787
21
-116.575
0
LINE
8
BLACK
6
CONTINUOUS
10
167.787
20
-116.575
11
167.793
21
-116.575
0
LINE
8
BLACK
6
CONTINUOUS
10
167.793
20
-116.575
11
167.793
21
-116.575
0
LINE
8
BLACK
6
CONTINUOUS
10
167.793
20
-116.575
11
176.725
21
-116.575
0
LINE
8
BLACK
6
CONTINUOUS
10
176.725
20
-116.575
11
176.725
21
-116.143
0
LINE
8
BLACK
6
CONTINUOUS
10
176.725
20
-116.143
11
176.725
21
-97.575
0
LINE
8
BLACK
6
CONTINUOUS
10
176.725
20
-97.575
11
167.743
21
-97.575
0
LINE
8
BLACK
6
CONTINUOUS
10
167.743
20
-97.575
11
167.743
21
-97.575
0
LINE
8
BLACK
6
CONTINUOUS
10
167.743
20
-97.575
11
167.737
21
-97.575
0
LINE
8
BLACK
6
CONTINUOUS
10
167.737
20
-97.575
11
167.731
21
-97.5727
0
LINE
8
BLACK
6
CONTINUOUS
10
167.731
20
-97.5727
11
167.724
21
-97.5716
0
LINE
8
BLACK
6
CONTINUOUS
10
167.724
20
-97.5716
11
167.718
21
-97.5682
0
LINE
8
BLACK
6
CONTINUOUS
10
167.718
20
-97.5682
11
167.712
21
-97.566
0
LINE
8
BLACK
6
CONTINUOUS
10
167.712
20
-97.566
11
167.707
21
-97.5617
0
LINE
8
BLACK
6
CONTINUOUS
10
167.707
20
-97.5617
11
167.701
21
-97.5583
0
LINE
8
BLACK
6
CONTINUOUS
10
167.701
20
-97.5583
11
167.697
21
-97.5532
0
LINE
8
BLACK
6
CONTINUOUS
10
167.697
20
-97.5532
11
167.692
21
-97.549
0
LINE
8
BLACK
6
CONTINUOUS
10
167.692
20
-97.549
11
167.688
21
-97.5432
0
LINE
8
BLACK
6
CONTINUOUS
10
167.688
20
-97.5432
11
167.684
21
-97.5381
0
LINE
8
BLACK
6
CONTINUOUS
10
167.684
20
-97.5381
11
167.682
21
-97.5318
0
LINE
8
BLACK
6
CONTINUOUS
10
167.682
20
-97.5318
11
167.678
21
-97.526
0
LINE
8
BLACK
6
CONTINUOUS
10
167.678
20
-97.526
11
167.677
21
-97.5195
0
LINE
8
BLACK
6
CONTINUOUS
10
167.677
20
-97.5195
11
167.675
21
-97.5132
0
LINE
8
BLACK
6
CONTINUOUS
10
167.675
20
-97.5132
11
167.675
21
-97.4868
0
LINE
8
BLACK
6
CONTINUOUS
10
167.675
20
-97.4868
11
167.675
21
-78.625
0
LINE
8
BLACK
6
CONTINUOUS
10
167.675
20
-78.625
11
163.243
21
-78.625
0
LINE
8
BLACK
6
CONTINUOUS
10
163.243
20
-78.625
11
163.243
21
-78.625
0
LINE
8
BLACK
6
CONTINUOUS
10
163.243
20
-78.625
11
163.237
21
-78.625
0
LINE
8
BLACK
6
CONTINUOUS
10
163.237
20
-78.625
11
163.231
21
-78.6227
0
LINE
8
BLACK
6
CONTINUOUS
10
163.231
20
-78.6227
11
163.224
21
-78.6216
0
LINE
8
BLACK
6
CONTINUOUS
10
163.224
20
-78.6216
11
163.218
21
-78.6182
0
LINE
8
BLACK
6
CONTINUOUS
10
163.218
20
-78.6182
11
163.212
21
-78.616
0
LINE
8
BLACK
6
CONTINUOUS
10
163.212
20
-78.616
11
163.207
21
-78.6117
0
LINE
8
BLACK
6
CONTINUOUS
10
163.207
20
-78.6117
11
163.201
21
-78.6083
0
LINE
8
BLACK
6
CONTINUOUS
10
163.201
20
-78.6083
11
163.197
21
-78.6032
0
LINE
8
BLACK
6
CONTINUOUS
10
163.197
20
-78.6032
11
163.192
21
-78.599
0
LINE
8
BLACK
6
CONTINUOUS
10
163.192
20
-78.599
11
163.188
21
-78.5932
0
LINE
8
BLACK
6
CONTINUOUS
10
163.188
20
-78.5932
11
163.184
21
-78.5881
0
LINE
8
BLACK
6
CONTINUOUS
10
163.184
20
-78.5881
11
163.182
21
-78.5818
0
LINE
8
BLACK
6
CONTINUOUS
10
163.182
20
-78.5818
11
163.178
21
-78.576
0
LINE
8
BLACK
6
CONTINUOUS
10
163.178
20
-78.576
11
163.177
21
-78.5695
0
LINE
8
BLACK
6
CONTINUOUS
10
163.177
20
-78.5695
11
163.175
21
-78.5632
0
LINE
8
BLACK
6
CONTINUOUS
10
163.175
20
-78.5632
11
163.175
21
-78.5368
0
LINE
8
BLACK
6
CONTINUOUS
10
163.175
20
-78.5368
11
163.175
21
-59.575
0
LINE
8
BLACK
6
CONTINUOUS
10
163.175
20
-59.575
11
154.243
21
-59.575
0
LINE
8
BLACK
6
CONTINUOUS
10
154.243
20
-59.575
11
154.243
21
-59.575
0
LINE
8
BLACK
6
CONTINUOUS
10
154.243
20
-59.575
11
154.237
21
-59.575
0
LINE
8
BLACK
6
CONTINUOUS
10
154.237
20
-59.575
11
154.231
21
-59.5727
0
LINE
8
BLACK
6
CONTINUOUS
10
154.231
20
-59.5727
11
154.224
21
-59.5716
0
LINE
8
BLACK
6
CONTINUOUS
10
154.224
20
-59.5716
11
154.218
21
-59.5682
0
LINE
8
BLACK
6
CONTINUOUS
10
154.218
20
-59.5682
11
154.212
21
-59.566
0
LINE
8
BLACK
6
CONTINUOUS
10
154.212
20
-59.566
11
154.207
21
-59.5617
0
LINE
8
BLACK
6
CONTINUOUS
10
154.207
20
-59.5617
11
154.201
21
-59.5583
0
LINE
8
BLACK
6
CONTINUOUS
10
154.201
20
-59.5583
11
154.197
21
-59.5532
0
LINE
8
BLACK
6
CONTINUOUS
10
154.197
20
-59.5532
11
154.192
21
-59.549
0
LINE
8
BLACK
6
CONTINUOUS
10
154.192
20
-59.549
11
154.188
21
-59.5432
0
LINE
8
BLACK
6
CONTINUOUS
10
154.188
20
-59.5432
11
154.184
21
-59.5381
0
LINE
8
BLACK
6
CONTINUOUS
10
154.184
20
-59.5381
11
154.182
21
-59.5318
0
LINE
8
BLACK
6
CONTINUOUS
10
154.182
20
-59.5318
11
154.178
21
-59.526
0
LINE
8
BLACK
6
CONTINUOUS
10
154.178
20
-59.526
11
154.177
21
-59.5195
0
LINE
8
BLACK
6
CONTINUOUS
10
154.177
20
-59.5195
11
154.175
21
-59.5132
0
LINE
8
BLACK
6
CONTINUOUS
10
154.175
20
-59.5132
11
154.175
21
-59.4868
0
LINE
8
BLACK
6
CONTINUOUS
10
154.175
20
-59.4868
11
154.175
21
-40.9434
0
LINE
8
BLACK
6
CONTINUOUS
10
154.175
20
-40.9434
11
154.175
21
-40.9434
0
LINE
8
BLACK
6
CONTINUOUS
10
154.175
20
-40.9434
11
154.175
21
-39.025
0
LINE
8
BLACK
6
CONTINUOUS
10
154.175
20
-39.025
11
39.075
21
-39.025
0
LINE
8
BLACK
6
CONTINUOUS
10
39.075
20
-39.025
11
39.075
21
-137.175
  0
ENDSEC
  0
EOF
