G04 #@! TF.GenerationSoftware,KiCad,Pcbnew,(5.0.2)-1*
G04 #@! TF.CreationDate,2020-04-15T18:40:52+09:00*
G04 #@! TF.ProjectId,eckeyboard,65636b65-7962-46f6-9172-642e6b696361,rev?*
G04 #@! TF.SameCoordinates,Original*
G04 #@! TF.FileFunction,Soldermask,Top*
G04 #@! TF.FilePolarity,Negative*
%FSLAX46Y46*%
G04 Gerber Fmt 4.6, Leading zero omitted, Abs format (unit mm)*
G04 Created by KiCad (PCBNEW (5.0.2)-1) date 2020/04/15 18:40:52*
%MOMM*%
%LPD*%
G01*
G04 APERTURE LIST*
%ADD10C,0.100000*%
G04 APERTURE END LIST*
D10*
G36*
X112466821Y-128381313D02*
X112466824Y-128381314D01*
X112466825Y-128381314D01*
X112627239Y-128429975D01*
X112627241Y-128429976D01*
X112627244Y-128429977D01*
X112775078Y-128508995D01*
X112904659Y-128615341D01*
X113011005Y-128744922D01*
X113090023Y-128892756D01*
X113090024Y-128892759D01*
X113090025Y-128892761D01*
X113138686Y-129053175D01*
X113138686Y-129053178D01*
X113138687Y-129053180D01*
X113151000Y-129178197D01*
X113151000Y-130061804D01*
X113138687Y-130186821D01*
X113090023Y-130347244D01*
X113011005Y-130495078D01*
X112904659Y-130624659D01*
X112775078Y-130731005D01*
X112627243Y-130810023D01*
X112627240Y-130810024D01*
X112627238Y-130810025D01*
X112466824Y-130858686D01*
X112466823Y-130858686D01*
X112466820Y-130858687D01*
X112300000Y-130875117D01*
X112133179Y-130858687D01*
X112133176Y-130858686D01*
X112133175Y-130858686D01*
X111972761Y-130810025D01*
X111972759Y-130810024D01*
X111972756Y-130810023D01*
X111824922Y-130731005D01*
X111695341Y-130624659D01*
X111588995Y-130495078D01*
X111509977Y-130347243D01*
X111461315Y-130186825D01*
X111461314Y-130186824D01*
X111461314Y-130186823D01*
X111461313Y-130186820D01*
X111449000Y-130061803D01*
X111449000Y-129178197D01*
X111461314Y-129053179D01*
X111509978Y-128892756D01*
X111588996Y-128744922D01*
X111695342Y-128615341D01*
X111824923Y-128508995D01*
X111972757Y-128429977D01*
X111972760Y-128429976D01*
X111972762Y-128429975D01*
X112133176Y-128381314D01*
X112133177Y-128381314D01*
X112133180Y-128381313D01*
X112300000Y-128364883D01*
X112466821Y-128381313D01*
X112466821Y-128381313D01*
G37*
G36*
X115006821Y-128381313D02*
X115006824Y-128381314D01*
X115006825Y-128381314D01*
X115167239Y-128429975D01*
X115167241Y-128429976D01*
X115167244Y-128429977D01*
X115315078Y-128508995D01*
X115444659Y-128615341D01*
X115551005Y-128744922D01*
X115630023Y-128892756D01*
X115630024Y-128892759D01*
X115630025Y-128892761D01*
X115678686Y-129053175D01*
X115678686Y-129053178D01*
X115678687Y-129053180D01*
X115691000Y-129178197D01*
X115691000Y-130061804D01*
X115678687Y-130186821D01*
X115630023Y-130347244D01*
X115551005Y-130495078D01*
X115444659Y-130624659D01*
X115315078Y-130731005D01*
X115167243Y-130810023D01*
X115167240Y-130810024D01*
X115167238Y-130810025D01*
X115006824Y-130858686D01*
X115006823Y-130858686D01*
X115006820Y-130858687D01*
X114840000Y-130875117D01*
X114673179Y-130858687D01*
X114673176Y-130858686D01*
X114673175Y-130858686D01*
X114512761Y-130810025D01*
X114512759Y-130810024D01*
X114512756Y-130810023D01*
X114364922Y-130731005D01*
X114235341Y-130624659D01*
X114128995Y-130495078D01*
X114049977Y-130347243D01*
X114001315Y-130186825D01*
X114001314Y-130186824D01*
X114001314Y-130186823D01*
X114001313Y-130186820D01*
X113989000Y-130061803D01*
X113989000Y-129178197D01*
X114001314Y-129053179D01*
X114049978Y-128892756D01*
X114128996Y-128744922D01*
X114235342Y-128615341D01*
X114364923Y-128508995D01*
X114512757Y-128429977D01*
X114512760Y-128429976D01*
X114512762Y-128429975D01*
X114673176Y-128381314D01*
X114673177Y-128381314D01*
X114673180Y-128381313D01*
X114840000Y-128364883D01*
X115006821Y-128381313D01*
X115006821Y-128381313D01*
G37*
G36*
X130246821Y-128381313D02*
X130246824Y-128381314D01*
X130246825Y-128381314D01*
X130407239Y-128429975D01*
X130407241Y-128429976D01*
X130407244Y-128429977D01*
X130555078Y-128508995D01*
X130684659Y-128615341D01*
X130791005Y-128744922D01*
X130870023Y-128892756D01*
X130870024Y-128892759D01*
X130870025Y-128892761D01*
X130918686Y-129053175D01*
X130918686Y-129053178D01*
X130918687Y-129053180D01*
X130931000Y-129178197D01*
X130931000Y-130061804D01*
X130918687Y-130186821D01*
X130870023Y-130347244D01*
X130791005Y-130495078D01*
X130684659Y-130624659D01*
X130555078Y-130731005D01*
X130407243Y-130810023D01*
X130407240Y-130810024D01*
X130407238Y-130810025D01*
X130246824Y-130858686D01*
X130246823Y-130858686D01*
X130246820Y-130858687D01*
X130080000Y-130875117D01*
X129913179Y-130858687D01*
X129913176Y-130858686D01*
X129913175Y-130858686D01*
X129752761Y-130810025D01*
X129752759Y-130810024D01*
X129752756Y-130810023D01*
X129604922Y-130731005D01*
X129475341Y-130624659D01*
X129368995Y-130495078D01*
X129289977Y-130347243D01*
X129241315Y-130186825D01*
X129241314Y-130186824D01*
X129241314Y-130186823D01*
X129241313Y-130186820D01*
X129229000Y-130061803D01*
X129229000Y-129178197D01*
X129241314Y-129053179D01*
X129289978Y-128892756D01*
X129368996Y-128744922D01*
X129475342Y-128615341D01*
X129604923Y-128508995D01*
X129752757Y-128429977D01*
X129752760Y-128429976D01*
X129752762Y-128429975D01*
X129913176Y-128381314D01*
X129913177Y-128381314D01*
X129913180Y-128381313D01*
X130080000Y-128364883D01*
X130246821Y-128381313D01*
X130246821Y-128381313D01*
G37*
G36*
X127706821Y-128381313D02*
X127706824Y-128381314D01*
X127706825Y-128381314D01*
X127867239Y-128429975D01*
X127867241Y-128429976D01*
X127867244Y-128429977D01*
X128015078Y-128508995D01*
X128144659Y-128615341D01*
X128251005Y-128744922D01*
X128330023Y-128892756D01*
X128330024Y-128892759D01*
X128330025Y-128892761D01*
X128378686Y-129053175D01*
X128378686Y-129053178D01*
X128378687Y-129053180D01*
X128391000Y-129178197D01*
X128391000Y-130061804D01*
X128378687Y-130186821D01*
X128330023Y-130347244D01*
X128251005Y-130495078D01*
X128144659Y-130624659D01*
X128015078Y-130731005D01*
X127867243Y-130810023D01*
X127867240Y-130810024D01*
X127867238Y-130810025D01*
X127706824Y-130858686D01*
X127706823Y-130858686D01*
X127706820Y-130858687D01*
X127540000Y-130875117D01*
X127373179Y-130858687D01*
X127373176Y-130858686D01*
X127373175Y-130858686D01*
X127212761Y-130810025D01*
X127212759Y-130810024D01*
X127212756Y-130810023D01*
X127064922Y-130731005D01*
X126935341Y-130624659D01*
X126828995Y-130495078D01*
X126749977Y-130347243D01*
X126701315Y-130186825D01*
X126701314Y-130186824D01*
X126701314Y-130186823D01*
X126701313Y-130186820D01*
X126689000Y-130061803D01*
X126689000Y-129178197D01*
X126701314Y-129053179D01*
X126749978Y-128892756D01*
X126828996Y-128744922D01*
X126935342Y-128615341D01*
X127064923Y-128508995D01*
X127212757Y-128429977D01*
X127212760Y-128429976D01*
X127212762Y-128429975D01*
X127373176Y-128381314D01*
X127373177Y-128381314D01*
X127373180Y-128381313D01*
X127540000Y-128364883D01*
X127706821Y-128381313D01*
X127706821Y-128381313D01*
G37*
G36*
X125166821Y-128381313D02*
X125166824Y-128381314D01*
X125166825Y-128381314D01*
X125327239Y-128429975D01*
X125327241Y-128429976D01*
X125327244Y-128429977D01*
X125475078Y-128508995D01*
X125604659Y-128615341D01*
X125711005Y-128744922D01*
X125790023Y-128892756D01*
X125790024Y-128892759D01*
X125790025Y-128892761D01*
X125838686Y-129053175D01*
X125838686Y-129053178D01*
X125838687Y-129053180D01*
X125851000Y-129178197D01*
X125851000Y-130061804D01*
X125838687Y-130186821D01*
X125790023Y-130347244D01*
X125711005Y-130495078D01*
X125604659Y-130624659D01*
X125475078Y-130731005D01*
X125327243Y-130810023D01*
X125327240Y-130810024D01*
X125327238Y-130810025D01*
X125166824Y-130858686D01*
X125166823Y-130858686D01*
X125166820Y-130858687D01*
X125000000Y-130875117D01*
X124833179Y-130858687D01*
X124833176Y-130858686D01*
X124833175Y-130858686D01*
X124672761Y-130810025D01*
X124672759Y-130810024D01*
X124672756Y-130810023D01*
X124524922Y-130731005D01*
X124395341Y-130624659D01*
X124288995Y-130495078D01*
X124209977Y-130347243D01*
X124161315Y-130186825D01*
X124161314Y-130186824D01*
X124161314Y-130186823D01*
X124161313Y-130186820D01*
X124149000Y-130061803D01*
X124149000Y-129178197D01*
X124161314Y-129053179D01*
X124209978Y-128892756D01*
X124288996Y-128744922D01*
X124395342Y-128615341D01*
X124524923Y-128508995D01*
X124672757Y-128429977D01*
X124672760Y-128429976D01*
X124672762Y-128429975D01*
X124833176Y-128381314D01*
X124833177Y-128381314D01*
X124833180Y-128381313D01*
X125000000Y-128364883D01*
X125166821Y-128381313D01*
X125166821Y-128381313D01*
G37*
G36*
X122626821Y-128381313D02*
X122626824Y-128381314D01*
X122626825Y-128381314D01*
X122787239Y-128429975D01*
X122787241Y-128429976D01*
X122787244Y-128429977D01*
X122935078Y-128508995D01*
X123064659Y-128615341D01*
X123171005Y-128744922D01*
X123250023Y-128892756D01*
X123250024Y-128892759D01*
X123250025Y-128892761D01*
X123298686Y-129053175D01*
X123298686Y-129053178D01*
X123298687Y-129053180D01*
X123311000Y-129178197D01*
X123311000Y-130061804D01*
X123298687Y-130186821D01*
X123250023Y-130347244D01*
X123171005Y-130495078D01*
X123064659Y-130624659D01*
X122935078Y-130731005D01*
X122787243Y-130810023D01*
X122787240Y-130810024D01*
X122787238Y-130810025D01*
X122626824Y-130858686D01*
X122626823Y-130858686D01*
X122626820Y-130858687D01*
X122460000Y-130875117D01*
X122293179Y-130858687D01*
X122293176Y-130858686D01*
X122293175Y-130858686D01*
X122132761Y-130810025D01*
X122132759Y-130810024D01*
X122132756Y-130810023D01*
X121984922Y-130731005D01*
X121855341Y-130624659D01*
X121748995Y-130495078D01*
X121669977Y-130347243D01*
X121621315Y-130186825D01*
X121621314Y-130186824D01*
X121621314Y-130186823D01*
X121621313Y-130186820D01*
X121609000Y-130061803D01*
X121609000Y-129178197D01*
X121621314Y-129053179D01*
X121669978Y-128892756D01*
X121748996Y-128744922D01*
X121855342Y-128615341D01*
X121984923Y-128508995D01*
X122132757Y-128429977D01*
X122132760Y-128429976D01*
X122132762Y-128429975D01*
X122293176Y-128381314D01*
X122293177Y-128381314D01*
X122293180Y-128381313D01*
X122460000Y-128364883D01*
X122626821Y-128381313D01*
X122626821Y-128381313D01*
G37*
G36*
X120086821Y-128381313D02*
X120086824Y-128381314D01*
X120086825Y-128381314D01*
X120247239Y-128429975D01*
X120247241Y-128429976D01*
X120247244Y-128429977D01*
X120395078Y-128508995D01*
X120524659Y-128615341D01*
X120631005Y-128744922D01*
X120710023Y-128892756D01*
X120710024Y-128892759D01*
X120710025Y-128892761D01*
X120758686Y-129053175D01*
X120758686Y-129053178D01*
X120758687Y-129053180D01*
X120771000Y-129178197D01*
X120771000Y-130061804D01*
X120758687Y-130186821D01*
X120710023Y-130347244D01*
X120631005Y-130495078D01*
X120524659Y-130624659D01*
X120395078Y-130731005D01*
X120247243Y-130810023D01*
X120247240Y-130810024D01*
X120247238Y-130810025D01*
X120086824Y-130858686D01*
X120086823Y-130858686D01*
X120086820Y-130858687D01*
X119920000Y-130875117D01*
X119753179Y-130858687D01*
X119753176Y-130858686D01*
X119753175Y-130858686D01*
X119592761Y-130810025D01*
X119592759Y-130810024D01*
X119592756Y-130810023D01*
X119444922Y-130731005D01*
X119315341Y-130624659D01*
X119208995Y-130495078D01*
X119129977Y-130347243D01*
X119081315Y-130186825D01*
X119081314Y-130186824D01*
X119081314Y-130186823D01*
X119081313Y-130186820D01*
X119069000Y-130061803D01*
X119069000Y-129178197D01*
X119081314Y-129053179D01*
X119129978Y-128892756D01*
X119208996Y-128744922D01*
X119315342Y-128615341D01*
X119444923Y-128508995D01*
X119592757Y-128429977D01*
X119592760Y-128429976D01*
X119592762Y-128429975D01*
X119753176Y-128381314D01*
X119753177Y-128381314D01*
X119753180Y-128381313D01*
X119920000Y-128364883D01*
X120086821Y-128381313D01*
X120086821Y-128381313D01*
G37*
G36*
X117546821Y-128381313D02*
X117546824Y-128381314D01*
X117546825Y-128381314D01*
X117707239Y-128429975D01*
X117707241Y-128429976D01*
X117707244Y-128429977D01*
X117855078Y-128508995D01*
X117984659Y-128615341D01*
X118091005Y-128744922D01*
X118170023Y-128892756D01*
X118170024Y-128892759D01*
X118170025Y-128892761D01*
X118218686Y-129053175D01*
X118218686Y-129053178D01*
X118218687Y-129053180D01*
X118231000Y-129178197D01*
X118231000Y-130061804D01*
X118218687Y-130186821D01*
X118170023Y-130347244D01*
X118091005Y-130495078D01*
X117984659Y-130624659D01*
X117855078Y-130731005D01*
X117707243Y-130810023D01*
X117707240Y-130810024D01*
X117707238Y-130810025D01*
X117546824Y-130858686D01*
X117546823Y-130858686D01*
X117546820Y-130858687D01*
X117380000Y-130875117D01*
X117213179Y-130858687D01*
X117213176Y-130858686D01*
X117213175Y-130858686D01*
X117052761Y-130810025D01*
X117052759Y-130810024D01*
X117052756Y-130810023D01*
X116904922Y-130731005D01*
X116775341Y-130624659D01*
X116668995Y-130495078D01*
X116589977Y-130347243D01*
X116541315Y-130186825D01*
X116541314Y-130186824D01*
X116541314Y-130186823D01*
X116541313Y-130186820D01*
X116529000Y-130061803D01*
X116529000Y-129178197D01*
X116541314Y-129053179D01*
X116589978Y-128892756D01*
X116668996Y-128744922D01*
X116775342Y-128615341D01*
X116904923Y-128508995D01*
X117052757Y-128429977D01*
X117052760Y-128429976D01*
X117052762Y-128429975D01*
X117213176Y-128381314D01*
X117213177Y-128381314D01*
X117213180Y-128381313D01*
X117380000Y-128364883D01*
X117546821Y-128381313D01*
X117546821Y-128381313D01*
G37*
G36*
X110414499Y-126378445D02*
X110451993Y-126389819D01*
X110486557Y-126408294D01*
X110516847Y-126433153D01*
X110541706Y-126463443D01*
X110560181Y-126498007D01*
X110571555Y-126535501D01*
X110576000Y-126580638D01*
X110576000Y-127219362D01*
X110571555Y-127264499D01*
X110560181Y-127301993D01*
X110541706Y-127336557D01*
X110516847Y-127366847D01*
X110486557Y-127391706D01*
X110451993Y-127410181D01*
X110414499Y-127421555D01*
X110369362Y-127426000D01*
X109630638Y-127426000D01*
X109585501Y-127421555D01*
X109548007Y-127410181D01*
X109513443Y-127391706D01*
X109483153Y-127366847D01*
X109458294Y-127336557D01*
X109439819Y-127301993D01*
X109428445Y-127264499D01*
X109424000Y-127219362D01*
X109424000Y-126580638D01*
X109428445Y-126535501D01*
X109439819Y-126498007D01*
X109458294Y-126463443D01*
X109483153Y-126433153D01*
X109513443Y-126408294D01*
X109548007Y-126389819D01*
X109585501Y-126378445D01*
X109630638Y-126374000D01*
X110369362Y-126374000D01*
X110414499Y-126378445D01*
X110414499Y-126378445D01*
G37*
G36*
X112164499Y-126378445D02*
X112201993Y-126389819D01*
X112236557Y-126408294D01*
X112266847Y-126433153D01*
X112291706Y-126463443D01*
X112310181Y-126498007D01*
X112321555Y-126535501D01*
X112326000Y-126580638D01*
X112326000Y-127219362D01*
X112321555Y-127264499D01*
X112310181Y-127301993D01*
X112291706Y-127336557D01*
X112266847Y-127366847D01*
X112236557Y-127391706D01*
X112201993Y-127410181D01*
X112164499Y-127421555D01*
X112119362Y-127426000D01*
X111380638Y-127426000D01*
X111335501Y-127421555D01*
X111298007Y-127410181D01*
X111263443Y-127391706D01*
X111233153Y-127366847D01*
X111208294Y-127336557D01*
X111189819Y-127301993D01*
X111178445Y-127264499D01*
X111174000Y-127219362D01*
X111174000Y-126580638D01*
X111178445Y-126535501D01*
X111189819Y-126498007D01*
X111208294Y-126463443D01*
X111233153Y-126433153D01*
X111263443Y-126408294D01*
X111298007Y-126389819D01*
X111335501Y-126378445D01*
X111380638Y-126374000D01*
X112119362Y-126374000D01*
X112164499Y-126378445D01*
X112164499Y-126378445D01*
G37*
G36*
X121964499Y-126103445D02*
X122001993Y-126114819D01*
X122036557Y-126133294D01*
X122066847Y-126158153D01*
X122091706Y-126188443D01*
X122110181Y-126223007D01*
X122121555Y-126260501D01*
X122126000Y-126305638D01*
X122126000Y-127044362D01*
X122121555Y-127089499D01*
X122110181Y-127126993D01*
X122091706Y-127161557D01*
X122066847Y-127191847D01*
X122036557Y-127216706D01*
X122001993Y-127235181D01*
X121964499Y-127246555D01*
X121919362Y-127251000D01*
X121280638Y-127251000D01*
X121235501Y-127246555D01*
X121198007Y-127235181D01*
X121163443Y-127216706D01*
X121133153Y-127191847D01*
X121108294Y-127161557D01*
X121089819Y-127126993D01*
X121078445Y-127089499D01*
X121074000Y-127044362D01*
X121074000Y-126305638D01*
X121078445Y-126260501D01*
X121089819Y-126223007D01*
X121108294Y-126188443D01*
X121133153Y-126158153D01*
X121163443Y-126133294D01*
X121198007Y-126114819D01*
X121235501Y-126103445D01*
X121280638Y-126099000D01*
X121919362Y-126099000D01*
X121964499Y-126103445D01*
X121964499Y-126103445D01*
G37*
G36*
X123664499Y-126103445D02*
X123701993Y-126114819D01*
X123736557Y-126133294D01*
X123766847Y-126158153D01*
X123791706Y-126188443D01*
X123810181Y-126223007D01*
X123821555Y-126260501D01*
X123826000Y-126305638D01*
X123826000Y-127044362D01*
X123821555Y-127089499D01*
X123810181Y-127126993D01*
X123791706Y-127161557D01*
X123766847Y-127191847D01*
X123736557Y-127216706D01*
X123701993Y-127235181D01*
X123664499Y-127246555D01*
X123619362Y-127251000D01*
X122980638Y-127251000D01*
X122935501Y-127246555D01*
X122898007Y-127235181D01*
X122863443Y-127216706D01*
X122833153Y-127191847D01*
X122808294Y-127161557D01*
X122789819Y-127126993D01*
X122778445Y-127089499D01*
X122774000Y-127044362D01*
X122774000Y-126305638D01*
X122778445Y-126260501D01*
X122789819Y-126223007D01*
X122808294Y-126188443D01*
X122833153Y-126158153D01*
X122863443Y-126133294D01*
X122898007Y-126114819D01*
X122935501Y-126103445D01*
X122980638Y-126099000D01*
X123619362Y-126099000D01*
X123664499Y-126103445D01*
X123664499Y-126103445D01*
G37*
G36*
X142144721Y-125670174D02*
X142244995Y-125711709D01*
X142335245Y-125772012D01*
X142411988Y-125848755D01*
X142472291Y-125939005D01*
X142513826Y-126039279D01*
X142535000Y-126145730D01*
X142535000Y-126254270D01*
X142513826Y-126360721D01*
X142472291Y-126460995D01*
X142411988Y-126551245D01*
X142335245Y-126627988D01*
X142244995Y-126688291D01*
X142144721Y-126729826D01*
X142038270Y-126751000D01*
X141929730Y-126751000D01*
X141823279Y-126729826D01*
X141723005Y-126688291D01*
X141632755Y-126627988D01*
X141556012Y-126551245D01*
X141495709Y-126460995D01*
X141454174Y-126360721D01*
X141433000Y-126254270D01*
X141433000Y-126145730D01*
X141454174Y-126039279D01*
X141495709Y-125939005D01*
X141556012Y-125848755D01*
X141632755Y-125772012D01*
X141723005Y-125711709D01*
X141823279Y-125670174D01*
X141929730Y-125649000D01*
X142038270Y-125649000D01*
X142144721Y-125670174D01*
X142144721Y-125670174D01*
G37*
G36*
X144160721Y-125670174D02*
X144260995Y-125711709D01*
X144351245Y-125772012D01*
X144427988Y-125848755D01*
X144488291Y-125939005D01*
X144529826Y-126039279D01*
X144551000Y-126145730D01*
X144551000Y-126254270D01*
X144529826Y-126360721D01*
X144488291Y-126460995D01*
X144427988Y-126551245D01*
X144351245Y-126627988D01*
X144260995Y-126688291D01*
X144160721Y-126729826D01*
X144054270Y-126751000D01*
X143945730Y-126751000D01*
X143839279Y-126729826D01*
X143739005Y-126688291D01*
X143648755Y-126627988D01*
X143572012Y-126551245D01*
X143511709Y-126460995D01*
X143470174Y-126360721D01*
X143449000Y-126254270D01*
X143449000Y-126145730D01*
X143470174Y-126039279D01*
X143511709Y-125939005D01*
X143572012Y-125848755D01*
X143648755Y-125772012D01*
X143739005Y-125711709D01*
X143839279Y-125670174D01*
X143945730Y-125649000D01*
X144054270Y-125649000D01*
X144160721Y-125670174D01*
X144160721Y-125670174D01*
G37*
G36*
X99144721Y-125670174D02*
X99244995Y-125711709D01*
X99335245Y-125772012D01*
X99411988Y-125848755D01*
X99472291Y-125939005D01*
X99513826Y-126039279D01*
X99535000Y-126145730D01*
X99535000Y-126254270D01*
X99513826Y-126360721D01*
X99472291Y-126460995D01*
X99411988Y-126551245D01*
X99335245Y-126627988D01*
X99244995Y-126688291D01*
X99144721Y-126729826D01*
X99038270Y-126751000D01*
X98929730Y-126751000D01*
X98823279Y-126729826D01*
X98723005Y-126688291D01*
X98632755Y-126627988D01*
X98556012Y-126551245D01*
X98495709Y-126460995D01*
X98454174Y-126360721D01*
X98433000Y-126254270D01*
X98433000Y-126145730D01*
X98454174Y-126039279D01*
X98495709Y-125939005D01*
X98556012Y-125848755D01*
X98632755Y-125772012D01*
X98723005Y-125711709D01*
X98823279Y-125670174D01*
X98929730Y-125649000D01*
X99038270Y-125649000D01*
X99144721Y-125670174D01*
X99144721Y-125670174D01*
G37*
G36*
X101160721Y-125670174D02*
X101260995Y-125711709D01*
X101351245Y-125772012D01*
X101427988Y-125848755D01*
X101488291Y-125939005D01*
X101529826Y-126039279D01*
X101551000Y-126145730D01*
X101551000Y-126254270D01*
X101529826Y-126360721D01*
X101488291Y-126460995D01*
X101427988Y-126551245D01*
X101351245Y-126627988D01*
X101260995Y-126688291D01*
X101160721Y-126729826D01*
X101054270Y-126751000D01*
X100945730Y-126751000D01*
X100839279Y-126729826D01*
X100739005Y-126688291D01*
X100648755Y-126627988D01*
X100572012Y-126551245D01*
X100511709Y-126460995D01*
X100470174Y-126360721D01*
X100449000Y-126254270D01*
X100449000Y-126145730D01*
X100470174Y-126039279D01*
X100511709Y-125939005D01*
X100572012Y-125848755D01*
X100648755Y-125772012D01*
X100739005Y-125711709D01*
X100839279Y-125670174D01*
X100945730Y-125649000D01*
X101054270Y-125649000D01*
X101160721Y-125670174D01*
X101160721Y-125670174D01*
G37*
G36*
X73444721Y-125670174D02*
X73544995Y-125711709D01*
X73635245Y-125772012D01*
X73711988Y-125848755D01*
X73772291Y-125939005D01*
X73813826Y-126039279D01*
X73835000Y-126145730D01*
X73835000Y-126254270D01*
X73813826Y-126360721D01*
X73772291Y-126460995D01*
X73711988Y-126551245D01*
X73635245Y-126627988D01*
X73544995Y-126688291D01*
X73444721Y-126729826D01*
X73338270Y-126751000D01*
X73229730Y-126751000D01*
X73123279Y-126729826D01*
X73023005Y-126688291D01*
X72932755Y-126627988D01*
X72856012Y-126551245D01*
X72795709Y-126460995D01*
X72754174Y-126360721D01*
X72733000Y-126254270D01*
X72733000Y-126145730D01*
X72754174Y-126039279D01*
X72795709Y-125939005D01*
X72856012Y-125848755D01*
X72932755Y-125772012D01*
X73023005Y-125711709D01*
X73123279Y-125670174D01*
X73229730Y-125649000D01*
X73338270Y-125649000D01*
X73444721Y-125670174D01*
X73444721Y-125670174D01*
G37*
G36*
X75460721Y-125670174D02*
X75560995Y-125711709D01*
X75651245Y-125772012D01*
X75727988Y-125848755D01*
X75788291Y-125939005D01*
X75829826Y-126039279D01*
X75851000Y-126145730D01*
X75851000Y-126254270D01*
X75829826Y-126360721D01*
X75788291Y-126460995D01*
X75727988Y-126551245D01*
X75651245Y-126627988D01*
X75560995Y-126688291D01*
X75460721Y-126729826D01*
X75354270Y-126751000D01*
X75245730Y-126751000D01*
X75139279Y-126729826D01*
X75039005Y-126688291D01*
X74948755Y-126627988D01*
X74872012Y-126551245D01*
X74811709Y-126460995D01*
X74770174Y-126360721D01*
X74749000Y-126254270D01*
X74749000Y-126145730D01*
X74770174Y-126039279D01*
X74811709Y-125939005D01*
X74872012Y-125848755D01*
X74948755Y-125772012D01*
X75039005Y-125711709D01*
X75139279Y-125670174D01*
X75245730Y-125649000D01*
X75354270Y-125649000D01*
X75460721Y-125670174D01*
X75460721Y-125670174D01*
G37*
G36*
X56955996Y-123953051D02*
X56989653Y-123963261D01*
X57020667Y-123979838D01*
X57047852Y-124002148D01*
X57070162Y-124029333D01*
X57086739Y-124060347D01*
X57096949Y-124094004D01*
X57101000Y-124135138D01*
X57101000Y-125464862D01*
X57096949Y-125505996D01*
X57086739Y-125539653D01*
X57070162Y-125570667D01*
X57047852Y-125597852D01*
X57020667Y-125620162D01*
X56989653Y-125636739D01*
X56955996Y-125646949D01*
X56914862Y-125651000D01*
X53685138Y-125651000D01*
X53644004Y-125646949D01*
X53610347Y-125636739D01*
X53579333Y-125620162D01*
X53552148Y-125597852D01*
X53529838Y-125570667D01*
X53513261Y-125539653D01*
X53503051Y-125505996D01*
X53499000Y-125464862D01*
X53499000Y-124135138D01*
X53503051Y-124094004D01*
X53513261Y-124060347D01*
X53529838Y-124029333D01*
X53552148Y-124002148D01*
X53579333Y-123979838D01*
X53610347Y-123963261D01*
X53644004Y-123953051D01*
X53685138Y-123949000D01*
X56914862Y-123949000D01*
X56955996Y-123953051D01*
X56955996Y-123953051D01*
G37*
G36*
X51555996Y-123953051D02*
X51589653Y-123963261D01*
X51620667Y-123979838D01*
X51647852Y-124002148D01*
X51670162Y-124029333D01*
X51686739Y-124060347D01*
X51696949Y-124094004D01*
X51701000Y-124135138D01*
X51701000Y-125464862D01*
X51696949Y-125505996D01*
X51686739Y-125539653D01*
X51670162Y-125570667D01*
X51647852Y-125597852D01*
X51620667Y-125620162D01*
X51589653Y-125636739D01*
X51555996Y-125646949D01*
X51514862Y-125651000D01*
X48285138Y-125651000D01*
X48244004Y-125646949D01*
X48210347Y-125636739D01*
X48179333Y-125620162D01*
X48152148Y-125597852D01*
X48129838Y-125570667D01*
X48113261Y-125539653D01*
X48103051Y-125505996D01*
X48099000Y-125464862D01*
X48099000Y-124135138D01*
X48103051Y-124094004D01*
X48113261Y-124060347D01*
X48129838Y-124029333D01*
X48152148Y-124002148D01*
X48179333Y-123979838D01*
X48210347Y-123963261D01*
X48244004Y-123953051D01*
X48285138Y-123949000D01*
X51514862Y-123949000D01*
X51555996Y-123953051D01*
X51555996Y-123953051D01*
G37*
G36*
X123664499Y-124353445D02*
X123701993Y-124364819D01*
X123736557Y-124383294D01*
X123766847Y-124408153D01*
X123791706Y-124438443D01*
X123810181Y-124473007D01*
X123821555Y-124510501D01*
X123826000Y-124555638D01*
X123826000Y-125294362D01*
X123821555Y-125339499D01*
X123810181Y-125376993D01*
X123791706Y-125411557D01*
X123766847Y-125441847D01*
X123736557Y-125466706D01*
X123701993Y-125485181D01*
X123664499Y-125496555D01*
X123619362Y-125501000D01*
X122980638Y-125501000D01*
X122935501Y-125496555D01*
X122898007Y-125485181D01*
X122863443Y-125466706D01*
X122833153Y-125441847D01*
X122808294Y-125411557D01*
X122789819Y-125376993D01*
X122778445Y-125339499D01*
X122774000Y-125294362D01*
X122774000Y-124555638D01*
X122778445Y-124510501D01*
X122789819Y-124473007D01*
X122808294Y-124438443D01*
X122833153Y-124408153D01*
X122863443Y-124383294D01*
X122898007Y-124364819D01*
X122935501Y-124353445D01*
X122980638Y-124349000D01*
X123619362Y-124349000D01*
X123664499Y-124353445D01*
X123664499Y-124353445D01*
G37*
G36*
X121964499Y-124353445D02*
X122001993Y-124364819D01*
X122036557Y-124383294D01*
X122066847Y-124408153D01*
X122091706Y-124438443D01*
X122110181Y-124473007D01*
X122121555Y-124510501D01*
X122126000Y-124555638D01*
X122126000Y-125294362D01*
X122121555Y-125339499D01*
X122110181Y-125376993D01*
X122091706Y-125411557D01*
X122066847Y-125441847D01*
X122036557Y-125466706D01*
X122001993Y-125485181D01*
X121964499Y-125496555D01*
X121919362Y-125501000D01*
X121280638Y-125501000D01*
X121235501Y-125496555D01*
X121198007Y-125485181D01*
X121163443Y-125466706D01*
X121133153Y-125441847D01*
X121108294Y-125411557D01*
X121089819Y-125376993D01*
X121078445Y-125339499D01*
X121074000Y-125294362D01*
X121074000Y-124555638D01*
X121078445Y-124510501D01*
X121089819Y-124473007D01*
X121108294Y-124438443D01*
X121133153Y-124408153D01*
X121163443Y-124383294D01*
X121198007Y-124364819D01*
X121235501Y-124353445D01*
X121280638Y-124349000D01*
X121919362Y-124349000D01*
X121964499Y-124353445D01*
X121964499Y-124353445D01*
G37*
G36*
X117546821Y-120761313D02*
X117546824Y-120761314D01*
X117546825Y-120761314D01*
X117707239Y-120809975D01*
X117707241Y-120809976D01*
X117707244Y-120809977D01*
X117855078Y-120888995D01*
X117984659Y-120995341D01*
X118091005Y-121124922D01*
X118170023Y-121272756D01*
X118170024Y-121272759D01*
X118170025Y-121272761D01*
X118218686Y-121433175D01*
X118218686Y-121433178D01*
X118218687Y-121433180D01*
X118231000Y-121558197D01*
X118231000Y-122441804D01*
X118218687Y-122566821D01*
X118170023Y-122727244D01*
X118091005Y-122875078D01*
X117984659Y-123004659D01*
X117855078Y-123111005D01*
X117707243Y-123190023D01*
X117707240Y-123190024D01*
X117707238Y-123190025D01*
X117546824Y-123238686D01*
X117546823Y-123238686D01*
X117546820Y-123238687D01*
X117380000Y-123255117D01*
X117213179Y-123238687D01*
X117213176Y-123238686D01*
X117213175Y-123238686D01*
X117052761Y-123190025D01*
X117052759Y-123190024D01*
X117052756Y-123190023D01*
X116904922Y-123111005D01*
X116775341Y-123004659D01*
X116668995Y-122875078D01*
X116589977Y-122727243D01*
X116541315Y-122566825D01*
X116541314Y-122566824D01*
X116541314Y-122566823D01*
X116541313Y-122566820D01*
X116529000Y-122441803D01*
X116529000Y-121558197D01*
X116541314Y-121433179D01*
X116589978Y-121272756D01*
X116668996Y-121124922D01*
X116775342Y-120995341D01*
X116904923Y-120888995D01*
X117052757Y-120809977D01*
X117052760Y-120809976D01*
X117052762Y-120809975D01*
X117213176Y-120761314D01*
X117213177Y-120761314D01*
X117213180Y-120761313D01*
X117380000Y-120744883D01*
X117546821Y-120761313D01*
X117546821Y-120761313D01*
G37*
G36*
X127706821Y-120761313D02*
X127706824Y-120761314D01*
X127706825Y-120761314D01*
X127867239Y-120809975D01*
X127867241Y-120809976D01*
X127867244Y-120809977D01*
X128015078Y-120888995D01*
X128144659Y-120995341D01*
X128251005Y-121124922D01*
X128330023Y-121272756D01*
X128330024Y-121272759D01*
X128330025Y-121272761D01*
X128378686Y-121433175D01*
X128378686Y-121433178D01*
X128378687Y-121433180D01*
X128391000Y-121558197D01*
X128391000Y-122441804D01*
X128378687Y-122566821D01*
X128330023Y-122727244D01*
X128251005Y-122875078D01*
X128144659Y-123004659D01*
X128015078Y-123111005D01*
X127867243Y-123190023D01*
X127867240Y-123190024D01*
X127867238Y-123190025D01*
X127706824Y-123238686D01*
X127706823Y-123238686D01*
X127706820Y-123238687D01*
X127540000Y-123255117D01*
X127373179Y-123238687D01*
X127373176Y-123238686D01*
X127373175Y-123238686D01*
X127212761Y-123190025D01*
X127212759Y-123190024D01*
X127212756Y-123190023D01*
X127064922Y-123111005D01*
X126935341Y-123004659D01*
X126828995Y-122875078D01*
X126749977Y-122727243D01*
X126701315Y-122566825D01*
X126701314Y-122566824D01*
X126701314Y-122566823D01*
X126701313Y-122566820D01*
X126689000Y-122441803D01*
X126689000Y-121558197D01*
X126701314Y-121433179D01*
X126749978Y-121272756D01*
X126828996Y-121124922D01*
X126935342Y-120995341D01*
X127064923Y-120888995D01*
X127212757Y-120809977D01*
X127212760Y-120809976D01*
X127212762Y-120809975D01*
X127373176Y-120761314D01*
X127373177Y-120761314D01*
X127373180Y-120761313D01*
X127540000Y-120744883D01*
X127706821Y-120761313D01*
X127706821Y-120761313D01*
G37*
G36*
X130246821Y-120761313D02*
X130246824Y-120761314D01*
X130246825Y-120761314D01*
X130407239Y-120809975D01*
X130407241Y-120809976D01*
X130407244Y-120809977D01*
X130555078Y-120888995D01*
X130684659Y-120995341D01*
X130791005Y-121124922D01*
X130870023Y-121272756D01*
X130870024Y-121272759D01*
X130870025Y-121272761D01*
X130918686Y-121433175D01*
X130918686Y-121433178D01*
X130918687Y-121433180D01*
X130931000Y-121558197D01*
X130931000Y-122441804D01*
X130918687Y-122566821D01*
X130870023Y-122727244D01*
X130791005Y-122875078D01*
X130684659Y-123004659D01*
X130555078Y-123111005D01*
X130407243Y-123190023D01*
X130407240Y-123190024D01*
X130407238Y-123190025D01*
X130246824Y-123238686D01*
X130246823Y-123238686D01*
X130246820Y-123238687D01*
X130080000Y-123255117D01*
X129913179Y-123238687D01*
X129913176Y-123238686D01*
X129913175Y-123238686D01*
X129752761Y-123190025D01*
X129752759Y-123190024D01*
X129752756Y-123190023D01*
X129604922Y-123111005D01*
X129475341Y-123004659D01*
X129368995Y-122875078D01*
X129289977Y-122727243D01*
X129241315Y-122566825D01*
X129241314Y-122566824D01*
X129241314Y-122566823D01*
X129241313Y-122566820D01*
X129229000Y-122441803D01*
X129229000Y-121558197D01*
X129241314Y-121433179D01*
X129289978Y-121272756D01*
X129368996Y-121124922D01*
X129475342Y-120995341D01*
X129604923Y-120888995D01*
X129752757Y-120809977D01*
X129752760Y-120809976D01*
X129752762Y-120809975D01*
X129913176Y-120761314D01*
X129913177Y-120761314D01*
X129913180Y-120761313D01*
X130080000Y-120744883D01*
X130246821Y-120761313D01*
X130246821Y-120761313D01*
G37*
G36*
X125166821Y-120761313D02*
X125166824Y-120761314D01*
X125166825Y-120761314D01*
X125327239Y-120809975D01*
X125327241Y-120809976D01*
X125327244Y-120809977D01*
X125475078Y-120888995D01*
X125604659Y-120995341D01*
X125711005Y-121124922D01*
X125790023Y-121272756D01*
X125790024Y-121272759D01*
X125790025Y-121272761D01*
X125838686Y-121433175D01*
X125838686Y-121433178D01*
X125838687Y-121433180D01*
X125851000Y-121558197D01*
X125851000Y-122441804D01*
X125838687Y-122566821D01*
X125790023Y-122727244D01*
X125711005Y-122875078D01*
X125604659Y-123004659D01*
X125475078Y-123111005D01*
X125327243Y-123190023D01*
X125327240Y-123190024D01*
X125327238Y-123190025D01*
X125166824Y-123238686D01*
X125166823Y-123238686D01*
X125166820Y-123238687D01*
X125000000Y-123255117D01*
X124833179Y-123238687D01*
X124833176Y-123238686D01*
X124833175Y-123238686D01*
X124672761Y-123190025D01*
X124672759Y-123190024D01*
X124672756Y-123190023D01*
X124524922Y-123111005D01*
X124395341Y-123004659D01*
X124288995Y-122875078D01*
X124209977Y-122727243D01*
X124161315Y-122566825D01*
X124161314Y-122566824D01*
X124161314Y-122566823D01*
X124161313Y-122566820D01*
X124149000Y-122441803D01*
X124149000Y-121558197D01*
X124161314Y-121433179D01*
X124209978Y-121272756D01*
X124288996Y-121124922D01*
X124395342Y-120995341D01*
X124524923Y-120888995D01*
X124672757Y-120809977D01*
X124672760Y-120809976D01*
X124672762Y-120809975D01*
X124833176Y-120761314D01*
X124833177Y-120761314D01*
X124833180Y-120761313D01*
X125000000Y-120744883D01*
X125166821Y-120761313D01*
X125166821Y-120761313D01*
G37*
G36*
X120086821Y-120761313D02*
X120086824Y-120761314D01*
X120086825Y-120761314D01*
X120247239Y-120809975D01*
X120247241Y-120809976D01*
X120247244Y-120809977D01*
X120395078Y-120888995D01*
X120524659Y-120995341D01*
X120631005Y-121124922D01*
X120710023Y-121272756D01*
X120710024Y-121272759D01*
X120710025Y-121272761D01*
X120758686Y-121433175D01*
X120758686Y-121433178D01*
X120758687Y-121433180D01*
X120771000Y-121558197D01*
X120771000Y-122441804D01*
X120758687Y-122566821D01*
X120710023Y-122727244D01*
X120631005Y-122875078D01*
X120524659Y-123004659D01*
X120395078Y-123111005D01*
X120247243Y-123190023D01*
X120247240Y-123190024D01*
X120247238Y-123190025D01*
X120086824Y-123238686D01*
X120086823Y-123238686D01*
X120086820Y-123238687D01*
X119920000Y-123255117D01*
X119753179Y-123238687D01*
X119753176Y-123238686D01*
X119753175Y-123238686D01*
X119592761Y-123190025D01*
X119592759Y-123190024D01*
X119592756Y-123190023D01*
X119444922Y-123111005D01*
X119315341Y-123004659D01*
X119208995Y-122875078D01*
X119129977Y-122727243D01*
X119081315Y-122566825D01*
X119081314Y-122566824D01*
X119081314Y-122566823D01*
X119081313Y-122566820D01*
X119069000Y-122441803D01*
X119069000Y-121558197D01*
X119081314Y-121433179D01*
X119129978Y-121272756D01*
X119208996Y-121124922D01*
X119315342Y-120995341D01*
X119444923Y-120888995D01*
X119592757Y-120809977D01*
X119592760Y-120809976D01*
X119592762Y-120809975D01*
X119753176Y-120761314D01*
X119753177Y-120761314D01*
X119753180Y-120761313D01*
X119920000Y-120744883D01*
X120086821Y-120761313D01*
X120086821Y-120761313D01*
G37*
G36*
X115006821Y-120761313D02*
X115006824Y-120761314D01*
X115006825Y-120761314D01*
X115167239Y-120809975D01*
X115167241Y-120809976D01*
X115167244Y-120809977D01*
X115315078Y-120888995D01*
X115444659Y-120995341D01*
X115551005Y-121124922D01*
X115630023Y-121272756D01*
X115630024Y-121272759D01*
X115630025Y-121272761D01*
X115678686Y-121433175D01*
X115678686Y-121433178D01*
X115678687Y-121433180D01*
X115691000Y-121558197D01*
X115691000Y-122441804D01*
X115678687Y-122566821D01*
X115630023Y-122727244D01*
X115551005Y-122875078D01*
X115444659Y-123004659D01*
X115315078Y-123111005D01*
X115167243Y-123190023D01*
X115167240Y-123190024D01*
X115167238Y-123190025D01*
X115006824Y-123238686D01*
X115006823Y-123238686D01*
X115006820Y-123238687D01*
X114840000Y-123255117D01*
X114673179Y-123238687D01*
X114673176Y-123238686D01*
X114673175Y-123238686D01*
X114512761Y-123190025D01*
X114512759Y-123190024D01*
X114512756Y-123190023D01*
X114364922Y-123111005D01*
X114235341Y-123004659D01*
X114128995Y-122875078D01*
X114049977Y-122727243D01*
X114001315Y-122566825D01*
X114001314Y-122566824D01*
X114001314Y-122566823D01*
X114001313Y-122566820D01*
X113989000Y-122441803D01*
X113989000Y-121558197D01*
X114001314Y-121433179D01*
X114049978Y-121272756D01*
X114128996Y-121124922D01*
X114235342Y-120995341D01*
X114364923Y-120888995D01*
X114512757Y-120809977D01*
X114512760Y-120809976D01*
X114512762Y-120809975D01*
X114673176Y-120761314D01*
X114673177Y-120761314D01*
X114673180Y-120761313D01*
X114840000Y-120744883D01*
X115006821Y-120761313D01*
X115006821Y-120761313D01*
G37*
G36*
X122626821Y-120761313D02*
X122626824Y-120761314D01*
X122626825Y-120761314D01*
X122787239Y-120809975D01*
X122787241Y-120809976D01*
X122787244Y-120809977D01*
X122935078Y-120888995D01*
X123064659Y-120995341D01*
X123171005Y-121124922D01*
X123250023Y-121272756D01*
X123250024Y-121272759D01*
X123250025Y-121272761D01*
X123298686Y-121433175D01*
X123298686Y-121433178D01*
X123298687Y-121433180D01*
X123311000Y-121558197D01*
X123311000Y-122441804D01*
X123298687Y-122566821D01*
X123250023Y-122727244D01*
X123171005Y-122875078D01*
X123064659Y-123004659D01*
X122935078Y-123111005D01*
X122787243Y-123190023D01*
X122787240Y-123190024D01*
X122787238Y-123190025D01*
X122626824Y-123238686D01*
X122626823Y-123238686D01*
X122626820Y-123238687D01*
X122460000Y-123255117D01*
X122293179Y-123238687D01*
X122293176Y-123238686D01*
X122293175Y-123238686D01*
X122132761Y-123190025D01*
X122132759Y-123190024D01*
X122132756Y-123190023D01*
X121984922Y-123111005D01*
X121855341Y-123004659D01*
X121748995Y-122875078D01*
X121669977Y-122727243D01*
X121621315Y-122566825D01*
X121621314Y-122566824D01*
X121621314Y-122566823D01*
X121621313Y-122566820D01*
X121609000Y-122441803D01*
X121609000Y-121558197D01*
X121621314Y-121433179D01*
X121669978Y-121272756D01*
X121748996Y-121124922D01*
X121855342Y-120995341D01*
X121984923Y-120888995D01*
X122132757Y-120809977D01*
X122132760Y-120809976D01*
X122132762Y-120809975D01*
X122293176Y-120761314D01*
X122293177Y-120761314D01*
X122293180Y-120761313D01*
X122460000Y-120744883D01*
X122626821Y-120761313D01*
X122626821Y-120761313D01*
G37*
G36*
X113151000Y-123251000D02*
X111449000Y-123251000D01*
X111449000Y-120749000D01*
X113151000Y-120749000D01*
X113151000Y-123251000D01*
X113151000Y-123251000D01*
G37*
G36*
X120739499Y-119278445D02*
X120776993Y-119289819D01*
X120811557Y-119308294D01*
X120841847Y-119333153D01*
X120866706Y-119363443D01*
X120885181Y-119398007D01*
X120896555Y-119435501D01*
X120901000Y-119480638D01*
X120901000Y-120119362D01*
X120896555Y-120164499D01*
X120885181Y-120201993D01*
X120866706Y-120236557D01*
X120841847Y-120266847D01*
X120811557Y-120291706D01*
X120776993Y-120310181D01*
X120739499Y-120321555D01*
X120694362Y-120326000D01*
X119955638Y-120326000D01*
X119910501Y-120321555D01*
X119873007Y-120310181D01*
X119838443Y-120291706D01*
X119808153Y-120266847D01*
X119783294Y-120236557D01*
X119764819Y-120201993D01*
X119753445Y-120164499D01*
X119749000Y-120119362D01*
X119749000Y-119480638D01*
X119753445Y-119435501D01*
X119764819Y-119398007D01*
X119783294Y-119363443D01*
X119808153Y-119333153D01*
X119838443Y-119308294D01*
X119873007Y-119289819D01*
X119910501Y-119278445D01*
X119955638Y-119274000D01*
X120694362Y-119274000D01*
X120739499Y-119278445D01*
X120739499Y-119278445D01*
G37*
G36*
X122489499Y-119278445D02*
X122526993Y-119289819D01*
X122561557Y-119308294D01*
X122591847Y-119333153D01*
X122616706Y-119363443D01*
X122635181Y-119398007D01*
X122646555Y-119435501D01*
X122651000Y-119480638D01*
X122651000Y-120119362D01*
X122646555Y-120164499D01*
X122635181Y-120201993D01*
X122616706Y-120236557D01*
X122591847Y-120266847D01*
X122561557Y-120291706D01*
X122526993Y-120310181D01*
X122489499Y-120321555D01*
X122444362Y-120326000D01*
X121705638Y-120326000D01*
X121660501Y-120321555D01*
X121623007Y-120310181D01*
X121588443Y-120291706D01*
X121558153Y-120266847D01*
X121533294Y-120236557D01*
X121514819Y-120201993D01*
X121503445Y-120164499D01*
X121499000Y-120119362D01*
X121499000Y-119480638D01*
X121503445Y-119435501D01*
X121514819Y-119398007D01*
X121533294Y-119363443D01*
X121558153Y-119333153D01*
X121588443Y-119308294D01*
X121623007Y-119289819D01*
X121660501Y-119278445D01*
X121705638Y-119274000D01*
X122444362Y-119274000D01*
X122489499Y-119278445D01*
X122489499Y-119278445D01*
G37*
G36*
X119827617Y-116958420D02*
X119909426Y-116983237D01*
X119950332Y-116995645D01*
X120010782Y-117027957D01*
X120063425Y-117056095D01*
X120063427Y-117056096D01*
X120063426Y-117056096D01*
X120161491Y-117136575D01*
X120162553Y-117137447D01*
X120243905Y-117236574D01*
X120243906Y-117236576D01*
X120304355Y-117349667D01*
X120306915Y-117358108D01*
X120341580Y-117472382D01*
X120351000Y-117568027D01*
X120351000Y-118231973D01*
X120341580Y-118327618D01*
X120327426Y-118374276D01*
X120304355Y-118450333D01*
X120291557Y-118474276D01*
X120243905Y-118563426D01*
X120162553Y-118662553D01*
X120063426Y-118743905D01*
X120063424Y-118743906D01*
X119950333Y-118804355D01*
X119909427Y-118816763D01*
X119827618Y-118841580D01*
X119700000Y-118854149D01*
X119572383Y-118841580D01*
X119490574Y-118816763D01*
X119449668Y-118804355D01*
X119336577Y-118743906D01*
X119336575Y-118743905D01*
X119237448Y-118662553D01*
X119156096Y-118563426D01*
X119114992Y-118486528D01*
X119095645Y-118450333D01*
X119077314Y-118389902D01*
X119069616Y-118364526D01*
X119060240Y-118341892D01*
X119046627Y-118321517D01*
X119029300Y-118304190D01*
X119008925Y-118290576D01*
X118986286Y-118281199D01*
X118962253Y-118276418D01*
X118937748Y-118276418D01*
X118913715Y-118281198D01*
X118891076Y-118290576D01*
X118870701Y-118304189D01*
X118853374Y-118321516D01*
X118839760Y-118341891D01*
X118830384Y-118364526D01*
X118822686Y-118389902D01*
X118804355Y-118450333D01*
X118791557Y-118474276D01*
X118743905Y-118563426D01*
X118662553Y-118662553D01*
X118563426Y-118743905D01*
X118563424Y-118743906D01*
X118450333Y-118804355D01*
X118409427Y-118816763D01*
X118327618Y-118841580D01*
X118200000Y-118854149D01*
X118072383Y-118841580D01*
X117990574Y-118816763D01*
X117949668Y-118804355D01*
X117836577Y-118743906D01*
X117836575Y-118743905D01*
X117737448Y-118662553D01*
X117656096Y-118563426D01*
X117614992Y-118486528D01*
X117595645Y-118450333D01*
X117577314Y-118389902D01*
X117569616Y-118364526D01*
X117560240Y-118341892D01*
X117546627Y-118321517D01*
X117529300Y-118304190D01*
X117508925Y-118290576D01*
X117486286Y-118281199D01*
X117462253Y-118276418D01*
X117437748Y-118276418D01*
X117413715Y-118281198D01*
X117391076Y-118290576D01*
X117370701Y-118304189D01*
X117353374Y-118321516D01*
X117339760Y-118341891D01*
X117330384Y-118364526D01*
X117322686Y-118389902D01*
X117304355Y-118450333D01*
X117291557Y-118474276D01*
X117243905Y-118563426D01*
X117162553Y-118662553D01*
X117063426Y-118743905D01*
X117063424Y-118743906D01*
X116950333Y-118804355D01*
X116909427Y-118816763D01*
X116827618Y-118841580D01*
X116700000Y-118854149D01*
X116572383Y-118841580D01*
X116490574Y-118816763D01*
X116449668Y-118804355D01*
X116336577Y-118743906D01*
X116336575Y-118743905D01*
X116237448Y-118662553D01*
X116156096Y-118563426D01*
X116114992Y-118486528D01*
X116095645Y-118450333D01*
X116077314Y-118389902D01*
X116069616Y-118364526D01*
X116060240Y-118341892D01*
X116046627Y-118321517D01*
X116029300Y-118304190D01*
X116008925Y-118290576D01*
X115986286Y-118281199D01*
X115962253Y-118276418D01*
X115937748Y-118276418D01*
X115913715Y-118281198D01*
X115891076Y-118290576D01*
X115870701Y-118304189D01*
X115853374Y-118321516D01*
X115839760Y-118341891D01*
X115830384Y-118364526D01*
X115822686Y-118389902D01*
X115804355Y-118450333D01*
X115791557Y-118474276D01*
X115743905Y-118563426D01*
X115662553Y-118662553D01*
X115563426Y-118743905D01*
X115563424Y-118743906D01*
X115450333Y-118804355D01*
X115409427Y-118816763D01*
X115327618Y-118841580D01*
X115200000Y-118854149D01*
X115072383Y-118841580D01*
X114990574Y-118816763D01*
X114949668Y-118804355D01*
X114836577Y-118743906D01*
X114836575Y-118743905D01*
X114737448Y-118662553D01*
X114656096Y-118563426D01*
X114614992Y-118486528D01*
X114595645Y-118450333D01*
X114577314Y-118389902D01*
X114569616Y-118364526D01*
X114560240Y-118341892D01*
X114546627Y-118321517D01*
X114529300Y-118304190D01*
X114508925Y-118290576D01*
X114486286Y-118281199D01*
X114462253Y-118276418D01*
X114437748Y-118276418D01*
X114413715Y-118281198D01*
X114391076Y-118290576D01*
X114370701Y-118304189D01*
X114353374Y-118321516D01*
X114339760Y-118341891D01*
X114330384Y-118364526D01*
X114322686Y-118389902D01*
X114304355Y-118450333D01*
X114291557Y-118474276D01*
X114243905Y-118563426D01*
X114162553Y-118662553D01*
X114063426Y-118743905D01*
X114063424Y-118743906D01*
X113950333Y-118804355D01*
X113909427Y-118816763D01*
X113827618Y-118841580D01*
X113700000Y-118854149D01*
X113572383Y-118841580D01*
X113490574Y-118816763D01*
X113449668Y-118804355D01*
X113336577Y-118743906D01*
X113336575Y-118743905D01*
X113237448Y-118662553D01*
X113156096Y-118563426D01*
X113114992Y-118486528D01*
X113095645Y-118450333D01*
X113095618Y-118450243D01*
X113086240Y-118427604D01*
X113072626Y-118407229D01*
X113055299Y-118389902D01*
X113034925Y-118376288D01*
X113012286Y-118366911D01*
X112988252Y-118362130D01*
X112963748Y-118362130D01*
X112939715Y-118366910D01*
X112917076Y-118376288D01*
X112896701Y-118389902D01*
X112879374Y-118407229D01*
X112865760Y-118427603D01*
X112856383Y-118450242D01*
X112851602Y-118474276D01*
X112851000Y-118486528D01*
X112851000Y-118851000D01*
X111549000Y-118851000D01*
X111549000Y-116949000D01*
X112851000Y-116949000D01*
X112851000Y-117313473D01*
X112853402Y-117337859D01*
X112860515Y-117361308D01*
X112872066Y-117382919D01*
X112887612Y-117401861D01*
X112906554Y-117417407D01*
X112928165Y-117428958D01*
X112951614Y-117436071D01*
X112976000Y-117438473D01*
X113000386Y-117436071D01*
X113023835Y-117428958D01*
X113045446Y-117417407D01*
X113064388Y-117401861D01*
X113079934Y-117382919D01*
X113091485Y-117361308D01*
X113095618Y-117349758D01*
X113095645Y-117349668D01*
X113149097Y-117249668D01*
X113156095Y-117236575D01*
X113237447Y-117137447D01*
X113336574Y-117056095D01*
X113371462Y-117037447D01*
X113449667Y-116995645D01*
X113490573Y-116983237D01*
X113572382Y-116958420D01*
X113700000Y-116945851D01*
X113827617Y-116958420D01*
X113909426Y-116983237D01*
X113950332Y-116995645D01*
X114010782Y-117027957D01*
X114063425Y-117056095D01*
X114063427Y-117056096D01*
X114063426Y-117056096D01*
X114161491Y-117136575D01*
X114162553Y-117137447D01*
X114243905Y-117236574D01*
X114243906Y-117236576D01*
X114304355Y-117349667D01*
X114306915Y-117358108D01*
X114330384Y-117435474D01*
X114339760Y-117458108D01*
X114353373Y-117478483D01*
X114370700Y-117495810D01*
X114391075Y-117509424D01*
X114413714Y-117518801D01*
X114437747Y-117523582D01*
X114462252Y-117523582D01*
X114486285Y-117518802D01*
X114508924Y-117509424D01*
X114529299Y-117495811D01*
X114546626Y-117478484D01*
X114560240Y-117458109D01*
X114569618Y-117435469D01*
X114577519Y-117409424D01*
X114592114Y-117361308D01*
X114595645Y-117349668D01*
X114649097Y-117249668D01*
X114656095Y-117236575D01*
X114737447Y-117137447D01*
X114836574Y-117056095D01*
X114871462Y-117037447D01*
X114949667Y-116995645D01*
X114990573Y-116983237D01*
X115072382Y-116958420D01*
X115200000Y-116945851D01*
X115327617Y-116958420D01*
X115409426Y-116983237D01*
X115450332Y-116995645D01*
X115510782Y-117027957D01*
X115563425Y-117056095D01*
X115563427Y-117056096D01*
X115563426Y-117056096D01*
X115661491Y-117136575D01*
X115662553Y-117137447D01*
X115743905Y-117236574D01*
X115743906Y-117236576D01*
X115804355Y-117349667D01*
X115806915Y-117358108D01*
X115830384Y-117435474D01*
X115839760Y-117458108D01*
X115853373Y-117478483D01*
X115870700Y-117495810D01*
X115891075Y-117509424D01*
X115913714Y-117518801D01*
X115937747Y-117523582D01*
X115962252Y-117523582D01*
X115986285Y-117518802D01*
X116008924Y-117509424D01*
X116029299Y-117495811D01*
X116046626Y-117478484D01*
X116060240Y-117458109D01*
X116069618Y-117435469D01*
X116077519Y-117409424D01*
X116092114Y-117361308D01*
X116095645Y-117349668D01*
X116149097Y-117249668D01*
X116156095Y-117236575D01*
X116237447Y-117137447D01*
X116336574Y-117056095D01*
X116371462Y-117037447D01*
X116449667Y-116995645D01*
X116490573Y-116983237D01*
X116572382Y-116958420D01*
X116700000Y-116945851D01*
X116827617Y-116958420D01*
X116909426Y-116983237D01*
X116950332Y-116995645D01*
X117010782Y-117027957D01*
X117063425Y-117056095D01*
X117063427Y-117056096D01*
X117063426Y-117056096D01*
X117161491Y-117136575D01*
X117162553Y-117137447D01*
X117243905Y-117236574D01*
X117243906Y-117236576D01*
X117304355Y-117349667D01*
X117306915Y-117358108D01*
X117330384Y-117435474D01*
X117339760Y-117458108D01*
X117353373Y-117478483D01*
X117370700Y-117495810D01*
X117391075Y-117509424D01*
X117413714Y-117518801D01*
X117437747Y-117523582D01*
X117462252Y-117523582D01*
X117486285Y-117518802D01*
X117508924Y-117509424D01*
X117529299Y-117495811D01*
X117546626Y-117478484D01*
X117560240Y-117458109D01*
X117569618Y-117435469D01*
X117577519Y-117409424D01*
X117592114Y-117361308D01*
X117595645Y-117349668D01*
X117649097Y-117249668D01*
X117656095Y-117236575D01*
X117737447Y-117137447D01*
X117836574Y-117056095D01*
X117871462Y-117037447D01*
X117949667Y-116995645D01*
X117990573Y-116983237D01*
X118072382Y-116958420D01*
X118200000Y-116945851D01*
X118327617Y-116958420D01*
X118409426Y-116983237D01*
X118450332Y-116995645D01*
X118510782Y-117027957D01*
X118563425Y-117056095D01*
X118563427Y-117056096D01*
X118563426Y-117056096D01*
X118661491Y-117136575D01*
X118662553Y-117137447D01*
X118743905Y-117236574D01*
X118743906Y-117236576D01*
X118804355Y-117349667D01*
X118806915Y-117358108D01*
X118830384Y-117435474D01*
X118839760Y-117458108D01*
X118853373Y-117478483D01*
X118870700Y-117495810D01*
X118891075Y-117509424D01*
X118913714Y-117518801D01*
X118937747Y-117523582D01*
X118962252Y-117523582D01*
X118986285Y-117518802D01*
X119008924Y-117509424D01*
X119029299Y-117495811D01*
X119046626Y-117478484D01*
X119060240Y-117458109D01*
X119069618Y-117435469D01*
X119077519Y-117409424D01*
X119092114Y-117361308D01*
X119095645Y-117349668D01*
X119149097Y-117249668D01*
X119156095Y-117236575D01*
X119237447Y-117137447D01*
X119336574Y-117056095D01*
X119371462Y-117037447D01*
X119449667Y-116995645D01*
X119490573Y-116983237D01*
X119572382Y-116958420D01*
X119700000Y-116945851D01*
X119827617Y-116958420D01*
X119827617Y-116958420D01*
G37*
G36*
X130727617Y-116858420D02*
X130809426Y-116883237D01*
X130850332Y-116895645D01*
X130910782Y-116927957D01*
X130963425Y-116956095D01*
X131062553Y-117037447D01*
X131143905Y-117136574D01*
X131144372Y-117137447D01*
X131204355Y-117249667D01*
X131207886Y-117261308D01*
X131241580Y-117372382D01*
X131251000Y-117468027D01*
X131251000Y-118131973D01*
X131241580Y-118227618D01*
X131225326Y-118281199D01*
X131204355Y-118350333D01*
X131173943Y-118407229D01*
X131143905Y-118463426D01*
X131062553Y-118562553D01*
X130963426Y-118643905D01*
X130963424Y-118643906D01*
X130850333Y-118704355D01*
X130809427Y-118716763D01*
X130727618Y-118741580D01*
X130600000Y-118754149D01*
X130472383Y-118741580D01*
X130390574Y-118716763D01*
X130349668Y-118704355D01*
X130236577Y-118643906D01*
X130236575Y-118643905D01*
X130137448Y-118562553D01*
X130056096Y-118463426D01*
X130036948Y-118427603D01*
X129995645Y-118350333D01*
X129974674Y-118281199D01*
X129969616Y-118264526D01*
X129960240Y-118241892D01*
X129946627Y-118221517D01*
X129929300Y-118204190D01*
X129908925Y-118190576D01*
X129886286Y-118181199D01*
X129862253Y-118176418D01*
X129837748Y-118176418D01*
X129813715Y-118181198D01*
X129791076Y-118190576D01*
X129770701Y-118204189D01*
X129753374Y-118221516D01*
X129739760Y-118241891D01*
X129730384Y-118264526D01*
X129725326Y-118281199D01*
X129704355Y-118350333D01*
X129673943Y-118407229D01*
X129643905Y-118463426D01*
X129562553Y-118562553D01*
X129463426Y-118643905D01*
X129463424Y-118643906D01*
X129350333Y-118704355D01*
X129309427Y-118716763D01*
X129227618Y-118741580D01*
X129100000Y-118754149D01*
X128972383Y-118741580D01*
X128890574Y-118716763D01*
X128849668Y-118704355D01*
X128736577Y-118643906D01*
X128736575Y-118643905D01*
X128637448Y-118562553D01*
X128556096Y-118463426D01*
X128536948Y-118427603D01*
X128495645Y-118350333D01*
X128474674Y-118281199D01*
X128469616Y-118264526D01*
X128460240Y-118241892D01*
X128446627Y-118221517D01*
X128429300Y-118204190D01*
X128408925Y-118190576D01*
X128386286Y-118181199D01*
X128362253Y-118176418D01*
X128337748Y-118176418D01*
X128313715Y-118181198D01*
X128291076Y-118190576D01*
X128270701Y-118204189D01*
X128253374Y-118221516D01*
X128239760Y-118241891D01*
X128230384Y-118264526D01*
X128225326Y-118281199D01*
X128204355Y-118350333D01*
X128173943Y-118407229D01*
X128143905Y-118463426D01*
X128062553Y-118562553D01*
X127963426Y-118643905D01*
X127963424Y-118643906D01*
X127850333Y-118704355D01*
X127809427Y-118716763D01*
X127727618Y-118741580D01*
X127600000Y-118754149D01*
X127472383Y-118741580D01*
X127390574Y-118716763D01*
X127349668Y-118704355D01*
X127236577Y-118643906D01*
X127236575Y-118643905D01*
X127137448Y-118562553D01*
X127056096Y-118463426D01*
X127036948Y-118427603D01*
X126995645Y-118350333D01*
X126974674Y-118281199D01*
X126969616Y-118264526D01*
X126960240Y-118241892D01*
X126946627Y-118221517D01*
X126929300Y-118204190D01*
X126908925Y-118190576D01*
X126886286Y-118181199D01*
X126862253Y-118176418D01*
X126837748Y-118176418D01*
X126813715Y-118181198D01*
X126791076Y-118190576D01*
X126770701Y-118204189D01*
X126753374Y-118221516D01*
X126739760Y-118241891D01*
X126730384Y-118264526D01*
X126725326Y-118281199D01*
X126704355Y-118350333D01*
X126673943Y-118407229D01*
X126643905Y-118463426D01*
X126562553Y-118562553D01*
X126463426Y-118643905D01*
X126463424Y-118643906D01*
X126350333Y-118704355D01*
X126309427Y-118716763D01*
X126227618Y-118741580D01*
X126100000Y-118754149D01*
X125972383Y-118741580D01*
X125890574Y-118716763D01*
X125849668Y-118704355D01*
X125736577Y-118643906D01*
X125736575Y-118643905D01*
X125637448Y-118562553D01*
X125556096Y-118463426D01*
X125536948Y-118427603D01*
X125495645Y-118350333D01*
X125474674Y-118281199D01*
X125469616Y-118264526D01*
X125460240Y-118241892D01*
X125446627Y-118221517D01*
X125429300Y-118204190D01*
X125408925Y-118190576D01*
X125386286Y-118181199D01*
X125362253Y-118176418D01*
X125337748Y-118176418D01*
X125313715Y-118181198D01*
X125291076Y-118190576D01*
X125270701Y-118204189D01*
X125253374Y-118221516D01*
X125239760Y-118241891D01*
X125230384Y-118264526D01*
X125225326Y-118281199D01*
X125204355Y-118350333D01*
X125173943Y-118407229D01*
X125143905Y-118463426D01*
X125062553Y-118562553D01*
X124963426Y-118643905D01*
X124963424Y-118643906D01*
X124850333Y-118704355D01*
X124809427Y-118716763D01*
X124727618Y-118741580D01*
X124600000Y-118754149D01*
X124472383Y-118741580D01*
X124390574Y-118716763D01*
X124349668Y-118704355D01*
X124236577Y-118643906D01*
X124236575Y-118643905D01*
X124137448Y-118562553D01*
X124056096Y-118463426D01*
X124036948Y-118427603D01*
X123995645Y-118350333D01*
X123995618Y-118350243D01*
X123986240Y-118327604D01*
X123972626Y-118307229D01*
X123955299Y-118289902D01*
X123934925Y-118276288D01*
X123912286Y-118266911D01*
X123888252Y-118262130D01*
X123863748Y-118262130D01*
X123839715Y-118266910D01*
X123817076Y-118276288D01*
X123796701Y-118289902D01*
X123779374Y-118307229D01*
X123765760Y-118327603D01*
X123756383Y-118350242D01*
X123751602Y-118374276D01*
X123751000Y-118386528D01*
X123751000Y-118751000D01*
X122449000Y-118751000D01*
X122449000Y-116849000D01*
X123751000Y-116849000D01*
X123751000Y-117213473D01*
X123753402Y-117237859D01*
X123760515Y-117261308D01*
X123772066Y-117282919D01*
X123787612Y-117301861D01*
X123806554Y-117317407D01*
X123828165Y-117328958D01*
X123851614Y-117336071D01*
X123876000Y-117338473D01*
X123900386Y-117336071D01*
X123923835Y-117328958D01*
X123945446Y-117317407D01*
X123964388Y-117301861D01*
X123979934Y-117282919D01*
X123991485Y-117261308D01*
X123995618Y-117249758D01*
X123995645Y-117249668D01*
X124055630Y-117137445D01*
X124056095Y-117136575D01*
X124137447Y-117037447D01*
X124236574Y-116956095D01*
X124255739Y-116945851D01*
X124349667Y-116895645D01*
X124390573Y-116883237D01*
X124472382Y-116858420D01*
X124600000Y-116845851D01*
X124727617Y-116858420D01*
X124809426Y-116883237D01*
X124850332Y-116895645D01*
X124910782Y-116927957D01*
X124963425Y-116956095D01*
X125062553Y-117037447D01*
X125143905Y-117136574D01*
X125144372Y-117137447D01*
X125204355Y-117249667D01*
X125207886Y-117261308D01*
X125230384Y-117335474D01*
X125239760Y-117358108D01*
X125253373Y-117378483D01*
X125270700Y-117395810D01*
X125291075Y-117409424D01*
X125313714Y-117418801D01*
X125337747Y-117423582D01*
X125362252Y-117423582D01*
X125386285Y-117418802D01*
X125408924Y-117409424D01*
X125429299Y-117395811D01*
X125446626Y-117378484D01*
X125460240Y-117358109D01*
X125469618Y-117335469D01*
X125495645Y-117249668D01*
X125555630Y-117137445D01*
X125556095Y-117136575D01*
X125637447Y-117037447D01*
X125736574Y-116956095D01*
X125755739Y-116945851D01*
X125849667Y-116895645D01*
X125890573Y-116883237D01*
X125972382Y-116858420D01*
X126100000Y-116845851D01*
X126227617Y-116858420D01*
X126309426Y-116883237D01*
X126350332Y-116895645D01*
X126410782Y-116927957D01*
X126463425Y-116956095D01*
X126562553Y-117037447D01*
X126643905Y-117136574D01*
X126644372Y-117137447D01*
X126704355Y-117249667D01*
X126707886Y-117261308D01*
X126730384Y-117335474D01*
X126739760Y-117358108D01*
X126753373Y-117378483D01*
X126770700Y-117395810D01*
X126791075Y-117409424D01*
X126813714Y-117418801D01*
X126837747Y-117423582D01*
X126862252Y-117423582D01*
X126886285Y-117418802D01*
X126908924Y-117409424D01*
X126929299Y-117395811D01*
X126946626Y-117378484D01*
X126960240Y-117358109D01*
X126969618Y-117335469D01*
X126995645Y-117249668D01*
X127055630Y-117137445D01*
X127056095Y-117136575D01*
X127137447Y-117037447D01*
X127236574Y-116956095D01*
X127255739Y-116945851D01*
X127349667Y-116895645D01*
X127390573Y-116883237D01*
X127472382Y-116858420D01*
X127600000Y-116845851D01*
X127727617Y-116858420D01*
X127809426Y-116883237D01*
X127850332Y-116895645D01*
X127910782Y-116927957D01*
X127963425Y-116956095D01*
X128062553Y-117037447D01*
X128143905Y-117136574D01*
X128144372Y-117137447D01*
X128204355Y-117249667D01*
X128207886Y-117261308D01*
X128230384Y-117335474D01*
X128239760Y-117358108D01*
X128253373Y-117378483D01*
X128270700Y-117395810D01*
X128291075Y-117409424D01*
X128313714Y-117418801D01*
X128337747Y-117423582D01*
X128362252Y-117423582D01*
X128386285Y-117418802D01*
X128408924Y-117409424D01*
X128429299Y-117395811D01*
X128446626Y-117378484D01*
X128460240Y-117358109D01*
X128469618Y-117335469D01*
X128495645Y-117249668D01*
X128555630Y-117137445D01*
X128556095Y-117136575D01*
X128637447Y-117037447D01*
X128736574Y-116956095D01*
X128755739Y-116945851D01*
X128849667Y-116895645D01*
X128890573Y-116883237D01*
X128972382Y-116858420D01*
X129100000Y-116845851D01*
X129227617Y-116858420D01*
X129309426Y-116883237D01*
X129350332Y-116895645D01*
X129410782Y-116927957D01*
X129463425Y-116956095D01*
X129562553Y-117037447D01*
X129643905Y-117136574D01*
X129644372Y-117137447D01*
X129704355Y-117249667D01*
X129707886Y-117261308D01*
X129730384Y-117335474D01*
X129739760Y-117358108D01*
X129753373Y-117378483D01*
X129770700Y-117395810D01*
X129791075Y-117409424D01*
X129813714Y-117418801D01*
X129837747Y-117423582D01*
X129862252Y-117423582D01*
X129886285Y-117418802D01*
X129908924Y-117409424D01*
X129929299Y-117395811D01*
X129946626Y-117378484D01*
X129960240Y-117358109D01*
X129969618Y-117335469D01*
X129995645Y-117249668D01*
X130055630Y-117137445D01*
X130056095Y-117136575D01*
X130137447Y-117037447D01*
X130236574Y-116956095D01*
X130255739Y-116945851D01*
X130349667Y-116895645D01*
X130390573Y-116883237D01*
X130472382Y-116858420D01*
X130600000Y-116845851D01*
X130727617Y-116858420D01*
X130727617Y-116858420D01*
G37*
G36*
X147894721Y-106620174D02*
X147994995Y-106661709D01*
X148085245Y-106722012D01*
X148161988Y-106798755D01*
X148222291Y-106889005D01*
X148263826Y-106989279D01*
X148285000Y-107095730D01*
X148285000Y-107204270D01*
X148263826Y-107310721D01*
X148222291Y-107410995D01*
X148161988Y-107501245D01*
X148085245Y-107577988D01*
X147994995Y-107638291D01*
X147894721Y-107679826D01*
X147788270Y-107701000D01*
X147679730Y-107701000D01*
X147573279Y-107679826D01*
X147473005Y-107638291D01*
X147382755Y-107577988D01*
X147306012Y-107501245D01*
X147245709Y-107410995D01*
X147204174Y-107310721D01*
X147183000Y-107204270D01*
X147183000Y-107095730D01*
X147204174Y-106989279D01*
X147245709Y-106889005D01*
X147306012Y-106798755D01*
X147382755Y-106722012D01*
X147473005Y-106661709D01*
X147573279Y-106620174D01*
X147679730Y-106599000D01*
X147788270Y-106599000D01*
X147894721Y-106620174D01*
X147894721Y-106620174D01*
G37*
G36*
X62410721Y-106620174D02*
X62510995Y-106661709D01*
X62601245Y-106722012D01*
X62677988Y-106798755D01*
X62738291Y-106889005D01*
X62779826Y-106989279D01*
X62801000Y-107095730D01*
X62801000Y-107204270D01*
X62779826Y-107310721D01*
X62738291Y-107410995D01*
X62677988Y-107501245D01*
X62601245Y-107577988D01*
X62510995Y-107638291D01*
X62410721Y-107679826D01*
X62304270Y-107701000D01*
X62195730Y-107701000D01*
X62089279Y-107679826D01*
X61989005Y-107638291D01*
X61898755Y-107577988D01*
X61822012Y-107501245D01*
X61761709Y-107410995D01*
X61720174Y-107310721D01*
X61699000Y-107204270D01*
X61699000Y-107095730D01*
X61720174Y-106989279D01*
X61761709Y-106889005D01*
X61822012Y-106798755D01*
X61898755Y-106722012D01*
X61989005Y-106661709D01*
X62089279Y-106620174D01*
X62195730Y-106599000D01*
X62304270Y-106599000D01*
X62410721Y-106620174D01*
X62410721Y-106620174D01*
G37*
G36*
X60394721Y-106620174D02*
X60494995Y-106661709D01*
X60585245Y-106722012D01*
X60661988Y-106798755D01*
X60722291Y-106889005D01*
X60763826Y-106989279D01*
X60785000Y-107095730D01*
X60785000Y-107204270D01*
X60763826Y-107310721D01*
X60722291Y-107410995D01*
X60661988Y-107501245D01*
X60585245Y-107577988D01*
X60494995Y-107638291D01*
X60394721Y-107679826D01*
X60288270Y-107701000D01*
X60179730Y-107701000D01*
X60073279Y-107679826D01*
X59973005Y-107638291D01*
X59882755Y-107577988D01*
X59806012Y-107501245D01*
X59745709Y-107410995D01*
X59704174Y-107310721D01*
X59683000Y-107204270D01*
X59683000Y-107095730D01*
X59704174Y-106989279D01*
X59745709Y-106889005D01*
X59806012Y-106798755D01*
X59882755Y-106722012D01*
X59973005Y-106661709D01*
X60073279Y-106620174D01*
X60179730Y-106599000D01*
X60288270Y-106599000D01*
X60394721Y-106620174D01*
X60394721Y-106620174D01*
G37*
G36*
X92760721Y-106620174D02*
X92860995Y-106661709D01*
X92951245Y-106722012D01*
X93027988Y-106798755D01*
X93088291Y-106889005D01*
X93129826Y-106989279D01*
X93151000Y-107095730D01*
X93151000Y-107204270D01*
X93129826Y-107310721D01*
X93088291Y-107410995D01*
X93027988Y-107501245D01*
X92951245Y-107577988D01*
X92860995Y-107638291D01*
X92760721Y-107679826D01*
X92654270Y-107701000D01*
X92545730Y-107701000D01*
X92439279Y-107679826D01*
X92339005Y-107638291D01*
X92248755Y-107577988D01*
X92172012Y-107501245D01*
X92111709Y-107410995D01*
X92070174Y-107310721D01*
X92049000Y-107204270D01*
X92049000Y-107095730D01*
X92070174Y-106989279D01*
X92111709Y-106889005D01*
X92172012Y-106798755D01*
X92248755Y-106722012D01*
X92339005Y-106661709D01*
X92439279Y-106620174D01*
X92545730Y-106599000D01*
X92654270Y-106599000D01*
X92760721Y-106620174D01*
X92760721Y-106620174D01*
G37*
G36*
X90744721Y-106620174D02*
X90844995Y-106661709D01*
X90935245Y-106722012D01*
X91011988Y-106798755D01*
X91072291Y-106889005D01*
X91113826Y-106989279D01*
X91135000Y-107095730D01*
X91135000Y-107204270D01*
X91113826Y-107310721D01*
X91072291Y-107410995D01*
X91011988Y-107501245D01*
X90935245Y-107577988D01*
X90844995Y-107638291D01*
X90744721Y-107679826D01*
X90638270Y-107701000D01*
X90529730Y-107701000D01*
X90423279Y-107679826D01*
X90323005Y-107638291D01*
X90232755Y-107577988D01*
X90156012Y-107501245D01*
X90095709Y-107410995D01*
X90054174Y-107310721D01*
X90033000Y-107204270D01*
X90033000Y-107095730D01*
X90054174Y-106989279D01*
X90095709Y-106889005D01*
X90156012Y-106798755D01*
X90232755Y-106722012D01*
X90323005Y-106661709D01*
X90423279Y-106620174D01*
X90529730Y-106599000D01*
X90638270Y-106599000D01*
X90744721Y-106620174D01*
X90744721Y-106620174D01*
G37*
G36*
X149910721Y-106620174D02*
X150010995Y-106661709D01*
X150101245Y-106722012D01*
X150177988Y-106798755D01*
X150238291Y-106889005D01*
X150279826Y-106989279D01*
X150301000Y-107095730D01*
X150301000Y-107204270D01*
X150279826Y-107310721D01*
X150238291Y-107410995D01*
X150177988Y-107501245D01*
X150101245Y-107577988D01*
X150010995Y-107638291D01*
X149910721Y-107679826D01*
X149804270Y-107701000D01*
X149695730Y-107701000D01*
X149589279Y-107679826D01*
X149489005Y-107638291D01*
X149398755Y-107577988D01*
X149322012Y-107501245D01*
X149261709Y-107410995D01*
X149220174Y-107310721D01*
X149199000Y-107204270D01*
X149199000Y-107095730D01*
X149220174Y-106989279D01*
X149261709Y-106889005D01*
X149322012Y-106798755D01*
X149398755Y-106722012D01*
X149489005Y-106661709D01*
X149589279Y-106620174D01*
X149695730Y-106599000D01*
X149804270Y-106599000D01*
X149910721Y-106620174D01*
X149910721Y-106620174D01*
G37*
G36*
X166944721Y-106620174D02*
X167044995Y-106661709D01*
X167135245Y-106722012D01*
X167211988Y-106798755D01*
X167272291Y-106889005D01*
X167313826Y-106989279D01*
X167335000Y-107095730D01*
X167335000Y-107204270D01*
X167313826Y-107310721D01*
X167272291Y-107410995D01*
X167211988Y-107501245D01*
X167135245Y-107577988D01*
X167044995Y-107638291D01*
X166944721Y-107679826D01*
X166838270Y-107701000D01*
X166729730Y-107701000D01*
X166623279Y-107679826D01*
X166523005Y-107638291D01*
X166432755Y-107577988D01*
X166356012Y-107501245D01*
X166295709Y-107410995D01*
X166254174Y-107310721D01*
X166233000Y-107204270D01*
X166233000Y-107095730D01*
X166254174Y-106989279D01*
X166295709Y-106889005D01*
X166356012Y-106798755D01*
X166432755Y-106722012D01*
X166523005Y-106661709D01*
X166623279Y-106620174D01*
X166729730Y-106599000D01*
X166838270Y-106599000D01*
X166944721Y-106620174D01*
X166944721Y-106620174D01*
G37*
G36*
X130860721Y-106620174D02*
X130960995Y-106661709D01*
X131051245Y-106722012D01*
X131127988Y-106798755D01*
X131188291Y-106889005D01*
X131229826Y-106989279D01*
X131251000Y-107095730D01*
X131251000Y-107204270D01*
X131229826Y-107310721D01*
X131188291Y-107410995D01*
X131127988Y-107501245D01*
X131051245Y-107577988D01*
X130960995Y-107638291D01*
X130860721Y-107679826D01*
X130754270Y-107701000D01*
X130645730Y-107701000D01*
X130539279Y-107679826D01*
X130439005Y-107638291D01*
X130348755Y-107577988D01*
X130272012Y-107501245D01*
X130211709Y-107410995D01*
X130170174Y-107310721D01*
X130149000Y-107204270D01*
X130149000Y-107095730D01*
X130170174Y-106989279D01*
X130211709Y-106889005D01*
X130272012Y-106798755D01*
X130348755Y-106722012D01*
X130439005Y-106661709D01*
X130539279Y-106620174D01*
X130645730Y-106599000D01*
X130754270Y-106599000D01*
X130860721Y-106620174D01*
X130860721Y-106620174D01*
G37*
G36*
X168960721Y-106620174D02*
X169060995Y-106661709D01*
X169151245Y-106722012D01*
X169227988Y-106798755D01*
X169288291Y-106889005D01*
X169329826Y-106989279D01*
X169351000Y-107095730D01*
X169351000Y-107204270D01*
X169329826Y-107310721D01*
X169288291Y-107410995D01*
X169227988Y-107501245D01*
X169151245Y-107577988D01*
X169060995Y-107638291D01*
X168960721Y-107679826D01*
X168854270Y-107701000D01*
X168745730Y-107701000D01*
X168639279Y-107679826D01*
X168539005Y-107638291D01*
X168448755Y-107577988D01*
X168372012Y-107501245D01*
X168311709Y-107410995D01*
X168270174Y-107310721D01*
X168249000Y-107204270D01*
X168249000Y-107095730D01*
X168270174Y-106989279D01*
X168311709Y-106889005D01*
X168372012Y-106798755D01*
X168448755Y-106722012D01*
X168539005Y-106661709D01*
X168639279Y-106620174D01*
X168745730Y-106599000D01*
X168854270Y-106599000D01*
X168960721Y-106620174D01*
X168960721Y-106620174D01*
G37*
G36*
X111810721Y-106620174D02*
X111910995Y-106661709D01*
X112001245Y-106722012D01*
X112077988Y-106798755D01*
X112138291Y-106889005D01*
X112179826Y-106989279D01*
X112201000Y-107095730D01*
X112201000Y-107204270D01*
X112179826Y-107310721D01*
X112138291Y-107410995D01*
X112077988Y-107501245D01*
X112001245Y-107577988D01*
X111910995Y-107638291D01*
X111810721Y-107679826D01*
X111704270Y-107701000D01*
X111595730Y-107701000D01*
X111489279Y-107679826D01*
X111389005Y-107638291D01*
X111298755Y-107577988D01*
X111222012Y-107501245D01*
X111161709Y-107410995D01*
X111120174Y-107310721D01*
X111099000Y-107204270D01*
X111099000Y-107095730D01*
X111120174Y-106989279D01*
X111161709Y-106889005D01*
X111222012Y-106798755D01*
X111298755Y-106722012D01*
X111389005Y-106661709D01*
X111489279Y-106620174D01*
X111595730Y-106599000D01*
X111704270Y-106599000D01*
X111810721Y-106620174D01*
X111810721Y-106620174D01*
G37*
G36*
X109794721Y-106620174D02*
X109894995Y-106661709D01*
X109985245Y-106722012D01*
X110061988Y-106798755D01*
X110122291Y-106889005D01*
X110163826Y-106989279D01*
X110185000Y-107095730D01*
X110185000Y-107204270D01*
X110163826Y-107310721D01*
X110122291Y-107410995D01*
X110061988Y-107501245D01*
X109985245Y-107577988D01*
X109894995Y-107638291D01*
X109794721Y-107679826D01*
X109688270Y-107701000D01*
X109579730Y-107701000D01*
X109473279Y-107679826D01*
X109373005Y-107638291D01*
X109282755Y-107577988D01*
X109206012Y-107501245D01*
X109145709Y-107410995D01*
X109104174Y-107310721D01*
X109083000Y-107204270D01*
X109083000Y-107095730D01*
X109104174Y-106989279D01*
X109145709Y-106889005D01*
X109206012Y-106798755D01*
X109282755Y-106722012D01*
X109373005Y-106661709D01*
X109473279Y-106620174D01*
X109579730Y-106599000D01*
X109688270Y-106599000D01*
X109794721Y-106620174D01*
X109794721Y-106620174D01*
G37*
G36*
X128844721Y-106620174D02*
X128944995Y-106661709D01*
X129035245Y-106722012D01*
X129111988Y-106798755D01*
X129172291Y-106889005D01*
X129213826Y-106989279D01*
X129235000Y-107095730D01*
X129235000Y-107204270D01*
X129213826Y-107310721D01*
X129172291Y-107410995D01*
X129111988Y-107501245D01*
X129035245Y-107577988D01*
X128944995Y-107638291D01*
X128844721Y-107679826D01*
X128738270Y-107701000D01*
X128629730Y-107701000D01*
X128523279Y-107679826D01*
X128423005Y-107638291D01*
X128332755Y-107577988D01*
X128256012Y-107501245D01*
X128195709Y-107410995D01*
X128154174Y-107310721D01*
X128133000Y-107204270D01*
X128133000Y-107095730D01*
X128154174Y-106989279D01*
X128195709Y-106889005D01*
X128256012Y-106798755D01*
X128332755Y-106722012D01*
X128423005Y-106661709D01*
X128523279Y-106620174D01*
X128629730Y-106599000D01*
X128738270Y-106599000D01*
X128844721Y-106620174D01*
X128844721Y-106620174D01*
G37*
G36*
X159910721Y-87570174D02*
X160010995Y-87611709D01*
X160101245Y-87672012D01*
X160177988Y-87748755D01*
X160238291Y-87839005D01*
X160279826Y-87939279D01*
X160301000Y-88045730D01*
X160301000Y-88154270D01*
X160279826Y-88260721D01*
X160238291Y-88360995D01*
X160177988Y-88451245D01*
X160101245Y-88527988D01*
X160010995Y-88588291D01*
X159910721Y-88629826D01*
X159804270Y-88651000D01*
X159695730Y-88651000D01*
X159589279Y-88629826D01*
X159489005Y-88588291D01*
X159398755Y-88527988D01*
X159322012Y-88451245D01*
X159261709Y-88360995D01*
X159220174Y-88260721D01*
X159199000Y-88154270D01*
X159199000Y-88045730D01*
X159220174Y-87939279D01*
X159261709Y-87839005D01*
X159322012Y-87748755D01*
X159398755Y-87672012D01*
X159489005Y-87611709D01*
X159589279Y-87570174D01*
X159695730Y-87549000D01*
X159804270Y-87549000D01*
X159910721Y-87570174D01*
X159910721Y-87570174D01*
G37*
G36*
X157894721Y-87570174D02*
X157994995Y-87611709D01*
X158085245Y-87672012D01*
X158161988Y-87748755D01*
X158222291Y-87839005D01*
X158263826Y-87939279D01*
X158285000Y-88045730D01*
X158285000Y-88154270D01*
X158263826Y-88260721D01*
X158222291Y-88360995D01*
X158161988Y-88451245D01*
X158085245Y-88527988D01*
X157994995Y-88588291D01*
X157894721Y-88629826D01*
X157788270Y-88651000D01*
X157679730Y-88651000D01*
X157573279Y-88629826D01*
X157473005Y-88588291D01*
X157382755Y-88527988D01*
X157306012Y-88451245D01*
X157245709Y-88360995D01*
X157204174Y-88260721D01*
X157183000Y-88154270D01*
X157183000Y-88045730D01*
X157204174Y-87939279D01*
X157245709Y-87839005D01*
X157306012Y-87748755D01*
X157382755Y-87672012D01*
X157473005Y-87611709D01*
X157573279Y-87570174D01*
X157679730Y-87549000D01*
X157788270Y-87549000D01*
X157894721Y-87570174D01*
X157894721Y-87570174D01*
G37*
G36*
X119794721Y-87570174D02*
X119894995Y-87611709D01*
X119985245Y-87672012D01*
X120061988Y-87748755D01*
X120122291Y-87839005D01*
X120163826Y-87939279D01*
X120185000Y-88045730D01*
X120185000Y-88154270D01*
X120163826Y-88260721D01*
X120122291Y-88360995D01*
X120061988Y-88451245D01*
X119985245Y-88527988D01*
X119894995Y-88588291D01*
X119794721Y-88629826D01*
X119688270Y-88651000D01*
X119579730Y-88651000D01*
X119473279Y-88629826D01*
X119373005Y-88588291D01*
X119282755Y-88527988D01*
X119206012Y-88451245D01*
X119145709Y-88360995D01*
X119104174Y-88260721D01*
X119083000Y-88154270D01*
X119083000Y-88045730D01*
X119104174Y-87939279D01*
X119145709Y-87839005D01*
X119206012Y-87748755D01*
X119282755Y-87672012D01*
X119373005Y-87611709D01*
X119473279Y-87570174D01*
X119579730Y-87549000D01*
X119688270Y-87549000D01*
X119794721Y-87570174D01*
X119794721Y-87570174D01*
G37*
G36*
X138844721Y-87570174D02*
X138944995Y-87611709D01*
X139035245Y-87672012D01*
X139111988Y-87748755D01*
X139172291Y-87839005D01*
X139213826Y-87939279D01*
X139235000Y-88045730D01*
X139235000Y-88154270D01*
X139213826Y-88260721D01*
X139172291Y-88360995D01*
X139111988Y-88451245D01*
X139035245Y-88527988D01*
X138944995Y-88588291D01*
X138844721Y-88629826D01*
X138738270Y-88651000D01*
X138629730Y-88651000D01*
X138523279Y-88629826D01*
X138423005Y-88588291D01*
X138332755Y-88527988D01*
X138256012Y-88451245D01*
X138195709Y-88360995D01*
X138154174Y-88260721D01*
X138133000Y-88154270D01*
X138133000Y-88045730D01*
X138154174Y-87939279D01*
X138195709Y-87839005D01*
X138256012Y-87748755D01*
X138332755Y-87672012D01*
X138423005Y-87611709D01*
X138523279Y-87570174D01*
X138629730Y-87549000D01*
X138738270Y-87549000D01*
X138844721Y-87570174D01*
X138844721Y-87570174D01*
G37*
G36*
X140860721Y-87570174D02*
X140960995Y-87611709D01*
X141051245Y-87672012D01*
X141127988Y-87748755D01*
X141188291Y-87839005D01*
X141229826Y-87939279D01*
X141251000Y-88045730D01*
X141251000Y-88154270D01*
X141229826Y-88260721D01*
X141188291Y-88360995D01*
X141127988Y-88451245D01*
X141051245Y-88527988D01*
X140960995Y-88588291D01*
X140860721Y-88629826D01*
X140754270Y-88651000D01*
X140645730Y-88651000D01*
X140539279Y-88629826D01*
X140439005Y-88588291D01*
X140348755Y-88527988D01*
X140272012Y-88451245D01*
X140211709Y-88360995D01*
X140170174Y-88260721D01*
X140149000Y-88154270D01*
X140149000Y-88045730D01*
X140170174Y-87939279D01*
X140211709Y-87839005D01*
X140272012Y-87748755D01*
X140348755Y-87672012D01*
X140439005Y-87611709D01*
X140539279Y-87570174D01*
X140645730Y-87549000D01*
X140754270Y-87549000D01*
X140860721Y-87570174D01*
X140860721Y-87570174D01*
G37*
G36*
X55894721Y-87570174D02*
X55994995Y-87611709D01*
X56085245Y-87672012D01*
X56161988Y-87748755D01*
X56222291Y-87839005D01*
X56263826Y-87939279D01*
X56285000Y-88045730D01*
X56285000Y-88154270D01*
X56263826Y-88260721D01*
X56222291Y-88360995D01*
X56161988Y-88451245D01*
X56085245Y-88527988D01*
X55994995Y-88588291D01*
X55894721Y-88629826D01*
X55788270Y-88651000D01*
X55679730Y-88651000D01*
X55573279Y-88629826D01*
X55473005Y-88588291D01*
X55382755Y-88527988D01*
X55306012Y-88451245D01*
X55245709Y-88360995D01*
X55204174Y-88260721D01*
X55183000Y-88154270D01*
X55183000Y-88045730D01*
X55204174Y-87939279D01*
X55245709Y-87839005D01*
X55306012Y-87748755D01*
X55382755Y-87672012D01*
X55473005Y-87611709D01*
X55573279Y-87570174D01*
X55679730Y-87549000D01*
X55788270Y-87549000D01*
X55894721Y-87570174D01*
X55894721Y-87570174D01*
G37*
G36*
X81694721Y-87570174D02*
X81794995Y-87611709D01*
X81885245Y-87672012D01*
X81961988Y-87748755D01*
X82022291Y-87839005D01*
X82063826Y-87939279D01*
X82085000Y-88045730D01*
X82085000Y-88154270D01*
X82063826Y-88260721D01*
X82022291Y-88360995D01*
X81961988Y-88451245D01*
X81885245Y-88527988D01*
X81794995Y-88588291D01*
X81694721Y-88629826D01*
X81588270Y-88651000D01*
X81479730Y-88651000D01*
X81373279Y-88629826D01*
X81273005Y-88588291D01*
X81182755Y-88527988D01*
X81106012Y-88451245D01*
X81045709Y-88360995D01*
X81004174Y-88260721D01*
X80983000Y-88154270D01*
X80983000Y-88045730D01*
X81004174Y-87939279D01*
X81045709Y-87839005D01*
X81106012Y-87748755D01*
X81182755Y-87672012D01*
X81273005Y-87611709D01*
X81373279Y-87570174D01*
X81479730Y-87549000D01*
X81588270Y-87549000D01*
X81694721Y-87570174D01*
X81694721Y-87570174D01*
G37*
G36*
X83710721Y-87570174D02*
X83810995Y-87611709D01*
X83901245Y-87672012D01*
X83977988Y-87748755D01*
X84038291Y-87839005D01*
X84079826Y-87939279D01*
X84101000Y-88045730D01*
X84101000Y-88154270D01*
X84079826Y-88260721D01*
X84038291Y-88360995D01*
X83977988Y-88451245D01*
X83901245Y-88527988D01*
X83810995Y-88588291D01*
X83710721Y-88629826D01*
X83604270Y-88651000D01*
X83495730Y-88651000D01*
X83389279Y-88629826D01*
X83289005Y-88588291D01*
X83198755Y-88527988D01*
X83122012Y-88451245D01*
X83061709Y-88360995D01*
X83020174Y-88260721D01*
X82999000Y-88154270D01*
X82999000Y-88045730D01*
X83020174Y-87939279D01*
X83061709Y-87839005D01*
X83122012Y-87748755D01*
X83198755Y-87672012D01*
X83289005Y-87611709D01*
X83389279Y-87570174D01*
X83495730Y-87549000D01*
X83604270Y-87549000D01*
X83710721Y-87570174D01*
X83710721Y-87570174D01*
G37*
G36*
X102760721Y-87570174D02*
X102860995Y-87611709D01*
X102951245Y-87672012D01*
X103027988Y-87748755D01*
X103088291Y-87839005D01*
X103129826Y-87939279D01*
X103151000Y-88045730D01*
X103151000Y-88154270D01*
X103129826Y-88260721D01*
X103088291Y-88360995D01*
X103027988Y-88451245D01*
X102951245Y-88527988D01*
X102860995Y-88588291D01*
X102760721Y-88629826D01*
X102654270Y-88651000D01*
X102545730Y-88651000D01*
X102439279Y-88629826D01*
X102339005Y-88588291D01*
X102248755Y-88527988D01*
X102172012Y-88451245D01*
X102111709Y-88360995D01*
X102070174Y-88260721D01*
X102049000Y-88154270D01*
X102049000Y-88045730D01*
X102070174Y-87939279D01*
X102111709Y-87839005D01*
X102172012Y-87748755D01*
X102248755Y-87672012D01*
X102339005Y-87611709D01*
X102439279Y-87570174D01*
X102545730Y-87549000D01*
X102654270Y-87549000D01*
X102760721Y-87570174D01*
X102760721Y-87570174D01*
G37*
G36*
X100744721Y-87570174D02*
X100844995Y-87611709D01*
X100935245Y-87672012D01*
X101011988Y-87748755D01*
X101072291Y-87839005D01*
X101113826Y-87939279D01*
X101135000Y-88045730D01*
X101135000Y-88154270D01*
X101113826Y-88260721D01*
X101072291Y-88360995D01*
X101011988Y-88451245D01*
X100935245Y-88527988D01*
X100844995Y-88588291D01*
X100744721Y-88629826D01*
X100638270Y-88651000D01*
X100529730Y-88651000D01*
X100423279Y-88629826D01*
X100323005Y-88588291D01*
X100232755Y-88527988D01*
X100156012Y-88451245D01*
X100095709Y-88360995D01*
X100054174Y-88260721D01*
X100033000Y-88154270D01*
X100033000Y-88045730D01*
X100054174Y-87939279D01*
X100095709Y-87839005D01*
X100156012Y-87748755D01*
X100232755Y-87672012D01*
X100323005Y-87611709D01*
X100423279Y-87570174D01*
X100529730Y-87549000D01*
X100638270Y-87549000D01*
X100744721Y-87570174D01*
X100744721Y-87570174D01*
G37*
G36*
X121810721Y-87570174D02*
X121910995Y-87611709D01*
X122001245Y-87672012D01*
X122077988Y-87748755D01*
X122138291Y-87839005D01*
X122179826Y-87939279D01*
X122201000Y-88045730D01*
X122201000Y-88154270D01*
X122179826Y-88260721D01*
X122138291Y-88360995D01*
X122077988Y-88451245D01*
X122001245Y-88527988D01*
X121910995Y-88588291D01*
X121810721Y-88629826D01*
X121704270Y-88651000D01*
X121595730Y-88651000D01*
X121489279Y-88629826D01*
X121389005Y-88588291D01*
X121298755Y-88527988D01*
X121222012Y-88451245D01*
X121161709Y-88360995D01*
X121120174Y-88260721D01*
X121099000Y-88154270D01*
X121099000Y-88045730D01*
X121120174Y-87939279D01*
X121161709Y-87839005D01*
X121222012Y-87748755D01*
X121298755Y-87672012D01*
X121389005Y-87611709D01*
X121489279Y-87570174D01*
X121595730Y-87549000D01*
X121704270Y-87549000D01*
X121810721Y-87570174D01*
X121810721Y-87570174D01*
G37*
G36*
X57910721Y-87570174D02*
X58010995Y-87611709D01*
X58101245Y-87672012D01*
X58177988Y-87748755D01*
X58238291Y-87839005D01*
X58279826Y-87939279D01*
X58301000Y-88045730D01*
X58301000Y-88154270D01*
X58279826Y-88260721D01*
X58238291Y-88360995D01*
X58177988Y-88451245D01*
X58101245Y-88527988D01*
X58010995Y-88588291D01*
X57910721Y-88629826D01*
X57804270Y-88651000D01*
X57695730Y-88651000D01*
X57589279Y-88629826D01*
X57489005Y-88588291D01*
X57398755Y-88527988D01*
X57322012Y-88451245D01*
X57261709Y-88360995D01*
X57220174Y-88260721D01*
X57199000Y-88154270D01*
X57199000Y-88045730D01*
X57220174Y-87939279D01*
X57261709Y-87839005D01*
X57322012Y-87748755D01*
X57398755Y-87672012D01*
X57489005Y-87611709D01*
X57589279Y-87570174D01*
X57695730Y-87549000D01*
X57804270Y-87549000D01*
X57910721Y-87570174D01*
X57910721Y-87570174D01*
G37*
G36*
X77194721Y-68520174D02*
X77294995Y-68561709D01*
X77385245Y-68622012D01*
X77461988Y-68698755D01*
X77522291Y-68789005D01*
X77563826Y-68889279D01*
X77585000Y-68995730D01*
X77585000Y-69104270D01*
X77563826Y-69210721D01*
X77522291Y-69310995D01*
X77461988Y-69401245D01*
X77385245Y-69477988D01*
X77294995Y-69538291D01*
X77194721Y-69579826D01*
X77088270Y-69601000D01*
X76979730Y-69601000D01*
X76873279Y-69579826D01*
X76773005Y-69538291D01*
X76682755Y-69477988D01*
X76606012Y-69401245D01*
X76545709Y-69310995D01*
X76504174Y-69210721D01*
X76483000Y-69104270D01*
X76483000Y-68995730D01*
X76504174Y-68889279D01*
X76545709Y-68789005D01*
X76606012Y-68698755D01*
X76682755Y-68622012D01*
X76773005Y-68561709D01*
X76873279Y-68520174D01*
X76979730Y-68499000D01*
X77088270Y-68499000D01*
X77194721Y-68520174D01*
X77194721Y-68520174D01*
G37*
G36*
X79210721Y-68520174D02*
X79310995Y-68561709D01*
X79401245Y-68622012D01*
X79477988Y-68698755D01*
X79538291Y-68789005D01*
X79579826Y-68889279D01*
X79601000Y-68995730D01*
X79601000Y-69104270D01*
X79579826Y-69210721D01*
X79538291Y-69310995D01*
X79477988Y-69401245D01*
X79401245Y-69477988D01*
X79310995Y-69538291D01*
X79210721Y-69579826D01*
X79104270Y-69601000D01*
X78995730Y-69601000D01*
X78889279Y-69579826D01*
X78789005Y-69538291D01*
X78698755Y-69477988D01*
X78622012Y-69401245D01*
X78561709Y-69310995D01*
X78520174Y-69210721D01*
X78499000Y-69104270D01*
X78499000Y-68995730D01*
X78520174Y-68889279D01*
X78561709Y-68789005D01*
X78622012Y-68698755D01*
X78698755Y-68622012D01*
X78789005Y-68561709D01*
X78889279Y-68520174D01*
X78995730Y-68499000D01*
X79104270Y-68499000D01*
X79210721Y-68520174D01*
X79210721Y-68520174D01*
G37*
G36*
X98260721Y-68520174D02*
X98360995Y-68561709D01*
X98451245Y-68622012D01*
X98527988Y-68698755D01*
X98588291Y-68789005D01*
X98629826Y-68889279D01*
X98651000Y-68995730D01*
X98651000Y-69104270D01*
X98629826Y-69210721D01*
X98588291Y-69310995D01*
X98527988Y-69401245D01*
X98451245Y-69477988D01*
X98360995Y-69538291D01*
X98260721Y-69579826D01*
X98154270Y-69601000D01*
X98045730Y-69601000D01*
X97939279Y-69579826D01*
X97839005Y-69538291D01*
X97748755Y-69477988D01*
X97672012Y-69401245D01*
X97611709Y-69310995D01*
X97570174Y-69210721D01*
X97549000Y-69104270D01*
X97549000Y-68995730D01*
X97570174Y-68889279D01*
X97611709Y-68789005D01*
X97672012Y-68698755D01*
X97748755Y-68622012D01*
X97839005Y-68561709D01*
X97939279Y-68520174D01*
X98045730Y-68499000D01*
X98154270Y-68499000D01*
X98260721Y-68520174D01*
X98260721Y-68520174D01*
G37*
G36*
X96244721Y-68520174D02*
X96344995Y-68561709D01*
X96435245Y-68622012D01*
X96511988Y-68698755D01*
X96572291Y-68789005D01*
X96613826Y-68889279D01*
X96635000Y-68995730D01*
X96635000Y-69104270D01*
X96613826Y-69210721D01*
X96572291Y-69310995D01*
X96511988Y-69401245D01*
X96435245Y-69477988D01*
X96344995Y-69538291D01*
X96244721Y-69579826D01*
X96138270Y-69601000D01*
X96029730Y-69601000D01*
X95923279Y-69579826D01*
X95823005Y-69538291D01*
X95732755Y-69477988D01*
X95656012Y-69401245D01*
X95595709Y-69310995D01*
X95554174Y-69210721D01*
X95533000Y-69104270D01*
X95533000Y-68995730D01*
X95554174Y-68889279D01*
X95595709Y-68789005D01*
X95656012Y-68698755D01*
X95732755Y-68622012D01*
X95823005Y-68561709D01*
X95923279Y-68520174D01*
X96029730Y-68499000D01*
X96138270Y-68499000D01*
X96244721Y-68520174D01*
X96244721Y-68520174D01*
G37*
G36*
X55660721Y-68520174D02*
X55760995Y-68561709D01*
X55851245Y-68622012D01*
X55927988Y-68698755D01*
X55988291Y-68789005D01*
X56029826Y-68889279D01*
X56051000Y-68995730D01*
X56051000Y-69104270D01*
X56029826Y-69210721D01*
X55988291Y-69310995D01*
X55927988Y-69401245D01*
X55851245Y-69477988D01*
X55760995Y-69538291D01*
X55660721Y-69579826D01*
X55554270Y-69601000D01*
X55445730Y-69601000D01*
X55339279Y-69579826D01*
X55239005Y-69538291D01*
X55148755Y-69477988D01*
X55072012Y-69401245D01*
X55011709Y-69310995D01*
X54970174Y-69210721D01*
X54949000Y-69104270D01*
X54949000Y-68995730D01*
X54970174Y-68889279D01*
X55011709Y-68789005D01*
X55072012Y-68698755D01*
X55148755Y-68622012D01*
X55239005Y-68561709D01*
X55339279Y-68520174D01*
X55445730Y-68499000D01*
X55554270Y-68499000D01*
X55660721Y-68520174D01*
X55660721Y-68520174D01*
G37*
G36*
X53644721Y-68520174D02*
X53744995Y-68561709D01*
X53835245Y-68622012D01*
X53911988Y-68698755D01*
X53972291Y-68789005D01*
X54013826Y-68889279D01*
X54035000Y-68995730D01*
X54035000Y-69104270D01*
X54013826Y-69210721D01*
X53972291Y-69310995D01*
X53911988Y-69401245D01*
X53835245Y-69477988D01*
X53744995Y-69538291D01*
X53644721Y-69579826D01*
X53538270Y-69601000D01*
X53429730Y-69601000D01*
X53323279Y-69579826D01*
X53223005Y-69538291D01*
X53132755Y-69477988D01*
X53056012Y-69401245D01*
X52995709Y-69310995D01*
X52954174Y-69210721D01*
X52933000Y-69104270D01*
X52933000Y-68995730D01*
X52954174Y-68889279D01*
X52995709Y-68789005D01*
X53056012Y-68698755D01*
X53132755Y-68622012D01*
X53223005Y-68561709D01*
X53323279Y-68520174D01*
X53429730Y-68499000D01*
X53538270Y-68499000D01*
X53644721Y-68520174D01*
X53644721Y-68520174D01*
G37*
G36*
X134344721Y-68520174D02*
X134444995Y-68561709D01*
X134535245Y-68622012D01*
X134611988Y-68698755D01*
X134672291Y-68789005D01*
X134713826Y-68889279D01*
X134735000Y-68995730D01*
X134735000Y-69104270D01*
X134713826Y-69210721D01*
X134672291Y-69310995D01*
X134611988Y-69401245D01*
X134535245Y-69477988D01*
X134444995Y-69538291D01*
X134344721Y-69579826D01*
X134238270Y-69601000D01*
X134129730Y-69601000D01*
X134023279Y-69579826D01*
X133923005Y-69538291D01*
X133832755Y-69477988D01*
X133756012Y-69401245D01*
X133695709Y-69310995D01*
X133654174Y-69210721D01*
X133633000Y-69104270D01*
X133633000Y-68995730D01*
X133654174Y-68889279D01*
X133695709Y-68789005D01*
X133756012Y-68698755D01*
X133832755Y-68622012D01*
X133923005Y-68561709D01*
X134023279Y-68520174D01*
X134129730Y-68499000D01*
X134238270Y-68499000D01*
X134344721Y-68520174D01*
X134344721Y-68520174D01*
G37*
G36*
X136360721Y-68520174D02*
X136460995Y-68561709D01*
X136551245Y-68622012D01*
X136627988Y-68698755D01*
X136688291Y-68789005D01*
X136729826Y-68889279D01*
X136751000Y-68995730D01*
X136751000Y-69104270D01*
X136729826Y-69210721D01*
X136688291Y-69310995D01*
X136627988Y-69401245D01*
X136551245Y-69477988D01*
X136460995Y-69538291D01*
X136360721Y-69579826D01*
X136254270Y-69601000D01*
X136145730Y-69601000D01*
X136039279Y-69579826D01*
X135939005Y-69538291D01*
X135848755Y-69477988D01*
X135772012Y-69401245D01*
X135711709Y-69310995D01*
X135670174Y-69210721D01*
X135649000Y-69104270D01*
X135649000Y-68995730D01*
X135670174Y-68889279D01*
X135711709Y-68789005D01*
X135772012Y-68698755D01*
X135848755Y-68622012D01*
X135939005Y-68561709D01*
X136039279Y-68520174D01*
X136145730Y-68499000D01*
X136254270Y-68499000D01*
X136360721Y-68520174D01*
X136360721Y-68520174D01*
G37*
G36*
X153394721Y-68520174D02*
X153494995Y-68561709D01*
X153585245Y-68622012D01*
X153661988Y-68698755D01*
X153722291Y-68789005D01*
X153763826Y-68889279D01*
X153785000Y-68995730D01*
X153785000Y-69104270D01*
X153763826Y-69210721D01*
X153722291Y-69310995D01*
X153661988Y-69401245D01*
X153585245Y-69477988D01*
X153494995Y-69538291D01*
X153394721Y-69579826D01*
X153288270Y-69601000D01*
X153179730Y-69601000D01*
X153073279Y-69579826D01*
X152973005Y-69538291D01*
X152882755Y-69477988D01*
X152806012Y-69401245D01*
X152745709Y-69310995D01*
X152704174Y-69210721D01*
X152683000Y-69104270D01*
X152683000Y-68995730D01*
X152704174Y-68889279D01*
X152745709Y-68789005D01*
X152806012Y-68698755D01*
X152882755Y-68622012D01*
X152973005Y-68561709D01*
X153073279Y-68520174D01*
X153179730Y-68499000D01*
X153288270Y-68499000D01*
X153394721Y-68520174D01*
X153394721Y-68520174D01*
G37*
G36*
X155410721Y-68520174D02*
X155510995Y-68561709D01*
X155601245Y-68622012D01*
X155677988Y-68698755D01*
X155738291Y-68789005D01*
X155779826Y-68889279D01*
X155801000Y-68995730D01*
X155801000Y-69104270D01*
X155779826Y-69210721D01*
X155738291Y-69310995D01*
X155677988Y-69401245D01*
X155601245Y-69477988D01*
X155510995Y-69538291D01*
X155410721Y-69579826D01*
X155304270Y-69601000D01*
X155195730Y-69601000D01*
X155089279Y-69579826D01*
X154989005Y-69538291D01*
X154898755Y-69477988D01*
X154822012Y-69401245D01*
X154761709Y-69310995D01*
X154720174Y-69210721D01*
X154699000Y-69104270D01*
X154699000Y-68995730D01*
X154720174Y-68889279D01*
X154761709Y-68789005D01*
X154822012Y-68698755D01*
X154898755Y-68622012D01*
X154989005Y-68561709D01*
X155089279Y-68520174D01*
X155195730Y-68499000D01*
X155304270Y-68499000D01*
X155410721Y-68520174D01*
X155410721Y-68520174D01*
G37*
G36*
X115294721Y-68520174D02*
X115394995Y-68561709D01*
X115485245Y-68622012D01*
X115561988Y-68698755D01*
X115622291Y-68789005D01*
X115663826Y-68889279D01*
X115685000Y-68995730D01*
X115685000Y-69104270D01*
X115663826Y-69210721D01*
X115622291Y-69310995D01*
X115561988Y-69401245D01*
X115485245Y-69477988D01*
X115394995Y-69538291D01*
X115294721Y-69579826D01*
X115188270Y-69601000D01*
X115079730Y-69601000D01*
X114973279Y-69579826D01*
X114873005Y-69538291D01*
X114782755Y-69477988D01*
X114706012Y-69401245D01*
X114645709Y-69310995D01*
X114604174Y-69210721D01*
X114583000Y-69104270D01*
X114583000Y-68995730D01*
X114604174Y-68889279D01*
X114645709Y-68789005D01*
X114706012Y-68698755D01*
X114782755Y-68622012D01*
X114873005Y-68561709D01*
X114973279Y-68520174D01*
X115079730Y-68499000D01*
X115188270Y-68499000D01*
X115294721Y-68520174D01*
X115294721Y-68520174D01*
G37*
G36*
X117310721Y-68520174D02*
X117410995Y-68561709D01*
X117501245Y-68622012D01*
X117577988Y-68698755D01*
X117638291Y-68789005D01*
X117679826Y-68889279D01*
X117701000Y-68995730D01*
X117701000Y-69104270D01*
X117679826Y-69210721D01*
X117638291Y-69310995D01*
X117577988Y-69401245D01*
X117501245Y-69477988D01*
X117410995Y-69538291D01*
X117310721Y-69579826D01*
X117204270Y-69601000D01*
X117095730Y-69601000D01*
X116989279Y-69579826D01*
X116889005Y-69538291D01*
X116798755Y-69477988D01*
X116722012Y-69401245D01*
X116661709Y-69310995D01*
X116620174Y-69210721D01*
X116599000Y-69104270D01*
X116599000Y-68995730D01*
X116620174Y-68889279D01*
X116661709Y-68789005D01*
X116722012Y-68698755D01*
X116798755Y-68622012D01*
X116889005Y-68561709D01*
X116989279Y-68520174D01*
X117095730Y-68499000D01*
X117204270Y-68499000D01*
X117310721Y-68520174D01*
X117310721Y-68520174D01*
G37*
G36*
X49144721Y-49470174D02*
X49244995Y-49511709D01*
X49335245Y-49572012D01*
X49411988Y-49648755D01*
X49472291Y-49739005D01*
X49513826Y-49839279D01*
X49535000Y-49945730D01*
X49535000Y-50054270D01*
X49513826Y-50160721D01*
X49472291Y-50260995D01*
X49411988Y-50351245D01*
X49335245Y-50427988D01*
X49244995Y-50488291D01*
X49144721Y-50529826D01*
X49038270Y-50551000D01*
X48929730Y-50551000D01*
X48823279Y-50529826D01*
X48723005Y-50488291D01*
X48632755Y-50427988D01*
X48556012Y-50351245D01*
X48495709Y-50260995D01*
X48454174Y-50160721D01*
X48433000Y-50054270D01*
X48433000Y-49945730D01*
X48454174Y-49839279D01*
X48495709Y-49739005D01*
X48556012Y-49648755D01*
X48632755Y-49572012D01*
X48723005Y-49511709D01*
X48823279Y-49470174D01*
X48929730Y-49449000D01*
X49038270Y-49449000D01*
X49144721Y-49470174D01*
X49144721Y-49470174D01*
G37*
G36*
X51160721Y-49470174D02*
X51260995Y-49511709D01*
X51351245Y-49572012D01*
X51427988Y-49648755D01*
X51488291Y-49739005D01*
X51529826Y-49839279D01*
X51551000Y-49945730D01*
X51551000Y-50054270D01*
X51529826Y-50160721D01*
X51488291Y-50260995D01*
X51427988Y-50351245D01*
X51351245Y-50427988D01*
X51260995Y-50488291D01*
X51160721Y-50529826D01*
X51054270Y-50551000D01*
X50945730Y-50551000D01*
X50839279Y-50529826D01*
X50739005Y-50488291D01*
X50648755Y-50427988D01*
X50572012Y-50351245D01*
X50511709Y-50260995D01*
X50470174Y-50160721D01*
X50449000Y-50054270D01*
X50449000Y-49945730D01*
X50470174Y-49839279D01*
X50511709Y-49739005D01*
X50572012Y-49648755D01*
X50648755Y-49572012D01*
X50739005Y-49511709D01*
X50839279Y-49470174D01*
X50945730Y-49449000D01*
X51054270Y-49449000D01*
X51160721Y-49470174D01*
X51160721Y-49470174D01*
G37*
G36*
X68194721Y-49470174D02*
X68294995Y-49511709D01*
X68385245Y-49572012D01*
X68461988Y-49648755D01*
X68522291Y-49739005D01*
X68563826Y-49839279D01*
X68585000Y-49945730D01*
X68585000Y-50054270D01*
X68563826Y-50160721D01*
X68522291Y-50260995D01*
X68461988Y-50351245D01*
X68385245Y-50427988D01*
X68294995Y-50488291D01*
X68194721Y-50529826D01*
X68088270Y-50551000D01*
X67979730Y-50551000D01*
X67873279Y-50529826D01*
X67773005Y-50488291D01*
X67682755Y-50427988D01*
X67606012Y-50351245D01*
X67545709Y-50260995D01*
X67504174Y-50160721D01*
X67483000Y-50054270D01*
X67483000Y-49945730D01*
X67504174Y-49839279D01*
X67545709Y-49739005D01*
X67606012Y-49648755D01*
X67682755Y-49572012D01*
X67773005Y-49511709D01*
X67873279Y-49470174D01*
X67979730Y-49449000D01*
X68088270Y-49449000D01*
X68194721Y-49470174D01*
X68194721Y-49470174D01*
G37*
G36*
X70210721Y-49470174D02*
X70310995Y-49511709D01*
X70401245Y-49572012D01*
X70477988Y-49648755D01*
X70538291Y-49739005D01*
X70579826Y-49839279D01*
X70601000Y-49945730D01*
X70601000Y-50054270D01*
X70579826Y-50160721D01*
X70538291Y-50260995D01*
X70477988Y-50351245D01*
X70401245Y-50427988D01*
X70310995Y-50488291D01*
X70210721Y-50529826D01*
X70104270Y-50551000D01*
X69995730Y-50551000D01*
X69889279Y-50529826D01*
X69789005Y-50488291D01*
X69698755Y-50427988D01*
X69622012Y-50351245D01*
X69561709Y-50260995D01*
X69520174Y-50160721D01*
X69499000Y-50054270D01*
X69499000Y-49945730D01*
X69520174Y-49839279D01*
X69561709Y-49739005D01*
X69622012Y-49648755D01*
X69698755Y-49572012D01*
X69789005Y-49511709D01*
X69889279Y-49470174D01*
X69995730Y-49449000D01*
X70104270Y-49449000D01*
X70210721Y-49470174D01*
X70210721Y-49470174D01*
G37*
G36*
X87244721Y-49470174D02*
X87344995Y-49511709D01*
X87435245Y-49572012D01*
X87511988Y-49648755D01*
X87572291Y-49739005D01*
X87613826Y-49839279D01*
X87635000Y-49945730D01*
X87635000Y-50054270D01*
X87613826Y-50160721D01*
X87572291Y-50260995D01*
X87511988Y-50351245D01*
X87435245Y-50427988D01*
X87344995Y-50488291D01*
X87244721Y-50529826D01*
X87138270Y-50551000D01*
X87029730Y-50551000D01*
X86923279Y-50529826D01*
X86823005Y-50488291D01*
X86732755Y-50427988D01*
X86656012Y-50351245D01*
X86595709Y-50260995D01*
X86554174Y-50160721D01*
X86533000Y-50054270D01*
X86533000Y-49945730D01*
X86554174Y-49839279D01*
X86595709Y-49739005D01*
X86656012Y-49648755D01*
X86732755Y-49572012D01*
X86823005Y-49511709D01*
X86923279Y-49470174D01*
X87029730Y-49449000D01*
X87138270Y-49449000D01*
X87244721Y-49470174D01*
X87244721Y-49470174D01*
G37*
G36*
X89260721Y-49470174D02*
X89360995Y-49511709D01*
X89451245Y-49572012D01*
X89527988Y-49648755D01*
X89588291Y-49739005D01*
X89629826Y-49839279D01*
X89651000Y-49945730D01*
X89651000Y-50054270D01*
X89629826Y-50160721D01*
X89588291Y-50260995D01*
X89527988Y-50351245D01*
X89451245Y-50427988D01*
X89360995Y-50488291D01*
X89260721Y-50529826D01*
X89154270Y-50551000D01*
X89045730Y-50551000D01*
X88939279Y-50529826D01*
X88839005Y-50488291D01*
X88748755Y-50427988D01*
X88672012Y-50351245D01*
X88611709Y-50260995D01*
X88570174Y-50160721D01*
X88549000Y-50054270D01*
X88549000Y-49945730D01*
X88570174Y-49839279D01*
X88611709Y-49739005D01*
X88672012Y-49648755D01*
X88748755Y-49572012D01*
X88839005Y-49511709D01*
X88939279Y-49470174D01*
X89045730Y-49449000D01*
X89154270Y-49449000D01*
X89260721Y-49470174D01*
X89260721Y-49470174D01*
G37*
G36*
X106294721Y-49470174D02*
X106394995Y-49511709D01*
X106485245Y-49572012D01*
X106561988Y-49648755D01*
X106622291Y-49739005D01*
X106663826Y-49839279D01*
X106685000Y-49945730D01*
X106685000Y-50054270D01*
X106663826Y-50160721D01*
X106622291Y-50260995D01*
X106561988Y-50351245D01*
X106485245Y-50427988D01*
X106394995Y-50488291D01*
X106294721Y-50529826D01*
X106188270Y-50551000D01*
X106079730Y-50551000D01*
X105973279Y-50529826D01*
X105873005Y-50488291D01*
X105782755Y-50427988D01*
X105706012Y-50351245D01*
X105645709Y-50260995D01*
X105604174Y-50160721D01*
X105583000Y-50054270D01*
X105583000Y-49945730D01*
X105604174Y-49839279D01*
X105645709Y-49739005D01*
X105706012Y-49648755D01*
X105782755Y-49572012D01*
X105873005Y-49511709D01*
X105973279Y-49470174D01*
X106079730Y-49449000D01*
X106188270Y-49449000D01*
X106294721Y-49470174D01*
X106294721Y-49470174D01*
G37*
G36*
X108310721Y-49470174D02*
X108410995Y-49511709D01*
X108501245Y-49572012D01*
X108577988Y-49648755D01*
X108638291Y-49739005D01*
X108679826Y-49839279D01*
X108701000Y-49945730D01*
X108701000Y-50054270D01*
X108679826Y-50160721D01*
X108638291Y-50260995D01*
X108577988Y-50351245D01*
X108501245Y-50427988D01*
X108410995Y-50488291D01*
X108310721Y-50529826D01*
X108204270Y-50551000D01*
X108095730Y-50551000D01*
X107989279Y-50529826D01*
X107889005Y-50488291D01*
X107798755Y-50427988D01*
X107722012Y-50351245D01*
X107661709Y-50260995D01*
X107620174Y-50160721D01*
X107599000Y-50054270D01*
X107599000Y-49945730D01*
X107620174Y-49839279D01*
X107661709Y-49739005D01*
X107722012Y-49648755D01*
X107798755Y-49572012D01*
X107889005Y-49511709D01*
X107989279Y-49470174D01*
X108095730Y-49449000D01*
X108204270Y-49449000D01*
X108310721Y-49470174D01*
X108310721Y-49470174D01*
G37*
G36*
X125344721Y-49470174D02*
X125444995Y-49511709D01*
X125535245Y-49572012D01*
X125611988Y-49648755D01*
X125672291Y-49739005D01*
X125713826Y-49839279D01*
X125735000Y-49945730D01*
X125735000Y-50054270D01*
X125713826Y-50160721D01*
X125672291Y-50260995D01*
X125611988Y-50351245D01*
X125535245Y-50427988D01*
X125444995Y-50488291D01*
X125344721Y-50529826D01*
X125238270Y-50551000D01*
X125129730Y-50551000D01*
X125023279Y-50529826D01*
X124923005Y-50488291D01*
X124832755Y-50427988D01*
X124756012Y-50351245D01*
X124695709Y-50260995D01*
X124654174Y-50160721D01*
X124633000Y-50054270D01*
X124633000Y-49945730D01*
X124654174Y-49839279D01*
X124695709Y-49739005D01*
X124756012Y-49648755D01*
X124832755Y-49572012D01*
X124923005Y-49511709D01*
X125023279Y-49470174D01*
X125129730Y-49449000D01*
X125238270Y-49449000D01*
X125344721Y-49470174D01*
X125344721Y-49470174D01*
G37*
G36*
X127360721Y-49470174D02*
X127460995Y-49511709D01*
X127551245Y-49572012D01*
X127627988Y-49648755D01*
X127688291Y-49739005D01*
X127729826Y-49839279D01*
X127751000Y-49945730D01*
X127751000Y-50054270D01*
X127729826Y-50160721D01*
X127688291Y-50260995D01*
X127627988Y-50351245D01*
X127551245Y-50427988D01*
X127460995Y-50488291D01*
X127360721Y-50529826D01*
X127254270Y-50551000D01*
X127145730Y-50551000D01*
X127039279Y-50529826D01*
X126939005Y-50488291D01*
X126848755Y-50427988D01*
X126772012Y-50351245D01*
X126711709Y-50260995D01*
X126670174Y-50160721D01*
X126649000Y-50054270D01*
X126649000Y-49945730D01*
X126670174Y-49839279D01*
X126711709Y-49739005D01*
X126772012Y-49648755D01*
X126848755Y-49572012D01*
X126939005Y-49511709D01*
X127039279Y-49470174D01*
X127145730Y-49449000D01*
X127254270Y-49449000D01*
X127360721Y-49470174D01*
X127360721Y-49470174D01*
G37*
G36*
X144394721Y-49470174D02*
X144494995Y-49511709D01*
X144585245Y-49572012D01*
X144661988Y-49648755D01*
X144722291Y-49739005D01*
X144763826Y-49839279D01*
X144785000Y-49945730D01*
X144785000Y-50054270D01*
X144763826Y-50160721D01*
X144722291Y-50260995D01*
X144661988Y-50351245D01*
X144585245Y-50427988D01*
X144494995Y-50488291D01*
X144394721Y-50529826D01*
X144288270Y-50551000D01*
X144179730Y-50551000D01*
X144073279Y-50529826D01*
X143973005Y-50488291D01*
X143882755Y-50427988D01*
X143806012Y-50351245D01*
X143745709Y-50260995D01*
X143704174Y-50160721D01*
X143683000Y-50054270D01*
X143683000Y-49945730D01*
X143704174Y-49839279D01*
X143745709Y-49739005D01*
X143806012Y-49648755D01*
X143882755Y-49572012D01*
X143973005Y-49511709D01*
X144073279Y-49470174D01*
X144179730Y-49449000D01*
X144288270Y-49449000D01*
X144394721Y-49470174D01*
X144394721Y-49470174D01*
G37*
G36*
X146410721Y-49470174D02*
X146510995Y-49511709D01*
X146601245Y-49572012D01*
X146677988Y-49648755D01*
X146738291Y-49739005D01*
X146779826Y-49839279D01*
X146801000Y-49945730D01*
X146801000Y-50054270D01*
X146779826Y-50160721D01*
X146738291Y-50260995D01*
X146677988Y-50351245D01*
X146601245Y-50427988D01*
X146510995Y-50488291D01*
X146410721Y-50529826D01*
X146304270Y-50551000D01*
X146195730Y-50551000D01*
X146089279Y-50529826D01*
X145989005Y-50488291D01*
X145898755Y-50427988D01*
X145822012Y-50351245D01*
X145761709Y-50260995D01*
X145720174Y-50160721D01*
X145699000Y-50054270D01*
X145699000Y-49945730D01*
X145720174Y-49839279D01*
X145761709Y-49739005D01*
X145822012Y-49648755D01*
X145898755Y-49572012D01*
X145989005Y-49511709D01*
X146089279Y-49470174D01*
X146195730Y-49449000D01*
X146304270Y-49449000D01*
X146410721Y-49470174D01*
X146410721Y-49470174D01*
G37*
M02*
